<svg width="301" height="100" viewBox="0 0 301 100" fill="none" xmlns="http://www.w3.org/2000/svg">
<g clip-path="url(#clip0_417_452)">
<path fill-rule="evenodd" clip-rule="evenodd" d="M56.9278 41.0173C56.3091 43.9885 53.5746 51.6039 44.8441 55.7285L41.3381 51.7872L35.4261 57.7374C28.6052 57.6457 22.212 54.3689 18.1561 48.877C18.7824 49.0756 19.4317 49.1978 20.0886 49.2436C21.0586 49.2589 22.1051 48.9076 22.1051 47.273V31.2327C22.1585 29.7738 21.0128 28.5517 19.5615 28.4982C19.3018 28.4906 19.0345 28.5211 18.7824 28.5898C16.0479 29.2162 13.8558 36.0524 13.8558 36.0524C13.7947 29.6668 16.5444 23.5715 21.3794 19.3934C25.4582 15.9409 29.4378 14.7417 32.4701 14.2758C29.4836 15.9791 27.7955 18.7594 27.7955 21.0967C27.7955 24.8395 30.0565 24.3965 30.7286 23.8465V45.5085C30.8432 45.7835 30.9883 46.0356 31.164 46.2724C31.7751 47.1126 32.7451 47.6091 33.7839 47.5938C36.0448 47.5938 38.9856 45.0121 38.9856 45.0121V27.467C38.9856 25.6797 37.6412 23.5257 36.2969 22.7924C36.2969 22.7924 38.787 22.357 40.7194 23.8236C41.0784 23.3806 41.468 22.9605 41.8728 22.5556C46.3565 18.156 50.5804 16.9033 54.1016 16.277C54.1016 16.277 47.6931 21.3106 47.6931 28.0552C47.6931 33.0735 47.823 45.3176 47.823 45.3176C50.2061 47.6091 53.7426 44.3017 56.9354 41.0173H56.9278ZM35.7164 0.167969C55.4383 0.167969 71.4252 16.1548 71.4252 35.8767C71.4252 55.5987 55.4383 71.5855 35.7164 71.5931C15.9945 71.5931 0 55.6063 0 35.8844C0 16.1624 15.9868 0.167969 35.7088 0.167969H35.7164Z" fill="white"/>
<path d="M91.1699 21.3715V0.671875H98.7318V21.6388C98.7318 23.1359 99.8775 25.1524 103.345 25.1524C106.813 25.1524 107.959 23.1283 107.959 21.6388V0.671875H115.521V21.3715C115.521 28.0931 110.861 32.0956 103.345 32.0956C95.8292 32.0956 91.1699 28.0931 91.1699 21.3715Z" fill="white"/>
<path d="M122.601 0.671875H129.544L139.612 17.3309V0.671875H146.952V31.4387H140.055L129.942 14.7797V31.4387H122.601V0.671875Z" fill="white"/>
<path d="M154.46 0.671875H167.957C174.549 0.671875 177.887 4.32295 177.887 10.4259C177.887 14.4283 176.13 17.5906 173.182 19.3474L178.849 28.9715V31.4311H171.509L165.177 20.1799H162.015V31.4311H154.453V0.671875H154.46ZM166.682 13.9471C168.92 13.9471 170.241 13.2444 170.241 10.5634C170.241 7.88237 168.92 7.26367 166.682 7.26367H162.022V13.9471H166.682Z" fill="white"/>
<path d="M184.662 0.671875H205.232V7.26367H192.224V12.8931H203.215V19.1335H192.224V24.8469H205.323V31.4387H184.662V0.671875Z" fill="white"/>
<path d="M227.161 24.8011H217.407L215.207 31.4387H208.524V28.9792L218.721 0.671875H226.145L236.388 28.9792V31.4387H229.315L227.161 24.8011ZM219.515 18.469H225.053L222.326 10.0745L219.515 18.469Z" fill="white"/>
<path d="M240.788 0.671875H248.35V24.8469H261.533V31.4387H240.788V0.671875Z" fill="white"/>
<path d="M91.613 41.605H112.534V48.1968H99.1749V54.3532H110.426V60.5936H99.1749V72.3718H91.613V41.605Z" fill="white"/>
<path d="M117.85 41.605H138.42V48.1968H125.412V53.8262H136.404V60.0666H125.412V65.78H138.512V72.3718H117.85V41.605Z" fill="white"/>
<path d="M142.82 62.3962H150.382C150.382 65.5203 153.681 66.0855 155.919 66.0855C158.554 66.0855 159.83 65.1613 159.83 63.6718C159.83 62.2664 158.203 61.6935 155.301 60.7235L150.29 59.0507C148.09 58.3021 143.606 56.3238 143.606 50.6563C143.606 44.9887 148.044 40.9404 155.339 40.9404C162.152 40.9404 167.117 44.4158 167.117 51.4888H159.517C159.517 49.0293 157.455 47.8836 154.987 47.8836C152.658 47.8836 151.298 48.762 151.298 50.2591C151.298 51.7562 152.398 52.1457 154.422 52.8561L159.303 54.5289C164.184 56.2016 167.438 58.0043 167.438 63.2746C167.438 68.9422 163.611 73.0363 155.354 73.0363C148.411 73.0363 142.827 69.4311 142.827 62.3962H142.82Z" fill="white"/>
<path d="M178.857 48.1968H170.592V41.605H194.637V48.1968H186.419V72.3718H178.857V48.1968Z" fill="white"/>
<path d="M206.148 70.3936L215.467 60.8993C218.675 57.6454 222.059 54.2617 222.059 49.9996C222.059 45.7374 219.469 43.1404 215.291 43.1404C211.113 43.1404 208.218 45.9513 208.172 50.7481H205.934C205.934 44.4618 209.975 40.9482 215.299 40.9482C220.928 40.9482 224.442 44.6375 224.442 49.9996C224.442 55.3616 220.401 59.0509 217.231 62.2589L209.41 70.1721H225.099V72.3719H206.156V70.3936H206.148Z" fill="white"/>
<path d="M231.377 63.229V50.7481C231.377 44.5535 235.158 40.9482 241.131 40.9482C247.105 40.9482 250.931 44.5535 250.931 50.7481V63.229C250.931 69.4236 247.105 73.0288 241.131 73.0288C235.158 73.0288 231.377 69.4236 231.377 63.229ZM248.563 63.3588V50.6564C248.563 46.127 245.791 43.1404 241.139 43.1404C236.487 43.1404 233.753 46.127 233.753 50.6564V63.3588C233.753 67.8425 236.48 70.829 241.139 70.829C245.798 70.829 248.563 67.8425 248.563 63.3588Z" fill="white"/>
<path d="M256.958 70.3936L266.277 60.8993C269.485 57.6454 272.868 54.2617 272.868 49.9996C272.868 45.7374 270.279 43.1404 266.101 43.1404C261.923 43.1404 259.028 45.9513 258.982 50.7481H256.744C256.744 44.4618 260.785 40.9482 266.109 40.9482C271.738 40.9482 275.251 44.6375 275.251 49.9996C275.251 55.3616 271.211 59.0509 268.041 62.2589L260.219 70.1721H275.908V72.3719H256.966V70.3936H256.958Z" fill="white"/>
<path d="M281.224 63.5345H283.508C283.638 67.9723 286.495 70.829 291.284 70.829C296.073 70.829 298.624 68.0563 298.624 63.6644C298.624 59.8834 296.073 57.3323 291.941 57.3323H289.26V55.2699H291.849C295.539 55.2699 297.914 52.9861 297.914 49.335C297.914 46.1728 295.76 43.1404 291.276 43.1404C286.793 43.1404 284.242 45.8673 284.203 50.5724H281.92C281.965 44.3778 285.655 40.9482 291.284 40.9482C296.913 40.9482 300.251 44.6833 300.251 49.167C300.251 52.9937 298.097 55.2776 295.371 56.2018C298.449 56.9962 301 59.7154 301 63.8018C301 69.5611 297.349 73.0288 291.246 73.0288C285.143 73.0288 281.354 69.4694 281.224 63.5345Z" fill="white"/>
<path d="M89.0847 93.736H91.2769C91.2769 96.8372 93.8739 97.8149 95.9897 97.8149C98.6096 97.8149 99.9234 96.5775 99.9234 94.9658C99.9234 93.3541 98.5638 92.6743 95.8904 91.6661L94.6301 91.2154C91.3762 90.0544 89.6423 89.0003 89.6423 86.304C89.6423 83.4321 91.9109 81.4385 95.7147 81.4385C99.32 81.4385 102.116 83.1494 102.116 87.3887H99.9234C99.9234 84.4938 97.884 83.455 95.6918 83.455C93.301 83.455 91.8345 84.5854 91.8345 86.1513C91.8345 87.7171 92.9955 88.3969 95.539 89.2982L96.723 89.726C99.7706 90.8335 102.238 91.9411 102.238 94.8665C102.238 97.7919 100.122 99.8313 95.8904 99.8313C92.3386 99.8313 89.0847 97.9447 89.0847 93.736Z" fill="white"/>
<path d="M106.164 81.813H117.148V83.7531H108.356V89.5964H115.964V91.5365H108.356V97.5096H117.178V99.4497H106.164V81.813Z" fill="white"/>
<path d="M120.371 93.5069V87.7629C120.371 83.7605 123.014 81.4385 127.146 81.4385C131.278 81.4385 133.921 83.7605 133.921 87.7629V93.5069C133.921 97.5093 131.278 99.8313 127.146 99.8313C123.014 99.8313 120.371 97.5093 120.371 93.5069ZM131.737 93.6062V87.6636C131.737 85.1965 130.102 83.455 127.154 83.455C124.205 83.455 122.571 85.1965 122.571 87.6636V93.6062C122.571 96.0733 124.182 97.8149 127.154 97.8149C130.125 97.8149 131.737 96.0733 131.737 93.6062Z" fill="white"/>
<path d="M137.855 93.7057V81.813H140.047V93.7821C140.047 96.2263 141.636 97.8151 144.355 97.8151C147.074 97.8151 148.64 96.2493 148.64 93.7821V81.813H150.832V93.7057C150.832 97.6394 148.136 99.8316 144.355 99.8316C140.574 99.8316 137.855 97.6623 137.855 93.7057Z" fill="white"/>
<path d="M155.262 81.813H157.455V97.5096H166.475V99.4497H155.262V81.813Z" fill="white"/>
</g>
<defs>
<clipPath id="clip0_417_452">
<rect width="301" height="99.6637" fill="white" transform="translate(0 0.167969)"/>
</clipPath>
</defs>
</svg>
