<?xml version="1.0" standalone="no"?>
<!DOCTYPE svg PUBLIC "-//W3C//DTD SVG 1.1//EN" "http://www.w3.org/Graphics/SVG/1.1/DTD/svg11.dtd" >
<svg xmlns="http://www.w3.org/2000/svg" xmlns:xlink="http://www.w3.org/1999/xlink" version="1.1">
<metadata>
Created by FontForge 20190801 at Wed Feb 26 14:23:05 2014
 By Jimmy Wärting
Copyright (c) 2013 by Gayane Bagdasaryan, Dmitry Rastvortsev. All rights reserved.
</metadata>
<defs>
<font id="BrutalType-Medium" horiz-adv-x="614" >
  <font-face 
    font-family="Brutal Type"
    font-weight="500"
    font-stretch="normal"
    units-per-em="1000"
    panose-1="2 0 6 3 2 0 0 2 0 4"
    ascent="804"
    descent="-196"
    x-height="520"
    cap-height="700"
    bbox="-50 -277 1105 955"
    underline-thickness="50"
    underline-position="-100"
    stemh="100"
    stemv="110"
    unicode-range="U+0020-FB02"
  />
<missing-glyph horiz-adv-x="300" 
 />
    <glyph glyph-name="fi" unicode="fi" horiz-adv-x="615" 
d="M95 0v424h-80v96h80v2c0 100 48 185 193 185c12 0 27 -1 37 -2v-96h-23c-69 0 -97 -26 -97 -87v-2h330v-520h-110v424h-220v-424h-110zM425 595v110h110v-110h-110z" />
    <glyph glyph-name="fl" unicode="fl" horiz-adv-x="615" 
d="M95 0v424h-80v96h80c0 102 48 187 193 187c12 0 27 -1 37 -2v-96h-23c-69 0 -97 -26 -97 -89h113v-96h-113v-424h-110zM425 0v705h110v-705h-110z" />
    <glyph glyph-name=".notdef" horiz-adv-x="300" 
 />
    <glyph glyph-name="space" unicode=" " horiz-adv-x="240" 
 />
    <glyph glyph-name="exclam" unicode="!" horiz-adv-x="296" 
d="M90 0v123h116v-123h-116zM93 220v480h110v-480h-110z" />
    <glyph glyph-name="quotedbl" unicode="&#x22;" horiz-adv-x="401" 
d="M70 456l-20 204v45h120v-45l-20 -204h-80zM251 456l-20 204v45h120v-45l-20 -204h-80z" />
    <glyph glyph-name="numbersign" unicode="#" horiz-adv-x="685" 
d="M100 0v40l26 128h-86v100h107l34 164h-96v100h117l35 168h98v-40l-27 -128h144l35 168h98v-40l-27 -128h87v-100h-108l-34 -164h97v-100h-117l-35 -168h-98v40l26 128h-143l-35 -168h-98zM253 268h144l34 164h-144z" />
    <glyph glyph-name="dollar" unicode="$" horiz-adv-x="602" 
d="M45 227h110c0 -108 74 -142 149 -142c80 0 122 42 122 98s-45 76 -103 101l-56 24c-133 57 -203 92 -203 210c0 104 74 180 184 194v91h110v-94c90 -20 178 -91 178 -230h-110c0 102 -60 136 -133 136c-70 0 -116 -37 -116 -92c0 -63 45 -80 129 -115l57 -24
c103 -43 179 -86 179 -192c0 -101 -57 -185 -184 -203v-106h-110v105c-111 13 -203 90 -203 239z" />
    <glyph glyph-name="percent" unicode="%" horiz-adv-x="792" 
d="M195 434c38 0 58 26 58 58v86c0 32 -20 58 -58 58s-58 -26 -58 -58v-86c0 -32 20 -58 58 -58zM195 355c-96 0 -155 53 -155 152v56c0 99 59 152 155 152s155 -53 155 -152v-56c0 -99 -59 -152 -155 -152zM597 64c38 0 58 26 58 58v86c0 32 -20 58 -58 58s-58 -26 -58 -58
v-86c0 -32 20 -58 58 -58zM597 -15c-96 0 -155 53 -155 152v56c0 99 59 152 155 152s155 -53 155 -152v-56c0 -99 -59 -152 -155 -152zM150 0v40l405 660h85v-40l-405 -660h-85z" />
    <glyph glyph-name="ampersand" unicode="&#x26;" horiz-adv-x="685" 
d="M548 0l-66 66c-51 -48 -118 -78 -203 -78c-141 0 -229 77 -229 189c0 74 28 124 110 190l15 12l-14 14c-31 37 -74 78 -74 151c0 97 77 163 181 163c100 0 172 -60 172 -163c0 -61 -36 -109 -79 -144l-32 -26l142 -145c16 40 24 87 24 136h104c0 -75 -17 -150 -52 -214
l98 -99v-52h-97zM282 87c53 0 97 19 130 50l-166 170l-36 -29c-38 -30 -50 -58 -50 -90c0 -60 49 -101 122 -101zM197 543c0 -28 10 -44 40 -74l22 -23l34 27c26 21 41 42 41 75c0 39 -33 61 -67 61c-43 0 -70 -27 -70 -66z" />
    <glyph glyph-name="quotesingle" unicode="'" horiz-adv-x="220" 
d="M70 456l-20 204v45h120v-45l-20 -204h-80z" />
    <glyph glyph-name="parenleft" unicode="(" horiz-adv-x="315" 
d="M275 -160c-114 0 -185 69 -185 192v542c0 123 71 192 185 192v-100c-49 0 -75 -39 -75 -86v-554c0 -47 26 -86 75 -86v-100z" />
    <glyph glyph-name="parenright" unicode=")" horiz-adv-x="315" 
d="M40 -160v100c49 0 75 39 75 86v554c0 47 -26 86 -75 86v100c114 0 185 -69 185 -192v-542c0 -123 -71 -192 -185 -192z" />
    <glyph glyph-name="asterisk" unicode="*" horiz-adv-x="445" 
d="M179 333l7 124l-103 -69l-43 76l111 55l-111 55l43 76l103 -69l-7 124h87l-8 -124l104 69l43 -76l-112 -55l112 -55l-43 -76l-104 69l8 -124h-87z" />
    <glyph glyph-name="plus" unicode="+" horiz-adv-x="560" 
d="M230 96v171h-170v92h170v171h100v-171h170v-92h-170v-171h-100z" />
    <glyph glyph-name="comma" unicode="," horiz-adv-x="266" 
d="M36 -113l47 249h122v-52l-82 -197h-87z" />
    <glyph glyph-name="hyphen" unicode="-" horiz-adv-x="442" 
d="M60 263v100h322v-100h-322z" />
    <glyph glyph-name="period" unicode="." horiz-adv-x="275" 
d="M70 0v136h135v-136h-135z" />
    <glyph glyph-name="slash" unicode="/" horiz-adv-x="465" 
d="M40 -100v40l287 826h98v-40l-287 -826h-98z" />
    <glyph glyph-name="zero" unicode="0" horiz-adv-x="610" 
d="M305 85c83 0 125 62 125 136v258c0 74 -42 136 -125 136s-125 -62 -125 -136v-258c0 -74 42 -136 125 -136zM305 -15c-144 0 -235 89 -235 242v246c0 153 91 242 235 242s235 -89 235 -242v-246c0 -153 -91 -242 -235 -242z" />
    <glyph glyph-name="one" unicode="1" horiz-adv-x="313" 
d="M113 0v551h-73v58l139 91h44v-700h-110z" />
    <glyph glyph-name="two" unicode="2" horiz-adv-x="561" 
d="M50 0v90l211 214c88 89 125 128 125 195c0 62 -34 116 -112 116c-84 0 -118 -59 -119 -137h-105c2 150 94 237 224 237c147 0 222 -99 222 -212c0 -107 -61 -172 -152 -261l-145 -142h300v-100h-449z" />
    <glyph glyph-name="three" unicode="3" horiz-adv-x="585" 
d="M287 -15c-144 0 -237 87 -239 237h106c2 -79 49 -137 136 -137c88 0 125 53 125 123c0 67 -46 105 -123 105h-49v100h42c68 0 112 31 112 99c0 48 -27 103 -109 103s-119 -56 -120 -134h-105c2 151 87 234 224 234c141 0 218 -86 218 -192c0 -77 -37 -124 -90 -155
c60 -22 110 -84 110 -169c0 -132 -87 -214 -238 -214z" />
    <glyph glyph-name="four" unicode="4" horiz-adv-x="553" 
d="M340 0v138h-310v85l244 477h97v-40l-216 -422h185v173h110v-173h83v-100h-83v-138h-110z" />
    <glyph glyph-name="five" unicode="5" horiz-adv-x="595" 
d="M299 -15c-131 0 -222 75 -237 207h108c9 -63 58 -107 131 -107c85 0 124 60 124 151c0 89 -48 144 -121 144c-58 0 -92 -30 -111 -57h-109l35 377h377v-100h-287l-16 -168c37 24 71 38 131 38c110 0 211 -64 211 -234c0 -162 -94 -251 -236 -251z" />
    <glyph glyph-name="six" unicode="6" horiz-adv-x="590" 
d="M300 -15c-147 0 -240 89 -240 242c0 54 22 110 68 184l181 289h101v-40l-149 -230c21 8 48 14 82 14c107 0 197 -76 197 -217c0 -153 -93 -242 -240 -242zM300 85c86 0 130 55 130 136s-41 134 -130 134s-130 -55 -130 -134c0 -81 44 -136 130 -136z" />
    <glyph glyph-name="seven" unicode="7" horiz-adv-x="539" 
d="M161 0v40l214 560h-233v-100h-102v200h449v-93l-229 -607h-99z" />
    <glyph glyph-name="eight" unicode="8" 
d="M307 -15c-156 0 -247 81 -247 211c0 84 54 149 114 171c-53 31 -95 74 -95 155c0 105 80 193 228 193s228 -88 228 -193c0 -81 -41 -124 -94 -155c60 -22 113 -87 113 -171c0 -130 -91 -211 -247 -211zM307 83c94 0 136 55 136 121c0 61 -50 119 -136 119
s-136 -58 -136 -119c0 -66 42 -121 136 -121zM307 407c70 0 119 43 119 107c0 59 -37 105 -119 105c-81 0 -119 -46 -119 -105c0 -64 49 -107 119 -107z" />
    <glyph glyph-name="nine" unicode="9" horiz-adv-x="590" 
d="M290 715c147 0 240 -89 240 -242c0 -54 -22 -110 -68 -184l-181 -289h-101v40l149 230c-21 -8 -48 -14 -82 -14c-107 0 -197 76 -197 217c0 153 93 242 240 242zM290 615c-86 0 -130 -55 -130 -136s41 -134 130 -134s130 55 130 134c0 81 -44 136 -130 136z" />
    <glyph glyph-name="colon" unicode=":" horiz-adv-x="275" 
d="M70 0v136h135v-136h-135zM70 384v136h135v-136h-135z" />
    <glyph glyph-name="semicolon" unicode=";" horiz-adv-x="271" 
d="M36 -113l47 249h122v-52l-82 -197h-87zM75 384v136h135v-136h-135z" />
    <glyph glyph-name="less" unicode="&#x3c;" horiz-adv-x="520" 
d="M407 90l-347 182v90l347 182h53v-78l-291 -149l291 -149v-78h-53z" />
    <glyph glyph-name="equal" unicode="=" horiz-adv-x="560" 
d="M60 159v92h440v-92h-440zM60 375v92h440v-92h-440z" />
    <glyph glyph-name="greater" unicode="&#x3e;" horiz-adv-x="520" 
d="M60 90v78l291 149l-291 149v78h53l347 -182v-90l-347 -182h-53z" />
    <glyph glyph-name="question" unicode="?" horiz-adv-x="520" 
d="M194 220v112l93 66c52 37 83 57 83 119c0 48 -33 98 -108 98c-79 0 -127 -51 -127 -133h-105c0 151 101 233 232 233c147 0 218 -95 218 -196c0 -110 -82 -162 -141 -201l-35 -24v-74h-110zM191 0v123h116v-123h-116z" />
    <glyph glyph-name="at" unicode="@" horiz-adv-x="996" 
d="M507 -151c-258 0 -437 179 -437 433c0 259 179 433 437 433c234 0 419 -151 419 -393c0 -159 -76 -260 -194 -260c-54 0 -100 14 -129 70c-28 -39 -73 -70 -138 -70c-88 0 -162 56 -162 164v112c0 108 73 164 162 164c65 0 110 -34 133 -65l40 55h47v-281
c0 -33 16 -60 56 -60c51 0 92 41 92 171c0 194 -149 311 -326 311c-200 0 -343 -137 -343 -350s143 -350 343 -350h25v-84h-25zM485 151c50 0 81 23 105 51v155c-24 30 -49 56 -105 56c-48 0 -87 -38 -87 -91v-80c0 -53 39 -91 87 -91z" />
    <glyph glyph-name="A" unicode="A" horiz-adv-x="658" 
d="M20 0v40l250 660h118l250 -660v-40h-118l-62 173h-264l-63 -173h-111zM230 273h192l-95 267z" />
    <glyph glyph-name="B" unicode="B" horiz-adv-x="662" 
d="M90 0v700h295c123 0 200 -62 200 -188c0 -78 -31 -122 -84 -149c61 -22 111 -67 111 -169c0 -129 -76 -194 -200 -194h-322zM210 105h182c66 0 100 33 100 96c0 64 -33 99 -100 99h-182v-195zM210 400h155c66 0 99 35 99 98s-33 97 -99 97h-155v-195z" />
    <glyph glyph-name="C" unicode="C" horiz-adv-x="660" 
d="M342 -15c-174 0 -272 93 -272 252v226c0 159 98 252 272 252c137 0 258 -73 258 -242v-10h-120v10c0 94 -78 132 -139 132c-103 0 -151 -51 -151 -134v-242c0 -83 48 -134 151 -134c61 0 139 38 139 132v10h120v-10c0 -169 -121 -242 -258 -242z" />
    <glyph glyph-name="D" unicode="D" horiz-adv-x="685" 
d="M210 105h130c101 0 155 59 155 134v222c0 75 -54 134 -155 134h-130v-490zM90 0v700h250c168 0 275 -87 275 -242v-216c0 -155 -107 -242 -275 -242h-250z" />
    <glyph glyph-name="E" unicode="E" horiz-adv-x="590" 
d="M90 0v700h449v-105h-329v-194h282v-100h-282v-196h330v-105h-450z" />
    <glyph glyph-name="F" unicode="F" horiz-adv-x="585" 
d="M90 0v700h455v-105h-335v-201h287v-100h-287v-294h-120z" />
    <glyph glyph-name="G" unicode="G" horiz-adv-x="690" 
d="M331 -15c-161 0 -261 91 -261 249v229c0 159 103 252 277 252c136 0 263 -74 263 -238v-4h-120v4c0 77 -55 128 -148 128s-152 -51 -152 -134v-237c0 -87 54 -139 148 -139c65 0 122 31 152 85v90h-138v100h258v-370h-65l-36 66c-44 -54 -104 -81 -178 -81z" />
    <glyph glyph-name="H" unicode="H" horiz-adv-x="710" 
d="M90 0v700h120v-297h290v297h120v-700h-120v298h-290v-298h-120z" />
    <glyph glyph-name="I" unicode="I" horiz-adv-x="300" 
d="M90 0v700h120v-700h-120z" />
    <glyph glyph-name="J" unicode="J" horiz-adv-x="580" 
d="M260 -15c-137 0 -240 58 -240 222v30h120v-30c0 -79 47 -112 120 -112c63 0 120 33 120 116v489h120v-493c0 -159 -107 -222 -240 -222z" />
    <glyph glyph-name="K" unicode="K" horiz-adv-x="627" 
d="M90 0v700h120v-297h89l183 297h111v-40l-189 -303l203 -317v-40h-118l-190 298h-89v-298h-120z" />
    <glyph glyph-name="L" unicode="L" horiz-adv-x="565" 
d="M90 0v700h120v-595h335v-105h-455z" />
    <glyph glyph-name="M" unicode="M" horiz-adv-x="810" 
d="M444 226h-77l-161 261v-487h-116v700h116l201 -327l201 327h112v-700h-116v487z" />
    <glyph glyph-name="N" unicode="N" horiz-adv-x="710" 
d="M90 0v700h110l300 -477v477h120v-700h-110l-300 477v-477h-120z" />
    <glyph glyph-name="O" unicode="O" horiz-adv-x="690" 
d="M345 95c104 0 155 61 155 136v238c0 75 -51 136 -155 136s-155 -61 -155 -136v-238c0 -75 51 -136 155 -136zM345 -15c-168 0 -275 93 -275 252v226c0 159 107 252 275 252s275 -93 275 -252v-226c0 -159 -107 -252 -275 -252z" />
    <glyph glyph-name="P" unicode="P" horiz-adv-x="635" 
d="M90 0v700h303c124 0 197 -84 197 -215s-73 -215 -197 -215h-183v-270h-120zM210 375h162c52 0 96 36 96 110s-44 110 -96 110h-162v-220z" />
    <glyph glyph-name="Q" unicode="Q" horiz-adv-x="690" 
d="M345 -15c-168 0 -275 93 -275 252v226c0 159 107 252 275 252s275 -93 275 -252v-226c0 -89 -31 -149 -82 -192l82 -123v-41h-116l-75 113c-22 -5 -54 -9 -84 -9zM345 95c104 0 155 61 155 136v238c0 75 -51 136 -155 136s-155 -61 -155 -136v-238
c0 -75 51 -136 155 -136z" />
    <glyph glyph-name="R" unicode="R" horiz-adv-x="660" 
d="M90 0v700h301c138 0 211 -81 211 -215c0 -91 -40 -167 -123 -202l131 -243v-40h-118l-144 269h-138v-269h-120zM210 371h159c70 0 111 34 111 112s-41 112 -111 112h-159v-224z" />
    <glyph glyph-name="S" unicode="S" horiz-adv-x="642" 
d="M317 -15c-146 0 -272 78 -272 242h120c0 -104 90 -132 159 -132c86 0 131 39 131 91c0 55 -55 74 -162 114l-16 6c-132 50 -213 91 -213 205c0 122 95 204 252 204c148 0 260 -67 260 -236h-120c0 94 -68 126 -141 126c-80 0 -130 -36 -130 -85c0 -59 49 -76 151 -112
l14 -5c124 -44 232 -88 232 -211c0 -118 -89 -207 -265 -207z" />
    <glyph glyph-name="T" unicode="T" horiz-adv-x="566" 
d="M223 0v595h-203v105h526v-105h-203v-595h-120z" />
    <glyph glyph-name="U" unicode="U" horiz-adv-x="690" 
d="M490 700h120v-472c0 -153 -103 -243 -265 -243s-265 90 -265 243v472h120v-478c0 -70 48 -127 145 -127s145 57 145 127v478z" />
    <glyph glyph-name="V" unicode="V" horiz-adv-x="659" 
d="M271 0l-251 660v40h115l197 -540l193 540h114v-40l-250 -660h-118z" />
    <glyph glyph-name="W" unicode="W" horiz-adv-x="832" 
d="M180 0l-140 660v40h118l103 -508l120 328h76l122 -331l101 511h112v-40l-140 -660h-112l-124 336l-124 -336h-112z" />
    <glyph glyph-name="X" unicode="X" horiz-adv-x="648" 
d="M30 0v40l219 322l-202 298v40h122l155 -244l162 244h115v-40l-204 -297l221 -323v-40h-122l-175 266l-176 -266h-115z" />
    <glyph glyph-name="Y" unicode="Y" 
d="M247 0v277l-237 383v40h118l180 -310l186 310h110v-40l-237 -378v-282h-120z" />
    <glyph glyph-name="Z" unicode="Z" horiz-adv-x="586" 
d="M40 0v104l358 491h-343v105h481v-103l-359 -492h369v-105h-506z" />
    <glyph glyph-name="bracketleft" unicode="[" horiz-adv-x="335" 
d="M90 -160v926h205v-100h-95v-726h95v-100h-205z" />
    <glyph glyph-name="backslash" unicode="\" horiz-adv-x="465" 
d="M425 -60v-40h-98l-287 826v40h98z" />
    <glyph glyph-name="bracketright" unicode="]" horiz-adv-x="335" 
d="M245 766v-926h-205v100h95v726h-95v100h205z" />
    <glyph glyph-name="asciicircum" unicode="^" horiz-adv-x="525" 
d="M60 387v40l155 278h93l157 -278v-40h-94l-110 194l-107 -194h-94z" />
    <glyph glyph-name="underscore" unicode="_" horiz-adv-x="557" 
d="M-1 -130v92h559v-92h-559z" />
    <glyph glyph-name="grave" unicode="`" horiz-adv-x="299" 
d="M150 590l-90 102v38h99l80 -140h-89z" />
    <glyph glyph-name="a" unicode="a" horiz-adv-x="559" 
d="M219 -12c-94 0 -174 51 -174 153c0 107 71 167 215 167h114v41c0 51 -31 83 -98 83s-98 -32 -98 -74h-107c0 100 65 174 205 174s208 -74 208 -176v-356h-64l-42 58c-30 -36 -85 -70 -159 -70zM241 88c57 0 101 25 133 59v77h-114c-81 0 -105 -35 -105 -71
c0 -44 34 -65 86 -65z" />
    <glyph glyph-name="b" unicode="b" horiz-adv-x="589" 
d="M340 -12c-74 0 -125 34 -155 70l-41 -58h-64v705h110v-236c25 31 74 63 146 63c104 0 188 -60 188 -191v-162c0 -131 -85 -191 -184 -191zM316 88c53 0 98 37 98 99v146c0 62 -45 99 -97 99c-56 0 -97 -35 -127 -67v-210c30 -32 70 -67 126 -67z" />
    <glyph glyph-name="c" unicode="c" horiz-adv-x="539" 
d="M274 -12c-133 0 -217 75 -217 193v158c0 118 84 193 217 193c129 0 212 -71 212 -191v-6h-110v6c0 54 -36 91 -102 91c-73 0 -107 -37 -107 -91v-162c0 -54 34 -91 107 -91c66 0 102 37 102 91v9h110v-7c0 -118 -86 -193 -212 -193z" />
    <glyph glyph-name="d" unicode="d" horiz-adv-x="589" 
d="M249 -12c-99 0 -184 60 -184 191v162c0 131 84 191 188 191c72 0 121 -32 146 -63v236h110v-705h-64l-41 58c-30 -36 -81 -70 -155 -70zM273 88c56 0 96 35 126 67v210c-30 32 -71 67 -127 67c-52 0 -97 -37 -97 -99v-146c0 -62 45 -99 98 -99z" />
    <glyph glyph-name="e" unicode="e" horiz-adv-x="550" 
d="M279 -12c-135 0 -222 71 -222 191v160c0 118 87 193 222 193c130 0 214 -71 214 -191v-117h-326v-43c0 -54 37 -93 112 -93c61 0 94 27 103 69h110c-10 -105 -86 -169 -213 -169zM167 308h216v33c0 54 -37 91 -108 91s-108 -37 -108 -91v-33z" />
    <glyph glyph-name="f" unicode="f" horiz-adv-x="345" 
d="M95 0v424h-80v96h80c0 102 48 187 193 187c12 0 27 -1 37 -2v-96h-23c-69 0 -97 -26 -97 -89h113v-96h-113v-424h-110z" />
    <glyph glyph-name="g" unicode="g" horiz-adv-x="589" 
d="M294 -172c-130 0 -216 65 -216 172h110c0 -33 30 -72 106 -72s105 39 105 98v78c-25 -31 -74 -63 -146 -63c-104 0 -188 60 -188 191v109c0 131 85 191 184 191c74 0 125 -34 155 -70l41 58h64v-491c0 -136 -85 -201 -215 -201zM277 141c54 0 94 33 122 65v161
c-28 32 -68 65 -122 65c-58 0 -102 -35 -102 -97v-97c0 -62 44 -97 102 -97z" />
    <glyph glyph-name="h" unicode="h" horiz-adv-x="594" 
d="M80 0v705h110v-236c29 32 77 63 149 63c103 0 180 -71 180 -197v-335h-110v325c0 74 -43 107 -95 107c-58 0 -103 -42 -124 -67v-365h-110z" />
    <glyph glyph-name="i" unicode="i" horiz-adv-x="270" 
d="M80 0v520h110v-520h-110zM80 595v110h110v-110h-110z" />
    <glyph glyph-name="j" unicode="j" horiz-adv-x="271" 
d="M81 520h110v-505c0 -89 -41 -187 -168 -187c-13 0 -27 1 -36 2v96h23c43 0 71 21 71 89v505zM81 595v110h110v-110h-110z" />
    <glyph glyph-name="k" unicode="k" horiz-adv-x="542" 
d="M80 0v705h110v-391h69l137 206h91v-52l-130 -196l145 -220v-52h-99l-145 218h-68v-218h-110z" />
    <glyph glyph-name="l" unicode="l" horiz-adv-x="270" 
d="M80 0v705h110v-705h-110z" />
    <glyph glyph-name="m" unicode="m" horiz-adv-x="881" 
d="M80 0v520h64l41 -58c31 36 76 70 148 70c65 0 114 -28 141 -81c32 40 90 81 166 81c105 0 166 -67 166 -185v-347h-110v335c0 67 -36 97 -83 97s-84 -28 -115 -67v-365h-110v335c0 67 -36 97 -83 97c-60 0 -96 -42 -115 -67v-365h-110z" />
    <glyph glyph-name="n" unicode="n" horiz-adv-x="594" 
d="M80 0v520h64l41 -58c30 36 80 70 154 70c106 0 180 -71 180 -197v-335h-110v325c0 74 -43 107 -95 107c-58 0 -103 -42 -124 -67v-365h-110z" />
    <glyph glyph-name="o" unicode="o" horiz-adv-x="558" 
d="M279 88c75 0 112 44 112 98v148c0 54 -37 98 -112 98s-112 -44 -112 -98v-148c0 -54 37 -98 112 -98zM279 -12c-148 0 -222 84 -222 193v158c0 109 74 193 222 193s222 -84 222 -193v-158c0 -109 -74 -193 -222 -193z" />
    <glyph glyph-name="p" unicode="p" horiz-adv-x="589" 
d="M80 -160v680h64l41 -58c30 36 81 70 155 70c99 0 184 -60 184 -191v-162c0 -131 -84 -191 -188 -191c-72 0 -121 32 -146 63v-211h-110zM316 88c53 0 98 37 98 99v146c0 62 -45 99 -97 99c-56 0 -97 -35 -127 -67v-210c30 -32 70 -67 126 -67z" />
    <glyph glyph-name="q" unicode="q" horiz-adv-x="589" 
d="M399 -160v211c-25 -31 -74 -63 -146 -63c-104 0 -188 60 -188 191v162c0 131 85 191 184 191c74 0 125 -34 155 -70l41 58h64v-680h-110zM273 88c56 0 96 35 126 67v210c-30 32 -71 67 -127 67c-52 0 -97 -37 -97 -99v-146c0 -62 45 -99 98 -99z" />
    <glyph glyph-name="r" unicode="r" horiz-adv-x="370" 
d="M80 0v520h55l42 -58c29 33 78 70 143 70h20v-105h-15c-60 0 -101 -16 -135 -56v-371h-110z" />
    <glyph glyph-name="s" unicode="s" horiz-adv-x="553" 
d="M278 -12c-138 0 -228 69 -228 191h110c0 -59 52 -91 127 -91c59 0 96 23 96 57c0 25 -14 43 -57 54l-135 35c-64 17 -125 49 -125 138c0 95 76 160 206 160c127 0 212 -64 212 -186h-110c0 58 -46 86 -109 86c-64 0 -89 -26 -89 -55c0 -25 18 -40 57 -50l134 -33
c73 -18 126 -55 126 -140c0 -99 -85 -166 -215 -166z" />
    <glyph glyph-name="t" unicode="t" horiz-adv-x="379" 
d="M281 0c-145 0 -181 93 -181 186v238h-80v96h80v108h110v-108h124v-96h-124v-239c0 -68 28 -89 71 -89h53v-96h-53z" />
    <glyph glyph-name="u" unicode="u" horiz-adv-x="591" 
d="M253 -12c-105 0 -178 71 -178 197v335h110v-325c0 -74 42 -107 94 -107c57 0 101 42 122 67v365h110v-520h-64l-42 58c-30 -36 -79 -70 -152 -70z" />
    <glyph glyph-name="v" unicode="v" horiz-adv-x="510" 
d="M205 0l-185 468v52h102l137 -370l131 370h100v-52l-185 -468h-100z" />
    <glyph glyph-name="w" unicode="w" horiz-adv-x="718" 
d="M158 0l-113 468v52h100l83 -370l94 276h75l94 -276l83 370h99v-52l-114 -468h-104l-95 254l-96 -254h-106z" />
    <glyph glyph-name="x" unicode="x" horiz-adv-x="525" 
d="M40 0v52l153 208l-151 208v52h99l121 -176l122 176h93v-52l-148 -204l156 -212v-52h-98l-127 185l-126 -185h-94z" />
    <glyph glyph-name="y" unicode="y" horiz-adv-x="511" 
d="M153 -160v40l52 120l-185 468v52h102l137 -370l131 370h101v-52l-248 -628h-90z" />
    <glyph glyph-name="z" unicode="z" horiz-adv-x="528" 
d="M50 0v96l274 328h-265v96h397v-96l-276 -328h288v-96h-418z" />
    <glyph glyph-name="braceleft" unicode="{" horiz-adv-x="338" 
d="M298 -160c-114 0 -185 69 -185 192v148c0 55 -18 79 -57 79h-26v100h26c41 0 57 28 57 79v136c0 123 71 192 185 192v-100c-49 0 -75 -39 -75 -86v-171c0 -58 -34 -87 -61 -100c27 -13 61 -42 61 -100v-183c0 -47 26 -86 75 -86v-100z" />
    <glyph glyph-name="bar" unicode="|" horiz-adv-x="290" 
d="M90 -100v866h110v-866h-110z" />
    <glyph glyph-name="braceright" unicode="}" horiz-adv-x="338" 
d="M40 -160v100c49 0 75 39 75 86v183c0 58 34 87 61 100c-27 13 -61 42 -61 100v171c0 47 -26 86 -75 86v100c114 0 185 -69 185 -192v-136c0 -51 16 -79 57 -79h26v-100h-26c-39 0 -57 -24 -57 -79v-148c0 -123 -71 -192 -185 -192z" />
    <glyph glyph-name="asciitilde" unicode="~" horiz-adv-x="491" 
d="M115 237l-75 45c34 66 73 110 123 110c32 0 58 -11 79 -25l18 -12c19 -13 36 -24 53 -24c21 0 36 13 63 56l75 -45c-34 -65 -73 -110 -123 -110c-25 0 -48 7 -66 18l-22 13c-24 14 -43 30 -62 30c-21 0 -36 -13 -63 -56z" />
    <glyph glyph-name="nbspace" unicode="&#xa0;" horiz-adv-x="240" 
 />
    <glyph glyph-name="exclamdown" unicode="&#xa1;" horiz-adv-x="296" 
d="M93 -160v466h110v-466h-110zM90 397v123h116v-123h-116z" />
    <glyph glyph-name="cent" unicode="&#xa2;" horiz-adv-x="545" 
d="M233 0v77c-108 15 -176 85 -176 190v158c0 104 68 175 176 190v85h80v-84c109 -12 179 -81 179 -189v-6h-110v6c0 44 -26 77 -72 87v-337c46 11 72 43 72 88v9h110v-7c0 -107 -73 -178 -179 -191v-76h-80zM236 179v334c-46 -12 -69 -44 -69 -86v-162c0 -43 23 -75 69 -86
z" />
    <glyph glyph-name="sterling" unicode="&#xa3;" horiz-adv-x="579" 
d="M40 0v100h70v203h-70v100h70v119c0 118 84 193 217 193c129 0 212 -71 212 -201v-36h-110v36c0 64 -36 101 -102 101c-73 0 -107 -37 -107 -91v-121h144v-100h-144v-203h319v-100h-499z" />
    <glyph glyph-name="yen" unicode="&#xa5;" horiz-adv-x="580" 
d="M235 0v106h-172v96h172v82h-172v96h114l-167 280v40h101l180 -315l180 315h99v-40l-167 -280h114v-96h-172v-82h172v-96h-172v-106h-110z" />
    <glyph glyph-name="brokenbar" unicode="&#xa6;" horiz-adv-x="290" 
d="M90 -100v347h110v-347h-110zM90 439v327h110v-327h-110z" />
    <glyph glyph-name="section" unicode="&#xa7;" horiz-adv-x="585" 
d="M50 28h106c0 -82 80 -104 142 -104c75 0 111 30 111 72c0 44 -43 59 -108 82l-46 16c-119 42 -188 88 -188 182c0 61 31 108 67 147c-44 35 -62 63 -62 123c0 93 81 161 215 161c132 0 233 -55 233 -195h-105c0 74 -73 99 -132 99c-75 0 -106 -32 -106 -69
c0 -44 46 -60 113 -83l47 -16c119 -41 188 -88 188 -182c0 -61 -31 -108 -67 -147c44 -35 62 -62 62 -122c0 -90 -81 -164 -229 -164c-130 0 -241 64 -241 200zM380 155c26 32 39 63 39 92c0 51 -56 82 -114 103l-90 33c-26 -32 -39 -63 -39 -92c0 -51 56 -83 114 -104z" />
    <glyph glyph-name="dieresis" unicode="&#xa8;" horiz-adv-x="427" 
d="M60 595v110h110v-110h-110zM257 595v110h110v-110h-110z" />
    <glyph glyph-name="copyright" unicode="&#xa9;" horiz-adv-x="860" 
d="M431 140c-112 0 -175 60 -175 162v97c0 102 63 162 175 162c88 0 165 -46 165 -155v-3h-87v3c0 56 -44 78 -79 78c-59 0 -87 -30 -87 -79v-108c0 -49 28 -80 87 -80c35 0 79 22 79 79v2h87v-2c0 -109 -77 -156 -165 -156zM430 -15c-203 0 -360 159 -360 365
s157 365 360 365s360 -159 360 -365s-157 -365 -360 -365zM430 60c158 0 280 126 280 290s-122 290 -280 290s-280 -126 -280 -290s122 -290 280 -290z" />
    <glyph glyph-name="ordfeminine" unicode="&#xaa;" horiz-adv-x="438" 
d="M178 353c-69 0 -128 32 -128 102c0 73 51 106 156 106h59v22c0 27 -15 40 -47 40s-47 -17 -47 -44h-104c0 73 47 126 150 126c102 0 151 -48 151 -117v-230h-60l-24 32c-23 -21 -58 -37 -106 -37zM196 432c27 0 53 13 69 31v35h-58c-41 0 -53 -15 -53 -33
c0 -22 17 -33 42 -33z" />
    <glyph glyph-name="guillemotleft" unicode="&#xab;" horiz-adv-x="545" 
d="M180 64l-140 211l140 210h95v-32l-119 -178l119 -179v-32h-95zM390 64l-140 211l140 210h95v-32l-119 -178l119 -179v-32h-95z" />
    <glyph glyph-name="logicalnot" unicode="&#xac;" horiz-adv-x="560" 
d="M401 197v178h-341v92h440v-270h-99z" />
    <glyph glyph-name="uni00AD" unicode="&#xad;" horiz-adv-x="442" 
d="M60 263v100h322v-100h-322z" />
    <glyph glyph-name="registered" unicode="&#xae;" horiz-adv-x="414" 
d="M140 456v176h76c40 0 64 -20 64 -54c0 -31 -17 -47 -41 -56l41 -53v-13h-35l-44 60h-24v-60h-37zM177 549h39c15 0 27 8 27 25s-12 23 -27 23h-39v-48zM207 371c-93 0 -167 74 -167 172s74 172 167 172s167 -74 167 -172s-74 -172 -167 -172zM207 409
c71 0 127 58 127 134s-56 134 -127 134s-127 -58 -127 -134s56 -134 127 -134z" />
    <glyph glyph-name="macron" unicode="&#xaf;" horiz-adv-x="427" 
d="M60 605v90h307v-90h-307z" />
    <glyph glyph-name="degree" unicode="&#xb0;" horiz-adv-x="390" 
d="M195 434c38 0 58 26 58 58v86c0 32 -20 58 -58 58s-58 -26 -58 -58v-86c0 -32 20 -58 58 -58zM195 355c-96 0 -155 53 -155 152v56c0 99 59 152 155 152s155 -53 155 -152v-56c0 -99 -59 -152 -155 -152z" />
    <glyph glyph-name="plusminus" unicode="&#xb1;" horiz-adv-x="560" 
d="M230 172v161h-170v92h170v161h100v-161h170v-92h-170v-161h-100zM60 0v92h440v-92h-440z" />
    <glyph glyph-name="twosuperior" unicode="&#xb2;" horiz-adv-x="317" 
d="M35 358v82l99 83c34 28 45 38 45 57c0 18 -11 29 -29 29s-31 -12 -31 -33h-89c0 83 54 129 126 129c73 0 119 -48 119 -111c0 -59 -26 -87 -66 -120l-42 -34h110v-82h-242z" />
    <glyph glyph-name="threesuperior" unicode="&#xb3;" horiz-adv-x="329" 
d="M165 353c-81 0 -135 52 -135 125h80c0 -26 19 -43 51 -43s42 15 42 32c0 21 -17 30 -42 30h-38v63h38c23 0 35 16 35 33c0 15 -11 31 -37 31c-28 0 -43 -16 -43 -47h-81c0 82 50 128 127 128c78 0 121 -44 121 -98c0 -32 -16 -56 -38 -68c27 -11 48 -40 48 -75
c0 -64 -47 -111 -128 -111z" />
    <glyph glyph-name="acute" unicode="&#xb4;" horiz-adv-x="299" 
d="M60 590l80 140h99v-38l-90 -102h-89z" />
    <glyph glyph-name="mu" unicode="&#xb5;" horiz-adv-x="596" 
d="M80 -160v680h110v-312c0 -61 46 -118 105 -118c56 0 90 40 111 65v365h110v-520h-64l-42 58c-30 -36 -60 -70 -130 -70c-41 0 -76 27 -90 46v-194h-110z" />
    <glyph glyph-name="paragraph" unicode="&#xb6;" horiz-adv-x="620" 
d="M215 -87v455c-108 0 -175 58 -175 162v8c0 106 67 162 175 162h315v-787h-105v687h-105v-687h-105z" />
    <glyph glyph-name="periodcentered" unicode="&#xb7;" horiz-adv-x="275" 
d="M70 246v136h135v-136h-135z" />
    <glyph glyph-name="cedilla" unicode="&#xb8;" horiz-adv-x="299" 
d="M66 -160v38l87 122h89l-77 -160h-99z" />
    <glyph glyph-name="onesuperior" unicode="&#xb9;" horiz-adv-x="269" 
d="M96 358v206h-66v53l128 83h41v-342h-103z" />
    <glyph glyph-name="ordmasculine" unicode="&#xba;" horiz-adv-x="410" 
d="M205 441c39 0 62 29 62 63v50c0 34 -23 63 -62 63s-62 -29 -62 -63v-50c0 -34 23 -63 62 -63zM205 353c-102 0 -165 56 -165 162v28c0 106 63 162 165 162c103 0 165 -56 165 -162v-28c0 -106 -62 -162 -165 -162z" />
    <glyph glyph-name="guillemotright" unicode="&#xbb;" horiz-adv-x="545" 
d="M295 275l-140 -211h-95v32l119 179l-119 178v32h95zM505 275l-140 -211h-95v32l119 179l-119 178v32h95z" />
    <glyph glyph-name="onequarter" unicode="&#xbc;" horiz-adv-x="743" 
d="M96 358v206h-66v53l128 83h41v-342h-103zM96 0v40l405 660h85v-40l-405 -660h-85zM535 342h70v-49l-95 -159h76v65h103v-65h44v-76h-44v-58h-103v58h-182v68z" />
    <glyph glyph-name="onehalf" unicode="&#xbd;" horiz-adv-x="746" 
d="M96 358v206h-66v53l128 83h41v-342h-103zM96 0v40l405 660h85v-40l-405 -660h-85zM464 0v82l99 83c34 28 45 38 45 57c0 18 -11 29 -29 29s-31 -12 -31 -33h-89c0 83 54 129 126 129c73 0 119 -48 119 -111c0 -59 -26 -87 -66 -120l-42 -34h110v-82h-242z" />
    <glyph glyph-name="threequarters" unicode="&#xbe;" horiz-adv-x="788" 
d="M580 342h70v-49l-95 -159h76v65h103v-65h44v-76h-44v-58h-103v58h-182v68zM141 0v40l405 660h85v-40l-405 -660h-85zM165 353c-81 0 -135 52 -135 125h80c0 -26 19 -43 51 -43s42 15 42 32c0 21 -17 30 -42 30h-38v63h38c23 0 35 16 35 33c0 15 -11 31 -37 31
c-28 0 -43 -16 -43 -47h-81c0 82 50 128 127 128c78 0 121 -44 121 -98c0 -32 -16 -56 -38 -68c27 -11 48 -40 48 -75c0 -64 -47 -111 -128 -111z" />
    <glyph glyph-name="questiondown" unicode="&#xbf;" horiz-adv-x="520" 
d="M248 -172c-147 0 -218 89 -218 190c0 107 79 159 138 197l38 24v67h110v-106l-84 -51c-61 -37 -92 -63 -92 -129c0 -48 33 -92 108 -92c79 0 127 45 127 127h105c0 -151 -101 -227 -232 -227zM203 397v123h116v-123h-116z" />
    <glyph glyph-name="Agrave" unicode="&#xc0;" horiz-adv-x="658" 
d="M20 0v40l250 660h118l250 -660v-40h-118l-62 173h-264l-63 -173h-111zM230 273h192l-95 267zM280 762l-97 110v41h106l86 -151h-95z" />
    <glyph glyph-name="Aacute" unicode="&#xc1;" horiz-adv-x="658" 
d="M20 0v40l250 660h118l250 -660v-40h-118l-62 173h-264l-63 -173h-111zM230 273h192l-95 267zM289 762l86 151h106v-41l-96 -110h-96z" />
    <glyph glyph-name="Acircumflex" unicode="&#xc2;" horiz-adv-x="658" 
d="M20 0v40l250 660h118l250 -660v-40h-118l-62 173h-264l-63 -173h-111zM230 273h192l-95 267zM175 762v38l106 113h95l106 -113v-38h-90l-64 72l-65 -72h-88z" />
    <glyph glyph-name="Atilde" unicode="&#xc3;" horiz-adv-x="658" 
d="M20 0v40l250 660h118l250 -660v-40h-118l-62 173h-264l-63 -173h-111zM230 273h192l-95 267zM210 755l-67 41c30 60 66 101 112 101c29 0 54 -11 74 -24l16 -11c17 -12 34 -21 51 -21c15 0 28 12 53 51l67 -41c-30 -60 -66 -101 -111 -101c-26 0 -50 9 -66 19l-18 11
c-21 12 -39 25 -58 25c-15 0 -28 -11 -53 -50z" />
    <glyph glyph-name="Adieresis" unicode="&#xc4;" horiz-adv-x="658" 
d="M20 0v40l250 660h118l250 -660v-40h-118l-62 173h-264l-63 -173h-111zM230 273h192l-95 267zM163 768v118h118v-118h-118zM375 768v118h117v-118h-117z" />
    <glyph glyph-name="Aring" unicode="&#xc5;" horiz-adv-x="658" 
d="M20 0v40l250 660h118l250 -660v-40h-118l-62 173h-264l-63 -173h-111zM230 273h192l-95 267zM327 803c25 0 46 19 46 44c0 24 -21 44 -46 44s-46 -20 -46 -44c0 -25 21 -44 46 -44zM327 738c-63 0 -116 49 -116 109s53 108 116 108s116 -48 116 -108s-53 -109 -116 -109z
" />
    <glyph glyph-name="AE" unicode="&#xc6;" horiz-adv-x="992" 
d="M10 0v40l416 660h515v-105h-329v-194h282v-100h-282v-196h330v-105h-450v173h-265l-109 -173h-108zM290 273h202v320z" />
    <glyph glyph-name="Ccedilla" unicode="&#xc7;" horiz-adv-x="660" 
d="M205 -160v38l79 111c-138 19 -214 107 -214 248v226c0 159 98 252 272 252c137 0 258 -73 258 -242v-10h-120v10c0 94 -78 132 -139 132c-103 0 -151 -51 -151 -134v-242c0 -83 48 -134 151 -134c61 0 139 38 139 132v10h120v-10c0 -156 -103 -230 -226 -241l-70 -146
h-99z" />
    <glyph glyph-name="Egrave" unicode="&#xc8;" horiz-adv-x="590" 
d="M90 0v700h449v-105h-329v-194h282v-100h-282v-196h330v-105h-450zM290 762l-97 110v41h106l86 -151h-95z" />
    <glyph glyph-name="Eacute" unicode="&#xc9;" horiz-adv-x="590" 
d="M90 0v700h449v-105h-329v-194h282v-100h-282v-196h330v-105h-450zM237 762l86 151h106v-41l-96 -110h-96z" />
    <glyph glyph-name="Ecircumflex" unicode="&#xca;" horiz-adv-x="590" 
d="M90 0v700h449v-105h-329v-194h282v-100h-282v-196h330v-105h-450zM163 762v38l106 113h95l106 -113v-38h-90l-64 72l-65 -72h-88z" />
    <glyph glyph-name="Edieresis" unicode="&#xcb;" horiz-adv-x="590" 
d="M90 0v700h449v-105h-329v-194h282v-100h-282v-196h330v-105h-450zM150 768v118h118v-118h-118zM361 768v118h118v-118h-118z" />
    <glyph glyph-name="Igrave" unicode="&#xcc;" horiz-adv-x="300" 
d="M90 0v700h120v-700h-120zM109 762l-97 110v41h106l86 -151h-95z" />
    <glyph glyph-name="Iacute" unicode="&#xcd;" horiz-adv-x="300" 
d="M90 0v700h120v-700h-120zM105 762l86 151h106v-41l-96 -110h-96z" />
    <glyph glyph-name="Icircumflex" unicode="&#xce;" horiz-adv-x="300" 
d="M90 0v700h120v-700h-120zM-3 762v38l106 113h95l106 -113v-38h-90l-64 72l-65 -72h-88z" />
    <glyph glyph-name="Idieresis" unicode="&#xcf;" horiz-adv-x="300" 
d="M90 0v700h120v-700h-120zM-14 768v118h118v-118h-118zM198 768v118h117v-118h-117z" />
    <glyph glyph-name="Eth" unicode="&#xd0;" horiz-adv-x="709" 
d="M234 105h130c101 0 155 59 155 134v222c0 75 -54 134 -155 134h-130v-194h141v-100h-141v-196zM114 0v301h-94v100h94v299h250c168 0 275 -87 275 -242v-216c0 -155 -107 -242 -275 -242h-250z" />
    <glyph glyph-name="Ntilde" unicode="&#xd1;" horiz-adv-x="710" 
d="M90 0v700h110l300 -477v477h120v-700h-110l-300 477v-477h-120zM238 755l-67 41c30 60 66 101 112 101c29 0 54 -11 74 -24l16 -11c17 -12 34 -21 51 -21c15 0 28 12 53 51l67 -41c-30 -60 -66 -101 -111 -101c-26 0 -50 9 -66 19l-18 11c-21 12 -39 25 -58 25
c-15 0 -28 -11 -53 -50z" />
    <glyph glyph-name="Ograve" unicode="&#xd2;" horiz-adv-x="690" 
d="M345 95c104 0 155 61 155 136v238c0 75 -51 136 -155 136s-155 -61 -155 -136v-238c0 -75 51 -136 155 -136zM345 -15c-168 0 -275 93 -275 252v226c0 159 107 252 275 252s275 -93 275 -252v-226c0 -159 -107 -252 -275 -252zM308 762l-97 110v41h106l86 -151h-95z" />
    <glyph glyph-name="Oacute" unicode="&#xd3;" horiz-adv-x="690" 
d="M345 95c104 0 155 61 155 136v238c0 75 -51 136 -155 136s-155 -61 -155 -136v-238c0 -75 51 -136 155 -136zM345 -15c-168 0 -275 93 -275 252v226c0 159 107 252 275 252s275 -93 275 -252v-226c0 -159 -107 -252 -275 -252zM297 762l86 151h106v-41l-96 -110h-96z" />
    <glyph glyph-name="Ocircumflex" unicode="&#xd4;" horiz-adv-x="690" 
d="M345 95c104 0 155 61 155 136v238c0 75 -51 136 -155 136s-155 -61 -155 -136v-238c0 -75 51 -136 155 -136zM345 -15c-168 0 -275 93 -275 252v226c0 159 107 252 275 252s275 -93 275 -252v-226c0 -159 -107 -252 -275 -252zM193 762v38l106 113h95l106 -113v-38h-90
l-64 72l-65 -72h-88z" />
    <glyph glyph-name="Otilde" unicode="&#xd5;" horiz-adv-x="690" 
d="M345 95c104 0 155 61 155 136v238c0 75 -51 136 -155 136s-155 -61 -155 -136v-238c0 -75 51 -136 155 -136zM345 -15c-168 0 -275 93 -275 252v226c0 159 107 252 275 252s275 -93 275 -252v-226c0 -159 -107 -252 -275 -252zM232 755l-67 41c30 60 66 101 112 101
c29 0 54 -11 74 -24l16 -11c17 -12 34 -21 51 -21c15 0 28 12 53 51l67 -41c-30 -60 -66 -101 -111 -101c-26 0 -50 9 -66 19l-18 11c-21 12 -39 25 -58 25c-15 0 -28 -11 -53 -50z" />
    <glyph glyph-name="Odieresis" unicode="&#xd6;" horiz-adv-x="690" 
d="M345 95c104 0 155 61 155 136v238c0 75 -51 136 -155 136s-155 -61 -155 -136v-238c0 -75 51 -136 155 -136zM345 -15c-168 0 -275 93 -275 252v226c0 159 107 252 275 252s275 -93 275 -252v-226c0 -159 -107 -252 -275 -252zM181 768v118h118v-118h-118zM393 768v118
h117v-118h-117z" />
    <glyph glyph-name="multiply" unicode="&#xd7;" horiz-adv-x="559" 
d="M131 90l-71 71l148 149l-148 149l71 71l148 -149l149 149l71 -71l-149 -149l149 -149l-71 -71l-149 149z" />
    <glyph glyph-name="Oslash" unicode="&#xd8;" horiz-adv-x="690" 
d="M158 -100v40l28 82c-74 41 -116 115 -116 215v226c0 159 107 252 275 252c25 0 49 -2 72 -6l30 91h88v-40l-28 -84c72 -42 113 -115 113 -213v-226c0 -159 -107 -252 -275 -252c-24 0 -47 2 -68 6l-31 -91h-88zM228 135l156 466c-12 2 -25 4 -39 4
c-104 0 -155 -61 -155 -136v-238c0 -38 12 -71 38 -96zM345 95c104 0 155 61 155 136v238c0 36 -12 68 -36 93l-154 -464c11 -2 22 -3 35 -3z" />
    <glyph glyph-name="Ugrave" unicode="&#xd9;" horiz-adv-x="690" 
d="M490 700h120v-472c0 -153 -103 -243 -265 -243s-265 90 -265 243v472h120v-478c0 -70 48 -127 145 -127s145 57 145 127v478zM318 762l-97 110v41h106l86 -151h-95z" />
    <glyph glyph-name="Uacute" unicode="&#xda;" horiz-adv-x="690" 
d="M490 700h120v-472c0 -153 -103 -243 -265 -243s-265 90 -265 243v472h120v-478c0 -70 48 -127 145 -127s145 57 145 127v478zM284 762l86 151h106v-41l-96 -110h-96z" />
    <glyph glyph-name="Ucircumflex" unicode="&#xdb;" horiz-adv-x="690" 
d="M490 700h120v-472c0 -153 -103 -243 -265 -243s-265 90 -265 243v472h120v-478c0 -70 48 -127 145 -127s145 57 145 127v478zM192 762v38l106 113h95l106 -113v-38h-90l-64 72l-65 -72h-88z" />
    <glyph glyph-name="Udieresis" unicode="&#xdc;" horiz-adv-x="690" 
d="M490 700h120v-472c0 -153 -103 -243 -265 -243s-265 90 -265 243v472h120v-478c0 -70 48 -127 145 -127s145 57 145 127v478zM181 768v118h118v-118h-118zM393 768v118h117v-118h-117z" />
    <glyph glyph-name="Yacute" unicode="&#xdd;" 
d="M247 0v277l-237 383v40h118l180 -310l186 310h110v-40l-237 -378v-282h-120zM249 762l86 151h106v-41l-96 -110h-96z" />
    <glyph glyph-name="Thorn" unicode="&#xde;" horiz-adv-x="635" 
d="M90 0v700h120v-132h183c124 0 197 -84 197 -215s-73 -215 -197 -215h-183v-138h-120zM210 243h162c52 0 96 36 96 110s-44 110 -96 110h-162v-220z" />
    <glyph glyph-name="germandbls" unicode="&#xdf;" horiz-adv-x="599" 
d="M80 0v465c0 154 83 242 221 242c136 0 213 -81 213 -179c0 -70 -22 -115 -75 -142c60 -22 110 -89 110 -174c0 -132 -90 -212 -228 -212c-28 0 -50 3 -63 5v98s28 -3 55 -3c88 0 126 56 126 119c0 76 -47 117 -125 117h-47v94h38c65 0 94 32 94 90c0 48 -30 87 -97 87
c-73 0 -112 -47 -112 -131v-476h-110z" />
    <glyph glyph-name="agrave" unicode="&#xe0;" horiz-adv-x="559" 
d="M219 -12c-94 0 -174 51 -174 153c0 107 71 167 215 167h114v41c0 51 -31 83 -98 83s-98 -32 -98 -74h-107c0 100 65 174 205 174s208 -74 208 -176v-356h-64l-42 58c-30 -36 -85 -70 -159 -70zM241 88c57 0 101 25 133 59v77h-114c-81 0 -105 -35 -105 -71
c0 -44 34 -65 86 -65zM261 590l-90 102v38h99l80 -140h-89z" />
    <glyph glyph-name="aacute" unicode="&#xe1;" horiz-adv-x="559" 
d="M219 -12c-94 0 -174 51 -174 153c0 107 71 167 215 167h114v41c0 51 -31 83 -98 83s-98 -32 -98 -74h-107c0 100 65 174 205 174s208 -74 208 -176v-356h-64l-42 58c-30 -36 -85 -70 -159 -70zM241 88c57 0 101 25 133 59v77h-114c-81 0 -105 -35 -105 -71
c0 -44 34 -65 86 -65zM219 590l80 140h99v-38l-90 -102h-89z" />
    <glyph glyph-name="acircumflex" unicode="&#xe2;" horiz-adv-x="559" 
d="M219 -12c-94 0 -174 51 -174 153c0 107 71 167 215 167h114v41c0 51 -31 83 -98 83s-98 -32 -98 -74h-107c0 100 65 174 205 174s208 -74 208 -176v-356h-64l-42 58c-30 -36 -85 -70 -159 -70zM241 88c57 0 101 25 133 59v77h-114c-81 0 -105 -35 -105 -71
c0 -44 34 -65 86 -65zM131 590v35l99 105h88l99 -105v-35h-84l-60 67l-60 -67h-82z" />
    <glyph glyph-name="atilde" unicode="&#xe3;" horiz-adv-x="559" 
d="M219 -12c-94 0 -174 51 -174 153c0 107 71 167 215 167h114v41c0 51 -31 83 -98 83s-98 -32 -98 -74h-107c0 100 65 174 205 174s208 -74 208 -176v-356h-64l-42 58c-30 -36 -85 -70 -159 -70zM241 88c57 0 101 25 133 59v77h-114c-81 0 -105 -35 -105 -71
c0 -44 34 -65 86 -65zM175 594l-66 40c30 58 65 98 109 98c29 0 53 -10 72 -23l16 -11c17 -12 33 -20 50 -20c14 0 27 11 51 49l66 -40c-30 -58 -65 -98 -109 -98c-25 0 -48 9 -64 19l-17 10c-21 12 -38 25 -57 25c-14 0 -27 -11 -51 -49z" />
    <glyph glyph-name="adieresis" unicode="&#xe4;" horiz-adv-x="559" 
d="M219 -12c-94 0 -174 51 -174 153c0 107 71 167 215 167h114v41c0 51 -31 83 -98 83s-98 -32 -98 -74h-107c0 100 65 174 205 174s208 -74 208 -176v-356h-64l-42 58c-30 -36 -85 -70 -159 -70zM241 88c57 0 101 25 133 59v77h-114c-81 0 -105 -35 -105 -71
c0 -44 34 -65 86 -65zM121 595v110h110v-110h-110zM318 595v110h110v-110h-110z" />
    <glyph glyph-name="aring" unicode="&#xe5;" horiz-adv-x="559" 
d="M219 -12c-94 0 -174 51 -174 153c0 107 71 167 215 167h114v41c0 51 -31 83 -98 83s-98 -32 -98 -74h-107c0 100 65 174 205 174s208 -74 208 -176v-356h-64l-42 58c-30 -36 -85 -70 -159 -70zM241 88c57 0 101 25 133 59v77h-114c-81 0 -105 -35 -105 -71
c0 -44 34 -65 86 -65zM277 627c23 0 43 18 43 41s-20 41 -43 41s-43 -18 -43 -41s20 -41 43 -41zM277 567c-59 0 -108 45 -108 101s49 101 108 101s108 -45 108 -101s-49 -101 -108 -101z" />
    <glyph glyph-name="ae" unicode="&#xe6;" horiz-adv-x="867" 
d="M219 -12c-96 0 -174 51 -174 153c0 107 71 167 215 167h114v41c0 51 -31 83 -98 83s-98 -32 -98 -74h-107c0 100 65 174 205 174c71 0 124 -20 159 -52c38 33 93 52 161 52c130 0 214 -71 214 -191v-117h-326v-43c0 -54 37 -93 112 -93c61 0 94 27 103 69h110
c-10 -105 -86 -169 -213 -169c-93 0 -163 33 -198 93c-35 -48 -95 -93 -179 -93zM241 88c57 0 101 25 133 59v77h-114c-81 0 -105 -35 -105 -71c0 -44 34 -65 86 -65zM484 308h216v33c0 54 -37 91 -108 91s-108 -37 -108 -91v-33z" />
    <glyph glyph-name="ccedilla" unicode="&#xe7;" horiz-adv-x="539" 
d="M138 -160v38l81 115c-101 17 -162 87 -162 188v158c0 118 84 193 217 193c129 0 212 -71 212 -191v-6h-110v6c0 54 -36 91 -102 91c-73 0 -107 -37 -107 -91v-162c0 -54 34 -91 107 -91c66 0 102 37 102 91v9h110v-7c0 -107 -71 -179 -177 -191l-72 -150h-99z" />
    <glyph glyph-name="egrave" unicode="&#xe8;" horiz-adv-x="550" 
d="M279 -12c-135 0 -222 71 -222 191v160c0 118 87 193 222 193c130 0 214 -71 214 -191v-117h-326v-43c0 -54 37 -93 112 -93c61 0 94 27 103 69h110c-10 -105 -86 -169 -213 -169zM167 308h216v33c0 54 -37 91 -108 91s-108 -37 -108 -91v-33zM264 590l-90 102v38h99
l80 -140h-89z" />
    <glyph glyph-name="eacute" unicode="&#xe9;" horiz-adv-x="550" 
d="M279 -12c-135 0 -222 71 -222 191v160c0 118 87 193 222 193c130 0 214 -71 214 -191v-117h-326v-43c0 -54 37 -93 112 -93c61 0 94 27 103 69h110c-10 -105 -86 -169 -213 -169zM167 308h216v33c0 54 -37 91 -108 91s-108 -37 -108 -91v-33zM205 590l80 140h99v-38
l-90 -102h-89z" />
    <glyph glyph-name="ecircumflex" unicode="&#xea;" horiz-adv-x="550" 
d="M279 -12c-135 0 -222 71 -222 191v160c0 118 87 193 222 193c130 0 214 -71 214 -191v-117h-326v-43c0 -54 37 -93 112 -93c61 0 94 27 103 69h110c-10 -105 -86 -169 -213 -169zM167 308h216v33c0 54 -37 91 -108 91s-108 -37 -108 -91v-33zM135 590v35l99 105h88
l99 -105v-35h-84l-60 67l-60 -67h-82z" />
    <glyph glyph-name="edieresis" unicode="&#xeb;" horiz-adv-x="550" 
d="M279 -12c-135 0 -222 71 -222 191v160c0 118 87 193 222 193c130 0 214 -71 214 -191v-117h-326v-43c0 -54 37 -93 112 -93c61 0 94 27 103 69h110c-10 -105 -86 -169 -213 -169zM167 308h216v33c0 54 -37 91 -108 91s-108 -37 -108 -91v-33zM124 595v110h110v-110h-110z
M321 595v110h110v-110h-110z" />
    <glyph glyph-name="igrave" unicode="&#xec;" horiz-adv-x="270" 
d="M80 0v520h110v-520h-110zM93 588l-90 102v38h99l80 -140h-89z" />
    <glyph glyph-name="iacute" unicode="&#xed;" horiz-adv-x="270" 
d="M80 0v520h110v-520h-110zM90 590l80 140h99v-38l-90 -102h-89z" />
    <glyph glyph-name="icircumflex" unicode="&#xee;" horiz-adv-x="270" 
d="M80 0v520h110v-520h-110zM-8 590v35l99 105h88l99 -105v-35h-84l-60 67l-60 -67h-82z" />
    <glyph glyph-name="idieresis" unicode="&#xef;" horiz-adv-x="270" 
d="M-18 595v110h110v-110h-110zM179 595v110h110v-110h-110zM80 0v520h110v-520h-110z" />
    <glyph glyph-name="eth" unicode="&#xf0;" horiz-adv-x="558" 
d="M279 -12c-135 0 -222 75 -222 193v105c0 131 83 191 188 191c64 0 94 -22 122 -44l-78 96h-149v65h96l-47 59v52h99l86 -111h112v-65h-63c57 -79 78 -132 78 -244v-106c0 -120 -87 -191 -222 -191zM279 88c75 0 112 44 112 98v130c-28 32 -65 61 -118 61
c-61 0 -106 -37 -106 -99v-92c0 -54 37 -98 112 -98z" />
    <glyph glyph-name="ntilde" unicode="&#xf1;" horiz-adv-x="594" 
d="M80 0v520h64l41 -58c30 36 80 70 154 70c106 0 180 -71 180 -197v-335h-110v325c0 74 -43 107 -95 107c-58 0 -103 -42 -124 -67v-365h-110zM197 594l-66 40c30 58 65 98 109 98c29 0 53 -10 72 -23l16 -11c17 -12 33 -20 50 -20c14 0 27 11 51 49l66 -40
c-30 -58 -65 -98 -109 -98c-25 0 -48 9 -64 19l-17 10c-21 12 -38 25 -57 25c-14 0 -27 -11 -51 -49z" />
    <glyph glyph-name="ograve" unicode="&#xf2;" horiz-adv-x="558" 
d="M279 88c75 0 112 44 112 98v148c0 54 -37 98 -112 98s-112 -44 -112 -98v-148c0 -54 37 -98 112 -98zM279 -12c-148 0 -222 84 -222 193v158c0 109 74 193 222 193s222 -84 222 -193v-158c0 -109 -74 -193 -222 -193zM249 590l-90 102v38h99l80 -140h-89z" />
    <glyph glyph-name="oacute" unicode="&#xf3;" horiz-adv-x="558" 
d="M279 88c75 0 112 44 112 98v148c0 54 -37 98 -112 98s-112 -44 -112 -98v-148c0 -54 37 -98 112 -98zM279 -12c-148 0 -222 84 -222 193v158c0 109 74 193 222 193s222 -84 222 -193v-158c0 -109 -74 -193 -222 -193zM217 590l80 140h99v-38l-90 -102h-89z" />
    <glyph glyph-name="ocircumflex" unicode="&#xf4;" horiz-adv-x="558" 
d="M279 88c75 0 112 44 112 98v148c0 54 -37 98 -112 98s-112 -44 -112 -98v-148c0 -54 37 -98 112 -98zM279 -12c-148 0 -222 84 -222 193v158c0 109 74 193 222 193s222 -84 222 -193v-158c0 -109 -74 -193 -222 -193zM136 590v35l99 105h88l99 -105v-35h-84l-60 67
l-60 -67h-82z" />
    <glyph glyph-name="otilde" unicode="&#xf5;" horiz-adv-x="558" 
d="M279 88c75 0 112 44 112 98v148c0 54 -37 98 -112 98s-112 -44 -112 -98v-148c0 -54 37 -98 112 -98zM279 -12c-148 0 -222 84 -222 193v158c0 109 74 193 222 193s222 -84 222 -193v-158c0 -109 -74 -193 -222 -193zM163 594l-66 40c30 58 65 98 109 98
c29 0 53 -10 72 -23l16 -11c17 -12 33 -20 50 -20c14 0 27 11 51 49l66 -40c-30 -58 -65 -98 -109 -98c-25 0 -48 9 -64 19l-17 10c-21 12 -38 25 -57 25c-14 0 -27 -11 -51 -49z" />
    <glyph glyph-name="odieresis" unicode="&#xf6;" horiz-adv-x="558" 
d="M279 88c75 0 112 44 112 98v148c0 54 -37 98 -112 98s-112 -44 -112 -98v-148c0 -54 37 -98 112 -98zM279 -12c-148 0 -222 84 -222 193v158c0 109 74 193 222 193s222 -84 222 -193v-158c0 -109 -74 -193 -222 -193zM125 595v110h110v-110h-110zM322 595v110h110v-110
h-110z" />
    <glyph glyph-name="divide" unicode="&#xf7;" horiz-adv-x="560" 
d="M216 73v124h127v-124h-127zM60 267v92h440v-92h-440zM216 429v124h127v-124h-127z" />
    <glyph glyph-name="oslash" unicode="&#xf8;" horiz-adv-x="564" 
d="M60 -126v52l57 116c-38 35 -57 84 -57 139v158c0 109 74 193 222 193c27 0 51 -3 73 -8l61 122h88v-52l-58 -116c39 -35 58 -84 58 -139v-158c0 -109 -74 -193 -222 -193c-27 0 -52 3 -74 8l-60 -122h-88zM178 146l139 282c-10 2 -22 4 -35 4c-75 0 -112 -44 -112 -98
v-148c0 -15 3 -28 8 -40zM282 88c75 0 112 44 112 98v148c0 14 -3 28 -9 41l-140 -283c11 -3 23 -4 37 -4z" />
    <glyph glyph-name="ugrave" unicode="&#xf9;" horiz-adv-x="591" 
d="M253 -12c-105 0 -178 71 -178 197v335h110v-325c0 -74 42 -107 94 -107c57 0 101 42 122 67v365h110v-520h-64l-42 58c-30 -36 -79 -70 -152 -70zM281 590l-90 102v38h99l80 -140h-89z" />
    <glyph glyph-name="uacute" unicode="&#xfa;" horiz-adv-x="591" 
d="M253 -12c-105 0 -178 71 -178 197v335h110v-325c0 -74 42 -107 94 -107c57 0 101 42 122 67v365h110v-520h-64l-42 58c-30 -36 -79 -70 -152 -70zM218 590l80 140h99v-38l-90 -102h-89z" />
    <glyph glyph-name="ucircumflex" unicode="&#xfb;" horiz-adv-x="591" 
d="M253 -12c-105 0 -178 71 -178 197v335h110v-325c0 -74 42 -107 94 -107c57 0 101 42 122 67v365h110v-520h-64l-42 58c-30 -36 -79 -70 -152 -70zM152 590v35l99 105h88l99 -105v-35h-84l-60 67l-60 -67h-82z" />
    <glyph glyph-name="udieresis" unicode="&#xfc;" horiz-adv-x="591" 
d="M253 -12c-105 0 -178 71 -178 197v335h110v-325c0 -74 42 -107 94 -107c57 0 101 42 122 67v365h110v-520h-64l-42 58c-30 -36 -79 -70 -152 -70zM142 595v110h110v-110h-110zM339 595v110h110v-110h-110z" />
    <glyph glyph-name="yacute" unicode="&#xfd;" horiz-adv-x="511" 
d="M153 -160v40l52 120l-185 468v52h102l137 -370l131 370h101v-52l-248 -628h-90zM197 590l80 140h99v-38l-90 -102h-89z" />
    <glyph glyph-name="thorn" unicode="&#xfe;" horiz-adv-x="589" 
d="M80 -160v865h110v-236c25 31 74 63 146 63c104 0 188 -60 188 -191v-162c0 -131 -84 -191 -188 -191c-72 0 -121 32 -146 63v-211h-110zM316 88c53 0 98 37 98 99v146c0 62 -45 99 -97 99c-56 0 -97 -35 -127 -67v-210c30 -32 70 -67 126 -67z" />
    <glyph glyph-name="ydieresis" unicode="&#xff;" horiz-adv-x="511" 
d="M153 -160v40l52 120l-185 468v52h102l137 -370l131 370h101v-52l-248 -628h-90zM102 595v110h110v-110h-110zM299 595v110h110v-110h-110z" />
    <glyph glyph-name="Amacron" unicode="&#x100;" horiz-adv-x="658" 
d="M20 0v40l250 660h118l250 -660v-40h-118l-62 173h-264l-63 -173h-111zM230 273h192l-95 267zM165 779v97h329v-97h-329z" />
    <glyph glyph-name="amacron" unicode="&#x101;" horiz-adv-x="559" 
d="M219 -12c-94 0 -174 51 -174 153c0 107 71 167 215 167h114v41c0 51 -31 83 -98 83s-98 -32 -98 -74h-107c0 100 65 174 205 174s208 -74 208 -176v-356h-64l-42 58c-30 -36 -85 -70 -159 -70zM241 88c57 0 101 25 133 59v77h-114c-81 0 -105 -35 -105 -71
c0 -44 34 -65 86 -65zM127 605v90h307v-90h-307z" />
    <glyph glyph-name="Aogonek" unicode="&#x104;" horiz-adv-x="658" 
d="M626 -160c-64 0 -103 28 -103 73c0 24 15 54 51 87h-54l-62 173h-264l-63 -173h-111v40l250 660h118l250 -660v-40c-30 -24 -42 -43 -42 -61c0 -22 19 -32 52 -32h34v-67h-56zM230 273h192l-95 267z" />
    <glyph glyph-name="aogonek" unicode="&#x105;" horiz-adv-x="559" 
d="M472 -160c-64 0 -103 28 -103 73c0 24 15 54 51 87l-42 58c-30 -36 -85 -70 -159 -70c-94 0 -174 51 -174 153c0 107 71 167 215 167h114v41c0 51 -31 83 -98 83s-98 -32 -98 -74h-107c0 100 65 174 205 174s208 -74 208 -176v-356c-30 -24 -42 -43 -42 -61
c0 -22 19 -32 52 -32h34v-67h-56zM241 88c57 0 101 25 133 59v77h-114c-81 0 -105 -35 -105 -71c0 -44 34 -65 86 -65z" />
    <glyph glyph-name="Cacute" unicode="&#x106;" horiz-adv-x="660" 
d="M342 -15c-174 0 -272 93 -272 252v226c0 159 98 252 272 252c137 0 258 -73 258 -242v-10h-120v10c0 94 -78 132 -139 132c-103 0 -151 -51 -151 -134v-242c0 -83 48 -134 151 -134c61 0 139 38 139 132v10h120v-10c0 -169 -121 -242 -258 -242zM270 762l86 151h106v-41
l-96 -110h-96z" />
    <glyph glyph-name="cacute" unicode="&#x107;" horiz-adv-x="539" 
d="M274 -12c-133 0 -217 75 -217 193v158c0 118 84 193 217 193c129 0 212 -71 212 -191v-6h-110v6c0 54 -36 91 -102 91c-73 0 -107 -37 -107 -91v-162c0 -54 34 -91 107 -91c66 0 102 37 102 91v9h110v-7c0 -118 -86 -193 -212 -193zM229 590l80 140h99v-38l-90 -102h-89z
" />
    <glyph glyph-name="Ccaron" unicode="&#x10c;" horiz-adv-x="660" 
d="M342 -15c-174 0 -272 93 -272 252v226c0 159 98 252 272 252c137 0 258 -73 258 -242v-10h-120v10c0 94 -78 132 -139 132c-103 0 -151 -51 -151 -134v-242c0 -83 48 -134 151 -134c61 0 139 38 139 132v10h120v-10c0 -169 -121 -242 -258 -242zM290 763l-106 113v37h90
l65 -82l64 82h88v-37l-106 -113h-95z" />
    <glyph glyph-name="ccaron" unicode="&#x10d;" horiz-adv-x="539" 
d="M274 -12c-133 0 -217 75 -217 193v158c0 118 84 193 217 193c129 0 212 -71 212 -191v-6h-110v6c0 54 -36 91 -102 91c-73 0 -107 -37 -107 -91v-162c0 -54 34 -91 107 -91c66 0 102 37 102 91v9h110v-7c0 -118 -86 -193 -212 -193zM237 590l-99 105v35h84l60 -77l60 77
h82v-35l-99 -105h-88z" />
    <glyph glyph-name="Dcaron" unicode="&#x10e;" horiz-adv-x="685" 
d="M210 105h130c101 0 155 59 155 134v222c0 75 -54 134 -155 134h-130v-490zM90 0v700h250c168 0 275 -87 275 -242v-216c0 -155 -107 -242 -275 -242h-250zM270 763l-106 113v37h90l65 -82l64 82h88v-37l-106 -113h-95z" />
    <glyph glyph-name="dcaron" unicode="&#x10f;" horiz-adv-x="714" 
d="M249 -12c-99 0 -184 60 -184 191v162c0 131 84 191 188 191c72 0 121 -32 146 -63v236h110v-705h-64l-41 58c-30 -36 -81 -70 -155 -70zM273 88c56 0 96 35 126 67v210c-30 32 -71 67 -127 67c-52 0 -97 -37 -97 -99v-146c0 -62 45 -99 98 -99zM581 495l38 210h120v-50
l-73 -160h-85z" />
    <glyph glyph-name="Emacron" unicode="&#x112;" horiz-adv-x="590" 
d="M90 0v700h449v-105h-329v-194h282v-100h-282v-196h330v-105h-450zM148 779v97h329v-97h-329z" />
    <glyph glyph-name="emacron" unicode="&#x113;" horiz-adv-x="550" 
d="M279 -12c-135 0 -222 71 -222 191v160c0 118 87 193 222 193c130 0 214 -71 214 -191v-117h-326v-43c0 -54 37 -93 112 -93c61 0 94 27 103 69h110c-10 -105 -86 -169 -213 -169zM167 308h216v33c0 54 -37 91 -108 91s-108 -37 -108 -91v-33zM126 605v90h307v-90h-307z
" />
    <glyph glyph-name="Edotaccent" unicode="&#x116;" horiz-adv-x="590" 
d="M90 0v700h449v-105h-329v-194h282v-100h-282v-196h330v-105h-450zM252 768v118h118v-118h-118z" />
    <glyph glyph-name="edotaccent" unicode="&#x117;" horiz-adv-x="550" 
d="M279 -12c-135 0 -222 71 -222 191v160c0 118 87 193 222 193c130 0 214 -71 214 -191v-117h-326v-43c0 -54 37 -93 112 -93c61 0 94 27 103 69h110c-10 -105 -86 -169 -213 -169zM167 308h216v33c0 54 -37 91 -108 91s-108 -37 -108 -91v-33zM226 595v110h110v-110h-110z
" />
    <glyph glyph-name="Eogonek" unicode="&#x118;" horiz-adv-x="600" 
d="M528 -160c-64 0 -103 28 -103 73c0 24 15 54 51 87h-386v700h450v-105h-330v-195h282v-100h-282v-195h330v-105c-30 -24 -42 -43 -42 -61c0 -22 19 -32 52 -32h34v-67h-56z" />
    <glyph glyph-name="eogonek" unicode="&#x119;" horiz-adv-x="550" 
d="M381 -160c-64 0 -103 28 -103 73c0 22 13 50 43 79c-11 -2 -30 -4 -42 -4c-135 0 -222 71 -222 191v160c0 118 87 193 222 193c130 0 214 -71 214 -191v-117h-326v-43c0 -54 37 -93 112 -93c61 0 94 27 103 69h110c-8 -78 -58 -126 -99 -157c-28 -21 -42 -43 -42 -61
c0 -22 19 -32 52 -32h34v-67h-56zM167 308h216v33c0 54 -37 91 -108 91s-108 -37 -108 -91v-33z" />
    <glyph glyph-name="Ecaron" unicode="&#x11a;" horiz-adv-x="590" 
d="M90 0v700h449v-105h-329v-194h282v-100h-282v-196h330v-105h-450zM270 763l-106 113v37h90l65 -82l64 82h88v-37l-106 -113h-95z" />
    <glyph glyph-name="ecaron" unicode="&#x11b;" horiz-adv-x="550" 
d="M279 -12c-135 0 -222 71 -222 191v160c0 118 87 193 222 193c130 0 214 -71 214 -191v-117h-326v-43c0 -54 37 -93 112 -93c61 0 94 27 103 69h110c-10 -105 -86 -169 -213 -169zM167 308h216v33c0 54 -37 91 -108 91s-108 -37 -108 -91v-33zM235 590l-99 105v35h84
l60 -77l60 77h82v-35l-99 -105h-88z" />
    <glyph glyph-name="uni0122" unicode="&#x122;" horiz-adv-x="695" 
d="M245 -277l38 210h120v-50l-73 -160h-85zM331 -15c-161 0 -261 91 -261 249v229c0 159 103 252 277 252c136 0 263 -74 263 -238v-4h-120v4c0 77 -55 128 -148 128s-152 -51 -152 -134v-237c0 -87 54 -139 148 -139c65 0 122 31 152 85v90h-138v100h258v-370h-65l-36 66
c-44 -54 -104 -81 -178 -81z" />
    <glyph glyph-name="uni0123" unicode="&#x123;" horiz-adv-x="589" 
d="M294 -172c-130 0 -216 65 -216 172h110c0 -33 30 -72 106 -72s105 39 105 98v78c-25 -31 -74 -63 -146 -63c-104 0 -188 60 -188 191v109c0 131 85 191 184 191c74 0 125 -34 155 -70l41 58h64v-491c0 -136 -85 -201 -215 -201zM277 141c54 0 94 33 122 65v161
c-28 32 -68 65 -122 65c-58 0 -102 -35 -102 -97v-97c0 -62 44 -97 102 -97zM390 796l-34 -210h-110v50l67 160h77z" />
    <glyph glyph-name="Imacron" unicode="&#x12a;" horiz-adv-x="300" 
d="M90 0v700h120v-700h-120zM-14 779v97h329v-97h-329z" />
    <glyph glyph-name="imacron" unicode="&#x12b;" horiz-adv-x="270" 
d="M80 0v520h110v-520h-110zM-18 605v90h307v-90h-307z" />
    <glyph glyph-name="Iogonek" unicode="&#x12e;" horiz-adv-x="300" 
d="M198 -160c-64 0 -103 28 -103 73c0 24 15 54 51 87h-56v700h120v-700c-30 -24 -42 -43 -42 -61c0 -22 19 -32 52 -32h34v-67h-56z" />
    <glyph glyph-name="iogonek" unicode="&#x12f;" horiz-adv-x="270" 
d="M178 -160c-64 0 -103 28 -103 73c0 24 15 54 51 87h-46v520h110v-520c-30 -24 -42 -43 -42 -61c0 -22 19 -32 52 -32h34v-67h-56zM80 595v110h110v-110h-110z" />
    <glyph glyph-name="dotlessi" unicode="&#x131;" horiz-adv-x="270" 
d="M80 0v520h110v-520h-110z" />
    <glyph glyph-name="uni0136" unicode="&#x136;" horiz-adv-x="627" 
d="M90 0v700h120v-297h89l183 297h111v-40l-189 -303l203 -317v-40h-118l-190 298h-89v-298h-120zM243 -277l38 210h120v-50l-73 -160h-85z" />
    <glyph glyph-name="uni0137" unicode="&#x137;" horiz-adv-x="542" 
d="M80 0v705h110v-391h69l137 206h91v-52l-130 -196l145 -220v-52h-99l-145 218h-68v-218h-110zM192 -277l34 210h110v-50l-67 -160h-77z" />
    <glyph glyph-name="Lacute" unicode="&#x139;" horiz-adv-x="565" 
d="M90 0v700h120v-595h335v-105h-455zM105 762l86 151h106v-41l-96 -110h-96z" />
    <glyph glyph-name="lacute" unicode="&#x13a;" horiz-adv-x="270" 
d="M80 0v705h110v-705h-110zM91 756l80 140h99v-38l-90 -102h-89z" />
    <glyph glyph-name="uni013B" unicode="&#x13b;" horiz-adv-x="565" 
d="M224 -277l38 210h120v-50l-73 -160h-85zM90 0v700h120v-595h335v-105h-455z" />
    <glyph glyph-name="uni013C" unicode="&#x13c;" horiz-adv-x="270" 
d="M80 0v705h110v-705h-110zM46 -277l34 210h110v-50l-67 -160h-77z" />
    <glyph glyph-name="Lcaron" unicode="&#x13d;" horiz-adv-x="565" 
d="M90 0v700h120v-595h335v-105h-455zM387 490l38 210h120v-50l-73 -160h-85z" />
    <glyph glyph-name="lcaron" unicode="&#x13e;" horiz-adv-x="395" 
d="M80 0v705h110v-705h-110zM262 495l38 210h120v-50l-73 -160h-85z" />
    <glyph glyph-name="Lslash" unicode="&#x141;" horiz-adv-x="603" 
d="M128 0v229l-68 -51h-40v100l108 81v341h120v-250l119 90h40v-100l-159 -120v-215h335v-105h-455z" />
    <glyph glyph-name="lslash" unicode="&#x142;" horiz-adv-x="405" 
d="M147 0v226l-95 -103h-52v84l147 160v338h110v-219l96 105h52v-84l-148 -161v-346h-110z" />
    <glyph glyph-name="Nacute" unicode="&#x143;" horiz-adv-x="710" 
d="M90 0v700h110l300 -477v477h120v-700h-110l-300 477v-477h-120zM274 762l86 151h106v-41l-96 -110h-96z" />
    <glyph glyph-name="nacute" unicode="&#x144;" horiz-adv-x="594" 
d="M80 0v520h64l41 -58c30 36 80 70 154 70c106 0 180 -71 180 -197v-335h-110v325c0 74 -43 107 -95 107c-58 0 -103 -42 -124 -67v-365h-110zM247 590l80 140h99v-38l-90 -102h-89z" />
    <glyph glyph-name="Ncommaaccent" unicode="&#x145;" horiz-adv-x="710" 
d="M90 0v700h110l300 -477v477h120v-700h-110l-300 477v-477h-120zM261 -277l38 210h120v-50l-73 -160h-85z" />
    <glyph glyph-name="ncommaaccent" unicode="&#x146;" horiz-adv-x="594" 
d="M212 -277l34 210h110v-50l-67 -160h-77zM80 0v520h64l41 -58c30 36 80 70 154 70c106 0 180 -71 180 -197v-335h-110v325c0 74 -43 107 -95 107c-58 0 -103 -42 -124 -67v-365h-110z" />
    <glyph glyph-name="Ncaron" unicode="&#x147;" horiz-adv-x="710" 
d="M90 0v700h110l300 -477v477h120v-700h-110l-300 477v-477h-120zM306 763l-106 113v37h90l65 -82l64 82h88v-37l-106 -113h-95z" />
    <glyph glyph-name="ncaron" unicode="&#x148;" horiz-adv-x="594" 
d="M80 0v520h64l41 -58c30 36 80 70 154 70c106 0 180 -71 180 -197v-335h-110v325c0 74 -43 107 -95 107c-58 0 -103 -42 -124 -67v-365h-110zM258 590l-99 105v35h84l60 -77l60 77h82v-35l-99 -105h-88z" />
    <glyph glyph-name="Omacron" unicode="&#x14c;" horiz-adv-x="690" 
d="M345 95c104 0 155 61 155 136v238c0 75 -51 136 -155 136s-155 -61 -155 -136v-238c0 -75 51 -136 155 -136zM345 -15c-168 0 -275 93 -275 252v226c0 159 107 252 275 252s275 -93 275 -252v-226c0 -159 -107 -252 -275 -252zM180 779v97h329v-97h-329z" />
    <glyph glyph-name="omacron" unicode="&#x14d;" horiz-adv-x="558" 
d="M279 88c75 0 112 44 112 98v148c0 54 -37 98 -112 98s-112 -44 -112 -98v-148c0 -54 37 -98 112 -98zM279 -12c-148 0 -222 84 -222 193v158c0 109 74 193 222 193s222 -84 222 -193v-158c0 -109 -74 -193 -222 -193zM126 605v90h307v-90h-307z" />
    <glyph glyph-name="obreve" unicode="&#x14f;" horiz-adv-x="558" 
d="M279 88c75 0 112 44 112 98v148c0 54 -37 98 -112 98s-112 -44 -112 -98v-148c0 -54 37 -98 112 -98zM279 -12c-148 0 -222 84 -222 193v158c0 109 74 193 222 193s222 -84 222 -193v-158c0 -109 -74 -193 -222 -193zM281 585c-95 0 -161 50 -161 137v12h94v-11
c0 -35 22 -58 67 -58c46 0 68 23 68 58v11h93v-12c0 -87 -66 -137 -161 -137z" />
    <glyph glyph-name="Ohungarumlaut" unicode="&#x150;" horiz-adv-x="690" 
d="M345 95c104 0 155 61 155 136v238c0 75 -51 136 -155 136s-155 -61 -155 -136v-238c0 -75 51 -136 155 -136zM345 -15c-168 0 -275 93 -275 252v226c0 159 107 252 275 252s275 -93 275 -252v-226c0 -159 -107 -252 -275 -252zM189 763l86 150h106v-40l-96 -110h-96z
M376 763l86 150h106v-40l-97 -110h-95z" />
    <glyph glyph-name="ohungarumlaut" unicode="&#x151;" horiz-adv-x="558" 
d="M279 88c75 0 112 44 112 98v148c0 54 -37 98 -112 98s-112 -44 -112 -98v-148c0 -54 37 -98 112 -98zM279 -12c-148 0 -222 84 -222 193v158c0 109 74 193 222 193s222 -84 222 -193v-158c0 -109 -74 -193 -222 -193zM136 590l80 140h99v-38l-90 -102h-89zM310 590
l80 140h99v-38l-90 -102h-89z" />
    <glyph glyph-name="OE" unicode="&#x152;" horiz-adv-x="1000" 
d="M345 -15c-168 0 -275 93 -275 252v226c0 159 107 252 275 252c60 0 112 -20 155 -53v38h449v-105h-329v-194h282v-100h-282v-196h330v-105h-450v37c-43 -32 -95 -52 -155 -52zM345 95c101 0 155 58 155 130v244c0 75 -51 136 -155 136s-155 -61 -155 -136v-238
c0 -75 51 -136 155 -136z" />
    <glyph glyph-name="oe" unicode="&#x153;" horiz-adv-x="884" 
d="M279 -12c-148 0 -222 84 -222 193v158c0 109 74 193 222 193c74 0 130 -22 167 -57c39 36 96 57 167 57c130 0 214 -71 214 -191v-117h-326v-47c0 -52 39 -89 112 -89c61 0 94 27 103 69h110c-10 -105 -86 -169 -213 -169c-71 0 -129 19 -168 55
c-37 -34 -92 -55 -166 -55zM279 88c75 0 112 44 112 98v148c0 54 -37 98 -112 98s-112 -44 -112 -98v-148c0 -54 37 -98 112 -98zM501 308h216v33c0 54 -37 91 -108 91s-108 -37 -108 -91v-33z" />
    <glyph glyph-name="Racute" unicode="&#x154;" horiz-adv-x="660" 
d="M257 762l86 151h106v-41l-96 -110h-96zM90 0v700h301c138 0 211 -81 211 -215c0 -91 -40 -167 -123 -202l131 -243v-40h-118l-144 269h-138v-269h-120zM210 371h159c70 0 111 34 111 112s-41 112 -111 112h-159v-224z" />
    <glyph glyph-name="racute" unicode="&#x155;" horiz-adv-x="370" 
d="M80 0v520h55l42 -58c29 33 78 70 143 70h20v-105h-15c-60 0 -101 -16 -135 -56v-371h-110zM148 590l80 140h99v-38l-90 -102h-89z" />
    <glyph glyph-name="Rcommaaccent" unicode="&#x156;" horiz-adv-x="660" 
d="M249 -277l38 210h120v-50l-73 -160h-85zM90 0v700h301c138 0 211 -81 211 -215c0 -91 -40 -167 -123 -202l131 -243v-40h-118l-144 269h-138v-269h-120zM210 371h159c70 0 111 34 111 112s-41 112 -111 112h-159v-224z" />
    <glyph glyph-name="uni0157" unicode="&#x157;" horiz-adv-x="370" 
d="M46 -277l34 210h110v-50l-67 -160h-77zM80 0v520h55l42 -58c29 33 78 70 143 70h20v-105h-15c-60 0 -101 -16 -135 -56v-371h-110z" />
    <glyph glyph-name="Rcaron" unicode="&#x158;" horiz-adv-x="660" 
d="M270 763l-106 113v37h90l65 -82l64 82h88v-37l-106 -113h-95zM90 0v700h301c138 0 211 -81 211 -215c0 -91 -40 -167 -123 -202l131 -243v-40h-118l-144 269h-138v-269h-120zM210 371h159c70 0 111 34 111 112s-41 112 -111 112h-159v-224z" />
    <glyph glyph-name="rcaron" unicode="&#x159;" horiz-adv-x="370" 
d="M80 0v520h55l42 -58c29 33 78 70 143 70h20v-105h-15c-60 0 -101 -16 -135 -56v-371h-110zM162 590l-99 105v35h84l60 -77l60 77h82v-35l-99 -105h-88z" />
    <glyph glyph-name="Sacute" unicode="&#x15a;" horiz-adv-x="642" 
d="M317 -15c-146 0 -272 78 -272 242h120c0 -104 90 -132 159 -132c86 0 131 39 131 91c0 55 -55 74 -162 114l-16 6c-132 50 -213 91 -213 205c0 122 95 204 252 204c148 0 260 -67 260 -236h-120c0 94 -68 126 -141 126c-80 0 -130 -36 -130 -85c0 -59 49 -76 151 -112
l14 -5c124 -44 232 -88 232 -211c0 -118 -89 -207 -265 -207zM251 762l86 151h106v-41l-96 -110h-96z" />
    <glyph glyph-name="sacute" unicode="&#x15b;" horiz-adv-x="553" 
d="M278 -12c-138 0 -228 69 -228 191h110c0 -59 52 -91 127 -91c59 0 96 23 96 57c0 25 -14 43 -57 54l-135 35c-64 17 -125 49 -125 138c0 95 76 160 206 160c127 0 212 -64 212 -186h-110c0 58 -46 86 -109 86c-64 0 -89 -26 -89 -55c0 -25 18 -40 57 -50l134 -33
c73 -18 126 -55 126 -140c0 -99 -85 -166 -215 -166zM206 590l80 140h99v-38l-90 -102h-89z" />
    <glyph glyph-name="scircumflex" unicode="&#x15d;" horiz-adv-x="553" 
d="M278 -12c-138 0 -228 69 -228 191h110c0 -59 52 -91 127 -91c59 0 96 23 96 57c0 25 -14 43 -57 54l-135 35c-64 17 -125 49 -125 138c0 95 76 160 206 160c127 0 212 -64 212 -186h-110c0 58 -46 86 -109 86c-64 0 -89 -26 -89 -55c0 -25 18 -40 57 -50l134 -33
c73 -18 126 -55 126 -140c0 -99 -85 -166 -215 -166zM131 590v35l99 105h88l99 -105v-35h-84l-60 67l-60 -67h-82z" />
    <glyph glyph-name="Scaron" unicode="&#x160;" horiz-adv-x="642" 
d="M317 -15c-146 0 -272 78 -272 242h120c0 -104 90 -132 159 -132c86 0 131 39 131 91c0 55 -55 74 -162 114l-16 6c-132 50 -213 91 -213 205c0 122 95 204 252 204c148 0 260 -67 260 -236h-120c0 94 -68 126 -141 126c-80 0 -130 -36 -130 -85c0 -59 49 -76 151 -112
l14 -5c124 -44 232 -88 232 -211c0 -118 -89 -207 -265 -207zM273 763l-106 113v37h90l65 -82l64 82h88v-37l-106 -113h-95z" />
    <glyph glyph-name="scaron" unicode="&#x161;" horiz-adv-x="553" 
d="M278 -12c-138 0 -228 69 -228 191h110c0 -59 52 -91 127 -91c59 0 96 23 96 57c0 25 -14 43 -57 54l-135 35c-64 17 -125 49 -125 138c0 95 76 160 206 160c127 0 212 -64 212 -186h-110c0 58 -46 86 -109 86c-64 0 -89 -26 -89 -55c0 -25 18 -40 57 -50l134 -33
c73 -18 126 -55 126 -140c0 -99 -85 -166 -215 -166zM230 590l-99 105v35h84l60 -77l60 77h82v-35l-99 -105h-88z" />
    <glyph glyph-name="Tcaron" unicode="&#x164;" horiz-adv-x="566" 
d="M223 0v595h-203v105h526v-105h-203v-595h-120zM236 763l-106 113v37h90l65 -82l64 82h88v-37l-106 -113h-95z" />
    <glyph glyph-name="tcaron" unicode="&#x165;" horiz-adv-x="523" 
d="M281 0c-145 0 -181 93 -181 186v238h-80v96h80v108h110v-108h124v-96h-124v-239c0 -68 28 -89 71 -89h53v-96h-53zM365 495l38 210h120v-50l-73 -160h-85z" />
    <glyph glyph-name="Umacron" unicode="&#x16a;" horiz-adv-x="690" 
d="M490 700h120v-472c0 -153 -103 -243 -265 -243s-265 90 -265 243v472h120v-478c0 -70 48 -127 145 -127s145 57 145 127v478zM181 779v97h329v-97h-329z" />
    <glyph glyph-name="umacron" unicode="&#x16b;" horiz-adv-x="591" 
d="M253 -12c-105 0 -178 71 -178 197v335h110v-325c0 -74 42 -107 94 -107c57 0 101 42 122 67v365h110v-520h-64l-42 58c-30 -36 -79 -70 -152 -70zM140 605v90h307v-90h-307z" />
    <glyph glyph-name="Uring" unicode="&#x16e;" horiz-adv-x="690" 
d="M490 700h120v-472c0 -153 -103 -243 -265 -243s-265 90 -265 243v472h120v-478c0 -70 48 -127 145 -127s145 57 145 127v478zM346 803c25 0 46 19 46 44c0 24 -21 44 -46 44s-46 -20 -46 -44c0 -25 21 -44 46 -44zM346 738c-63 0 -116 49 -116 109s53 108 116 108
s116 -48 116 -108s-53 -109 -116 -109z" />
    <glyph glyph-name="uring" unicode="&#x16f;" horiz-adv-x="591" 
d="M253 -12c-105 0 -178 71 -178 197v335h110v-325c0 -74 42 -107 94 -107c57 0 101 42 122 67v365h110v-520h-64l-42 58c-30 -36 -79 -70 -152 -70zM293 627c23 0 43 18 43 41s-20 41 -43 41s-43 -18 -43 -41s20 -41 43 -41zM293 567c-59 0 -108 45 -108 101
s49 101 108 101s108 -45 108 -101s-49 -101 -108 -101z" />
    <glyph glyph-name="Uhungarumlaut" unicode="&#x170;" horiz-adv-x="690" 
d="M490 700h120v-472c0 -153 -103 -243 -265 -243s-265 90 -265 243v472h120v-478c0 -70 48 -127 145 -127s145 57 145 127v478zM184 763l86 150h106v-40l-96 -110h-96zM371 763l86 150h106v-40l-97 -110h-95z" />
    <glyph glyph-name="uhungarumlaut" unicode="&#x171;" horiz-adv-x="591" 
d="M253 -12c-105 0 -178 71 -178 197v335h110v-325c0 -74 42 -107 94 -107c57 0 101 42 122 67v365h110v-520h-64l-42 58c-30 -36 -79 -70 -152 -70zM146 590l80 140h99v-38l-90 -102h-89zM320 590l80 140h99v-38l-90 -102h-89z" />
    <glyph glyph-name="Uogonek" unicode="&#x172;" horiz-adv-x="690" 
d="M482 -160c-64 0 -103 28 -103 73c0 23 13 51 44 81c-25 -6 -52 -9 -78 -9c-134 0 -265 68 -265 232v483h120v-483c0 -79 59 -122 145 -122c87 0 145 39 145 122v483h120v-483c0 -118 -75 -183 -116 -217c-27 -22 -42 -43 -42 -61c0 -22 19 -32 52 -32h34v-67h-56z" />
    <glyph glyph-name="uogonek" unicode="&#x173;" horiz-adv-x="591" 
d="M499 -160c-64 0 -103 28 -103 73c0 24 15 54 51 87l-42 58c-30 -36 -79 -70 -152 -70c-105 0 -178 71 -178 197v335h110v-325c0 -74 42 -107 94 -107c57 0 101 42 122 67v365h110v-520c-30 -24 -42 -43 -42 -61c0 -22 19 -32 52 -32h34v-67h-56z" />
    <glyph glyph-name="Ydieresis" unicode="&#x178;" 
d="M247 0v277l-237 383v40h118l180 -310l186 310h110v-40l-237 -378v-282h-120zM144 771v118h118v-118h-118zM355 771v118h118v-118h-118z" />
    <glyph glyph-name="Zacute" unicode="&#x179;" horiz-adv-x="586" 
d="M40 0v104l358 491h-343v105h481v-103l-359 -492h369v-105h-506zM217 762l86 151h106v-41l-96 -110h-96z" />
    <glyph glyph-name="zacute" unicode="&#x17a;" horiz-adv-x="528" 
d="M50 0v96l274 328h-265v96h397v-96l-276 -328h288v-96h-418zM183 590l80 140h99v-38l-90 -102h-89z" />
    <glyph glyph-name="Zdotaccent" unicode="&#x17b;" horiz-adv-x="586" 
d="M40 0v104l358 491h-343v105h481v-103l-359 -492h369v-105h-506zM232 768v118h118v-118h-118z" />
    <glyph glyph-name="zdotaccent" unicode="&#x17c;" horiz-adv-x="528" 
d="M50 0v96l274 328h-265v96h397v-96l-276 -328h288v-96h-418zM195 595v110h110v-110h-110z" />
    <glyph glyph-name="Zcaron" unicode="&#x17d;" horiz-adv-x="586" 
d="M40 0v104l358 491h-343v105h481v-103l-359 -492h369v-105h-506zM250 763l-106 113v37h90l65 -82l64 82h88v-37l-106 -113h-95z" />
    <glyph glyph-name="zcaron" unicode="&#x17e;" horiz-adv-x="528" 
d="M50 0v96l274 328h-265v96h397v-96l-276 -328h288v-96h-418zM208 590l-99 105v35h84l60 -77l60 77h82v-35l-99 -105h-88z" />
    <glyph glyph-name="florin" unicode="&#x192;" horiz-adv-x="372" 
d="M42 520h80l1 9c11 101 49 178 192 178c12 0 26 -1 37 -2v-96h-23c-67 0 -90 -25 -96 -80l-1 -9h120v-96h-128l-32 -409c-8 -101 -46 -187 -174 -187c-12 0 -25 0 -38 2v96h5c70 0 92 26 97 89l32 409h-72v96z" />
    <glyph glyph-name="scommaaccent" unicode="&#x219;" horiz-adv-x="553" 
d="M278 -12c-138 0 -228 69 -228 191h110c0 -59 52 -91 127 -91c59 0 96 23 96 57c0 25 -14 43 -57 54l-135 35c-64 17 -125 49 -125 138c0 95 76 160 206 160c127 0 212 -64 212 -186h-110c0 58 -46 86 -109 86c-64 0 -89 -26 -89 -55c0 -25 18 -40 57 -50l134 -33
c73 -18 126 -55 126 -140c0 -99 -85 -166 -215 -166zM189 -277l34 210h110v-50l-67 -160h-77z" />
    <glyph glyph-name="circumflex" unicode="&#x2c6;" horiz-adv-x="406" 
d="M60 590v35l99 105h88l99 -105v-35h-84l-60 67l-60 -67h-82z" />
    <glyph glyph-name="caron" unicode="&#x2c7;" horiz-adv-x="406" 
d="M159 590l-99 105v35h84l60 -77l60 77h82v-35l-99 -105h-88z" />
    <glyph glyph-name="breve" unicode="&#x2d8;" horiz-adv-x="406" 
d="M203 571c-95 0 -161 50 -161 137v12h94v-11c0 -35 22 -58 67 -58c46 0 68 23 68 58v11h93v-12c0 -87 -66 -137 -161 -137z" />
    <glyph glyph-name="dotaccent" unicode="&#x2d9;" horiz-adv-x="230" 
d="M60 595v110h110v-110h-110z" />
    <glyph glyph-name="ring" unicode="&#x2da;" horiz-adv-x="336" 
d="M168 627c23 0 43 18 43 41s-20 41 -43 41s-43 -18 -43 -41s20 -41 43 -41zM168 567c-59 0 -108 45 -108 101s49 101 108 101s108 -45 108 -101s-49 -101 -108 -101z" />
    <glyph glyph-name="ogonek" unicode="&#x2db;" horiz-adv-x="281" 
d="M153 -160c-64 0 -103 28 -103 73c0 24 15 54 51 87h64c-30 -24 -42 -43 -42 -61c0 -22 19 -32 52 -32h34v-67h-56z" />
    <glyph glyph-name="tilde" unicode="&#x2dc;" horiz-adv-x="484" 
d="M126 594l-66 40c30 58 65 98 109 98c29 0 53 -10 72 -23l16 -11c17 -12 33 -20 50 -20c14 0 27 11 51 49l66 -40c-30 -58 -65 -98 -109 -98c-25 0 -48 9 -64 19l-17 10c-21 12 -38 25 -57 25c-14 0 -27 -11 -51 -49z" />
    <glyph glyph-name="hungarumlaut" unicode="&#x2dd;" horiz-adv-x="473" 
d="M60 590l80 140h99v-38l-90 -102h-89zM234 590l80 140h99v-38l-90 -102h-89z" />
    <glyph glyph-name="brevecap" horiz-adv-x="714" 
d="M357 742c-95 0 -161 47 -161 134v12h94v-11c0 -35 22 -58 67 -58c46 0 68 23 68 58v11h93v-12c0 -87 -66 -134 -161 -134z" />
    <glyph glyph-name="uni03A9" unicode="&#x3a9;" horiz-adv-x="722" 
d="M70 0v105h97c-67 43 -81 102 -81 173v185c0 159 107 252 275 252s275 -93 275 -252v-185c0 -71 -14 -130 -81 -173h97v-105h-238v110c74 18 102 97 102 166v193c0 75 -51 136 -155 136s-155 -61 -155 -136v-193c0 -69 28 -148 102 -166v-110h-238z" />
    <glyph glyph-name="pi" unicode="&#x3c0;" horiz-adv-x="694" 
d="M130 0v424h-100v96h634v-96h-100v-424h-110v424h-214v-424h-110z" />
    <glyph glyph-name="uni0401" unicode="&#x401;" horiz-adv-x="590" 
d="M90 0v700h449v-105h-329v-194h282v-100h-282v-196h330v-105h-450zM149 768v118h118v-118h-118zM361 768v118h117v-118h-117z" />
    <glyph glyph-name="uni0402" unicode="&#x402;" horiz-adv-x="748" 
d="M194 0v595h-174v105h526v-105h-232v-174c49 9 92 12 133 12c169 0 256 -89 256 -217c0 -131 -72 -216 -208 -216h-66v105h50c70 0 102 43 102 109c0 71 -56 109 -143 109c-49 0 -81 -4 -124 -11v-312h-120z" />
    <glyph glyph-name="uni0403" unicode="&#x403;" horiz-adv-x="565" 
d="M90 0v700h435v-105h-315v-595h-120zM237 762l86 151h106v-41l-96 -110h-96z" />
    <glyph glyph-name="afii10053" unicode="&#x404;" horiz-adv-x="661" 
d="M347 -15c-174 0 -277 93 -277 252v226c0 159 103 252 277 252c128 0 254 -73 254 -242h-111c0 83 -70 132 -144 132c-103 0 -156 -51 -156 -134v-71h243v-100h-243v-71c0 -83 53 -134 156 -134c61 0 144 38 144 132h111c0 -156 -113 -242 -254 -242z" />
    <glyph glyph-name="afii10054" unicode="&#x405;" horiz-adv-x="642" 
d="M317 -15c-146 0 -272 78 -272 242h120c0 -104 90 -132 159 -132c86 0 131 39 131 91c0 55 -55 74 -162 114l-16 6c-132 50 -213 91 -213 205c0 122 95 204 252 204c148 0 260 -67 260 -236h-120c0 94 -68 126 -141 126c-80 0 -130 -36 -130 -85c0 -59 49 -76 151 -112
l14 -5c124 -44 232 -88 232 -211c0 -118 -89 -207 -265 -207z" />
    <glyph glyph-name="uni0406" unicode="&#x406;" horiz-adv-x="300" 
d="M90 0v700h120v-700h-120z" />
    <glyph glyph-name="uni0407" unicode="&#x407;" horiz-adv-x="300" 
d="M90 0v700h120v-700h-120zM-14 768v118h118v-118h-118zM198 768v118h117v-118h-117z" />
    <glyph glyph-name="uni0408" unicode="&#x408;" horiz-adv-x="580" 
d="M260 -15c-137 0 -240 58 -240 222v30h120v-30c0 -79 47 -112 120 -112c63 0 120 33 120 116v489h120v-493c0 -159 -107 -222 -240 -222z" />
    <glyph glyph-name="uni0409" unicode="&#x409;" horiz-adv-x="1011" 
d="M259 595v-269c0 -224 -78 -326 -218 -326h-23v110h19c86 0 112 63 112 251v339h437v-270h169c138 0 211 -85 211 -215s-73 -215 -211 -215h-289v595h-207zM586 105h167c60 0 91 43 91 110s-31 110 -91 110h-167v-220z" />
    <glyph glyph-name="uni040A" unicode="&#x40a;" horiz-adv-x="1045" 
d="M90 0v700h120v-270h290v270h120v-270h169c138 0 211 -85 211 -215s-73 -215 -211 -215h-289v325h-290v-325h-120zM620 105h167c60 0 91 43 91 110s-31 110 -91 110h-167v-220z" />
    <glyph glyph-name="uni040B" unicode="&#x40b;" horiz-adv-x="761" 
d="M194 0v595h-174v105h526v-105h-232v-174c41 8 86 12 130 12c126 0 257 -38 257 -210v-223h-120v209c0 73 -43 114 -146 114c-47 0 -83 -4 -121 -12v-311h-120z" />
    <glyph glyph-name="uni040C" unicode="&#x40c;" horiz-adv-x="627" 
d="M90 0v700h120v-297h89l183 297h111v-40l-189 -303l203 -317v-40h-118l-190 298h-89v-298h-120zM268 762l86 151h106v-41l-96 -110h-96z" />
    <glyph glyph-name="uni040E" unicode="&#x40e;" horiz-adv-x="579" 
d="M164 0v40l75 165l-229 455v40h119l172 -360l156 360h112v-40l-296 -660h-109zM291 742c-95 0 -161 47 -161 134v12h94v-11c0 -35 22 -58 67 -58c46 0 68 23 68 58v11h93v-12c0 -87 -66 -134 -161 -134z" />
    <glyph glyph-name="uni040F" unicode="&#x40f;" horiz-adv-x="704" 
d="M297 -140v140h-207v700h120v-595h284v595h120v-700h-207v-140h-110z" />
    <glyph glyph-name="uni0410" unicode="&#x410;" horiz-adv-x="658" 
d="M20 0v40l250 660h118l250 -660v-40h-118l-62 173h-264l-63 -173h-111zM230 273h192l-95 267z" />
    <glyph glyph-name="uni0411" unicode="&#x411;" horiz-adv-x="662" 
d="M90 0v700h480v-105h-360v-165h205c124 0 197 -84 197 -215s-73 -215 -197 -215h-325zM210 105h184c52 0 96 36 96 110s-44 110 -96 110h-184v-220z" />
    <glyph glyph-name="uni0412" unicode="&#x412;" horiz-adv-x="662" 
d="M90 0v700h295c123 0 200 -62 200 -188c0 -78 -31 -122 -84 -149c61 -22 111 -67 111 -169c0 -129 -76 -194 -200 -194h-322zM210 105h182c66 0 100 33 100 96c0 64 -33 99 -100 99h-182v-195zM210 400h155c66 0 99 35 99 98s-33 97 -99 97h-155v-195z" />
    <glyph glyph-name="uni0413" unicode="&#x413;" horiz-adv-x="565" 
d="M90 0v700h435v-105h-315v-595h-120z" />
    <glyph glyph-name="uni0414" unicode="&#x414;" horiz-adv-x="707" 
d="M25 -140v245h54c40 52 80 118 80 286v309h431v-595h82v-245h-110v140h-427v-140h-110zM208 105h262v490h-201v-204c0 -163 -31 -229 -61 -286z" />
    <glyph glyph-name="uni0415" unicode="&#x415;" horiz-adv-x="590" 
d="M90 0v700h449v-105h-329v-194h282v-100h-282v-196h330v-105h-450z" />
    <glyph glyph-name="uni0416" unicode="&#x416;" horiz-adv-x="927" 
d="M404 0v298h-96l-156 -298h-121v40l173 316l-159 304v40h110l156 -297h93v297h120v-297h93l156 297h110v-40l-159 -304l173 -316v-40h-121l-156 298h-96v-298h-120z" />
    <glyph glyph-name="uni0417" unicode="&#x417;" horiz-adv-x="624" 
d="M321 -15c-145 0 -271 73 -271 242h120c0 -94 73 -132 155 -132s128 37 128 106c0 66 -47 101 -125 101h-93v100h93c68 0 109 34 109 96c0 60 -41 107 -120 107c-70 0 -130 -38 -130 -132h-120c0 169 114 242 250 242c155 0 241 -85 241 -204c0 -77 -42 -126 -95 -155
c61 -22 111 -71 111 -155c0 -130 -92 -216 -253 -216z" />
    <glyph glyph-name="uni0418" unicode="&#x418;" horiz-adv-x="714" 
d="M90 0v700h120v-485l304 485h110v-700h-120v485l-304 -485h-110z" />
    <glyph glyph-name="uni0419" unicode="&#x419;" horiz-adv-x="714" 
d="M90 0v700h120v-485l304 485h110v-700h-120v485l-304 -485h-110zM357 742c-95 0 -161 47 -161 134v12h94v-11c0 -35 22 -58 67 -58c46 0 68 23 68 58v11h93v-12c0 -87 -66 -134 -161 -134z" />
    <glyph glyph-name="uni041A" unicode="&#x41a;" horiz-adv-x="627" 
d="M90 0v700h120v-297h89l183 297h111v-40l-189 -303l203 -317v-40h-118l-190 298h-89v-298h-120z" />
    <glyph glyph-name="uni041B" unicode="&#x41b;" horiz-adv-x="668" 
d="M10 0v110h19c86 0 112 63 112 251v339h437v-700h-120v595h-207v-269c0 -224 -78 -326 -218 -326h-23z" />
    <glyph glyph-name="uni041C" unicode="&#x41c;" horiz-adv-x="810" 
d="M444 226h-77l-161 261v-487h-116v700h116l201 -327l201 327h112v-700h-116v487z" />
    <glyph glyph-name="uni041D" unicode="&#x41d;" horiz-adv-x="710" 
d="M90 0v700h120v-297h290v297h120v-700h-120v298h-290v-298h-120z" />
    <glyph glyph-name="uni041E" unicode="&#x41e;" horiz-adv-x="690" 
d="M345 95c104 0 155 61 155 136v238c0 75 -51 136 -155 136s-155 -61 -155 -136v-238c0 -75 51 -136 155 -136zM345 -15c-168 0 -275 93 -275 252v226c0 159 107 252 275 252s275 -93 275 -252v-226c0 -159 -107 -252 -275 -252z" />
    <glyph glyph-name="uni041F" unicode="&#x41f;" horiz-adv-x="704" 
d="M90 0v700h524v-700h-120v595h-284v-595h-120z" />
    <glyph glyph-name="uni0420" unicode="&#x420;" horiz-adv-x="635" 
d="M90 0v700h303c124 0 197 -84 197 -215s-73 -215 -197 -215h-183v-270h-120zM210 375h162c52 0 96 36 96 110s-44 110 -96 110h-162v-220z" />
    <glyph glyph-name="uni0421" unicode="&#x421;" horiz-adv-x="660" 
d="M342 -15c-174 0 -272 93 -272 252v226c0 159 98 252 272 252c137 0 258 -73 258 -242v-10h-120v10c0 94 -78 132 -139 132c-103 0 -151 -51 -151 -134v-242c0 -83 48 -134 151 -134c61 0 139 38 139 132v10h120v-10c0 -169 -121 -242 -258 -242z" />
    <glyph glyph-name="uni0422" unicode="&#x422;" horiz-adv-x="566" 
d="M223 0v595h-203v105h526v-105h-203v-595h-120z" />
    <glyph glyph-name="uni0423" unicode="&#x423;" horiz-adv-x="579" 
d="M164 0v40l75 165l-229 455v40h119l172 -360l156 360h112v-40l-296 -660h-109z" />
    <glyph glyph-name="uni0424" unicode="&#x424;" horiz-adv-x="866" 
d="M373 -12v92h-45c-148 0 -278 85 -278 244v72c0 159 130 244 278 244h45v80h120v-80h45c148 0 278 -85 278 -244v-72c0 -159 -130 -244 -278 -244h-45v-92h-120zM323 185h50v350h-50c-94 0 -153 -63 -153 -141v-68c0 -78 59 -141 153 -141zM493 185h50
c94 0 153 63 153 141v68c0 78 -59 141 -153 141h-50v-350z" />
    <glyph glyph-name="uni0425" unicode="&#x425;" horiz-adv-x="648" 
d="M30 0v40l219 322l-202 298v40h122l155 -244l162 244h115v-40l-204 -297l221 -323v-40h-122l-175 266l-176 -266h-115z" />
    <glyph glyph-name="uni0426" unicode="&#x426;" horiz-adv-x="725" 
d="M580 -140v140h-490v700h120v-595h278v595h120v-595h82v-245h-110z" />
    <glyph glyph-name="uni0427" unicode="&#x427;" horiz-adv-x="657" 
d="M447 0v268c-41 -9 -86 -14 -130 -14c-126 0 -257 38 -257 210v236h120v-222c0 -73 43 -114 146 -114c47 0 83 4 121 14v322h120v-700h-120z" />
    <glyph glyph-name="uni0428" unicode="&#x428;" horiz-adv-x="994" 
d="M90 0v700h120v-595h227v595h120v-595h227v595h120v-700h-814z" />
    <glyph glyph-name="uni0429" unicode="&#x429;" horiz-adv-x="1021" 
d="M876 -140v140h-786v700h120v-595h227v595h120v-595h227v595h120v-595h82v-245h-110z" />
    <glyph glyph-name="uni042A" unicode="&#x42a;" horiz-adv-x="715" 
d="M170 0v595h-160v105h280v-270h183c124 0 197 -84 197 -215s-73 -215 -197 -215h-303zM452 325h-162v-220h162c52 0 96 36 96 110s-44 110 -96 110z" />
    <glyph glyph-name="uni042B" unicode="&#x42b;" horiz-adv-x="888" 
d="M90 0v700h120v-270h183c124 0 197 -84 197 -215s-73 -215 -197 -215h-303zM372 325h-162v-220h162c52 0 96 36 96 110s-44 110 -96 110zM678 0v700h120v-700h-120z" />
    <glyph glyph-name="uni042C" unicode="&#x42c;" horiz-adv-x="635" 
d="M90 0v700h120v-270h183c124 0 197 -84 197 -215s-73 -215 -197 -215h-303zM372 325h-162v-220h162c52 0 96 36 96 110s-44 110 -96 110z" />
    <glyph glyph-name="uni042D" unicode="&#x42d;" horiz-adv-x="661" 
d="M314 -15c-141 0 -254 86 -254 242h111c0 -94 83 -132 144 -132c103 0 156 51 156 134v71h-243v100h243v71c0 83 -53 134 -156 134c-74 0 -144 -49 -144 -132h-111c0 169 126 242 254 242c174 0 277 -93 277 -252v-226c0 -159 -103 -252 -277 -252z" />
    <glyph glyph-name="uni042E" unicode="&#x42e;" horiz-adv-x="942" 
d="M342 402v-105h-132v-297h-120v700h120v-298h132zM607 95c98 0 145 57 145 127v256c0 70 -47 127 -145 127c-97 0 -145 -57 -145 -127v-256c0 -70 48 -127 145 -127zM607 -15c-162 0 -265 90 -265 243v244c0 153 103 243 265 243s265 -90 265 -243v-244
c0 -153 -103 -243 -265 -243z" />
    <glyph glyph-name="uni042F" unicode="&#x42f;" horiz-adv-x="646" 
d="M42 0v40c143 232 139 232 139 232c-77 29 -125 105 -125 208c0 137 73 220 211 220h289v-700h-120v260h-132l-152 -260h-110zM291 362h145v233h-145c-71 0 -113 -36 -113 -118s42 -115 113 -115z" />
    <glyph glyph-name="uni0430" unicode="&#x430;" horiz-adv-x="559" 
d="M219 -12c-94 0 -174 51 -174 153c0 107 71 167 215 167h114v41c0 51 -31 83 -98 83s-98 -32 -98 -74h-107c0 100 65 174 205 174s208 -74 208 -176v-356h-64l-42 58c-30 -36 -85 -70 -159 -70zM241 88c57 0 101 25 133 59v77h-114c-81 0 -105 -35 -105 -71
c0 -44 34 -65 86 -65z" />
    <glyph glyph-name="uni0431" unicode="&#x431;" horiz-adv-x="566" 
d="M287 -12c-135 0 -222 71 -222 191v184c0 139 41 223 150 255l124 37c36 11 38 34 38 45v5h110v-5c0 -99 -45 -120 -129 -144l-96 -27c-65 -18 -96 -50 -96 -130v-16c27 38 79 81 155 81c105 0 188 -60 188 -191v-92c0 -118 -87 -193 -222 -193zM287 88
c75 0 112 44 112 98v79c0 62 -45 99 -106 99c-53 0 -90 -29 -118 -61v-117c0 -54 37 -98 112 -98z" />
    <glyph glyph-name="uni0432" unicode="&#x432;" horiz-adv-x="566" 
d="M80 0v520h237c106 0 174 -41 174 -138c0 -55 -23 -92 -58 -115c51 -20 81 -57 81 -117c0 -117 -74 -150 -187 -150h-247zM190 303h123c45 0 62 28 62 61c0 35 -17 60 -62 60h-123v-121zM190 96h144c46 0 63 28 63 62c0 36 -17 61 -63 61h-144v-123z" />
    <glyph glyph-name="uni0433" unicode="&#x433;" horiz-adv-x="469" 
d="M80 0v520h349v-96h-239v-424h-110z" />
    <glyph glyph-name="uni0434" unicode="&#x434;" horiz-adv-x="637" 
d="M28 -126v222h48c38 36 56 104 56 199v225h393v-424h77v-222h-108v126h-358v-126h-108zM196 96h219v328h-179v-146c0 -69 -16 -135 -40 -182z" />
    <glyph glyph-name="uni0435" unicode="&#x435;" horiz-adv-x="550" 
d="M279 -12c-135 0 -222 71 -222 191v160c0 118 87 193 222 193c130 0 214 -71 214 -191v-117h-326v-43c0 -54 37 -93 112 -93c61 0 94 27 103 69h110c-10 -105 -86 -169 -213 -169zM167 308h216v33c0 54 -37 91 -108 91s-108 -37 -108 -91v-33z" />
    <glyph glyph-name="uni0436" unicode="&#x436;" horiz-adv-x="790" 
d="M340 0v212h-71l-132 -212h-97v52l138 214l-129 202v52h89l134 -212h68v212h110v-212h68l134 212h89v-52l-129 -202l138 -214v-52h-97l-132 212h-71v-212h-110z" />
    <glyph glyph-name="uni0437" unicode="&#x437;" horiz-adv-x="544" 
d="M278 -12c-139 0 -226 75 -226 193v7h107v-9c0 -54 40 -91 116 -91c63 0 97 27 97 68c0 34 -25 63 -72 63h-78v88h77c41 0 62 29 62 61c0 40 -33 64 -92 64c-70 0 -101 -37 -101 -91v-6h-107v6c0 120 79 191 215 191c123 0 202 -60 202 -153c0 -52 -27 -90 -64 -111
c47 -19 75 -58 75 -115c0 -104 -77 -165 -211 -165z" />
    <glyph glyph-name="uni0438" unicode="&#x438;" horiz-adv-x="610" 
d="M80 0v520h110v-350l230 350h110v-520h-110v350l-230 -350h-110z" />
    <glyph glyph-name="uni0439" unicode="&#x439;" horiz-adv-x="610" 
d="M80 0v520h110v-350l230 350h110v-520h-110v350l-230 -350h-110zM305 571c-95 0 -161 50 -161 137v12h94v-11c0 -35 22 -58 67 -58c46 0 68 23 68 58v11h93v-12c0 -87 -66 -137 -161 -137z" />
    <glyph glyph-name="uni043A" unicode="&#x43a;" horiz-adv-x="550" 
d="M80 0v520h110v-212h69l151 212h91v-52l-144 -202l153 -214v-52h-99l-153 212h-68v-212h-110z" />
    <glyph glyph-name="uni043B" unicode="&#x43b;" horiz-adv-x="599" 
d="M30 0v100h11c65 0 88 46 88 129v291h390v-520h-110v424h-176v-194c0 -158 -80 -230 -176 -230h-27z" />
    <glyph glyph-name="uni043C" unicode="&#x43c;" horiz-adv-x="694" 
d="M614 520v-520h-110v350l-131 -201h-52l-131 201v-350h-110v520h110l159 -239l155 239h110z" />
    <glyph glyph-name="uni043D" unicode="&#x43d;" horiz-adv-x="599" 
d="M80 0v520h110v-212h219v212h110v-520h-110v212h-219v-212h-110z" />
    <glyph glyph-name="uni043E" unicode="&#x43e;" horiz-adv-x="558" 
d="M279 88c75 0 112 44 112 98v148c0 54 -37 98 -112 98s-112 -44 -112 -98v-148c0 -54 37 -98 112 -98zM279 -12c-148 0 -222 84 -222 193v158c0 109 74 193 222 193s222 -84 222 -193v-158c0 -109 -74 -193 -222 -193z" />
    <glyph glyph-name="uni043F" unicode="&#x43f;" horiz-adv-x="594" 
d="M80 0v520h434v-520h-110v424h-214v-424h-110z" />
    <glyph glyph-name="uni0440" unicode="&#x440;" horiz-adv-x="589" 
d="M80 -160v680h64l41 -58c30 36 81 70 155 70c99 0 184 -60 184 -191v-162c0 -131 -84 -191 -188 -191c-72 0 -121 32 -146 63v-211h-110zM316 88c53 0 98 37 98 99v146c0 62 -45 99 -97 99c-56 0 -97 -35 -127 -67v-210c30 -32 70 -67 126 -67z" />
    <glyph glyph-name="uni0441" unicode="&#x441;" horiz-adv-x="539" 
d="M274 -12c-133 0 -217 75 -217 193v158c0 118 84 193 217 193c129 0 212 -71 212 -191v-6h-110v6c0 54 -36 91 -102 91c-73 0 -107 -37 -107 -91v-162c0 -54 34 -91 107 -91c66 0 102 37 102 91v9h110v-7c0 -118 -86 -193 -212 -193z" />
    <glyph glyph-name="uni0442" unicode="&#x442;" horiz-adv-x="488" 
d="M189 0v424h-169v96h448v-96h-169v-424h-110z" />
    <glyph glyph-name="uni0443" unicode="&#x443;" horiz-adv-x="511" 
d="M153 -160v40l52 120l-185 468v52h102l137 -370l131 370h101v-52l-248 -628h-90z" />
    <glyph glyph-name="uni0444" unicode="&#x444;" horiz-adv-x="808" 
d="M349 -160v204c-24 -27 -66 -56 -128 -56c-87 0 -156 61 -156 174v196c0 113 69 174 156 174c62 0 104 -29 128 -56v229h110v-229c24 27 66 56 128 56c87 0 156 -61 156 -174v-196c0 -113 -69 -174 -156 -174c-62 0 -104 29 -128 56v-204h-110zM257 88c42 0 70 19 92 40
v264c-22 21 -50 40 -92 40c-47 0 -82 -36 -82 -89v-166c0 -53 35 -89 82 -89zM551 88c47 0 82 36 82 89v166c0 53 -35 89 -82 89c-42 0 -70 -19 -92 -40v-264c22 -21 50 -40 92 -40z" />
    <glyph glyph-name="uni0445" unicode="&#x445;" horiz-adv-x="525" 
d="M40 0v52l153 208l-151 208v52h99l121 -176l122 176h93v-52l-148 -204l156 -212v-52h-98l-127 185l-126 -185h-94z" />
    <glyph glyph-name="uni0446" unicode="&#x446;" horiz-adv-x="621" 
d="M478 -126v126h-398v520h110v-424h209v424h110v-424h77v-222h-108z" />
    <glyph glyph-name="uni0447" unicode="&#x447;" horiz-adv-x="564" 
d="M374 0v186c-30 -7 -70 -14 -116 -14c-125 0 -208 50 -208 171v177h110v-166c0 -60 46 -82 116 -82c42 0 73 6 98 12v236h110v-520h-110z" />
    <glyph glyph-name="uni0448" unicode="&#x448;" horiz-adv-x="806" 
d="M80 0v520h110v-424h158v424h110v-424h158v424h110v-520h-646z" />
    <glyph glyph-name="uni0449" unicode="&#x449;" horiz-adv-x="838" 
d="M695 -126v126h-615v520h110v-424h158v424h110v-424h158v424h110v-424h77v-222h-108z" />
    <glyph glyph-name="uni044A" unicode="&#x44a;" horiz-adv-x="591" 
d="M249 352h140c113 0 172 -70 172 -176s-59 -176 -172 -176h-250v424h-139v96h249v-168zM249 96h132c38 0 70 27 70 80s-32 80 -69 80h-133v-160z" />
    <glyph glyph-name="uni044B" unicode="&#x44b;" horiz-adv-x="749" 
d="M559 0v520h110v-520h-110zM190 352h130c113 0 172 -70 172 -176s-59 -176 -172 -176h-240v520h110v-168zM190 96h122c38 0 70 27 70 80s-32 80 -69 80h-123v-160z" />
    <glyph glyph-name="uni044C" unicode="&#x44c;" horiz-adv-x="532" 
d="M190 352h140c113 0 172 -70 172 -176s-59 -176 -172 -176h-250v520h110v-168zM190 96h132c38 0 70 27 70 80s-32 80 -69 80h-133v-160z" />
    <glyph glyph-name="uni044D" unicode="&#x44d;" horiz-adv-x="546" 
d="M270 -12c-132 0 -217 75 -217 193v7h110v-9c0 -54 36 -91 107 -91s109 37 109 91v36h-157v88h157v38c0 54 -36 91 -109 91c-69 0 -107 -37 -107 -91v-6h-110v6c0 120 85 191 218 191s218 -75 218 -193v-158c0 -118 -86 -193 -219 -193z" />
    <glyph glyph-name="uni044E" unicode="&#x44e;" horiz-adv-x="779" 
d="M505 -12c-145 0 -217 82 -217 189v35h-98v-212h-110v520h110v-212h98v35c0 107 72 189 217 189s217 -82 217 -189v-166c0 -107 -72 -189 -217 -189zM505 88c72 0 107 42 107 94v156c0 52 -35 94 -107 94s-107 -42 -107 -94v-156c0 -52 35 -94 107 -94z" />
    <glyph glyph-name="uni044F" unicode="&#x44f;" horiz-adv-x="552" 
d="M50 0v52l102 146c-57 16 -102 68 -102 157c0 108 66 165 152 165h270v-520h-110v192h-86l-124 -192h-102zM234 280h128v144h-128c-54 0 -74 -31 -74 -72s20 -72 74 -72z" />
    <glyph glyph-name="uni0451" unicode="&#x451;" horiz-adv-x="550" 
d="M279 -12c-135 0 -222 71 -222 191v160c0 118 87 193 222 193c130 0 214 -71 214 -191v-117h-326v-43c0 -54 37 -93 112 -93c61 0 94 27 103 69h110c-10 -105 -86 -169 -213 -169zM167 308h216v33c0 54 -37 91 -108 91s-108 -37 -108 -91v-33zM122 595v110h110v-110h-110z
M319 595v110h110v-110h-110z" />
    <glyph glyph-name="uni0452" unicode="&#x452;" horiz-adv-x="596" 
d="M344 -172c-12 0 -24 1 -37 3v96h16c46 0 98 23 98 116v213c0 74 -43 107 -95 107c-58 0 -103 -42 -124 -67v-296h-110v529h-72v86h72v90h110v-90h216v-86h-216v-129c29 32 77 63 149 63c103 0 180 -71 180 -197v-240c0 -94 -44 -198 -187 -198z" />
    <glyph glyph-name="uni0453" unicode="&#x453;" horiz-adv-x="469" 
d="M80 0v520h349v-96h-239v-424h-110zM188 590l80 140h99v-38l-90 -102h-89z" />
    <glyph glyph-name="uni0454" unicode="&#x454;" horiz-adv-x="546" 
d="M276 -12c-133 0 -219 75 -219 193v158c0 118 85 193 218 193s218 -71 218 -191v-6h-110v6c0 54 -38 91 -107 91c-73 0 -109 -37 -109 -91v-38h157v-88h-157v-36c0 -54 38 -91 109 -91s107 37 107 91v9h110v-7c0 -118 -85 -193 -217 -193z" />
    <glyph glyph-name="uni0455" unicode="&#x455;" horiz-adv-x="553" 
d="M278 -12c-138 0 -228 69 -228 191h110c0 -59 52 -91 127 -91c59 0 96 23 96 57c0 25 -14 43 -57 54l-135 35c-64 17 -125 49 -125 138c0 95 76 160 206 160c127 0 212 -64 212 -186h-110c0 58 -46 86 -109 86c-64 0 -89 -26 -89 -55c0 -25 18 -40 57 -50l134 -33
c73 -18 126 -55 126 -140c0 -99 -85 -166 -215 -166z" />
    <glyph glyph-name="uni0456" unicode="&#x456;" horiz-adv-x="270" 
d="M80 0v520h110v-520h-110zM80 595v110h110v-110h-110z" />
    <glyph glyph-name="uni0457" unicode="&#x457;" horiz-adv-x="270" 
d="M-18 595v110h110v-110h-110zM179 595v110h110v-110h-110zM80 0v520h110v-520h-110z" />
    <glyph glyph-name="uni0458" unicode="&#x458;" horiz-adv-x="271" 
d="M81 520h110v-505c0 -89 -41 -187 -168 -187c-13 0 -27 1 -36 2v96h23c43 0 71 21 71 89v505zM81 595v110h110v-110h-110z" />
    <glyph glyph-name="uni0459" unicode="&#x459;" horiz-adv-x="861" 
d="M30 0v100h11c65 0 88 46 88 129v291h390v-168h160c86 0 152 -59 152 -176s-66 -176 -152 -176h-270v424h-176v-194c0 -158 -80 -230 -176 -230h-27zM519 96h132c38 0 70 27 70 80s-32 80 -69 80h-133v-160z" />
    <glyph glyph-name="uni045A" unicode="&#x45a;" horiz-adv-x="861" 
d="M80 0v520h110v-192h219v192h110v-168h160c86 0 152 -59 152 -176s-66 -176 -152 -176h-270v232h-219v-232h-110zM519 96h132c38 0 70 27 70 80s-32 80 -69 80h-133v-160z" />
    <glyph glyph-name="uni045B" unicode="&#x45b;" horiz-adv-x="596" 
d="M92 0v529h-72v86h72v90h110v-90h216v-86h-216v-129c29 32 77 63 149 63c103 0 180 -71 180 -197v-266h-110v256c0 74 -43 107 -95 107c-58 0 -103 -42 -124 -67v-296h-110z" />
    <glyph glyph-name="uni045C" unicode="&#x45c;" horiz-adv-x="550" 
d="M80 0v520h110v-212h69l151 212h91v-52l-144 -202l153 -214v-52h-99l-153 212h-68v-212h-110zM220 590l80 140h99v-38l-90 -102h-89z" />
    <glyph glyph-name="uni045E" unicode="&#x45e;" horiz-adv-x="511" 
d="M153 -160v40l52 120l-185 468v52h102l137 -370l131 370h101v-52l-248 -628h-90zM261 571c-95 0 -161 50 -161 137v12h94v-11c0 -35 22 -58 67 -58c46 0 68 23 68 58v11h93v-12c0 -87 -66 -137 -161 -137z" />
    <glyph glyph-name="uni045F" unicode="&#x45f;" horiz-adv-x="594" 
d="M243 -126v126h-163v520h110v-424h214v424h110v-520h-163v-126h-108z" />
    <glyph glyph-name="uni0490" unicode="&#x490;" horiz-adv-x="555" 
d="M90 0v700h315v130h110v-235h-305v-595h-120z" />
    <glyph glyph-name="uni0491" unicode="&#x491;" horiz-adv-x="464" 
d="M80 0v520h236v126h108v-222h-234v-424h-110z" />
    <glyph glyph-name="uni1E61" unicode="&#x1e61;" horiz-adv-x="553" 
d="M278 -12c-138 0 -228 69 -228 191h110c0 -59 52 -91 127 -91c59 0 96 23 96 57c0 25 -14 43 -57 54l-135 35c-64 17 -125 49 -125 138c0 95 76 160 206 160c127 0 212 -64 212 -186h-110c0 58 -46 86 -109 86c-64 0 -89 -26 -89 -55c0 -25 18 -40 57 -50l134 -33
c73 -18 126 -55 126 -140c0 -99 -85 -166 -215 -166zM215 595v110h110v-110h-110z" />
    <glyph glyph-name="uni1E63" unicode="&#x1e63;" horiz-adv-x="553" 
d="M278 -12c-138 0 -228 69 -228 191h110c0 -59 52 -91 127 -91c59 0 96 23 96 57c0 25 -14 43 -57 54l-135 35c-64 17 -125 49 -125 138c0 95 76 160 206 160c127 0 212 -64 212 -186h-110c0 58 -46 86 -109 86c-64 0 -89 -26 -89 -55c0 -25 18 -40 57 -50l134 -33
c73 -18 126 -55 126 -140c0 -99 -85 -166 -215 -166zM215 -182v110h110v-110h-110z" />
    <glyph glyph-name="endash" unicode="&#x2013;" horiz-adv-x="599" 
d="M60 263v100h479v-100h-479z" />
    <glyph glyph-name="emdash" unicode="&#x2014;" horiz-adv-x="846" 
d="M60 263v100h726v-100h-726z" />
    <glyph glyph-name="quoteleft" unicode="&#x2018;" horiz-adv-x="266" 
d="M230 705l-47 -249h-122v52l82 197h87z" />
    <glyph glyph-name="quoteright" unicode="&#x2019;" horiz-adv-x="266" 
d="M36 456l47 249h122v-52l-82 -197h-87z" />
    <glyph glyph-name="quotesinglbase" unicode="&#x201a;" horiz-adv-x="260" 
d="M36 -113l47 249h122v-52l-82 -197h-87z" />
    <glyph glyph-name="quotedblleft" unicode="&#x201c;" horiz-adv-x="447" 
d="M230 705l-47 -249h-122v52l82 197h87zM411 705l-47 -249h-122v52l82 197h87z" />
    <glyph glyph-name="quotedblright" unicode="&#x201d;" horiz-adv-x="447" 
d="M36 456l47 249h122v-52l-82 -197h-87zM217 456l47 249h122v-52l-82 -197h-87z" />
    <glyph glyph-name="quotedblbase" unicode="&#x201e;" horiz-adv-x="447" 
d="M217 -113l47 249h122v-52l-82 -197h-87zM36 -113l47 249h122v-52l-82 -197h-87z" />
    <glyph glyph-name="dagger" unicode="&#x2020;" horiz-adv-x="542" 
d="M216 -160v584h-186v96h186v185h110v-185h186v-96h-186v-584h-110z" />
    <glyph glyph-name="daggerdbl" unicode="&#x2021;" horiz-adv-x="542" 
d="M216 -160v295h-186v96h186v193h-186v96h186v185h110v-185h186v-96h-186v-193h186v-96h-186v-295h-110z" />
    <glyph glyph-name="bullet" unicode="&#x2022;" horiz-adv-x="430" 
d="M215 164c-96 0 -155 53 -155 152v8c0 99 59 152 155 152s155 -53 155 -152v-8c0 -98 -59 -152 -155 -152z" />
    <glyph glyph-name="ellipsis" unicode="&#x2026;" horiz-adv-x="675" 
d="M70 0v136h135v-136h-135zM270 0v136h135v-136h-135zM470 0v136h135v-136h-135z" />
    <glyph glyph-name="perthousand" unicode="&#x2030;" horiz-adv-x="1145" 
d="M195 434c38 0 58 26 58 58v86c0 32 -20 58 -58 58s-58 -26 -58 -58v-86c0 -32 20 -58 58 -58zM195 355c-96 0 -155 53 -155 152v56c0 99 59 152 155 152s155 -53 155 -152v-56c0 -99 -59 -152 -155 -152zM597 64c38 0 58 26 58 58v86c0 32 -20 58 -58 58s-58 -26 -58 -58
v-86c0 -32 20 -58 58 -58zM597 -15c-96 0 -155 53 -155 152v56c0 99 59 152 155 152s155 -53 155 -152v-56c0 -99 -59 -152 -155 -152zM950 64c38 0 58 26 58 58v86c0 32 -20 58 -58 58s-58 -26 -58 -58v-86c0 -32 20 -58 58 -58zM950 -15c-96 0 -155 53 -155 152v56
c0 99 59 152 155 152s155 -53 155 -152v-56c0 -99 -59 -152 -155 -152zM150 0v40l405 660h85v-40l-405 -660h-85z" />
    <glyph glyph-name="guilsinglleft" unicode="&#x2039;" horiz-adv-x="335" 
d="M180 64l-140 211l140 210h95v-32l-119 -178l119 -179v-32h-95z" />
    <glyph glyph-name="guilsinglright" unicode="&#x203a;" horiz-adv-x="335" 
d="M295 275l-140 -211h-95v32l119 179l-119 178v32h95z" />
    <glyph glyph-name="fraction" unicode="&#x2044;" horiz-adv-x="390" 
d="M-50 0v40l405 660h85v-40l-405 -660h-85z" />
    <glyph glyph-name="fourinferior" unicode="&#x2084;" horiz-adv-x="389" 
d="M161 700h70v-49l-95 -159h76v65h103v-65h44v-76h-44v-58h-103v58h-182v68z" />
    <glyph glyph-name="Euro" unicode="&#x20ac;" horiz-adv-x="674" 
d="M369 -15c-142 0 -245 73 -255 228h-84v96h84v82h-84v96h84c9 144 101 228 255 228c130 0 245 -73 245 -242v-10h-104v10c0 101 -68 142 -142 142c-78 0 -138 -39 -144 -128h181v-96h-181v-82h181v-96h-181c6 -80 54 -128 144 -128c82 0 142 41 142 142v10h104v-10
c0 -169 -105 -242 -245 -242z" />
    <glyph glyph-name="uni20B4" unicode="&#x20b4;" horiz-adv-x="683" 
d="M343 -15c-148 0 -237 79 -237 182c0 29 3 51 9 70h-75v87h603v-87h-417c-6 -16 -10 -34 -10 -55c0 -61 44 -97 127 -97c77 0 133 42 133 106h110c0 -129 -105 -206 -243 -206zM40 376v87h417c5 13 9 28 9 46c0 62 -44 106 -127 106c-77 0 -133 -42 -133 -106h-110
c0 129 105 206 243 206c148 0 237 -79 237 -195c0 -21 -3 -40 -8 -57h75v-87h-603z" />
    <glyph glyph-name="uni20BD" unicode="&#x20bd;" horiz-adv-x="638" 
d="M115 0v106h-85v96h85v82h-85v96h85v320h281c124 0 197 -81 197 -208s-73 -208 -197 -208h-171v-82h180v-96h-180v-106h-110zM225 380h158c54 0 100 36 100 112s-46 112 -100 112h-158v-224z" />
    <glyph glyph-name="uni2116" unicode="&#x2116;" horiz-adv-x="997" 
d="M90 0v700h101l273 -484v484h110v-700h-101l-273 484v-484h-110zM802 434c38 0 58 26 58 58v86c0 32 -20 58 -58 58s-58 -26 -58 -58v-86c0 -32 20 -58 58 -58zM802 355c-96 0 -155 53 -155 152v56c0 99 59 152 155 152s155 -53 155 -152v-56c0 -99 -59 -152 -155 -152z
M647 203v84h310v-84h-310z" />
    <glyph glyph-name="trademark" unicode="&#x2122;" horiz-adv-x="687" 
d="M313 377v323h62l93 -145l95 145h61v-323h-64v219l-72 -114h-41l-70 112v-217h-64zM104 377v266h-94v57h252v-57h-94v-266h-64z" />
    <glyph glyph-name="Omega" unicode="&#x2126;" horiz-adv-x="722" 
d="M70 0v105h97c-67 43 -81 102 -81 173v185c0 159 107 252 275 252s275 -93 275 -252v-185c0 -71 -14 -130 -81 -173h97v-105h-238v110c74 18 102 97 102 166v193c0 75 -51 136 -155 136s-155 -61 -155 -136v-193c0 -69 28 -148 102 -166v-110h-238z" />
    <glyph glyph-name="partialdiff" unicode="&#x2202;" horiz-adv-x="564" 
d="M251 -12c-124 0 -206 64 -206 166c0 17 2 51 9 121c13 131 100 191 205 191c76 0 124 -43 148 -81c1 21 2 49 2 56c-2 125 -71 168 -166 168c-49 0 -83 -7 -109 -13l7 97c33 9 81 14 130 14c154 0 238 -102 238 -251c0 -46 -8 -155 -19 -277
c-11 -120 -104 -191 -239 -191zM260 88c75 0 115 44 120 98l10 119c-25 32 -59 61 -112 61c-61 0 -108 -37 -115 -99c-5 -43 -7 -78 -7 -92c0 -49 34 -87 104 -87z" />
    <glyph glyph-name="Delta" unicode="&#x2206;" horiz-adv-x="658" 
d="M20 0v41l250 659h118l250 -659v-41h-618zM169 105h313l-155 435z" />
    <glyph glyph-name="product" unicode="&#x220f;" horiz-adv-x="679" 
d="M90 -75v775h499v-775h-110v675h-279v-675h-110z" />
    <glyph glyph-name="summation" unicode="&#x2211;" horiz-adv-x="566" 
d="M50 -75v100l162 289l-162 286v100h453v-100h-330l162 -286l-162 -289h343v-100h-466z" />
    <glyph glyph-name="minus" unicode="&#x2212;" horiz-adv-x="560" 
d="M60 267v92h440v-92h-440z" />
    <glyph glyph-name="radical" unicode="&#x221a;" horiz-adv-x="556" 
d="M245 -75l-154 408h-90v100h168l119 -340l161 704h100v-39l-193 -833h-111z" />
    <glyph glyph-name="infinity" unicode="&#x221e;" horiz-adv-x="895" 
d="M253 128c-120 0 -193 87 -193 193c0 107 73 193 193 193c71 0 131 -37 188 -103l7 -8l7 8c57 65 113 103 187 103c120 0 193 -86 193 -193c0 -106 -73 -192 -193 -192c-73 0 -131 37 -188 104l-6 7l-5 -6c-57 -68 -117 -106 -190 -106zM256 230c47 0 75 40 121 86l3 3
l-3 3c-46 46 -74 85 -121 85c-48 0 -86 -35 -86 -88c0 -54 38 -89 86 -89zM640 230c48 0 86 35 86 89c0 53 -38 88 -86 88c-47 0 -75 -39 -121 -85l-3 -3l3 -3c46 -46 74 -86 121 -86z" />
    <glyph glyph-name="integral" unicode="&#x222b;" horiz-adv-x="317" 
d="M0 -160v96h33c47 0 71 25 71 74v528c0 101 65 162 165 162h48v-96h-33c-47 0 -72 -25 -72 -74v-528c0 -101 -64 -162 -164 -162h-48z" />
    <glyph glyph-name="approxequal" unicode="&#x2248;" horiz-adv-x="531" 
d="M135 162l-75 45c34 66 73 110 123 110c32 0 58 -11 79 -25l18 -12c19 -13 36 -24 53 -24c21 0 36 13 63 56l75 -45c-34 -65 -73 -110 -123 -110c-25 0 -48 7 -66 18l-22 13c-24 14 -43 30 -62 30c-21 0 -36 -13 -63 -56zM135 372l-75 45c34 66 73 110 123 110
c32 0 58 -11 79 -25l18 -12c19 -13 36 -24 53 -24c21 0 36 13 63 56l75 -45c-34 -65 -73 -110 -123 -110c-25 0 -48 7 -66 18l-22 13c-24 14 -43 30 -62 30c-21 0 -36 -13 -63 -56z" />
    <glyph glyph-name="notequal" unicode="&#x2260;" horiz-adv-x="560" 
d="M60 0v40l72 119h-72v93h129l74 123h-203v92h259l91 149h90v-40l-66 -109h66v-92h-122l-75 -123h197v-93h-254l-96 -159h-90z" />
    <glyph glyph-name="lessequal" unicode="&#x2264;" horiz-adv-x="520" 
d="M407 172l-347 162v90l347 162h53v-76l-280 -131l280 -131v-76h-53zM60 0v92h400v-92h-400z" />
    <glyph glyph-name="greaterequal" unicode="&#x2265;" horiz-adv-x="520" 
d="M60 172v76l280 131l-280 131v76h53l347 -162v-90l-347 -162h-53zM60 0v92h400v-92h-400z" />
    <glyph glyph-name="lozenge" unicode="&#x25ca;" horiz-adv-x="554" 
d="M235 0l-185 350l185 350h84l185 -350l-186 -350h-83zM277 137l111 213l-111 212l-111 -211z" />
    <glyph glyph-name="commaaccent" unicode="&#xf6c3;" horiz-adv-x="710" 
d="M259 -277l38 210h120v-50l-73 -160h-85z" />
    <glyph glyph-name="zero.onum" horiz-adv-x="610" 
d="M305 88c83 0 125 62 125 136v72c0 74 -42 136 -125 136s-125 -62 -125 -136v-72c0 -74 42 -136 125 -136zM305 -12c-144 0 -235 89 -235 242v60c0 153 91 242 235 242s235 -89 235 -242v-60c0 -153 -91 -242 -235 -242z" />
    <glyph glyph-name="one.onum" horiz-adv-x="313" 
d="M113 0v371h-73v58l139 91h44v-520h-110z" />
    <glyph glyph-name="two.onum" horiz-adv-x="561" 
d="M50 0v88l269 179c29 19 61 43 61 89c0 35 -34 76 -104 76c-73 0 -113 -42 -113 -103h-110v5c0 116 77 198 223 198c143 0 214 -87 214 -183c0 -94 -77 -145 -139 -181l-118 -68h266v-100h-449z" />
    <glyph glyph-name="three.onum" horiz-adv-x="570" 
d="M280 -172c-147 0 -228 87 -230 224h110c1 -69 35 -124 120 -124c81 0 120 49 120 112c0 60 -39 104 -105 104h-60v88h53c62 0 97 34 97 99c0 57 -31 101 -106 101c-67 0 -107 -50 -109 -113h-110c2 123 80 213 219 213c148 0 216 -84 216 -193c0 -70 -32 -116 -85 -147
c55 -21 100 -83 100 -162c0 -113 -76 -202 -230 -202z" />
    <glyph glyph-name="four.onum" horiz-adv-x="553" 
d="M340 -160v160h-310v88l244 432h97v-40l-215 -380h184v153h110v-153h83v-100h-83v-160h-110z" />
    <glyph glyph-name="five.onum" horiz-adv-x="582" 
d="M292 -172c-133 0 -221 78 -230 196h111c8 -53 45 -96 119 -96c71 0 122 44 122 148c0 98 -60 131 -113 131c-51 0 -83 -19 -109 -50h-109l31 363h366v-100h-275l-16 -162c32 28 82 40 126 40c98 0 207 -56 207 -224c0 -146 -79 -246 -230 -246z" />
    <glyph glyph-name="six.onum" horiz-adv-x="590" 
d="M300 -12c-147 0 -240 89 -240 242c0 54 22 110 68 184l181 286h101v-40l-149 -227c21 8 48 14 82 14c107 0 197 -76 197 -217c0 -153 -93 -242 -240 -242zM300 88c86 0 130 55 130 136s-41 134 -130 134s-130 -55 -130 -134c0 -81 44 -136 130 -136z" />
    <glyph glyph-name="seven.onum" horiz-adv-x="539" 
d="M161 -160v40l214 540h-233v-100h-102v200h449v-93l-232 -587h-96z" />
    <glyph glyph-name="eight.onum" 
d="M307 -12c-156 0 -247 81 -247 211c0 84 54 148 114 170c-53 31 -95 73 -95 154c0 105 80 192 228 192s228 -87 228 -192c0 -81 -41 -123 -94 -154c60 -22 113 -86 113 -170c0 -130 -91 -211 -247 -211zM307 86c94 0 136 55 136 121c0 61 -50 118 -136 118
s-136 -57 -136 -118c0 -66 42 -121 136 -121zM307 409c70 0 119 42 119 106c0 59 -37 104 -119 104c-81 0 -119 -45 -119 -104c0 -64 49 -106 119 -106z" />
    <glyph glyph-name="nine.onum" horiz-adv-x="590" 
d="M290 532c147 0 240 -89 240 -242c0 -54 -19 -112 -68 -184l-181 -266h-101v40l149 207c-21 -8 -48 -14 -82 -14c-107 0 -197 76 -197 217c0 153 93 242 240 242zM290 432c-86 0 -130 -55 -130 -136s41 -134 130 -134s130 55 130 134c0 81 -44 136 -130 136z" />
    <glyph glyph-name="uniF653" unicode="&#xf653;" horiz-adv-x="553" 
d="M332 611v-84c94 -17 152 -79 152 -181h-110c0 58 -45 86 -107 86c-66 0 -91 -27 -91 -55c0 -25 18 -40 57 -50l134 -33c73 -18 126 -55 126 -140s-62 -146 -161 -162v-81h-96v79c-114 13 -186 80 -186 189h110c0 -59 52 -91 127 -91c59 0 96 23 96 57c0 25 -14 43 -57 54
l-135 35c-64 17 -125 49 -125 138c0 83 63 146 170 158v81h96z" />
    <glyph glyph-name="uniF64E" unicode="&#xf64e;" horiz-adv-x="579" 
d="M314 -12c-120 0 -200 60 -215 158h-69v83h67v53h-67v83h68c12 103 93 167 216 167c124 0 205 -66 211 -177h-101c-4 48 -45 83 -109 83c-68 0 -105 -29 -114 -73h154v-83h-156v-53h156v-83h-151c12 -39 47 -64 111 -64c65 0 105 34 109 86h102
c-6 -111 -91 -180 -212 -180z" />
    <glyph glyph-name="uniF725" unicode="&#xf725;" horiz-adv-x="570" 
d="M40 0v96h70v112h-70v86h70v45c0 118 80 193 205 193c123 0 202 -71 202 -191v-6h-110v6c0 54 -32 91 -92 91c-65 0 -95 -37 -95 -91v-47h134v-86h-134v-112h297v-96h-477z" />
    <glyph glyph-name="uniF727" unicode="&#xf727;" horiz-adv-x="535" 
d="M215 0v64h-135v83h135v47h-135v83h86l-126 191v52h99l130 -210h3l130 210h93v-52l-126 -191h86v-83h-130v-47h130v-83h-130v-64h-110z" />
    <glyph glyph-name="uniF722" unicode="&#xf722;" horiz-adv-x="567" 
d="M115 0v64h-85v83h85v47h-85v83h85v243h270c86 0 152 -55 152 -163s-66 -163 -152 -163h-160v-47h130v-83h-130v-64h-110zM225 277h133c37 0 69 25 69 73c0 49 -32 74 -70 74h-132v-147z" />
    <glyph glyph-name="uniF721" unicode="&#xf721;" horiz-adv-x="576" 
d="M290 -12c-122 0 -193 53 -193 137c0 20 3 36 8 49h-65v72h496v-72h-328c-4 -10 -7 -21 -7 -34c0 -33 24 -60 92 -60c59 0 95 27 95 62h107c0 -94 -90 -154 -205 -154zM40 274v72h336c4 9 7 21 7 34c0 28 -24 60 -89 60c-62 0 -94 -27 -94 -62h-107c0 94 87 154 202 154
c121 0 192 -55 192 -139c0 -20 -3 -35 -9 -47h58v-72h-496z" />
    <glyph glyph-name="zero.onum.mono" 
d="M307 -12c-144 0 -235 89 -235 242v60c0 153 91 242 235 242s235 -89 235 -242v-60c0 -153 -91 -242 -235 -242zM182 224c0 -17 2 -33 6 -47l187 236c-18 12 -41 19 -68 19c-83 0 -125 -62 -125 -136v-72zM307 88c83 0 125 62 125 136v72c0 16 -2 32 -6 46l-188 -236
c19 -11 41 -18 69 -18z" />
    <glyph glyph-name="one.onum.mono" 
d="M105 0v100h154v271h-113v58l179 91h44v-420h154v-100h-418z" />
    <glyph glyph-name="two.onum.mono" 
d="M75 0v88l269 179c29 19 61 43 61 89c0 35 -34 76 -104 76c-73 0 -113 -42 -113 -103h-110v5c0 116 77 198 223 198c143 0 214 -87 214 -183c0 -94 -77 -145 -139 -181l-118 -68h266v-100h-449z" />
    <glyph glyph-name="three.onum.mono" 
d="M306 -172c-147 0 -228 87 -230 224h110c1 -69 35 -124 120 -124c81 0 120 49 120 112c0 60 -39 104 -105 104h-60v88h53c62 0 97 34 97 99c0 57 -31 101 -106 101c-67 0 -107 -50 -109 -113h-110c2 123 80 213 219 213c148 0 216 -84 216 -193c0 -70 -32 -116 -85 -147
c55 -21 100 -83 100 -162c0 -113 -76 -202 -230 -202z" />
    <glyph glyph-name="four.onum.mono" 
d="M366 -160v160h-310v88l244 432h97v-40l-215 -380h184v153h110v-153h83v-100h-83v-160h-110z" />
    <glyph glyph-name="five.onum.mono" 
d="M302 -172c-133 0 -221 78 -230 196h111c8 -53 45 -96 119 -96c71 0 122 44 122 148c0 98 -60 131 -113 131c-51 0 -83 -19 -109 -50h-109l31 363h366v-100h-275l-16 -162c32 28 82 40 126 40c98 0 207 -56 207 -224c0 -146 -79 -246 -230 -246z" />
    <glyph glyph-name="six.onum.mono" 
d="M312 -12c-147 0 -240 89 -240 242c0 54 22 110 68 184l181 286h101v-40l-149 -227c21 8 48 14 82 14c107 0 197 -76 197 -217c0 -153 -93 -242 -240 -242zM312 88c86 0 130 55 130 136s-41 134 -130 134s-130 -55 -130 -134c0 -81 44 -136 130 -136z" />
    <glyph glyph-name="seven.onum.mono" 
d="M206 -160v40l214 540h-233v-100h-102v200h449v-93l-232 -587h-96z" />
    <glyph glyph-name="eight.onum.mono" 
d="M307 -12c-156 0 -247 81 -247 211c0 84 54 148 114 170c-53 31 -95 73 -95 154c0 105 80 192 228 192s228 -87 228 -192c0 -81 -41 -123 -94 -154c60 -22 113 -86 113 -170c0 -130 -91 -211 -247 -211zM307 86c94 0 136 55 136 121c0 61 -50 118 -136 118
s-136 -57 -136 -118c0 -66 42 -121 136 -121zM307 409c70 0 119 42 119 106c0 59 -37 104 -119 104c-81 0 -119 -45 -119 -104c0 -64 49 -106 119 -106z" />
    <glyph glyph-name="nine.onum.mono" 
d="M302 532c147 0 240 -89 240 -242c0 -54 -19 -112 -68 -184l-181 -266h-101v40l149 207c-21 -8 -48 -14 -82 -14c-107 0 -197 76 -197 217c0 153 93 242 240 242zM302 432c-86 0 -130 -55 -130 -136s41 -134 130 -134s130 55 130 134c0 81 -44 136 -130 136z" />
    <glyph glyph-name="uniF653.mono" 
d="M367 611v-84c94 -17 152 -79 152 -181h-110c0 58 -45 86 -107 86c-66 0 -91 -27 -91 -55c0 -25 18 -40 57 -50l134 -33c73 -18 126 -55 126 -140s-62 -146 -161 -162v-81h-96v79c-114 13 -186 80 -186 189h110c0 -59 52 -91 127 -91c59 0 96 23 96 57c0 25 -14 43 -57 54
l-135 35c-64 17 -125 49 -125 138c0 83 63 146 170 158v81h96z" />
    <glyph glyph-name="uniF64E.mono" 
d="M334 -12c-120 0 -200 60 -215 158h-69v83h67v53h-67v83h68c12 103 93 167 216 167c124 0 205 -66 211 -177h-101c-4 48 -45 83 -109 83c-68 0 -105 -29 -114 -73h154v-83h-156v-53h156v-83h-151c12 -39 47 -64 111 -64c65 0 105 34 109 86h102
c-6 -111 -91 -180 -212 -180z" />
    <glyph glyph-name="uniF725.mono" 
d="M64 0v96h70v112h-70v86h70v45c0 118 80 193 205 193c123 0 202 -71 202 -191v-6h-110v6c0 54 -32 91 -92 91c-65 0 -95 -37 -95 -91v-47h134v-86h-134v-112h297v-96h-477z" />
    <glyph glyph-name="uniF727.mono" 
d="M254 0v64h-135v83h135v47h-135v83h86l-126 191v52h99l130 -210h3l130 210h93v-52l-126 -191h86v-83h-130v-47h130v-83h-130v-64h-110z" />
    <glyph glyph-name="uniF722.mono" 
d="M125 0v64h-85v83h85v47h-85v83h85v243h270c86 0 152 -55 152 -163s-66 -163 -152 -163h-160v-47h130v-83h-130v-64h-110zM235 277h133c37 0 69 25 69 73c0 49 -32 74 -70 74h-132v-147z" />
    <glyph glyph-name="uniF721.mono" 
d="M309 -12c-122 0 -193 53 -193 137c0 20 3 36 8 49h-65v72h496v-72h-328c-4 -10 -7 -21 -7 -34c0 -33 24 -60 92 -60c59 0 95 27 95 62h107c0 -94 -90 -154 -205 -154zM59 274v72h336c4 9 7 21 7 34c0 28 -24 60 -89 60c-62 0 -94 -27 -94 -62h-107c0 94 87 154 202 154
c121 0 192 -55 192 -139c0 -20 -3 -35 -9 -47h58v-72h-496z" />
    <glyph glyph-name="zero.mono" 
d="M307 -15c-144 0 -235 89 -235 242v246c0 153 91 242 235 242s235 -89 235 -242v-246c0 -153 -91 -242 -235 -242zM182 479v-267l209 372c-21 19 -49 31 -84 31c-83 0 -125 -62 -125 -136zM307 85c83 0 125 62 125 136v263l-209 -370c21 -18 49 -29 84 -29z" />
    <glyph glyph-name="one.mono" 
d="M105 0v100h154v451h-113v58l179 91h44v-600h154v-100h-418z" />
    <glyph glyph-name="two.mono" 
d="M75 0v90l211 214c88 89 125 128 125 195c0 62 -34 116 -112 116c-84 0 -118 -59 -119 -137h-105c2 150 94 237 224 237c147 0 222 -99 222 -212c0 -107 -61 -172 -152 -261l-145 -142h300v-100h-449z" />
    <glyph glyph-name="three.mono" 
d="M306 -15c-144 0 -237 87 -239 237h106c2 -79 49 -137 136 -137c88 0 125 53 125 123c0 67 -46 105 -123 105h-49v100h42c68 0 112 31 112 99c0 48 -27 103 -109 103s-119 -56 -120 -134h-105c2 151 87 234 224 234c141 0 218 -86 218 -192c0 -77 -37 -124 -90 -155
c60 -22 110 -84 110 -169c0 -132 -87 -214 -238 -214z" />
    <glyph glyph-name="four.mono" 
d="M361 0v138h-310v85l244 477h97v-40l-216 -422h185v173h110v-173h83v-100h-83v-138h-110z" />
    <glyph glyph-name="five.mono" 
d="M303 -15c-131 0 -222 75 -237 207h108c9 -63 58 -107 131 -107c85 0 124 60 124 151c0 89 -48 144 -121 144c-58 0 -92 -30 -111 -57h-109l35 377h377v-100h-287l-16 -168c37 24 71 38 131 38c110 0 211 -64 211 -234c0 -162 -94 -251 -236 -251z" />
    <glyph glyph-name="six.mono" 
d="M312 -15c-147 0 -240 89 -240 242c0 54 22 110 68 184l181 289h101v-40l-149 -230c21 8 48 14 82 14c107 0 197 -76 197 -217c0 -153 -93 -242 -240 -242zM312 85c86 0 130 55 130 136s-41 134 -130 134s-130 -55 -130 -134c0 -81 44 -136 130 -136z" />
    <glyph glyph-name="seven.mono" 
d="M204 0v40l214 560h-233v-100h-102v200h449v-93l-229 -607h-99z" />
    <glyph glyph-name="eight.mono" 
d="M307 -15c-156 0 -247 81 -247 211c0 84 54 149 114 171c-53 31 -95 74 -95 155c0 105 80 193 228 193s228 -88 228 -193c0 -81 -41 -124 -94 -155c60 -22 113 -87 113 -171c0 -130 -91 -211 -247 -211zM307 83c94 0 136 55 136 121c0 61 -50 119 -136 119
s-136 -58 -136 -119c0 -66 42 -121 136 -121zM307 407c70 0 119 43 119 107c0 59 -37 105 -119 105c-81 0 -119 -46 -119 -105c0 -64 49 -107 119 -107z" />
    <glyph glyph-name="nine.mono" 
d="M302 715c147 0 240 -89 240 -242c0 -54 -22 -110 -68 -184l-181 -289h-101v40l149 230c-21 -8 -48 -14 -82 -14c-107 0 -197 76 -197 217c0 153 93 242 240 242zM302 615c-86 0 -130 -55 -130 -136s41 -134 130 -134s130 55 130 134c0 81 -44 136 -130 136z" />
    <glyph glyph-name="dollar.mono" 
d="M55 227h110c0 -108 74 -142 149 -142c80 0 122 42 122 98s-45 76 -103 101l-56 24c-133 57 -203 92 -203 210c0 104 74 180 184 194v91h110v-94c90 -20 178 -91 178 -230h-110c0 102 -60 136 -133 136c-70 0 -116 -37 -116 -92c0 -63 45 -80 129 -115l57 -24
c103 -43 179 -86 179 -192c0 -101 -57 -185 -184 -203v-106h-110v105c-111 13 -203 90 -203 239z" />
    <glyph glyph-name="Euro.mono" 
d="M354 -15c-142 0 -245 73 -255 228h-84v96h84v82h-84v96h84c9 144 101 228 255 228c130 0 245 -73 245 -242v-10h-104v10c0 101 -68 142 -142 142c-78 0 -138 -39 -144 -128h181v-96h-181v-82h181v-96h-181c6 -80 54 -128 144 -128c82 0 142 41 142 142v10h104v-10
c0 -169 -105 -242 -245 -242z" />
    <glyph glyph-name="sterling.mono" 
d="M50 0v100h70v203h-70v100h70v119c0 118 84 193 217 193c129 0 212 -71 212 -201v-36h-110v36c0 64 -36 101 -102 101c-73 0 -107 -37 -107 -91v-121h144v-100h-144v-203h319v-100h-499z" />
    <glyph glyph-name="yen.mono" 
d="M252 0v106h-172v96h172v82h-172v96h114l-167 280v40h101l180 -315l180 315h99v-40l-167 -280h114v-96h-172v-82h172v-96h-172v-106h-110z" />
    <glyph glyph-name="uni20BD.mono" 
d="M112 0v106h-85v96h85v82h-85v96h85v320h281c124 0 197 -81 197 -208s-73 -208 -197 -208h-171v-82h180v-96h-180v-106h-110zM222 380h158c54 0 100 36 100 112s-46 112 -100 112h-158v-224z" />
    <glyph glyph-name="uni20B4.mono" 
d="M308 -15c-148 0 -237 79 -237 182c0 29 3 51 9 70h-75v87h603v-87h-417c-6 -16 -10 -34 -10 -55c0 -61 44 -97 127 -97c77 0 133 42 133 106h110c0 -129 -105 -206 -243 -206zM5 376v87h417c5 13 9 28 9 46c0 62 -44 106 -127 106c-77 0 -133 -42 -133 -106h-110
c0 129 105 206 243 206c148 0 237 -79 237 -195c0 -21 -3 -40 -8 -57h75v-87h-603z" />
    <glyph glyph-name="a.alt1" horiz-adv-x="589" 
d="M509 0h-64l-41 58c-30 -36 -81 -70 -155 -70c-99 0 -184 60 -184 191v162c0 131 85 191 184 191c74 0 125 -34 155 -70l41 58h64v-520zM273 88c56 0 96 35 126 67v210c-30 32 -71 67 -127 67c-52 0 -97 -37 -97 -99v-146c0 -62 45 -99 98 -99z" />
    <glyph glyph-name="agrave.alt1" horiz-adv-x="589" 
d="M509 0h-64l-41 58c-30 -36 -81 -70 -155 -70c-99 0 -184 60 -184 191v162c0 131 85 191 184 191c74 0 125 -34 155 -70l41 58h64v-520zM273 88c56 0 96 35 126 67v210c-30 32 -71 67 -127 67c-52 0 -97 -37 -97 -99v-146c0 -62 45 -99 98 -99zM281 590l-90 102v38h99
l80 -140h-89z" />
    <glyph glyph-name="aacute.alt1" horiz-adv-x="589" 
d="M509 0h-64l-41 58c-30 -36 -81 -70 -155 -70c-99 0 -184 60 -184 191v162c0 131 85 191 184 191c74 0 125 -34 155 -70l41 58h64v-520zM273 88c56 0 96 35 126 67v210c-30 32 -71 67 -127 67c-52 0 -97 -37 -97 -99v-146c0 -62 45 -99 98 -99zM239 590l80 140h99v-38
l-90 -102h-89z" />
    <glyph glyph-name="acircumflex.alt1" horiz-adv-x="559" 
d="M509 0h-64l-41 58c-30 -36 -81 -70 -155 -70c-99 0 -184 60 -184 191v162c0 131 85 191 184 191c74 0 125 -34 155 -70l41 58h64v-520zM273 88c56 0 96 35 126 67v210c-30 32 -71 67 -127 67c-52 0 -97 -37 -97 -99v-146c0 -62 45 -99 98 -99zM156 590v35l99 105h88
l99 -105v-35h-84l-60 67l-60 -67h-82z" />
    <glyph glyph-name="atilde.alt1" horiz-adv-x="589" 
d="M509 0h-64l-41 58c-30 -36 -81 -70 -155 -70c-99 0 -184 60 -184 191v162c0 131 85 191 184 191c74 0 125 -34 155 -70l41 58h64v-520zM273 88c56 0 96 35 126 67v210c-30 32 -71 67 -127 67c-52 0 -97 -37 -97 -99v-146c0 -62 45 -99 98 -99zM185 594l-66 40
c30 58 65 98 109 98c29 0 53 -10 72 -23l16 -11c17 -12 33 -20 50 -20c14 0 27 11 51 49l66 -40c-30 -58 -65 -98 -109 -98c-25 0 -48 9 -64 19l-17 10c-21 12 -38 25 -57 25c-14 0 -27 -11 -51 -49z" />
    <glyph glyph-name="adieresis.alt1" horiz-adv-x="559" 
d="M509 0h-64l-41 58c-30 -36 -81 -70 -155 -70c-99 0 -184 60 -184 191v162c0 131 85 191 184 191c74 0 125 -34 155 -70l41 58h64v-520zM273 88c56 0 96 35 126 67v210c-30 32 -71 67 -127 67c-52 0 -97 -37 -97 -99v-146c0 -62 45 -99 98 -99zM141 595v110h110v-110h-110
zM338 595v110h110v-110h-110z" />
    <glyph glyph-name="aring.alt1" horiz-adv-x="589" 
d="M509 0h-64l-41 58c-30 -36 -81 -70 -155 -70c-99 0 -184 60 -184 191v162c0 131 85 191 184 191c74 0 125 -34 155 -70l41 58h64v-520zM273 88c56 0 96 35 126 67v210c-30 32 -71 67 -127 67c-52 0 -97 -37 -97 -99v-146c0 -62 45 -99 98 -99zM297 627c23 0 43 18 43 41
s-20 41 -43 41s-43 -18 -43 -41s20 -41 43 -41zM297 567c-59 0 -108 45 -108 101s49 101 108 101s108 -45 108 -101s-49 -101 -108 -101z" />
    <glyph glyph-name="amacron.alt1" horiz-adv-x="589" 
d="M509 0h-64l-41 58c-30 -36 -81 -70 -155 -70c-99 0 -184 60 -184 191v162c0 131 85 191 184 191c74 0 125 -34 155 -70l41 58h64v-520zM273 88c56 0 96 35 126 67v210c-30 32 -71 67 -127 67c-52 0 -97 -37 -97 -99v-146c0 -62 45 -99 98 -99zM143 605v90h307v-90h-307z
" />
    <glyph glyph-name="aogonek.alt1" horiz-adv-x="589" 
d="M509 0c-30 -24 -42 -43 -42 -61c0 -22 19 -32 52 -32h34v-67h-56c-64 0 -103 28 -103 73c0 24 15 54 51 87l-41 58c-30 -36 -81 -70 -155 -70c-99 0 -184 60 -184 191v162c0 131 85 191 184 191c74 0 125 -34 155 -70l41 58h64v-520zM273 88c56 0 96 35 126 67v210
c-30 32 -71 67 -127 67c-52 0 -97 -37 -97 -99v-146c0 -62 45 -99 98 -99z" />
    <glyph glyph-name="t.alt1" horiz-adv-x="370" 
d="M130 0v424h-100v96h100v185h110v-185h100v-96h-100v-424h-110z" />
    <glyph glyph-name="tcaron.alt1" horiz-adv-x="518" 
d="M130 0v424h-100v96h100v185h110v-185h100v-96h-100v-424h-110zM385 495l38 210h120v-50l-73 -160h-85z" />
    <glyph glyph-name="J.alt1" horiz-adv-x="570" 
d="M260 -15c-137 0 -240 58 -240 222v30h120v-30c0 -79 47 -112 120 -112c63 0 120 33 120 116v384h-221v105h341v-493c0 -159 -107 -222 -240 -222z" />
    <glyph glyph-name="ampersand.alt1" horiz-adv-x="642" 
d="M632 319v-96h-75v-4c0 -144 -107 -231 -255 -231s-252 82 -252 219c0 90 49 154 111 179c-50 28 -76 69 -76 139c0 109 86 182 214 182c129 0 212 -72 212 -192v-6h-110v8c0 51 -33 92 -101 92s-100 -41 -100 -92s32 -87 100 -87h18v-94h-32c-79 0 -126 -46 -126 -123
c0 -69 46 -125 143 -125s144 56 144 125v10h-75v96h260z" />
    <glyph glyph-name="ampersand.alt2" horiz-adv-x="613" 
d="M277 0c-149 0 -227 55 -227 201c0 91 50 151 111 171c-53 25 -84 73 -84 146c0 127 77 182 200 182h100v-96h-100c-55 0 -84 -36 -84 -93s27 -91 82 -91h129l46 100h64v-100h69v-96h-69v-324h-237zM296 98h108v226h-108c-86 0 -129 -31 -129 -113s43 -113 129 -113z" />
    <glyph glyph-name="uni0423.alt1" horiz-adv-x="589" 
d="M129 0v110h27c43 0 69 28 96 86l-242 464v40h112l186 -375l166 375h105v-40l-209 -468c-68 -151 -101 -192 -228 -192h-13z" />
    <glyph glyph-name="at.alt1" horiz-adv-x="769" 
d="M462 198c45 0 85 21 117 55v88h-94c-81 0 -105 -36 -105 -72c0 -47 34 -71 82 -71zM689 460v-350h-64l-38 54c-30 -36 -83 -66 -154 -66c-85 0 -163 58 -163 160c0 109 71 167 215 167h94v35c0 82 -56 149 -170 149h-49c-117 0 -175 -69 -175 -153v-367
c0 -84 58 -153 175 -153h102v-96h-102c-187 0 -280 110 -280 245v375c0 135 93 245 280 245h49c187 0 280 -110 280 -245z" />
    <glyph glyph-name="uni040E.alt1" horiz-adv-x="589" 
d="M129 0v110h27c43 0 69 28 96 86l-242 464v40h112l186 -375l166 375h105v-40l-209 -468c-68 -151 -101 -192 -228 -192h-13zM298 742c-95 0 -161 47 -161 134v12h94v-11c0 -35 22 -58 67 -58c46 0 68 23 68 58v11h93v-12c0 -87 -66 -134 -161 -134z" />
    <glyph glyph-name="uni0430.alt1" horiz-adv-x="589" 
d="M509 0h-64l-41 58c-30 -36 -81 -70 -155 -70c-99 0 -184 60 -184 191v162c0 131 85 191 184 191c74 0 125 -34 155 -70l41 58h64v-520zM273 88c56 0 96 35 126 67v210c-30 32 -71 67 -127 67c-52 0 -97 -37 -97 -99v-146c0 -62 45 -99 98 -99z" />
    </font>
</defs>
</svg>
