<?xml version="1.0" standalone="no"?>
<!DOCTYPE svg PUBLIC "-//W3C//DTD SVG 1.1//EN" "http://www.w3.org/Graphics/SVG/1.1/DTD/svg11.dtd" >
<svg xmlns="http://www.w3.org/2000/svg" xmlns:xlink="http://www.w3.org/1999/xlink" version="1.1">
<metadata>
Created by FontForge 20190801 at Wed Feb 26 15:17:08 2014
 By Jimmy Wärting
Copyright (c) 2013 by Gayane Bagdasaryan, Dmitry Rastvortsev. All rights reserved.
</metadata>
<defs>
<font id="BrutalType" horiz-adv-x="606" >
  <font-face 
    font-family="Brutal Type"
    font-weight="400"
    font-stretch="normal"
    units-per-em="1000"
    panose-1="2 0 6 3 2 0 0 2 0 4"
    ascent="804"
    descent="-196"
    x-height="514"
    cap-height="700"
    bbox="-47 -251 1076 952"
    underline-thickness="50"
    underline-position="-100"
    stemh="73"
    stemv="80"
    unicode-range="U+0020-FB02"
  />
<missing-glyph horiz-adv-x="312" 
 />
    <glyph glyph-name="fi" unicode="fi" horiz-adv-x="580" 
d="M102 0v444h-84v70h84c0 109 38 193 174 193c13 0 26 -1 35 -2v-72c-5 0 -15 1 -26 1c-68 0 -103 -26 -103 -103v-17h315v-514h-80v444h-235v-444h-80zM417 595v110h80v-110h-80z" />
    <glyph glyph-name="fl" unicode="fl" horiz-adv-x="580" 
d="M102 0v444h-84v70h84c0 109 38 193 174 193c13 0 26 -1 35 -2v-72c-4 0 -17 1 -26 1c-68 0 -103 -26 -103 -103v-17h124v-70h-124v-444h-80zM417 0v705h80v-705h-80z" />
    <glyph glyph-name=".notdef" horiz-adv-x="312" 
 />
    <glyph glyph-name="space" unicode=" " horiz-adv-x="249" 
 />
    <glyph glyph-name="exclam" unicode="!" horiz-adv-x="271" 
d="M93 0v123h85v-123h-85zM96 220v480h80v-480h-80z" />
    <glyph glyph-name="quotedbl" unicode="&#x22;" horiz-adv-x="363" 
d="M66 469l-16 155v81h87v-81l-16 -155h-55zM242 469l-16 155v81h87v-81l-16 -155h-55z" />
    <glyph glyph-name="numbersign" unicode="#" horiz-adv-x="655" 
d="M102 0v29l30 152h-98v74h114l38 190h-108v74h123l37 181h71v-29l-30 -152h165l37 181h71v-29l-31 -152h100v-74h-115l-38 -190h109v-74h-124l-37 -181h-71v29l30 152h-165l-36 -181h-72zM225 255h166l38 190h-166z" />
    <glyph glyph-name="dollar" unicode="$" horiz-adv-x="604" 
d="M48 227h80c0 -126 92 -169 183 -169c99 0 147 51 147 118c0 64 -47 92 -119 121l-77 31c-131 53 -193 90 -193 199c0 90 66 176 195 187v91h80v-94c120 -19 193 -105 193 -232h-81c0 121 -77 163 -163 163c-89 0 -142 -44 -142 -112s44 -91 131 -126l78 -31
c107 -43 181 -87 181 -191c0 -106 -71 -185 -197 -196v-101h-80v102c-134 15 -216 100 -216 240z" />
    <glyph glyph-name="percent" unicode="%" horiz-adv-x="776" 
d="M193 413c53 0 80 35 80 77v87c0 44 -27 78 -80 78c-52 0 -79 -34 -79 -78v-87c0 -43 27 -77 79 -77zM193 353c-95 0 -150 54 -150 147v68c0 92 55 147 150 147c96 0 151 -55 151 -147v-68c0 -93 -55 -147 -151 -147zM156 0v29l398 671h65v-29l-399 -671h-64zM583 44
c53 0 80 35 80 78v87c0 43 -27 78 -80 78c-51 0 -79 -34 -79 -78v-87c0 -44 28 -78 79 -78zM583 -15c-95 0 -150 54 -150 146v69c0 92 55 147 150 147c96 0 151 -55 151 -147v-69c0 -92 -55 -146 -151 -146z" />
    <glyph glyph-name="ampersand" unicode="&#x26;" horiz-adv-x="653" 
d="M619 38v-38h-71l-72 75c-50 -54 -120 -87 -208 -87c-136 0 -223 78 -223 190c0 77 34 127 113 190l22 18l-18 20c-36 40 -73 79 -73 148c0 90 69 153 165 153c92 0 159 -58 159 -152c0 -58 -35 -104 -78 -138l-43 -35l176 -188c22 44 33 97 33 154h75
c0 -76 -17 -150 -52 -211zM270 61c65 0 118 26 155 68l-193 205l-25 -20c-56 -47 -82 -75 -82 -128c0 -75 60 -125 145 -125zM169 552c0 -33 11 -51 48 -91l25 -26l42 34c32 26 51 50 51 87c0 48 -37 78 -82 78c-50 0 -84 -33 -84 -82z" />
    <glyph glyph-name="quotesingle" unicode="'" horiz-adv-x="187" 
d="M66 469l-16 155v81h87v-81l-16 -155h-55z" />
    <glyph glyph-name="parenleft" unicode="(" horiz-adv-x="306" 
d="M272 -160c-109 0 -179 64 -179 180v558c0 116 70 180 179 180v-73c-62 0 -99 -42 -99 -103v-566c0 -61 37 -103 99 -103v-73z" />
    <glyph glyph-name="parenright" unicode=")" horiz-adv-x="306" 
d="M34 -160v73c62 0 99 42 99 103v566c0 61 -37 103 -99 103v73c109 0 179 -64 179 -180v-558c0 -116 -70 -180 -179 -180z" />
    <glyph glyph-name="asterisk" unicode="*" horiz-adv-x="428" 
d="M182 333l4 138l-117 -73l-32 56l122 65l-122 65l32 56l117 -73l-4 138h64l-5 -138l118 73l32 -56l-123 -65l123 -65l-32 -56l-118 73l5 -138h-64z" />
    <glyph glyph-name="plus" unicode="+" horiz-adv-x="541" 
d="M234 97v182h-177v68h177v178h73v-178h177v-68h-177v-182h-73z" />
    <glyph glyph-name="comma" unicode="," horiz-adv-x="239" 
d="M34 -104l59 236h88v-38l-83 -198h-64z" />
    <glyph glyph-name="hyphen" unicode="-" horiz-adv-x="438" 
d="M63 276v74h313v-74h-313z" />
    <glyph glyph-name="period" unicode="." horiz-adv-x="243" 
d="M75 0v132h94v-132h-94z" />
    <glyph glyph-name="slash" unicode="/" horiz-adv-x="460" 
d="M43 -100v29l302 829h72v-29l-302 -829h-72z" />
    <glyph glyph-name="zero" unicode="0" horiz-adv-x="603" 
d="M301 58c96 0 149 65 149 154v275c0 90 -53 155 -149 155c-95 0 -148 -65 -148 -155v-275c0 -89 53 -154 148 -154zM301 -15c-139 0 -228 85 -228 232v266c0 147 89 232 228 232c140 0 229 -85 229 -232v-266c0 -147 -89 -232 -229 -232z" />
    <glyph glyph-name="one" unicode="1" horiz-adv-x="283" 
d="M110 0v598h-68v42l98 60h50v-700h-80z" />
    <glyph glyph-name="two" unicode="2" horiz-adv-x="560" 
d="M56 0v66l211 215c80 81 139 140 139 223c0 81 -47 138 -134 138c-90 0 -138 -62 -139 -157h-80c1 147 93 230 218 230c137 0 215 -91 215 -209c0 -113 -79 -189 -159 -270l-162 -163h330v-73h-439z" />
    <glyph glyph-name="three" unicode="3" horiz-adv-x="576" 
d="M284 -15c-140 0 -230 84 -233 226h80c3 -91 58 -153 156 -153c97 0 146 59 146 144c0 77 -52 126 -138 126h-55v73h50c77 0 126 43 126 118c0 61 -38 123 -130 123c-91 0 -139 -59 -140 -154h-80c1 146 89 227 220 227c136 0 208 -85 208 -189c0 -83 -42 -132 -100 -158
c65 -20 119 -82 119 -171c0 -132 -85 -212 -229 -212z" />
    <glyph glyph-name="four" unicode="4" horiz-adv-x="547" 
d="M355 0v152h-322v62l262 486h71v-29l-241 -446h230v186h80v-186h89v-73h-89v-152h-80z" />
    <glyph glyph-name="five" unicode="5" horiz-adv-x="586" 
d="M296 -15c-127 0 -215 73 -231 201h80c11 -78 70 -128 153 -128c98 0 146 69 146 171c0 106 -58 165 -144 165c-61 0 -104 -30 -128 -62h-79l33 368h358v-73h-292l-19 -213c37 29 79 47 141 47c114 0 210 -67 210 -231c0 -154 -88 -245 -228 -245z" />
    <glyph glyph-name="six" unicode="6" horiz-adv-x="581" 
d="M296 -15c-146 0 -233 88 -233 234c0 61 22 115 67 186l185 295h74v-29l-168 -262c26 16 61 27 106 27c117 0 201 -79 201 -217c0 -146 -87 -234 -232 -234zM296 58c100 0 152 63 152 157c0 92 -48 155 -151 155c-97 0 -154 -59 -154 -155c0 -94 52 -157 153 -157z" />
    <glyph glyph-name="seven" unicode="7" horiz-adv-x="536" 
d="M172 0v29l231 598h-282v-123h-75v196h440v-68l-242 -632h-72z" />
    <glyph glyph-name="eight" unicode="8" horiz-adv-x="608" 
d="M304 -15c-154 0 -241 80 -241 207c0 93 61 155 127 175c-57 25 -106 71 -106 158c0 105 77 190 220 190s220 -85 220 -190c0 -87 -49 -133 -105 -158c65 -20 126 -82 126 -175c0 -127 -87 -207 -241 -207zM163 519c0 -75 56 -123 141 -123s140 48 140 123
c0 73 -50 123 -140 123s-141 -50 -141 -123zM144 195c0 -81 56 -137 160 -137s160 56 160 137s-60 138 -160 138s-160 -57 -160 -138z" />
    <glyph glyph-name="nine" unicode="9" horiz-adv-x="581" 
d="M199 0v29l165 263c-26 -17 -61 -28 -105 -28c-121 0 -206 80 -206 219c0 143 87 232 233 232s232 -89 232 -232c0 -60 -19 -113 -65 -188l-181 -295h-73zM286 642c-102 0 -153 -63 -153 -156s49 -157 151 -157c96 0 154 60 154 157c0 93 -52 156 -152 156z" />
    <glyph glyph-name="colon" unicode=":" horiz-adv-x="243" 
d="M75 0v132h94v-132h-94zM75 382v132h94v-132h-94z" />
    <glyph glyph-name="semicolon" unicode=";" horiz-adv-x="239" 
d="M34 -104l59 236h88v-38l-83 -198h-64zM85 382v132h94v-132h-94z" />
    <glyph glyph-name="less" unicode="&#x3c;" horiz-adv-x="502" 
d="M405 97l-348 186v66l348 185h40v-56l-308 -162l308 -162v-57h-40z" />
    <glyph glyph-name="equal" unicode="=" horiz-adv-x="541" 
d="M57 171v68h427v-68h-427zM57 388v67h427v-67h-427z" />
    <glyph glyph-name="greater" unicode="&#x3e;" horiz-adv-x="502" 
d="M57 97v57l308 162l-308 162v56h40l348 -185v-66l-348 -186h-40z" />
    <glyph glyph-name="question" unicode="?" horiz-adv-x="513" 
d="M208 220v107l84 58c56 39 98 67 98 139c0 59 -41 118 -132 118c-89 0 -149 -57 -149 -154h-76c0 147 98 227 225 227c143 0 212 -92 212 -190c0 -106 -81 -159 -136 -195l-46 -31v-79h-80zM206 0v123h85v-123h-85z" />
    <glyph glyph-name="at" unicode="@" horiz-adv-x="1002" 
d="M510 -151c-258 0 -437 179 -437 433c0 259 179 433 437 433c234 0 419 -152 419 -394c0 -158 -71 -262 -181 -262c-54 0 -103 23 -119 83c-34 -43 -87 -81 -158 -81c-97 0 -166 63 -166 170v101c0 107 69 171 166 171c71 0 124 -41 154 -78l28 67h36v-300
c0 -43 19 -71 62 -71c62 0 110 64 110 200c0 207 -159 333 -351 333c-216 0 -368 -146 -368 -372c0 -223 152 -371 368 -371h25v-62h-25zM484 126c59 0 103 34 135 71v166c-32 38 -72 74 -135 74c-66 0 -110 -49 -110 -116v-78c0 -67 44 -117 110 -117z" />
    <glyph glyph-name="A" unicode="A" horiz-adv-x="656" 
d="M23 0v29l261 671h87l262 -671v-29h-86l-70 186h-302l-72 -186h-80zM201 260h249l-124 324z" />
    <glyph glyph-name="B" unicode="B" horiz-adv-x="655" 
d="M93 0v700h294c117 0 188 -63 188 -184c0 -83 -37 -129 -91 -152c65 -19 118 -67 118 -173c0 -124 -72 -191 -190 -191h-319zM180 77h217c77 0 118 43 118 119c0 77 -41 121 -118 121h-217v-240zM180 391h194c74 0 114 43 114 116c0 74 -40 116 -116 116h-192v-232z" />
    <glyph glyph-name="C" unicode="C" horiz-adv-x="659" 
d="M341 -15c-169 0 -268 93 -268 252v226c0 159 99 252 268 252c135 0 255 -75 255 -238v-10h-87v10c0 109 -88 158 -169 158c-118 0 -180 -62 -180 -166v-238c0 -104 62 -166 180 -166c81 0 169 49 169 158v10h87v-10c0 -163 -120 -238 -255 -238z" />
    <glyph glyph-name="D" unicode="D" horiz-adv-x="679" 
d="M180 77h157c116 0 182 67 182 165v216c0 98 -66 165 -182 165h-157v-546zM93 0v700h244c164 0 269 -88 269 -244v-212c0 -156 -105 -244 -269 -244h-244z" />
    <glyph glyph-name="E" unicode="E" horiz-adv-x="584" 
d="M93 0v700h436v-77h-349v-232h302v-77h-302v-237h350v-77h-437z" />
    <glyph glyph-name="F" unicode="F" horiz-adv-x="577" 
d="M93 0v700h441v-77h-353v-237h305v-77h-305v-309h-88z" />
    <glyph glyph-name="G" unicode="G" horiz-adv-x="689" 
d="M335 -15c-161 0 -262 96 -262 252v226c0 159 103 252 273 252c135 0 259 -75 260 -234v-6h-87v6c-1 99 -79 154 -175 154c-114 0 -184 -62 -184 -166v-232c0 -104 67 -172 180 -172c81 0 143 39 179 112v106h-160v74h247v-357h-49l-24 87c-44 -66 -109 -102 -198 -102z
" />
    <glyph glyph-name="H" unicode="H" horiz-adv-x="701" 
d="M93 0v700h87v-310h341v310h87v-700h-87v313h-341v-313h-87z" />
    <glyph glyph-name="I" unicode="I" horiz-adv-x="273" 
d="M93 0v700h87v-700h-87z" />
    <glyph glyph-name="J" unicode="J" horiz-adv-x="572" 
d="M256 -15c-135 0 -233 64 -233 219v29h87v-30c0 -93 57 -138 146 -138c83 0 146 45 146 141v494h87v-496c0 -152 -100 -219 -233 -219z" />
    <glyph glyph-name="K" unicode="K" horiz-adv-x="612" 
d="M93 0v700h87v-310h112l203 310h81v-29l-208 -315l221 -327v-29h-86l-210 313h-113v-313h-87z" />
    <glyph glyph-name="L" unicode="L" horiz-adv-x="561" 
d="M93 0v700h87v-623h358v-77h-445z" />
    <glyph glyph-name="M" unicode="M" horiz-adv-x="803" 
d="M93 0v700h84l226 -355l226 355h81v-700h-84v546l-196 -308h-57l-196 307v-545h-84z" />
    <glyph glyph-name="N" unicode="N" horiz-adv-x="701" 
d="M93 0v700h80l348 -539v539h87v-700h-80l-348 538v-538h-87z" />
    <glyph glyph-name="O" unicode="O" horiz-adv-x="684" 
d="M342 65c117 0 182 69 182 167v236c0 98 -65 167 -182 167c-118 0 -182 -69 -182 -167v-236c0 -98 64 -167 182 -167zM342 -15c-164 0 -269 92 -269 251v228c0 159 105 251 269 251s269 -92 269 -251v-228c0 -159 -105 -251 -269 -251z" />
    <glyph glyph-name="P" unicode="P" horiz-adv-x="627" 
d="M93 0v700h293c121 0 193 -82 193 -211c0 -128 -72 -210 -193 -210h-206v-279h-87zM180 356h191c70 0 119 47 119 133c0 87 -49 134 -119 134h-191v-267z" />
    <glyph glyph-name="Q" unicode="Q" horiz-adv-x="685" 
d="M528 -119l-81 119c-28 -10 -71 -15 -105 -15c-164 0 -269 92 -269 251v228c0 159 105 251 269 251s268 -92 268 -251v-228c0 -91 -31 -153 -86 -196l88 -129v-30h-84zM342 65c117 0 182 67 182 166v238c0 99 -65 166 -182 166c-118 0 -182 -67 -182 -166v-238
c0 -99 64 -166 182 -166z" />
    <glyph glyph-name="R" unicode="R" horiz-adv-x="651" 
d="M93 0v700h293c131 0 203 -80 203 -211c0 -111 -52 -173 -134 -201l145 -259v-29h-86l-155 277h-179v-277h-87zM180 354h191c82 0 129 46 129 135c0 90 -47 134 -129 134h-191v-269z" />
    <glyph glyph-name="S" unicode="S" horiz-adv-x="633" 
d="M318 -15c-141 0 -270 75 -270 242h87c0 -123 103 -162 187 -162c104 0 156 49 156 113s-54 91 -160 131l-50 18c-129 46 -198 88 -198 195c0 114 90 193 241 193c143 0 254 -68 254 -236h-87c0 115 -81 156 -168 156c-95 0 -153 -45 -153 -107c0 -65 46 -89 147 -125
l47 -17c121 -44 219 -88 219 -204c0 -111 -84 -197 -252 -197z" />
    <glyph glyph-name="T" unicode="T" horiz-adv-x="558" 
d="M236 0v623h-213v77h512v-77h-212v-623h-87z" />
    <glyph glyph-name="U" unicode="U" horiz-adv-x="681" 
d="M341 -15c-151 0 -258 86 -258 243v472h87v-475c0 -97 63 -160 171 -160c107 0 170 62 170 160v475h87v-472c0 -156 -107 -243 -257 -243z" />
    <glyph glyph-name="V" unicode="V" horiz-adv-x="656" 
d="M285 0l-262 671v29h83l224 -584l221 584h82v-29l-261 -671h-87z" />
    <glyph glyph-name="W" unicode="W" horiz-adv-x="817" 
d="M181 0l-138 671v29h86l111 -561l143 363h55l145 -365l110 563h81v-29l-138 -671h-82l-145 369l-146 -369h-82z" />
    <glyph glyph-name="X" unicode="X" horiz-adv-x="629" 
d="M33 0v29l227 330l-215 312v29h88l181 -273l187 273h82v-29l-216 -312l229 -330v-29h-88l-196 290l-196 -290h-83z" />
    <glyph glyph-name="Y" unicode="Y" horiz-adv-x="609" 
d="M261 0v278l-248 393v29h86l206 -335l211 335h79v-29l-247 -390v-281h-87z" />
    <glyph glyph-name="Z" unicode="Z" horiz-adv-x="577" 
d="M43 0v76l382 547h-368v77h468v-75l-382 -548h392v-77h-492z" />
    <glyph glyph-name="bracketleft" unicode="[" horiz-adv-x="323" 
d="M93 -160v918h202v-73h-122v-772h122v-73h-202z" />
    <glyph glyph-name="backslash" unicode="\" horiz-adv-x="460" 
d="M417 -71v-29h-72l-302 829v29h72z" />
    <glyph glyph-name="bracketright" unicode="]" horiz-adv-x="323" 
d="M230 758v-918h-202v73h122v772h-122v73h202z" />
    <glyph glyph-name="asciicircum" unicode="^" horiz-adv-x="507" 
d="M57 387v29l161 289h69l162 -289v-29h-68l-129 229l-126 -229h-69z" />
    <glyph glyph-name="underscore" unicode="_" horiz-adv-x="540" 
d="M-1 -118v68h542v-68h-542z" />
    <glyph glyph-name="grave" unicode="`" horiz-adv-x="292" 
d="M161 590l-100 112v28h76l95 -140h-71z" />
    <glyph glyph-name="a" unicode="a" horiz-adv-x="547" 
d="M218 -12c-91 0 -170 48 -170 149c0 105 72 164 213 164h129v51c0 60 -38 101 -119 101c-79 0 -118 -41 -118 -95h-78c0 96 63 168 196 168c134 0 199 -72 199 -169v-357h-48l-30 65c-31 -35 -94 -77 -174 -77zM234 61c68 0 123 39 156 72v103h-129
c-95 0 -133 -37 -133 -90c0 -59 46 -85 106 -85z" />
    <glyph glyph-name="b" unicode="b" horiz-adv-x="578" 
d="M329 -12c-77 0 -135 40 -170 80l-28 -68h-48v705h80v-254c31 37 87 75 163 75c108 0 184 -66 184 -189v-160c0 -123 -77 -189 -181 -189zM314 61c69 0 116 49 116 122v148c0 73 -47 122 -115 122c-64 0 -116 -42 -152 -81v-230c36 -39 87 -81 151 -81z" />
    <glyph glyph-name="c" unicode="c" horiz-adv-x="533" 
d="M270 -12c-132 0 -210 77 -210 191v156c0 114 78 191 210 191c127 0 207 -71 207 -184v-5h-80v6c0 64 -46 110 -127 110c-86 0 -130 -48 -130 -116v-160c0 -68 44 -116 130 -116c82 0 127 47 127 112v7h80v-6c0 -112 -81 -186 -207 -186z" />
    <glyph glyph-name="d" unicode="d" horiz-adv-x="578" 
d="M249 -12c-104 0 -181 66 -181 189v160c0 123 76 189 184 189c76 0 132 -38 163 -75v254h80v-705h-48l-28 68c-35 -40 -92 -80 -170 -80zM264 61c64 0 115 42 151 81v230c-36 39 -88 81 -152 81c-68 0 -115 -49 -115 -122v-148c0 -73 47 -122 116 -122z" />
    <glyph glyph-name="e" unicode="e" horiz-adv-x="541" 
d="M274 -12c-134 0 -214 74 -214 189v158c0 114 80 191 214 191c130 0 208 -74 208 -189v-107h-342v-51c0 -69 46 -118 134 -118c77 0 116 38 125 93h80c-9 -101 -81 -166 -205 -166zM140 295h262v42c0 67 -44 116 -131 116c-85 0 -131 -48 -131 -116v-42z" />
    <glyph glyph-name="f" unicode="f" horiz-adv-x="334" 
d="M102 0v444h-84v70h84c0 109 38 193 174 193c13 0 26 -1 35 -2v-72c-4 0 -17 1 -26 1c-68 0 -103 -26 -103 -103v-17h124v-70h-124v-444h-80z" />
    <glyph glyph-name="g" unicode="g" horiz-adv-x="578" 
d="M288 -172c-123 0 -206 63 -208 168h80c2 -50 44 -95 128 -95c86 0 127 45 127 124v88c-31 -37 -87 -75 -163 -75c-108 0 -184 66 -184 189v110c0 123 77 189 181 189c78 0 135 -40 169 -80l29 68h48v-487c0 -135 -82 -199 -207 -199zM266 111c63 0 114 41 149 80v182
c-35 39 -86 80 -149 80c-72 0 -118 -48 -118 -121v-100c0 -73 46 -121 118 -121z" />
    <glyph glyph-name="h" unicode="h" horiz-adv-x="583" 
d="M83 0v705h80v-254c35 38 91 75 166 75c100 0 177 -68 177 -193v-333h-80v324c0 89 -50 129 -114 129c-63 0 -118 -44 -149 -81v-372h-80z" />
    <glyph glyph-name="i" unicode="i" horiz-adv-x="246" 
d="M83 0v514h80v-514h-80zM83 595v110h80v-110h-80z" />
    <glyph glyph-name="j" unicode="j" horiz-adv-x="247" 
d="M12 -172c-13 0 -25 1 -34 2v71h25c54 0 81 30 81 103v510h80v-511c0 -88 -34 -175 -152 -175zM84 595v110h80v-110h-80z" />
    <glyph glyph-name="k" unicode="k" horiz-adv-x="526" 
d="M83 0v705h80v-407h88l153 216h66v-38l-148 -209l162 -229v-38h-72l-161 228h-88v-228h-80z" />
    <glyph glyph-name="l" unicode="l" horiz-adv-x="246" 
d="M83 0v705h80v-705h-80z" />
    <glyph glyph-name="m" unicode="m" horiz-adv-x="882" 
d="M83 0v514h48l28 -68c36 41 88 80 161 80c67 0 119 -31 144 -92c38 46 99 92 177 92c102 0 164 -65 164 -185v-341h-80v332c0 83 -45 121 -103 121c-56 0 -103 -37 -140 -83c2 -22 2 -43 2 -66v-304h-80v332c0 83 -45 121 -103 121c-62 0 -110 -45 -138 -81v-372h-80z" />
    <glyph glyph-name="n" unicode="n" horiz-adv-x="583" 
d="M83 0v514h48l28 -68c36 41 93 80 169 80c103 0 178 -68 178 -193v-333h-80v324c0 89 -50 129 -114 129s-118 -44 -149 -81v-372h-80z" />
    <glyph glyph-name="o" unicode="o" horiz-adv-x="547" 
d="M274 61c90 0 133 54 133 121v150c0 67 -43 121 -133 121c-88 0 -134 -53 -134 -121v-150c0 -68 46 -121 134 -121zM274 -12c-142 0 -214 83 -214 191v156c0 108 72 191 214 191s213 -83 213 -191v-156c0 -108 -71 -191 -213 -191z" />
    <glyph glyph-name="p" unicode="p" horiz-adv-x="578" 
d="M329 526c104 0 181 -66 181 -189v-160c0 -123 -76 -189 -184 -189c-76 0 -132 38 -163 75v-223h-80v674h48l28 -68c35 40 93 80 170 80zM314 61c69 0 116 49 116 122v148c0 73 -47 122 -115 122c-64 0 -116 -42 -152 -81v-230c36 -39 87 -81 151 -81z" />
    <glyph glyph-name="q" unicode="q" horiz-adv-x="578" 
d="M249 526c78 0 135 -40 170 -80l28 68h48v-674h-80v223c-31 -37 -87 -75 -163 -75c-108 0 -184 66 -184 189v160c0 123 77 189 181 189zM264 61c64 0 115 42 151 81v230c-36 39 -88 81 -152 81c-68 0 -115 -49 -115 -122v-148c0 -73 47 -122 116 -122z" />
    <glyph glyph-name="r" unicode="r" horiz-adv-x="368" 
d="M83 0v514h42l29 -68c35 39 96 80 168 80h13v-78h-11c-68 0 -121 -24 -161 -72v-376h-80z" />
    <glyph glyph-name="s" unicode="s" horiz-adv-x="546" 
d="M277 -12c-127 0 -224 62 -224 186h80c0 -78 70 -113 150 -113c75 0 120 33 120 78c0 37 -23 56 -80 71l-127 33c-70 18 -123 50 -123 132c0 87 74 151 199 151c122 0 203 -60 203 -181h-80c0 74 -55 108 -129 108c-78 0 -113 -34 -113 -73c0 -36 20 -54 73 -68l125 -31
c80 -20 132 -54 132 -136c0 -93 -78 -157 -206 -157z" />
    <glyph glyph-name="t" unicode="t" horiz-adv-x="367" 
d="M271 0c-129 0 -164 84 -164 167v277h-84v70h84v107h80v-107h132v-70h-132v-275c0 -69 32 -96 84 -96h48v-73h-48z" />
    <glyph glyph-name="u" unicode="u" horiz-adv-x="582" 
d="M499 514v-514h-48l-29 68c-35 -41 -92 -80 -168 -80c-102 0 -176 68 -176 193v333h80v-324c0 -89 49 -129 112 -129c64 0 118 44 149 81v372h80z" />
    <glyph glyph-name="v" unicode="v" horiz-adv-x="505" 
d="M215 0l-192 476v38h75l157 -406l154 406h73v-38l-192 -476h-75z" />
    <glyph glyph-name="w" unicode="w" horiz-adv-x="711" 
d="M385 417l109 -309l96 406h72v-38l-119 -476h-78l-109 293l-110 -293h-79l-119 476v38h73l97 -406l109 309h58z" />
    <glyph glyph-name="x" unicode="x" horiz-adv-x="517" 
d="M470 476l-162 -217l167 -221v-38h-72l-146 198l-142 -198h-72v38l165 221l-163 217v38h73l141 -192l138 192h73v-38z" />
    <glyph glyph-name="y" unicode="y" horiz-adv-x="505" 
d="M159 -160v30l57 130l-193 476v38h75l157 -406l154 406h73v-38l-256 -636h-67z" />
    <glyph glyph-name="z" unicode="z" horiz-adv-x="520" 
d="M53 0v70l300 374h-288v70h385v-70l-302 -374h310v-70h-405z" />
    <glyph glyph-name="braceleft" unicode="{" horiz-adv-x="327" 
d="M299 -160c-110 0 -180 64 -180 180v169c0 55 -19 79 -59 79h-27v74h27c43 0 59 28 59 79v157c0 116 70 180 180 180v-73c-63 0 -100 -42 -100 -103v-182c0 -55 -28 -84 -57 -95c29 -11 57 -40 57 -95v-194c0 -61 37 -103 100 -103v-73z" />
    <glyph glyph-name="bar" unicode="|" horiz-adv-x="266" 
d="M93 -100v858h80v-858h-80z" />
    <glyph glyph-name="braceright" unicode="}" horiz-adv-x="327" 
d="M28 -160v73c63 0 100 42 100 103v194c0 55 28 84 57 95c-29 11 -57 40 -57 95v182c0 61 -37 103 -100 103v73c110 0 180 -64 180 -180v-157c0 -51 16 -79 59 -79h27v-74h-27c-40 0 -59 -24 -59 -79v-169c0 -116 -70 -180 -180 -180z" />
    <glyph glyph-name="asciitilde" unicode="~" horiz-adv-x="479" 
d="M98 247l-51 38c39 64 74 97 118 97c29 0 49 -11 70 -26l21 -15c21 -15 37 -23 55 -23c21 0 36 14 70 62l52 -37c-38 -65 -73 -99 -118 -99c-25 0 -44 9 -64 22l-24 16c-23 15 -38 27 -56 27c-25 0 -40 -15 -73 -62z" />
    <glyph glyph-name="nbspace" unicode="&#xa0;" horiz-adv-x="249" 
 />
    <glyph glyph-name="exclamdown" unicode="&#xa1;" horiz-adv-x="270" 
d="M95 -160v458h80v-458h-80zM93 391v123h84v-123h-84z" />
    <glyph glyph-name="cent" unicode="&#xa2;" horiz-adv-x="536" 
d="M299 700v-87c111 -9 181 -79 181 -182v-6h-80v6c0 58 -38 100 -103 108v-387c66 9 103 51 103 109v8h80v-6c0 -104 -71 -176 -181 -185v-78h-60v79c-112 11 -179 84 -179 189v156c0 103 67 177 179 189v87h60zM140 266c0 -60 34 -104 101 -113v386
c-76 -13 -101 -63 -101 -133v-140z" />
    <glyph glyph-name="sterling" unicode="&#xa3;" horiz-adv-x="577" 
d="M43 0v73h74v247h-74v73h74v131c0 114 78 191 210 191c127 0 207 -72 207 -191v-32h-80v32c0 72 -45 118 -127 118c-86 0 -130 -48 -130 -116v-133h166v-73h-166v-247h337v-73h-491z" />
    <glyph glyph-name="yen" unicode="&#xa5;" horiz-adv-x="586" 
d="M252 0v111h-187v73h187v96h-187v73h144l-196 318v29h76l204 -341l204 341h75v-29l-197 -318h144v-73h-187v-96h187v-73h-187v-111h-80z" />
    <glyph glyph-name="brokenbar" unicode="&#xa6;" horiz-adv-x="266" 
d="M93 -100v344h80v-344h-80zM93 435v323h80v-323h-80z" />
    <glyph glyph-name="section" unicode="&#xa7;" horiz-adv-x="574" 
d="M290 -172c-128 0 -237 64 -237 200h77c0 -96 85 -127 166 -127c77 0 130 30 130 92c0 49 -47 68 -105 89l-64 23c-118 43 -188 87 -188 179c0 58 30 109 66 148c-40 29 -61 59 -61 116c0 90 78 159 209 159c126 0 226 -57 226 -194h-77c0 90 -79 121 -152 121
s-126 -30 -126 -87c0 -53 48 -71 108 -93l64 -24c118 -44 188 -86 188 -176c0 -58 -35 -110 -70 -148c42 -31 65 -59 65 -118c0 -88 -79 -160 -219 -160zM386 136c31 36 50 75 50 108c0 59 -65 91 -131 116l-111 42c-30 -37 -45 -75 -45 -108c0 -60 63 -91 125 -115z" />
    <glyph glyph-name="dieresis" unicode="&#xa8;" horiz-adv-x="376" 
d="M54 595v110h80v-110h-80zM243 595v110h80v-110h-80z" />
    <glyph glyph-name="copyright" unicode="&#xa9;" horiz-adv-x="866" 
d="M433 140c-113 0 -174 63 -174 163v95c0 100 61 163 174 163c94 0 166 -51 166 -153v-3h-64v3c0 63 -48 95 -103 95c-72 0 -109 -39 -109 -100v-104c0 -61 37 -101 109 -101c55 0 103 32 103 96v2h64v-2c0 -102 -72 -154 -166 -154zM433 -15c-203 0 -360 159 -360 365
s157 365 360 365s360 -159 360 -365s-157 -365 -360 -365zM433 41c169 0 301 134 301 309s-132 309 -301 309c-170 0 -301 -134 -301 -309s131 -309 301 -309z" />
    <glyph glyph-name="ordfeminine" unicode="&#xaa;" horiz-adv-x="435" 
d="M176 353c-66 0 -120 30 -120 100c0 69 44 106 148 106h81v28c0 34 -22 55 -68 55c-45 0 -67 -23 -67 -57h-77c0 69 45 120 143 120c99 0 144 -47 144 -113v-234h-46l-18 40c-24 -21 -66 -45 -120 -45zM192 416c38 0 74 22 93 40v52h-75c-54 0 -78 -19 -78 -48
c0 -32 26 -44 60 -44z" />
    <glyph glyph-name="guillemotleft" unicode="&#xab;" horiz-adv-x="532" 
d="M194 63l-156 209l156 208h70v-27l-137 -181l137 -182v-27h-70zM400 63l-156 209l156 208h70v-27l-137 -181l137 -182v-27h-70z" />
    <glyph glyph-name="logicalnot" unicode="&#xac;" horiz-adv-x="541" 
d="M412 200v188h-355v67h427v-255h-72z" />
    <glyph glyph-name="uni00AD" unicode="&#xad;" horiz-adv-x="438" 
d="M63 276v74h313v-74h-313z" />
    <glyph glyph-name="registered" unicode="&#xae;" horiz-adv-x="408" 
d="M136 455v177h79c39 0 62 -20 62 -54c0 -30 -17 -49 -42 -55l42 -56v-12h-28l-47 64h-36v-64h-30zM166 546h49c19 0 33 10 33 29s-14 28 -33 28h-49v-57zM204 371c-93 0 -167 74 -167 172s74 172 167 172s167 -74 167 -172s-74 -172 -167 -172zM204 400
c76 0 136 62 136 143s-60 143 -136 143s-136 -62 -136 -143s60 -143 136 -143z" />
    <glyph glyph-name="macron" unicode="&#xaf;" horiz-adv-x="435" 
d="M75 617v66h285v-66h-285z" />
    <glyph glyph-name="degree" unicode="&#xb0;" horiz-adv-x="387" 
d="M193 418c53 0 80 35 80 78v81c0 44 -27 78 -80 78c-52 0 -79 -34 -79 -78v-81c0 -44 27 -78 79 -78zM193 358c-95 0 -150 55 -150 147v63c0 92 55 147 150 147c96 0 151 -55 151 -147v-63c0 -92 -55 -147 -151 -147z" />
    <glyph glyph-name="plusminus" unicode="&#xb1;" horiz-adv-x="541" 
d="M234 155v175h-177v67h177v170h73v-170h177v-67h-177v-175h-73zM57 11v68h427v-68h-427z" />
    <glyph glyph-name="twosuperior" unicode="&#xb2;" horiz-adv-x="315" 
d="M38 358v61l105 86c35 29 57 47 57 79c0 31 -20 50 -49 50c-30 0 -52 -20 -52 -57h-66c0 83 53 128 122 128c70 0 116 -46 116 -111c0 -64 -36 -96 -78 -130l-53 -42h135v-64h-237z" />
    <glyph glyph-name="threesuperior" unicode="&#xb3;" horiz-adv-x="327" 
d="M164 353c-78 0 -130 48 -131 117h64c1 -32 26 -53 66 -53s58 19 58 44s-22 42 -55 42h-39v55h39c30 0 46 21 46 42s-18 41 -54 41c-35 0 -58 -20 -58 -56h-62c0 76 49 120 122 120c76 0 118 -43 118 -95c0 -36 -18 -60 -44 -72c30 -10 55 -38 55 -78
c0 -63 -46 -107 -125 -107z" />
    <glyph glyph-name="acute" unicode="&#xb4;" horiz-adv-x="292" 
d="M232 702l-100 -112h-71l95 140h76v-28z" />
    <glyph glyph-name="mu" unicode="&#xb5;" horiz-adv-x="587" 
d="M504 514v-514h-48l-29 68c-35 -41 -82 -80 -158 -80c-36 0 -82 18 -106 60v-208h-80v674h80v-324c0 -89 49 -129 112 -129c64 0 118 44 149 81v372h80z" />
    <glyph glyph-name="paragraph" unicode="&#xb6;" horiz-adv-x="598" 
d="M218 -87v455c-108 0 -175 58 -175 162v8c0 106 67 162 175 162h286v-787h-76v714h-134v-714h-76z" />
    <glyph glyph-name="periodcentered" unicode="&#xb7;" horiz-adv-x="243" 
d="M75 250v132h94v-132h-94z" />
    <glyph glyph-name="cedilla" unicode="&#xb8;" horiz-adv-x="293" 
d="M68 -132l96 132h71l-91 -160h-76v28z" />
    <glyph glyph-name="onesuperior" unicode="&#xb9;" horiz-adv-x="242" 
d="M91 358v247h-61v38l91 57h45v-342h-75z" />
    <glyph glyph-name="ordmasculine" unicode="&#xba;" horiz-adv-x="406" 
d="M203 420c54 0 83 37 83 82v54c0 46 -29 82 -83 82s-83 -36 -83 -82v-54c0 -46 29 -82 83 -82zM203 353c-91 0 -158 51 -158 149v54c0 98 67 149 158 149c92 0 158 -51 158 -149v-54c0 -98 -66 -149 -158 -149z" />
    <glyph glyph-name="guillemotright" unicode="&#xbb;" horiz-adv-x="532" 
d="M288 272l-156 -209h-70v27l137 182l-137 181v27h70zM494 272l-156 -209h-70v27l137 182l-137 181v27h70z" />
    <glyph glyph-name="onequarter" unicode="&#xbc;" horiz-adv-x="694" 
d="M79 0v29l399 671h64v-29l-399 -671h-64zM91 358v247h-61v38l91 57h45v-342h-75zM498 342h55v-36l-103 -177h97v71h75v-71h52v-64h-52v-65h-75v65h-181v53z" />
    <glyph glyph-name="onehalf" unicode="&#xbd;" horiz-adv-x="705" 
d="M79 0v29l399 671h64v-29l-399 -671h-64zM91 358v247h-61v38l91 57h45v-342h-75zM428 0v61l105 86c35 29 57 47 57 79c0 31 -20 50 -49 50c-30 0 -52 -20 -52 -57h-66c0 83 53 128 122 128c70 0 116 -46 116 -111c0 -64 -36 -96 -78 -130l-53 -42h135v-64h-237z" />
    <glyph glyph-name="threequarters" unicode="&#xbe;" horiz-adv-x="764" 
d="M150 0v29l399 671h64v-29l-399 -671h-64zM569 342h55v-36l-103 -177h97v71h75v-71h52v-64h-52v-65h-75v65h-181v53zM164 353c-78 0 -130 48 -131 117h64c1 -32 26 -53 66 -53s58 19 58 44s-22 42 -55 42h-39v55h39c30 0 46 21 46 42s-18 41 -54 41c-35 0 -58 -20 -58 -56
h-62c0 76 49 120 122 120c76 0 118 -43 118 -95c0 -36 -18 -60 -44 -72c30 -10 55 -38 55 -78c0 -63 -46 -107 -125 -107z" />
    <glyph glyph-name="questiondown" unicode="&#xbf;" horiz-adv-x="513" 
d="M298 298v-97l-80 -49c-60 -36 -102 -67 -102 -141c0 -56 41 -110 132 -110c89 0 148 53 148 150h77c0 -147 -98 -223 -225 -223c-143 0 -212 86 -212 183c0 104 78 155 135 190l47 29v68h80zM300 514v-123h-85v123h85z" />
    <glyph glyph-name="Agrave" unicode="&#xc0;" horiz-adv-x="656" 
d="M23 0v29l261 671h87l262 -671v-29h-86l-70 186h-302l-72 -186h-80zM201 260h249l-124 324zM291 762l-108 121v30h82l102 -151h-76z" />
    <glyph glyph-name="Aacute" unicode="&#xc1;" horiz-adv-x="656" 
d="M23 0v29l261 671h87l262 -671v-29h-86l-70 186h-302l-72 -186h-80zM201 260h249l-124 324zM481 883l-107 -121h-77l102 151h82v-30z" />
    <glyph glyph-name="Acircumflex" unicode="&#xc2;" horiz-adv-x="656" 
d="M23 0v29l261 671h87l262 -671v-29h-86l-70 186h-302l-72 -186h-80zM201 260h249l-124 324zM364 913l111 -122v-29h-71l-78 91l-77 -91h-70v29l111 122h74z" />
    <glyph glyph-name="Atilde" unicode="&#xc3;" horiz-adv-x="656" 
d="M23 0v29l261 671h87l262 -671v-29h-86l-70 186h-302l-72 -186h-80zM201 260h249l-124 324zM194 763l-49 33c37 62 68 96 110 96c26 0 49 -13 69 -26l21 -13c20 -14 36 -23 53 -23c19 0 33 13 65 59l49 -33c-36 -62 -67 -96 -111 -96c-25 0 -46 9 -65 23l-20 13
c-20 13 -37 26 -56 26c-21 0 -34 -15 -66 -59z" />
    <glyph glyph-name="Adieresis" unicode="&#xc4;" horiz-adv-x="656" 
d="M23 0v29l261 671h87l262 -671v-29h-86l-70 186h-302l-72 -186h-80zM201 260h249l-124 324zM183 768v118h86v-118h-86zM385 768v118h86v-118h-86z" />
    <glyph glyph-name="Aring" unicode="&#xc5;" horiz-adv-x="656" 
d="M23 0v29l261 671h87l262 -671v-29h-86l-70 186h-302l-72 -186h-80zM201 260h249l-124 324zM218 846c0 59 49 106 108 106c60 0 109 -47 109 -106c0 -57 -49 -104 -109 -104c-59 0 -108 47 -108 104zM270 846c0 -29 26 -54 56 -54c31 0 57 25 57 54c0 31 -26 55 -57 55
c-30 0 -56 -24 -56 -55z" />
    <glyph glyph-name="AE" unicode="&#xc6;" horiz-adv-x="972" 
d="M13 0v29l422 671h482v-77h-349v-234h302v-74h-302v-238h350v-77h-437v186h-272l-118 -186h-78zM255 260h226v359z" />
    <glyph glyph-name="Ccedilla" unicode="&#xc7;" horiz-adv-x="659" 
d="M209 -132l88 120c-143 15 -224 104 -224 249v226c0 159 99 252 268 252c135 0 255 -75 255 -238v-10h-87v10c0 109 -88 158 -169 158c-118 0 -180 -62 -180 -166v-238c0 -104 62 -166 180 -166c81 0 169 49 169 158v10h87v-10c0 -152 -104 -227 -228 -237l-83 -146h-76
v28z" />
    <glyph glyph-name="Egrave" unicode="&#xc8;" horiz-adv-x="584" 
d="M93 0v700h436v-77h-349v-232h302v-77h-302v-237h350v-77h-437zM301 762l-108 121v30h82l102 -151h-76z" />
    <glyph glyph-name="Eacute" unicode="&#xc9;" horiz-adv-x="584" 
d="M93 0v700h436v-77h-349v-232h302v-77h-302v-237h350v-77h-437zM430 883l-107 -121h-77l102 151h82v-30z" />
    <glyph glyph-name="Ecircumflex" unicode="&#xca;" horiz-adv-x="584" 
d="M93 0v700h436v-77h-349v-232h302v-77h-302v-237h350v-77h-437zM351 913l111 -122v-29h-71l-78 91l-77 -91h-70v29l111 122h74z" />
    <glyph glyph-name="Edieresis" unicode="&#xcb;" horiz-adv-x="584" 
d="M93 0v700h436v-77h-349v-232h302v-77h-302v-237h350v-77h-437zM166 768v118h86v-118h-86zM368 768v118h86v-118h-86z" />
    <glyph glyph-name="Igrave" unicode="&#xcc;" horiz-adv-x="273" 
d="M93 0v700h87v-700h-87zM103 762l-108 121v30h82l102 -151h-76z" />
    <glyph glyph-name="Iacute" unicode="&#xcd;" horiz-adv-x="273" 
d="M93 0v700h87v-700h-87zM285 883l-107 -121h-77l102 151h82v-30z" />
    <glyph glyph-name="Icircumflex" unicode="&#xce;" horiz-adv-x="273" 
d="M93 0v700h87v-700h-87zM174 913l111 -122v-29h-71l-78 91l-77 -91h-70v29l111 122h74z" />
    <glyph glyph-name="Idieresis" unicode="&#xcf;" horiz-adv-x="273" 
d="M93 0v700h87v-700h-87zM-7 768v119h86v-119h-86zM196 768v119h86v-119h-86z" />
    <glyph glyph-name="Eth" unicode="&#xd0;" horiz-adv-x="702" 
d="M203 77h157c116 0 182 67 182 165v216c0 98 -66 165 -182 165h-157v-235h173v-74h-173v-237zM116 0v314h-96v74h96v312h244c164 0 269 -88 269 -244v-212c0 -156 -105 -244 -269 -244h-244z" />
    <glyph glyph-name="Ntilde" unicode="&#xd1;" horiz-adv-x="701" 
d="M93 0v700h80l348 -539v539h87v-700h-80l-348 538v-538h-87zM219 763l-49 33c37 62 68 96 110 96c26 0 49 -13 69 -26l21 -13c20 -14 36 -23 53 -23c19 0 33 13 65 59l49 -33c-36 -62 -67 -96 -111 -96c-25 0 -46 9 -65 23l-20 13c-20 13 -37 26 -56 26
c-21 0 -34 -15 -66 -59z" />
    <glyph glyph-name="Ograve" unicode="&#xd2;" horiz-adv-x="684" 
d="M342 65c117 0 182 69 182 167v236c0 98 -65 167 -182 167c-118 0 -182 -69 -182 -167v-236c0 -98 64 -167 182 -167zM342 -15c-164 0 -269 92 -269 251v228c0 159 105 251 269 251s269 -92 269 -251v-228c0 -159 -105 -251 -269 -251zM322 762l-108 121v30h82l102 -151
h-76z" />
    <glyph glyph-name="Oacute" unicode="&#xd3;" horiz-adv-x="684" 
d="M342 65c117 0 182 69 182 167v236c0 98 -65 167 -182 167c-118 0 -182 -69 -182 -167v-236c0 -98 64 -167 182 -167zM342 -15c-164 0 -269 92 -269 251v228c0 159 105 251 269 251s269 -92 269 -251v-228c0 -159 -105 -251 -269 -251zM488 883l-107 -121h-77l102 151h82
v-30z" />
    <glyph glyph-name="Ocircumflex" unicode="&#xd4;" horiz-adv-x="684" 
d="M342 65c117 0 182 69 182 167v236c0 98 -65 167 -182 167c-118 0 -182 -69 -182 -167v-236c0 -98 64 -167 182 -167zM342 -15c-164 0 -269 92 -269 251v228c0 159 105 251 269 251s269 -92 269 -251v-228c0 -159 -105 -251 -269 -251zM379 913l111 -122v-29h-71l-78 91
l-77 -91h-70v29l111 122h74z" />
    <glyph glyph-name="Otilde" unicode="&#xd5;" horiz-adv-x="684" 
d="M342 65c117 0 182 69 182 167v236c0 98 -65 167 -182 167c-118 0 -182 -69 -182 -167v-236c0 -98 64 -167 182 -167zM342 -15c-164 0 -269 92 -269 251v228c0 159 105 251 269 251s269 -92 269 -251v-228c0 -159 -105 -251 -269 -251zM213 763l-49 33c37 62 68 96 110 96
c26 0 49 -13 69 -26l21 -13c20 -14 36 -23 53 -23c19 0 33 13 65 59l49 -33c-36 -62 -67 -96 -111 -96c-25 0 -46 9 -65 23l-20 13c-20 13 -37 26 -56 26c-21 0 -34 -15 -66 -59z" />
    <glyph glyph-name="Odieresis" unicode="&#xd6;" horiz-adv-x="684" 
d="M342 65c117 0 182 69 182 167v236c0 98 -65 167 -182 167c-118 0 -182 -69 -182 -167v-236c0 -98 64 -167 182 -167zM342 -15c-164 0 -269 92 -269 251v228c0 159 105 251 269 251s269 -92 269 -251v-228c0 -159 -105 -251 -269 -251zM199 768v118h86v-118h-86zM401 768
v118h86v-118h-86z" />
    <glyph glyph-name="multiply" unicode="&#xd7;" horiz-adv-x="518" 
d="M109 109l-52 51l150 151l-150 150l52 52l150 -150l150 150l52 -52l-151 -150l151 -151l-52 -51l-150 150z" />
    <glyph glyph-name="Oslash" unicode="&#xd8;" horiz-adv-x="683" 
d="M342 -15c-29 0 -56 3 -81 9l-32 -94h-65v29l31 88c-77 40 -122 115 -122 219v228c0 159 105 251 269 251c33 0 64 -5 93 -12l33 97h65v-29l-33 -95c70 -41 110 -114 110 -212v-228c0 -159 -104 -251 -268 -251zM160 232c0 -59 22 -105 65 -134l184 527
c-19 6 -42 10 -67 10c-118 0 -182 -69 -182 -167v-236zM342 65c117 0 182 69 182 167v236c0 53 -19 96 -55 126l-182 -523c16 -4 35 -6 55 -6z" />
    <glyph glyph-name="Ugrave" unicode="&#xd9;" horiz-adv-x="681" 
d="M341 -15c-151 0 -258 86 -258 243v472h87v-475c0 -97 63 -160 171 -160c107 0 170 62 170 160v475h87v-472c0 -156 -107 -243 -257 -243zM326 762l-108 121v30h82l102 -151h-76z" />
    <glyph glyph-name="Uacute" unicode="&#xda;" horiz-adv-x="681" 
d="M341 -15c-151 0 -258 86 -258 243v472h87v-475c0 -97 63 -160 171 -160c107 0 170 62 170 160v475h87v-472c0 -156 -107 -243 -257 -243zM478 883l-107 -121h-77l102 151h82v-30z" />
    <glyph glyph-name="Ucircumflex" unicode="&#xdb;" horiz-adv-x="681" 
d="M341 -15c-151 0 -258 86 -258 243v472h87v-475c0 -97 63 -160 171 -160c107 0 170 62 170 160v475h87v-472c0 -156 -107 -243 -257 -243zM378 913l111 -122v-29h-71l-78 91l-77 -91h-70v29l111 122h74z" />
    <glyph glyph-name="Udieresis" unicode="&#xdc;" horiz-adv-x="681" 
d="M341 -15c-151 0 -258 86 -258 243v472h87v-475c0 -97 63 -160 171 -160c107 0 170 62 170 160v475h87v-472c0 -156 -107 -243 -257 -243zM197 768v118h86v-118h-86zM399 768v118h86v-118h-86z" />
    <glyph glyph-name="Yacute" unicode="&#xdd;" horiz-adv-x="609" 
d="M261 0v278l-248 393v29h86l206 -335l211 335h79v-29l-247 -390v-281h-87zM441 883l-107 -121h-77l102 151h82v-30z" />
    <glyph glyph-name="Thorn" unicode="&#xde;" horiz-adv-x="627" 
d="M93 0v700h87v-137h206c121 0 193 -82 193 -211c0 -128 -72 -210 -193 -210h-206v-142h-87zM180 219h191c70 0 119 47 119 133c0 87 -49 135 -119 135h-191v-268z" />
    <glyph glyph-name="germandbls" unicode="&#xdf;" horiz-adv-x="591" 
d="M83 0v467c0 153 81 240 216 240c132 0 205 -80 205 -177c0 -75 -31 -122 -89 -145c65 -19 123 -85 123 -177c0 -133 -86 -208 -223 -208c-31 0 -58 4 -67 6v71s31 -4 61 -4c101 0 149 57 149 139c0 85 -56 136 -147 136h-53v70h46c80 0 116 41 116 107
c0 60 -39 109 -120 109c-88 0 -137 -56 -137 -159v-475h-80z" />
    <glyph glyph-name="agrave" unicode="&#xe0;" horiz-adv-x="547" 
d="M218 -12c-91 0 -170 48 -170 149c0 105 72 164 213 164h129v51c0 60 -38 101 -119 101c-79 0 -118 -41 -118 -95h-78c0 96 63 168 196 168c134 0 199 -72 199 -169v-357h-48l-30 65c-31 -35 -94 -77 -174 -77zM234 61c68 0 123 39 156 72v103h-129
c-95 0 -133 -37 -133 -90c0 -59 46 -85 106 -85zM276 590l-100 112v28h76l95 -140h-71z" />
    <glyph glyph-name="aacute" unicode="&#xe1;" horiz-adv-x="547" 
d="M218 -12c-91 0 -170 48 -170 149c0 105 72 164 213 164h129v51c0 60 -38 101 -119 101c-79 0 -118 -41 -118 -95h-78c0 96 63 168 196 168c134 0 199 -72 199 -169v-357h-48l-30 65c-31 -35 -94 -77 -174 -77zM234 61c68 0 123 39 156 72v103h-129
c-95 0 -133 -37 -133 -90c0 -59 46 -85 106 -85zM397 702l-100 -112h-71l95 140h76v-28z" />
    <glyph glyph-name="acircumflex" unicode="&#xe2;" horiz-adv-x="547" 
d="M218 -12c-91 0 -170 48 -170 149c0 105 72 164 213 164h129v51c0 60 -38 101 -119 101c-79 0 -118 -41 -118 -95h-78c0 96 63 168 196 168c134 0 199 -72 199 -169v-357h-48l-30 65c-31 -35 -94 -77 -174 -77zM234 61c68 0 123 39 156 72v103h-129
c-95 0 -133 -37 -133 -90c0 -59 46 -85 106 -85zM310 730l104 -113v-27h-67l-72 84l-72 -84h-66v27l104 113h69z" />
    <glyph glyph-name="atilde" unicode="&#xe3;" horiz-adv-x="547" 
d="M218 -12c-91 0 -170 48 -170 149c0 105 72 164 213 164h129v51c0 60 -38 101 -119 101c-79 0 -118 -41 -118 -95h-78c0 96 63 168 196 168c134 0 199 -72 199 -169v-357h-48l-30 65c-31 -35 -94 -77 -174 -77zM234 61c68 0 123 39 156 72v103h-129
c-95 0 -133 -37 -133 -90c0 -59 46 -85 106 -85zM155 602l-48 32c36 60 66 93 107 93c26 0 48 -12 68 -25l20 -13c19 -13 35 -22 52 -22c18 0 32 13 63 57l48 -32c-35 -60 -66 -93 -108 -93c-25 0 -45 9 -64 22l-19 13c-20 13 -36 25 -55 25c-20 0 -33 -14 -64 -57z" />
    <glyph glyph-name="adieresis" unicode="&#xe4;" horiz-adv-x="547" 
d="M218 -12c-91 0 -170 48 -170 149c0 105 72 164 213 164h129v51c0 60 -38 101 -119 101c-79 0 -118 -41 -118 -95h-78c0 96 63 168 196 168c134 0 199 -72 199 -169v-357h-48l-30 65c-31 -35 -94 -77 -174 -77zM234 61c68 0 123 39 156 72v103h-129
c-95 0 -133 -37 -133 -90c0 -59 46 -85 106 -85zM136 595v110h80v-110h-80zM325 595v110h80v-110h-80z" />
    <glyph glyph-name="aring" unicode="&#xe5;" horiz-adv-x="547" 
d="M218 -12c-91 0 -170 48 -170 149c0 105 72 164 213 164h129v51c0 60 -38 101 -119 101c-79 0 -118 -41 -118 -95h-78c0 96 63 168 196 168c134 0 199 -72 199 -169v-357h-48l-30 65c-31 -35 -94 -77 -174 -77zM234 61c68 0 123 39 156 72v103h-129
c-95 0 -133 -37 -133 -90c0 -59 46 -85 106 -85zM173 667c0 55 46 99 101 99c56 0 102 -44 102 -99c0 -53 -46 -97 -102 -97c-55 0 -101 44 -101 97zM222 667c0 -27 24 -50 52 -50c29 0 53 23 53 50c0 29 -24 52 -53 52c-28 0 -52 -23 -52 -52z" />
    <glyph glyph-name="ae" unicode="&#xe6;" horiz-adv-x="871" 
d="M218 -12c-93 0 -170 48 -170 148c0 104 72 162 213 162h129v53c0 60 -38 102 -119 102c-79 0 -118 -41 -118 -95h-78c0 96 63 168 196 168c82 0 136 -30 164 -74c33 45 90 74 168 74c131 0 209 -74 209 -189v-103h-342v-56c0 -69 47 -117 133 -117c78 0 117 38 126 93h80
c-9 -101 -81 -166 -206 -166c-99 0 -164 41 -194 102c-37 -54 -103 -102 -191 -102zM234 62c71 0 127 41 156 83v89h-129c-95 0 -133 -36 -133 -89c0 -58 46 -83 106 -83zM470 298h262v38c0 67 -44 117 -131 117c-85 0 -131 -49 -131 -117v-38z" />
    <glyph glyph-name="ccedilla" unicode="&#xe7;" horiz-adv-x="533" 
d="M139 -132l89 123c-106 14 -168 86 -168 188v156c0 114 78 191 210 191c127 0 207 -71 207 -184v-5h-80v6c0 64 -46 110 -127 110c-86 0 -130 -48 -130 -116v-160c0 -68 44 -116 130 -116c82 0 127 47 127 112v7h80v-6c0 -103 -69 -174 -177 -184l-85 -150h-76v28z" />
    <glyph glyph-name="egrave" unicode="&#xe8;" horiz-adv-x="541" 
d="M274 -12c-134 0 -214 74 -214 189v158c0 114 80 191 214 191c130 0 208 -74 208 -189v-107h-342v-51c0 -69 46 -118 134 -118c77 0 116 38 125 93h80c-9 -101 -81 -166 -205 -166zM140 295h262v42c0 67 -44 116 -131 116c-85 0 -131 -48 -131 -116v-42zM267 590l-100 112
v28h76l95 -140h-71z" />
    <glyph glyph-name="eacute" unicode="&#xe9;" horiz-adv-x="541" 
d="M274 -12c-134 0 -214 74 -214 189v158c0 114 80 191 214 191c130 0 208 -74 208 -189v-107h-342v-51c0 -69 46 -118 134 -118c77 0 116 38 125 93h80c-9 -101 -81 -166 -205 -166zM140 295h262v42c0 67 -44 116 -131 116c-85 0 -131 -48 -131 -116v-42zM379 702
l-100 -112h-71l95 140h76v-28z" />
    <glyph glyph-name="ecircumflex" unicode="&#xea;" horiz-adv-x="541" 
d="M274 -12c-134 0 -214 74 -214 189v158c0 114 80 191 214 191c130 0 208 -74 208 -189v-107h-342v-51c0 -69 46 -118 134 -118c77 0 116 38 125 93h80c-9 -101 -81 -166 -205 -166zM140 295h262v42c0 67 -44 116 -131 116c-85 0 -131 -48 -131 -116v-42zM309 730l104 -113
v-27h-67l-72 84l-72 -84h-66v27l104 113h69z" />
    <glyph glyph-name="edieresis" unicode="&#xeb;" horiz-adv-x="541" 
d="M274 -12c-134 0 -214 74 -214 189v158c0 114 80 191 214 191c130 0 208 -74 208 -189v-107h-342v-51c0 -69 46 -118 134 -118c77 0 116 38 125 93h80c-9 -101 -81 -166 -205 -166zM140 295h262v42c0 67 -44 116 -131 116c-85 0 -131 -48 -131 -116v-42zM138 595v110h80
v-110h-80zM327 595v110h80v-110h-80z" />
    <glyph glyph-name="igrave" unicode="&#xec;" horiz-adv-x="246" 
d="M89 588l-100 112v28h76l95 -140h-71zM83 0v514h80v-514h-80z" />
    <glyph glyph-name="iacute" unicode="&#xed;" horiz-adv-x="246" 
d="M259 702l-100 -112h-71l95 140h76v-28zM83 0v514h80v-514h-80z" />
    <glyph glyph-name="icircumflex" unicode="&#xee;" horiz-adv-x="246" 
d="M83 0v514h80v-514h-80zM158 730l104 -113v-27h-67l-72 84l-72 -84h-66v27l104 113h69z" />
    <glyph glyph-name="idieresis" unicode="&#xef;" horiz-adv-x="246" 
d="M-11 595v110h80v-110h-80zM178 595v110h80v-110h-80zM83 0v514h80v-514h-80z" />
    <glyph glyph-name="eth" unicode="&#xf0;" horiz-adv-x="555" 
d="M276 -12c-134 0 -214 77 -214 191v99c0 123 76 190 184 190c71 0 113 -32 147 -63c-19 45 -48 83 -85 129h-165v56h120l-62 77v38h72l90 -115h116v-56h-74c57 -77 85 -130 85 -236v-121c0 -115 -81 -189 -214 -189zM276 61c88 0 134 53 134 121v137
c-35 39 -82 76 -144 76c-75 0 -124 -49 -124 -122v-91c0 -67 44 -121 134 -121z" />
    <glyph glyph-name="ntilde" unicode="&#xf1;" horiz-adv-x="583" 
d="M83 0v514h48l28 -68c36 41 93 80 169 80c103 0 178 -68 178 -193v-333h-80v324c0 89 -50 129 -114 129s-118 -44 -149 -81v-372h-80zM173 602l-48 32c36 60 66 93 107 93c26 0 48 -12 68 -25l20 -13c19 -13 35 -22 52 -22c18 0 32 13 63 57l48 -32
c-35 -60 -66 -93 -108 -93c-25 0 -45 9 -64 22l-19 13c-20 13 -36 25 -55 25c-20 0 -33 -14 -64 -57z" />
    <glyph glyph-name="ograve" unicode="&#xf2;" horiz-adv-x="547" 
d="M274 61c90 0 133 54 133 121v150c0 67 -43 121 -133 121c-88 0 -134 -53 -134 -121v-150c0 -68 46 -121 134 -121zM274 -12c-142 0 -214 83 -214 191v156c0 108 72 191 214 191s213 -83 213 -191v-156c0 -108 -71 -191 -213 -191zM255 590l-100 112v28h76l95 -140h-71z
" />
    <glyph glyph-name="oacute" unicode="&#xf3;" horiz-adv-x="547" 
d="M274 61c90 0 133 54 133 121v150c0 67 -43 121 -133 121c-88 0 -134 -53 -134 -121v-150c0 -68 46 -121 134 -121zM274 -12c-142 0 -214 83 -214 191v156c0 108 72 191 214 191s213 -83 213 -191v-156c0 -108 -71 -191 -213 -191zM395 702l-100 -112h-71l95 140h76v-28z
" />
    <glyph glyph-name="ocircumflex" unicode="&#xf4;" horiz-adv-x="547" 
d="M274 61c90 0 133 54 133 121v150c0 67 -43 121 -133 121c-88 0 -134 -53 -134 -121v-150c0 -68 46 -121 134 -121zM274 -12c-142 0 -214 83 -214 191v156c0 108 72 191 214 191s213 -83 213 -191v-156c0 -108 -71 -191 -213 -191zM308 730l104 -113v-27h-67l-72 84
l-72 -84h-66v27l104 113h69z" />
    <glyph glyph-name="otilde" unicode="&#xf5;" horiz-adv-x="547" 
d="M274 61c90 0 133 54 133 121v150c0 67 -43 121 -133 121c-88 0 -134 -53 -134 -121v-150c0 -68 46 -121 134 -121zM274 -12c-142 0 -214 83 -214 191v156c0 108 72 191 214 191s213 -83 213 -191v-156c0 -108 -71 -191 -213 -191zM143 602l-48 32c36 60 66 93 107 93
c26 0 48 -12 68 -25l20 -13c19 -13 35 -22 52 -22c18 0 32 13 63 57l48 -32c-35 -60 -66 -93 -108 -93c-25 0 -45 9 -64 22l-19 13c-20 13 -36 25 -55 25c-20 0 -33 -14 -64 -57z" />
    <glyph glyph-name="odieresis" unicode="&#xf6;" horiz-adv-x="547" 
d="M274 61c90 0 133 54 133 121v150c0 67 -43 121 -133 121c-88 0 -134 -53 -134 -121v-150c0 -68 46 -121 134 -121zM274 -12c-142 0 -214 83 -214 191v156c0 108 72 191 214 191s213 -83 213 -191v-156c0 -108 -71 -191 -213 -191zM138 595v110h80v-110h-80zM327 595v110
h80v-110h-80z" />
    <glyph glyph-name="divide" unicode="&#xf7;" horiz-adv-x="541" 
d="M225 85v119h91v-119h-91zM57 279v68h427v-68h-427zM225 422v119h91v-119h-91z" />
    <glyph glyph-name="oslash" unicode="&#xf8;" horiz-adv-x="550" 
d="M274 -12c-33 0 -63 5 -88 13l-62 -127h-64v38l61 124c-41 34 -61 85 -61 143v156c0 108 71 191 213 191c31 0 60 -4 84 -12l66 132h64v-38l-63 -128c42 -35 63 -87 63 -145v-156c0 -108 -70 -191 -213 -191zM274 61c90 0 133 54 133 121v141c0 34 -5 61 -25 86l-167 -338
c16 -7 36 -10 59 -10zM140 182c0 -28 7 -53 23 -72l165 335c-15 5 -34 8 -55 8c-88 0 -133 -53 -133 -121v-150z" />
    <glyph glyph-name="ugrave" unicode="&#xf9;" horiz-adv-x="582" 
d="M499 514v-514h-48l-29 68c-35 -41 -92 -80 -168 -80c-102 0 -176 68 -176 193v333h80v-324c0 -89 49 -129 112 -129c64 0 118 44 149 81v372h80zM286 590l-100 112v28h76l95 -140h-71z" />
    <glyph glyph-name="uacute" unicode="&#xfa;" horiz-adv-x="582" 
d="M499 514v-514h-48l-29 68c-35 -41 -92 -80 -168 -80c-102 0 -176 68 -176 193v333h80v-324c0 -89 49 -129 112 -129c64 0 118 44 149 81v372h80zM397 702l-100 -112h-71l95 140h76v-28z" />
    <glyph glyph-name="ucircumflex" unicode="&#xfb;" horiz-adv-x="582" 
d="M499 514v-514h-48l-29 68c-35 -41 -92 -80 -168 -80c-102 0 -176 68 -176 193v333h80v-324c0 -89 49 -129 112 -129c64 0 118 44 149 81v372h80zM325 730l104 -113v-27h-67l-72 84l-72 -84h-66v27l104 113h69z" />
    <glyph glyph-name="udieresis" unicode="&#xfc;" horiz-adv-x="582" 
d="M499 514v-514h-48l-29 68c-35 -41 -92 -80 -168 -80c-102 0 -176 68 -176 193v333h80v-324c0 -89 49 -129 112 -129c64 0 118 44 149 81v372h80zM156 595v110h80v-110h-80zM345 595v110h80v-110h-80z" />
    <glyph glyph-name="yacute" unicode="&#xfd;" horiz-adv-x="505" 
d="M159 -160v30l57 130l-193 476v38h75l157 -406l154 406h73v-38l-256 -636h-67zM371 702l-100 -112h-71l95 140h76v-28z" />
    <glyph glyph-name="thorn" unicode="&#xfe;" horiz-adv-x="578" 
d="M327 526c107 0 183 -66 183 -189v-160c0 -123 -76 -189 -184 -189c-76 0 -132 38 -163 75v-223h-80v865h80v-255c33 38 88 76 164 76zM314 61c69 0 116 49 116 122v148c0 73 -47 122 -115 122c-64 0 -116 -42 -152 -81v-230c36 -39 87 -81 151 -81z" />
    <glyph glyph-name="ydieresis" unicode="&#xff;" horiz-adv-x="505" 
d="M159 -160v30l57 130l-193 476v38h75l157 -406l154 406h73v-38l-256 -636h-67zM117 595v110h80v-110h-80zM306 595v110h80v-110h-80z" />
    <glyph glyph-name="Amacron" unicode="&#x100;" horiz-adv-x="656" 
d="M23 0v29l261 671h87l262 -671v-29h-86l-70 186h-302l-72 -186h-80zM201 260h249l-124 324zM175 792v71h306v-71h-306z" />
    <glyph glyph-name="amacron" unicode="&#x101;" horiz-adv-x="547" 
d="M218 -12c-91 0 -170 48 -170 149c0 105 72 164 213 164h129v51c0 60 -38 101 -119 101c-79 0 -118 -41 -118 -95h-78c0 96 63 168 196 168c134 0 199 -72 199 -169v-357h-48l-30 65c-31 -35 -94 -77 -174 -77zM234 61c68 0 123 39 156 72v103h-129
c-95 0 -133 -37 -133 -90c0 -59 46 -85 106 -85zM133 617v66h285v-66h-285z" />
    <glyph glyph-name="Aogonek" unicode="&#x104;" horiz-adv-x="656" 
d="M625 -160c-62 0 -100 28 -100 74c0 24 14 53 52 86h-30l-70 186h-302l-72 -186h-80v29l261 671h87l262 -671v-29c-36 -27 -51 -49 -51 -68c0 -27 23 -38 60 -38h39v-54h-56zM201 260h249l-124 324z" />
    <glyph glyph-name="aogonek" unicode="&#x105;" horiz-adv-x="548" 
d="M462 -160c-62 0 -100 28 -100 74c0 24 16 53 60 86l-30 65c-31 -35 -94 -77 -174 -77c-91 0 -170 48 -170 149c0 105 72 164 213 164h129v51c0 60 -38 101 -119 101c-79 0 -118 -41 -118 -95h-78c0 96 63 168 196 168c134 0 199 -72 199 -169v-357
c-36 -27 -51 -49 -51 -68c0 -27 23 -38 60 -38h39v-54h-56zM234 61c68 0 123 39 156 72v103h-129c-95 0 -133 -37 -133 -90c0 -59 46 -85 106 -85z" />
    <glyph glyph-name="Cacute" unicode="&#x106;" horiz-adv-x="659" 
d="M341 -15c-169 0 -268 93 -268 252v226c0 159 99 252 268 252c135 0 255 -75 255 -238v-10h-87v10c0 109 -88 158 -169 158c-118 0 -180 -62 -180 -166v-238c0 -104 62 -166 180 -166c81 0 169 49 169 158v10h87v-10c0 -163 -120 -238 -255 -238zM468 883l-107 -121h-77
l102 151h82v-30z" />
    <glyph glyph-name="cacute" unicode="&#x107;" horiz-adv-x="533" 
d="M270 -12c-132 0 -210 77 -210 191v156c0 114 78 191 210 191c127 0 207 -71 207 -184v-5h-80v6c0 64 -46 110 -127 110c-86 0 -130 -48 -130 -116v-160c0 -68 44 -116 130 -116c82 0 127 47 127 112v7h80v-6c0 -112 -81 -186 -207 -186zM396 702l-100 -112h-71l95 140h76
v-28z" />
    <glyph glyph-name="Ccaron" unicode="&#x10c;" horiz-adv-x="659" 
d="M341 -15c-169 0 -268 93 -268 252v226c0 159 99 252 268 252c135 0 255 -75 255 -238v-10h-87v10c0 109 -88 158 -169 158c-118 0 -180 -62 -180 -166v-238c0 -104 62 -166 180 -166c81 0 169 49 169 158v10h87v-10c0 -163 -120 -238 -255 -238zM485 884l-111 -121h-74
l-111 121v29h71l78 -95l77 95h70v-29z" />
    <glyph glyph-name="ccaron" unicode="&#x10d;" horiz-adv-x="533" 
d="M270 -12c-132 0 -210 77 -210 191v156c0 114 78 191 210 191c127 0 207 -71 207 -184v-5h-80v6c0 64 -46 110 -127 110c-86 0 -130 -48 -130 -116v-160c0 -68 44 -116 130 -116c82 0 127 47 127 112v7h80v-6c0 -112 -81 -186 -207 -186zM414 703l-104 -113h-69l-104 113
v27h67l72 -89l72 89h66v-27z" />
    <glyph glyph-name="Dcaron" unicode="&#x10e;" horiz-adv-x="679" 
d="M180 77h157c116 0 182 67 182 165v216c0 98 -66 165 -182 165h-157v-546zM93 0v700h244c164 0 269 -88 269 -244v-212c0 -156 -105 -244 -269 -244h-244zM466 884l-111 -121h-74l-111 121v29h71l78 -95l77 95h70v-29z" />
    <glyph glyph-name="dcaron" unicode="&#x10f;" horiz-adv-x="686" 
d="M249 -12c-104 0 -181 66 -181 189v160c0 123 76 189 184 189c76 0 132 -38 163 -75v254h80v-705h-48l-28 68c-35 -40 -92 -80 -170 -80zM264 61c64 0 115 42 151 81v230c-36 39 -88 81 -152 81c-68 0 -115 -49 -115 -122v-148c0 -73 47 -122 116 -122zM575 521l49 184h87
v-37l-73 -147h-63z" />
    <glyph glyph-name="Emacron" unicode="&#x112;" horiz-adv-x="584" 
d="M93 0v700h436v-77h-349v-232h302v-77h-302v-237h350v-77h-437zM158 792v71h306v-71h-306z" />
    <glyph glyph-name="emacron" unicode="&#x113;" horiz-adv-x="541" 
d="M274 -12c-134 0 -214 74 -214 189v158c0 114 80 191 214 191c130 0 208 -74 208 -189v-107h-342v-51c0 -69 46 -118 134 -118c77 0 116 38 125 93h80c-9 -101 -81 -166 -205 -166zM140 295h262v42c0 67 -44 116 -131 116c-85 0 -131 -48 -131 -116v-42zM132 617v66h285
v-66h-285z" />
    <glyph glyph-name="Edotaccent" unicode="&#x116;" horiz-adv-x="584" 
d="M93 0v700h436v-77h-349v-232h302v-77h-302v-237h350v-77h-437zM266 774v118h85v-118h-85z" />
    <glyph glyph-name="edotaccent" unicode="&#x117;" horiz-adv-x="541" 
d="M274 -12c-134 0 -214 74 -214 189v158c0 114 80 191 214 191c130 0 208 -74 208 -189v-107h-342v-51c0 -69 46 -118 134 -118c77 0 116 38 125 93h80c-9 -101 -81 -166 -205 -166zM140 295h262v42c0 67 -44 116 -131 116c-85 0 -131 -48 -131 -116v-42zM235 600v110h80
v-110h-80z" />
    <glyph glyph-name="Eogonek" unicode="&#x118;" horiz-adv-x="588" 
d="M93 0v700h436v-77h-349v-232h302v-77h-302v-237h350v-77c-36 -27 -51 -49 -51 -68c0 -27 23 -38 60 -38h39v-54h-56c-62 0 -100 28 -100 74c0 24 14 53 52 86h-381z" />
    <glyph glyph-name="eogonek" unicode="&#x119;" horiz-adv-x="541" 
d="M381 -160c-64 0 -103 28 -103 73c0 22 12 48 41 78c-15 -2 -29 -3 -45 -3c-134 0 -214 74 -214 189v158c0 114 80 191 214 191c130 0 208 -74 208 -189v-107h-342v-51c0 -69 46 -118 134 -118c77 0 116 38 125 93h80c-7 -75 -42 -109 -74 -138c-29 -27 -54 -54 -54 -77
c0 -22 19 -32 52 -32h34v-67h-56zM140 295h262v42c0 67 -44 116 -131 116c-85 0 -131 -48 -131 -116v-42z" />
    <glyph glyph-name="Ecaron" unicode="&#x11a;" horiz-adv-x="584" 
d="M93 0v700h436v-77h-349v-232h302v-77h-302v-237h350v-77h-437zM463 884l-111 -121h-74l-111 121v29h71l78 -95l77 95h70v-29z" />
    <glyph glyph-name="ecaron" unicode="&#x11b;" horiz-adv-x="541" 
d="M274 -12c-134 0 -214 74 -214 189v158c0 114 80 191 214 191c130 0 208 -74 208 -189v-107h-342v-51c0 -69 46 -118 134 -118c77 0 116 38 125 93h80c-9 -101 -81 -166 -205 -166zM140 295h262v42c0 67 -44 116 -131 116c-85 0 -131 -48 -131 -116v-42zM411 703
l-104 -113h-69l-104 113v27h67l72 -89l72 89h66v-27z" />
    <glyph glyph-name="uni0122" unicode="&#x122;" horiz-adv-x="693" 
d="M335 -15c-161 0 -262 96 -262 252v226c0 159 103 252 273 252c135 0 259 -75 260 -234v-6h-87v6c-1 99 -79 154 -175 154c-114 0 -184 -62 -184 -166v-232c0 -104 67 -172 180 -172c81 0 143 39 179 112v106h-160v74h247v-357h-49l-24 87c-44 -66 -109 -102 -198 -102z
M260 -251l49 184h87v-37l-73 -147h-63z" />
    <glyph glyph-name="uni0123" unicode="&#x123;" horiz-adv-x="578" 
d="M288 -172c-123 0 -206 63 -208 168h80c2 -50 44 -95 128 -95c86 0 127 45 127 124v88c-31 -37 -87 -75 -163 -75c-108 0 -184 66 -184 189v110c0 123 77 189 181 189c78 0 135 -40 169 -80l29 68h48v-487c0 -135 -82 -199 -207 -199zM266 111c63 0 114 41 149 80v182
c-35 39 -86 80 -149 80c-72 0 -118 -48 -118 -121v-100c0 -73 46 -121 118 -121zM378 770l-45 -184h-80v37l67 147h58z" />
    <glyph glyph-name="Imacron" unicode="&#x12a;" horiz-adv-x="273" 
d="M93 0v700h87v-700h-87zM-16 792v71h306v-71h-306z" />
    <glyph glyph-name="imacron" unicode="&#x12b;" horiz-adv-x="246" 
d="M-19 617v66h285v-66h-285zM83 0v514h80v-514h-80z" />
    <glyph glyph-name="Iogonek" unicode="&#x12e;" horiz-adv-x="273" 
d="M93 0v700h87v-700c-36 -27 -51 -49 -51 -68c0 -27 23 -38 60 -38h39v-54h-56c-62 0 -100 28 -100 74c0 24 14 53 52 86h-31z" />
    <glyph glyph-name="iogonek" unicode="&#x12f;" horiz-adv-x="246" 
d="M83 0v514h80v-514c-36 -27 -51 -49 -51 -68c0 -27 23 -38 60 -38h39v-54h-56c-62 0 -100 28 -100 74c0 24 14 53 52 86h-24zM83 595v110h80v-110h-80z" />
    <glyph glyph-name="dotlessi" unicode="&#x131;" horiz-adv-x="246" 
d="M83 0v514h80v-514h-80z" />
    <glyph glyph-name="uni0136" unicode="&#x136;" horiz-adv-x="612" 
d="M93 0v700h87v-310h112l203 310h81v-29l-208 -315l221 -327v-29h-86l-210 313h-113v-313h-87zM237 -251l49 184h87v-37l-73 -147h-63z" />
    <glyph glyph-name="uni0137" unicode="&#x137;" horiz-adv-x="526" 
d="M83 0v705h80v-407h88l153 216h66v-38l-148 -209l162 -229v-38h-72l-161 228h-88v-228h-80zM192 -251l45 184h80v-37l-67 -147h-58z" />
    <glyph glyph-name="Lacute" unicode="&#x139;" horiz-adv-x="561" 
d="M93 0v700h87v-623h358v-77h-445zM285 883l-107 -121h-77l102 151h82v-30z" />
    <glyph glyph-name="lacute" unicode="&#x13a;" horiz-adv-x="246" 
d="M83 0v705h80v-705h-80zM260 868l-100 -112h-71l95 140h76v-28z" />
    <glyph glyph-name="uni013B" unicode="&#x13b;" horiz-adv-x="561" 
d="M93 0v700h87v-623h358v-77h-445zM231 -251l49 184h87v-37l-73 -147h-63z" />
    <glyph glyph-name="uni013C" unicode="&#x13c;" horiz-adv-x="246" 
d="M83 0v705h80v-705h-80zM38 -251l45 184h80v-37l-67 -147h-58z" />
    <glyph glyph-name="Lcaron" unicode="&#x13d;" horiz-adv-x="563" 
d="M93 0v700h87v-623h358v-77h-445zM404 516l49 184h87v-37l-73 -147h-63z" />
    <glyph glyph-name="lcaron" unicode="&#x13e;" horiz-adv-x="354" 
d="M83 0v705h80v-705h-80zM243 521l49 184h87v-37l-73 -147h-63z" />
    <glyph glyph-name="Lslash" unicode="&#x141;" horiz-adv-x="601" 
d="M133 0v249l-78 -60h-31v71l109 83v357h87v-290l152 119h31v-72l-183 -142v-238h358v-77h-445z" />
    <glyph glyph-name="lslash" unicode="&#x142;" horiz-adv-x="393" 
d="M156 0v260l-117 -132h-39v60l156 176v341h80v-254l118 135h39v-60l-157 -178v-348h-80z" />
    <glyph glyph-name="Nacute" unicode="&#x143;" horiz-adv-x="701" 
d="M93 0v700h80l348 -539v539h87v-700h-80l-348 538v-538h-87zM467 883l-107 -121h-77l102 151h82v-30z" />
    <glyph glyph-name="nacute" unicode="&#x144;" horiz-adv-x="583" 
d="M83 0v514h48l28 -68c36 41 93 80 169 80c103 0 178 -68 178 -193v-333h-80v324c0 89 -50 129 -114 129s-118 -44 -149 -81v-372h-80zM425 702l-100 -112h-71l95 140h76v-28z" />
    <glyph glyph-name="Ncommaaccent" unicode="&#x145;" horiz-adv-x="701" 
d="M93 0v700h80l348 -539v539h87v-700h-80l-348 538v-538h-87zM263 -251l49 184h87v-37l-73 -147h-63z" />
    <glyph glyph-name="ncommaaccent" unicode="&#x146;" horiz-adv-x="583" 
d="M83 0v514h48l28 -68c36 41 93 80 169 80c103 0 178 -68 178 -193v-333h-80v324c0 89 -50 129 -114 129s-118 -44 -149 -81v-372h-80zM212 -251l45 184h80v-37l-67 -147h-58z" />
    <glyph glyph-name="Ncaron" unicode="&#x147;" horiz-adv-x="701" 
d="M93 0v700h80l348 -539v539h87v-700h-80l-348 538v-538h-87zM498 884l-111 -121h-74l-111 121v29h71l78 -95l77 95h70v-29z" />
    <glyph glyph-name="ncaron" unicode="&#x148;" horiz-adv-x="583" 
d="M83 0v514h48l28 -68c36 41 93 80 169 80c103 0 178 -68 178 -193v-333h-80v324c0 89 -50 129 -114 129s-118 -44 -149 -81v-372h-80zM435 703l-104 -113h-69l-104 113v27h67l72 -89l72 89h66v-27z" />
    <glyph glyph-name="Omacron" unicode="&#x14c;" horiz-adv-x="684" 
d="M342 65c117 0 182 69 182 167v236c0 98 -65 167 -182 167c-118 0 -182 -69 -182 -167v-236c0 -98 64 -167 182 -167zM342 -15c-164 0 -269 92 -269 251v228c0 159 105 251 269 251s269 -92 269 -251v-228c0 -159 -105 -251 -269 -251zM189 792v71h306v-71h-306z" />
    <glyph glyph-name="omacron" unicode="&#x14d;" horiz-adv-x="547" 
d="M274 61c90 0 133 54 133 121v150c0 67 -43 121 -133 121c-88 0 -134 -53 -134 -121v-150c0 -68 46 -121 134 -121zM274 -12c-142 0 -214 83 -214 191v156c0 108 72 191 214 191s213 -83 213 -191v-156c0 -108 -71 -191 -213 -191zM131 617v66h285v-66h-285z" />
    <glyph glyph-name="obreve" unicode="&#x14f;" horiz-adv-x="547" 
d="M274 61c90 0 133 54 133 121v150c0 67 -43 121 -133 121c-88 0 -134 -53 -134 -121v-150c0 -68 46 -121 134 -121zM274 -12c-142 0 -214 83 -214 191v156c0 108 72 191 214 191s213 -83 213 -191v-156c0 -108 -71 -191 -213 -191zM273 585c-92 0 -156 50 -156 137v12h70
v-11c0 -48 31 -77 86 -77s87 29 87 77v11h70v-12c0 -87 -65 -137 -157 -137z" />
    <glyph glyph-name="Ohungarumlaut" unicode="&#x150;" horiz-adv-x="684" 
d="M342 65c117 0 182 69 182 167v236c0 98 -65 167 -182 167c-118 0 -182 -69 -182 -167v-236c0 -98 64 -167 182 -167zM342 -15c-164 0 -269 92 -269 251v228c0 159 105 251 269 251s269 -92 269 -251v-228c0 -159 -105 -251 -269 -251zM385 883l-107 -120h-77l102 150h82
v-30zM568 883l-107 -120h-76l102 150h81v-30z" />
    <glyph glyph-name="ohungarumlaut" unicode="&#x151;" horiz-adv-x="547" 
d="M274 61c90 0 133 54 133 121v150c0 67 -43 121 -133 121c-88 0 -134 -53 -134 -121v-150c0 -68 46 -121 134 -121zM274 -12c-142 0 -214 83 -214 191v156c0 108 72 191 214 191s213 -83 213 -191v-156c0 -108 -71 -191 -213 -191zM314 702l-100 -112h-71l95 140h76v-28z
M485 702l-100 -112h-71l95 140h76v-28z" />
    <glyph glyph-name="OE" unicode="&#x152;" horiz-adv-x="1015" 
d="M342 -15c-164 0 -269 92 -269 251v228c0 159 105 251 269 251c79 0 143 -32 182 -87v72h436v-77h-350v-232h303v-77h-303v-237h351v-77h-437v72c-39 -55 -103 -87 -182 -87zM342 65c114 0 182 67 182 161v244c0 95 -66 165 -182 165c-118 0 -182 -69 -182 -167v-236
c0 -98 64 -167 182 -167z" />
    <glyph glyph-name="oe" unicode="&#x153;" horiz-adv-x="888" 
d="M274 -12c-142 0 -214 83 -214 191v156c0 108 72 191 214 191c84 0 142 -33 173 -81c33 49 91 81 174 81c130 0 208 -74 208 -189v-107h-342v-55c0 -67 48 -114 134 -114c77 0 116 38 125 93h80c-9 -101 -81 -166 -205 -166c-83 0 -142 30 -174 80
c-32 -48 -89 -80 -173 -80zM274 61c89 0 133 53 133 121v151c0 66 -44 120 -133 120c-88 0 -134 -53 -134 -121v-150c0 -68 46 -121 134 -121zM487 295h262v42c0 67 -44 116 -131 116c-85 0 -131 -48 -131 -116v-42z" />
    <glyph glyph-name="Racute" unicode="&#x154;" horiz-adv-x="651" 
d="M93 0v700h293c131 0 203 -80 203 -211c0 -111 -52 -173 -134 -201l145 -259v-29h-86l-155 277h-179v-277h-87zM180 354h191c82 0 129 46 129 135c0 90 -47 134 -129 134h-191v-269zM449 883l-107 -121h-77l102 151h82v-30z" />
    <glyph glyph-name="racute" unicode="&#x155;" horiz-adv-x="368" 
d="M83 0v514h42l29 -68c35 39 96 80 168 80h13v-78h-11c-68 0 -121 -24 -161 -72v-376h-80zM323 702l-100 -112h-71l95 140h76v-28z" />
    <glyph glyph-name="Rcommaaccent" unicode="&#x156;" horiz-adv-x="651" 
d="M93 0v700h293c131 0 203 -80 203 -211c0 -111 -52 -173 -134 -201l145 -259v-29h-86l-155 277h-179v-277h-87zM180 354h191c82 0 129 46 129 135c0 90 -47 134 -129 134h-191v-269zM251 -251l49 184h87v-37l-73 -147h-63z" />
    <glyph glyph-name="uni0157" unicode="&#x157;" horiz-adv-x="368" 
d="M83 0v514h42l29 -68c35 39 96 80 168 80h13v-78h-11c-68 0 -121 -24 -161 -72v-376h-80zM38 -251l45 184h80v-37l-67 -147h-58z" />
    <glyph glyph-name="Rcaron" unicode="&#x158;" horiz-adv-x="651" 
d="M93 0v700h293c131 0 203 -80 203 -211c0 -111 -52 -173 -134 -201l145 -259v-29h-86l-155 277h-179v-277h-87zM180 354h191c82 0 129 46 129 135c0 90 -47 134 -129 134h-191v-269zM462 884l-111 -121h-74l-111 121v29h71l78 -95l77 95h70v-29z" />
    <glyph glyph-name="rcaron" unicode="&#x159;" horiz-adv-x="368" 
d="M83 0v514h42l29 -68c35 39 96 80 168 80h13v-78h-11c-68 0 -121 -24 -161 -72v-376h-80zM343 703l-104 -113h-69l-104 113v27h67l72 -89l72 89h66v-27z" />
    <glyph glyph-name="Sacute" unicode="&#x15a;" horiz-adv-x="633" 
d="M318 -15c-141 0 -270 75 -270 242h87c0 -123 103 -162 187 -162c104 0 156 49 156 113s-54 91 -160 131l-50 18c-129 46 -198 88 -198 195c0 114 90 193 241 193c143 0 254 -68 254 -236h-87c0 115 -81 156 -168 156c-95 0 -153 -45 -153 -107c0 -65 46 -89 147 -125
l47 -17c121 -44 219 -88 219 -204c0 -111 -84 -197 -252 -197zM443 883l-107 -121h-77l102 151h82v-30z" />
    <glyph glyph-name="sacute" unicode="&#x15b;" horiz-adv-x="546" 
d="M277 -12c-127 0 -224 62 -224 186h80c0 -78 70 -113 150 -113c75 0 120 33 120 78c0 37 -23 56 -80 71l-127 33c-70 18 -123 50 -123 132c0 87 74 151 199 151c122 0 203 -60 203 -181h-80c0 74 -55 108 -129 108c-78 0 -113 -34 -113 -73c0 -36 20 -54 73 -68l125 -31
c80 -20 132 -54 132 -136c0 -93 -78 -157 -206 -157zM385 702l-100 -112h-71l95 140h76v-28z" />
    <glyph glyph-name="scircumflex" unicode="&#x15d;" horiz-adv-x="546" 
d="M277 -12c-127 0 -224 62 -224 186h80c0 -78 70 -113 150 -113c75 0 120 33 120 78c0 37 -23 56 -80 71l-127 33c-70 18 -123 50 -123 132c0 87 74 151 199 151c122 0 203 -60 203 -181h-80c0 74 -55 108 -129 108c-78 0 -113 -34 -113 -73c0 -36 20 -54 73 -68l125 -31
c80 -20 132 -54 132 -136c0 -93 -78 -157 -206 -157zM311 730l104 -113v-27h-67l-72 84l-72 -84h-66v27l104 113h69z" />
    <glyph glyph-name="Scaron" unicode="&#x160;" horiz-adv-x="633" 
d="M318 -15c-141 0 -270 75 -270 242h87c0 -123 103 -162 187 -162c104 0 156 49 156 113s-54 91 -160 131l-50 18c-129 46 -198 88 -198 195c0 114 90 193 241 193c143 0 254 -68 254 -236h-87c0 115 -81 156 -168 156c-95 0 -153 -45 -153 -107c0 -65 46 -89 147 -125
l47 -17c121 -44 219 -88 219 -204c0 -111 -84 -197 -252 -197zM466 884l-111 -121h-74l-111 121v29h71l78 -95l77 95h70v-29z" />
    <glyph glyph-name="scaron" unicode="&#x161;" horiz-adv-x="540" 
d="M274 -12c-127 0 -224 62 -224 186h80c0 -78 70 -113 150 -113c75 0 120 33 120 78c0 37 -23 56 -80 71l-127 33c-70 18 -123 50 -123 132c0 87 74 151 199 151c122 0 203 -60 203 -181h-80c0 74 -55 108 -129 108c-78 0 -113 -34 -113 -73c0 -36 20 -54 73 -68l125 -31
c80 -20 132 -54 132 -136c0 -93 -78 -157 -206 -157zM408 703l-104 -113h-69l-104 113v27h67l72 -89l72 89h66v-27z" />
    <glyph glyph-name="Tcaron" unicode="&#x164;" horiz-adv-x="558" 
d="M236 0v623h-213v77h512v-77h-212v-623h-87zM427 884l-111 -121h-74l-111 121v29h71l78 -95l77 95h70v-29z" />
    <glyph glyph-name="tcaron" unicode="&#x165;" horiz-adv-x="493" 
d="M271 0c-129 0 -164 84 -164 167v277h-84v70h84v107h80v-107h132v-70h-132v-275c0 -69 32 -96 84 -96h48v-73h-48zM363 521l49 184h87v-37l-73 -147h-63z" />
    <glyph glyph-name="Umacron" unicode="&#x16a;" horiz-adv-x="681" 
d="M341 -15c-151 0 -258 86 -258 243v472h87v-475c0 -97 63 -160 171 -160c107 0 170 62 170 160v475h87v-472c0 -156 -107 -243 -257 -243zM188 792v71h306v-71h-306z" />
    <glyph glyph-name="umacron" unicode="&#x16b;" horiz-adv-x="582" 
d="M499 514v-514h-48l-29 68c-35 -41 -92 -80 -168 -80c-102 0 -176 68 -176 193v333h80v-324c0 -89 49 -129 112 -129c64 0 118 44 149 81v372h80zM146 617v66h285v-66h-285z" />
    <glyph glyph-name="Uring" unicode="&#x16e;" horiz-adv-x="681" 
d="M341 -15c-151 0 -258 86 -258 243v472h87v-475c0 -97 63 -160 171 -160c107 0 170 62 170 160v475h87v-472c0 -156 -107 -243 -257 -243zM233 846c0 59 49 106 108 106c60 0 109 -47 109 -106c0 -57 -49 -104 -109 -104c-59 0 -108 47 -108 104zM285 846
c0 -29 26 -54 56 -54c31 0 57 25 57 54c0 31 -26 55 -57 55c-30 0 -56 -24 -56 -55z" />
    <glyph glyph-name="uring" unicode="&#x16f;" horiz-adv-x="582" 
d="M499 514v-514h-48l-29 68c-35 -41 -92 -80 -168 -80c-102 0 -176 68 -176 193v333h80v-324c0 -89 49 -129 112 -129c64 0 118 44 149 81v372h80zM188 667c0 55 46 99 101 99c56 0 102 -44 102 -99c0 -53 -46 -97 -102 -97c-55 0 -101 44 -101 97zM237 667
c0 -27 24 -50 52 -50c29 0 53 23 53 50c0 29 -24 52 -53 52c-28 0 -52 -23 -52 -52z" />
    <glyph glyph-name="Uhungarumlaut" unicode="&#x170;" horiz-adv-x="681" 
d="M341 -15c-151 0 -258 86 -258 243v472h87v-475c0 -97 63 -160 171 -160c107 0 170 62 170 160v475h87v-472c0 -156 -107 -243 -257 -243zM374 883l-107 -120h-77l102 150h82v-30zM557 883l-107 -120h-76l102 150h81v-30z" />
    <glyph glyph-name="uhungarumlaut" unicode="&#x171;" horiz-adv-x="582" 
d="M499 514v-514h-48l-29 68c-35 -41 -92 -80 -168 -80c-102 0 -176 68 -176 193v333h80v-324c0 -89 49 -129 112 -129c64 0 118 44 149 81v372h80zM322 702l-100 -112h-71l95 140h76v-28zM493 702l-100 -112h-71l95 140h76v-28z" />
    <glyph glyph-name="Uogonek" unicode="&#x172;" horiz-adv-x="681" 
d="M466 -160c-64 0 -103 28 -103 73c0 22 12 49 41 78c-20 -3 -41 -6 -63 -6c-151 0 -258 86 -258 243v472h87v-475c0 -97 63 -160 171 -160c107 0 170 62 170 160v475h87v-472c0 -105 -40 -163 -120 -228c-29 -24 -42 -43 -42 -61c0 -22 19 -32 52 -32h34v-67h-56z" />
    <glyph glyph-name="uogonek" unicode="&#x173;" horiz-adv-x="582" 
d="M491 -160c-62 0 -100 28 -100 74c0 24 16 53 60 86l-29 68c-35 -41 -92 -80 -168 -80c-102 0 -176 68 -176 193v333h80v-324c0 -89 49 -129 112 -129c64 0 118 44 149 81v372h80v-514c-36 -27 -51 -49 -51 -68c0 -27 23 -38 60 -38h39v-54h-56z" />
    <glyph glyph-name="Ydieresis" unicode="&#x178;" horiz-adv-x="609" 
d="M261 0v278l-248 393v29h86l206 -335l211 335h79v-29l-247 -390v-281h-87zM162 771v118h86v-118h-86zM364 771v118h86v-118h-86z" />
    <glyph glyph-name="Zacute" unicode="&#x179;" horiz-adv-x="577" 
d="M43 0v76l382 547h-368v77h468v-75l-382 -548h392v-77h-492zM408 883l-107 -121h-77l102 151h82v-30z" />
    <glyph glyph-name="zacute" unicode="&#x17a;" horiz-adv-x="520" 
d="M53 0v70l300 374h-288v70h385v-70l-302 -374h310v-70h-405zM360 702l-100 -112h-71l95 140h76v-28z" />
    <glyph glyph-name="Zdotaccent" unicode="&#x17b;" horiz-adv-x="577" 
d="M43 0v76l382 547h-368v77h468v-75l-382 -548h392v-77h-492zM242 774v118h85v-118h-85z" />
    <glyph glyph-name="zdotaccent" unicode="&#x17c;" horiz-adv-x="520" 
d="M53 0v70l300 374h-288v70h385v-70l-302 -374h310v-70h-405zM211 600v110h80v-110h-80z" />
    <glyph glyph-name="Zcaron" unicode="&#x17d;" horiz-adv-x="577" 
d="M43 0v76l382 547h-368v77h468v-75l-382 -548h392v-77h-492zM440 884l-111 -121h-74l-111 121v29h71l78 -95l77 95h70v-29z" />
    <glyph glyph-name="zcaron" unicode="&#x17e;" horiz-adv-x="520" 
d="M53 0v70l300 374h-288v70h385v-70l-302 -374h310v-70h-405zM400 703l-104 -113h-69l-104 113v27h67l72 -89l72 89h66v-27z" />
    <glyph glyph-name="florin" unicode="&#x192;" horiz-adv-x="374" 
d="M53 514h84l3 28c9 97 51 165 176 165c13 0 27 -1 35 -2v-72c-3 0 -12 1 -26 1c-69 0 -99 -29 -105 -92l-3 -28h129v-70h-135l-35 -445c-7 -97 -49 -171 -163 -171c-13 0 -27 1 -36 2v72s7 -1 13 -1c71 0 101 30 106 98l35 445h-78v70z" />
    <glyph glyph-name="scommaaccent" unicode="&#x219;" horiz-adv-x="546" 
d="M277 -12c-127 0 -224 62 -224 186h80c0 -78 70 -113 150 -113c75 0 120 33 120 78c0 37 -23 56 -80 71l-127 33c-70 18 -123 50 -123 132c0 87 74 151 199 151c122 0 203 -60 203 -181h-80c0 74 -55 108 -129 108c-78 0 -113 -34 -113 -73c0 -36 20 -54 73 -68l125 -31
c80 -20 132 -54 132 -136c0 -93 -78 -157 -206 -157zM195 -251l45 184h80v-37l-67 -147h-58z" />
    <glyph glyph-name="circumflex" unicode="&#x2c6;" horiz-adv-x="404" 
d="M236 730l104 -113v-27h-67l-72 84l-72 -84h-66v27l104 113h69z" />
    <glyph glyph-name="caron" unicode="&#x2c7;" horiz-adv-x="404" 
d="M340 703l-104 -113h-69l-104 113v27h67l72 -89l72 89h66v-27z" />
    <glyph glyph-name="breve" unicode="&#x2d8;" horiz-adv-x="402" 
d="M201 571c-92 0 -156 50 -156 137v12h70v-11c0 -48 31 -77 86 -77s87 29 87 77v11h70v-12c0 -87 -65 -137 -157 -137z" />
    <glyph glyph-name="dotaccent" unicode="&#x2d9;" horiz-adv-x="206" 
d="M63 600v110h80v-110h-80z" />
    <glyph glyph-name="ring" unicode="&#x2da;" horiz-adv-x="336" 
d="M67 667c0 55 46 99 101 99c56 0 102 -44 102 -99c0 -53 -46 -97 -102 -97c-55 0 -101 44 -101 97zM116 667c0 -27 24 -50 52 -50c29 0 53 23 53 50c0 29 -24 52 -53 52c-28 0 -52 -23 -52 -52z" />
    <glyph glyph-name="ogonek" unicode="&#x2db;" horiz-adv-x="276" 
d="M152 -160c-62 0 -100 28 -100 74c0 24 14 53 52 86h56c-36 -27 -51 -49 -51 -68c0 -27 23 -38 60 -38h39v-54h-56z" />
    <glyph glyph-name="tilde" unicode="&#x2dc;" horiz-adv-x="486" 
d="M112 602l-48 32c36 60 66 93 107 93c26 0 48 -12 68 -25l20 -13c19 -13 35 -22 52 -22c18 0 32 13 63 57l48 -32c-35 -60 -66 -93 -108 -93c-25 0 -45 9 -64 22l-19 13c-20 13 -36 25 -55 25c-20 0 -33 -14 -64 -57z" />
    <glyph glyph-name="hungarumlaut" unicode="&#x2dd;" horiz-adv-x="464" 
d="M232 702l-100 -112h-71l95 140h76v-28zM403 702l-100 -112h-71l95 140h76v-28z" />
    <glyph glyph-name="brevecap" horiz-adv-x="631" 
d="M316 740c-92 0 -156 50 -156 137v12h70v-11c0 -48 31 -77 86 -77s87 29 87 77v11h70v-12c0 -87 -65 -137 -157 -137z" />
    <glyph glyph-name="uni03A9" unicode="&#x3a9;" horiz-adv-x="720" 
d="M75 0v77h121c-76 39 -105 106 -105 193v194c0 159 105 251 269 251s269 -92 269 -251v-194c0 -87 -29 -154 -106 -193h122v-77h-233v80c88 18 130 99 130 187v201c0 97 -65 167 -182 167s-182 -70 -182 -167v-201c0 -88 42 -169 130 -187v-80h-233z" />
    <glyph glyph-name="pi" unicode="&#x3c0;" horiz-adv-x="673" 
d="M135 0v444h-102v70h607v-70h-102v-444h-80v444h-243v-444h-80z" />
    <glyph glyph-name="uni0401" unicode="&#x401;" horiz-adv-x="584" 
d="M93 0v700h436v-77h-349v-232h302v-77h-302v-237h350v-77h-437zM166 768v118h86v-118h-86zM368 768v118h86v-118h-86z" />
    <glyph glyph-name="uni0402" unicode="&#x402;" horiz-adv-x="743" 
d="M200 0v623h-177v77h507v-77h-243v-216c59 17 106 23 162 23c160 0 246 -90 246 -224c0 -125 -77 -206 -208 -206h-57v77h54c80 0 122 54 122 129c0 93 -64 144 -167 144c-59 0 -98 -6 -152 -23v-327h-87z" />
    <glyph glyph-name="uni0403" unicode="&#x403;" horiz-adv-x="563" 
d="M428 883l-107 -121h-77l102 151h82v-30zM93 0v700h427v-77h-340v-623h-87z" />
    <glyph glyph-name="afii10053" unicode="&#x404;" horiz-adv-x="659" 
d="M343 -15c-169 0 -270 92 -270 249v232c0 157 101 249 270 249c135 0 253 -75 253 -240h-82c0 109 -87 160 -171 160c-118 0 -183 -61 -183 -163v-82h274v-77h-274v-85c0 -102 65 -163 183 -163c84 0 171 51 171 160h82c0 -165 -118 -240 -253 -240z" />
    <glyph glyph-name="afii10054" unicode="&#x405;" horiz-adv-x="633" 
d="M318 -15c-141 0 -270 75 -270 242h87c0 -123 103 -162 187 -162c104 0 156 49 156 113s-54 91 -160 131l-50 18c-129 46 -198 88 -198 195c0 114 90 193 241 193c143 0 254 -68 254 -236h-87c0 115 -81 156 -168 156c-95 0 -153 -45 -153 -107c0 -65 46 -89 147 -125
l47 -17c121 -44 219 -88 219 -204c0 -111 -84 -197 -252 -197z" />
    <glyph glyph-name="uni0406" unicode="&#x406;" horiz-adv-x="273" 
d="M93 0v700h87v-700h-87z" />
    <glyph glyph-name="uni0407" unicode="&#x407;" horiz-adv-x="273" 
d="M93 0v700h87v-700h-87zM-7 768v118h86v-118h-86zM195 768v118h86v-118h-86z" />
    <glyph glyph-name="uni0408" unicode="&#x408;" horiz-adv-x="572" 
d="M256 -15c-135 0 -233 64 -233 219v29h87v-30c0 -93 57 -138 146 -138c83 0 146 45 146 141v494h87v-496c0 -152 -100 -219 -233 -219z" />
    <glyph glyph-name="uni0409" unicode="&#x409;" horiz-adv-x="1027" 
d="M235 623v-273c0 -265 -69 -350 -219 -350v80c104 0 137 56 137 279v341h426v-279h203c124 0 196 -82 196 -210c0 -129 -72 -211 -196 -211h-290v623h-257zM579 77h193c71 0 117 48 117 134c0 84 -46 133 -117 133h-193v-267z" />
    <glyph glyph-name="uni040A" unicode="&#x40a;" horiz-adv-x="1055" 
d="M521 0v344h-338v-344h-87v700h87v-279h338v279h87v-279h203c124 0 196 -82 196 -210c0 -129 -72 -211 -196 -211h-290zM608 77h193c71 0 117 48 117 134c0 84 -46 133 -117 133h-193v-267z" />
    <glyph glyph-name="uni040B" unicode="&#x40b;" horiz-adv-x="756" 
d="M287 322v-322h-87v623h-177v77h507v-77h-243v-220c46 16 103 27 157 27c119 0 248 -38 248 -210v-220h-87v211c0 89 -54 139 -167 139c-52 0 -106 -10 -151 -28z" />
    <glyph glyph-name="uni040C" unicode="&#x40c;" horiz-adv-x="612" 
d="M93 0v700h87v-310h112l203 310h81v-29l-208 -315l221 -327v-29h-86l-210 313h-113v-313h-87zM452 883l-107 -121h-77l102 151h82v-30z" />
    <glyph glyph-name="uni040E" unicode="&#x40e;" horiz-adv-x="576" 
d="M183 29l77 160l-247 482v29h81l210 -414l182 414h77v-29l-297 -671h-83v29zM291 740c-92 0 -156 50 -156 137v12h70v-11c0 -48 31 -77 86 -77s87 29 87 77v11h70v-12c0 -87 -65 -137 -157 -137z" />
    <glyph glyph-name="uni040F" unicode="&#x40f;" horiz-adv-x="694" 
d="M307 -140v140h-214v700h87v-623h334v623h87v-700h-214v-140h-80z" />
    <glyph glyph-name="uni0410" unicode="&#x410;" horiz-adv-x="656" 
d="M23 0v29l261 671h87l262 -671v-29h-86l-70 186h-302l-72 -186h-80zM201 260h249l-124 324z" />
    <glyph glyph-name="uni0411" unicode="&#x411;" horiz-adv-x="653" 
d="M93 0v700h466v-77h-379v-202h228c121 0 192 -82 192 -210c0 -129 -71 -211 -192 -211h-315zM180 77h212c69 0 119 47 119 134c0 86 -50 133 -119 133h-212v-267z" />
    <glyph glyph-name="uni0412" unicode="&#x412;" horiz-adv-x="655" 
d="M93 0v700h294c117 0 188 -63 188 -184c0 -83 -37 -129 -91 -152c65 -19 118 -67 118 -173c0 -124 -72 -191 -190 -191h-319zM180 77h217c77 0 118 43 118 119c0 77 -41 121 -118 121h-217v-240zM180 391h194c74 0 114 43 114 116c0 74 -40 116 -116 116h-192v-232z" />
    <glyph glyph-name="uni0413" unicode="&#x413;" horiz-adv-x="563" 
d="M93 0v700h427v-77h-340v-623h-87z" />
    <glyph glyph-name="uni0414" unicode="&#x414;" horiz-adv-x="708" 
d="M28 -143v220h53c45 59 91 133 91 324v299h412v-623h86v-220h-80v143h-482v-143h-80zM175 77h322v546h-245v-222c0 -187 -39 -261 -77 -324z" />
    <glyph glyph-name="uni0415" unicode="&#x415;" horiz-adv-x="584" 
d="M93 0v700h436v-77h-349v-232h302v-77h-302v-237h350v-77h-437z" />
    <glyph glyph-name="uni0416" unicode="&#x416;" horiz-adv-x="897" 
d="M405 0v313h-110l-175 -313h-87v29l189 326l-175 316v29h79l169 -310h110v310h87v-310h110l169 310h79v-29l-175 -316l189 -326v-29h-87l-175 313h-110v-313h-87z" />
    <glyph glyph-name="uni0417" unicode="&#x417;" horiz-adv-x="614" 
d="M316 -15c-144 0 -262 76 -263 238h87c1 -107 80 -158 179 -158c98 0 155 48 155 133c0 77 -55 121 -145 121h-98v77h98c78 0 127 38 127 113c0 71 -50 126 -145 126c-88 0 -156 -50 -156 -158h-87c1 162 107 238 243 238c150 0 233 -84 233 -198
c0 -84 -47 -134 -107 -157c68 -19 124 -72 124 -162c0 -128 -89 -213 -245 -213z" />
    <glyph glyph-name="uni0418" unicode="&#x418;" horiz-adv-x="704" 
d="M93 0v700h87v-549l351 549h80v-700h-87v549l-351 -549h-80z" />
    <glyph glyph-name="uni0419" unicode="&#x419;" horiz-adv-x="704" 
d="M93 0v700h87v-549l351 549h80v-700h-87v549l-351 -549h-80zM352 740c-92 0 -156 50 -156 137v12h70v-11c0 -48 31 -77 86 -77s87 29 87 77v11h70v-12c0 -87 -65 -137 -157 -137z" />
    <glyph glyph-name="uni041A" unicode="&#x41a;" horiz-adv-x="612" 
d="M93 0v700h87v-310h112l203 310h81v-29l-208 -315l221 -327v-29h-86l-210 313h-113v-313h-87z" />
    <glyph glyph-name="uni041B" unicode="&#x41b;" horiz-adv-x="672" 
d="M16 0v80c104 0 137 56 137 279v341h426v-700h-87v623h-257v-273c0 -265 -69 -350 -219 -350z" />
    <glyph glyph-name="uni041C" unicode="&#x41c;" horiz-adv-x="803" 
d="M93 0v700h84l226 -355l226 355h81v-700h-84v546l-196 -308h-57l-196 307v-545h-84z" />
    <glyph glyph-name="uni041D" unicode="&#x41d;" horiz-adv-x="701" 
d="M93 0v700h87v-310h341v310h87v-700h-87v313h-341v-313h-87z" />
    <glyph glyph-name="uni041E" unicode="&#x41e;" horiz-adv-x="684" 
d="M342 65c117 0 182 69 182 167v236c0 98 -65 167 -182 167c-118 0 -182 -69 -182 -167v-236c0 -98 64 -167 182 -167zM342 -15c-164 0 -269 92 -269 251v228c0 159 105 251 269 251s269 -92 269 -251v-228c0 -159 -105 -251 -269 -251z" />
    <glyph glyph-name="uni041F" unicode="&#x41f;" horiz-adv-x="695" 
d="M93 0v700h509v-700h-87v623h-335v-623h-87z" />
    <glyph glyph-name="uni0420" unicode="&#x420;" horiz-adv-x="627" 
d="M93 0v700h293c121 0 193 -82 193 -211c0 -128 -72 -210 -193 -210h-206v-279h-87zM180 356h191c70 0 119 47 119 133c0 87 -49 134 -119 134h-191v-267z" />
    <glyph glyph-name="uni0421" unicode="&#x421;" horiz-adv-x="659" 
d="M341 -15c-169 0 -268 93 -268 252v226c0 159 99 252 268 252c135 0 255 -75 255 -238v-10h-87v10c0 109 -88 158 -169 158c-118 0 -180 -62 -180 -166v-238c0 -104 62 -166 180 -166c81 0 169 49 169 158v10h87v-10c0 -163 -120 -238 -255 -238z" />
    <glyph glyph-name="uni0422" unicode="&#x422;" horiz-adv-x="558" 
d="M236 0v623h-213v77h512v-77h-212v-623h-87z" />
    <glyph glyph-name="uni0423" unicode="&#x423;" horiz-adv-x="576" 
d="M183 29l77 160l-247 482v29h81l210 -414l182 414h77v-29l-297 -671h-83v29z" />
    <glyph glyph-name="uni0424" unicode="&#x424;" horiz-adv-x="838" 
d="M375 -12v96h-52c-149 0 -270 84 -270 236v73c0 153 121 237 270 237h52v84h87v-84h53c150 0 269 -84 269 -237v-73c0 -152 -119 -236 -269 -236h-53v-96h-87zM319 161h56v392h-56c-109 0 -179 -67 -179 -161v-69c0 -94 70 -162 179 -162zM462 161h57
c109 0 179 68 179 162v69c0 94 -70 161 -179 161h-57v-392z" />
    <glyph glyph-name="uni0425" unicode="&#x425;" horiz-adv-x="629" 
d="M33 0v29l227 330l-215 312v29h88l181 -273l187 273h82v-29l-216 -312l229 -330v-29h-88l-196 290l-196 -290h-83z" />
    <glyph glyph-name="uni0426" unicode="&#x426;" horiz-adv-x="721" 
d="M602 -143v143h-509v700h87v-623h329v623h87v-623h87v-220h-81z" />
    <glyph glyph-name="uni0427" unicode="&#x427;" horiz-adv-x="648" 
d="M468 0v297c-46 -16 -103 -27 -157 -27c-119 0 -248 38 -248 210v220h87v-211c0 -89 54 -139 167 -139c52 0 106 10 151 28v322h87v-700h-87z" />
    <glyph glyph-name="uni0428" unicode="&#x428;" horiz-adv-x="977" 
d="M93 0v700h87v-623h265v623h87v-623h265v623h87v-700h-791z" />
    <glyph glyph-name="uni0429" unicode="&#x429;" horiz-adv-x="1008" 
d="M890 -143v143h-797v700h87v-623h265v623h87v-623h265v623h87v-623h86v-220h-80z" />
    <glyph glyph-name="uni042A" unicode="&#x42a;" horiz-adv-x="715" 
d="M181 0v623h-168v77h255v-279h202c125 0 197 -82 197 -210c0 -129 -72 -211 -197 -211h-289zM268 77h192c71 0 118 48 118 134c0 84 -47 133 -118 133h-192v-267z" />
    <glyph glyph-name="uni042B" unicode="&#x42b;" horiz-adv-x="874" 
d="M694 0v700h87v-700h-87zM93 0v700h87v-279h203c124 0 196 -82 196 -210c0 -129 -72 -211 -196 -211h-290zM180 77h193c71 0 117 48 117 134c0 84 -46 133 -117 133h-193v-267z" />
    <glyph glyph-name="uni042C" unicode="&#x42c;" horiz-adv-x="627" 
d="M93 0v700h87v-279h203c124 0 196 -82 196 -210c0 -129 -72 -211 -196 -211h-290zM180 77h193c71 0 117 48 117 134c0 84 -46 133 -117 133h-193v-267z" />
    <glyph glyph-name="uni042D" unicode="&#x42d;" horiz-adv-x="660" 
d="M317 -15c-135 0 -253 75 -253 240h82c0 -109 87 -160 171 -160c118 0 183 61 183 163v85h-274v77h274v82c0 102 -65 163 -183 163c-84 0 -171 -51 -171 -160h-82c0 165 118 240 253 240c169 0 270 -92 270 -249v-232c0 -157 -101 -249 -270 -249z" />
    <glyph glyph-name="uni042E" unicode="&#x42e;" horiz-adv-x="929" 
d="M598 -15c-158 0 -259 88 -259 244v82h-159v-311h-87v700h87v-312h159v83c0 154 101 244 259 244s258 -88 258 -244v-242c0 -154 -100 -244 -258 -244zM598 65c111 0 171 65 171 159v250c0 94 -61 161 -171 161c-111 0 -172 -65 -172 -159v-250c0 -94 61 -161 172 -161z
" />
    <glyph glyph-name="uni042F" unicode="&#x42f;" horiz-adv-x="644" 
d="M51 0v29l157 254c-88 22 -143 91 -143 204c0 132 71 213 201 213h285v-700h-87v273h-166l-164 -273h-83zM283 350h181v273h-181c-82 0 -129 -47 -129 -137c0 -92 47 -136 129 -136z" />
    <glyph glyph-name="uni0430" unicode="&#x430;" horiz-adv-x="547" 
d="M218 -12c-91 0 -170 48 -170 149c0 105 72 164 213 164h129v51c0 60 -38 101 -119 101c-79 0 -118 -41 -118 -95h-78c0 96 63 168 196 168c134 0 199 -72 199 -169v-357h-48l-30 65c-31 -35 -94 -77 -174 -77zM234 61c68 0 123 39 156 72v103h-129
c-95 0 -133 -37 -133 -90c0 -59 46 -85 106 -85z" />
    <glyph glyph-name="uni0431" unicode="&#x431;" horiz-adv-x="555" 
d="M282 -12c-134 0 -214 74 -214 189v187c0 134 41 214 154 248l120 35c44 13 51 35 51 52v6h80v-6c0 -79 -36 -102 -117 -125l-100 -28c-80 -23 -114 -66 -114 -159v-14c32 42 91 86 169 86c109 0 184 -66 184 -189v-91c0 -114 -79 -191 -213 -191zM282 61
c90 0 133 54 133 121v82c0 73 -47 122 -122 122c-61 0 -110 -39 -145 -78v-126c0 -68 46 -121 134 -121z" />
    <glyph glyph-name="uni0432" unicode="&#x432;" horiz-adv-x="556" 
d="M83 0v514h235c99 0 161 -43 161 -134c0 -60 -27 -98 -66 -117c53 -17 89 -54 89 -119c0 -106 -67 -144 -172 -144h-247zM163 70h169c57 0 84 32 84 79c0 46 -25 77 -86 77h-167v-156zM163 290h153c54 0 79 34 79 78c0 46 -25 76 -80 76h-152v-154z" />
    <glyph glyph-name="uni0433" unicode="&#x433;" horiz-adv-x="462" 
d="M83 0v514h336v-70h-256v-444h-80z" />
    <glyph glyph-name="uni0434" unicode="&#x434;" horiz-adv-x="629" 
d="M32 -129v199h47c39 42 65 109 65 227v217h370v-444h77v-199h-79v129h-401v-129h-79zM167 70h267v374h-214v-159c0 -101 -24 -166 -53 -215z" />
    <glyph glyph-name="uni0435" unicode="&#x435;" horiz-adv-x="541" 
d="M274 -12c-134 0 -214 74 -214 189v158c0 114 80 191 214 191c130 0 208 -74 208 -189v-107h-342v-51c0 -69 46 -118 134 -118c77 0 116 38 125 93h80c-9 -101 -81 -166 -205 -166zM140 295h262v42c0 67 -44 116 -131 116c-85 0 -131 -48 -131 -116v-42z" />
    <glyph glyph-name="uni0436" unicode="&#x436;" horiz-adv-x="777" 
d="M43 0v38l148 224l-140 214v38h68l143 -221h87v221h80v-221h87l143 221h68v-38l-140 -214l148 -224v-38h-72l-144 223h-90v-223h-80v223h-90l-143 -223h-73z" />
    <glyph glyph-name="uni0437" unicode="&#x437;" horiz-adv-x="533" 
d="M274 -12c-136 0 -218 73 -218 189h78c0 -71 47 -116 138 -116c77 0 119 34 119 88c0 46 -35 78 -97 78h-74v70h74c53 0 84 31 84 76c0 49 -39 80 -113 80c-82 0 -122 -46 -122 -114h-78c0 117 76 187 205 187c121 0 193 -59 193 -148c0 -56 -33 -95 -78 -113
c54 -16 91 -57 91 -119c0 -100 -73 -158 -202 -158z" />
    <glyph glyph-name="uni0438" unicode="&#x438;" horiz-adv-x="599" 
d="M83 0v514h80v-391l273 391h80v-514h-80v390l-273 -390h-80z" />
    <glyph glyph-name="uni0439" unicode="&#x439;" horiz-adv-x="599" 
d="M299 571c-92 0 -156 50 -156 137v12h70v-11c0 -48 31 -77 86 -77s87 29 87 77v11h70v-12c0 -87 -65 -137 -157 -137zM83 0v514h80v-391l273 391h80v-514h-80v390l-273 -390h-80z" />
    <glyph glyph-name="uni043A" unicode="&#x43a;" horiz-adv-x="533" 
d="M83 0v514h80v-221h88l165 221h67v-38l-161 -214l169 -224v-38h-72l-168 223h-88v-223h-80z" />
    <glyph glyph-name="uni043B" unicode="&#x43b;" horiz-adv-x="583" 
d="M27 0v73h8c74 0 98 62 98 175v266h367v-514h-80v444h-211v-195c0 -170 -66 -249 -163 -249h-19z" />
    <glyph glyph-name="uni043C" unicode="&#x43c;" horiz-adv-x="684" 
d="M83 0v514h80l181 -252l177 252h80v-514h-80v390l-159 -223h-39l-160 223v-390h-80z" />
    <glyph glyph-name="uni043D" unicode="&#x43d;" horiz-adv-x="589" 
d="M83 0v514h80v-222h263v222h80v-514h-80v222h-263v-222h-80z" />
    <glyph glyph-name="uni043E" unicode="&#x43e;" horiz-adv-x="547" 
d="M274 61c90 0 133 54 133 121v150c0 67 -43 121 -133 121c-88 0 -134 -53 -134 -121v-150c0 -68 46 -121 134 -121zM274 -12c-142 0 -214 83 -214 191v156c0 108 72 191 214 191s213 -83 213 -191v-156c0 -108 -71 -191 -213 -191z" />
    <glyph glyph-name="uni043F" unicode="&#x43f;" horiz-adv-x="584" 
d="M83 0v514h418v-514h-80v444h-258v-444h-80z" />
    <glyph glyph-name="uni0440" unicode="&#x440;" horiz-adv-x="578" 
d="M329 526c104 0 181 -66 181 -189v-160c0 -123 -76 -189 -184 -189c-76 0 -132 38 -163 75v-223h-80v674h48l28 -68c35 40 93 80 170 80zM314 61c69 0 116 49 116 122v148c0 73 -47 122 -115 122c-64 0 -116 -42 -152 -81v-230c36 -39 87 -81 151 -81z" />
    <glyph glyph-name="uni0441" unicode="&#x441;" horiz-adv-x="533" 
d="M270 -12c-132 0 -210 77 -210 191v156c0 114 78 191 210 191c127 0 207 -71 207 -184v-5h-80v6c0 64 -46 110 -127 110c-86 0 -130 -48 -130 -116v-160c0 -68 44 -116 130 -116c82 0 127 47 127 112v7h80v-6c0 -112 -81 -186 -207 -186z" />
    <glyph glyph-name="uni0442" unicode="&#x442;" horiz-adv-x="477" 
d="M199 0v444h-176v70h431v-70h-175v-444h-80z" />
    <glyph glyph-name="uni0443" unicode="&#x443;" horiz-adv-x="505" 
d="M159 -160v30l57 130l-193 476v38h75l157 -406l154 406h73v-38l-256 -636h-67z" />
    <glyph glyph-name="uni0444" unicode="&#x444;" horiz-adv-x="789" 
d="M354 -160v210c-27 -30 -72 -62 -136 -62c-88 0 -150 62 -150 166v206c0 104 62 166 150 166c64 0 109 -32 136 -62v241h80v-241c28 30 72 62 137 62c88 0 150 -62 150 -166v-206c0 -104 -62 -166 -150 -166c-65 0 -109 32 -137 62v-210h-80zM244 61c49 0 84 29 110 56
v280c-26 27 -61 56 -110 56c-59 0 -96 -43 -96 -104v-184c0 -61 37 -104 96 -104zM545 61c59 0 96 43 96 104v184c0 61 -37 104 -96 104c-49 0 -84 -29 -111 -56v-280c27 -27 62 -56 111 -56z" />
    <glyph glyph-name="uni0445" unicode="&#x445;" horiz-adv-x="517" 
d="M470 476l-162 -217l167 -221v-38h-72l-146 198l-142 -198h-72v38l165 221l-163 217v38h73l141 -192l138 192h73v-38z" />
    <glyph glyph-name="uni0446" unicode="&#x446;" horiz-adv-x="613" 
d="M496 -129v129h-413v514h80v-444h254v444h80v-444h78v-199h-79z" />
    <glyph glyph-name="uni0447" unicode="&#x447;" horiz-adv-x="551" 
d="M388 0v198c-37 -10 -86 -17 -133 -17c-121 0 -202 49 -202 164v169h80v-161c0 -71 55 -99 134 -99c48 0 88 7 121 16v244h80v-514h-80z" />
    <glyph glyph-name="uni0448" unicode="&#x448;" horiz-adv-x="788" 
d="M83 0v514h80v-444h191v444h80v-444h191v444h80v-514h-622z" />
    <glyph glyph-name="uni0449" unicode="&#x449;" horiz-adv-x="820" 
d="M703 -129v129h-620v514h80v-444h191v444h80v-444h191v444h80v-444h77v-199h-79z" />
    <glyph glyph-name="uni044A" unicode="&#x44a;" horiz-adv-x="589" 
d="M147 0v444h-144v70h224v-177h166c102 0 163 -65 163 -169s-61 -168 -163 -168h-246zM227 70h156c54 0 93 36 93 98c0 63 -39 99 -93 99h-156v-197z" />
    <glyph glyph-name="uni044B" unicode="&#x44b;" horiz-adv-x="731" 
d="M83 0v514h80v-177h159c102 0 163 -65 163 -169s-61 -168 -163 -168h-239zM163 70h148c55 0 94 36 94 98c0 63 -39 99 -93 99h-149v-197zM568 0v514h80v-514h-80z" />
    <glyph glyph-name="uni044C" unicode="&#x44c;" horiz-adv-x="528" 
d="M83 0v514h80v-177h169c102 0 163 -65 163 -169s-61 -168 -163 -168h-249zM163 70h158c55 0 94 36 94 98c0 63 -39 99 -93 99h-159v-197z" />
    <glyph glyph-name="uni044D" unicode="&#x44d;" horiz-adv-x="539" 
d="M266 -12c-133 0 -210 76 -210 192h80c0 -69 42 -119 130 -119c87 0 133 49 133 118v43h-182v70h182v43c0 69 -45 118 -133 118c-87 0 -130 -49 -130 -116h-80c0 117 79 189 211 189c133 0 212 -77 212 -192v-154c0 -115 -80 -192 -213 -192z" />
    <glyph glyph-name="uni044E" unicode="&#x44e;" horiz-adv-x="761" 
d="M492 -12c-139 0 -209 81 -209 188v46h-120v-222h-80v514h80v-222h120v46c0 107 70 188 209 188s209 -81 209 -188v-162c0 -107 -70 -188 -209 -188zM492 61c86 0 129 52 129 118v156c0 66 -43 118 -129 118c-85 0 -129 -51 -129 -118v-156c0 -67 44 -118 129 -118z" />
    <glyph glyph-name="uni044F" unicode="&#x44f;" horiz-adv-x="542" 
d="M53 0v38l115 167c-66 13 -111 65 -111 152c0 101 62 157 149 157h253v-514h-80v198h-121l-130 -198h-75zM228 268h151v176h-151c-60 0 -90 -37 -90 -88c0 -56 31 -88 90 -88z" />
    <glyph glyph-name="uni0451" unicode="&#x451;" horiz-adv-x="541" 
d="M274 -12c-134 0 -214 74 -214 189v158c0 114 80 191 214 191c130 0 208 -74 208 -189v-107h-342v-51c0 -69 46 -118 134 -118c77 0 116 38 125 93h80c-9 -101 -81 -166 -205 -166zM140 295h262v42c0 67 -44 116 -131 116c-85 0 -131 -48 -131 -116v-42zM138 595v110h80
v-110h-80zM327 595v110h80v-110h-80z" />
    <glyph glyph-name="uni0452" unicode="&#x452;" horiz-adv-x="591" 
d="M441 17v231c0 89 -50 128 -113 128c-64 0 -119 -44 -150 -81v-295h-80v540h-77v64h77v101h80v-101h228v-64h-228v-167c35 39 91 76 166 76c100 0 177 -68 177 -194v-219c0 -100 -22 -208 -161 -208c-12 0 -23 1 -34 2v72c8 -1 16 -1 22 -1c55 0 93 31 93 116z" />
    <glyph glyph-name="uni0453" unicode="&#x453;" horiz-adv-x="462" 
d="M365 702l-100 -112h-71l95 140h76v-28zM83 0v514h336v-70h-256v-444h-80z" />
    <glyph glyph-name="uni0454" unicode="&#x454;" horiz-adv-x="539" 
d="M273 -12c-133 0 -213 77 -213 192v154c0 115 79 192 212 192c132 0 211 -72 211 -189h-80c0 67 -43 116 -130 116c-88 0 -133 -49 -133 -118v-43h182v-70h-182v-43c0 -69 46 -118 133 -118c88 0 130 50 130 119h80c0 -116 -77 -192 -210 -192z" />
    <glyph glyph-name="uni0455" unicode="&#x455;" horiz-adv-x="546" 
d="M277 -12c-127 0 -224 62 -224 186h80c0 -78 70 -113 150 -113c75 0 120 33 120 78c0 37 -23 56 -80 71l-127 33c-70 18 -123 50 -123 132c0 87 74 151 199 151c122 0 203 -60 203 -181h-80c0 74 -55 108 -129 108c-78 0 -113 -34 -113 -73c0 -36 20 -54 73 -68l125 -31
c80 -20 132 -54 132 -136c0 -93 -78 -157 -206 -157z" />
    <glyph glyph-name="uni0456" unicode="&#x456;" horiz-adv-x="246" 
d="M83 0v514h80v-514h-80zM83 595v110h80v-110h-80z" />
    <glyph glyph-name="uni0457" unicode="&#x457;" horiz-adv-x="246" 
d="M-11 595v110h80v-110h-80zM178 595v110h80v-110h-80zM83 0v514h80v-514h-80z" />
    <glyph glyph-name="uni0458" unicode="&#x458;" horiz-adv-x="247" 
d="M12 -172c-13 0 -25 1 -34 2v71h25c54 0 81 30 81 103v510h80v-511c0 -88 -34 -175 -152 -175zM84 595v110h80v-110h-80z" />
    <glyph glyph-name="uni0459" unicode="&#x459;" horiz-adv-x="855" 
d="M27 0v73h8c74 0 98 62 98 175v266h363v-177h172c90 0 154 -60 154 -169s-64 -168 -154 -168h-252v444h-207v-195c0 -170 -66 -249 -163 -249h-19zM496 70h153c54 0 93 36 93 98c0 63 -39 99 -93 99h-153v-197z" />
    <glyph glyph-name="uni045A" unicode="&#x45a;" horiz-adv-x="852" 
d="M417 0v222h-254v-222h-80v514h80v-222h254v222h80v-177h159c102 0 163 -65 163 -169s-61 -168 -163 -168h-239zM497 70h148c55 0 94 36 94 98c0 63 -39 99 -93 99h-149v-197z" />
    <glyph glyph-name="uni045B" unicode="&#x45b;" horiz-adv-x="586" 
d="M437 0v224c0 106 -40 152 -114 152c-64 0 -118 -44 -149 -81v-295h-80v540h-77v64h77v101h80v-101h228v-64h-228v-167c35 39 91 76 166 76c100 0 177 -68 177 -194v-255h-80z" />
    <glyph glyph-name="uni045C" unicode="&#x45c;" horiz-adv-x="533" 
d="M393 702l-100 -112h-71l95 140h76v-28zM83 0v514h80v-221h88l165 221h67v-38l-161 -214l169 -224v-38h-72l-168 223h-88v-223h-80z" />
    <glyph glyph-name="uni045E" unicode="&#x45e;" horiz-adv-x="505" 
d="M159 -160v30l57 130l-193 476v38h75l157 -406l154 406h73v-38l-256 -636h-67zM256 571c-92 0 -156 50 -156 137v12h70v-11c0 -48 31 -77 86 -77s87 29 87 77v11h70v-12c0 -87 -65 -137 -157 -137z" />
    <glyph glyph-name="uni045F" unicode="&#x45f;" horiz-adv-x="584" 
d="M253 -129v129h-170v514h80v-444h258v444h80v-514h-169v-129h-79z" />
    <glyph glyph-name="uni0490" unicode="&#x490;" horiz-adv-x="553" 
d="M93 0v700h337v130h80v-207h-330v-623h-87z" />
    <glyph glyph-name="uni0491" unicode="&#x491;" horiz-adv-x="457" 
d="M83 0v514h252v125h79v-195h-251v-444h-80z" />
    <glyph glyph-name="uni1E61" unicode="&#x1e61;" horiz-adv-x="546" 
d="M277 -12c-127 0 -224 62 -224 186h80c0 -78 70 -113 150 -113c75 0 120 33 120 78c0 37 -23 56 -80 71l-127 33c-70 18 -123 50 -123 132c0 87 74 151 199 151c122 0 203 -60 203 -181h-80c0 74 -55 108 -129 108c-78 0 -113 -34 -113 -73c0 -36 20 -54 73 -68l125 -31
c80 -20 132 -54 132 -136c0 -93 -78 -157 -206 -157zM233 600v110h80v-110h-80z" />
    <glyph glyph-name="uni1E63" unicode="&#x1e63;" horiz-adv-x="546" 
d="M277 -12c-127 0 -224 62 -224 186h80c0 -78 70 -113 150 -113c75 0 120 33 120 78c0 37 -23 56 -80 71l-127 33c-70 18 -123 50 -123 132c0 87 74 151 199 151c122 0 203 -60 203 -181h-80c0 74 -55 108 -129 108c-78 0 -113 -34 -113 -73c0 -36 20 -54 73 -68l125 -31
c80 -20 132 -54 132 -136c0 -93 -78 -157 -206 -157zM230 -177v110h80v-110h-80z" />
    <glyph glyph-name="endash" unicode="&#x2013;" horiz-adv-x="590" 
d="M63 276v74h464v-74h-464z" />
    <glyph glyph-name="emdash" unicode="&#x2014;" horiz-adv-x="830" 
d="M63 276v74h704v-74h-704z" />
    <glyph glyph-name="quoteleft" unicode="&#x2018;" horiz-adv-x="239" 
d="M200 705l-59 -236h-88v38l83 198h64z" />
    <glyph glyph-name="quoteright" unicode="&#x2019;" horiz-adv-x="239" 
d="M39 470l59 236h88v-38l-83 -198h-64z" />
    <glyph glyph-name="quotesinglbase" unicode="&#x201a;" horiz-adv-x="233" 
d="M34 -104l59 236h88v-38l-83 -198h-64z" />
    <glyph glyph-name="quotedblleft" unicode="&#x201c;" horiz-adv-x="415" 
d="M200 705l-59 -236h-88v38l83 198h64zM376 705l-59 -236h-88v38l83 198h64z" />
    <glyph glyph-name="quotedblright" unicode="&#x201d;" horiz-adv-x="415" 
d="M39 469l59 236h88v-38l-83 -198h-64zM215 469l59 236h88v-38l-83 -198h-64z" />
    <glyph glyph-name="quotedblbase" unicode="&#x201e;" horiz-adv-x="415" 
d="M34 -104l59 236h88v-38l-83 -198h-64zM210 -104l59 236h88v-38l-83 -198h-64z" />
    <glyph glyph-name="dagger" unicode="&#x2020;" horiz-adv-x="534" 
d="M227 -160v596h-194v71h194v198h80v-198h194v-71h-194v-596h-80z" />
    <glyph glyph-name="daggerdbl" unicode="&#x2021;" horiz-adv-x="534" 
d="M227 -160v306h-194v71h194v219h-194v71h194v198h80v-198h194v-71h-194v-219h194v-71h-194v-306h-80z" />
    <glyph glyph-name="bullet" unicode="&#x2022;" horiz-adv-x="394" 
d="M197 185c-83 0 -134 46 -134 132v6c0 86 51 132 134 132s134 -46 134 -132v-6c0 -85 -51 -132 -134 -132z" />
    <glyph glyph-name="ellipsis" unicode="&#x2026;" horiz-adv-x="664" 
d="M75 0v132h94v-132h-94zM286 0v132h94v-132h-94zM496 0v132h94v-132h-94z" />
    <glyph glyph-name="perthousand" unicode="&#x2030;" horiz-adv-x="1119" 
d="M193 413c53 0 80 35 80 77v87c0 44 -27 78 -80 78c-52 0 -79 -34 -79 -78v-87c0 -43 27 -77 79 -77zM193 353c-95 0 -150 54 -150 147v68c0 92 55 147 150 147c96 0 151 -55 151 -147v-68c0 -93 -55 -147 -151 -147zM156 0v29l398 671h65v-29l-399 -671h-64zM583 44
c53 0 80 35 80 78v87c0 43 -27 78 -80 78c-51 0 -79 -34 -79 -78v-87c0 -44 28 -78 79 -78zM583 -15c-95 0 -150 54 -150 146v69c0 92 55 147 150 147c96 0 151 -55 151 -147v-69c0 -92 -55 -146 -151 -146zM925 44c53 0 80 35 80 78v87c0 43 -27 78 -80 78
c-51 0 -79 -34 -79 -78v-87c0 -44 28 -78 79 -78zM925 -15c-95 0 -150 54 -150 146v69c0 92 55 147 150 147c96 0 151 -55 151 -147v-69c0 -92 -55 -146 -151 -146z" />
    <glyph glyph-name="guilsinglleft" unicode="&#x2039;" horiz-adv-x="326" 
d="M194 63l-156 209l156 208h70v-27l-137 -181l137 -182v-27h-70z" />
    <glyph glyph-name="guilsinglright" unicode="&#x203a;" horiz-adv-x="326" 
d="M288 272l-156 -209h-70v27l137 182l-137 181v27h70z" />
    <glyph glyph-name="fraction" unicode="&#x2044;" horiz-adv-x="370" 
d="M-47 0v29l399 671h64v-29l-399 -671h-64z" />
    <glyph glyph-name="fourinferior" unicode="&#x2084;" horiz-adv-x="367" 
d="M162 700h55v-36l-103 -177h97v71h75v-71h52v-64h-52v-65h-75v65h-181v53z" />
    <glyph glyph-name="Euro" unicode="&#x20ac;" horiz-adv-x="671" 
d="M366 -15c-159 0 -247 89 -251 244h-85v73h85v96h-85v73h85c4 154 92 244 251 244c128 0 242 -75 242 -238v-10h-77v10c0 114 -78 165 -166 165c-112 0 -168 -64 -170 -171h216v-73h-216v-96h216v-73h-216c2 -107 58 -171 170 -171c94 0 166 51 166 165v10h77v-10
c0 -163 -107 -238 -242 -238z" />
    <glyph glyph-name="uni20B4" unicode="&#x20b4;" horiz-adv-x="665" 
d="M331 -15c-146 0 -230 78 -230 180c0 33 6 60 17 81h-78v67h585v-67h-425c-12 -19 -19 -42 -19 -70c0 -71 53 -118 150 -118c84 0 153 45 158 131h80c-5 -133 -109 -204 -238 -204zM40 386v67h420c11 17 20 39 20 67c0 69 -52 122 -147 122c-85 0 -153 -45 -158 -131h-80
c4 132 107 204 238 204c142 0 227 -78 227 -187c0 -31 -8 -54 -19 -75h84v-67h-585z" />
    <glyph glyph-name="uni20BD" unicode="&#x20bd;" horiz-adv-x="636" 
d="M121 0v118h-89v73h89v96h-89v73h89v340h274c121 0 193 -80 193 -206c0 -125 -72 -207 -193 -207h-194v-96h195v-73h-195v-118h-80zM201 360h186c69 0 121 46 121 133c0 86 -52 134 -121 134h-186v-267z" />
    <glyph glyph-name="uni2116" unicode="&#x2116;" horiz-adv-x="998" 
d="M93 0v700h74l316 -542v542h80v-700h-74l-316 542v-542h-80zM796 411c53 0 80 35 80 78v90c0 43 -27 78 -80 78c-52 0 -80 -34 -80 -78v-90c0 -44 28 -78 80 -78zM796 353c-95 0 -151 54 -151 147v68c0 92 56 147 151 147s150 -55 150 -147v-68c0 -93 -55 -147 -150 -147z
M645 213v62h301v-62h-301z" />
    <glyph glyph-name="trademark" unicode="&#x2122;" horiz-adv-x="685" 
d="M319 373v327h51l101 -151l102 151h52v-327h-55v237l-81 -124h-36l-80 122v-235h-54zM109 373v278h-97v49h248v-49h-97v-278h-54z" />
    <glyph glyph-name="Omega" unicode="&#x2126;" horiz-adv-x="720" 
d="M75 0v77h121c-76 39 -105 106 -105 193v194c0 159 105 251 269 251s269 -92 269 -251v-194c0 -87 -29 -154 -106 -193h122v-77h-233v80c88 18 130 99 130 187v201c0 97 -65 167 -182 167s-182 -70 -182 -167v-201c0 -88 42 -169 130 -187v-80h-233z" />
    <glyph glyph-name="partialdiff" unicode="&#x2202;" horiz-adv-x="554" 
d="M245 -12c-122 0 -198 66 -198 167c0 14 4 67 9 116c12 124 92 189 200 189c80 0 133 -47 162 -88c1 25 3 58 3 76c-1 131 -69 186 -176 186c-50 0 -82 -7 -110 -14l5 72c32 9 78 15 125 15c151 0 230 -99 230 -249c0 -50 -11 -177 -21 -281c-9 -115 -95 -189 -229 -189z
M252 61c88 0 136 53 142 121l12 129c-31 39 -74 76 -137 76c-76 0 -126 -48 -134 -122c-4 -30 -8 -83 -8 -95c0 -62 42 -109 125 -109z" />
    <glyph glyph-name="Delta" unicode="&#x2206;" horiz-adv-x="656" 
d="M23 0v30l261 670h87l262 -670v-30h-610zM131 77h388l-193 507z" />
    <glyph glyph-name="product" unicode="&#x220f;" horiz-adv-x="678" 
d="M93 -75v775h492v-775h-80v702h-332v-702h-80z" />
    <glyph glyph-name="summation" unicode="&#x2211;" horiz-adv-x="558" 
d="M53 -73v73l178 316l-178 311v73h439v-73h-349l180 -311l-180 -316h362v-73h-452z" />
    <glyph glyph-name="minus" unicode="&#x2212;" horiz-adv-x="541" 
d="M57 279v68h427v-68h-427z" />
    <glyph glyph-name="radical" unicode="&#x221a;" horiz-adv-x="565" 
d="M265 -75l-161 421h-100v73h156l137 -371l185 749h73v-29l-209 -843h-81z" />
    <glyph glyph-name="infinity" unicode="&#x221e;" horiz-adv-x="878" 
d="M243 131c-111 0 -180 82 -180 188s69 187 180 187c72 0 126 -44 188 -117l8 -10l9 10c61 72 113 117 187 117c110 0 180 -81 180 -187s-70 -187 -180 -187c-73 0 -128 42 -188 118l-8 9l-7 -9c-60 -76 -116 -119 -189 -119zM245 206c53 0 86 40 135 99l10 12l-10 12
c-49 59 -83 99 -135 99c-59 0 -102 -45 -102 -111s43 -111 102 -111zM634 206c59 0 102 45 102 111s-43 111 -102 111c-52 0 -86 -40 -135 -99l-10 -12l10 -12c49 -59 82 -99 135 -99z" />
    <glyph glyph-name="integral" unicode="&#x222b;" horiz-adv-x="321" 
d="M-3 -160v70h32c59 0 92 31 92 93v535c0 101 63 162 160 162h43v-70h-32c-58 0 -92 -31 -92 -93v-535c0 -101 -63 -162 -159 -162h-44z" />
    <glyph glyph-name="approxequal" unicode="&#x2248;" horiz-adv-x="503" 
d="M110 144l-51 38c39 64 74 97 118 97c29 0 49 -11 70 -26l21 -15c21 -15 37 -23 55 -23c21 0 36 14 70 62l52 -37c-38 -65 -73 -99 -118 -99c-25 0 -44 9 -64 22l-24 16c-23 15 -38 27 -56 27c-25 0 -40 -15 -73 -62zM110 343l-51 38c39 64 74 97 118 97
c29 0 49 -11 70 -26l21 -15c21 -15 37 -23 55 -23c21 0 36 14 70 62l52 -37c-38 -65 -73 -99 -118 -99c-25 0 -44 9 -64 22l-24 16c-23 15 -38 27 -56 27c-25 0 -40 -15 -73 -62z" />
    <glyph glyph-name="notequal" unicode="&#x2260;" horiz-adv-x="559" 
d="M63 0v29l87 142h-87v68h129l91 149h-220v67h261l100 161h66v-29l-81 -132h81v-67h-122l-92 -149h214v-68h-256l-105 -171h-66z" />
    <glyph glyph-name="lessequal" unicode="&#x2264;" horiz-adv-x="502" 
d="M405 158l-348 171v66l348 172h40v-55l-301 -150l301 -150v-54h-40zM57 11v68h388v-68h-388z" />
    <glyph glyph-name="greaterequal" unicode="&#x2265;" horiz-adv-x="502" 
d="M57 158v54l301 150l-301 150v55h40l348 -172v-66l-348 -171h-40zM57 11v68h388v-68h-388z" />
    <glyph glyph-name="lozenge" unicode="&#x25ca;" horiz-adv-x="545" 
d="M242 0l-189 350l189 350h62l188 -350l-189 -350h-61zM272 99l135 251l-135 251l-133 -251z" />
    <glyph glyph-name="commaaccent" unicode="&#xf6c3;" horiz-adv-x="536" 
d="M188 -251l49 184h87v-37l-73 -147h-63z" />
    <glyph glyph-name="zero.onum" horiz-adv-x="579" 
d="M289 61c96 0 143 67 143 149v95c0 82 -47 148 -143 148c-93 0 -142 -66 -142 -148v-95c0 -83 49 -149 142 -149zM289 -12c-139 0 -222 86 -222 225v88c0 138 83 225 222 225c141 0 223 -87 223 -225v-88c0 -139 -82 -225 -223 -225z" />
    <glyph glyph-name="one.onum" horiz-adv-x="277" 
d="M107 0v412h-68v42l98 60h50v-514h-80z" />
    <glyph glyph-name="two.onum" horiz-adv-x="554" 
d="M56 0v64l217 143c49 33 128 69 128 146c0 52 -47 100 -128 100c-83 0 -138 -47 -138 -125h-80c0 121 80 198 218 198c134 0 208 -80 208 -178s-81 -149 -148 -189l-143 -86h305v-73h-439z" />
    <glyph glyph-name="three.onum" horiz-adv-x="566" 
d="M281 -172c-142 0 -225 82 -228 212h80c2 -81 51 -139 148 -139c93 0 142 54 142 132c0 69 -48 118 -125 118h-64v73h60c72 0 113 40 113 112c0 64 -42 117 -130 117c-81 0 -133 -55 -134 -136h-80c1 124 81 209 214 209c141 0 209 -83 209 -186c0 -76 -37 -124 -95 -149
c62 -19 112 -79 112 -163c0 -116 -76 -200 -222 -200z" />
    <glyph glyph-name="four.onum" horiz-adv-x="542" 
d="M350 -160v160h-314v64l258 450h71v-30l-236 -411h221v167h80v-167h89v-73h-89v-160h-80z" />
    <glyph glyph-name="five.onum" horiz-adv-x="578" 
d="M291 -172c-128 0 -214 74 -226 191h81c11 -69 60 -118 145 -118c88 0 144 57 144 166c0 111 -65 154 -137 154c-57 0 -97 -23 -126 -57h-79l30 350h350v-73h-284l-17 -201c34 32 86 48 137 48c106 0 206 -60 206 -222c0 -140 -78 -238 -224 -238z" />
    <glyph glyph-name="six.onum" horiz-adv-x="581" 
d="M294 -12c-146 0 -232 88 -232 233c0 61 22 115 67 186l185 293h74v-29l-168 -260c25 17 61 27 105 27c118 0 202 -79 202 -217c0 -145 -88 -233 -233 -233zM294 61c101 0 153 63 153 156s-48 155 -152 155c-96 0 -153 -58 -153 -155c0 -93 51 -156 152 -156z" />
    <glyph glyph-name="seven.onum" horiz-adv-x="533" 
d="M178 -160v29l222 571h-279v-122h-75v196h437v-68l-235 -606h-70z" />
    <glyph glyph-name="eight.onum" horiz-adv-x="608" 
d="M304 -12c-154 0 -241 81 -241 208c0 92 61 153 127 173c-57 25 -106 70 -106 157c0 106 77 189 220 189s220 -83 220 -189c0 -87 -49 -132 -105 -157c65 -20 126 -81 126 -173c0 -127 -87 -208 -241 -208zM163 522c0 -76 56 -124 141 -124s140 48 140 124
c0 74 -50 122 -140 122s-141 -48 -141 -122zM144 199c0 -82 56 -138 160 -138s160 56 160 138c0 80 -60 136 -160 136s-160 -56 -160 -136z" />
    <glyph glyph-name="nine.onum" horiz-adv-x="581" 
d="M209 -160v29l154 235c-25 -18 -60 -28 -103 -28c-121 0 -206 81 -206 219c0 141 87 231 233 231s232 -90 232 -231c0 -61 -19 -114 -66 -188l-171 -267h-73zM286 142c96 0 153 58 153 155c0 90 -51 156 -152 156s-153 -66 -153 -156c0 -92 48 -155 152 -155z" />
    <glyph glyph-name="uniF653" unicode="&#xf653;" horiz-adv-x="540" 
d="M311 523c99 -13 163 -72 163 -178h-80c0 74 -56 108 -131 108c-78 0 -116 -34 -116 -73c0 -36 22 -54 75 -68l123 -31c80 -20 132 -54 132 -136c0 -84 -61 -144 -166 -155v-79h-70v79c-110 10 -188 71 -188 184h80c0 -78 67 -113 147 -113c75 0 117 33 117 78
c0 37 -23 56 -80 71l-125 32c-72 19 -125 49 -125 133c0 80 65 141 174 150v79h70v-81z" />
    <glyph glyph-name="uniF64E" unicode="&#xf64e;" horiz-adv-x="568" 
d="M28 222h67v61h-67v64h67c5 107 82 179 210 179c127 0 207 -71 207 -184v-5h-80v6c0 64 -46 110 -127 110c-82 0 -126 -44 -130 -106h170v-64h-170v-61h170v-64h-169c7 -58 51 -97 129 -97c82 0 127 47 127 112v7h80v-6c0 -112 -81 -186 -207 -186
c-124 0 -200 67 -209 170h-68v64z" />
    <glyph glyph-name="uniF725" unicode="&#xf725;" horiz-adv-x="550" 
d="M35 0v70h71v145h-71v66h71v54c0 114 74 191 197 191c119 0 195 -71 195 -184v-5h-80v6c0 65 -41 110 -115 110c-78 0 -117 -48 -117 -116v-56h154v-66h-154v-145h312v-70h-463z" />
    <glyph glyph-name="uniF727" unicode="&#xf727;" horiz-adv-x="524" 
d="M224 0v68h-145v64h145v61h-145v64h108l-145 219v38h71l150 -234h2l150 234h68v-38l-146 -219h105v-64h-138v-61h138v-64h-138v-68h-80z" />
    <glyph glyph-name="uniF722" unicode="&#xf722;" horiz-adv-x="553" 
d="M111 0v68h-83v64h83v61h-83v64h83v257h255c91 0 154 -56 154 -161c0 -104 -63 -160 -154 -160h-175v-61h151v-64h-151v-68h-80zM191 257h156c54 0 93 34 93 93c0 60 -39 94 -93 94h-156v-187z" />
    <glyph glyph-name="uniF721" unicode="&#xf721;" horiz-adv-x="567" 
d="M281 -12c-119 0 -186 54 -186 134c0 22 6 42 14 57h-68v56h481v-56h-335c-9 -13 -15 -28 -15 -45c0 -41 35 -73 113 -73c65 0 114 24 117 78h79c-4 -97 -93 -151 -200 -151zM41 279v56h339c9 11 15 27 15 45c0 36 -33 73 -108 73c-68 0 -113 -24 -116 -78h-78
c3 96 87 151 196 151c116 0 184 -55 184 -135c0 -24 -6 -42 -16 -56h65v-56h-481z" />
    <glyph glyph-name="zero.onum.mono" 
d="M303 -12c-139 0 -222 86 -222 225v88c0 138 83 225 222 225c141 0 223 -87 223 -225v-88c0 -139 -82 -225 -223 -225zM161 210c0 -24 4 -46 11 -66l223 280c-23 18 -54 29 -92 29c-93 0 -142 -66 -142 -148v-95zM303 61c96 0 143 67 143 149v95c0 22 -3 43 -10 61
l-221 -279c23 -17 52 -26 88 -26z" />
    <glyph glyph-name="one.onum.mono" 
d="M104 0v73h162v339h-108v42l139 60h50v-441h162v-73h-405z" />
    <glyph glyph-name="two.onum.mono" 
d="M80 0v64l217 143c49 33 128 69 128 146c0 52 -47 100 -128 100c-83 0 -138 -47 -138 -125h-80c0 121 80 198 218 198c134 0 208 -80 208 -178s-81 -149 -148 -189l-143 -86h305v-73h-439z" />
    <glyph glyph-name="three.onum.mono" 
d="M305 -172c-142 0 -225 82 -228 212h80c2 -81 51 -139 148 -139c93 0 142 54 142 132c0 69 -48 118 -125 118h-64v73h60c72 0 113 40 113 112c0 64 -42 117 -130 117c-81 0 -133 -55 -134 -136h-80c1 124 81 209 214 209c141 0 209 -83 209 -186c0 -76 -37 -124 -95 -149
c62 -19 112 -79 112 -163c0 -116 -76 -200 -222 -200z" />
    <glyph glyph-name="four.onum.mono" 
d="M374 -160v160h-314v64l258 450h71v-30l-236 -411h221v167h80v-167h89v-73h-89v-160h-80z" />
    <glyph glyph-name="five.onum.mono" 
d="M301 -172c-128 0 -214 74 -226 191h81c11 -69 60 -118 145 -118c88 0 144 57 144 166c0 111 -65 154 -137 154c-57 0 -97 -23 -126 -57h-79l30 350h350v-73h-284l-17 -201c34 32 86 48 137 48c106 0 206 -60 206 -222c0 -140 -78 -238 -224 -238z" />
    <glyph glyph-name="six.onum.mono" 
d="M307 -12c-146 0 -232 88 -232 233c0 61 22 115 67 186l185 293h74v-29l-168 -260c25 17 61 27 105 27c118 0 202 -79 202 -217c0 -145 -88 -233 -233 -233zM307 61c101 0 153 63 153 156s-48 155 -152 155c-96 0 -153 -58 -153 -155c0 -93 51 -156 152 -156z" />
    <glyph glyph-name="seven.onum.mono" 
d="M219 -160v29l222 571h-279v-122h-75v196h437v-68l-235 -606h-70z" />
    <glyph glyph-name="eight.onum.mono" 
d="M303 -12c-154 0 -241 81 -241 208c0 92 61 153 127 173c-57 25 -106 70 -106 157c0 106 77 189 220 189s220 -83 220 -189c0 -87 -49 -132 -105 -157c65 -20 126 -81 126 -173c0 -127 -87 -208 -241 -208zM162 522c0 -76 56 -124 141 -124s140 48 140 124
c0 74 -50 122 -140 122s-141 -48 -141 -122zM143 199c0 -82 56 -138 160 -138s160 56 160 138c0 80 -60 136 -160 136s-160 -56 -160 -136z" />
    <glyph glyph-name="nine.onum.mono" 
d="M222 -160v29l154 235c-25 -18 -60 -28 -103 -28c-121 0 -206 81 -206 219c0 141 87 231 233 231s232 -90 232 -231c0 -61 -19 -114 -66 -188l-171 -267h-73zM299 142c96 0 153 58 153 155c0 90 -51 156 -152 156s-153 -66 -153 -156c0 -92 48 -155 152 -155z" />
    <glyph glyph-name="uniF653.mono" 
d="M343 523c99 -13 163 -72 163 -178h-80c0 74 -56 108 -131 108c-78 0 -116 -34 -116 -73c0 -36 22 -54 75 -68l123 -31c80 -20 132 -54 132 -136c0 -84 -61 -144 -166 -155v-79h-70v79c-110 10 -188 71 -188 184h80c0 -78 67 -113 147 -113c75 0 117 33 117 78
c0 37 -23 56 -80 71l-125 32c-72 19 -125 49 -125 133c0 80 65 141 174 150v79h70v-81z" />
    <glyph glyph-name="uniF64E.mono" 
d="M49 222h67v61h-67v64h67c5 107 82 179 210 179c127 0 207 -71 207 -184v-5h-80v6c0 64 -46 110 -127 110c-82 0 -126 -44 -130 -106h170v-64h-170v-61h170v-64h-169c7 -58 51 -97 129 -97c82 0 127 47 127 112v7h80v-6c0 -112 -81 -186 -207 -186
c-124 0 -200 67 -209 170h-68v64z" />
    <glyph glyph-name="uniF725.mono" 
d="M64 0v70h71v145h-71v66h71v54c0 114 74 191 197 191c119 0 195 -71 195 -184v-5h-80v6c0 65 -41 110 -115 110c-78 0 -117 -48 -117 -116v-56h154v-66h-154v-145h312v-70h-463z" />
    <glyph glyph-name="uniF727.mono" 
d="M265 0v68h-145v64h145v61h-145v64h108l-145 219v38h71l150 -234h2l150 234h68v-38l-146 -219h105v-64h-138v-61h138v-64h-138v-68h-80z" />
    <glyph glyph-name="uniF722.mono" 
d="M126 0v68h-83v64h83v61h-83v64h83v257h255c91 0 154 -56 154 -161c0 -104 -63 -160 -154 -160h-175v-61h151v-64h-151v-68h-80zM206 257h156c54 0 93 34 93 93c0 60 -39 94 -93 94h-156v-187z" />
    <glyph glyph-name="uniF721.mono" 
d="M298 -12c-119 0 -186 54 -186 134c0 22 6 42 14 57h-68v56h481v-56h-335c-9 -13 -15 -28 -15 -45c0 -41 35 -73 113 -73c65 0 114 24 117 78h79c-4 -97 -93 -151 -200 -151zM58 279v56h339c9 11 15 27 15 45c0 36 -33 73 -108 73c-68 0 -113 -24 -116 -78h-78
c3 96 87 151 196 151c116 0 184 -55 184 -135c0 -24 -6 -42 -16 -56h65v-56h-481z" />
    <glyph glyph-name="zero.mono" 
d="M302 -15c-139 0 -228 85 -228 232v266c0 147 89 232 228 232c140 0 229 -85 229 -232v-266c0 -147 -89 -232 -229 -232zM154 212c0 -17 2 -33 5 -47l247 439c-25 24 -60 38 -104 38c-95 0 -148 -65 -148 -155v-275zM302 58c96 0 149 65 149 154v275c0 16 -2 31 -5 45
l-247 -437c25 -24 59 -37 103 -37z" />
    <glyph glyph-name="one.mono" 
d="M104 0v73h162v525h-108v42l139 60h50v-627h162v-73h-405z" />
    <glyph glyph-name="two.mono" 
d="M77 0v66l211 215c80 81 139 140 139 223c0 81 -47 138 -134 138c-90 0 -138 -62 -139 -157h-80c1 147 93 230 218 230c137 0 215 -91 215 -209c0 -113 -79 -189 -159 -270l-162 -163h330v-73h-439z" />
    <glyph glyph-name="three.mono" 
d="M300 -15c-140 0 -230 84 -233 226h80c3 -91 58 -153 156 -153c97 0 146 59 146 144c0 77 -52 126 -138 126h-55v73h50c77 0 126 43 126 118c0 61 -38 123 -130 123c-91 0 -139 -59 -140 -154h-80c1 146 89 227 220 227c136 0 208 -85 208 -189c0 -83 -42 -132 -100 -158
c65 -20 119 -82 119 -171c0 -132 -85 -212 -229 -212z" />
    <glyph glyph-name="four.mono" 
d="M375 0v152h-322v62l262 486h71v-29l-241 -446h230v186h80v-186h89v-73h-89v-152h-80z" />
    <glyph glyph-name="five.mono" 
d="M302 -15c-127 0 -215 73 -231 201h80c11 -78 70 -128 153 -128c98 0 146 69 146 171c0 106 -58 165 -144 165c-61 0 -104 -30 -128 -62h-79l33 368h358v-73h-292l-19 -213c37 29 79 47 141 47c114 0 210 -67 210 -231c0 -154 -88 -245 -228 -245z" />
    <glyph glyph-name="six.mono" 
d="M307 -15c-146 0 -233 88 -233 234c0 61 22 115 67 186l185 295h74v-29l-168 -262c26 16 61 27 106 27c117 0 201 -79 201 -217c0 -146 -87 -234 -232 -234zM307 58c100 0 152 63 152 157c0 92 -48 155 -151 155c-97 0 -154 -59 -154 -155c0 -94 52 -157 153 -157z" />
    <glyph glyph-name="seven.mono" 
d="M211 0v29l231 598h-282v-123h-75v196h440v-68l-242 -632h-72z" />
    <glyph glyph-name="eight.mono" 
d="M303 -15c-154 0 -241 80 -241 207c0 93 61 155 127 175c-57 25 -106 71 -106 158c0 105 77 190 220 190s220 -85 220 -190c0 -87 -49 -133 -105 -158c65 -20 126 -82 126 -175c0 -127 -87 -207 -241 -207zM162 519c0 -75 56 -123 141 -123s140 48 140 123
c0 73 -50 123 -140 123s-141 -50 -141 -123zM143 195c0 -81 56 -137 160 -137s160 56 160 137s-60 138 -160 138s-160 -57 -160 -138z" />
    <glyph glyph-name="nine.mono" 
d="M213 0v29l165 263c-26 -17 -61 -28 -105 -28c-121 0 -206 80 -206 219c0 143 87 232 233 232s232 -89 232 -232c0 -60 -19 -113 -65 -188l-181 -295h-73zM300 642c-102 0 -153 -63 -153 -156s49 -157 151 -157c96 0 154 60 154 157c0 93 -52 156 -152 156z" />
    <glyph glyph-name="dollar.mono" 
d="M52 227h80c0 -126 92 -169 183 -169c99 0 147 51 147 118c0 64 -47 92 -119 121l-77 31c-131 53 -193 90 -193 199c0 90 66 176 195 187v91h80v-94c120 -19 193 -105 193 -232h-81c0 121 -77 163 -163 163c-89 0 -142 -44 -142 -112s44 -91 131 -126l78 -31
c107 -43 181 -87 181 -191c0 -106 -71 -185 -197 -196v-101h-80v102c-134 15 -216 100 -216 240z" />
    <glyph glyph-name="Euro.mono" 
d="M343 -15c-159 0 -247 89 -251 244h-85v73h85v96h-85v73h85c4 154 92 244 251 244c128 0 242 -75 242 -238v-10h-77v10c0 114 -78 165 -166 165c-112 0 -168 -64 -170 -171h216v-73h-216v-96h216v-73h-216c2 -107 58 -171 170 -171c94 0 166 51 166 165v10h77v-10
c0 -163 -107 -238 -242 -238z" />
    <glyph glyph-name="sterling.mono" 
d="M50 0v73h74v247h-74v73h74v131c0 114 78 191 210 191c127 0 207 -72 207 -191v-32h-80v32c0 72 -45 118 -127 118c-86 0 -130 -48 -130 -116v-133h166v-73h-166v-247h337v-73h-491z" />
    <glyph glyph-name="yen.mono" 
d="M263 0v111h-187v73h187v96h-187v73h144l-196 318v29h76l204 -341l204 341h75v-29l-197 -318h144v-73h-187v-96h187v-73h-187v-111h-80z" />
    <glyph glyph-name="uni20BD.mono" 
d="M114 0v118h-89v73h89v96h-89v73h89v340h274c121 0 193 -80 193 -206c0 -125 -72 -207 -193 -207h-194v-96h195v-73h-195v-118h-80zM194 360h186c69 0 121 46 121 133c0 86 -52 134 -121 134h-186v-267z" />
    <glyph glyph-name="uni20B4.mono" 
d="M301 -15c-146 0 -230 78 -230 180c0 33 6 60 17 81h-78v67h585v-67h-425c-12 -19 -19 -42 -19 -70c0 -71 53 -118 150 -118c84 0 153 45 158 131h80c-5 -133 -109 -204 -238 -204zM10 386v67h420c11 17 20 39 20 67c0 69 -52 122 -147 122c-85 0 -153 -45 -158 -131h-80
c4 132 107 204 238 204c142 0 227 -78 227 -187c0 -31 -8 -54 -19 -75h84v-67h-585z" />
    <glyph glyph-name="a.alt1" horiz-adv-x="578" 
d="M495 0h-48l-28 68c-35 -40 -92 -80 -169 -80c-105 0 -182 66 -182 189v160c0 123 77 189 181 189c78 0 135 -40 170 -80l28 68h48v-514zM264 61c64 0 115 42 151 81v230c-36 39 -88 81 -152 81c-68 0 -115 -49 -115 -122v-148c0 -73 47 -122 116 -122z" />
    <glyph glyph-name="agrave.alt1" horiz-adv-x="578" 
d="M495 0h-48l-28 68c-35 -40 -92 -80 -169 -80c-105 0 -182 66 -182 189v160c0 123 77 189 181 189c78 0 135 -40 170 -80l28 68h48v-514zM264 61c64 0 115 42 151 81v230c-36 39 -88 81 -152 81c-68 0 -115 -49 -115 -122v-148c0 -73 47 -122 116 -122zM286 590l-100 112
v28h76l95 -140h-71z" />
    <glyph glyph-name="aacute.alt1" horiz-adv-x="578" 
d="M495 0h-48l-28 68c-35 -40 -92 -80 -169 -80c-105 0 -182 66 -182 189v160c0 123 77 189 181 189c78 0 135 -40 170 -80l28 68h48v-514zM264 61c64 0 115 42 151 81v230c-36 39 -88 81 -152 81c-68 0 -115 -49 -115 -122v-148c0 -73 47 -122 116 -122zM407 702l-100 -112
h-71l95 140h76v-28z" />
    <glyph glyph-name="acircumflex.alt1" horiz-adv-x="578" 
d="M495 0h-48l-28 68c-35 -40 -92 -80 -169 -80c-105 0 -182 66 -182 189v160c0 123 77 189 181 189c78 0 135 -40 170 -80l28 68h48v-514zM264 61c64 0 115 42 151 81v230c-36 39 -88 81 -152 81c-68 0 -115 -49 -115 -122v-148c0 -73 47 -122 116 -122zM325 730l104 -113
v-27h-67l-72 84l-72 -84h-66v27l104 113h69z" />
    <glyph glyph-name="atilde.alt1" horiz-adv-x="578" 
d="M495 0h-48l-28 68c-35 -40 -92 -80 -169 -80c-105 0 -182 66 -182 189v160c0 123 77 189 181 189c78 0 135 -40 170 -80l28 68h48v-514zM264 61c64 0 115 42 151 81v230c-36 39 -88 81 -152 81c-68 0 -115 -49 -115 -122v-148c0 -73 47 -122 116 -122zM165 602l-48 32
c36 60 66 93 107 93c26 0 48 -12 68 -25l20 -13c19 -13 35 -22 52 -22c18 0 32 13 63 57l48 -32c-35 -60 -66 -93 -108 -93c-25 0 -45 9 -64 22l-19 13c-20 13 -36 25 -55 25c-20 0 -33 -14 -64 -57z" />
    <glyph glyph-name="adieresis.alt1" horiz-adv-x="578" 
d="M495 0h-48l-28 68c-35 -40 -92 -80 -169 -80c-105 0 -182 66 -182 189v160c0 123 77 189 181 189c78 0 135 -40 170 -80l28 68h48v-514zM264 61c64 0 115 42 151 81v230c-36 39 -88 81 -152 81c-68 0 -115 -49 -115 -122v-148c0 -73 47 -122 116 -122zM154 595v110h80
v-110h-80zM343 595v110h80v-110h-80z" />
    <glyph glyph-name="aring.alt1" horiz-adv-x="578" 
d="M495 0h-48l-28 68c-35 -40 -92 -80 -169 -80c-105 0 -182 66 -182 189v160c0 123 77 189 181 189c78 0 135 -40 170 -80l28 68h48v-514zM264 61c64 0 115 42 151 81v230c-36 39 -88 81 -152 81c-68 0 -115 -49 -115 -122v-148c0 -73 47 -122 116 -122zM193 667
c0 55 46 99 101 99c56 0 102 -44 102 -99c0 -53 -46 -97 -102 -97c-55 0 -101 44 -101 97zM242 667c0 -27 24 -50 52 -50c29 0 53 23 53 50c0 29 -24 52 -53 52c-28 0 -52 -23 -52 -52z" />
    <glyph glyph-name="amacron.alt1" horiz-adv-x="578" 
d="M495 0h-48l-28 68c-35 -40 -92 -80 -169 -80c-105 0 -182 66 -182 189v160c0 123 77 189 181 189c78 0 135 -40 170 -80l28 68h48v-514zM264 61c64 0 115 42 151 81v230c-36 39 -88 81 -152 81c-68 0 -115 -49 -115 -122v-148c0 -73 47 -122 116 -122zM150 617v66h285
v-66h-285z" />
    <glyph glyph-name="aogonek.alt1" horiz-adv-x="578" 
d="M495 0c-36 -27 -51 -49 -51 -68c0 -27 23 -38 60 -38h39v-54h-56c-62 0 -100 28 -100 74c0 24 14 57 58 90l-26 64c-35 -40 -92 -80 -169 -80c-105 0 -182 66 -182 189v160c0 123 77 189 181 189c78 0 135 -40 170 -80l28 68h48v-514zM264 61c64 0 115 42 151 81v230
c-36 39 -88 81 -152 81c-68 0 -115 -49 -115 -122v-148c0 -73 47 -122 116 -122z" />
    <glyph glyph-name="t.alt1" horiz-adv-x="371" 
d="M146 0v444h-116v70h116v191h80v-191h115v-70h-115v-444h-80z" />
    <glyph glyph-name="tcaron.alt1" horiz-adv-x="504" 
d="M146 0v444h-116v70h116v191h80v-191h115v-70h-115v-444h-80zM393 521l49 184h87v-37l-73 -147h-63z" />
    <glyph glyph-name="J.alt1" horiz-adv-x="566" 
d="M256 -15c-135 0 -233 64 -233 219v29h87v-29c0 -93 57 -139 146 -139c83 0 146 46 146 142v416h-244v77h331v-496c0 -152 -100 -219 -233 -219z" />
    <glyph glyph-name="ampersand.alt1" horiz-adv-x="637" 
d="M379 233v70h251v-70h-86v-9c0 -147 -101 -236 -247 -236c-143 0 -244 80 -244 215c0 97 57 163 124 182c-56 19 -90 69 -90 143c0 104 80 179 206 179c128 0 204 -70 209 -188h-80c-5 68 -44 115 -129 115c-82 0 -122 -50 -122 -111s34 -105 116 -105h36v-70h-42
c-93 0 -148 -49 -148 -141c0 -86 60 -146 165 -146c108 0 166 66 166 159v13h-85z" />
    <glyph glyph-name="ampersand.alt2" horiz-adv-x="603" 
d="M261 0c-135 0 -208 60 -208 196c0 97 53 157 118 174c-54 22 -92 71 -92 151c0 121 72 179 189 179h102v-70h-102c-68 0 -104 -44 -104 -114c0 -69 35 -112 101 -112h155l32 116h48v-116h70v-70h-70v-334h-239zM276 70h144v264h-144c-90 0 -138 -42 -138 -131
c0 -90 48 -133 138 -133z" />
    <glyph glyph-name="at.alt1" horiz-adv-x="757" 
d="M355 -160c-164 0 -272 97 -272 242v381c0 145 108 242 272 242h47c163 0 271 -97 271 -242v-353h-47l-30 65c-31 -34 -98 -77 -163 -77c-91 0 -167 48 -167 149c0 105 72 162 213 162h114v54c0 96 -67 169 -191 169h-47c-124 0 -192 -73 -192 -169v-381
c0 -96 68 -169 192 -169h98v-73h-98zM446 171c59 0 115 38 147 71v105h-114c-95 0 -133 -38 -133 -91c0 -59 46 -85 100 -85z" />
    <glyph glyph-name="uni0430.alt1" horiz-adv-x="578" 
d="M495 0h-48l-28 68c-35 -40 -92 -80 -169 -80c-105 0 -182 66 -182 189v160c0 123 77 189 181 189c78 0 135 -40 170 -80l28 68h48v-514zM264 61c64 0 115 42 151 81v230c-36 39 -88 81 -152 81c-68 0 -115 -49 -115 -122v-148c0 -73 47 -122 116 -122z" />
    <glyph glyph-name="uni0423.alt1" horiz-adv-x="576" 
d="M123 0v80h23c49 0 77 27 107 90l9 19l-249 482v29h81l209 -417l183 417h77v-29l-221 -498c-60 -135 -95 -173 -206 -173h-13z" />
    <glyph glyph-name="uni040E.alt1" horiz-adv-x="576" 
d="M291 740c-92 0 -156 50 -156 137v12h70v-11c0 -48 31 -77 86 -77s87 29 87 77v11h70v-12c0 -87 -65 -137 -157 -137zM123 0v80h23c49 0 77 27 107 90l9 19l-249 482v29h81l209 -417l183 417h77v-29l-221 -498c-60 -135 -95 -173 -206 -173h-13z" />
    </font>
</defs>
</svg>
