<?xml version="1.0" standalone="no"?>
<!DOCTYPE svg PUBLIC "-//W3C//DTD SVG 1.1//EN" "http://www.w3.org/Graphics/SVG/1.1/DTD/svg11.dtd" >
<svg xmlns="http://www.w3.org/2000/svg" xmlns:xlink="http://www.w3.org/1999/xlink" version="1.1">
<metadata>
Created by FontForge 20190801 at Wed Feb 26 15:29:39 2014
 By Jimmy Wärting
Copyright (c) 2013 by Gayane Bagdasaryan, Dmitry Rastvortsev. All rights reserved.
</metadata>
<defs>
<font id="BrutalType-Light" horiz-adv-x="599" >
  <font-face 
    font-family="Brutal Type"
    font-weight="350"
    font-stretch="normal"
    units-per-em="1000"
    panose-1="2 0 6 3 2 0 0 2 0 4"
    ascent="804"
    descent="-196"
    x-height="509"
    cap-height="700"
    bbox="-44 -245 1051 949"
    underline-thickness="50"
    underline-position="-100"
    stemh="50"
    stemv="54"
    unicode-range="U+0020-FB02"
  />
<missing-glyph horiz-adv-x="322" 
 />
    <glyph glyph-name="fi" unicode="fi" horiz-adv-x="550" 
d="M108 0v461h-87v48h87v32c0 99 48 166 157 166c15 0 25 -1 34 -2v-49c-3 0 -15 1 -28 1c-67 0 -109 -26 -109 -116v-32h302v-509h-54v461h-248v-461h-54zM410 595v110h54v-110h-54z" />
    <glyph glyph-name="fl" unicode="fl" horiz-adv-x="551" 
d="M108 0v461h-87v48h87v32c0 99 48 166 157 166c15 0 25 -1 34 -2v-49c-3 0 -15 1 -28 1c-67 0 -109 -26 -109 -116v-32h134v-48h-134v-461h-54zM411 0v705h54v-705h-54z" />
    <glyph glyph-name=".notdef" horiz-adv-x="322" 
 />
    <glyph glyph-name="space" unicode=" " horiz-adv-x="257" 
 />
    <glyph glyph-name="exclam" unicode="!" horiz-adv-x="250" 
d="M96 0v123h58v-123h-58zM98 220v480h54v-480h-54z" />
    <glyph glyph-name="quotedbl" unicode="&#x22;" horiz-adv-x="330" 
d="M63 481l-13 112v112h58v-112l-13 -112h-32zM235 481l-14 112v112h59v-112l-13 -112h-32z" />
    <glyph glyph-name="numbersign" unicode="#" horiz-adv-x="628" 
d="M104 0v20l34 173h-109v50h119l42 214h-119v50h129l38 193h48v-20l-33 -173h184l38 193h48v-20l-34 -173h111v-50h-121l-42 -214h120v-50h-130l-38 -193h-48v20l33 173h-184l-37 -193h-49zM200 243h185l42 214h-185z" />
    <glyph glyph-name="dollar" unicode="$" horiz-adv-x="607" 
d="M51 227h54c0 -141 106 -192 207 -192c115 0 173 59 173 135c0 71 -48 104 -133 138l-95 37c-128 50 -183 88 -183 189c0 100 76 173 204 180v92h54v-94c110 -11 205 -82 205 -233h-54c0 138 -89 186 -187 186c-104 0 -167 -53 -167 -129c0 -73 42 -100 133 -136l95 -37
c111 -43 184 -87 184 -189c0 -99 -64 -178 -209 -187v-100h-54v100c-118 9 -227 81 -227 240z" />
    <glyph glyph-name="percent" unicode="%" horiz-adv-x="763" 
d="M192 394c66 0 98 43 98 95v88c0 53 -32 95 -98 95c-64 0 -98 -41 -98 -95v-88c0 -54 34 -95 98 -95zM192 351c-94 0 -146 56 -146 142v80c0 86 52 142 146 142c95 0 146 -56 146 -142v-80c0 -86 -51 -142 -146 -142zM161 0v20l393 680h47v-20l-394 -680h-46zM571 28
c66 0 99 43 99 95v88c0 53 -33 95 -99 95c-63 0 -98 -41 -98 -95v-88c0 -54 35 -95 98 -95zM571 -15c-94 0 -146 56 -146 142v80c0 86 52 142 146 142c95 0 147 -56 147 -142v-80c0 -86 -52 -142 -147 -142z" />
    <glyph glyph-name="ampersand" unicode="&#x26;" horiz-adv-x="610" 
d="M590 26v-26h-47l-78 83c-50 -59 -122 -97 -212 -97c-132 0 -218 78 -218 191c0 80 40 131 115 192l29 24l-30 34c-34 39 -65 75 -65 136c0 85 65 144 152 144c85 0 147 -56 147 -143c0 -55 -34 -98 -76 -132l-52 -42l205 -226c26 47 40 106 40 169h51
c0 -77 -19 -149 -54 -207zM254 35c75 0 136 32 177 84l-217 238l-31 -25c-61 -50 -94 -86 -94 -150c0 -88 69 -147 165 -147zM138 563c0 -38 12 -61 57 -109l26 -29l49 41c37 30 61 59 61 99c0 55 -42 93 -96 93c-56 0 -97 -38 -97 -95z" />
    <glyph glyph-name="quotesingle" unicode="'" horiz-adv-x="158" 
d="M63 481l-13 112v112h58v-112l-13 -112h-32z" />
    <glyph glyph-name="parenleft" unicode="(" horiz-adv-x="299" 
d="M270 -160c-106 0 -174 59 -174 170v572c0 111 68 170 174 170v-50c-74 0 -120 -44 -120 -118v-576c0 -74 46 -118 120 -118v-50z" />
    <glyph glyph-name="parenright" unicode=")" horiz-adv-x="299" 
d="M29 -160v50c74 0 120 44 120 118v576c0 74 -46 118 -120 118v50c106 0 174 -59 174 -170v-572c0 -111 -68 -170 -174 -170z" />
    <glyph glyph-name="asterisk" unicode="*" horiz-adv-x="413" 
d="M185 333l1 151l-130 -78l-22 39l132 74l-132 74l22 38l130 -77l-1 151h43l-1 -151l130 78l22 -39l-133 -74l133 -74l-22 -38l-130 77l1 -151h-43z" />
    <glyph glyph-name="plus" unicode="+" horiz-adv-x="525" 
d="M238 103v187h-184v46h184v184h49v-184h184v-46h-184v-187h-49z" />
    <glyph glyph-name="comma" unicode="," horiz-adv-x="216" 
d="M33 -96l68 225h59v-26l-84 -199h-43z" />
    <glyph glyph-name="hyphen" unicode="-" horiz-adv-x="435" 
d="M66 288v50h304v-50h-304z" />
    <glyph glyph-name="period" unicode="." horiz-adv-x="216" 
d="M79 0v129h58v-129h-58z" />
    <glyph glyph-name="slash" unicode="/" horiz-adv-x="456" 
d="M46 -100v20l315 832h49v-20l-315 -832h-49z" />
    <glyph glyph-name="zero" unicode="0" horiz-adv-x="597" 
d="M298 35c106 0 169 68 169 170v289c0 103 -63 171 -169 171s-168 -68 -168 -171v-289c0 -102 62 -170 168 -170zM298 -15c-136 0 -222 82 -222 223v284c0 141 86 223 222 223s223 -82 223 -223v-284c0 -141 -87 -223 -223 -223z" />
    <glyph glyph-name="one" unicode="1" horiz-adv-x="257" 
d="M107 0v639h-64v28l64 33h54v-700h-54z" />
    <glyph glyph-name="two" unicode="2" horiz-adv-x="559" 
d="M61 0v45l212 216c73 74 150 151 150 248c0 96 -59 156 -154 156c-97 0 -161 -64 -162 -173h-51c0 143 92 223 213 223c128 0 208 -84 208 -206c0 -119 -92 -206 -164 -279l-178 -180h357v-50h-431z" />
    <glyph glyph-name="three" unicode="3" horiz-adv-x="569" 
d="M282 -15c-136 0 -225 81 -228 216h52c3 -101 68 -166 177 -166c107 0 167 63 167 163c0 86 -58 144 -152 144h-61v47h59c84 0 138 52 138 135c0 72 -49 141 -151 141c-101 0 -160 -62 -161 -169h-52c1 141 85 219 213 219c131 0 204 -85 204 -187
c0 -87 -49 -139 -111 -160c70 -18 128 -80 128 -173c0 -131 -83 -210 -222 -210z" />
    <glyph glyph-name="four" unicode="4" horiz-adv-x="542" 
d="M368 0v163h-332v43l278 494h48v-20l-264 -467h270v198h54v-198h94v-50h-94v-163h-54z" />
    <glyph glyph-name="five" unicode="5" horiz-adv-x="579" 
d="M293 -15c-123 0 -209 71 -225 196h54c13 -91 79 -146 172 -146c109 0 166 76 166 188c0 121 -66 184 -163 184c-65 0 -114 -31 -143 -67h-53l31 360h342v-50h-297l-22 -252c37 33 87 56 150 56c118 0 209 -70 209 -230c0 -146 -83 -239 -221 -239z" />
    <glyph glyph-name="six" unicode="6" horiz-adv-x="573" 
d="M292 -15c-145 0 -226 88 -226 227c0 67 23 118 66 187l189 301h50v-20l-184 -290c29 24 72 39 126 39c126 0 205 -82 205 -217c0 -139 -83 -227 -226 -227zM292 35c113 0 172 70 172 174c0 103 -54 174 -170 174c-103 0 -174 -62 -174 -174c0 -104 58 -174 172 -174z" />
    <glyph glyph-name="seven" unicode="7" horiz-adv-x="534" 
d="M182 0v20l245 630h-325v-142h-51v192h433v-47l-253 -653h-49z" />
    <glyph glyph-name="eight" unicode="8" horiz-adv-x="603" 
d="M301 -15c-152 0 -235 80 -235 204c0 100 66 160 138 178c-60 20 -116 68 -116 160c0 106 75 188 213 188c139 0 214 -82 214 -188c0 -92 -56 -140 -115 -160c70 -18 137 -78 137 -178c0 -124 -83 -204 -236 -204zM142 526c0 -87 61 -139 159 -139s159 52 159 139
s-61 139 -159 139s-159 -52 -159 -139zM120 188c0 -96 69 -153 181 -153c113 0 182 57 182 153c0 97 -69 154 -182 154c-112 0 -181 -57 -181 -154z" />
    <glyph glyph-name="nine" unicode="9" horiz-adv-x="573" 
d="M216 0v20l179 291c-30 -25 -72 -40 -126 -40c-132 0 -213 84 -213 221c0 134 81 223 226 223s226 -89 226 -223c0 -65 -16 -115 -62 -191l-181 -301h-49zM282 665c-115 0 -172 -70 -172 -173s55 -176 169 -176c102 0 175 63 175 176c0 103 -59 173 -172 173z" />
    <glyph glyph-name="colon" unicode=":" horiz-adv-x="216" 
d="M79 0v129h58v-129h-58zM79 380v129h58v-129h-58z" />
    <glyph glyph-name="semicolon" unicode=";" horiz-adv-x="216" 
d="M33 -96l68 225h59v-26l-84 -199h-43zM93 380v129h58v-129h-58z" />
    <glyph glyph-name="less" unicode="&#x3c;" horiz-adv-x="486" 
d="M403 103l-349 189v45l349 189h29v-37l-323 -174l323 -174v-38h-29z" />
    <glyph glyph-name="equal" unicode="=" horiz-adv-x="524" 
d="M54 182v46h416v-46h-416zM54 399v46h416v-46h-416z" />
    <glyph glyph-name="greater" unicode="&#x3e;" horiz-adv-x="486" 
d="M54 103v38l323 174l-323 174v37h29l349 -189v-45l-349 -189h-29z" />
    <glyph glyph-name="question" unicode="?" horiz-adv-x="507" 
d="M221 220v103l76 51c58 40 111 76 111 156c0 69 -49 135 -153 135c-98 0 -168 -61 -168 -171h-51c0 143 95 221 219 221c139 0 207 -90 207 -185c0 -103 -80 -156 -132 -190l-55 -36v-84h-54zM219 0v123h58v-123h-58z" />
    <glyph glyph-name="at" unicode="@" horiz-adv-x="1007" 
d="M513 -151c-258 0 -437 179 -437 433c0 259 179 433 437 433c234 0 419 -152 419 -394c0 -158 -71 -262 -174 -262c-53 0 -98 28 -107 91c-38 -46 -98 -90 -175 -90c-104 0 -169 70 -169 176v91c0 106 65 176 169 176c77 0 137 -46 172 -88l18 77h26v-311
c0 -53 26 -80 68 -80c70 0 125 77 125 220c0 217 -167 352 -372 352c-230 0 -390 -155 -390 -391c0 -232 160 -391 390 -391h25v-42h-25zM483 105c67 0 123 43 162 87v177c-39 44 -92 89 -162 89c-82 0 -129 -59 -129 -138v-77c0 -79 47 -138 129 -138z" />
    <glyph glyph-name="A" unicode="A" horiz-adv-x="654" 
d="M26 0v20l271 680h59l272 -680v-20h-57l-78 198h-335l-79 -198h-53zM176 248h299l-149 375z" />
    <glyph glyph-name="B" unicode="B" horiz-adv-x="649" 
d="M96 0v700h292c112 0 179 -64 179 -181c0 -87 -43 -135 -98 -155c68 -16 124 -66 124 -175c0 -120 -68 -189 -181 -189h-316zM154 52h248c85 0 133 52 133 139c0 89 -48 141 -133 141h-248v-280zM154 382h228c81 0 126 51 126 133c0 84 -45 133 -129 133h-225v-266z" />
    <glyph glyph-name="C" unicode="C" horiz-adv-x="658" 
d="M340 -15c-165 0 -264 93 -264 252v226c0 159 99 252 264 252c134 0 252 -77 252 -234v-10h-58v10c0 121 -97 180 -194 180c-131 0 -206 -72 -206 -194v-234c0 -122 75 -194 206 -194c97 0 194 59 194 180v10h58v-10c0 -157 -118 -234 -252 -234z" />
    <glyph glyph-name="D" unicode="D" horiz-adv-x="674" 
d="M154 52h181c128 0 205 75 205 192v212c0 117 -77 192 -205 192h-181v-596zM96 0v700h239c160 0 263 -89 263 -245v-210c0 -156 -103 -245 -263 -245h-239z" />
    <glyph glyph-name="E" unicode="E" horiz-adv-x="578" 
d="M96 0v700h425v-52h-367v-269h320v-52h-320v-275h368v-52h-426z" />
    <glyph glyph-name="F" unicode="F" horiz-adv-x="570" 
d="M96 0v700h429v-52h-370v-273h322v-52h-322v-323h-59z" />
    <glyph glyph-name="G" unicode="G" horiz-adv-x="688" 
d="M339 -15c-162 0 -263 95 -263 252v226c0 159 103 252 270 252c134 0 255 -76 257 -231v-8h-59v8c-1 118 -100 177 -199 177c-132 0 -211 -72 -211 -194v-230c0 -122 79 -198 208 -198c95 0 161 45 202 135v123h-179v49h238v-346h-35l-15 106c-44 -77 -112 -121 -214 -121
z" />
    <glyph glyph-name="H" unicode="H" horiz-adv-x="693" 
d="M96 0v700h58v-322h385v322h58v-700h-58v326h-385v-326h-58z" />
    <glyph glyph-name="I" unicode="I" horiz-adv-x="250" 
d="M96 0v700h58v-700h-58z" />
    <glyph glyph-name="J" unicode="J" horiz-adv-x="565" 
d="M253 -15c-134 0 -227 69 -227 216v28h58v-28c0 -105 66 -162 169 -162c99 0 169 57 169 164v497h58v-499c0 -145 -95 -216 -227 -216z" />
    <glyph glyph-name="K" unicode="K" 
d="M96 0v700h58v-322h132l221 322h54v-20l-225 -325l237 -335v-20h-57l-229 326h-133v-326h-58z" />
    <glyph glyph-name="L" unicode="L" horiz-adv-x="557" 
d="M96 0v700h58v-648h377v-52h-435z" />
    <glyph glyph-name="M" unicode="M" horiz-adv-x="798" 
d="M96 0v700h56l248 -379l247 379h55v-700h-57v600l-227 -351h-39l-227 349v-598h-56z" />
    <glyph glyph-name="N" unicode="N" horiz-adv-x="694" 
d="M96 0v700h54l389 -592v592h59v-700h-54l-390 591v-591h-58z" />
    <glyph glyph-name="O" unicode="O" horiz-adv-x="678" 
d="M339 39c129 0 205 76 205 193v236c0 117 -76 193 -205 193s-205 -76 -205 -193v-236c0 -117 76 -193 205 -193zM339 -15c-161 0 -263 92 -263 250v230c0 158 102 250 263 250c160 0 263 -92 263 -250v-230c0 -158 -103 -250 -263 -250z" />
    <glyph glyph-name="P" unicode="P" horiz-adv-x="620" 
d="M96 0v700h284c119 0 189 -81 189 -207s-70 -206 -189 -206h-226v-287h-58zM154 339h217c84 0 139 57 139 154c0 98 -55 155 -139 155h-217v-309z" />
    <glyph glyph-name="Q" unicode="Q" horiz-adv-x="681" 
d="M549 -119l-90 129c-33 -16 -77 -25 -120 -25c-161 0 -263 92 -263 250v230c0 158 102 250 263 250c160 0 263 -92 263 -250v-230c0 -92 -34 -158 -90 -200l93 -134v-20h-56zM339 39c129 0 205 73 205 192v238c0 119 -76 192 -205 192s-205 -73 -205 -192v-238
c0 -119 76 -192 205 -192z" />
    <glyph glyph-name="R" unicode="R" horiz-adv-x="643" 
d="M96 0v700h287c126 0 196 -79 196 -207c0 -114 -51 -177 -145 -202l158 -271v-20h-56l-167 286h-215v-286h-58zM154 338h220c92 0 145 55 145 155c0 99 -53 155 -145 155h-220v-310z" />
    <glyph glyph-name="S" unicode="S" horiz-adv-x="625" 
d="M318 -15c-136 0 -267 72 -267 242h58c0 -139 114 -188 212 -188c118 0 177 58 177 132c0 71 -53 106 -159 146l-78 29c-125 47 -186 85 -186 185c0 108 86 184 232 184c139 0 249 -68 249 -236h-59c0 134 -92 182 -191 182c-108 0 -173 -53 -173 -126
c0 -71 43 -100 143 -136l75 -28c119 -44 208 -87 208 -197c0 -106 -79 -189 -241 -189z" />
    <glyph glyph-name="T" unicode="T" horiz-adv-x="551" 
d="M247 0v648h-221v52h500v-52h-221v-648h-58z" />
    <glyph glyph-name="U" unicode="U" horiz-adv-x="673" 
d="M337 -15c-141 0 -251 82 -251 243v472h58v-472c0 -120 76 -189 193 -189c116 0 192 67 192 189v472h59v-472c0 -159 -111 -243 -251 -243z" />
    <glyph glyph-name="V" unicode="V" horiz-adv-x="654" 
d="M298 0l-272 680v20h55l247 -623l245 623h55v-20l-271 -680h-59z" />
    <glyph glyph-name="W" unicode="W" horiz-adv-x="804" 
d="M182 0l-136 680v20h57l119 -607l162 393h38l164 -394l118 608h54v-20l-136 -680h-56l-164 398l-164 -398h-56z" />
    <glyph glyph-name="X" unicode="X" horiz-adv-x="612" 
d="M36 0v20l234 336l-227 324v20h58l205 -298l208 298h54v-20l-227 -324l235 -336v-20h-58l-214 310l-214 -310h-54z" />
    <glyph glyph-name="Y" unicode="Y" horiz-adv-x="604" 
d="M273 0v278l-257 402v20h57l229 -367l233 367h53v-20l-257 -400v-280h-58z" />
    <glyph glyph-name="Z" unicode="Z" horiz-adv-x="570" 
d="M46 0v51l402 597h-389v52h456v-51l-402 -597h412v-52h-479z" />
    <glyph glyph-name="bracketleft" unicode="[" horiz-adv-x="313" 
d="M96 -160v912h199v-50h-145v-812h145v-50h-199z" />
    <glyph glyph-name="backslash" unicode="\" horiz-adv-x="456" 
d="M410 -80v-20h-49l-315 832v20h49z" />
    <glyph glyph-name="bracketright" unicode="]" horiz-adv-x="313" 
d="M18 -160v50h145v800h-145v50h199v-900h-199z" />
    <glyph glyph-name="asciicircum" unicode="^" horiz-adv-x="491" 
d="M54 387v20l167 298h48l167 -298v-20h-46l-145 259l-144 -259h-47z" />
    <glyph glyph-name="underscore" unicode="_" horiz-adv-x="525" 
d="M-1 -107v46h527v-46h-527z" />
    <glyph glyph-name="grave" unicode="`" horiz-adv-x="286" 
d="M170 590l-108 120v20h56l107 -140h-55z" />
    <glyph glyph-name="a" unicode="a" horiz-adv-x="538" 
d="M217 -12c-89 0 -166 46 -166 146c0 103 73 161 211 161h142v59c0 68 -44 117 -137 117c-89 0 -136 -48 -136 -113h-53c0 93 62 163 189 163c129 0 191 -70 191 -164v-357h-35l-18 71c-32 -34 -102 -83 -188 -83zM227 38c78 0 143 50 177 83v126h-142
c-107 0 -157 -39 -157 -107c0 -72 56 -102 122 -102z" />
    <glyph glyph-name="b" unicode="b" horiz-adv-x="569" 
d="M320 -12c-81 0 -144 45 -183 89l-17 -77h-34v705h54v-270c36 42 98 86 178 86c111 0 180 -72 180 -188v-157c0 -116 -70 -188 -178 -188zM312 38c84 0 132 59 132 142v149c0 83 -48 142 -131 142c-71 0 -132 -48 -173 -93v-247c41 -45 102 -93 172 -93z" />
    <glyph glyph-name="c" unicode="c" horiz-adv-x="527" 
d="M267 -12c-131 0 -204 78 -204 189v155c0 110 73 189 204 189c125 0 202 -72 202 -178v-5h-54v6c0 74 -54 127 -148 127c-98 0 -150 -58 -150 -138v-157c0 -81 52 -138 150 -138c95 0 148 55 148 129v6h54v-5c0 -106 -77 -180 -202 -180z" />
    <glyph glyph-name="d" unicode="d" horiz-adv-x="569" 
d="M249 -12c-108 0 -178 72 -178 188v157c0 116 69 188 180 188c80 0 142 -44 178 -86v270h54v-705h-34l-17 77c-39 -44 -102 -89 -183 -89zM257 38c70 0 131 48 172 93v247c-41 45 -102 93 -173 93c-83 0 -131 -59 -131 -142v-149c0 -83 48 -142 132 -142z" />
    <glyph glyph-name="e" unicode="e" horiz-adv-x="534" 
d="M269 -12c-132 0 -206 77 -206 188v156c0 110 74 189 206 189c130 0 203 -77 203 -188v-97h-355v-59c0 -81 53 -139 152 -139c91 0 136 47 145 113h54c-8 -98 -77 -163 -199 -163zM117 284h301v49c0 79 -50 138 -151 138c-97 0 -150 -58 -150 -138v-49z" />
    <glyph glyph-name="f" unicode="f" horiz-adv-x="325" 
d="M108 0v461h-87v48h87v32c0 99 48 166 157 166c15 0 25 -1 34 -2v-49c-3 0 -15 1 -28 1c-67 0 -109 -26 -109 -116v-32h134v-48h-134v-461h-54z" />
    <glyph glyph-name="g" unicode="g" horiz-adv-x="569" 
d="M283 -172c-118 0 -198 62 -201 164h54c3 -65 56 -114 147 -114c94 0 146 50 146 146v98c-37 -42 -98 -86 -178 -86c-111 0 -180 71 -180 188v109c0 116 69 188 178 188c81 0 143 -45 182 -89l17 77h35v-483c0 -134 -79 -198 -200 -198zM257 86c70 0 131 48 172 93v199
c-41 45 -102 93 -173 93c-83 0 -131 -59 -131 -142v-101c0 -83 48 -142 132 -142z" />
    <glyph glyph-name="h" unicode="h" horiz-adv-x="574" 
d="M86 0v705h54v-270c39 44 102 86 180 86c98 0 174 -65 174 -190v-331h-54v324c0 102 -56 147 -129 147c-69 0 -132 -46 -171 -93v-378h-54z" />
    <glyph glyph-name="i" unicode="i" horiz-adv-x="226" 
d="M86 0v509h54v-509h-54zM86 595v110h54v-110h-54z" />
    <glyph glyph-name="j" unicode="j" horiz-adv-x="226" 
d="M2 -172c-13 0 -22 1 -31 2v48c13 -1 19 -1 26 -1c63 0 89 38 89 116v516h54v-516c0 -87 -28 -165 -138 -165zM86 595v110h54v-110h-54z" />
    <glyph glyph-name="k" unicode="k" horiz-adv-x="513" 
d="M86 0v705h54v-421h104l167 225h45v-26l-163 -220l175 -237v-26h-49l-173 236h-106v-236h-54z" />
    <glyph glyph-name="l" unicode="l" horiz-adv-x="226" 
d="M86 0v705h54v-705h-54z" />
    <glyph glyph-name="m" unicode="m" horiz-adv-x="884" 
d="M86 0v509h34l17 -77c40 46 97 89 172 89c68 0 123 -34 147 -101c42 51 106 101 185 101c100 0 163 -63 163 -185v-336h-54v329c0 98 -53 142 -120 142c-64 0 -120 -45 -161 -96c3 -20 3 -39 3 -61v-314h-54v329c0 98 -53 142 -120 142c-64 0 -122 -47 -158 -93v-378h-54z
" />
    <glyph glyph-name="n" unicode="n" horiz-adv-x="574" 
d="M86 0v509h34l17 -77c40 46 103 89 182 89c100 0 175 -65 175 -190v-331h-54v324c0 102 -56 147 -129 147c-70 0 -132 -46 -171 -93v-378h-54z" />
    <glyph glyph-name="o" unicode="o" horiz-adv-x="538" 
d="M269 38c103 0 152 62 152 141v151c0 79 -49 141 -152 141c-99 0 -152 -61 -152 -141v-151c0 -81 53 -141 152 -141zM269 -12c-137 0 -206 82 -206 189v155c0 106 69 189 206 189c138 0 206 -83 206 -189v-155c0 -107 -68 -189 -206 -189z" />
    <glyph glyph-name="p" unicode="p" horiz-adv-x="569" 
d="M320 521c108 0 178 -72 178 -188v-157c0 -116 -69 -188 -180 -188c-80 0 -142 44 -178 86v-234h-54v669h34l17 -77c39 44 102 89 183 89zM312 38c84 0 132 59 132 142v149c0 83 -48 142 -131 142c-71 0 -132 -48 -173 -93v-247c41 -45 102 -93 172 -93z" />
    <glyph glyph-name="q" unicode="q" horiz-adv-x="569" 
d="M249 521c81 0 144 -45 183 -89l17 77h34v-669h-54v234c-36 -42 -98 -86 -178 -86c-111 0 -180 72 -180 188v157c0 116 70 188 178 188zM257 38c70 0 131 48 172 93v247c-41 45 -102 93 -173 93c-83 0 -131 -59 -131 -142v-149c0 -83 48 -142 132 -142z" />
    <glyph glyph-name="r" unicode="r" horiz-adv-x="366" 
d="M86 0v509h30l18 -77c41 45 111 89 189 89h7v-55h-7c-74 0 -139 -31 -183 -85v-381h-54z" />
    <glyph glyph-name="s" unicode="s" horiz-adv-x="538" 
d="M274 -12c-118 0 -218 56 -218 182h54c0 -95 84 -132 168 -132c89 0 140 41 140 96c0 48 -30 68 -100 86l-115 30c-79 21 -125 52 -125 130c0 81 67 141 188 141c116 0 199 -59 199 -177h-54c0 86 -64 127 -149 127c-89 0 -130 -40 -130 -89c0 -45 24 -66 90 -83l114 -29
c86 -22 136 -54 136 -133c0 -87 -72 -149 -198 -149z" />
    <glyph glyph-name="t" unicode="t" horiz-adv-x="357" 
d="M263 0c-116 0 -150 77 -150 150v311h-87v48h87v106h54v-106h139v-48h-139v-309c0 -69 36 -102 96 -102h43v-50h-43z" />
    <glyph glyph-name="u" unicode="u" horiz-adv-x="574" 
d="M488 509v-509h-34l-17 77c-40 -46 -103 -89 -182 -89c-100 0 -175 65 -175 190v331h54v-324c0 -102 56 -147 129 -147c70 0 132 46 171 93v378h54z" />
    <glyph glyph-name="v" unicode="v" horiz-adv-x="501" 
d="M224 0l-198 483v26h51l175 -437l173 437h50v-26l-198 -483h-53z" />
    <glyph glyph-name="w" unicode="w" horiz-adv-x="704" 
d="M374 409l122 -337l108 437h49v-26l-123 -483h-56l-122 327l-122 -327h-56l-123 483v26h50l108 -437l122 337h43z" />
    <glyph glyph-name="x" unicode="x" horiz-adv-x="512" 
d="M46 0v26l176 228l-175 229v26h50l159 -213l160 213h47v-26l-173 -227l177 -230v-26h-49l-163 217l-162 -217h-47z" />
    <glyph glyph-name="y" unicode="y" horiz-adv-x="499" 
d="M165 -160v21l60 139l-199 483v26h51l175 -437l173 437h50v-26l-264 -643h-46z" />
    <glyph glyph-name="z" unicode="z" horiz-adv-x="513" 
d="M56 0v48l323 413h-309v48h374v-48l-323 -413h329v-48h-394z" />
    <glyph glyph-name="braceleft" unicode="{" horiz-adv-x="317" 
d="M299 -160c-106 0 -174 59 -174 170v188c0 55 -20 79 -62 79h-27v50h27c45 0 62 28 62 79v176c0 111 68 170 174 170v-50c-74 0 -120 -44 -120 -118v-191c0 -52 -23 -81 -54 -91c31 -10 54 -39 54 -91v-203c0 -74 46 -118 120 -118v-50z" />
    <glyph glyph-name="bar" unicode="|" horiz-adv-x="245" 
d="M96 -100v852h54v-852h-54z" />
    <glyph glyph-name="braceright" unicode="}" horiz-adv-x="317" 
d="M18 -160v50c74 0 120 44 120 118v203c0 52 23 81 54 91c-31 10 -54 39 -54 91v191c0 74 -46 118 -120 118v50c106 0 174 -59 174 -170v-176c0 -51 17 -79 62 -79h27v-50h-27c-42 0 -62 -24 -62 -79v-188c0 -111 -68 -170 -174 -170z" />
    <glyph glyph-name="asciitilde" unicode="~" horiz-adv-x="469" 
d="M83 256l-33 26c43 63 70 92 110 92c25 0 48 -11 69 -27l24 -18c21 -16 37 -23 56 -23c22 0 37 15 76 67l34 -26c-41 -64 -70 -92 -111 -92c-26 0 -45 9 -67 25l-25 19c-21 16 -34 24 -52 24c-28 0 -42 -17 -81 -67z" />
    <glyph glyph-name="nbspace" unicode="&#xa0;" horiz-adv-x="257" 
 />
    <glyph glyph-name="exclamdown" unicode="&#xa1;" horiz-adv-x="248" 
d="M97 -160v451h54v-451h-54zM96 386v123h56v-123h-56z" />
    <glyph glyph-name="cent" unicode="&#xa2;" horiz-adv-x="527" 
d="M286 700v-89c114 -7 183 -77 183 -177v-5h-54v6c0 69 -47 119 -129 126v-431c83 7 129 59 129 128v6h54v-5c0 -101 -69 -173 -183 -180v-79h-41v80c-117 8 -182 83 -182 188v155c0 103 65 179 182 188v89h41zM117 267c0 -75 44 -129 128 -137v431
c-84 -8 -128 -63 -128 -137v-157z" />
    <glyph glyph-name="sterling" unicode="&#xa3;" horiz-adv-x="575" 
d="M46 0v50h77v285h-77v50h77v141c0 111 73 189 204 189c126 0 202 -72 202 -182v-29h-54v29c0 78 -53 132 -148 132c-98 0 -150 -57 -150 -138v-142h186v-50h-186v-285h352v-50h-483z" />
    <glyph glyph-name="yen" unicode="&#xa5;" horiz-adv-x="589" 
d="M267 0v117h-199v50h199v111h-199v50h169l-221 352v20h54l225 -365l225 365h53v-20l-222 -352h170v-50h-199v-111h199v-50h-199v-117h-55z" />
    <glyph glyph-name="brokenbar" unicode="&#xa6;" horiz-adv-x="245" 
d="M96 -100v340h54v-340h-54zM96 432v320h54v-320h-54z" />
    <glyph glyph-name="section" unicode="&#xa7;" horiz-adv-x="564" 
d="M289 -172c-127 0 -233 64 -233 200h52c0 -109 89 -150 186 -150c79 0 148 33 148 114c0 53 -52 75 -103 95l-81 30c-117 43 -187 81 -187 172c0 56 29 111 64 151c-36 24 -59 55 -59 110c0 88 75 157 204 157c121 0 219 -58 219 -194h-53c0 104 -83 144 -168 144
c-71 0 -147 -31 -147 -106c0 -61 52 -82 106 -103l80 -31c117 -46 187 -82 187 -169c0 -56 -38 -111 -72 -149c40 -27 67 -55 67 -113c0 -87 -76 -158 -210 -158zM392 120c35 39 59 84 59 122c0 67 -73 97 -146 126l-130 50c-33 -41 -50 -86 -50 -123c0 -69 70 -97 136 -123
z" />
    <glyph glyph-name="dieresis" unicode="&#xa8;" horiz-adv-x="332" 
d="M49 595v110h54v-110h-54zM230 595v110h54v-110h-54z" />
    <glyph glyph-name="copyright" unicode="&#xa9;" horiz-adv-x="871" 
d="M434 140c-113 0 -172 66 -172 163v95c0 97 59 163 172 163c100 0 168 -56 168 -151v-4h-44v4c0 68 -52 110 -125 110c-83 0 -128 -48 -128 -119v-101c0 -71 45 -119 128 -119c73 0 125 42 125 111v3h44v-3c0 -95 -68 -152 -168 -152zM436 -15c-203 0 -360 159 -360 365
s157 365 360 365s360 -159 360 -365s-157 -365 -360 -365zM436 24c179 0 319 142 319 326s-140 326 -319 326c-181 0 -320 -142 -320 -326s139 -326 320 -326z" />
    <glyph glyph-name="ordfeminine" unicode="&#xaa;" horiz-adv-x="432" 
d="M174 353c-64 0 -118 29 -118 98s53 106 156 106h90v34c0 39 -28 67 -86 67c-56 0 -85 -27 -85 -67h-56c0 65 46 114 140 114c96 0 141 -47 141 -110v-237h-33l-16 47c-25 -21 -74 -52 -133 -52zM189 402c48 0 91 29 113 47v67h-89c-66 0 -100 -22 -100 -60
c0 -41 34 -54 76 -54z" />
    <glyph glyph-name="guillemotleft" unicode="&#xab;" horiz-adv-x="530" 
d="M216 63l-170 206l170 206h48v-22l-153 -184l153 -184v-22h-48zM418 63l-170 206l170 206h48v-22l-153 -184l153 -184v-22h-48z" />
    <glyph glyph-name="logicalnot" unicode="&#xac;" horiz-adv-x="524" 
d="M421 203v196h-367v46h416v-242h-49z" />
    <glyph glyph-name="uni00AD" unicode="&#xad;" horiz-adv-x="435" 
d="M66 288v50h304v-50h-304z" />
    <glyph glyph-name="registered" unicode="&#xae;" horiz-adv-x="403" 
d="M133 455v177h82c38 0 60 -20 60 -54c0 -30 -17 -50 -44 -54l44 -58v-11h-22l-50 67h-46v-67h-24zM157 543h57c22 0 38 13 38 33c0 21 -16 33 -38 33h-57v-66zM201 371c-93 0 -167 74 -167 172s74 172 167 172s167 -74 167 -172s-74 -172 -167 -172zM201 393
c80 0 144 65 144 150s-64 150 -144 150s-143 -65 -143 -150s63 -150 143 -150z" />
    <glyph glyph-name="macron" unicode="&#xaf;" horiz-adv-x="442" 
d="M88 627v46h266v-46h-266z" />
    <glyph glyph-name="degree" unicode="&#xb0;" horiz-adv-x="384" 
d="M192 404c66 0 98 43 98 95v78c0 53 -32 95 -98 95c-64 0 -98 -41 -98 -95v-78c0 -54 34 -95 98 -95zM192 361c-94 0 -146 56 -146 142v70c0 86 52 142 146 142c95 0 146 -56 146 -142v-70c0 -86 -51 -142 -146 -142z" />
    <glyph glyph-name="plusminus" unicode="&#xb1;" horiz-adv-x="525" 
d="M238 145v182h-184v46h184v177h49v-177h184v-46h-184v-182h-49zM54 21v46h417v-46h-417z" />
    <glyph glyph-name="twosuperior" unicode="&#xb2;" horiz-adv-x="313" 
d="M40 358v42l111 90c36 29 67 54 67 98c0 42 -27 68 -66 68c-40 0 -71 -27 -71 -78h-45c0 83 52 127 119 127c66 0 112 -45 112 -111c0 -68 -44 -104 -88 -139l-62 -49h156v-48h-233z" />
    <glyph glyph-name="threesuperior" unicode="&#xb3;" horiz-adv-x="326" 
d="M164 353c-76 0 -127 45 -128 110h49c2 -37 32 -61 79 -61c48 0 72 21 72 53c0 29 -25 54 -65 54h-41v48h40c37 0 55 24 55 49c0 27 -23 50 -67 50c-42 0 -72 -23 -72 -64h-45c0 71 47 113 118 113c73 0 115 -42 115 -93c0 -38 -20 -63 -50 -74c33 -10 61 -38 61 -81
c0 -63 -45 -104 -121 -104z" />
    <glyph glyph-name="acute" unicode="&#xb4;" horiz-adv-x="286" 
d="M225 710l-108 -120h-55l107 140h56v-20z" />
    <glyph glyph-name="mu" unicode="&#xb5;" horiz-adv-x="580" 
d="M86 -160v669h54v-324c0 -96 51 -147 130 -147c69 0 132 47 170 93v378h54v-509h-33l-18 77c-41 -46 -102 -89 -178 -89c-58 0 -106 29 -125 73v-221h-54z" />
    <glyph glyph-name="paragraph" unicode="&#xb6;" horiz-adv-x="578" 
d="M221 -87v455c-108 0 -175 58 -175 162v8c0 106 67 162 175 162h261v-787h-51v737h-159v-737h-51z" />
    <glyph glyph-name="periodcentered" unicode="&#xb7;" horiz-adv-x="216" 
d="M79 254v129h58v-129h-58z" />
    <glyph glyph-name="cedilla" unicode="&#xb8;" horiz-adv-x="287" 
d="M69 -140l105 140h55l-104 -160h-56v20z" />
    <glyph glyph-name="onesuperior" unicode="&#xb9;" horiz-adv-x="219" 
d="M87 358v282h-57v26l59 34h49v-342h-51z" />
    <glyph glyph-name="ordmasculine" unicode="&#xba;" horiz-adv-x="403" 
d="M201 401c68 0 102 45 102 99v57c0 57 -34 100 -102 100c-66 0 -101 -42 -101 -100v-57c0 -57 35 -99 101 -99zM201 353c-100 0 -155 59 -155 151v50c0 92 55 151 155 151c101 0 156 -59 156 -151v-50c0 -92 -55 -151 -156 -151z" />
    <glyph glyph-name="guillemotright" unicode="&#xbb;" horiz-adv-x="530" 
d="M282 269l-170 -206h-48v22l153 184l-153 184v22h48zM484 269l-170 -206h-48v22l153 184l-153 184v22h48z" />
    <glyph glyph-name="onequarter" unicode="&#xbc;" horiz-adv-x="651" 
d="M87 358v282h-57v26l59 34h49v-342h-51zM65 0v20l393 680h47v-20l-394 -680h-46zM467 342h42v-24l-110 -195h116v77h51v-77h59v-48h-59v-75h-51v75h-181v36z" />
    <glyph glyph-name="onehalf" unicode="&#xbd;" horiz-adv-x="670" 
d="M65 0v20l393 680h47v-20l-394 -680h-46zM87 358v282h-57v26l59 34h49v-342h-51zM397 0v42l111 90c36 29 67 54 67 98c0 42 -27 68 -66 68c-40 0 -71 -27 -71 -78h-45c0 83 52 127 119 127c66 0 112 -45 112 -111c0 -68 -44 -104 -88 -139l-62 -49h156v-48h-233z" />
    <glyph glyph-name="threequarters" unicode="&#xbe;" horiz-adv-x="744" 
d="M158 0v20l393 680h47v-20l-394 -680h-46zM560 342h42v-24l-110 -195h116v77h51v-77h59v-48h-59v-75h-51v75h-181v36zM164 353c-76 0 -127 45 -128 110h49c2 -37 32 -61 79 -61c48 0 72 21 72 53c0 29 -25 54 -65 54h-41v48h40c37 0 55 24 55 49c0 27 -23 50 -67 50
c-42 0 -72 -23 -72 -64h-45c0 71 47 113 118 113c73 0 115 -42 115 -93c0 -38 -20 -63 -50 -74c33 -10 61 -38 61 -81c0 -63 -45 -104 -121 -104z" />
    <glyph glyph-name="questiondown" unicode="&#xbf;" horiz-adv-x="507" 
d="M282 291v-90l-76 -46c-60 -36 -111 -71 -111 -151c0 -64 49 -126 153 -126c98 0 167 59 167 169h52c0 -143 -95 -219 -219 -219c-139 0 -207 83 -207 176c0 103 78 152 132 185l55 33v69h54zM283 509v-123h-58v123h58z" />
    <glyph glyph-name="Agrave" unicode="&#xc0;" horiz-adv-x="654" 
d="M26 0v20l271 680h59l272 -680v-20h-57l-78 198h-335l-79 -198h-53zM176 248h299l-149 375zM300 762l-116 129v22h60l115 -151h-59z" />
    <glyph glyph-name="Aacute" unicode="&#xc1;" horiz-adv-x="654" 
d="M26 0v20l271 680h59l272 -680v-20h-57l-78 198h-335l-79 -198h-53zM176 248h299l-149 375zM479 891l-116 -129h-59l115 151h60v-22z" />
    <glyph glyph-name="Acircumflex" unicode="&#xc2;" horiz-adv-x="654" 
d="M26 0v20l271 680h59l272 -680v-20h-57l-78 198h-335l-79 -198h-53zM176 248h299l-149 375zM354 913l116 -129v-22h-56l-89 107l-88 -107h-55v22l116 129h56z" />
    <glyph glyph-name="Atilde" unicode="&#xc3;" horiz-adv-x="654" 
d="M26 0v20l271 680h59l272 -680v-20h-57l-78 198h-335l-79 -198h-53zM176 248h299l-149 375zM179 770l-33 26c42 63 69 90 108 90c24 0 46 -11 67 -26l23 -16c22 -14 38 -24 57 -24c21 0 35 15 73 65l34 -25c-40 -63 -68 -91 -109 -91c-25 0 -44 12 -65 26l-22 14
c-21 15 -36 27 -54 27c-28 0 -41 -16 -79 -66z" />
    <glyph glyph-name="Adieresis" unicode="&#xc4;" horiz-adv-x="654" 
d="M26 0v20l271 680h59l272 -680v-20h-57l-78 198h-335l-79 -198h-53zM176 248h299l-149 375zM201 768v118h57v-118h-57zM395 768v118h57v-118h-57z" />
    <glyph glyph-name="Aring" unicode="&#xc5;" horiz-adv-x="654" 
d="M26 0v20l271 680h59l272 -680v-20h-57l-78 198h-335l-79 -198h-53zM176 248h299l-149 375zM225 846c0 57 45 103 101 103c57 0 103 -46 103 -103c0 -56 -46 -101 -103 -101c-56 0 -101 45 -101 101zM262 846c0 -35 30 -64 64 -64c37 0 65 29 65 64c0 36 -28 65 -65 65
c-34 0 -64 -29 -64 -65z" />
    <glyph glyph-name="AE" unicode="&#xc6;" horiz-adv-x="954" 
d="M16 0v20l427 680h454v-52h-367v-269h320v-52h-320v-275h368v-52h-426v198h-279l-125 -198h-52zM224 248h248v393z" />
    <glyph glyph-name="Ccedilla" unicode="&#xc7;" horiz-adv-x="658" 
d="M209 -140l95 127c-144 13 -228 103 -228 250v226c0 159 99 252 264 252c134 0 252 -77 252 -234v-10h-58v10c0 121 -97 180 -194 180c-131 0 -206 -72 -206 -194v-234c0 -122 75 -194 206 -194c97 0 194 59 194 180v10h58v-10c0 -150 -107 -226 -233 -233l-94 -146h-56
v20z" />
    <glyph glyph-name="Egrave" unicode="&#xc8;" horiz-adv-x="578" 
d="M96 0v700h425v-52h-367v-269h320v-52h-320v-275h368v-52h-426zM317 762l-116 129v22h60l115 -151h-59z" />
    <glyph glyph-name="Eacute" unicode="&#xc9;" horiz-adv-x="578" 
d="M96 0v700h425v-52h-367v-269h320v-52h-320v-275h368v-52h-426zM429 891l-116 -129h-59l115 151h60v-22z" />
    <glyph glyph-name="Ecircumflex" unicode="&#xca;" horiz-adv-x="578" 
d="M96 0v700h425v-52h-367v-269h320v-52h-320v-275h368v-52h-426zM340 913l116 -129v-22h-56l-89 107l-88 -107h-55v22l116 129h56z" />
    <glyph glyph-name="Edieresis" unicode="&#xcb;" horiz-adv-x="578" 
d="M96 0v700h425v-52h-367v-269h320v-52h-320v-275h368v-52h-426zM181 768v118h57v-118h-57zM374 768v118h58v-118h-58z" />
    <glyph glyph-name="Igrave" unicode="&#xcc;" horiz-adv-x="250" 
d="M96 0v700h58v-700h-58zM96 762l-116 129v22h60l115 -151h-59z" />
    <glyph glyph-name="Iacute" unicode="&#xcd;" horiz-adv-x="250" 
d="M96 0v700h58v-700h-58zM272 891l-116 -129h-59l115 151h60v-22z" />
    <glyph glyph-name="Icircumflex" unicode="&#xce;" horiz-adv-x="250" 
d="M96 0v700h58v-700h-58zM153 913l116 -129v-22h-56l-89 107l-88 -107h-55v22l116 129h56z" />
    <glyph glyph-name="Idieresis" unicode="&#xcf;" horiz-adv-x="250" 
d="M96 0v700h58v-700h-58zM-1 768v119h58v-119h-58zM193 768v119h59v-119h-59z" />
    <glyph glyph-name="Eth" unicode="&#xd0;" horiz-adv-x="696" 
d="M176 52h181c128 0 205 75 205 192v212c0 117 -77 192 -205 192h-181v-273h201v-49h-201v-274zM117 0v326h-97v49h97v325h240c160 0 263 -89 263 -245v-210c0 -156 -103 -245 -263 -245h-240z" />
    <glyph glyph-name="Ntilde" unicode="&#xd1;" horiz-adv-x="694" 
d="M96 0v700h54l389 -592v592h59v-700h-54l-390 591v-591h-58zM202 770l-33 26c42 63 69 90 108 90c24 0 46 -11 67 -26l23 -16c22 -14 38 -24 57 -24c21 0 35 15 73 65l34 -25c-40 -63 -68 -91 -109 -91c-25 0 -44 12 -65 26l-22 14c-21 15 -36 27 -54 27
c-28 0 -41 -16 -79 -66z" />
    <glyph glyph-name="Ograve" unicode="&#xd2;" horiz-adv-x="678" 
d="M339 39c129 0 205 76 205 193v236c0 117 -76 193 -205 193s-205 -76 -205 -193v-236c0 -117 76 -193 205 -193zM339 -15c-161 0 -263 92 -263 250v230c0 158 102 250 263 250c160 0 263 -92 263 -250v-230c0 -158 -103 -250 -263 -250zM333 762l-116 129v22h60l115 -151
h-59z" />
    <glyph glyph-name="Oacute" unicode="&#xd3;" horiz-adv-x="678" 
d="M339 39c129 0 205 76 205 193v236c0 117 -76 193 -205 193s-205 -76 -205 -193v-236c0 -117 76 -193 205 -193zM339 -15c-161 0 -263 92 -263 250v230c0 158 102 250 263 250c160 0 263 -92 263 -250v-230c0 -158 -103 -250 -263 -250zM485 891l-116 -129h-59l115 151h60
v-22z" />
    <glyph glyph-name="Ocircumflex" unicode="&#xd4;" horiz-adv-x="678" 
d="M339 39c129 0 205 76 205 193v236c0 117 -76 193 -205 193s-205 -76 -205 -193v-236c0 -117 76 -193 205 -193zM339 -15c-161 0 -263 92 -263 250v230c0 158 102 250 263 250c160 0 263 -92 263 -250v-230c0 -158 -103 -250 -263 -250zM367 913l116 -129v-22h-56l-89 107
l-88 -107h-55v22l116 129h56z" />
    <glyph glyph-name="Otilde" unicode="&#xd5;" horiz-adv-x="678" 
d="M339 39c129 0 205 76 205 193v236c0 117 -76 193 -205 193s-205 -76 -205 -193v-236c0 -117 76 -193 205 -193zM339 -15c-161 0 -263 92 -263 250v230c0 158 102 250 263 250c160 0 263 -92 263 -250v-230c0 -158 -103 -250 -263 -250zM195 770l-33 26
c42 63 69 90 108 90c24 0 46 -11 67 -26l23 -16c22 -14 38 -24 57 -24c21 0 35 15 73 65l34 -25c-40 -63 -68 -91 -109 -91c-25 0 -44 12 -65 26l-22 14c-21 15 -36 27 -54 27c-28 0 -41 -16 -79 -66z" />
    <glyph glyph-name="Odieresis" unicode="&#xd6;" horiz-adv-x="678" 
d="M339 39c129 0 205 76 205 193v236c0 117 -76 193 -205 193s-205 -76 -205 -193v-236c0 -117 76 -193 205 -193zM339 -15c-161 0 -263 92 -263 250v230c0 158 102 250 263 250c160 0 263 -92 263 -250v-230c0 -158 -103 -250 -263 -250zM215 768v118h57v-118h-57zM409 768
v118h57v-118h-57z" />
    <glyph glyph-name="multiply" unicode="&#xd7;" horiz-adv-x="482" 
d="M90 125l-36 35l152 152l-152 151l36 36l151 -152l152 152l35 -36l-152 -151l152 -152l-35 -35l-152 152z" />
    <glyph glyph-name="Oslash" unicode="&#xd8;" horiz-adv-x="678" 
d="M339 -15c-41 0 -79 6 -111 17l-40 -102h-44v20l40 103c-69 41 -108 113 -108 212v230c0 158 102 250 263 250c40 0 76 -6 108 -17l40 102h44v-20l-40 -102c70 -41 111 -114 111 -213v-230c0 -158 -103 -250 -263 -250zM339 39c129 0 205 76 205 193v236
c0 68 -26 123 -74 156l-222 -570c26 -10 57 -15 91 -15zM134 232c0 -68 25 -121 71 -155l222 570c-26 9 -55 14 -88 14c-129 0 -205 -76 -205 -193v-236z" />
    <glyph glyph-name="Ugrave" unicode="&#xd9;" horiz-adv-x="673" 
d="M337 -15c-141 0 -251 82 -251 243v472h58v-472c0 -120 76 -189 193 -189c116 0 192 67 192 189v472h59v-472c0 -159 -111 -243 -251 -243zM350 762l-116 129v22h60l115 -151h-59z" />
    <glyph glyph-name="Uacute" unicode="&#xda;" horiz-adv-x="673" 
d="M337 -15c-141 0 -251 82 -251 243v472h58v-472c0 -120 76 -189 193 -189c116 0 192 67 192 189v472h59v-472c0 -159 -111 -243 -251 -243zM477 891l-116 -129h-59l115 151h60v-22z" />
    <glyph glyph-name="Ucircumflex" unicode="&#xdb;" horiz-adv-x="673" 
d="M337 -15c-141 0 -251 82 -251 243v472h58v-472c0 -120 76 -189 193 -189c116 0 192 67 192 189v472h59v-472c0 -159 -111 -243 -251 -243zM365 913l116 -129v-22h-56l-89 107l-88 -107h-55v22l116 129h56z" />
    <glyph glyph-name="Udieresis" unicode="&#xdc;" horiz-adv-x="673" 
d="M337 -15c-141 0 -251 82 -251 243v472h58v-472c0 -120 76 -189 193 -189c116 0 192 67 192 189v472h59v-472c0 -159 -111 -243 -251 -243zM213 768v118h57v-118h-57zM407 768v118h57v-118h-57z" />
    <glyph glyph-name="Yacute" unicode="&#xdd;" horiz-adv-x="604" 
d="M273 0v278l-257 402v20h57l229 -367l233 367h53v-20l-257 -400v-280h-58zM439 891l-116 -129h-59l115 151h60v-22z" />
    <glyph glyph-name="Thorn" unicode="&#xde;" horiz-adv-x="620" 
d="M96 0v700h58v-141h226c119 0 189 -81 189 -207s-70 -206 -189 -206h-226v-146h-58zM154 198h217c84 0 139 57 139 154c0 98 -55 155 -139 155h-217v-309z" />
    <glyph glyph-name="germandbls" unicode="&#xdf;" horiz-adv-x="584" 
d="M86 0v468c0 152 78 239 212 239c127 0 198 -80 198 -175c0 -79 -39 -128 -102 -147c70 -17 135 -83 135 -181c0 -133 -83 -204 -220 -204c-33 0 -64 5 -70 6v47s34 -5 66 -5c112 0 170 59 170 158c0 93 -64 154 -167 154h-58v47h54c93 0 135 49 135 123
c0 70 -48 127 -141 127c-101 0 -158 -66 -158 -184v-473h-54z" />
    <glyph glyph-name="agrave" unicode="&#xe0;" horiz-adv-x="538" 
d="M217 -12c-89 0 -166 46 -166 146c0 103 73 161 211 161h142v59c0 68 -44 117 -137 117c-89 0 -136 -48 -136 -113h-53c0 93 62 163 189 163c129 0 191 -70 191 -164v-357h-35l-18 71c-32 -34 -102 -83 -188 -83zM227 38c78 0 143 50 177 83v126h-142
c-107 0 -157 -39 -157 -107c0 -72 56 -102 122 -102zM289 590l-108 120v20h56l107 -140h-55z" />
    <glyph glyph-name="aacute" unicode="&#xe1;" horiz-adv-x="538" 
d="M217 -12c-89 0 -166 46 -166 146c0 103 73 161 211 161h142v59c0 68 -44 117 -137 117c-89 0 -136 -48 -136 -113h-53c0 93 62 163 189 163c129 0 191 -70 191 -164v-357h-35l-18 71c-32 -34 -102 -83 -188 -83zM227 38c78 0 143 50 177 83v126h-142
c-107 0 -157 -39 -157 -107c0 -72 56 -102 122 -102zM396 710l-108 -120h-55l107 140h56v-20z" />
    <glyph glyph-name="acircumflex" unicode="&#xe2;" horiz-adv-x="538" 
d="M217 -12c-89 0 -166 46 -166 146c0 103 73 161 211 161h142v59c0 68 -44 117 -137 117c-89 0 -136 -48 -136 -113h-53c0 93 62 163 189 163c129 0 191 -70 191 -164v-357h-35l-18 71c-32 -34 -102 -83 -188 -83zM227 38c78 0 143 50 177 83v126h-142
c-107 0 -157 -39 -157 -107c0 -72 56 -102 122 -102zM303 730l108 -120v-20h-52l-83 99l-82 -99h-52v20l108 120h53z" />
    <glyph glyph-name="atilde" unicode="&#xe3;" horiz-adv-x="538" 
d="M217 -12c-89 0 -166 46 -166 146c0 103 73 161 211 161h142v59c0 68 -44 117 -137 117c-89 0 -136 -48 -136 -113h-53c0 93 62 163 189 163c129 0 191 -70 191 -164v-357h-35l-18 71c-32 -34 -102 -83 -188 -83zM227 38c78 0 143 50 177 83v126h-142
c-107 0 -157 -39 -157 -107c0 -72 56 -102 122 -102zM137 609l-32 25c41 61 67 88 105 88c24 0 45 -11 66 -26l22 -15c21 -14 37 -24 55 -24c21 0 35 15 72 64l33 -25c-39 -61 -67 -88 -106 -88c-25 0 -43 11 -64 25l-21 14c-21 14 -35 26 -53 26c-27 0 -40 -16 -77 -64z
" />
    <glyph glyph-name="adieresis" unicode="&#xe4;" horiz-adv-x="538" 
d="M217 -12c-89 0 -166 46 -166 146c0 103 73 161 211 161h142v59c0 68 -44 117 -137 117c-89 0 -136 -48 -136 -113h-53c0 93 62 163 189 163c129 0 191 -70 191 -164v-357h-35l-18 71c-32 -34 -102 -83 -188 -83zM227 38c78 0 143 50 177 83v126h-142
c-107 0 -157 -39 -157 -107c0 -72 56 -102 122 -102zM150 595v110h54v-110h-54zM331 595v110h54v-110h-54z" />
    <glyph glyph-name="aring" unicode="&#xe5;" horiz-adv-x="538" 
d="M217 -12c-89 0 -166 46 -166 146c0 103 73 161 211 161h142v59c0 68 -44 117 -137 117c-89 0 -136 -48 -136 -113h-53c0 93 62 163 189 163c129 0 191 -70 191 -164v-357h-35l-18 71c-32 -34 -102 -83 -188 -83zM227 38c78 0 143 50 177 83v126h-142
c-107 0 -157 -39 -157 -107c0 -72 56 -102 122 -102zM177 667c0 53 42 96 94 96c53 0 96 -43 96 -96c0 -52 -43 -94 -96 -94c-52 0 -94 42 -94 94zM211 667c0 -32 28 -59 60 -59c34 0 61 27 61 59c0 34 -27 61 -61 61c-32 0 -60 -27 -60 -61z" />
    <glyph glyph-name="ae" unicode="&#xe6;" horiz-adv-x="875" 
d="M217 -12c-91 0 -166 45 -166 143c0 102 73 158 211 158h142v64c0 68 -44 116 -137 116c-89 0 -136 -46 -136 -111h-53c0 93 62 163 189 163c91 0 146 -39 168 -94c28 56 87 94 175 94c131 0 203 -77 203 -188v-91h-355v-64c0 -82 55 -138 152 -138c91 0 136 45 145 111
h54c-9 -98 -76 -163 -199 -163c-105 0 -166 48 -191 109c-40 -58 -110 -109 -202 -109zM227 40c84 0 151 55 177 104v98h-142c-107 0 -157 -37 -157 -104c0 -70 56 -98 122 -98zM458 289h301v42c0 79 -50 138 -151 138c-97 0 -150 -58 -150 -138v-42z" />
    <glyph glyph-name="ccedilla" unicode="&#xe7;" horiz-adv-x="527" 
d="M146 -140l97 129c-116 9 -180 84 -180 188v155c0 110 73 189 204 189c125 0 202 -72 202 -178v-5h-54v6c0 74 -54 127 -148 127c-98 0 -150 -58 -150 -138v-157c0 -81 52 -138 150 -138c95 0 148 55 148 129v6h54v-5c0 -97 -64 -167 -170 -178l-97 -150h-56v20z" />
    <glyph glyph-name="egrave" unicode="&#xe8;" horiz-adv-x="534" 
d="M269 -12c-132 0 -206 77 -206 188v156c0 110 74 189 206 189c130 0 203 -77 203 -188v-97h-355v-59c0 -81 53 -139 152 -139c91 0 136 47 145 113h54c-8 -98 -77 -163 -199 -163zM117 284h301v49c0 79 -50 138 -151 138c-97 0 -150 -58 -150 -138v-49zM269 590l-108 120
v20h56l107 -140h-55z" />
    <glyph glyph-name="eacute" unicode="&#xe9;" horiz-adv-x="534" 
d="M269 -12c-132 0 -206 77 -206 188v156c0 110 74 189 206 189c130 0 203 -77 203 -188v-97h-355v-59c0 -81 53 -139 152 -139c91 0 136 47 145 113h54c-8 -98 -77 -163 -199 -163zM117 284h301v49c0 79 -50 138 -151 138c-97 0 -150 -58 -150 -138v-49zM374 710l-108 -120
h-55l107 140h56v-20z" />
    <glyph glyph-name="ecircumflex" unicode="&#xea;" horiz-adv-x="534" 
d="M269 -12c-132 0 -206 77 -206 188v156c0 110 74 189 206 189c130 0 203 -77 203 -188v-97h-355v-59c0 -81 53 -139 152 -139c91 0 136 47 145 113h54c-8 -98 -77 -163 -199 -163zM117 284h301v49c0 79 -50 138 -151 138c-97 0 -150 -58 -150 -138v-49zM299 730l108 -120
v-20h-52l-83 99l-82 -99h-52v20l108 120h53z" />
    <glyph glyph-name="edieresis" unicode="&#xeb;" horiz-adv-x="534" 
d="M269 -12c-132 0 -206 77 -206 188v156c0 110 74 189 206 189c130 0 203 -77 203 -188v-97h-355v-59c0 -81 53 -139 152 -139c91 0 136 47 145 113h54c-8 -98 -77 -163 -199 -163zM117 284h301v49c0 79 -50 138 -151 138c-97 0 -150 -58 -150 -138v-49zM151 595v110h54
v-110h-54zM332 595v110h54v-110h-54z" />
    <glyph glyph-name="igrave" unicode="&#xec;" horiz-adv-x="225" 
d="M85 588l-108 120v20h56l107 -140h-55zM86 0v509h54v-509h-54z" />
    <glyph glyph-name="iacute" unicode="&#xed;" horiz-adv-x="225" 
d="M249 710l-108 -120h-55l107 140h56v-20zM86 0v509h54v-509h-54z" />
    <glyph glyph-name="icircumflex" unicode="&#xee;" horiz-adv-x="225" 
d="M86 0v509h54v-509h-54zM140 730l108 -120v-20h-52l-83 99l-82 -99h-52v20l108 120h53z" />
    <glyph glyph-name="idieresis" unicode="&#xef;" horiz-adv-x="225" 
d="M-4 595v110h54v-110h-54zM177 595v110h54v-110h-54zM86 0v509h54v-509h-54z" />
    <glyph glyph-name="eth" unicode="&#xf0;" horiz-adv-x="552" 
d="M273 -12c-132 0 -206 78 -206 189v94c0 117 69 189 180 189c77 0 130 -41 168 -79c-14 57 -47 103 -90 157h-179v48h140l-75 93v26h49l93 -119h120v-48h-83c56 -74 90 -128 90 -228v-134c0 -111 -75 -188 -207 -188zM273 38c99 0 153 60 153 141v141
c-41 45 -96 89 -166 89c-88 0 -139 -60 -139 -142v-88c0 -79 49 -141 152 -141z" />
    <glyph glyph-name="ntilde" unicode="&#xf1;" horiz-adv-x="574" 
d="M86 0v509h34l17 -77c40 46 103 89 182 89c100 0 175 -65 175 -190v-331h-54v324c0 102 -56 147 -129 147c-70 0 -132 -46 -171 -93v-378h-54zM151 609l-32 25c41 61 67 88 105 88c24 0 45 -11 66 -26l22 -15c21 -14 37 -24 55 -24c21 0 35 15 72 64l33 -25
c-39 -61 -67 -88 -106 -88c-25 0 -43 11 -64 25l-21 14c-21 14 -35 26 -53 26c-27 0 -40 -16 -77 -64z" />
    <glyph glyph-name="ograve" unicode="&#xf2;" horiz-adv-x="538" 
d="M269 38c103 0 152 62 152 141v151c0 79 -49 141 -152 141c-99 0 -152 -61 -152 -141v-151c0 -81 53 -141 152 -141zM269 -12c-137 0 -206 82 -206 189v155c0 106 69 189 206 189c138 0 206 -83 206 -189v-155c0 -107 -68 -189 -206 -189zM259 590l-108 120v20h56
l107 -140h-55z" />
    <glyph glyph-name="oacute" unicode="&#xf3;" horiz-adv-x="538" 
d="M269 38c103 0 152 62 152 141v151c0 79 -49 141 -152 141c-99 0 -152 -61 -152 -141v-151c0 -81 53 -141 152 -141zM269 -12c-137 0 -206 82 -206 189v155c0 106 69 189 206 189c138 0 206 -83 206 -189v-155c0 -107 -68 -189 -206 -189zM393 710l-108 -120h-55l107 140
h56v-20z" />
    <glyph glyph-name="ocircumflex" unicode="&#xf4;" horiz-adv-x="538" 
d="M269 38c103 0 152 62 152 141v151c0 79 -49 141 -152 141c-99 0 -152 -61 -152 -141v-151c0 -81 53 -141 152 -141zM269 -12c-137 0 -206 82 -206 189v155c0 106 69 189 206 189c138 0 206 -83 206 -189v-155c0 -107 -68 -189 -206 -189zM295 730l108 -120v-20h-52
l-83 99l-82 -99h-52v20l108 120h53z" />
    <glyph glyph-name="otilde" unicode="&#xf5;" horiz-adv-x="538" 
d="M269 38c103 0 152 62 152 141v151c0 79 -49 141 -152 141c-99 0 -152 -61 -152 -141v-151c0 -81 53 -141 152 -141zM269 -12c-137 0 -206 82 -206 189v155c0 106 69 189 206 189c138 0 206 -83 206 -189v-155c0 -107 -68 -189 -206 -189zM125 609l-32 25
c41 61 67 88 105 88c24 0 45 -11 66 -26l22 -15c21 -14 37 -24 55 -24c21 0 35 15 72 64l33 -25c-39 -61 -67 -88 -106 -88c-25 0 -43 11 -64 25l-21 14c-21 14 -35 26 -53 26c-27 0 -40 -16 -77 -64z" />
    <glyph glyph-name="odieresis" unicode="&#xf6;" horiz-adv-x="538" 
d="M269 38c103 0 152 62 152 141v151c0 79 -49 141 -152 141c-99 0 -152 -61 -152 -141v-151c0 -81 53 -141 152 -141zM269 -12c-137 0 -206 82 -206 189v155c0 106 69 189 206 189c138 0 206 -83 206 -189v-155c0 -107 -68 -189 -206 -189zM150 595v110h54v-110h-54z
M331 595v110h54v-110h-54z" />
    <glyph glyph-name="divide" unicode="&#xf7;" horiz-adv-x="525" 
d="M232 96v114h61v-114h-61zM54 290v46h417v-46h-417zM232 416v114h61v-114h-61z" />
    <glyph glyph-name="oslash" unicode="&#xf8;" horiz-adv-x="538" 
d="M269 -12c-38 0 -70 7 -98 17l-65 -131h-43v26l65 130c-44 34 -65 87 -65 147v155c0 106 69 189 206 189c35 0 66 -6 92 -16l70 141h44v-26l-69 -139c46 -35 69 -88 69 -149v-155c0 -107 -68 -189 -206 -189zM269 38c103 0 152 62 152 141v151c0 42 -13 79 -41 105
l-188 -383c21 -9 47 -14 77 -14zM117 179c0 -40 12 -76 37 -101l186 381c-20 8 -44 12 -71 12c-99 0 -152 -61 -152 -141v-151z" />
    <glyph glyph-name="ugrave" unicode="&#xf9;" horiz-adv-x="574" 
d="M488 509v-509h-34l-17 77c-40 -46 -103 -89 -182 -89c-100 0 -175 65 -175 190v331h54v-324c0 -102 56 -147 129 -147c70 0 132 46 171 93v378h54zM289 590l-108 120v20h56l107 -140h-55z" />
    <glyph glyph-name="uacute" unicode="&#xfa;" horiz-adv-x="574" 
d="M488 509v-509h-34l-17 77c-40 -46 -103 -89 -182 -89c-100 0 -175 65 -175 190v331h54v-324c0 -102 56 -147 129 -147c70 0 132 46 171 93v378h54zM396 710l-108 -120h-55l107 140h56v-20z" />
    <glyph glyph-name="ucircumflex" unicode="&#xfb;" horiz-adv-x="574" 
d="M488 509v-509h-34l-17 77c-40 -46 -103 -89 -182 -89c-100 0 -175 65 -175 190v331h54v-324c0 -102 56 -147 129 -147c70 0 132 46 171 93v378h54zM313 730l108 -120v-20h-52l-83 99l-82 -99h-52v20l108 120h53z" />
    <glyph glyph-name="udieresis" unicode="&#xfc;" horiz-adv-x="574" 
d="M488 509v-509h-34l-17 77c-40 -46 -103 -89 -182 -89c-100 0 -175 65 -175 190v331h54v-324c0 -102 56 -147 129 -147c70 0 132 46 171 93v378h54zM168 595v110h54v-110h-54zM349 595v110h54v-110h-54z" />
    <glyph glyph-name="yacute" unicode="&#xfd;" horiz-adv-x="499" 
d="M165 -160v21l60 139l-199 483v26h51l175 -437l173 437h50v-26l-264 -643h-46zM366 710l-108 -120h-55l107 140h56v-20z" />
    <glyph glyph-name="thorn" unicode="&#xfe;" horiz-adv-x="569" 
d="M320 521c108 0 178 -72 178 -188v-157c0 -116 -69 -188 -180 -188c-80 0 -142 44 -178 86v-234h-54v865h54v-271c39 44 99 87 180 87zM312 38c84 0 132 59 132 142v149c0 83 -48 142 -131 142c-71 0 -132 -48 -173 -93v-247c41 -45 102 -93 172 -93z" />
    <glyph glyph-name="ydieresis" unicode="&#xff;" horiz-adv-x="499" 
d="M165 -160v21l60 139l-199 483v26h51l175 -437l173 437h50v-26l-264 -643h-46zM131 595v110h54v-110h-54zM312 595v110h54v-110h-54z" />
    <glyph glyph-name="Amacron" unicode="&#x100;" horiz-adv-x="654" 
d="M26 0v20l271 680h59l272 -680v-20h-57l-78 198h-335l-79 -198h-53zM176 248h299l-149 375zM184 803v49h285v-49h-285z" />
    <glyph glyph-name="amacron" unicode="&#x101;" horiz-adv-x="538" 
d="M217 -12c-89 0 -166 46 -166 146c0 103 73 161 211 161h142v59c0 68 -44 117 -137 117c-89 0 -136 -48 -136 -113h-53c0 93 62 163 189 163c129 0 191 -70 191 -164v-357h-35l-18 71c-32 -34 -102 -83 -188 -83zM227 38c78 0 143 50 177 83v126h-142
c-107 0 -157 -39 -157 -107c0 -72 56 -102 122 -102zM138 627v46h266v-46h-266z" />
    <glyph glyph-name="Aogonek" unicode="&#x104;" horiz-adv-x="654" 
d="M624 -160c-62 0 -99 28 -99 74c0 24 12 53 46 86l-78 198h-335l-79 -198h-53v20l271 680h59l272 -680v-20c-41 -30 -59 -55 -59 -75c0 -30 26 -43 66 -43h45v-42h-56zM176 248h299l-149 375z" />
    <glyph glyph-name="aogonek" unicode="&#x105;" horiz-adv-x="538" 
d="M454 -160c-62 0 -99 28 -99 74c0 24 17 53 68 86l-18 71c-32 -34 -102 -83 -188 -83c-89 0 -166 46 -166 146c0 103 73 161 211 161h142v59c0 68 -44 117 -137 117c-89 0 -136 -48 -136 -113h-53c0 93 62 163 189 163c129 0 191 -70 191 -164v-357
c-41 -30 -59 -55 -59 -75c0 -30 26 -43 66 -43h45v-42h-56zM227 38c78 0 143 50 177 83v126h-142c-107 0 -157 -39 -157 -107c0 -72 56 -102 122 -102z" />
    <glyph glyph-name="Cacute" unicode="&#x106;" horiz-adv-x="658" 
d="M340 -15c-165 0 -264 93 -264 252v226c0 159 99 252 264 252c134 0 252 -77 252 -234v-10h-58v10c0 121 -97 180 -194 180c-131 0 -206 -72 -206 -194v-234c0 -122 75 -194 206 -194c97 0 194 59 194 180v10h58v-10c0 -157 -118 -234 -252 -234zM472 891l-116 -129h-59
l115 151h60v-22z" />
    <glyph glyph-name="cacute" unicode="&#x107;" horiz-adv-x="527" 
d="M267 -12c-131 0 -204 78 -204 189v155c0 110 73 189 204 189c125 0 202 -72 202 -178v-5h-54v6c0 74 -54 127 -148 127c-98 0 -150 -58 -150 -138v-157c0 -81 52 -138 150 -138c95 0 148 55 148 129v6h54v-5c0 -106 -77 -180 -202 -180zM385 710l-108 -120h-55l107 140
h56v-20z" />
    <glyph glyph-name="Ccaron" unicode="&#x10c;" horiz-adv-x="658" 
d="M340 -15c-165 0 -264 93 -264 252v226c0 159 99 252 264 252c134 0 252 -77 252 -234v-10h-58v10c0 121 -97 180 -194 180c-131 0 -206 -72 -206 -194v-234c0 -122 75 -194 206 -194c97 0 194 59 194 180v10h58v-10c0 -157 -118 -234 -252 -234zM481 892l-116 -129h-56
l-116 129v21h55l88 -106l89 106h56v-21z" />
    <glyph glyph-name="ccaron" unicode="&#x10d;" horiz-adv-x="527" 
d="M267 -12c-131 0 -204 78 -204 189v155c0 110 73 189 204 189c125 0 202 -72 202 -178v-5h-54v6c0 74 -54 127 -148 127c-98 0 -150 -58 -150 -138v-157c0 -81 52 -138 150 -138c95 0 148 55 148 129v6h54v-5c0 -106 -77 -180 -202 -180zM405 710l-108 -120h-53l-108 120
v20h52l82 -99l83 99h52v-20z" />
    <glyph glyph-name="Dcaron" unicode="&#x10e;" horiz-adv-x="674" 
d="M154 52h181c128 0 205 75 205 192v212c0 117 -77 192 -205 192h-181v-596zM96 0v700h239c160 0 263 -89 263 -245v-210c0 -156 -103 -245 -263 -245h-239zM463 892l-116 -129h-56l-116 129v21h55l88 -106l89 106h56v-21z" />
    <glyph glyph-name="dcaron" unicode="&#x10f;" horiz-adv-x="667" 
d="M249 -12c-108 0 -178 72 -178 188v157c0 116 69 188 180 188c80 0 142 -44 178 -86v270h54v-705h-34l-17 77c-39 -44 -102 -89 -183 -89zM257 38c70 0 131 48 172 93v247c-41 45 -102 93 -173 93c-83 0 -131 -59 -131 -142v-149c0 -83 48 -142 132 -142zM571 527l57 178
h59v-26l-73 -152h-43z" />
    <glyph glyph-name="Emacron" unicode="&#x112;" horiz-adv-x="578" 
d="M96 0v700h425v-52h-367v-269h320v-52h-320v-275h368v-52h-426zM168 803v49h285v-49h-285z" />
    <glyph glyph-name="emacron" unicode="&#x113;" horiz-adv-x="534" 
d="M269 -12c-132 0 -206 77 -206 188v156c0 110 74 189 206 189c130 0 203 -77 203 -188v-97h-355v-59c0 -81 53 -139 152 -139c91 0 136 47 145 113h54c-8 -98 -77 -163 -199 -163zM117 284h301v49c0 79 -50 138 -151 138c-97 0 -150 -58 -150 -138v-49zM137 627v46h266
v-46h-266z" />
    <glyph glyph-name="Edotaccent" unicode="&#x116;" horiz-adv-x="578" 
d="M96 0v700h425v-52h-367v-269h320v-52h-320v-275h368v-52h-426zM278 779v118h58v-118h-58z" />
    <glyph glyph-name="edotaccent" unicode="&#x117;" horiz-adv-x="534" 
d="M269 -12c-132 0 -206 77 -206 188v156c0 110 74 189 206 189c130 0 203 -77 203 -188v-97h-355v-59c0 -81 53 -139 152 -139c91 0 136 47 145 113h54c-8 -98 -77 -163 -199 -163zM117 284h301v49c0 79 -50 138 -151 138c-97 0 -150 -58 -150 -138v-49zM243 605v110h54
v-110h-54z" />
    <glyph glyph-name="Eogonek" unicode="&#x118;" horiz-adv-x="578" 
d="M96 0v700h426v-52h-368v-270h320v-52h-320v-274h368v-52c-41 -30 -59 -55 -59 -75c0 -30 26 -43 66 -43h45v-42h-56c-62 0 -99 28 -99 74c0 24 14 53 53 86h-376z" />
    <glyph glyph-name="eogonek" unicode="&#x119;" horiz-adv-x="534" 
d="M358 -160c-62 0 -99 28 -99 74c0 22 11 47 41 76c-10 -1 -20 -2 -31 -2c-132 0 -206 77 -206 188v156c0 110 74 189 206 189c130 0 203 -77 203 -188v-97h-355v-59c0 -81 53 -139 152 -139c91 0 136 47 145 113h54c-8 -74 -37 -111 -93 -142c-38 -21 -72 -58 -72 -84
c0 -30 26 -43 66 -43h45v-42h-56zM117 284h301v49c0 79 -50 138 -151 138c-97 0 -150 -58 -150 -138v-49z" />
    <glyph glyph-name="Ecaron" unicode="&#x11a;" horiz-adv-x="578" 
d="M96 0v700h425v-52h-367v-269h320v-52h-320v-275h368v-52h-426zM457 892l-116 -129h-56l-116 129v21h55l88 -106l89 106h56v-21z" />
    <glyph glyph-name="ecaron" unicode="&#x11b;" horiz-adv-x="534" 
d="M269 -12c-132 0 -206 77 -206 188v156c0 110 74 189 206 189c130 0 203 -77 203 -188v-97h-355v-59c0 -81 53 -139 152 -139c91 0 136 47 145 113h54c-8 -98 -77 -163 -199 -163zM117 284h301v49c0 79 -50 138 -151 138c-97 0 -150 -58 -150 -138v-49zM402 710l-108 -120
h-53l-108 120v20h52l82 -99l83 99h52v-20z" />
    <glyph glyph-name="uni0122" unicode="&#x122;" horiz-adv-x="691" 
d="M339 -15c-162 0 -263 95 -263 252v226c0 159 103 252 270 252c134 0 255 -76 257 -231v-8h-59v8c-1 118 -100 177 -199 177c-132 0 -211 -72 -211 -194v-230c0 -122 79 -198 208 -198c95 0 161 45 202 135v123h-179v49h238v-346h-35l-15 106c-44 -77 -112 -121 -214 -121
zM273 -245l57 178h59v-26l-73 -152h-43z" />
    <glyph glyph-name="uni0123" unicode="&#x123;" horiz-adv-x="569" 
d="M283 -172c-118 0 -198 62 -201 164h54c3 -65 56 -114 147 -114c94 0 146 50 146 146v98c-37 -42 -98 -86 -178 -86c-111 0 -180 71 -180 188v109c0 116 69 188 178 188c81 0 143 -45 182 -89l17 77h35v-483c0 -134 -79 -198 -200 -198zM257 86c70 0 131 48 172 93v199
c-41 45 -102 93 -173 93c-83 0 -131 -59 -131 -142v-101c0 -83 48 -142 132 -142zM366 764l-53 -178h-54v26l67 152h40z" />
    <glyph glyph-name="Imacron" unicode="&#x12a;" horiz-adv-x="250" 
d="M96 0v700h58v-700h-58zM-18 803v49h285v-49h-285z" />
    <glyph glyph-name="imacron" unicode="&#x12b;" horiz-adv-x="225" 
d="M-20 627v46h266v-46h-266zM86 0v509h54v-509h-54z" />
    <glyph glyph-name="Iogonek" unicode="&#x12e;" horiz-adv-x="250" 
d="M150 -160c-62 0 -99 28 -99 74c0 24 12 53 45 86v700h58v-700c-41 -30 -59 -55 -59 -75c0 -30 26 -43 66 -43h45v-42h-56z" />
    <glyph glyph-name="iogonek" unicode="&#x12f;" horiz-adv-x="226" 
d="M136 -160c-62 0 -99 28 -99 74c0 24 13 53 49 86v509h54v-509c-41 -30 -59 -55 -59 -75c0 -30 26 -43 66 -43h45v-42h-56zM86 595v110h54v-110h-54z" />
    <glyph glyph-name="dotlessi" unicode="&#x131;" horiz-adv-x="226" 
d="M86 0v509h54v-509h-54z" />
    <glyph glyph-name="uni0136" unicode="&#x136;" 
d="M96 0v700h58v-322h132l221 322h54v-20l-225 -325l237 -335v-20h-57l-229 326h-133v-326h-58zM233 -245l57 178h59v-26l-73 -152h-43z" />
    <glyph glyph-name="uni0137" unicode="&#x137;" horiz-adv-x="513" 
d="M86 0v705h54v-421h104l167 225h45v-26l-163 -220l175 -237v-26h-49l-173 236h-106v-236h-54zM194 -245l53 178h54v-26l-67 -152h-40z" />
    <glyph glyph-name="Lacute" unicode="&#x139;" horiz-adv-x="557" 
d="M96 0v700h58v-648h377v-52h-435zM272 891l-116 -129h-59l115 151h60v-22z" />
    <glyph glyph-name="lacute" unicode="&#x13a;" horiz-adv-x="225" 
d="M86 0v705h54v-705h-54zM250 876l-108 -120h-55l107 140h56v-20z" />
    <glyph glyph-name="uni013B" unicode="&#x13b;" horiz-adv-x="557" 
d="M96 0v700h58v-648h377v-52h-435zM238 -245l57 178h59v-26l-73 -152h-43z" />
    <glyph glyph-name="uni013C" unicode="&#x13c;" horiz-adv-x="226" 
d="M86 0v705h54v-705h-54zM32 -245l53 178h54v-26l-67 -152h-40z" />
    <glyph glyph-name="Lcaron" unicode="&#x13d;" horiz-adv-x="561" 
d="M96 0v700h58v-648h377v-52h-435zM419 522l57 178h59v-26l-73 -152h-43z" />
    <glyph glyph-name="lcaron" unicode="&#x13e;" horiz-adv-x="323" 
d="M86 0v705h54v-705h-54zM227 527l57 178h59v-26l-73 -152h-43z" />
    <glyph glyph-name="Lslash" unicode="&#x141;" 
d="M138 0v266l-87 -68h-23v46l110 86v370h58v-325l180 144h23v-47l-203 -162v-258h377v-52h-435z" />
    <glyph glyph-name="lslash" unicode="&#x142;" horiz-adv-x="382" 
d="M163 0v290l-135 -157h-28v39l163 189v344h54v-285l137 162h28v-40l-165 -192v-350h-54z" />
    <glyph glyph-name="Nacute" unicode="&#x143;" horiz-adv-x="694" 
d="M96 0v700h54l389 -592v592h59v-700h-54l-390 591v-591h-58zM466 891l-116 -129h-59l115 151h60v-22z" />
    <glyph glyph-name="nacute" unicode="&#x144;" horiz-adv-x="574" 
d="M86 0v509h34l17 -77c40 46 103 89 182 89c100 0 175 -65 175 -190v-331h-54v324c0 102 -56 147 -129 147c-70 0 -132 -46 -171 -93v-378h-54zM423 710l-108 -120h-55l107 140h56v-20z" />
    <glyph glyph-name="Ncommaaccent" unicode="&#x145;" horiz-adv-x="694" 
d="M96 0v700h54l389 -592v592h59v-700h-54l-390 591v-591h-58zM265 -245l57 178h59v-26l-73 -152h-43z" />
    <glyph glyph-name="ncommaaccent" unicode="&#x146;" horiz-adv-x="574" 
d="M86 0v509h34l17 -77c40 46 103 89 182 89c100 0 175 -65 175 -190v-331h-54v324c0 102 -56 147 -129 147c-70 0 -132 -46 -171 -93v-378h-54zM213 -245l53 178h54v-26l-67 -152h-40z" />
    <glyph glyph-name="Ncaron" unicode="&#x147;" horiz-adv-x="694" 
d="M96 0v700h54l389 -592v592h59v-700h-54l-390 591v-591h-58zM491 892l-116 -129h-56l-116 129v21h55l88 -106l89 106h56v-21z" />
    <glyph glyph-name="ncaron" unicode="&#x148;" horiz-adv-x="574" 
d="M86 0v509h34l17 -77c40 46 103 89 182 89c100 0 175 -65 175 -190v-331h-54v324c0 102 -56 147 -129 147c-70 0 -132 -46 -171 -93v-378h-54zM426 710l-108 -120h-53l-108 120v20h52l82 -99l83 99h52v-20z" />
    <glyph glyph-name="Omacron" unicode="&#x14c;" horiz-adv-x="678" 
d="M339 39c129 0 205 76 205 193v236c0 117 -76 193 -205 193s-205 -76 -205 -193v-236c0 -117 76 -193 205 -193zM339 -15c-161 0 -263 92 -263 250v230c0 158 102 250 263 250c160 0 263 -92 263 -250v-230c0 -158 -103 -250 -263 -250zM196 803v49h285v-49h-285z" />
    <glyph glyph-name="omacron" unicode="&#x14d;" horiz-adv-x="538" 
d="M269 38c103 0 152 62 152 141v151c0 79 -49 141 -152 141c-99 0 -152 -61 -152 -141v-151c0 -81 53 -141 152 -141zM269 -12c-137 0 -206 82 -206 189v155c0 106 69 189 206 189c138 0 206 -83 206 -189v-155c0 -107 -68 -189 -206 -189zM136 627v46h266v-46h-266z" />
    <glyph glyph-name="obreve" unicode="&#x14f;" horiz-adv-x="538" 
d="M269 38c103 0 152 62 152 141v151c0 79 -49 141 -152 141c-99 0 -152 -61 -152 -141v-151c0 -81 53 -141 152 -141zM269 -12c-137 0 -206 82 -206 189v155c0 106 69 189 206 189c138 0 206 -83 206 -189v-155c0 -107 -68 -189 -206 -189zM269 585c-90 0 -152 50 -152 137
v12h49v-11c0 -60 39 -94 103 -94c63 0 103 34 103 94v11h49v-12c0 -87 -63 -137 -152 -137z" />
    <glyph glyph-name="Ohungarumlaut" unicode="&#x150;" horiz-adv-x="678" 
d="M339 39c129 0 205 76 205 193v236c0 117 -76 193 -205 193s-205 -76 -205 -193v-236c0 -117 76 -193 205 -193zM339 -15c-161 0 -263 92 -263 250v230c0 158 102 250 263 250c160 0 263 -92 263 -250v-230c0 -158 -103 -250 -263 -250zM386 892l-116 -129h-59l115 150h60
v-21zM567 892l-115 -129h-59l114 150h60v-21z" />
    <glyph glyph-name="ohungarumlaut" unicode="&#x151;" horiz-adv-x="544" 
d="M269 38c103 0 152 62 152 141v151c0 79 -49 141 -152 141c-99 0 -152 -61 -152 -141v-151c0 -81 53 -141 152 -141zM269 -12c-137 0 -206 82 -206 189v155c0 106 69 189 206 189c138 0 206 -83 206 -189v-155c0 -107 -68 -189 -206 -189zM312 710l-108 -120h-55l107 140
h56v-20zM481 710l-108 -120h-55l107 140h56v-20z" />
    <glyph glyph-name="OE" unicode="&#x152;" horiz-adv-x="1026" 
d="M339 -15c-161 0 -263 92 -263 250v230c0 158 102 250 263 250c96 0 170 -43 205 -117v102h425v-52h-367v-269h320v-52h-320v-275h368v-52h-426v102c-35 -75 -109 -117 -205 -117zM339 39c125 0 205 75 205 187v245c0 113 -78 190 -205 190c-129 0 -205 -76 -205 -193
v-236c0 -117 76 -193 205 -193z" />
    <glyph glyph-name="oe" unicode="&#x153;" horiz-adv-x="892" 
d="M269 -12c-137 0 -206 82 -206 189v155c0 106 69 189 206 189c94 0 153 -42 179 -103c27 61 87 103 180 103c130 0 202 -77 202 -188v-97h-355v-62c1 -80 56 -136 153 -136c90 0 135 47 144 113h54c-9 -98 -76 -163 -198 -163c-93 0 -154 40 -180 101
c-26 -60 -85 -101 -179 -101zM269 38c101 0 152 61 152 140v154c0 77 -51 139 -152 139c-99 0 -152 -61 -152 -141v-151c0 -81 53 -141 152 -141zM475 284h301v49c0 79 -49 138 -150 138c-98 0 -151 -58 -151 -138v-49z" />
    <glyph glyph-name="Racute" unicode="&#x154;" horiz-adv-x="643" 
d="M96 0v700h287c126 0 196 -79 196 -207c0 -114 -51 -177 -145 -202l158 -271v-20h-56l-167 286h-215v-286h-58zM154 338h220c92 0 145 55 145 155c0 99 -53 155 -145 155h-220v-310zM448 891l-116 -129h-59l115 151h60v-22z" />
    <glyph glyph-name="racute" unicode="&#x155;" horiz-adv-x="366" 
d="M86 0v509h30l18 -77c41 45 111 89 189 89h7v-55h-7c-74 0 -139 -31 -183 -85v-381h-54zM319 710l-108 -120h-55l107 140h56v-20z" />
    <glyph glyph-name="Rcommaaccent" unicode="&#x156;" horiz-adv-x="643" 
d="M96 0v700h287c126 0 196 -79 196 -207c0 -114 -51 -177 -145 -202l158 -271v-20h-56l-167 286h-215v-286h-58zM154 338h220c92 0 145 55 145 155c0 99 -53 155 -145 155h-220v-310zM253 -245l57 178h59v-26l-73 -152h-43z" />
    <glyph glyph-name="uni0157" unicode="&#x157;" horiz-adv-x="366" 
d="M86 0v509h30l18 -77c41 45 111 89 189 89h7v-55h-7c-74 0 -139 -31 -183 -85v-381h-54zM32 -245l53 178h54v-26l-67 -152h-40z" />
    <glyph glyph-name="Rcaron" unicode="&#x158;" horiz-adv-x="643" 
d="M96 0v700h287c126 0 196 -79 196 -207c0 -114 -51 -177 -145 -202l158 -271v-20h-56l-167 286h-215v-286h-58zM154 338h220c92 0 145 55 145 155c0 99 -53 155 -145 155h-220v-310zM455 892l-116 -129h-56l-116 129v21h55l88 -106l89 106h56v-21z" />
    <glyph glyph-name="rcaron" unicode="&#x159;" horiz-adv-x="366" 
d="M86 0v509h30l18 -77c41 45 111 89 189 89h7v-55h-7c-74 0 -139 -31 -183 -85v-381h-54zM338 710l-108 -120h-53l-108 120v20h52l82 -99l83 99h52v-20z" />
    <glyph glyph-name="Sacute" unicode="&#x15a;" horiz-adv-x="625" 
d="M318 -15c-136 0 -267 72 -267 242h58c0 -139 114 -188 212 -188c118 0 177 58 177 132c0 71 -53 106 -159 146l-78 29c-125 47 -186 85 -186 185c0 108 86 184 232 184c139 0 249 -68 249 -236h-59c0 134 -92 182 -191 182c-108 0 -173 -53 -173 -126
c0 -71 43 -100 143 -136l75 -28c119 -44 208 -87 208 -197c0 -106 -79 -189 -241 -189zM441 891l-116 -129h-59l115 151h60v-22z" />
    <glyph glyph-name="sacute" unicode="&#x15b;" horiz-adv-x="538" 
d="M274 -12c-118 0 -218 56 -218 182h54c0 -95 84 -132 168 -132c89 0 140 41 140 96c0 48 -30 68 -100 86l-115 30c-79 21 -125 52 -125 130c0 81 67 141 188 141c116 0 199 -59 199 -177h-54c0 86 -64 127 -149 127c-89 0 -130 -40 -130 -89c0 -45 24 -66 90 -83l114 -29
c86 -22 136 -54 136 -133c0 -87 -72 -149 -198 -149zM382 710l-108 -120h-55l107 140h56v-20z" />
    <glyph glyph-name="scircumflex" unicode="&#x15d;" horiz-adv-x="538" 
d="M274 -12c-118 0 -218 56 -218 182h54c0 -95 84 -132 168 -132c89 0 140 41 140 96c0 48 -30 68 -100 86l-115 30c-79 21 -125 52 -125 130c0 81 67 141 188 141c116 0 199 -59 199 -177h-54c0 86 -64 127 -149 127c-89 0 -130 -40 -130 -89c0 -45 24 -66 90 -83l114 -29
c86 -22 136 -54 136 -133c0 -87 -72 -149 -198 -149zM303 730l108 -120v-20h-52l-83 99l-82 -99h-52v20l108 120h53z" />
    <glyph glyph-name="Scaron" unicode="&#x160;" horiz-adv-x="625" 
d="M318 -15c-136 0 -267 72 -267 242h58c0 -139 114 -188 212 -188c118 0 177 58 177 132c0 71 -53 106 -159 146l-78 29c-125 47 -186 85 -186 185c0 108 86 184 232 184c139 0 249 -68 249 -236h-59c0 134 -92 182 -191 182c-108 0 -173 -53 -173 -126
c0 -71 43 -100 143 -136l75 -28c119 -44 208 -87 208 -197c0 -106 -79 -189 -241 -189zM461 892l-116 -129h-56l-116 129v21h55l88 -106l89 106h56v-21z" />
    <glyph glyph-name="scaron" unicode="&#x161;" horiz-adv-x="538" 
d="M274 -12c-118 0 -218 56 -218 182h54c0 -95 84 -132 168 -132c89 0 140 41 140 96c0 48 -30 68 -100 86l-115 30c-79 21 -125 52 -125 130c0 81 67 141 188 141c116 0 199 -59 199 -177h-54c0 86 -64 127 -149 127c-89 0 -130 -40 -130 -89c0 -45 24 -66 90 -83l114 -29
c86 -22 136 -54 136 -133c0 -87 -72 -149 -198 -149zM405 710l-108 -120h-53l-108 120v20h52l82 -99l83 99h52v-20z" />
    <glyph glyph-name="Tcaron" unicode="&#x164;" horiz-adv-x="551" 
d="M247 0v648h-221v52h500v-52h-221v-648h-58zM420 892l-116 -129h-56l-116 129v21h55l88 -106l89 106h56v-21z" />
    <glyph glyph-name="tcaron" unicode="&#x165;" horiz-adv-x="467" 
d="M263 0c-116 0 -150 77 -150 150v311h-87v48h87v106h54v-106h139v-48h-139v-309c0 -69 36 -102 96 -102h43v-50h-43zM362 527l57 178h59v-26l-73 -152h-43z" />
    <glyph glyph-name="Umacron" unicode="&#x16a;" horiz-adv-x="673" 
d="M337 -15c-141 0 -251 82 -251 243v472h58v-472c0 -120 76 -189 193 -189c116 0 192 67 192 189v472h59v-472c0 -159 -111 -243 -251 -243zM194 803v49h285v-49h-285z" />
    <glyph glyph-name="umacron" unicode="&#x16b;" horiz-adv-x="574" 
d="M488 509v-509h-34l-17 77c-40 -46 -103 -89 -182 -89c-100 0 -175 65 -175 190v331h54v-324c0 -102 56 -147 129 -147c70 0 132 46 171 93v378h54zM152 627v46h266v-46h-266z" />
    <glyph glyph-name="Uring" unicode="&#x16e;" horiz-adv-x="673" 
d="M337 -15c-141 0 -251 82 -251 243v472h58v-472c0 -120 76 -189 193 -189c116 0 192 67 192 189v472h59v-472c0 -159 -111 -243 -251 -243zM235 846c0 57 45 103 101 103c57 0 103 -46 103 -103c0 -56 -46 -101 -103 -101c-56 0 -101 45 -101 101zM272 846
c0 -35 30 -64 64 -64c37 0 65 29 65 64c0 36 -28 65 -65 65c-34 0 -64 -29 -64 -65z" />
    <glyph glyph-name="uring" unicode="&#x16f;" horiz-adv-x="574" 
d="M488 509v-509h-34l-17 77c-40 -46 -103 -89 -182 -89c-100 0 -175 65 -175 190v331h54v-324c0 -102 56 -147 129 -147c70 0 132 46 171 93v378h54zM191 667c0 53 42 96 94 96c53 0 96 -43 96 -96c0 -52 -43 -94 -96 -94c-52 0 -94 42 -94 94zM225 667
c0 -32 28 -59 60 -59c34 0 61 27 61 59c0 34 -27 61 -61 61c-32 0 -60 -27 -60 -61z" />
    <glyph glyph-name="Uhungarumlaut" unicode="&#x170;" horiz-adv-x="673" 
d="M337 -15c-141 0 -251 82 -251 243v472h58v-472c0 -120 76 -189 193 -189c116 0 192 67 192 189v472h59v-472c0 -159 -111 -243 -251 -243zM370 892l-116 -129h-59l115 150h60v-21zM551 892l-115 -129h-59l114 150h60v-21z" />
    <glyph glyph-name="uhungarumlaut" unicode="&#x171;" horiz-adv-x="574" 
d="M488 509v-509h-34l-17 77c-40 -46 -103 -89 -182 -89c-100 0 -175 65 -175 190v331h54v-324c0 -102 56 -147 129 -147c70 0 132 46 171 93v378h54zM318 710l-108 -120h-55l107 140h56v-20zM487 710l-108 -120h-55l107 140h56v-20z" />
    <glyph glyph-name="Uogonek" unicode="&#x172;" horiz-adv-x="673" 
d="M450 -160c-62 0 -99 28 -99 74c0 22 11 47 41 76c-18 -3 -36 -5 -55 -5c-141 0 -251 82 -251 243v472h58v-469c0 -120 76 -189 193 -189c116 0 192 67 192 189v469h59v-472c0 -131 -74 -190 -134 -228c-35 -22 -59 -55 -59 -75c0 -30 26 -43 66 -43h45v-42h-56z" />
    <glyph glyph-name="uogonek" unicode="&#x173;" horiz-adv-x="574" 
d="M434 131v378h54v-509c-41 -30 -59 -55 -59 -75c0 -30 26 -43 66 -43h45v-42h-56c-62 0 -99 28 -99 74c0 24 17 53 69 86l-17 77c-40 -46 -103 -89 -182 -89c-100 0 -175 65 -175 190v331h54v-324c0 -102 56 -147 129 -147c70 0 132 46 171 93z" />
    <glyph glyph-name="Ydieresis" unicode="&#x178;" horiz-adv-x="604" 
d="M273 0v278l-257 402v20h57l229 -367l233 367h53v-20l-257 -400v-280h-58zM177 771v118h57v-118h-57zM370 771v118h58v-118h-58z" />
    <glyph glyph-name="Zacute" unicode="&#x179;" horiz-adv-x="570" 
d="M46 0v51l402 597h-389v52h456v-51l-402 -597h412v-52h-479zM405 891l-116 -129h-59l115 151h60v-22z" />
    <glyph glyph-name="zacute" unicode="&#x17a;" horiz-adv-x="513" 
d="M56 0v48l323 413h-309v48h374v-48l-323 -413h329v-48h-394zM357 710l-108 -120h-55l107 140h56v-20z" />
    <glyph glyph-name="Zdotaccent" unicode="&#x17b;" horiz-adv-x="570" 
d="M46 0v51l402 597h-389v52h456v-51l-402 -597h412v-52h-479zM251 779v118h58v-118h-58z" />
    <glyph glyph-name="zdotaccent" unicode="&#x17c;" horiz-adv-x="513" 
d="M56 0v48l323 413h-309v48h374v-48l-323 -413h329v-48h-394zM225 605v110h54v-110h-54z" />
    <glyph glyph-name="Zcaron" unicode="&#x17d;" horiz-adv-x="570" 
d="M46 0v51l402 597h-389v52h456v-51l-402 -597h412v-52h-479zM431 892l-116 -129h-56l-116 129v21h55l88 -106l89 106h56v-21z" />
    <glyph glyph-name="zcaron" unicode="&#x17e;" horiz-adv-x="513" 
d="M56 0v48l323 413h-309v48h374v-48l-323 -413h329v-48h-394zM385 710l-108 -120h-53l-108 120v20h52l82 -99l83 99h52v-20z" />
    <glyph glyph-name="florin" unicode="&#x192;" horiz-adv-x="376" 
d="M62 509h88l4 45c8 93 53 153 162 153c14 0 29 -2 34 -2v-49c-4 0 -16 1 -29 1c-71 0 -107 -34 -113 -104l-4 -44h137v-48h-141l-37 -476c-7 -93 -52 -157 -154 -157c-14 0 -29 1 -35 2v49c1 0 11 -1 21 -1c72 0 108 35 114 108l37 475h-84v48z" />
    <glyph glyph-name="scommaaccent" unicode="&#x219;" horiz-adv-x="538" 
d="M274 -12c-118 0 -218 56 -218 182h54c0 -95 84 -132 168 -132c89 0 140 41 140 96c0 48 -30 68 -100 86l-115 30c-79 21 -125 52 -125 130c0 81 67 141 188 141c116 0 199 -59 199 -177h-54c0 86 -64 127 -149 127c-89 0 -130 -40 -130 -89c0 -45 24 -66 90 -83l114 -29
c86 -22 136 -54 136 -133c0 -87 -72 -149 -198 -149zM199 -245l53 178h54v-26l-67 -152h-40z" />
    <glyph glyph-name="circumflex" unicode="&#x2c6;" horiz-adv-x="402" 
d="M227 730l108 -120v-20h-52l-83 99l-82 -99h-52v20l108 120h53z" />
    <glyph glyph-name="caron" unicode="&#x2c7;" horiz-adv-x="402" 
d="M335 710l-108 -120h-53l-108 120v20h52l82 -99l83 99h52v-20z" />
    <glyph glyph-name="breve" unicode="&#x2d8;" horiz-adv-x="399" 
d="M200 571c-90 0 -152 50 -152 137v12h49v-11c0 -60 39 -94 103 -94c63 0 103 34 103 94v11h49v-12c0 -87 -63 -137 -152 -137z" />
    <glyph glyph-name="dotaccent" unicode="&#x2d9;" horiz-adv-x="185" 
d="M66 605v110h54v-110h-54z" />
    <glyph glyph-name="ring" unicode="&#x2da;" horiz-adv-x="336" 
d="M74 667c0 53 42 96 94 96c53 0 96 -43 96 -96c0 -52 -43 -94 -96 -94c-52 0 -94 42 -94 94zM108 667c0 -32 28 -59 60 -59c34 0 61 27 61 59c0 34 -27 61 -61 61c-32 0 -60 -27 -60 -61z" />
    <glyph glyph-name="ogonek" unicode="&#x2db;" horiz-adv-x="272" 
d="M152 -160c-62 0 -99 28 -99 74c0 24 14 53 53 86h50c-41 -30 -59 -55 -59 -75c0 -30 26 -43 66 -43h45v-42h-56z" />
    <glyph glyph-name="tilde" unicode="&#x2dc;" horiz-adv-x="488" 
d="M99 609l-32 25c41 61 67 88 105 88c24 0 45 -11 66 -26l22 -15c21 -14 37 -24 55 -24c21 0 35 15 72 64l33 -25c-39 -61 -67 -88 -106 -88c-25 0 -43 11 -64 25l-21 14c-21 14 -35 26 -53 26c-27 0 -40 -16 -77 -64z" />
    <glyph glyph-name="hungarumlaut" unicode="&#x2dd;" horiz-adv-x="456" 
d="M225 710l-108 -120h-55l107 140h56v-20zM394 710l-108 -120h-55l107 140h56v-20z" />
    <glyph glyph-name="brevecap" horiz-adv-x="559" 
d="M280 742c-90 0 -152 49 -152 136v10h49v-9c0 -61 39 -93 103 -93c63 0 103 31 103 93v9h49v-10c0 -87 -63 -136 -152 -136z" />
    <glyph glyph-name="uni03A9" unicode="&#x3a9;" horiz-adv-x="718" 
d="M80 0v52h142c-85 36 -126 110 -126 210v203c0 158 102 250 263 250c160 0 263 -92 263 -250v-203c0 -100 -41 -174 -126 -210h142v-52h-228v54c100 17 154 100 154 205v208c0 117 -76 194 -205 194s-205 -77 -205 -194v-208c0 -105 54 -188 154 -205v-54h-228z" />
    <glyph glyph-name="pi" unicode="&#x3c0;" horiz-adv-x="655" 
d="M139 0v461h-103v48h583v-48h-103v-461h-54v461h-269v-461h-54z" />
    <glyph glyph-name="uni0401" unicode="&#x401;" horiz-adv-x="578" 
d="M96 0v700h425v-52h-367v-269h320v-52h-320v-275h368v-52h-426zM181 768v118h57v-118h-57zM374 768v118h58v-118h-58z" />
    <glyph glyph-name="uni0402" unicode="&#x402;" horiz-adv-x="737" 
d="M206 0v648h-180v52h491v-52h-253v-259c66 19 118 27 182 27c152 0 240 -82 240 -208s-69 -208 -200 -208h-56v52h54c94 0 143 62 143 155c0 98 -77 155 -188 155c-66 0 -112 -8 -175 -27v-335h-58z" />
    <glyph glyph-name="uni0403" unicode="&#x403;" horiz-adv-x="561" 
d="M426 891l-116 -129h-59l115 151h60v-22zM96 0v700h419v-52h-361v-648h-58z" />
    <glyph glyph-name="afii10053" unicode="&#x404;" horiz-adv-x="658" 
d="M340 -15c-165 0 -264 91 -264 247v236c0 156 99 247 264 247c134 0 252 -75 252 -229v-10h-58v10c0 118 -97 175 -194 175c-131 0 -206 -70 -206 -189v-94h301v-52h-301v-98c0 -119 75 -189 206 -189c97 0 194 57 194 175v10h58v-10c0 -154 -118 -229 -252 -229z" />
    <glyph glyph-name="afii10054" unicode="&#x405;" horiz-adv-x="625" 
d="M318 -15c-136 0 -267 72 -267 242h58c0 -139 114 -188 212 -188c118 0 177 58 177 132c0 71 -53 106 -159 146l-78 29c-125 47 -186 85 -186 185c0 108 86 184 232 184c139 0 249 -68 249 -236h-59c0 134 -92 182 -191 182c-108 0 -173 -53 -173 -126
c0 -71 43 -100 143 -136l75 -28c119 -44 208 -87 208 -197c0 -106 -79 -189 -241 -189z" />
    <glyph glyph-name="uni0406" unicode="&#x406;" horiz-adv-x="250" 
d="M96 0v700h58v-700h-58z" />
    <glyph glyph-name="uni0407" unicode="&#x407;" horiz-adv-x="250" 
d="M96 0v700h58v-700h-58zM0 768v118h57v-118h-57zM194 768v118h57v-118h-57z" />
    <glyph glyph-name="uni0408" unicode="&#x408;" horiz-adv-x="565" 
d="M253 -15c-134 0 -227 69 -227 216v28h58v-28c0 -105 66 -162 169 -162c99 0 169 57 169 164v497h58v-499c0 -145 -95 -216 -227 -216z" />
    <glyph glyph-name="uni0409" unicode="&#x409;" horiz-adv-x="1045" 
d="M579 52h219c88 0 137 60 137 155c0 94 -49 154 -137 154h-219v-309zM164 700h415v-287h220c125 0 195 -81 195 -206c0 -126 -70 -207 -195 -207h-278v648h-300v-289c0 -269 -60 -359 -200 -359v54c108 0 143 71 143 304v342z" />
    <glyph glyph-name="uni040A" unicode="&#x40a;" horiz-adv-x="1063" 
d="M101 0v700h59v-287h379v287h58v-287h220c125 0 195 -81 195 -206c0 -126 -70 -207 -195 -207h-278v361h-379v-361h-59zM597 52h219c87 0 137 60 137 155c0 94 -50 154 -137 154h-219v-309z" />
    <glyph glyph-name="uni040B" unicode="&#x40b;" horiz-adv-x="752" 
d="M264 648v-260c52 19 118 28 173 28c122 0 248 -38 248 -209v-207h-58v201c0 103 -58 161 -194 161c-59 0 -118 -9 -169 -29v-333h-58v648h-180v52h491v-52h-253z" />
    <glyph glyph-name="uni040C" unicode="&#x40c;" 
d="M96 0v700h58v-322h132l221 322h54v-20l-225 -325l237 -335v-20h-57l-229 326h-133v-326h-58zM443 891l-116 -129h-59l115 151h60v-22z" />
    <glyph glyph-name="uni040E" unicode="&#x40e;" horiz-adv-x="565" 
d="M197 20l74 163l-255 497v20h54l228 -454l201 454h51v-20l-302 -680h-51v20zM279 742c-90 0 -152 49 -152 136v10h49v-9c0 -61 39 -93 103 -93c63 0 103 31 103 93v9h49v-10c0 -87 -63 -136 -152 -136z" />
    <glyph glyph-name="uni040F" unicode="&#x40f;" horiz-adv-x="685" 
d="M315 -140v140h-219v700h58v-646h377v646h58v-700h-220v-140h-54z" />
    <glyph glyph-name="uni0410" unicode="&#x410;" horiz-adv-x="654" 
d="M26 0v20l271 680h59l272 -680v-20h-57l-78 198h-335l-79 -198h-53zM176 248h299l-149 375z" />
    <glyph glyph-name="uni0411" unicode="&#x411;" horiz-adv-x="646" 
d="M96 0v700h454v-52h-396v-235h247c119 0 189 -80 189 -206s-70 -207 -189 -207h-305zM154 52h238c84 0 139 57 139 155c0 97 -55 154 -139 154h-238v-309z" />
    <glyph glyph-name="uni0412" unicode="&#x412;" horiz-adv-x="649" 
d="M96 0v700h292c112 0 179 -64 179 -181c0 -87 -43 -135 -98 -155c68 -16 124 -66 124 -175c0 -120 -68 -189 -181 -189h-316zM154 52h248c85 0 133 52 133 139c0 89 -48 141 -133 141h-248v-280zM154 382h228c81 0 126 51 126 133c0 84 -45 133 -129 133h-225v-266z" />
    <glyph glyph-name="uni0413" unicode="&#x413;" horiz-adv-x="561" 
d="M96 0v700h419v-52h-361v-648h-58z" />
    <glyph glyph-name="uni0414" unicode="&#x414;" horiz-adv-x="709" 
d="M31 -146v198h51c50 66 101 147 101 357v291h396v-648h90v-198h-54v146h-530v-146h-54zM146 52h374v596h-283v-239c0 -207 -45 -289 -91 -357z" />
    <glyph glyph-name="uni0415" unicode="&#x415;" horiz-adv-x="578" 
d="M96 0v700h425v-52h-367v-269h320v-52h-320v-275h368v-52h-426z" />
    <glyph glyph-name="uni0416" unicode="&#x416;" horiz-adv-x="871" 
d="M406 0v326h-122l-190 -326h-58v20l199 334l-186 326v20h53l182 -322h122v322h59v-322h122l182 322h53v-20l-186 -326l199 -334v-20h-58l-190 326h-122v-326h-59z" />
    <glyph glyph-name="uni0417" unicode="&#x417;" horiz-adv-x="606" 
d="M311 -15c-143 0 -254 79 -255 234h58c1 -118 86 -178 199 -178s179 58 179 156c0 86 -62 138 -163 138h-102v52h102c87 0 143 41 143 127c0 81 -58 145 -166 145c-103 0 -178 -58 -178 -178h-59c1 156 101 234 237 234c145 0 225 -83 225 -193c0 -90 -51 -140 -117 -159
c75 -16 136 -72 136 -167c0 -127 -86 -211 -239 -211z" />
    <glyph glyph-name="uni0418" unicode="&#x418;" horiz-adv-x="695" 
d="M96 0v700h58v-598l391 598h54v-700h-58v598l-391 -598h-54z" />
    <glyph glyph-name="uni0419" unicode="&#x419;" horiz-adv-x="695" 
d="M96 0v700h58v-598l391 598h54v-700h-58v598l-391 -598h-54zM347 742c-90 0 -152 49 -152 136v10h49v-9c0 -61 39 -93 103 -93c63 0 103 31 103 93v9h49v-10c0 -87 -63 -136 -152 -136z" />
    <glyph glyph-name="uni041A" unicode="&#x41a;" 
d="M96 0v700h58v-322h132l221 322h54v-20l-225 -325l237 -335v-20h-57l-229 326h-133v-326h-58z" />
    <glyph glyph-name="uni041B" unicode="&#x41b;" horiz-adv-x="675" 
d="M21 0v54c108 0 143 71 143 304v342h415v-700h-58v648h-300v-289c0 -269 -60 -359 -200 -359z" />
    <glyph glyph-name="uni041C" unicode="&#x41c;" horiz-adv-x="798" 
d="M96 0v700h56l248 -379l247 379h55v-700h-57v600l-227 -351h-39l-227 349v-598h-56z" />
    <glyph glyph-name="uni041D" unicode="&#x41d;" horiz-adv-x="693" 
d="M96 0v700h58v-322h385v322h58v-700h-58v326h-385v-326h-58z" />
    <glyph glyph-name="uni041E" unicode="&#x41e;" horiz-adv-x="678" 
d="M339 39c129 0 205 76 205 193v236c0 117 -76 193 -205 193s-205 -76 -205 -193v-236c0 -117 76 -193 205 -193zM339 -15c-161 0 -263 92 -263 250v230c0 158 102 250 263 250c160 0 263 -92 263 -250v-230c0 -158 -103 -250 -263 -250z" />
    <glyph glyph-name="uni041F" unicode="&#x41f;" horiz-adv-x="687" 
d="M96 0v700h495v-700h-58v648h-379v-648h-58z" />
    <glyph glyph-name="uni0420" unicode="&#x420;" horiz-adv-x="620" 
d="M96 0v700h284c119 0 189 -81 189 -207s-70 -206 -189 -206h-226v-287h-58zM154 339h217c84 0 139 57 139 154c0 98 -55 155 -139 155h-217v-309z" />
    <glyph glyph-name="uni0421" unicode="&#x421;" horiz-adv-x="658" 
d="M340 -15c-165 0 -264 93 -264 252v226c0 159 99 252 264 252c134 0 252 -77 252 -234v-10h-58v10c0 121 -97 180 -194 180c-131 0 -206 -72 -206 -194v-234c0 -122 75 -194 206 -194c97 0 194 59 194 180v10h58v-10c0 -157 -118 -234 -252 -234z" />
    <glyph glyph-name="uni0422" unicode="&#x422;" horiz-adv-x="551" 
d="M247 0v648h-221v52h500v-52h-221v-648h-58z" />
    <glyph glyph-name="uni0423" unicode="&#x423;" horiz-adv-x="565" 
d="M197 20l74 163l-255 497v20h54l228 -454l201 454h51v-20l-302 -680h-51v20z" />
    <glyph glyph-name="uni0424" unicode="&#x424;" horiz-adv-x="813" 
d="M377 -12v99h-59c-150 0 -262 83 -262 230v73c0 148 112 231 262 231h59v88h59v-88h59c151 0 262 -83 262 -231v-73c0 -147 -111 -230 -262 -230h-59v-99h-59zM316 139h61v430h-61c-123 0 -202 -71 -202 -179v-72c0 -108 79 -179 202 -179zM436 139h62
c123 0 201 71 201 179v72c0 108 -78 179 -201 179h-62v-430z" />
    <glyph glyph-name="uni0425" unicode="&#x425;" horiz-adv-x="612" 
d="M36 0v20l234 336l-227 324v20h58l205 -298l208 298h54v-20l-227 -324l235 -336v-20h-58l-214 310l-214 -310h-54z" />
    <glyph glyph-name="uni0426" unicode="&#x426;" horiz-adv-x="716" 
d="M622 -146v146h-526v700h58v-648h374v648h58v-648h90v-198h-54z" />
    <glyph glyph-name="uni0427" unicode="&#x427;" horiz-adv-x="641" 
d="M487 0v312c-52 -19 -118 -28 -173 -28c-122 0 -248 38 -248 209v207h58v-201c0 -103 58 -161 194 -161c59 0 118 9 169 29v333h58v-700h-58z" />
    <glyph glyph-name="uni0428" unicode="&#x428;" horiz-adv-x="962" 
d="M96 0v700h58v-648h298v648h58v-648h298v648h58v-700h-770z" />
    <glyph glyph-name="uni0429" unicode="&#x429;" horiz-adv-x="996" 
d="M902 -146v146h-806v700h58v-648h298v648h58v-648h298v648h58v-648h90v-198h-54z" />
    <glyph glyph-name="uni042A" unicode="&#x42a;" horiz-adv-x="714" 
d="M190 0v648h-174v52h232v-287h220c125 0 195 -81 195 -206c0 -126 -70 -207 -195 -207h-278zM248 52h219c88 0 137 60 137 155c0 94 -49 154 -137 154h-219v-309z" />
    <glyph glyph-name="uni042B" unicode="&#x42b;" horiz-adv-x="862" 
d="M708 0v700h58v-700h-58zM96 0v700h58v-287h220c125 0 195 -81 195 -206c0 -126 -70 -207 -195 -207h-278zM154 52h219c88 0 137 60 137 155c0 94 -49 154 -137 154h-219v-309z" />
    <glyph glyph-name="uni042C" unicode="&#x42c;" horiz-adv-x="620" 
d="M96 0v700h58v-287h220c125 0 195 -81 195 -206c0 -126 -70 -207 -195 -207h-278zM154 52h219c88 0 137 60 137 155c0 94 -49 154 -137 154h-219v-309z" />
    <glyph glyph-name="uni042D" unicode="&#x42d;" horiz-adv-x="659" 
d="M319 -15c-134 0 -252 75 -252 229v10h58v-10c0 -118 97 -175 194 -175c131 0 206 70 206 189v98h-301v52h301v94c0 119 -75 189 -206 189c-97 0 -194 -57 -194 -175v-10h-58v10c0 154 118 229 252 229c165 0 264 -91 264 -247v-236c0 -156 -99 -247 -264 -247z" />
    <glyph glyph-name="uni042E" unicode="&#x42e;" horiz-adv-x="919" 
d="M590 -15c-155 0 -254 87 -254 244v95h-182v-324h-58v700h58v-324h182v95c0 154 99 244 254 244c154 0 253 -87 253 -244v-242c0 -154 -99 -244 -253 -244zM590 39c122 0 194 71 194 186v246c0 115 -73 190 -194 190c-123 0 -195 -71 -195 -186v-246
c0 -115 72 -190 195 -190z" />
    <glyph glyph-name="uni042F" unicode="&#x42f;" horiz-adv-x="643" 
d="M59 0v20l170 271c-95 14 -156 81 -156 203c0 127 70 206 193 206h281v-700h-58v286h-197l-177 -286h-56zM276 338h213v310h-213c-90 0 -143 -57 -143 -155c0 -99 53 -155 143 -155z" />
    <glyph glyph-name="uni0430" unicode="&#x430;" horiz-adv-x="538" 
d="M217 -12c-89 0 -166 46 -166 146c0 103 73 161 211 161h142v59c0 68 -44 117 -137 117c-89 0 -136 -48 -136 -113h-53c0 93 62 163 189 163c129 0 191 -70 191 -164v-357h-35l-18 71c-32 -34 -102 -83 -188 -83zM227 38c78 0 143 50 177 83v126h-142
c-107 0 -157 -39 -157 -107c0 -72 56 -102 122 -102z" />
    <glyph glyph-name="uni0431" unicode="&#x431;" horiz-adv-x="546" 
d="M277 -12c-132 0 -206 77 -206 188v188c0 130 41 207 158 242l116 34c51 15 61 36 61 59v6h54v-6c0 -63 -27 -86 -105 -109l-104 -30c-93 -27 -130 -80 -130 -183v-12c37 44 101 90 182 90c111 0 180 -72 180 -188v-90c0 -111 -73 -189 -206 -189zM277 38
c103 0 152 62 152 141v84c0 82 -48 142 -136 142c-68 0 -128 -47 -168 -92v-134c0 -81 53 -141 152 -141z" />
    <glyph glyph-name="uni0432" unicode="&#x432;" horiz-adv-x="548" 
d="M86 0v509h233c93 0 150 -45 150 -131c0 -65 -31 -103 -74 -119c56 -13 96 -51 96 -121c0 -95 -61 -138 -158 -138h-247zM140 48h190c67 0 103 35 103 93c0 55 -33 91 -106 91h-187v-184zM140 278h179c62 0 93 40 93 93c0 56 -32 90 -96 90h-176v-183z" />
    <glyph glyph-name="uni0433" unicode="&#x433;" horiz-adv-x="456" 
d="M86 0v509h324v-48h-270v-461h-54z" />
    <glyph glyph-name="uni0434" unicode="&#x434;" horiz-adv-x="622" 
d="M35 -132v180h46c41 46 73 113 73 250v211h350v-461h77v-180h-54v132h-438v-132h-54zM141 48h309v413h-244v-170c0 -128 -31 -192 -65 -243z" />
    <glyph glyph-name="uni0435" unicode="&#x435;" horiz-adv-x="534" 
d="M269 -12c-132 0 -206 77 -206 188v156c0 110 74 189 206 189c130 0 203 -77 203 -188v-97h-355v-59c0 -81 53 -139 152 -139c91 0 136 47 145 113h54c-8 -98 -77 -163 -199 -163zM117 284h301v49c0 79 -50 138 -151 138c-97 0 -150 -58 -150 -138v-49z" />
    <glyph glyph-name="uni0436" unicode="&#x436;" horiz-adv-x="767" 
d="M46 0v26l159 233l-152 224v26h49l154 -229h101v229h54v-229h100l155 229h48v-26l-151 -224l159 -233v-26h-51l-157 232h-103v-232h-54v232h-104l-156 -232h-51z" />
    <glyph glyph-name="uni0437" unicode="&#x437;" horiz-adv-x="524" 
d="M269 -12c-129 0 -208 68 -210 179h52c0 -80 58 -129 157 -129c89 0 139 42 139 107c0 56 -44 91 -118 91h-70v48h70c64 0 104 34 104 89c0 58 -44 98 -131 98c-89 0 -139 -49 -141 -128h-53c3 112 76 178 197 178c118 0 185 -60 185 -144c0 -62 -39 -102 -90 -115
c60 -12 104 -54 104 -120c0 -96 -70 -154 -195 -154z" />
    <glyph glyph-name="uni0438" unicode="&#x438;" horiz-adv-x="590" 
d="M86 0v509h54v-426l310 426h54v-509h-54v425l-310 -425h-54z" />
    <glyph glyph-name="uni0439" unicode="&#x439;" horiz-adv-x="590" 
d="M295 571c-90 0 -152 50 -152 137v12h49v-11c0 -60 39 -94 103 -94c63 0 103 34 103 94v11h49v-12c0 -87 -63 -137 -152 -137zM86 0v509h54v-426l310 426h54v-509h-54v425l-310 -425h-54z" />
    <glyph glyph-name="uni043A" unicode="&#x43a;" horiz-adv-x="520" 
d="M86 0v509h54v-229h103l179 229h45v-26l-175 -224l183 -233v-26h-49l-181 232h-105v-232h-54z" />
    <glyph glyph-name="uni043B" unicode="&#x43b;" horiz-adv-x="570" 
d="M24 0v50h6c81 0 106 75 106 215v244h348v-509h-54v461h-242v-195c0 -181 -53 -266 -151 -266h-13z" />
    <glyph glyph-name="uni043C" unicode="&#x43c;" horiz-adv-x="676" 
d="M86 0v509h54l199 -263l197 263h54v-509h-54v424l-183 -241h-29l-184 241v-424h-54z" />
    <glyph glyph-name="uni043D" unicode="&#x43d;" horiz-adv-x="580" 
d="M86 0v509h54v-231h300v231h54v-509h-54v230h-300v-230h-54z" />
    <glyph glyph-name="uni043E" unicode="&#x43e;" horiz-adv-x="538" 
d="M269 38c103 0 152 62 152 141v151c0 79 -49 141 -152 141c-99 0 -152 -61 -152 -141v-151c0 -81 53 -141 152 -141zM269 -12c-137 0 -206 82 -206 189v155c0 106 69 189 206 189c138 0 206 -83 206 -189v-155c0 -107 -68 -189 -206 -189z" />
    <glyph glyph-name="uni043F" unicode="&#x43f;" horiz-adv-x="575" 
d="M86 0v509h403v-509h-54v461h-295v-461h-54z" />
    <glyph glyph-name="uni0440" unicode="&#x440;" horiz-adv-x="569" 
d="M320 521c108 0 178 -72 178 -188v-157c0 -116 -69 -188 -180 -188c-80 0 -142 44 -178 86v-234h-54v669h34l17 -77c39 44 102 89 183 89zM312 38c84 0 132 59 132 142v149c0 83 -48 142 -131 142c-71 0 -132 -48 -173 -93v-247c41 -45 102 -93 172 -93z" />
    <glyph glyph-name="uni0441" unicode="&#x441;" horiz-adv-x="527" 
d="M267 -12c-131 0 -204 78 -204 189v155c0 110 73 189 204 189c125 0 202 -72 202 -178v-5h-54v6c0 74 -54 127 -148 127c-98 0 -150 -58 -150 -138v-157c0 -81 52 -138 150 -138c95 0 148 55 148 129v6h54v-5c0 -106 -77 -180 -202 -180z" />
    <glyph glyph-name="uni0442" unicode="&#x442;" horiz-adv-x="468" 
d="M207 0v461h-181v48h416v-48h-181v-461h-54z" />
    <glyph glyph-name="uni0443" unicode="&#x443;" horiz-adv-x="499" 
d="M165 -160v21l60 139l-199 483v26h51l175 -437l173 437h50v-26l-264 -643h-46z" />
    <glyph glyph-name="uni0444" unicode="&#x444;" horiz-adv-x="773" 
d="M359 -160v216c-31 -34 -77 -68 -144 -68c-89 0 -144 63 -144 159v214c0 97 55 160 144 160c67 0 113 -34 144 -68v252h54v-252c31 34 77 68 144 68c89 0 145 -63 145 -160v-214c0 -96 -56 -159 -145 -159c-67 0 -113 34 -144 68v-216h-54zM232 38c56 0 96 37 127 70v293
c-31 33 -71 70 -127 70c-69 0 -107 -49 -107 -116v-201c0 -67 38 -116 107 -116zM540 38c69 0 108 49 108 116v201c0 67 -39 116 -108 116c-56 0 -96 -37 -127 -70v-293c31 -33 71 -70 127 -70z" />
    <glyph glyph-name="uni0445" unicode="&#x445;" horiz-adv-x="512" 
d="M46 0v26l176 228l-175 229v26h50l159 -213l160 213h47v-26l-173 -227l177 -230v-26h-49l-163 217l-162 -217h-47z" />
    <glyph glyph-name="uni0446" unicode="&#x446;" horiz-adv-x="606" 
d="M511 -132v132h-425v509h54v-461h293v461h54v-461h78v-180h-54z" />
    <glyph glyph-name="uni0447" unicode="&#x447;" horiz-adv-x="540" 
d="M400 0v208c-42 -12 -100 -20 -148 -20c-117 0 -196 49 -196 159v162h54v-157c0 -80 62 -114 150 -114c52 0 101 8 140 20v251h54v-509h-54z" />
    <glyph glyph-name="uni0448" unicode="&#x448;" horiz-adv-x="773" 
d="M86 0v509h54v-461h219v461h54v-461h220v461h54v-509h-601z" />
    <glyph glyph-name="uni0449" unicode="&#x449;" horiz-adv-x="805" 
d="M710 -132v132h-624v509h54v-461h219v461h54v-461h220v461h54v-461h77v-180h-54z" />
    <glyph glyph-name="uni044A" unicode="&#x44a;" horiz-adv-x="586" 
d="M154 0v461h-148v48h202v-185h188c93 0 155 -60 155 -163c0 -102 -62 -161 -155 -161h-242zM208 48h176c69 0 113 43 113 113c0 72 -44 115 -113 115h-176v-228z" />
    <glyph glyph-name="uni044B" unicode="&#x44b;" horiz-adv-x="716" 
d="M86 0v509h54v-185h184c93 0 155 -60 155 -163c0 -102 -62 -161 -155 -161h-238zM140 48h171c69 0 114 43 114 113c0 72 -45 115 -113 115h-172v-228zM576 0v509h54v-509h-54z" />
    <glyph glyph-name="uni044C" unicode="&#x44c;" horiz-adv-x="524" 
d="M86 0v509h54v-185h194c93 0 155 -60 155 -163c0 -102 -62 -161 -155 -161h-248zM140 48h181c69 0 114 43 114 113c0 72 -45 115 -113 115h-182v-228z" />
    <glyph glyph-name="uni044D" unicode="&#x44d;" horiz-adv-x="534" 
d="M263 -12c-129 0 -204 75 -204 185h54c0 -79 51 -135 150 -135c100 0 154 59 154 141v51h-204v48h204v52c0 82 -54 141 -154 141c-98 0 -150 -55 -150 -133h-54c0 110 76 183 204 183c133 0 208 -79 208 -191v-151c0 -112 -75 -191 -208 -191z" />
    <glyph glyph-name="uni044E" unicode="&#x44e;" horiz-adv-x="745" 
d="M480 -12c-133 0 -202 81 -202 187v55h-138v-230h-54v509h54v-231h138v56c0 106 69 187 202 187c134 0 202 -81 202 -187v-159c0 -106 -68 -187 -202 -187zM480 38c98 0 148 61 148 139v155c0 78 -50 139 -148 139c-95 0 -148 -59 -148 -139v-155c0 -80 53 -139 148 -139z
" />
    <glyph glyph-name="uni044F" unicode="&#x44f;" horiz-adv-x="534" 
d="M55 0v26l125 185c-71 10 -116 63 -116 147c0 95 58 151 146 151h238v-509h-54v206h-155l-132 -206h-52zM222 254h172v207h-172c-65 0 -104 -41 -104 -101c0 -69 41 -106 104 -106z" />
    <glyph glyph-name="uni0451" unicode="&#x451;" horiz-adv-x="534" 
d="M269 -12c-132 0 -206 77 -206 188v156c0 110 74 189 206 189c130 0 203 -77 203 -188v-97h-355v-59c0 -81 53 -139 152 -139c91 0 136 47 145 113h54c-8 -98 -77 -163 -199 -163zM117 284h301v49c0 79 -50 138 -151 138c-97 0 -150 -58 -150 -138v-49zM152 595v110h54
v-110h-54zM333 595v110h54v-110h-54z" />
    <glyph glyph-name="uni0452" unicode="&#x452;" horiz-adv-x="578" 
d="M450 -7v247c0 102 -56 147 -129 147c-69 0 -132 -46 -171 -93v-294h-54v550h-82v44h82v111h54v-111h238v-44h-238v-199c39 44 102 86 180 86c98 0 174 -65 174 -190v-254c0 -87 -28 -165 -138 -165c-13 0 -23 1 -31 2v48c11 -1 19 -1 26 -1c63 0 89 38 89 116z" />
    <glyph glyph-name="uni0453" unicode="&#x453;" horiz-adv-x="456" 
d="M363 710l-108 -120h-55l107 140h56v-20zM86 0v509h324v-48h-270v-461h-54z" />
    <glyph glyph-name="uni0454" unicode="&#x454;" horiz-adv-x="533" 
d="M271 -12c-133 0 -208 79 -208 191v151c0 112 75 191 208 191c128 0 204 -73 204 -183h-54c0 78 -52 133 -150 133c-100 0 -154 -59 -154 -141v-52h204v-48h-204v-51c0 -82 54 -141 154 -141c99 0 150 56 150 135h54c0 -110 -75 -185 -204 -185z" />
    <glyph glyph-name="uni0455" unicode="&#x455;" horiz-adv-x="538" 
d="M274 -12c-118 0 -218 56 -218 182h54c0 -95 84 -132 168 -132c89 0 140 41 140 96c0 48 -30 68 -100 86l-115 30c-79 21 -125 52 -125 130c0 81 67 141 188 141c116 0 199 -59 199 -177h-54c0 86 -64 127 -149 127c-89 0 -130 -40 -130 -89c0 -45 24 -66 90 -83l114 -29
c86 -22 136 -54 136 -133c0 -87 -72 -149 -198 -149z" />
    <glyph glyph-name="uni0456" unicode="&#x456;" horiz-adv-x="226" 
d="M86 0v509h54v-509h-54zM86 595v110h54v-110h-54z" />
    <glyph glyph-name="uni0457" unicode="&#x457;" horiz-adv-x="226" 
d="M-4 595v110h54v-110h-54zM177 595v110h54v-110h-54zM86 0v509h54v-509h-54z" />
    <glyph glyph-name="uni0458" unicode="&#x458;" horiz-adv-x="226" 
d="M2 -172c-13 0 -22 1 -31 2v48c13 -1 19 -1 26 -1c63 0 89 38 89 116v516h54v-516c0 -87 -28 -165 -138 -165zM86 595v110h54v-110h-54z" />
    <glyph glyph-name="uni0459" unicode="&#x459;" horiz-adv-x="849" 
d="M24 0v50h6c81 0 106 75 106 215v244h340v-185h183c93 0 155 -60 155 -163c0 -102 -62 -161 -155 -161h-237v461h-234v-195c0 -181 -53 -266 -151 -266h-13zM476 48h171c68 0 113 43 113 113c0 72 -45 115 -113 115h-171v-228z" />
    <glyph glyph-name="uni045A" unicode="&#x45a;" horiz-adv-x="844" 
d="M86 0v509h54v-198h283v198h54v-198h177c93 0 155 -58 155 -156s-62 -155 -155 -155h-231v263h-283v-263h-54zM477 48h164c69 0 114 41 114 107c0 67 -45 108 -113 108h-165v-215z" />
    <glyph glyph-name="uni045B" unicode="&#x45b;" horiz-adv-x="578" 
d="M450 0v240c0 102 -56 147 -129 147c-69 0 -132 -46 -171 -93v-294h-54v550h-82v44h82v111h54v-111h238v-44h-238v-199c39 44 102 86 180 86c98 0 174 -65 174 -190v-247h-54z" />
    <glyph glyph-name="uni045C" unicode="&#x45c;" horiz-adv-x="520" 
d="M386 710l-108 -120h-55l107 140h56v-20zM86 0v509h54v-229h103l179 229h45v-26l-175 -224l183 -233v-26h-49l-181 232h-105v-232h-54z" />
    <glyph glyph-name="uni045E" unicode="&#x45e;" horiz-adv-x="499" 
d="M165 -160v21l60 139l-199 483v26h51l175 -437l173 437h50v-26l-264 -643h-46zM252 571c-90 0 -152 50 -152 137v12h49v-11c0 -60 39 -94 103 -94c63 0 103 34 103 94v11h49v-12c0 -87 -63 -137 -152 -137z" />
    <glyph glyph-name="uni045F" unicode="&#x45f;" horiz-adv-x="576" 
d="M261 -126v126h-175v509h54v-461h296v461h54v-509h-175v-126h-54z" />
    <glyph glyph-name="uni0490" unicode="&#x490;" horiz-adv-x="551" 
d="M96 0v700h355v130h54v-182h-351v-648h-58z" />
    <glyph glyph-name="uni0491" unicode="&#x491;" horiz-adv-x="451" 
d="M86 0v509h265v123h54v-171h-265v-461h-54z" />
    <glyph glyph-name="uni1E61" unicode="&#x1e61;" horiz-adv-x="538" 
d="M274 -12c-118 0 -218 56 -218 182h54c0 -95 84 -132 168 -132c89 0 140 41 140 96c0 48 -30 68 -100 86l-115 30c-79 21 -125 52 -125 130c0 81 67 141 188 141c116 0 199 -59 199 -177h-54c0 86 -64 127 -149 127c-89 0 -130 -40 -130 -89c0 -45 24 -66 90 -83l114 -29
c86 -22 136 -54 136 -133c0 -87 -72 -149 -198 -149zM247 605v110h54v-110h-54z" />
    <glyph glyph-name="uni1E63" unicode="&#x1e63;" horiz-adv-x="538" 
d="M274 -12c-118 0 -218 56 -218 182h54c0 -95 84 -132 168 -132c89 0 140 41 140 96c0 48 -30 68 -100 86l-115 30c-79 21 -125 52 -125 130c0 81 67 141 188 141c116 0 199 -59 199 -177h-54c0 86 -64 127 -149 127c-89 0 -130 -40 -130 -89c0 -45 24 -66 90 -83l114 -29
c86 -22 136 -54 136 -133c0 -87 -72 -149 -198 -149zM242 -172v110h54v-110h-54z" />
    <glyph glyph-name="endash" unicode="&#x2013;" horiz-adv-x="582" 
d="M65 288v50h452v-50h-452z" />
    <glyph glyph-name="emdash" unicode="&#x2014;" horiz-adv-x="816" 
d="M65 288v50h686v-50h-686z" />
    <glyph glyph-name="quoteleft" unicode="&#x2018;" horiz-adv-x="216" 
d="M183 705l-68 -225h-59v26l84 199h43z" />
    <glyph glyph-name="quoteright" unicode="&#x2019;" horiz-adv-x="216" 
d="M33 482l68 225h59v-26l-84 -199h-43z" />
    <glyph glyph-name="quotesinglbase" unicode="&#x201a;" horiz-adv-x="209" 
d="M33 -96l68 225h59v-26l-84 -199h-43z" />
    <glyph glyph-name="quotedblleft" unicode="&#x201c;" horiz-adv-x="387" 
d="M183 705l-68 -225h-59v26l84 199h43zM354 705l-68 -225h-59v26l84 199h43z" />
    <glyph glyph-name="quotedblright" unicode="&#x201d;" horiz-adv-x="387" 
d="M33 480l68 225h59v-26l-84 -199h-43zM204 480l68 225h59v-26l-84 -199h-43z" />
    <glyph glyph-name="quotedblbase" unicode="&#x201e;" horiz-adv-x="387" 
d="M33 -96l68 225h59v-26l-84 -199h-43zM204 -96l68 225h59v-26l-84 -199h-43z" />
    <glyph glyph-name="dagger" unicode="&#x2020;" horiz-adv-x="527" 
d="M237 -160v607h-201v48h201v210h54v-210h201v-48h-201v-607h-54z" />
    <glyph glyph-name="daggerdbl" unicode="&#x2021;" horiz-adv-x="527" 
d="M237 -160v316h-201v48h201v243h-201v48h201v210h54v-210h201v-48h-201v-243h201v-48h-201v-316h-54z" />
    <glyph glyph-name="bullet" unicode="&#x2022;" horiz-adv-x="363" 
d="M182 203c-72 0 -116 40 -116 114v6c0 74 44 114 116 114c71 0 116 -40 116 -114v-6c0 -73 -45 -114 -116 -114z" />
    <glyph glyph-name="ellipsis" unicode="&#x2026;" horiz-adv-x="656" 
d="M79 0v129h58v-129h-58zM299 0v129h58v-129h-58zM519 0v129h58v-129h-58z" />
    <glyph glyph-name="perthousand" unicode="&#x2030;" horiz-adv-x="1096" 
d="M192 394c66 0 98 43 98 95v88c0 53 -32 95 -98 95c-64 0 -98 -41 -98 -95v-88c0 -54 34 -95 98 -95zM192 351c-94 0 -146 56 -146 142v80c0 86 52 142 146 142c95 0 146 -56 146 -142v-80c0 -86 -51 -142 -146 -142zM161 0v20l393 680h47v-20l-394 -680h-46zM571 28
c66 0 99 43 99 95v88c0 53 -33 95 -99 95c-63 0 -98 -41 -98 -95v-88c0 -54 35 -95 98 -95zM571 -15c-94 0 -146 56 -146 142v80c0 86 52 142 146 142c95 0 147 -56 147 -142v-80c0 -86 -52 -142 -147 -142zM904 28c66 0 99 43 99 95v88c0 53 -33 95 -99 95
c-63 0 -98 -41 -98 -95v-88c0 -54 35 -95 98 -95zM904 -15c-94 0 -146 56 -146 142v80c0 86 52 142 146 142c95 0 147 -56 147 -142v-80c0 -86 -52 -142 -147 -142z" />
    <glyph glyph-name="guilsinglleft" unicode="&#x2039;" horiz-adv-x="328" 
d="M216 63l-170 206l170 206h48v-22l-153 -184l153 -184v-22h-48z" />
    <glyph glyph-name="guilsinglright" unicode="&#x203a;" horiz-adv-x="328" 
d="M282 269l-170 -206h-48v22l153 184l-153 184v22h48z" />
    <glyph glyph-name="fraction" unicode="&#x2044;" horiz-adv-x="352" 
d="M-44 0v20l393 680h47v-20l-394 -680h-46z" />
    <glyph glyph-name="fourinferior" unicode="&#x2084;" horiz-adv-x="347" 
d="M163 700h42v-24l-110 -195h116v77h51v-77h59v-48h-59v-75h-51v75h-181v36z" />
    <glyph glyph-name="Euro" unicode="&#x20ac;" horiz-adv-x="668" 
d="M363 -15c-151 0 -248 89 -248 241v18h-85v50h85v111h-85v50h85v19c0 152 97 241 248 241c127 0 239 -77 239 -234v-10h-52v10c0 124 -88 184 -187 184c-120 0 -194 -71 -194 -191v-19h247v-50h-247v-111h247v-50h-247v-18c0 -120 74 -191 194 -191c103 0 187 60 187 184
v10h52v-10c0 -157 -108 -234 -239 -234z" />
    <glyph glyph-name="uni20B4" unicode="&#x20b4;" horiz-adv-x="649" 
d="M320 -15c-143 0 -224 78 -224 178c0 37 10 68 25 91h-81v50h569v-50h-431c-18 -22 -28 -50 -28 -84c0 -79 61 -135 170 -135c90 0 171 48 181 152h54c-10 -137 -114 -202 -235 -202zM40 394v50h422c17 21 30 49 30 86c0 74 -59 135 -165 135c-91 0 -170 -47 -179 -152
h-54c8 135 108 202 233 202c137 0 219 -78 219 -180c0 -39 -12 -67 -28 -91h91v-50h-569z" />
    <glyph glyph-name="uni20BD" unicode="&#x20bd;" horiz-adv-x="634" 
d="M126 0v130h-92v48h92v114h-92v50h92v358h268c119 0 189 -79 189 -204c0 -124 -70 -204 -189 -204h-214v-114h209v-48h-209v-130h-54zM180 342h208c85 0 141 56 141 153c0 98 -56 155 -141 155h-208v-308z" />
    <glyph glyph-name="uni2116" unicode="&#x2116;" horiz-adv-x="999" 
d="M96 0v700h50l353 -593v593h54v-700h-50l-353 593v-593h-54zM790 391c66 0 99 43 99 95v94c0 53 -33 95 -99 95c-63 0 -98 -41 -98 -95v-94c0 -54 35 -95 98 -95zM790 351c-94 0 -146 56 -146 142v80c0 86 52 142 146 142c95 0 147 -56 147 -142v-80
c0 -86 -52 -142 -147 -142zM644 222v43h293v-43h-293z" />
    <glyph glyph-name="trademark" unicode="&#x2122;" horiz-adv-x="683" 
d="M324 369v331h42l107 -157l109 157h43v-331h-46v253l-90 -132h-31l-89 130v-251h-45zM113 369v289h-100v42h245v-42h-100v-289h-45z" />
    <glyph glyph-name="Omega" unicode="&#x2126;" horiz-adv-x="718" 
d="M80 0v52h142c-85 36 -126 110 -126 210v203c0 158 102 250 263 250c160 0 263 -92 263 -250v-203c0 -100 -41 -174 -126 -210h142v-52h-228v54c100 17 154 100 154 205v208c0 117 -76 194 -205 194s-205 -77 -205 -194v-208c0 -105 54 -188 154 -205v-54h-228z" />
    <glyph glyph-name="partialdiff" unicode="&#x2202;" horiz-adv-x="545" 
d="M240 -12c-121 0 -192 68 -192 167c0 13 6 81 9 112c11 118 85 188 196 188c83 0 141 -50 175 -95c1 29 4 67 4 94c-1 136 -67 204 -185 204c-51 0 -82 -7 -111 -15l4 49c31 9 75 15 119 15c150 0 223 -96 223 -247c0 -53 -13 -197 -21 -284c-9 -111 -89 -188 -221 -188z
M245 38c100 0 154 60 162 141l13 137c-37 45 -88 89 -159 89c-88 0 -142 -57 -151 -142c-2 -19 -8 -87 -8 -98c0 -73 49 -127 143 -127z" />
    <glyph glyph-name="Delta" unicode="&#x2206;" horiz-adv-x="654" 
d="M26 0v20l271 680h59l272 -680v-20h-602zM98 52h454l-226 571z" />
    <glyph glyph-name="product" unicode="&#x220f;" horiz-adv-x="677" 
d="M96 -75v775h485v-775h-54v725h-377v-725h-54z" />
    <glyph glyph-name="summation" unicode="&#x2211;" horiz-adv-x="551" 
d="M56 -74v50l192 341l-192 333v50h427v-50h-366l195 -333l-195 -341h378v-50h-439z" />
    <glyph glyph-name="minus" unicode="&#x2212;" horiz-adv-x="525" 
d="M54 290v46h417v-46h-417z" />
    <glyph glyph-name="radical" unicode="&#x221a;" horiz-adv-x="572" 
d="M283 -75l-168 433h-108v50h146l151 -400l207 789h49v-20l-223 -852h-54z" />
    <glyph glyph-name="infinity" unicode="&#x221e;" horiz-adv-x="863" 
d="M234 134c-102 0 -168 77 -168 183c0 105 66 182 168 182c73 0 122 -50 188 -129l10 -12l10 12c65 78 113 129 187 129c102 0 168 -77 168 -182c0 -106 -66 -182 -168 -182c-74 0 -126 46 -188 129l-9 12l-9 -12c-62 -83 -115 -130 -189 -130zM236 185c57 0 97 46 153 118
l10 13l-16 19c-56 67 -92 111 -147 111c-69 0 -116 -54 -116 -130c0 -78 47 -131 116 -131zM628 185c68 0 116 53 116 131c0 76 -48 130 -116 130c-57 0 -95 -47 -154 -118l-10 -12l10 -13c56 -73 97 -118 154 -118z" />
    <glyph glyph-name="integral" unicode="&#x222b;" horiz-adv-x="325" 
d="M-6 -160v48h32c69 0 110 40 110 115v535c0 101 61 162 155 162h40v-48h-32c-68 0 -110 -40 -110 -115v-535c0 -101 -61 -162 -155 -162h-40z" />
    <glyph glyph-name="approxequal" unicode="&#x2248;" horiz-adv-x="477" 
d="M87 347l-33 26c43 63 70 92 110 92c25 0 48 -11 69 -27l24 -18c21 -16 37 -23 56 -23c22 0 37 15 76 67l34 -26c-41 -64 -70 -92 -111 -92c-26 0 -45 9 -67 25l-25 19c-21 16 -34 24 -52 24c-28 0 -42 -17 -81 -67zM87 163l-33 26c43 63 70 92 110 92c25 0 48 -11 69 -27
l24 -18c21 -16 37 -23 56 -23c22 0 37 15 76 67l34 -26c-41 -64 -70 -92 -111 -92c-26 0 -45 9 -67 25l-25 19c-21 16 -34 24 -52 24c-28 0 -42 -17 -81 -67z" />
    <glyph glyph-name="notequal" unicode="&#x2260;" horiz-adv-x="559" 
d="M66 0v20l100 162h-100v46h129l106 171h-235v46h263l108 171h44v-20l-94 -151h94v-46h-122l-107 -171h229v-46h-258l-112 -182h-45z" />
    <glyph glyph-name="lessequal" unicode="&#x2264;" horiz-adv-x="486" 
d="M403 145l-349 180v45l349 180h29v-36l-319 -166l319 -167v-36h-29zM54 21v46h378v-46h-378z" />
    <glyph glyph-name="greaterequal" unicode="&#x2265;" horiz-adv-x="486" 
d="M54 145v36l319 167l-319 166v36h29l349 -180v-45l-349 -180h-29zM54 21v46h378v-46h-378z" />
    <glyph glyph-name="lozenge" unicode="&#x25ca;" horiz-adv-x="537" 
d="M248 0l-192 350l192 350h43l191 -350l-192 -350h-42zM269 66l155 284l-155 284l-155 -284z" />
    <glyph glyph-name="commaaccent" unicode="&#xf6c3;" horiz-adv-x="384" 
d="M127 -245l57 178h59v-26l-73 -152h-43z" />
    <glyph glyph-name="zero.onum" horiz-adv-x="552" 
d="M276 38c106 0 158 71 158 159v116c0 88 -52 158 -158 158c-103 0 -158 -69 -158 -158v-116c0 -90 55 -159 158 -159zM276 -12c-136 0 -212 84 -212 210v112c0 126 76 211 212 211c137 0 212 -85 212 -211v-112c0 -126 -75 -210 -212 -210z" />
    <glyph glyph-name="one.onum" horiz-adv-x="245" 
d="M101 0v448h-64v28l64 33h54v-509h-54z" />
    <glyph glyph-name="two.onum" horiz-adv-x="548" 
d="M61 0v44l219 142c58 38 140 79 140 164c0 68 -59 121 -149 121c-93 0 -160 -52 -160 -143h-54c0 121 86 193 214 193c126 0 203 -75 203 -174c0 -102 -86 -152 -156 -195l-166 -102h340v-50h-431z" />
    <glyph glyph-name="three.onum" horiz-adv-x="563" 
d="M281 -171c-137 0 -222 78 -225 203h54c2 -92 64 -154 171 -154c104 0 162 60 162 152c0 79 -55 135 -143 135h-66v47h65c80 0 127 47 127 125c0 72 -51 134 -150 134c-94 0 -156 -59 -156 -155h-54c0 125 81 205 210 205c134 0 203 -82 203 -181
c0 -81 -43 -130 -105 -150c68 -17 123 -76 123 -164c0 -118 -76 -197 -216 -197z" />
    <glyph glyph-name="four.onum" horiz-adv-x="533" 
d="M359 -160v160h-318v43l271 466h48v-21l-254 -438h253v179h54v-179h94v-50h-94v-160h-54z" />
    <glyph glyph-name="five.onum" horiz-adv-x="574" 
d="M290 -172c-124 0 -208 71 -222 187h55c13 -84 73 -137 167 -137c103 0 164 68 164 182c0 122 -70 173 -159 173c-61 0 -109 -26 -141 -63h-53l29 339h337v-50h-292l-20 -235c35 35 90 55 146 55c113 0 207 -64 207 -220c0 -135 -76 -231 -218 -231z" />
    <glyph glyph-name="six.onum" horiz-adv-x="573" 
d="M289 -12c-145 0 -226 88 -226 227c0 67 22 118 66 187l189 298h50v-20l-184 -287c29 24 72 39 126 39c126 0 205 -82 205 -217c0 -139 -83 -227 -226 -227zM289 38c113 0 172 70 172 174c0 103 -54 174 -170 174c-103 0 -174 -62 -174 -174c0 -104 58 -174 172 -174z" />
    <glyph glyph-name="seven.onum" horiz-adv-x="527" 
d="M193 -160v20l228 599h-319v-142h-51v192h426v-46l-236 -623h-48z" />
    <glyph glyph-name="eight.onum" horiz-adv-x="603" 
d="M301 -15c-152 0 -235 80 -235 204c0 100 66 160 138 178c-60 20 -116 68 -116 160c0 106 75 188 213 188c139 0 214 -82 214 -188c0 -92 -56 -140 -115 -160c70 -18 137 -78 137 -178c0 -124 -83 -204 -236 -204zM142 526c0 -87 61 -139 159 -139s159 52 159 139
s-61 139 -159 139s-159 -52 -159 -139zM120 188c0 -96 69 -153 181 -153c113 0 182 57 182 153c0 97 -69 154 -182 154c-112 0 -181 -57 -181 -154z" />
    <glyph glyph-name="nine.onum" horiz-adv-x="573" 
d="M234 -160v20l159 258c-29 -25 -71 -39 -122 -39c-133 0 -213 85 -213 220c0 131 81 222 226 222c146 0 226 -91 226 -222c0 -66 -18 -116 -64 -192l-163 -267h-49zM283 124c101 0 173 62 173 173c0 98 -57 174 -172 174c-114 0 -172 -75 -172 -173
c0 -102 53 -174 171 -174z" />
    <glyph glyph-name="uniF653" unicode="&#xf653;" horiz-adv-x="538" 
d="M297 598v-79c99 -10 168 -68 168 -175h-54c0 86 -64 127 -149 127c-89 0 -130 -40 -130 -89c0 -45 24 -66 90 -83l114 -29c86 -22 136 -54 136 -133c0 -82 -64 -141 -175 -148v-78h-47v78c-108 7 -194 63 -194 181h54c0 -95 84 -132 168 -132c89 0 140 41 140 96
c0 48 -30 68 -100 86l-115 30c-79 21 -125 52 -125 130c0 77 61 135 172 140v78h47z" />
    <glyph glyph-name="uniF64E" unicode="&#xf64e;" horiz-adv-x="558" 
d="M26 211h68v78h-68v42h68c0 110 73 190 204 190c125 0 202 -72 202 -178v-5h-54v6c0 74 -54 127 -148 127c-98 0 -150 -60 -150 -140h189v-42h-189v-78h189v-42h-189c3 -76 55 -131 150 -131s148 55 148 129v6h54v-5c0 -106 -77 -180 -202 -180c-128 0 -201 74 -204 181
h-68v42z" />
    <glyph glyph-name="uniF725" unicode="&#xf725;" horiz-adv-x="532" 
d="M30 0v48h73v174h-73v48h73v62c0 110 69 189 190 189c116 0 188 -72 188 -178v-5h-54v7c0 74 -49 126 -134 126c-89 0 -136 -58 -136 -138v-63h170v-48h-170v-174h324v-48h-451z" />
    <glyph glyph-name="uniF727" unicode="&#xf727;" horiz-adv-x="515" 
d="M231 0v77h-152v42h152v78h-152v42h127l-163 244v26h48l166 -256h2l167 256h46v-26l-163 -244h121v-42h-145v-78h145v-42h-145v-77h-54z" />
    <glyph glyph-name="uniF722" unicode="&#xf722;" horiz-adv-x="541" 
d="M107 0v77h-81v42h81v72h-81v48h81v270h243c94 0 155 -58 155 -159s-61 -159 -155 -159h-189v-72h170v-42h-170v-77h-54zM161 239h177c69 0 113 42 113 111s-44 111 -113 111h-177v-222z" />
    <glyph glyph-name="uniF721" unicode="&#xf721;" horiz-adv-x="559" 
d="M274 -12c-117 0 -181 55 -181 131c0 25 8 47 19 64h-71v42h468v-42h-341c-13 -15 -21 -35 -21 -57c0 -48 44 -88 131 -88c70 0 130 28 137 98h53c-7 -99 -94 -148 -194 -148zM41 283v42h343c12 14 22 35 22 58c0 46 -42 88 -126 88c-72 0 -129 -28 -134 -98h-53
c6 97 87 148 190 148c112 0 177 -55 177 -131c0 -28 -8 -48 -21 -65h70v-42h-468z" />
    <glyph glyph-name="zero.onum.mono" 
d="M300 -12c-136 0 -212 84 -212 210v112c0 126 76 211 212 211c137 0 212 -85 212 -211v-112c0 -126 -75 -210 -212 -210zM142 197c0 -31 6 -59 18 -82l250 318c-26 23 -63 38 -110 38c-103 0 -158 -69 -158 -158v-116zM300 38c106 0 158 71 158 159v116c0 27 -5 53 -15 75
l-251 -315c26 -22 63 -35 108 -35z" />
    <glyph glyph-name="one.onum.mono" 
d="M103 0v49h170v399h-104v28l104 33h54v-460h170v-49h-394z" />
    <glyph glyph-name="two.onum.mono" 
d="M84 0v44l219 142c58 38 140 79 140 164c0 68 -59 121 -149 121c-93 0 -160 -52 -160 -143h-54c0 121 86 193 214 193c126 0 203 -75 203 -174c0 -102 -86 -152 -156 -195l-166 -102h340v-50h-431z" />
    <glyph glyph-name="three.onum.mono" 
d="M304 -171c-137 0 -222 78 -225 203h54c2 -92 64 -154 171 -154c104 0 162 60 162 152c0 79 -55 135 -143 135h-66v47h65c80 0 127 47 127 125c0 72 -51 134 -150 134c-94 0 -156 -59 -156 -155h-54c0 125 81 205 210 205c134 0 203 -82 203 -181
c0 -81 -43 -130 -105 -150c68 -17 123 -76 123 -164c0 -118 -76 -197 -216 -197z" />
    <glyph glyph-name="four.onum.mono" 
d="M382 -160v160h-318v43l271 466h48v-21l-254 -438h253v179h54v-179h94v-50h-94v-160h-54z" />
    <glyph glyph-name="five.onum.mono" 
d="M300 -172c-124 0 -208 71 -222 187h55c13 -84 73 -137 167 -137c103 0 164 68 164 182c0 122 -70 173 -159 173c-61 0 -109 -26 -141 -63h-53l29 339h337v-50h-292l-20 -235c35 35 90 55 146 55c113 0 207 -64 207 -220c0 -135 -76 -231 -218 -231z" />
    <glyph glyph-name="six.onum.mono" 
d="M303 -15c-145 0 -226 88 -226 227c0 67 23 118 66 187l189 301h50v-20l-184 -290c29 24 72 39 126 39c126 0 205 -82 205 -217c0 -139 -83 -227 -226 -227zM303 35c113 0 172 70 172 174c0 103 -54 174 -170 174c-103 0 -174 -62 -174 -174c0 -104 58 -174 172 -174z" />
    <glyph glyph-name="seven.onum.mono" 
d="M230 -160v20l228 599h-319v-142h-51v192h426v-46l-236 -623h-48z" />
    <glyph glyph-name="eight.onum.mono" 
d="M299 -15c-152 0 -235 80 -235 204c0 100 66 160 138 178c-60 20 -116 68 -116 160c0 106 75 188 213 188c139 0 214 -82 214 -188c0 -92 -56 -140 -115 -160c70 -18 137 -78 137 -178c0 -124 -83 -204 -236 -204zM140 526c0 -87 61 -139 159 -139s159 52 159 139
s-61 139 -159 139s-159 -52 -159 -139zM118 188c0 -96 69 -153 181 -153c113 0 182 57 182 153c0 97 -69 154 -182 154c-112 0 -181 -57 -181 -154z" />
    <glyph glyph-name="nine.onum.mono" 
d="M247 -160v20l159 258c-29 -25 -71 -39 -122 -39c-133 0 -213 85 -213 220c0 131 81 222 226 222c146 0 226 -91 226 -222c0 -66 -18 -116 -64 -192l-163 -267h-49zM296 124c101 0 173 62 173 173c0 98 -57 174 -172 174c-114 0 -172 -75 -172 -173
c0 -102 53 -174 171 -174z" />
    <glyph glyph-name="uniF653.mono" 
d="M326 598v-79c99 -10 168 -68 168 -175h-54c0 86 -64 127 -149 127c-89 0 -130 -40 -130 -89c0 -45 24 -66 90 -83l114 -29c86 -22 136 -54 136 -133c0 -82 -64 -141 -175 -148v-78h-47v78c-108 7 -194 63 -194 181h54c0 -95 84 -132 168 -132c89 0 140 41 140 96
c0 48 -30 68 -100 86l-115 30c-79 21 -125 52 -125 130c0 77 61 135 172 140v78h47z" />
    <glyph glyph-name="uniF64E.mono" 
d="M48 211h68v78h-68v42h68c0 110 73 190 204 190c125 0 202 -72 202 -178v-5h-54v6c0 74 -54 127 -148 127c-98 0 -150 -60 -150 -140h189v-42h-189v-78h189v-42h-189c3 -76 55 -131 150 -131s148 55 148 129v6h54v-5c0 -106 -77 -180 -202 -180c-128 0 -201 74 -204 181
h-68v42z" />
    <glyph glyph-name="uniF725.mono" 
d="M63 0v48h73v174h-73v48h73v62c0 110 69 189 190 189c116 0 188 -72 188 -178v-5h-54v7c0 74 -49 126 -134 126c-89 0 -136 -58 -136 -138v-63h170v-48h-170v-174h324v-48h-451z" />
    <glyph glyph-name="uniF727.mono" 
d="M273 0v77h-152v42h152v78h-152v42h127l-163 244v26h48l166 -256h2l167 256h46v-26l-163 -244h121v-42h-145v-78h145v-42h-145v-77h-54z" />
    <glyph glyph-name="uniF722.mono" 
d="M127 0v77h-81v42h81v72h-81v48h81v270h243c94 0 155 -58 155 -159s-61 -159 -155 -159h-189v-72h170v-42h-170v-77h-54zM181 239h177c69 0 113 42 113 111s-44 111 -113 111h-177v-222z" />
    <glyph glyph-name="uniF721.mono" 
d="M289 -12c-117 0 -181 55 -181 131c0 25 8 47 19 64h-71v42h468v-42h-341c-13 -15 -21 -35 -21 -57c0 -48 44 -88 131 -88c70 0 130 28 137 98h53c-7 -99 -94 -148 -194 -148zM56 283v42h343c12 14 22 35 22 58c0 46 -42 88 -126 88c-72 0 -129 -28 -134 -98h-53
c6 97 87 148 190 148c112 0 177 -55 177 -131c0 -28 -8 -48 -21 -65h70v-42h-468z" />
    <glyph glyph-name="zero.mono" 
d="M299 -15c-136 0 -222 82 -222 223v284c0 141 86 223 222 223s223 -82 223 -223v-284c0 -141 -87 -223 -223 -223zM131 205c0 -30 5 -56 15 -79l277 492c-29 30 -71 47 -124 47c-106 0 -168 -68 -168 -171v-289zM299 35c106 0 169 68 169 170v289c0 27 -5 53 -14 75
l-277 -489c29 -29 70 -45 122 -45z" />
    <glyph glyph-name="one.mono" 
d="M103 0v50h170v589h-104v28l104 33h54v-650h170v-50h-394z" />
    <glyph glyph-name="two.mono" 
d="M79 0v45l212 216c73 74 150 151 150 248c0 96 -59 156 -154 156c-97 0 -161 -64 -162 -173h-51c0 143 92 223 213 223c128 0 208 -84 208 -206c0 -119 -92 -206 -164 -279l-178 -180h357v-50h-431z" />
    <glyph glyph-name="three.mono" 
d="M296 -15c-136 0 -225 81 -228 216h52c3 -101 68 -166 177 -166c107 0 167 63 167 163c0 86 -58 144 -152 144h-61v47h59c84 0 138 52 138 135c0 72 -49 141 -151 141c-101 0 -160 -62 -161 -169h-52c1 141 85 219 213 219c131 0 204 -85 204 -187
c0 -87 -49 -139 -111 -160c70 -18 128 -80 128 -173c0 -131 -83 -210 -222 -210z" />
    <glyph glyph-name="four.mono" 
d="M388 0v163h-332v43l278 494h48v-20l-264 -467h270v198h54v-198h94v-50h-94v-163h-54z" />
    <glyph glyph-name="five.mono" 
d="M300 -15c-123 0 -209 71 -225 196h54c13 -91 79 -146 172 -146c109 0 166 76 166 188c0 121 -66 184 -163 184c-65 0 -114 -31 -143 -67h-53l31 360h342v-50h-297l-22 -252c37 33 87 56 150 56c118 0 209 -70 209 -230c0 -146 -83 -239 -221 -239z" />
    <glyph glyph-name="six.mono" 
d="M303 -15c-145 0 -226 88 -226 227c0 67 23 118 66 187l189 301h50v-20l-184 -290c29 24 72 39 126 39c126 0 205 -82 205 -217c0 -139 -83 -227 -226 -227zM303 35c113 0 172 70 172 174c0 103 -54 174 -170 174c-103 0 -174 -62 -174 -174c0 -104 58 -174 172 -174z" />
    <glyph glyph-name="seven.mono" 
d="M218 0v20l245 630h-325v-142h-51v192h433v-47l-253 -653h-49z" />
    <glyph glyph-name="eight.mono" 
d="M299 -15c-152 0 -235 80 -235 204c0 100 66 160 138 178c-60 20 -116 68 -116 160c0 106 75 188 213 188c139 0 214 -82 214 -188c0 -92 -56 -140 -115 -160c70 -18 137 -78 137 -178c0 -124 -83 -204 -236 -204zM140 526c0 -87 61 -139 159 -139s159 52 159 139
s-61 139 -159 139s-159 -52 -159 -139zM118 188c0 -96 69 -153 181 -153c113 0 182 57 182 153c0 97 -69 154 -182 154c-112 0 -181 -57 -181 -154z" />
    <glyph glyph-name="nine.mono" 
d="M231 0v20l179 291c-30 -25 -72 -40 -126 -40c-132 0 -213 84 -213 221c0 134 81 223 226 223s226 -89 226 -223c0 -65 -16 -115 -62 -191l-181 -301h-49zM297 665c-115 0 -172 -70 -172 -173s55 -176 169 -176c102 0 175 63 175 176c0 103 -59 173 -172 173z" />
    <glyph glyph-name="dollar.mono" 
d="M49 227h54c0 -141 106 -192 207 -192c115 0 173 59 173 135c0 71 -48 104 -133 138l-95 37c-128 50 -183 88 -183 189c0 100 76 173 204 180v92h54v-94c110 -11 205 -82 205 -233h-54c0 138 -89 186 -187 186c-104 0 -167 -53 -167 -129c0 -73 42 -100 133 -136l95 -37
c111 -43 184 -87 184 -189c0 -99 -64 -178 -209 -187v-100h-54v100c-118 9 -227 81 -227 240z" />
    <glyph glyph-name="Euro.mono" 
d="M333 -15c-151 0 -248 89 -248 241v18h-85v50h85v111h-85v50h85v19c0 152 97 241 248 241c127 0 239 -77 239 -234v-10h-52v10c0 124 -88 184 -187 184c-120 0 -194 -71 -194 -191v-19h247v-50h-247v-111h247v-50h-247v-18c0 -120 74 -191 194 -191c103 0 187 60 187 184
v10h52v-10c0 -157 -108 -234 -239 -234z" />
    <glyph glyph-name="sterling.mono" 
d="M50 0v50h77v285h-77v50h77v141c0 111 73 189 204 189c126 0 202 -72 202 -182v-29h-54v29c0 78 -53 132 -148 132c-98 0 -150 -57 -150 -138v-142h186v-50h-186v-285h352v-50h-483z" />
    <glyph glyph-name="yen.mono" 
d="M272 0v117h-199v50h199v111h-199v50h169l-221 352v20h54l225 -365l225 365h53v-20l-222 -352h170v-50h-199v-111h199v-50h-199v-117h-55z" />
    <glyph glyph-name="uni20BD.mono" 
d="M115 0v130h-92v48h92v114h-92v50h92v358h268c119 0 189 -79 189 -204c0 -124 -70 -204 -189 -204h-214v-114h209v-48h-209v-130h-54zM169 342h208c85 0 141 56 141 153c0 98 -56 155 -141 155h-208v-308z" />
    <glyph glyph-name="uni20B4.mono" 
d="M295 -15c-143 0 -224 78 -224 178c0 37 10 68 25 91h-81v50h569v-50h-431c-18 -22 -28 -50 -28 -84c0 -79 61 -135 170 -135c90 0 171 48 181 152h54c-10 -137 -114 -202 -235 -202zM15 394v50h422c17 21 30 49 30 86c0 74 -59 135 -165 135c-91 0 -170 -47 -179 -152
h-54c8 135 108 202 233 202c137 0 219 -78 219 -180c0 -39 -12 -67 -28 -91h91v-50h-569z" />
    <glyph glyph-name="a.alt1" horiz-adv-x="569" 
d="M483 0h-33l-18 77c-39 -44 -102 -89 -181 -89c-111 0 -180 72 -180 188v157c0 116 70 188 178 188c81 0 144 -45 183 -89l18 77h33v-509zM257 38c70 0 131 48 172 93v247c-41 45 -102 93 -173 93c-83 0 -131 -59 -131 -142v-149c0 -83 48 -142 132 -142z" />
    <glyph glyph-name="agrave.alt1" horiz-adv-x="569" 
d="M483 0h-33l-18 77c-39 -44 -102 -89 -181 -89c-111 0 -180 72 -180 188v157c0 116 70 188 178 188c81 0 144 -45 183 -89l18 77h33v-509zM257 38c70 0 131 48 172 93v247c-41 45 -102 93 -173 93c-83 0 -131 -59 -131 -142v-149c0 -83 48 -142 132 -142zM299 590
l-108 120v20h56l107 -140h-55z" />
    <glyph glyph-name="aacute.alt1" horiz-adv-x="569" 
d="M483 0h-33l-18 77c-39 -44 -102 -89 -181 -89c-111 0 -180 72 -180 188v157c0 116 70 188 178 188c81 0 144 -45 183 -89l18 77h33v-509zM257 38c70 0 131 48 172 93v247c-41 45 -102 93 -173 93c-83 0 -131 -59 -131 -142v-149c0 -83 48 -142 132 -142zM406 710
l-108 -120h-55l107 140h56v-20z" />
    <glyph glyph-name="acircumflex.alt1" horiz-adv-x="569" 
d="M483 0h-33l-18 77c-39 -44 -102 -89 -181 -89c-111 0 -180 72 -180 188v157c0 116 70 188 178 188c81 0 144 -45 183 -89l18 77h33v-509zM257 38c70 0 131 48 172 93v247c-41 45 -102 93 -173 93c-83 0 -131 -59 -131 -142v-149c0 -83 48 -142 132 -142zM316 730
l108 -120v-20h-52l-83 99l-82 -99h-52v20l108 120h53z" />
    <glyph glyph-name="atilde.alt1" horiz-adv-x="569" 
d="M483 0h-33l-18 77c-39 -44 -102 -89 -181 -89c-111 0 -180 72 -180 188v157c0 116 70 188 178 188c81 0 144 -45 183 -89l18 77h33v-509zM257 38c70 0 131 48 172 93v247c-41 45 -102 93 -173 93c-83 0 -131 -59 -131 -142v-149c0 -83 48 -142 132 -142zM147 609l-32 25
c41 61 67 88 105 88c24 0 45 -11 66 -26l22 -15c21 -14 37 -24 55 -24c21 0 35 15 72 64l33 -25c-39 -61 -67 -88 -106 -88c-25 0 -43 11 -64 25l-21 14c-21 14 -35 26 -53 26c-27 0 -40 -16 -77 -64z" />
    <glyph glyph-name="adieresis.alt1" horiz-adv-x="569" 
d="M483 0h-33l-18 77c-39 -44 -102 -89 -181 -89c-111 0 -180 72 -180 188v157c0 116 70 188 178 188c81 0 144 -45 183 -89l18 77h33v-509zM257 38c70 0 131 48 172 93v247c-41 45 -102 93 -173 93c-83 0 -131 -59 -131 -142v-149c0 -83 48 -142 132 -142zM175 595v110h54
v-110h-54zM356 595v110h54v-110h-54z" />
    <glyph glyph-name="aring.alt1" horiz-adv-x="569" 
d="M483 0h-33l-18 77c-39 -44 -102 -89 -181 -89c-111 0 -180 72 -180 188v157c0 116 70 188 178 188c81 0 144 -45 183 -89l18 77h33v-509zM257 38c70 0 131 48 172 93v247c-41 45 -102 93 -173 93c-83 0 -131 -59 -131 -142v-149c0 -83 48 -142 132 -142zM192 667
c0 53 42 96 94 96c53 0 96 -43 96 -96c0 -52 -43 -94 -96 -94c-52 0 -94 42 -94 94zM226 667c0 -32 28 -59 60 -59c34 0 61 27 61 59c0 34 -27 61 -61 61c-32 0 -60 -27 -60 -61z" />
    <glyph glyph-name="amacron.alt1" horiz-adv-x="569" 
d="M483 0h-33l-18 77c-39 -44 -102 -89 -181 -89c-111 0 -180 72 -180 188v157c0 116 70 188 178 188c81 0 144 -45 183 -89l18 77h33v-509zM257 38c70 0 131 48 172 93v247c-41 45 -102 93 -173 93c-83 0 -131 -59 -131 -142v-149c0 -83 48 -142 132 -142zM158 627v46h266
v-46h-266z" />
    <glyph glyph-name="aogonek.alt1" horiz-adv-x="569" 
d="M483 0c-41 -30 -59 -55 -59 -75c0 -30 26 -43 66 -43h45v-42h-56c-62 0 -99 26 -99 77c0 27 16 59 67 95l-15 65c-39 -44 -102 -89 -181 -89c-111 0 -180 72 -180 188v157c0 116 70 188 178 188c81 0 144 -45 183 -89l18 77h33v-509zM257 38c70 0 131 48 172 93v247
c-41 45 -102 93 -173 93c-83 0 -131 -59 -131 -142v-149c0 -83 48 -142 132 -142z" />
    <glyph glyph-name="t.alt1" horiz-adv-x="371" 
d="M159 0v461h-129v48h129v196h54v-196h128v-48h-128v-461h-54z" />
    <glyph glyph-name="tcaron.alt1" horiz-adv-x="478" 
d="M159 0v461h-129v48h129v196h54v-196h128v-48h-128v-461h-54zM382 527l57 178h59v-26l-73 -152h-43z" />
    <glyph glyph-name="J.alt1" horiz-adv-x="562" 
d="M253 -15c-134 0 -227 69 -227 216v28h58v-28c0 -105 66 -162 169 -162c99 0 169 57 169 164v443h-264v54h322v-499c0 -145 -95 -216 -227 -216z" />
    <glyph glyph-name="ampersand.alt1" horiz-adv-x="635" 
d="M288 657c-93 0 -142 -56 -142 -128c0 -74 42 -122 135 -122h27v-47h-31c-103 0 -167 -52 -167 -146c0 -104 70 -176 184 -176s184 73 184 176v34h-103v48h260v-48h-103v-31c0 -141 -101 -229 -243 -229s-233 87 -233 220c0 106 65 160 135 177c-62 20 -102 72 -102 147
c0 95 71 175 198 175c121 0 194 -66 197 -178h-53c-2 79 -54 128 -143 128z" />
    <glyph glyph-name="ampersand.alt2" horiz-adv-x="595" 
d="M248 0c-123 0 -192 65 -192 191c0 103 56 162 124 177c-56 19 -99 69 -99 156c0 115 67 176 180 176h102v-48h-102c-80 0 -123 -50 -123 -131c0 -80 43 -130 119 -130h177l19 129h35v-129h71v-48h-71v-343h-240zM258 48h176v295h-176c-93 0 -145 -51 -145 -147
s52 -148 145 -148z" />
    <glyph glyph-name="at.alt1" horiz-adv-x="746" 
d="M350 -160c-159 0 -264 94 -264 235v395c0 141 105 235 264 235h46c159 0 264 -94 264 -235v-360h-33l-19 72c-33 -34 -105 -84 -181 -84c-89 0 -165 46 -165 146c0 103 73 158 211 158h133v67c0 108 -78 186 -210 186h-46c-132 0 -210 -78 -210 -186v-393
c0 -108 78 -186 210 -186h96v-50h-96zM435 148c72 0 138 48 171 81v130h-133c-106 0 -157 -42 -157 -110c0 -72 57 -101 119 -101z" />
    <glyph glyph-name="uni0430.alt1" horiz-adv-x="569" 
d="M483 0h-33l-18 77c-39 -44 -102 -89 -181 -89c-111 0 -180 72 -180 188v157c0 116 70 188 178 188c81 0 144 -45 183 -89l18 77h33v-509zM257 38c70 0 131 48 172 93v247c-41 45 -102 93 -173 93c-83 0 -131 -59 -131 -142v-149c0 -83 48 -142 132 -142z" />
    <glyph glyph-name="uni0423.alt1" horiz-adv-x="565" 
d="M118 0v54h20c55 0 87 30 120 100l13 29l-255 497v20h54l228 -454l201 454h51v-20l-233 -524c-53 -120 -89 -156 -186 -156h-13z" />
    <glyph glyph-name="uni040E.alt1" horiz-adv-x="565" 
d="M118 0v54h20c55 0 87 30 120 100l13 29l-255 497v20h54l228 -454l201 454h51v-20l-233 -524c-53 -120 -89 -156 -186 -156h-13zM279 742c-90 0 -152 49 -152 136v10h49v-9c0 -61 39 -93 103 -93c63 0 103 31 103 93v9h49v-10c0 -87 -63 -136 -152 -136z" />
    </font>
</defs>
</svg>
