<?xml version="1.0" standalone="no"?>
<!DOCTYPE svg PUBLIC "-//W3C//DTD SVG 1.1//EN" "http://www.w3.org/Graphics/SVG/1.1/DTD/svg11.dtd" >
<svg xmlns="http://www.w3.org/2000/svg" xmlns:xlink="http://www.w3.org/1999/xlink" version="1.1">
<metadata>
Created by FontForge 20190801 at Wed Feb 26 15:29:31 2014
 By Jimmy Wärting
Copyright (c) 2012 by Gayane Bagdasaryan, Dmitry Rastvortsev. All rights reserved.
</metadata>
<defs>
<font id="BrutalType-ExtraLight" horiz-adv-x="593" >
  <font-face 
    font-family="Brutal Type"
    font-weight="300"
    font-stretch="normal"
    units-per-em="1000"
    panose-1="2 0 6 3 2 0 0 2 0 4"
    ascent="804"
    descent="-196"
    x-height="504"
    cap-height="700"
    bbox="-42 -240 1028 947"
    underline-thickness="50"
    underline-position="-100"
    stemh="28"
    stemv="30"
    unicode-range="U+0020-FB02"
  />
<missing-glyph horiz-adv-x="331" 
 />
    <glyph glyph-name="fi" unicode="fi" horiz-adv-x="522" 
d="M114 0v477h-91v27h91v54c0 93 47 149 141 149c16 0 29 -2 33 -2v-28c-1 0 -15 2 -30 2c-71 0 -114 -35 -114 -121v-54h290v-504h-30v477h-260v-477h-30zM404 595v110h30v-110h-30z" />
    <glyph glyph-name="fl" unicode="fl" horiz-adv-x="522" 
d="M114 0v477h-91v27h91v54c0 93 47 149 141 149c16 0 29 -2 33 -2v-28c-1 0 -15 2 -30 2c-71 0 -114 -35 -114 -121v-54h143v-27h-143v-477h-30zM404 0v705h30v-705h-30z" />
    <glyph glyph-name=".notdef" horiz-adv-x="331" 
 />
    <glyph glyph-name="space" unicode=" " horiz-adv-x="265" 
 />
    <glyph glyph-name="exclam" unicode="!" horiz-adv-x="239" 
d="M104 0v123h31v-123h-31zM105 220v480h30v-480h-30z" />
    <glyph glyph-name="quotedbl" unicode="&#x22;" horiz-adv-x="299" 
d="M56 491l-6 108v106h32v-106l-6 -108h-20zM223 491l-6 108v106h32v-106l-6 -108h-20z" />
    <glyph glyph-name="numbersign" unicode="#" horiz-adv-x="604" 
d="M106 0v12l37 192h-119v28h125l45 236h-129v28h134l40 204h26v-12l-36 -192h201l40 204h26v-12l-36 -192h120v-28h-126l-45 -236h130v-28h-136l-39 -204h-27v12l36 192h-201l-39 -204h-27zM178 232h202l45 236h-202z" />
    <glyph glyph-name="dollar" unicode="$" horiz-adv-x="609" 
d="M53 227h30c0 -155 120 -214 233 -214c130 0 194 67 194 152c0 77 -49 116 -145 153l-112 43c-127 48 -175 84 -175 180c0 99 78 171 213 174v93h30v-94c118 -8 217 -79 217 -235h-30c0 153 -102 208 -211 208c-118 0 -189 -61 -189 -145c0 -69 32 -103 109 -133l161 -63
c101 -39 163 -82 163 -180c0 -99 -69 -178 -220 -181v-96h-30v96c-121 8 -238 79 -238 242z" />
    <glyph glyph-name="percent" unicode="%" horiz-adv-x="751" 
d="M190 374c78 0 116 50 116 111v94c0 62 -38 111 -116 111c-74 0 -115 -47 -115 -111v-94c0 -64 41 -111 115 -111zM190 349c-93 0 -142 57 -142 138v90c0 81 49 138 142 138c95 0 143 -57 143 -138v-90c0 -81 -48 -138 -143 -138zM167 0v12l389 688h26v-12l-389 -688h-26z
M560 10c78 0 116 50 116 110v95c0 62 -38 111 -116 111c-74 0 -115 -47 -115 -111v-95c0 -63 41 -110 115 -110zM560 -15c-93 0 -142 57 -142 138v90c0 81 49 138 142 138c95 0 143 -57 143 -138v-90c0 -81 -48 -138 -143 -138z" />
    <glyph glyph-name="ampersand" unicode="&#x26;" horiz-adv-x="587" 
d="M575 14v-14h-26l-82 93c-50 -65 -124 -105 -217 -105c-128 0 -213 78 -213 191c0 83 45 132 117 191l35 29l-24 28c-41 47 -73 82 -73 144c0 81 59 136 138 136c80 0 137 -54 137 -134c0 -53 -33 -94 -74 -127l-62 -50l233 -258c30 51 46 114 46 183h29
c0 -77 -19 -148 -54 -204zM250 16c85 0 153 37 197 97l-238 266l-36 -29c-66 -54 -106 -95 -106 -169c0 -99 77 -165 183 -165zM122 571c0 -42 12 -67 63 -124l28 -31l56 47c41 33 69 66 69 110c0 61 -45 106 -108 106c-62 0 -108 -43 -108 -108z" />
    <glyph glyph-name="quotesingle" unicode="'" horiz-adv-x="132" 
d="M56 491l-6 108v106h32v-106l-6 -108h-20z" />
    <glyph glyph-name="parenleft" unicode="(" horiz-adv-x="292" 
d="M268 -160c-103 0 -170 55 -170 160v586c0 105 67 160 170 160v-28c-85 0 -140 -47 -140 -132v-586c0 -85 55 -132 140 -132v-28z" />
    <glyph glyph-name="parenright" unicode=")" horiz-adv-x="292" 
d="M24 -160v28c85 0 140 47 140 132v586c0 85 -55 132 -140 132v28c103 0 170 -55 170 -160v-586c0 -105 -67 -160 -170 -160z" />
    <glyph glyph-name="asterisk" unicode="*" horiz-adv-x="399" 
d="M354 415l-142 82v-164h-25v164l-142 -82l-13 22l142 82l-142 82l13 22l142 -83v165h25v-165l142 83l13 -22l-142 -82l142 -82z" />
    <glyph glyph-name="plus" unicode="+" horiz-adv-x="510" 
d="M241 109v191h-189v26h189v190h28v-190h189v-26h-189v-191h-28z" />
    <glyph glyph-name="comma" unicode="," horiz-adv-x="190" 
d="M53 -88h-25l78 214h32v-15z" />
    <glyph glyph-name="hyphen" unicode="-" horiz-adv-x="432" 
d="M68 298v30h297v-30h-297z" />
    <glyph glyph-name="period" unicode="." horiz-adv-x="191" 
d="M80 0v126h31v-126h-31z" />
    <glyph glyph-name="slash" unicode="/" horiz-adv-x="451" 
d="M48 -100v12l328 834h27v-12l-328 -834h-27z" />
    <glyph glyph-name="zero" unicode="0" horiz-adv-x="591" 
d="M295 13c116 0 188 71 188 185v304c0 115 -72 185 -188 185s-187 -70 -187 -185v-304c0 -114 71 -185 187 -185zM295 -15c-132 0 -217 79 -217 215v300c0 136 85 215 217 215s218 -79 218 -215v-300c0 -136 -86 -215 -218 -215z" />
    <glyph glyph-name="one" unicode="1" horiz-adv-x="242" 
d="M114 672h-80v19l80 9h30v-700h-30v672z" />
    <glyph glyph-name="two" unicode="2" horiz-adv-x="558" 
d="M66 0v26l212 216c66 67 161 160 161 269c0 111 -70 176 -172 176c-103 0 -180 -67 -180 -189h-29c0 140 92 217 209 217c120 0 202 -78 202 -204c0 -123 -108 -224 -168 -286l-193 -197h381v-28h-423z" />
    <glyph glyph-name="three" unicode="3" horiz-adv-x="562" 
d="M282 -15c-132 0 -220 78 -224 207h29c4 -110 79 -179 196 -179c115 0 182 67 182 180c0 93 -63 159 -164 159h-66v30h67c90 0 146 58 146 147c0 83 -58 158 -169 158c-108 0 -178 -68 -179 -189h-29c1 138 84 217 208 217c127 0 198 -85 198 -185
c0 -91 -52 -145 -118 -162c75 -16 136 -78 136 -175c0 -131 -79 -208 -213 -208z" />
    <glyph glyph-name="four" unicode="4" horiz-adv-x="537" 
d="M380 0v174h-342v25l293 501h27v-12l-285 -486h307v209h30v-209h99v-28h-99v-174h-30z" />
    <glyph glyph-name="five" unicode="5" horiz-adv-x="572" 
d="M290 -15c-119 0 -203 69 -219 192h30c15 -103 88 -164 190 -164c120 0 184 84 184 205c0 135 -73 201 -181 201c-68 0 -124 -33 -156 -72h-29l29 353h326v-28h-301l-24 -288c37 38 94 63 158 63c121 0 208 -72 208 -228c0 -139 -78 -234 -215 -234z" />
    <glyph glyph-name="six" unicode="6" horiz-adv-x="566" 
d="M288 -15c-143 0 -220 87 -220 221c0 72 24 121 66 188l192 306h29v-12l-199 -314c33 31 82 50 145 50c133 0 207 -86 207 -218c0 -134 -78 -221 -220 -221zM288 13c125 0 190 78 190 192c0 112 -59 191 -187 191c-109 0 -193 -65 -193 -191c0 -114 65 -192 190 -192z" />
    <glyph glyph-name="seven" unicode="7" horiz-adv-x="528" 
d="M191 0v12l255 660h-360v-160h-30v188h422v-27l-260 -673h-27z" />
    <glyph glyph-name="eight" unicode="8" horiz-adv-x="598" 
d="M299 -15c-151 0 -231 79 -231 201c0 107 72 165 149 181c-63 16 -125 66 -125 162c0 106 73 186 207 186s207 -80 207 -186c0 -96 -62 -146 -124 -162c75 -16 148 -74 148 -181c0 -122 -80 -201 -231 -201zM298 13c134 0 202 69 202 172c0 91 -61 167 -195 167
c-142 0 -207 -69 -207 -167c0 -103 68 -172 200 -172zM292 380c125 0 184 56 184 152c0 92 -64 155 -177 155c-112 0 -177 -63 -177 -155c0 -89 55 -152 170 -152z" />
    <glyph glyph-name="nine" unicode="9" horiz-adv-x="566" 
d="M217 0v12l197 315c-33 -32 -82 -51 -145 -51c-136 0 -211 87 -211 220c0 131 77 219 220 219c144 0 220 -88 220 -219c0 -72 -21 -120 -64 -190l-189 -306h-28zM278 687c-126 0 -190 -78 -190 -191s60 -192 187 -192c108 0 193 65 193 192c0 113 -65 191 -190 191z" />
    <glyph glyph-name="colon" unicode=":" horiz-adv-x="191" 
d="M80 0v126h31v-126h-31zM80 378v126h31v-126h-31z" />
    <glyph glyph-name="semicolon" unicode=";" horiz-adv-x="190" 
d="M53 -88h-25l78 214h32v-15zM89 378v126h31v-126h-31z" />
    <glyph glyph-name="less" unicode="&#x3c;" horiz-adv-x="472" 
d="M401 109l-349 192v26l349 191h19v-20l-337 -184l337 -184v-21h-19z" />
    <glyph glyph-name="equal" unicode="=" horiz-adv-x="509" 
d="M52 192v26h405v-26h-405zM52 409v26h405v-26h-405z" />
    <glyph glyph-name="greater" unicode="&#x3e;" horiz-adv-x="472" 
d="M52 109v21l336 184l-336 184v20h18l350 -191v-26l-350 -192h-18z" />
    <glyph glyph-name="question" unicode="?" horiz-adv-x="502" 
d="M233 220v99l68 45c61 41 123 83 123 170c0 79 -55 153 -172 153c-106 0 -185 -66 -185 -188h-29c0 140 93 216 214 216c136 0 202 -88 202 -181c0 -104 -85 -157 -134 -189l-57 -37v-88h-30zM232 0v123h32v-123h-32z" />
    <glyph glyph-name="at" unicode="@" horiz-adv-x="1007" 
d="M515 -151c-258 0 -437 179 -437 433c0 259 179 433 437 433c234 0 419 -153 419 -395c0 -158 -70 -261 -167 -261c-47 0 -96 27 -96 93v6c-42 -49 -108 -99 -191 -99c-110 0 -171 76 -171 181v82c0 106 61 182 171 182c83 0 145 -50 186 -97l7 85h22v-317
c0 -63 33 -88 73 -88c78 0 136 86 136 232c0 228 -172 368 -390 368c-240 0 -406 -161 -406 -405c0 -240 166 -405 406 -405h26v-28h-25zM484 87c75 0 137 48 181 97v190c-44 50 -104 102 -181 102c-95 0 -145 -67 -145 -155v-79c0 -88 50 -155 145 -155z" />
    <glyph glyph-name="A" unicode="A" horiz-adv-x="652" 
d="M28 0v12l281 688h33l282 -688v-12h-31l-85 208h-366l-85 -208h-29zM153 238h344l-172 421z" />
    <glyph glyph-name="B" unicode="B" horiz-adv-x="643" 
d="M98 0v700h291c108 0 170 -65 170 -176c0 -93 -48 -143 -104 -159c71 -14 130 -68 130 -179c0 -115 -65 -186 -173 -186h-314zM130 30h276c93 0 147 60 147 157c0 99 -54 158 -147 158h-276v-315zM130 375h260c87 0 137 57 137 148c0 92 -50 147 -142 147h-255v-295z" />
    <glyph glyph-name="C" unicode="C" horiz-adv-x="657" 
d="M339 -15c-161 0 -261 93 -261 252v226c0 159 100 252 261 252c133 0 250 -79 250 -230v-10h-32v10c0 132 -105 200 -218 200c-142 0 -229 -81 -229 -220v-230c0 -139 87 -220 229 -220c113 0 218 68 218 200v10h32v-10c0 -151 -117 -230 -250 -230z" />
    <glyph glyph-name="D" unicode="D" horiz-adv-x="669" 
d="M130 30h203c139 0 226 82 226 217v206c0 135 -87 217 -226 217h-203v-640zM98 0v700h235c157 0 258 -90 258 -247v-206c0 -157 -101 -247 -258 -247h-235z" />
    <glyph glyph-name="E" unicode="E" horiz-adv-x="573" 
d="M98 0v700h416v-30h-384v-302h336v-30h-336v-308h384v-30h-416z" />
    <glyph glyph-name="F" unicode="F" horiz-adv-x="563" 
d="M98 0v700h418v-30h-386v-303h338v-30h-338v-337h-32z" />
    <glyph glyph-name="G" unicode="G" horiz-adv-x="687" 
d="M342 -15c-162 0 -264 94 -264 252v226c0 159 103 252 267 252c134 0 254 -78 255 -229v-9h-33v9c0 131 -107 199 -222 199c-145 0 -235 -81 -235 -220v-228c0 -139 90 -222 234 -222c107 0 180 47 224 152v140h-197v30h229v-337h-24l-4 122c-42 -87 -115 -137 -230 -137z
" />
    <glyph glyph-name="H" unicode="H" horiz-adv-x="686" 
d="M98 0v700h32v-333h426v333h32v-700h-32v337h-426v-337h-32z" />
    <glyph glyph-name="I" unicode="I" horiz-adv-x="228" 
d="M98 0v700h32v-700h-32z" />
    <glyph glyph-name="J" unicode="J" horiz-adv-x="560" 
d="M250 -15c-133 0 -222 74 -222 214v26h32v-26c0 -117 74 -184 190 -184c114 0 190 67 190 185v500h32v-501c0 -139 -90 -214 -222 -214z" />
    <glyph glyph-name="K" unicode="K" horiz-adv-x="587" 
d="M98 0v700h32v-333h151l236 333h30v-12l-238 -334l250 -342v-12h-31l-246 337h-152v-337h-32z" />
    <glyph glyph-name="L" unicode="L" horiz-adv-x="553" 
d="M98 0v700h32v-670h395v-30h-427z" />
    <glyph glyph-name="M" unicode="M" horiz-adv-x="792" 
d="M98 0v700h31l267 -401l268 401h30v-700h-31v643l-256 -384h-22l-256 383v-642h-31z" />
    <glyph glyph-name="N" unicode="N" horiz-adv-x="686" 
d="M98 0v700h30l428 -641v641h32v-700h-29l-429 640v-640h-32z" />
    <glyph glyph-name="O" unicode="O" horiz-adv-x="672" 
d="M336 15c140 0 226 83 226 218v234c0 135 -86 218 -226 218s-226 -83 -226 -218v-234c0 -135 86 -218 226 -218zM336 -15c-157 0 -258 91 -258 249v232c0 158 101 249 258 249s258 -91 258 -249v-232c0 -158 -101 -249 -258 -249z" />
    <glyph glyph-name="P" unicode="P" horiz-adv-x="613" 
d="M98 0v700h277c116 0 185 -79 185 -203s-69 -203 -185 -203h-245v-294h-32zM130 324h240c98 0 158 65 158 173s-60 173 -158 173h-240v-346z" />
    <glyph glyph-name="Q" unicode="Q" horiz-adv-x="676" 
d="M568 -119l-96 135c-38 -20 -85 -31 -136 -31c-157 0 -258 91 -258 249v232c0 158 101 249 258 249s258 -91 258 -249v-232c0 -93 -35 -162 -94 -203l98 -138v-12h-30zM336 15c137 0 226 81 226 217v236c0 136 -86 217 -226 217s-226 -81 -226 -217v-236
c0 -136 86 -217 226 -217z" />
    <glyph glyph-name="R" unicode="R" horiz-adv-x="636" 
d="M98 0v700h283c120 0 189 -78 189 -203c0 -114 -59 -183 -155 -198l171 -287v-12h-30l-176 294h-250v-294h-32zM130 324h242c102 0 165 63 165 173c0 108 -59 173 -160 173h-247v-346z" />
    <glyph glyph-name="S" unicode="S" horiz-adv-x="617" 
d="M319 -15c-133 0 -266 70 -266 242h32c0 -154 124 -212 235 -212c131 0 196 66 196 150c0 77 -51 117 -157 157l-105 39c-125 47 -176 84 -176 179c0 102 82 175 224 175c135 0 244 -69 244 -236h-32c0 151 -103 206 -212 206c-120 0 -192 -61 -192 -143
c0 -77 41 -110 140 -146l102 -38c118 -44 197 -86 197 -192c0 -101 -74 -181 -230 -181z" />
    <glyph glyph-name="T" unicode="T" horiz-adv-x="545" 
d="M257 0v670h-229v30h489v-30h-228v-670h-32z" />
    <glyph glyph-name="U" unicode="U" horiz-adv-x="666" 
d="M333 -15c-144 0 -245 88 -245 248v467h32v-467c0 -138 84 -218 213 -218s213 79 213 218v467h32v-467c0 -159 -102 -248 -245 -248z" />
    <glyph glyph-name="V" unicode="V" horiz-adv-x="652" 
d="M309 0l-281 688v12h30l268 -659l268 659h30v-12l-281 -688h-34z" />
    <glyph glyph-name="W" unicode="W" horiz-adv-x="792" 
d="M183 0l-135 688v12h31l126 -650l181 422h21l182 -422l125 650h30v-12l-135 -688h-32l-181 424l-181 -424h-32z" />
    <glyph glyph-name="X" unicode="X" horiz-adv-x="598" 
d="M38 0v12l241 342l-238 334v12h32l226 -321l228 321h29v-12l-237 -335l241 -341v-12h-32l-230 329l-230 -329h-30z" />
    <glyph glyph-name="Y" unicode="Y" horiz-adv-x="600" 
d="M284 0v278l-266 410v12h31l251 -391l252 391h29v-12l-265 -409v-279h-32z" />
    <glyph glyph-name="Z" unicode="Z" horiz-adv-x="563" 
d="M48 0v29l421 641h-408v30h445v-29l-421 -641h431v-30h-468z" />
    <glyph glyph-name="bracketleft" unicode="[" horiz-adv-x="303" 
d="M98 -160v906h197v-28h-167v-850h167v-28h-197z" />
    <glyph glyph-name="backslash" unicode="\" horiz-adv-x="451" 
d="M403 -88v-12h-27l-328 834v12h27z" />
    <glyph glyph-name="bracketright" unicode="]" horiz-adv-x="303" 
d="M8 -160v28h167v844h-167v28h197v-900h-197z" />
    <glyph glyph-name="asciicircum" unicode="^" horiz-adv-x="476" 
d="M52 387v12l172 306h28l172 -306v-12h-26l-160 287l-160 -287h-26z" />
    <glyph glyph-name="underscore" unicode="_" horiz-adv-x="512" 
d="M-1 -97v26h514v-26h-514z" />
    <glyph glyph-name="grave" unicode="`" horiz-adv-x="281" 
d="M182 590l-117 128v12h33l118 -140h-34z" />
    <glyph glyph-name="a" unicode="a" horiz-adv-x="530" 
d="M216 -12c-87 0 -163 44 -163 143c0 101 74 155 210 155h154v70c0 75 -49 132 -154 132c-98 0 -152 -55 -152 -130h-30c0 90 61 158 182 158c124 0 184 -68 184 -158v-358h-22l-8 77c-32 -33 -110 -89 -201 -89zM221 16c87 0 161 59 196 92v151h-154
c-118 0 -180 -43 -180 -126c0 -84 66 -117 138 -117z" />
    <glyph glyph-name="b" unicode="b" horiz-adv-x="560" 
d="M88 0v705h30v-285c40 47 109 96 192 96c114 0 177 -77 177 -187v-154c0 -110 -63 -187 -176 -187c-84 0 -153 49 -194 97l-7 -85h-22zM308 488c-79 0 -144 -52 -190 -102v-268c46 -50 111 -102 190 -102c97 0 149 69 149 161v150c0 92 -52 161 -149 161z" />
    <glyph glyph-name="c" unicode="c" horiz-adv-x="522" 
d="M264 -12c-130 0 -199 80 -199 187v154c0 107 69 187 199 187c124 0 197 -72 197 -172v-4h-30v5c0 82 -61 143 -167 143c-109 0 -169 -67 -169 -159v-154c0 -93 60 -159 169 -159c107 0 167 63 167 146v5h30v-5c0 -101 -73 -174 -197 -174z" />
    <glyph glyph-name="d" unicode="d" horiz-adv-x="560" 
d="M472 705v-705h-22l-7 85c-41 -48 -110 -97 -194 -97c-113 0 -176 77 -176 187v154c0 110 63 187 177 187c83 0 152 -49 192 -96v285h30zM252 488c-97 0 -149 -69 -149 -161v-150c0 -92 52 -161 149 -161c79 0 144 52 190 102v268c-46 50 -111 102 -190 102z" />
    <glyph glyph-name="e" unicode="e" horiz-adv-x="527" 
d="M265 -12c-131 0 -200 79 -200 187v154c0 107 69 187 200 187c130 0 198 -79 198 -187v-85h-368v-69c0 -92 60 -159 170 -159c103 0 154 56 163 132h30c-8 -94 -73 -160 -193 -160zM95 271h338v58c0 90 -55 159 -169 159c-109 0 -169 -67 -169 -159v-58z" />
    <glyph glyph-name="f" unicode="f" horiz-adv-x="316" 
d="M114 0v477h-91v27h91v54c0 93 47 149 141 149c16 0 29 -2 33 -2v-28c-1 0 -15 2 -30 2c-71 0 -114 -35 -114 -121v-54h143v-27h-143v-477h-30z" />
    <glyph glyph-name="g" unicode="g" horiz-adv-x="560" 
d="M279 -172c-114 0 -191 60 -195 161h30c4 -79 67 -133 165 -133c101 0 163 56 163 167v108c-40 -47 -108 -96 -192 -96c-114 0 -177 76 -177 187v107c0 110 63 187 176 187c84 0 153 -49 194 -97l7 85h22v-480c0 -133 -76 -196 -193 -196zM253 63c78 0 143 52 189 102v221
c-46 50 -111 102 -190 102c-97 0 -149 -69 -149 -161v-103c0 -92 52 -161 150 -161z" />
    <glyph glyph-name="h" unicode="h" horiz-adv-x="566" 
d="M88 0v705h30v-285c42 50 112 96 193 96c96 0 172 -62 172 -187v-329h-30v324c0 113 -65 164 -146 164c-74 0 -142 -47 -189 -103v-385h-30z" />
    <glyph glyph-name="i" unicode="i" horiz-adv-x="206" 
d="M88 0v504h30v-504h-30zM88 595v110h30v-110h-30z" />
    <glyph glyph-name="j" unicode="j" horiz-adv-x="206" 
d="M88 504h30v-536c0 -82 -35 -140 -125 -140c-13 0 -25 2 -29 2v27c6 0 16 -1 27 -1c88 0 97 59 97 158v490zM88 595v110h30v-110h-30z" />
    <glyph glyph-name="k" unicode="k" horiz-adv-x="501" 
d="M88 0v705h30v-434h119l180 233h26v-14l-178 -231l188 -244v-15h-27l-188 244h-120v-244h-30z" />
    <glyph glyph-name="l" unicode="l" horiz-adv-x="206" 
d="M88 0v705h30v-705h-30z" />
    <glyph glyph-name="m" unicode="m" horiz-adv-x="886" 
d="M88 0v504h22l7 -85c41 50 106 97 182 97c69 0 127 -35 149 -108c44 56 113 108 194 108c97 0 161 -61 161 -184v-332h-30v326c0 112 -58 162 -136 162c-70 0 -132 -47 -181 -108c3 -18 5 -37 5 -58v-322h-30v326c0 112 -61 162 -137 162c-69 0 -132 -48 -176 -103v-385
h-30z" />
    <glyph glyph-name="n" unicode="n" horiz-adv-x="566" 
d="M88 0v504h22l7 -85c43 50 110 97 194 97c97 0 172 -62 172 -187v-329h-30v324c0 113 -65 164 -146 164c-75 0 -142 -47 -189 -103v-385h-30z" />
    <glyph glyph-name="o" unicode="o" horiz-adv-x="529" 
d="M265 16c115 0 169 70 169 160v152c0 90 -54 160 -169 160c-110 0 -170 -68 -170 -160v-152c0 -92 60 -160 170 -160zM265 -12c-133 0 -200 81 -200 187v154c0 105 67 187 200 187c134 0 199 -82 199 -187v-154c0 -106 -65 -187 -199 -187z" />
    <glyph glyph-name="p" unicode="p" horiz-adv-x="560" 
d="M88 -160v664h22l7 -85c41 48 110 97 194 97c113 0 176 -77 176 -187v-154c0 -110 -63 -187 -177 -187c-83 0 -152 49 -192 96v-244h-30zM308 16c97 0 149 69 149 161v150c0 92 -52 161 -149 161c-79 0 -144 -52 -190 -102v-268c46 -50 111 -102 190 -102z" />
    <glyph glyph-name="q" unicode="q" horiz-adv-x="560" 
d="M472 504v-664h-30v244c-40 -47 -109 -96 -192 -96c-114 0 -177 77 -177 187v154c0 110 63 187 176 187c84 0 153 -49 194 -97l7 85h22zM252 16c79 0 144 52 190 102v268c-46 50 -111 102 -190 102c-97 0 -149 -69 -149 -161v-150c0 -92 52 -161 149 -161z" />
    <glyph glyph-name="r" unicode="r" horiz-adv-x="364" 
d="M88 0v504h21l8 -85c45 50 119 96 203 96h6v-30h-6c-81 0 -151 -40 -202 -99v-386h-30z" />
    <glyph glyph-name="s" unicode="s" horiz-adv-x="528" 
d="M270 -12c-109 0 -212 51 -212 178h30c0 -110 96 -150 184 -150c102 0 158 48 158 112c0 58 -37 81 -119 102l-108 29c-86 22 -125 53 -125 125c0 74 68 132 185 132c110 0 193 -54 193 -173h-30c0 101 -71 145 -165 145c-99 0 -153 -45 -153 -103c0 -53 27 -80 104 -99
l108 -28c92 -24 140 -52 140 -129c0 -81 -66 -141 -190 -141z" />
    <glyph glyph-name="t" unicode="t" horiz-adv-x="347" 
d="M255 0c-103 0 -136 70 -136 135v342h-91v27h91v105h30v-105h145v-27h-145v-341c0 -70 39 -107 106 -107h39v-29h-39z" />
    <glyph glyph-name="u" unicode="u" horiz-adv-x="566" 
d="M255 -12c-97 0 -172 62 -172 187v329h30v-324c0 -113 64 -164 146 -164c75 0 142 47 189 103v385h30v-504h-22l-7 85c-42 -50 -112 -97 -194 -97z" />
    <glyph glyph-name="v" unicode="v" horiz-adv-x="495" 
d="M232 0l-204 490v14h28l192 -465l191 465h28v-14l-204 -490h-31z" />
    <glyph glyph-name="w" unicode="w" horiz-adv-x="694" 
d="M181 0l-128 490v14h28l119 -465l134 362h27l133 -362l120 465h27v-14l-127 -490h-33l-134 359l-134 -359h-32z" />
    <glyph glyph-name="x" unicode="x" horiz-adv-x="506" 
d="M48 0v15l186 237l-185 238v14h28l176 -228l176 228h26v-14l-184 -237l187 -238v-15h-27l-179 231l-178 -231h-26z" />
    <glyph glyph-name="y" unicode="y" horiz-adv-x="494" 
d="M169 -160v12l63 148l-204 490v14h28l192 -466l190 466h28v-14l-270 -650h-27z" />
    <glyph glyph-name="z" unicode="z" horiz-adv-x="506" 
d="M58 0v27l345 450h-329v27h365v-27l-345 -450h348v-27h-384z" />
    <glyph glyph-name="braceleft" unicode="{" horiz-adv-x="308" 
d="M300 -160c-103 0 -170 55 -170 160v206c0 55 -21 79 -64 79h-28v28h28c46 0 64 28 64 79v194c0 105 67 160 170 160v-28c-85 0 -140 -47 -140 -132v-200c0 -50 -18 -78 -51 -87c33 -9 51 -37 51 -87v-212c0 -85 55 -132 140 -132v-28z" />
    <glyph glyph-name="bar" unicode="|" horiz-adv-x="226" 
d="M98 -100v846h30v-846h-30z" />
    <glyph glyph-name="braceright" unicode="}" horiz-adv-x="308" 
d="M8 -160v28c85 0 140 47 140 132v212c0 50 18 78 51 87c-33 9 -51 37 -51 87v200c0 85 -55 132 -140 132v28c103 0 170 -55 170 -160v-194c0 -51 18 -79 64 -79h28v-28h-28c-43 0 -64 -24 -64 -79v-206c0 -105 -67 -160 -170 -160z" />
    <glyph glyph-name="asciitilde" unicode="~" horiz-adv-x="459" 
d="M69 268l-20 14c40 61 69 84 105 84c24 0 46 -12 70 -29l27 -19c23 -16 34 -24 54 -24c26 0 48 16 84 70l21 -14c-39 -62 -69 -84 -105 -84c-25 0 -46 11 -69 28l-28 20c-24 17 -35 24 -54 24c-28 0 -48 -17 -85 -70z" />
    <glyph glyph-name="nbspace" unicode="&#xa0;" horiz-adv-x="265" 
 />
    <glyph glyph-name="exclamdown" unicode="&#xa1;" horiz-adv-x="205" 
d="M88 -160v445h30v-445h-30zM87 381v123h31v-123h-31z" />
    <glyph glyph-name="cent" unicode="&#xa2;" horiz-adv-x="522" 
d="M249 0v80c-120 6 -184 84 -184 187v154c0 103 64 180 184 186v93h27v-92c116 -5 185 -76 185 -172v-4h-30v5c0 79 -57 138 -155 142v-471c99 5 155 66 155 146v5h30v-5c0 -98 -69 -170 -185 -174v-80h-27zM95 267c0 -89 54 -153 154 -159v471c-100 -6 -154 -71 -154 -158
v-154z" />
    <glyph glyph-name="sterling" unicode="&#xa3;" horiz-adv-x="573" 
d="M48 0v28h80v314h-80v28h80v158c0 107 69 187 199 187c124 0 198 -72 198 -174v-38h-30v38c0 84 -61 146 -168 146c-109 0 -169 -66 -169 -159v-158h204v-28h-204v-314h367v-28h-477z" />
    <glyph glyph-name="yen" unicode="&#xa5;" horiz-adv-x="594" 
d="M282 0v123h-210v28h210v127h-210v28h192l-246 382v12h31l248 -390l250 390h29v-12l-247 -382h193v-28h-210v-127h210v-28h-210v-123h-30z" />
    <glyph glyph-name="brokenbar" unicode="&#xa6;" horiz-adv-x="226" 
d="M98 -100v337h30v-337h-30zM98 429v317h30v-317h-30z" />
    <glyph glyph-name="section" unicode="&#xa7;" horiz-adv-x="555" 
d="M290 -172c-128 0 -232 64 -232 200h29c0 -120 93 -172 205 -172c101 0 167 52 167 132c0 51 -42 80 -104 104l-95 36c-117 44 -187 78 -187 168c0 54 28 111 62 151c-32 20 -57 52 -57 105c0 85 72 155 199 155c116 0 213 -60 213 -195h-29c0 118 -89 167 -185 167
c-97 0 -167 -50 -167 -127c0 -65 47 -87 95 -106l105 -41c116 -46 186 -79 186 -162c0 -55 -41 -112 -74 -150c38 -23 69 -51 69 -108c0 -86 -72 -157 -200 -157zM397 106c39 42 68 92 68 134c0 72 -75 103 -152 133l-155 61c-36 -45 -55 -96 -55 -136
c0 -76 70 -104 143 -133z" />
    <glyph glyph-name="dieresis" unicode="&#xa8;" horiz-adv-x="292" 
d="M44 595v110h30v-110h-30zM218 595v110h30v-110h-30z" />
    <glyph glyph-name="copyright" unicode="&#xa9;" horiz-adv-x="876" 
d="M435 140c-113 0 -171 69 -171 163v95c0 94 58 163 171 163c105 0 169 -60 169 -149v-5h-25v5c0 73 -55 125 -144 125c-94 0 -146 -57 -146 -138v-97c0 -81 52 -138 146 -138c89 0 144 52 144 126v4h25v-4c0 -89 -64 -150 -169 -150zM438 -15c-203 0 -360 159 -360 365
s157 365 360 365s360 -159 360 -365s-157 -365 -360 -365zM438 8c189 0 336 149 336 342s-147 342 -336 342c-190 0 -336 -149 -336 -342s146 -342 336 -342z" />
    <glyph glyph-name="ordfeminine" unicode="&#xaa;" horiz-adv-x="429" 
d="M175 353c-64 0 -117 28 -117 96s55 104 157 104h106v42c0 46 -34 82 -106 82c-68 0 -105 -33 -105 -81h-31c0 62 45 109 135 109c93 0 137 -46 137 -107v-240h-20l-8 52c-26 -21 -82 -57 -148 -57zM183 381c60 0 113 38 138 57v89h-106c-80 0 -125 -28 -125 -78
c0 -52 43 -68 93 -68z" />
    <glyph glyph-name="guillemotleft" unicode="&#xab;" horiz-adv-x="515" 
d="M222 62l-182 204l183 205h27v-13l-172 -192l172 -191v-13h-28zM421 62l-182 204l183 205h27v-13l-172 -192l172 -191v-13h-28z" />
    <glyph glyph-name="logicalnot" unicode="&#xac;" horiz-adv-x="510" 
d="M430 206v203h-378v26h406v-229h-28z" />
    <glyph glyph-name="uni00AD" unicode="&#xad;" horiz-adv-x="432" 
d="M68 298v30h297v-30h-297z" />
    <glyph glyph-name="registered" unicode="&#xae;" horiz-adv-x="398" 
d="M131 456v176h84c36 0 57 -20 57 -53c0 -30 -18 -50 -46 -53l46 -62v-8h-15l-52 69h-57v-69h-17zM148 540h65c26 0 43 15 43 38s-17 38 -43 38h-65v-76zM199 371c-93 0 -167 74 -167 172s74 172 167 172s167 -74 167 -172s-74 -172 -167 -172zM199 386
c84 0 151 68 151 157s-67 157 -151 157s-151 -68 -151 -157s67 -157 151 -157z" />
    <glyph glyph-name="macron" unicode="&#xaf;" horiz-adv-x="448" 
d="M100 637v26h248v-26h-248z" />
    <glyph glyph-name="degree" unicode="&#xb0;" horiz-adv-x="381" 
d="M190 399c78 0 116 50 116 110v70c0 62 -38 111 -116 111c-74 0 -115 -47 -115 -111v-70c0 -63 41 -110 115 -110zM190 374c-93 0 -142 57 -142 138v65c0 81 49 138 142 138c95 0 143 -57 143 -138v-65c0 -81 -48 -138 -143 -138z" />
    <glyph glyph-name="plusminus" unicode="&#xb1;" horiz-adv-x="510" 
d="M242 134v188h-190v26h190v187h26v-187h190v-26h-190v-188h-26zM52 30v26h406v-26h-406z" />
    <glyph glyph-name="twosuperior" unicode="&#xb2;" horiz-adv-x="311" 
d="M42 358v25l108 85c44 34 86 66 86 123c0 53 -35 86 -83 86c-49 0 -89 -34 -89 -98h-26c0 83 52 126 116 126s110 -43 110 -111c0 -71 -50 -109 -96 -145l-81 -64h184v-27h-229z" />
    <glyph glyph-name="threesuperior" unicode="&#xb3;" horiz-adv-x="325" 
d="M163 353c-73 0 -123 41 -125 102h28c2 -45 40 -74 97 -74c59 0 90 28 90 72c0 37 -29 69 -79 69h-41v27h41c46 0 68 29 68 62c0 36 -30 66 -85 66c-51 0 -87 -29 -87 -79h-26c0 67 46 107 114 107c71 0 112 -41 112 -91c0 -41 -22 -66 -55 -77c35 -9 66 -36 66 -83
c0 -62 -43 -101 -118 -101z" />
    <glyph glyph-name="acute" unicode="&#xb4;" horiz-adv-x="281" 
d="M65 590l118 140h33v-12l-117 -128h-34z" />
    <glyph glyph-name="mu" unicode="&#xb5;" horiz-adv-x="571" 
d="M88 -160v664h30v-329c0 -107 64 -159 147 -159c74 0 142 48 188 103v385h30v-504h-22l-7 85c-43 -50 -111 -97 -192 -97c-66 0 -123 33 -144 95v-243h-30z" />
    <glyph glyph-name="paragraph" unicode="&#xb6;" horiz-adv-x="560" 
d="M223 -87v455c-108 0 -175 58 -175 162v8c0 106 67 162 175 162h239v-787h-30v759h-179v-759h-30z" />
    <glyph glyph-name="periodcentered" unicode="&#xb7;" horiz-adv-x="191" 
d="M80 258v126h31v-126h-31z" />
    <glyph glyph-name="cedilla" unicode="&#xb8;" horiz-adv-x="282" 
d="M73 -160v12l114 148h32l-116 -160h-30z" />
    <glyph glyph-name="onesuperior" unicode="&#xb9;" horiz-adv-x="214" 
d="M100 358v313h-69v15l31 14h66v-342h-28z" />
    <glyph glyph-name="ordmasculine" unicode="&#xba;" horiz-adv-x="400" 
d="M199 381c83 0 123 53 123 117v61c0 67 -40 118 -123 118c-78 0 -121 -49 -121 -118v-61c0 -67 43 -117 121 -117zM199 353c-99 0 -151 61 -151 147v58c0 86 52 147 151 147c101 0 153 -61 153 -147v-58c0 -86 -52 -147 -153 -147z" />
    <glyph glyph-name="guillemotright" unicode="&#xbb;" horiz-adv-x="515" 
d="M276 266l-182 -204h-28v13l172 191l-172 192v13h27zM475 266l-182 -204h-28v13l172 191l-172 192v13h27z" />
    <glyph glyph-name="onequarter" unicode="&#xbc;" horiz-adv-x="638" 
d="M68 0v12l389 688h26v-12l-389 -688h-26zM100 358v313h-69v15l31 14h66v-342h-28zM457 342h22v-14l-121 -219h163v90h27v-90h65v-26h-65v-83h-27v83h-198v20z" />
    <glyph glyph-name="onehalf" unicode="&#xbd;" horiz-adv-x="654" 
d="M68 0v12l389 688h26v-12l-389 -688h-26zM100 358v313h-69v15l31 14h66v-342h-28zM385 0v25l108 85c44 34 86 66 86 123c0 53 -35 86 -83 86c-49 0 -89 -34 -89 -98h-26c0 83 52 126 116 126s110 -43 110 -111c0 -71 -50 -109 -96 -145l-81 -64h184v-27h-229z" />
    <glyph glyph-name="threequarters" unicode="&#xbe;" horiz-adv-x="735" 
d="M165 0v12l389 688h26v-12l-389 -688h-26zM554 341h22v-14l-121 -219h163v90h27v-90h65v-26h-65v-83h-27v83h-198v20zM163 353c-73 0 -123 41 -125 102h28c2 -45 40 -74 97 -74c59 0 90 28 90 72c0 37 -29 69 -79 69h-41v27h41c46 0 68 29 68 62c0 36 -30 66 -85 66
c-51 0 -87 -29 -87 -79h-26c0 67 46 107 114 107c71 0 112 -41 112 -91c0 -41 -22 -66 -55 -77c35 -9 66 -36 66 -83c0 -62 -43 -101 -118 -101z" />
    <glyph glyph-name="questiondown" unicode="&#xbf;" horiz-adv-x="502" 
d="M247 -172c-135 0 -201 79 -201 171c0 105 84 152 134 182l57 34v70h30v-82l-68 -41c-62 -38 -123 -76 -123 -163c0 -76 55 -143 172 -143c106 0 184 65 184 187h30c0 -140 -93 -215 -215 -215zM235 381v123h32v-123h-32z" />
    <glyph glyph-name="Agrave" unicode="&#xc0;" horiz-adv-x="652" 
d="M28 0v12l281 688h33l282 -688v-12h-31l-85 208h-366l-85 -208h-29zM153 238h344l-172 421zM312 762l-125 138v13h35l127 -151h-37z" />
    <glyph glyph-name="Aacute" unicode="&#xc1;" horiz-adv-x="652" 
d="M28 0v12l281 688h33l282 -688v-12h-31l-85 208h-366l-85 -208h-29zM153 238h344l-172 421zM314 762l126 151h36v-13l-126 -138h-36z" />
    <glyph glyph-name="Acircumflex" unicode="&#xc2;" horiz-adv-x="652" 
d="M28 0v12l281 688h33l282 -688v-12h-31l-85 208h-366l-85 -208h-29zM153 238h344l-172 421zM185 762v13l124 138h33l125 -138v-13h-30l-112 126l-109 -126h-31z" />
    <glyph glyph-name="Atilde" unicode="&#xc3;" horiz-adv-x="652" 
d="M28 0v12l281 688h33l282 -688v-12h-31l-85 208h-366l-85 -208h-29zM153 238h344l-172 421zM179 783l-22 17c48 63 65 84 101 84c21 0 39 -12 62 -29l27 -20c23 -16 32 -25 49 -25c22 0 35 17 79 72l21 -17c-47 -64 -66 -84 -102 -84c-22 0 -38 11 -60 28l-28 21
c-24 17 -34 25 -48 25c-24 0 -35 -18 -79 -72z" />
    <glyph glyph-name="Adieresis" unicode="&#xc4;" horiz-adv-x="652" 
d="M28 0v12l281 688h33l282 -688v-12h-31l-85 208h-366l-85 -208h-29zM153 238h344l-172 421zM216 768v118h32v-118h-32zM403 768v118h32v-118h-32z" />
    <glyph glyph-name="Aring" unicode="&#xc5;" horiz-adv-x="652" 
d="M28 0v12l281 688h33l282 -688v-12h-31l-85 208h-366l-85 -208h-29zM153 238h344l-172 421zM222 847c0 54 45 100 103 100s104 -46 104 -100c0 -55 -46 -100 -104 -100s-103 45 -103 100zM250 847c0 -40 33 -73 75 -73s76 33 76 73c0 39 -34 73 -76 73s-75 -34 -75 -73z
" />
    <glyph glyph-name="AE" unicode="&#xc6;" horiz-adv-x="938" 
d="M18 0v12l432 688h429v-30h-384v-302h336v-30h-336v-308h384v-30h-416v208h-285l-131 -208h-29zM196 238h267v424z" />
    <glyph glyph-name="Ccedilla" unicode="&#xc7;" horiz-adv-x="657" 
d="M214 -160v12l104 134c-149 8 -240 99 -240 251v226c0 159 100 252 261 252c133 0 250 -79 250 -230v-10h-32v10c0 132 -105 200 -218 200c-142 0 -229 -81 -229 -220v-230c0 -139 87 -220 229 -220c113 0 218 68 218 200v10h32v-10c0 -148 -111 -225 -239 -230l-105 -145
h-31z" />
    <glyph glyph-name="Egrave" unicode="&#xc8;" horiz-adv-x="573" 
d="M98 0v700h416v-30h-384v-302h336v-30h-336v-308h384v-30h-416zM337 762l-125 138v13h35l127 -151h-37z" />
    <glyph glyph-name="Eacute" unicode="&#xc9;" horiz-adv-x="573" 
d="M98 0v700h416v-30h-384v-302h336v-30h-336v-308h384v-30h-416zM264 762l126 151h36v-13l-126 -138h-36z" />
    <glyph glyph-name="Ecircumflex" unicode="&#xca;" horiz-adv-x="573" 
d="M98 0v700h416v-30h-384v-302h336v-30h-336v-308h384v-30h-416zM169 762v13l124 138h33l125 -138v-13h-30l-112 126l-109 -126h-31z" />
    <glyph glyph-name="Edieresis" unicode="&#xcb;" horiz-adv-x="573" 
d="M98 0v700h416v-30h-384v-302h336v-30h-336v-308h384v-30h-416zM193 768v118h32v-118h-32zM380 768v118h32v-118h-32z" />
    <glyph glyph-name="Igrave" unicode="&#xcc;" horiz-adv-x="228" 
d="M98 0v700h32v-700h-32zM98 762l-125 138v13h35l127 -151h-37z" />
    <glyph glyph-name="Iacute" unicode="&#xcd;" horiz-adv-x="228" 
d="M98 0v700h32v-700h-32zM97 762l126 151h36v-13l-126 -138h-36z" />
    <glyph glyph-name="Icircumflex" unicode="&#xce;" horiz-adv-x="228" 
d="M98 0v700h32v-700h-32zM-27 762v13l124 138h33l125 -138v-13h-30l-112 126l-109 -126h-31z" />
    <glyph glyph-name="Idieresis" unicode="&#xcf;" horiz-adv-x="228" 
d="M98 0v700h32v-700h-32zM4 768v119h33v-119h-33zM192 768v119h32v-119h-32z" />
    <glyph glyph-name="Eth" unicode="&#xd0;" horiz-adv-x="690" 
d="M151 30h203c139 0 226 81 226 216v208c0 135 -87 216 -226 216h-203v-305h227v-28h-227v-307zM119 0v337h-99v28h99v335h235c156 0 258 -90 258 -247v-206c0 -157 -102 -247 -258 -247h-235z" />
    <glyph glyph-name="Ntilde" unicode="&#xd1;" horiz-adv-x="686" 
d="M98 0v700h30l428 -641v641h32v-700h-29l-429 640v-640h-32zM200 783l-22 17c48 63 65 84 101 84c21 0 39 -12 62 -29l27 -20c23 -16 32 -25 49 -25c22 0 35 17 79 72l21 -17c-47 -64 -66 -84 -102 -84c-22 0 -38 11 -60 28l-28 21c-24 17 -34 25 -48 25
c-24 0 -35 -18 -79 -72z" />
    <glyph glyph-name="Ograve" unicode="&#xd2;" horiz-adv-x="672" 
d="M336 15c140 0 226 83 226 218v234c0 135 -86 218 -226 218s-226 -83 -226 -218v-234c0 -135 86 -218 226 -218zM336 -15c-157 0 -258 91 -258 249v232c0 158 101 249 258 249s258 -91 258 -249v-232c0 -158 -101 -249 -258 -249zM348 762l-125 138v13h35l127 -151h-37z
" />
    <glyph glyph-name="Oacute" unicode="&#xd3;" horiz-adv-x="672" 
d="M336 15c140 0 226 83 226 218v234c0 135 -86 218 -226 218s-226 -83 -226 -218v-234c0 -135 86 -218 226 -218zM336 -15c-157 0 -258 91 -258 249v232c0 158 101 249 258 249s258 -91 258 -249v-232c0 -158 -101 -249 -258 -249zM318 762l126 151h36v-13l-126 -138h-36z
" />
    <glyph glyph-name="Ocircumflex" unicode="&#xd4;" horiz-adv-x="672" 
d="M336 15c140 0 226 83 226 218v234c0 135 -86 218 -226 218s-226 -83 -226 -218v-234c0 -135 86 -218 226 -218zM336 -15c-157 0 -258 91 -258 249v232c0 158 101 249 258 249s258 -91 258 -249v-232c0 -158 -101 -249 -258 -249zM202 762v13l124 138h33l125 -138v-13h-30
l-112 126l-109 -126h-31z" />
    <glyph glyph-name="Otilde" unicode="&#xd5;" horiz-adv-x="672" 
d="M336 15c140 0 226 83 226 218v234c0 135 -86 218 -226 218s-226 -83 -226 -218v-234c0 -135 86 -218 226 -218zM336 -15c-157 0 -258 91 -258 249v232c0 158 101 249 258 249s258 -91 258 -249v-232c0 -158 -101 -249 -258 -249zM193 783l-22 17c48 63 65 84 101 84
c21 0 39 -12 62 -29l27 -20c23 -16 32 -25 49 -25c22 0 35 17 79 72l21 -17c-47 -64 -66 -84 -102 -84c-22 0 -38 11 -60 28l-28 21c-24 17 -34 25 -48 25c-24 0 -35 -18 -79 -72z" />
    <glyph glyph-name="Odieresis" unicode="&#xd6;" horiz-adv-x="672" 
d="M336 15c140 0 226 83 226 218v234c0 135 -86 218 -226 218s-226 -83 -226 -218v-234c0 -135 86 -218 226 -218zM336 -15c-157 0 -258 91 -258 249v232c0 158 101 249 258 249s258 -91 258 -249v-232c0 -158 -101 -249 -258 -249zM228 768v118h32v-118h-32zM415 768v118
h32v-118h-32z" />
    <glyph glyph-name="multiply" unicode="&#xd7;" horiz-adv-x="449" 
d="M72 140l-20 19l153 154l-153 152l20 20l153 -153l153 153l19 -20l-153 -152l153 -154l-19 -19l-153 153z" />
    <glyph glyph-name="Oslash" unicode="&#xd8;" horiz-adv-x="672" 
d="M336 -15c-46 0 -87 8 -122 22l-43 -107h-27v12l44 108c-70 40 -110 114 -110 214v232c0 158 101 249 258 249c46 0 87 -8 122 -23l44 108h27v-12l-44 -109c69 -41 109 -114 109 -213v-232c0 -158 -101 -249 -258 -249zM110 233c0 -83 32 -146 90 -183l247 613
c-32 14 -69 22 -111 22c-140 0 -226 -83 -226 -218v-234zM336 15c140 0 227 83 227 218v234c0 82 -33 145 -90 182l-247 -613c31 -14 68 -21 110 -21z" />
    <glyph glyph-name="Ugrave" unicode="&#xd9;" horiz-adv-x="666" 
d="M333 -15c-144 0 -245 88 -245 248v467h32v-467c0 -138 84 -218 213 -218s213 79 213 218v467h32v-467c0 -159 -102 -248 -245 -248zM357 762l-125 138v13h35l127 -151h-37z" />
    <glyph glyph-name="Uacute" unicode="&#xda;" horiz-adv-x="666" 
d="M333 -15c-144 0 -245 88 -245 248v467h32v-467c0 -138 84 -218 213 -218s213 79 213 218v467h32v-467c0 -159 -102 -248 -245 -248zM303 762l126 151h36v-13l-126 -138h-36z" />
    <glyph glyph-name="Ucircumflex" unicode="&#xdb;" horiz-adv-x="666" 
d="M333 -15c-144 0 -245 88 -245 248v467h32v-467c0 -138 84 -218 213 -218s213 79 213 218v467h32v-467c0 -159 -102 -248 -245 -248zM192 762v13l124 138h33l125 -138v-13h-30l-112 126l-109 -126h-31z" />
    <glyph glyph-name="Udieresis" unicode="&#xdc;" horiz-adv-x="666" 
d="M333 -15c-144 0 -245 88 -245 248v467h32v-467c0 -138 84 -218 213 -218s213 79 213 218v467h32v-467c0 -159 -102 -248 -245 -248zM224 768v118h32v-118h-32zM411 768v118h32v-118h-32z" />
    <glyph glyph-name="Yacute" unicode="&#xdd;" horiz-adv-x="600" 
d="M284 0v278l-266 410v12h31l251 -391l252 391h29v-12l-265 -409v-279h-32zM273 762l126 151h36v-13l-126 -138h-36z" />
    <glyph glyph-name="Thorn" unicode="&#xde;" horiz-adv-x="613" 
d="M98 0v700h32v-145h245c116 0 185 -79 185 -203s-69 -203 -185 -203h-245v-149h-32zM130 179h240c98 0 158 66 158 173c0 108 -60 173 -158 173h-240v-346z" />
    <glyph glyph-name="germandbls" unicode="&#xdf;" horiz-adv-x="578" 
d="M88 0v469c0 152 77 238 208 238c124 0 192 -79 192 -173c0 -83 -46 -133 -114 -149c75 -15 146 -80 146 -183c0 -134 -80 -202 -216 -202c-35 0 -70 6 -73 7v28s37 -7 71 -7c122 0 188 60 188 175c0 99 -70 168 -184 168h-63v27h61c104 0 152 54 152 135
c0 78 -55 146 -160 146c-113 0 -178 -74 -178 -207v-472h-30z" />
    <glyph glyph-name="agrave" unicode="&#xe0;" horiz-adv-x="530" 
d="M216 -12c-87 0 -163 44 -163 143c0 101 74 155 210 155h154v70c0 75 -49 132 -154 132c-98 0 -152 -55 -152 -130h-30c0 90 61 158 182 158c124 0 184 -68 184 -158v-358h-22l-8 77c-32 -33 -110 -89 -201 -89zM221 16c87 0 161 59 196 92v151h-154
c-118 0 -180 -43 -180 -126c0 -84 66 -117 138 -117zM304 590l-117 128v12h33l118 -140h-34z" />
    <glyph glyph-name="aacute" unicode="&#xe1;" horiz-adv-x="529" 
d="M216 -12c-87 0 -163 44 -163 143c0 101 74 155 210 155h154v70c0 75 -49 132 -154 132c-98 0 -152 -55 -152 -130h-30c0 90 61 158 182 158c124 0 184 -68 184 -158v-358h-22l-8 77c-32 -33 -110 -89 -201 -89zM221 16c87 0 161 59 196 92v151h-154
c-118 0 -180 -43 -180 -126c0 -84 66 -117 138 -117zM241 590l118 140h33v-12l-117 -128h-34z" />
    <glyph glyph-name="acircumflex" unicode="&#xe2;" horiz-adv-x="530" 
d="M216 -12c-87 0 -163 44 -163 143c0 101 74 155 210 155h154v70c0 75 -49 132 -154 132c-98 0 -152 -55 -152 -130h-30c0 90 61 158 182 158c124 0 184 -68 184 -158v-358h-22l-8 77c-32 -33 -110 -89 -201 -89zM221 16c87 0 161 59 196 92v151h-154
c-118 0 -180 -43 -180 -126c0 -84 66 -117 138 -117zM146 590v12l116 128h31l116 -128v-12h-28l-104 117l-102 -117h-29z" />
    <glyph glyph-name="atilde" unicode="&#xe3;" horiz-adv-x="530" 
d="M216 -12c-87 0 -163 44 -163 143c0 101 74 155 210 155h154v70c0 75 -49 132 -154 132c-98 0 -152 -55 -152 -130h-30c0 90 61 158 182 158c124 0 184 -68 184 -158v-358h-22l-8 77c-32 -33 -110 -89 -201 -89zM221 16c87 0 161 59 196 92v151h-154
c-118 0 -180 -43 -180 -126c0 -84 66 -117 138 -117zM134 621l-21 17c47 61 63 82 98 82c21 0 38 -12 61 -29l26 -19c22 -16 31 -24 48 -24c21 0 34 16 76 70l21 -17c-46 -62 -64 -82 -99 -82c-22 0 -37 11 -59 28l-27 20c-23 17 -33 24 -47 24c-23 0 -34 -17 -77 -70z" />
    <glyph glyph-name="adieresis" unicode="&#xe4;" horiz-adv-x="530" 
d="M216 -12c-87 0 -163 44 -163 143c0 101 74 155 210 155h154v70c0 75 -49 132 -154 132c-98 0 -152 -55 -152 -130h-30c0 90 61 158 182 158c124 0 184 -68 184 -158v-358h-22l-8 77c-32 -33 -110 -89 -201 -89zM221 16c87 0 161 59 196 92v151h-154
c-118 0 -180 -43 -180 -126c0 -84 66 -117 138 -117zM162 595v110h30v-110h-30zM336 595v110h30v-110h-30z" />
    <glyph glyph-name="aring" unicode="&#xe5;" horiz-adv-x="530" 
d="M216 -12c-87 0 -163 44 -163 143c0 101 74 155 210 155h154v70c0 75 -49 132 -154 132c-98 0 -152 -55 -152 -130h-30c0 90 61 158 182 158c124 0 184 -68 184 -158v-358h-22l-8 77c-32 -33 -110 -89 -201 -89zM221 16c87 0 161 59 196 92v151h-154
c-118 0 -180 -43 -180 -126c0 -84 66 -117 138 -117zM172 668c0 51 42 93 96 93s97 -42 97 -93s-43 -93 -97 -93s-96 42 -96 93zM198 668c0 -37 31 -68 70 -68s71 31 71 68s-32 68 -71 68s-70 -31 -70 -68z" />
    <glyph glyph-name="ae" unicode="&#xe6;" horiz-adv-x="878" 
d="M216 -12c-88 0 -163 43 -163 139c0 99 74 152 210 152h154v78c0 75 -49 131 -154 131c-98 0 -152 -55 -152 -130h-30c0 90 61 158 182 158c99 0 155 -47 172 -111c24 65 85 111 181 111c131 0 198 -79 198 -187v-77h-367v-80c0 -94 62 -156 169 -156
c104 0 155 56 164 132h30c-9 -94 -73 -160 -194 -160c-112 0 -171 58 -190 123c-40 -65 -114 -123 -210 -123zM221 16c96 0 173 70 196 125v111h-154c-118 0 -180 -42 -180 -122c0 -81 66 -114 138 -114zM447 279h337v49c0 90 -55 160 -169 160c-108 0 -168 -67 -168 -159
v-50z" />
    <glyph glyph-name="ccedilla" unicode="&#xe7;" horiz-adv-x="522" 
d="M154 -160v12l104 136c-126 3 -193 81 -193 187v154c0 107 69 187 199 187c124 0 197 -72 197 -172v-4h-30v5c0 82 -61 143 -167 143c-109 0 -169 -67 -169 -159v-154c0 -93 60 -159 169 -159c107 0 167 63 167 146v5h30v-5c0 -94 -63 -163 -170 -173l-107 -149h-30z" />
    <glyph glyph-name="egrave" unicode="&#xe8;" horiz-adv-x="527" 
d="M265 -12c-131 0 -200 79 -200 187v154c0 107 69 187 200 187c130 0 198 -79 198 -187v-85h-368v-69c0 -92 60 -159 170 -159c103 0 154 56 163 132h30c-8 -94 -73 -160 -193 -160zM95 271h338v58c0 90 -55 159 -169 159c-109 0 -169 -67 -169 -159v-58zM274 590l-117 128
v12h33l118 -140h-34z" />
    <glyph glyph-name="eacute" unicode="&#xe9;" horiz-adv-x="527" 
d="M265 -12c-131 0 -200 79 -200 187v154c0 107 69 187 200 187c130 0 198 -79 198 -187v-85h-368v-69c0 -92 60 -159 170 -159c103 0 154 56 163 132h30c-8 -94 -73 -160 -193 -160zM95 271h338v58c0 90 -55 159 -169 159c-109 0 -169 -67 -169 -159v-58zM216 590l118 140
h33v-12l-117 -128h-34z" />
    <glyph glyph-name="ecircumflex" unicode="&#xea;" horiz-adv-x="527" 
d="M265 -12c-131 0 -200 79 -200 187v154c0 107 69 187 200 187c130 0 198 -79 198 -187v-85h-368v-69c0 -92 60 -159 170 -159c103 0 154 56 163 132h30c-8 -94 -73 -160 -193 -160zM95 271h338v58c0 90 -55 159 -169 159c-109 0 -169 -67 -169 -159v-58zM138 590v12
l116 128h31l116 -128v-12h-28l-104 117l-102 -117h-29z" />
    <glyph glyph-name="edieresis" unicode="&#xeb;" horiz-adv-x="527" 
d="M265 -12c-131 0 -200 79 -200 187v154c0 107 69 187 200 187c130 0 198 -79 198 -187v-85h-368v-69c0 -92 60 -159 170 -159c103 0 154 56 163 132h30c-8 -94 -73 -160 -193 -160zM95 271h338v58c0 90 -55 159 -169 159c-109 0 -169 -67 -169 -159v-58zM162 595v110h30
v-110h-30zM336 595v110h30v-110h-30z" />
    <glyph glyph-name="igrave" unicode="&#xec;" horiz-adv-x="206" 
d="M89 588l-117 128v12h33l118 -140h-34zM88 0v504h30v-504h-30z" />
    <glyph glyph-name="iacute" unicode="&#xed;" horiz-adv-x="206" 
d="M83 590l118 140h33v-12l-117 -128h-34zM88 0v504h30v-504h-30z" />
    <glyph glyph-name="icircumflex" unicode="&#xee;" horiz-adv-x="206" 
d="M88 0v504h30v-504h-30zM-28 590v12l116 128h31l116 -128v-12h-28l-104 117l-102 -117h-29z" />
    <glyph glyph-name="idieresis" unicode="&#xef;" horiz-adv-x="206" 
d="M1 595v110h30v-110h-30zM175 595v110h30v-110h-30zM88 0v504h30v-504h-30z" />
    <glyph glyph-name="eth" unicode="&#xf0;" horiz-adv-x="550" 
d="M271 -12c-132 0 -200 80 -200 187v90c0 110 63 187 177 187c83 0 148 -46 190 -91c-10 69 -53 125 -103 187h-187v27h165l-92 115v15h27l102 -130h118v-27h-97c56 -71 100 -133 100 -227v-146c0 -108 -70 -187 -200 -187zM271 16c109 0 170 68 170 160v146
c-48 50 -111 102 -187 102c-99 0 -153 -70 -153 -161v-87c0 -90 55 -160 170 -160z" />
    <glyph glyph-name="ntilde" unicode="&#xf1;" horiz-adv-x="566" 
d="M88 0v504h22l7 -85c43 50 110 97 194 97c97 0 172 -62 172 -187v-329h-30v324c0 113 -65 164 -146 164c-75 0 -142 -47 -189 -103v-385h-30zM145 621l-21 17c47 61 63 82 98 82c21 0 38 -12 61 -29l26 -19c22 -16 31 -24 48 -24c21 0 34 16 76 70l21 -17
c-46 -62 -64 -82 -99 -82c-22 0 -37 11 -59 28l-27 20c-23 17 -33 24 -47 24c-23 0 -34 -17 -77 -70z" />
    <glyph glyph-name="ograve" unicode="&#xf2;" horiz-adv-x="529" 
d="M265 16c115 0 169 70 169 160v152c0 90 -54 160 -169 160c-110 0 -170 -68 -170 -160v-152c0 -92 60 -160 170 -160zM265 -12c-133 0 -200 81 -200 187v154c0 105 67 187 200 187c134 0 199 -82 199 -187v-154c0 -106 -65 -187 -199 -187zM267 590l-117 128v12h33
l118 -140h-34z" />
    <glyph glyph-name="oacute" unicode="&#xf3;" horiz-adv-x="529" 
d="M265 16c115 0 169 70 169 160v152c0 90 -54 160 -169 160c-110 0 -170 -68 -170 -160v-152c0 -92 60 -160 170 -160zM265 -12c-133 0 -200 81 -200 187v154c0 105 67 187 200 187c134 0 199 -82 199 -187v-154c0 -106 -65 -187 -199 -187zM237 590l118 140h33v-12
l-117 -128h-34z" />
    <glyph glyph-name="ocircumflex" unicode="&#xf4;" horiz-adv-x="529" 
d="M265 16c115 0 169 70 169 160v152c0 90 -54 160 -169 160c-110 0 -170 -68 -170 -160v-152c0 -92 60 -160 170 -160zM265 -12c-133 0 -200 81 -200 187v154c0 105 67 187 200 187c134 0 199 -82 199 -187v-154c0 -106 -65 -187 -199 -187zM133 590v12l116 128h31
l116 -128v-12h-28l-104 117l-102 -117h-29z" />
    <glyph glyph-name="otilde" unicode="&#xf5;" horiz-adv-x="529" 
d="M265 16c115 0 169 70 169 160v152c0 90 -54 160 -169 160c-110 0 -170 -68 -170 -160v-152c0 -92 60 -160 170 -160zM265 -12c-133 0 -200 81 -200 187v154c0 105 67 187 200 187c134 0 199 -82 199 -187v-154c0 -106 -65 -187 -199 -187zM122 621l-21 17
c47 61 63 82 98 82c21 0 38 -12 61 -29l26 -19c22 -16 31 -24 48 -24c21 0 34 16 76 70l21 -17c-46 -62 -64 -82 -99 -82c-22 0 -37 11 -59 28l-27 20c-23 17 -33 24 -47 24c-23 0 -34 -17 -77 -70z" />
    <glyph glyph-name="odieresis" unicode="&#xf6;" horiz-adv-x="529" 
d="M265 16c115 0 169 70 169 160v152c0 90 -54 160 -169 160c-110 0 -170 -68 -170 -160v-152c0 -92 60 -160 170 -160zM265 -12c-133 0 -200 81 -200 187v154c0 105 67 187 200 187c134 0 199 -82 199 -187v-154c0 -106 -65 -187 -199 -187zM161 595v110h30v-110h-30z
M335 595v110h30v-110h-30z" />
    <glyph glyph-name="divide" unicode="&#xf7;" horiz-adv-x="510" 
d="M239 106v110h33v-110h-33zM52 300v26h406v-26h-406zM239 410v110h33v-110h-33z" />
    <glyph glyph-name="oslash" unicode="&#xf8;" horiz-adv-x="529" 
d="M265 -12c-43 0 -79 9 -108 24l-67 -138h-25v15l68 137c-45 34 -68 87 -68 149v154c0 105 67 187 200 187c39 0 72 -8 100 -20l74 150h25v-15l-74 -149c49 -34 74 -89 74 -153v-154c0 -106 -65 -187 -199 -187zM265 16c115 0 169 70 169 160v152c0 53 -19 99 -58 128
l-206 -418c25 -14 57 -22 95 -22zM95 176c0 -51 18 -94 53 -123l205 416c-24 12 -54 19 -88 19c-110 0 -170 -68 -170 -160v-152z" />
    <glyph glyph-name="ugrave" unicode="&#xf9;" horiz-adv-x="566" 
d="M255 -12c-97 0 -172 62 -172 187v329h30v-324c0 -113 64 -164 146 -164c75 0 142 47 189 103v385h30v-504h-22l-7 85c-42 -50 -112 -97 -194 -97zM295 590l-117 128v12h33l118 -140h-34z" />
    <glyph glyph-name="uacute" unicode="&#xfa;" horiz-adv-x="566" 
d="M255 -12c-97 0 -172 62 -172 187v329h30v-324c0 -113 64 -164 146 -164c75 0 142 47 189 103v385h30v-504h-22l-7 85c-42 -50 -112 -97 -194 -97zM240 590l118 140h33v-12l-117 -128h-34z" />
    <glyph glyph-name="ucircumflex" unicode="&#xfb;" horiz-adv-x="566" 
d="M255 -12c-97 0 -172 62 -172 187v329h30v-324c0 -113 64 -164 146 -164c75 0 142 47 189 103v385h30v-504h-22l-7 85c-42 -50 -112 -97 -194 -97zM151 590v12l116 128h31l116 -128v-12h-28l-104 117l-102 -117h-29z" />
    <glyph glyph-name="udieresis" unicode="&#xfc;" horiz-adv-x="566" 
d="M255 -12c-97 0 -172 62 -172 187v329h30v-324c0 -113 64 -164 146 -164c75 0 142 47 189 103v385h30v-504h-22l-7 85c-42 -50 -112 -97 -194 -97zM178 595v110h30v-110h-30zM352 595v110h30v-110h-30z" />
    <glyph glyph-name="yacute" unicode="&#xfd;" horiz-adv-x="494" 
d="M169 -160v12l63 148l-204 490v14h28l192 -466l190 466h28v-14l-270 -650h-27zM208 590l118 140h33v-12l-117 -128h-34z" />
    <glyph glyph-name="thorn" unicode="&#xfe;" horiz-adv-x="560" 
d="M88 -160v865h30v-285c41 48 109 96 193 96c113 0 176 -77 176 -187v-154c0 -110 -63 -187 -177 -187c-83 0 -152 49 -192 96v-244h-30zM308 16c97 0 149 69 149 161v150c0 92 -52 161 -149 161c-79 0 -144 -52 -190 -102v-268c46 -50 111 -102 190 -102z" />
    <glyph glyph-name="ydieresis" unicode="&#xff;" horiz-adv-x="494" 
d="M169 -160v12l63 148l-204 490v14h28l192 -466l190 466h28v-14l-270 -650h-27zM143 595v110h30v-110h-30zM317 595v110h30v-110h-30z" />
    <glyph glyph-name="Amacron" unicode="&#x100;" horiz-adv-x="652" 
d="M28 0v12l281 688h33l282 -688v-12h-31l-85 208h-366l-85 -208h-29zM153 238h344l-172 421zM193 814v27h266v-27h-266z" />
    <glyph glyph-name="amacron" unicode="&#x101;" horiz-adv-x="530" 
d="M216 -12c-87 0 -163 44 -163 143c0 101 74 155 210 155h154v70c0 75 -49 132 -154 132c-98 0 -152 -55 -152 -130h-30c0 90 61 158 182 158c124 0 184 -68 184 -158v-358h-22l-8 77c-32 -33 -110 -89 -201 -89zM221 16c87 0 161 59 196 92v151h-154
c-118 0 -180 -43 -180 -126c0 -84 66 -117 138 -117zM143 637v26h248v-26h-248z" />
    <glyph glyph-name="Aogonek" unicode="&#x104;" horiz-adv-x="652" 
d="M633 -160c-60 0 -96 28 -96 73c0 24 15 54 56 87l-85 208h-366l-85 -208h-29v12l281 688h33l282 -688v-12c-44 -32 -60 -59 -60 -82c0 -38 30 -53 77 -53h44v-25h-52zM153 238h344l-172 421z" />
    <glyph glyph-name="aogonek" unicode="&#x105;" horiz-adv-x="529" 
d="M455 -160c-60 0 -96 27 -96 72c0 28 18 58 66 91l-8 74c-32 -33 -110 -89 -201 -89c-87 0 -163 44 -163 143c0 101 74 155 210 155h154v70c0 75 -49 132 -154 132c-98 0 -152 -55 -152 -130h-30c0 90 61 158 182 158c124 0 184 -68 184 -158v-358
c-44 -32 -60 -57 -60 -83c0 -37 30 -52 77 -52h44v-25h-53zM221 16c87 0 161 59 196 92v151h-154c-118 0 -180 -43 -180 -126c0 -84 66 -117 138 -117z" />
    <glyph glyph-name="Cacute" unicode="&#x106;" horiz-adv-x="657" 
d="M339 -15c-161 0 -261 93 -261 252v226c0 159 100 252 261 252c133 0 250 -79 250 -230v-10h-32v10c0 132 -105 200 -218 200c-142 0 -229 -81 -229 -220v-230c0 -139 87 -220 229 -220c113 0 218 68 218 200v10h32v-10c0 -151 -117 -230 -250 -230zM312 762l126 151h36
v-13l-126 -138h-36z" />
    <glyph glyph-name="cacute" unicode="&#x107;" horiz-adv-x="522" 
d="M264 -12c-130 0 -199 80 -199 187v154c0 107 69 187 199 187c124 0 197 -72 197 -172v-4h-30v5c0 82 -61 143 -167 143c-109 0 -169 -67 -169 -159v-154c0 -93 60 -159 169 -159c107 0 167 63 167 146v5h30v-5c0 -101 -73 -174 -197 -174zM221 590l118 140h33v-12
l-117 -128h-34z" />
    <glyph glyph-name="Ccaron" unicode="&#x10c;" horiz-adv-x="657" 
d="M339 -15c-161 0 -261 93 -261 252v226c0 159 100 252 261 252c133 0 250 -79 250 -230v-10h-32v10c0 132 -105 200 -218 200c-142 0 -229 -81 -229 -220v-230c0 -139 87 -220 229 -220c113 0 218 68 218 200v10h32v-10c0 -151 -117 -230 -250 -230zM320 763l-124 137v13
h31l109 -125l112 125h30v-13l-125 -137h-33z" />
    <glyph glyph-name="ccaron" unicode="&#x10d;" horiz-adv-x="522" 
d="M264 -12c-130 0 -199 80 -199 187v154c0 107 69 187 199 187c124 0 197 -72 197 -172v-4h-30v5c0 82 -61 143 -167 143c-109 0 -169 -67 -169 -159v-154c0 -93 60 -159 169 -159c107 0 167 63 167 146v5h30v-5c0 -101 -73 -174 -197 -174zM251 590l-116 128v12h29
l102 -117l104 117h28v-12l-116 -128h-31z" />
    <glyph glyph-name="Dcaron" unicode="&#x10e;" horiz-adv-x="669" 
d="M130 30h203c139 0 226 82 226 217v206c0 135 -87 217 -226 217h-203v-640zM98 0v700h235c157 0 258 -90 258 -247v-206c0 -157 -101 -247 -258 -247h-235zM303 763l-124 137v13h31l109 -125l112 125h30v-13l-125 -137h-33z" />
    <glyph glyph-name="dcaron" unicode="&#x10f;" horiz-adv-x="647" 
d="M472 705v-705h-22l-7 85c-41 -48 -110 -97 -194 -97c-113 0 -176 77 -176 187v154c0 110 63 187 177 187c83 0 152 -49 192 -96v285h30zM252 488c-97 0 -149 -69 -149 -161v-150c0 -92 52 -161 149 -161c79 0 144 52 190 102v268c-46 50 -111 102 -190 102zM563 532
l70 173h32v-15l-76 -158h-26z" />
    <glyph glyph-name="Emacron" unicode="&#x112;" horiz-adv-x="573" 
d="M98 0v700h416v-30h-384v-302h336v-30h-336v-308h384v-30h-416zM174 814v27h266v-27h-266z" />
    <glyph glyph-name="emacron" unicode="&#x113;" horiz-adv-x="527" 
d="M265 -12c-131 0 -200 79 -200 187v154c0 107 69 187 200 187c130 0 198 -79 198 -187v-85h-368v-69c0 -92 60 -159 170 -159c103 0 154 56 163 132h30c-8 -94 -73 -160 -193 -160zM95 271h338v58c0 90 -55 159 -169 159c-109 0 -169 -67 -169 -159v-58zM141 637v26h248
v-26h-248z" />
    <glyph glyph-name="Edotaccent" unicode="&#x116;" horiz-adv-x="573" 
d="M98 0v700h416v-30h-384v-302h336v-30h-336v-308h384v-30h-416zM288 774v118h32v-118h-32z" />
    <glyph glyph-name="edotaccent" unicode="&#x117;" horiz-adv-x="527" 
d="M265 -12c-131 0 -200 79 -200 187v154c0 107 69 187 200 187c130 0 198 -79 198 -187v-85h-368v-69c0 -92 60 -159 170 -159c103 0 154 56 163 132h30c-8 -94 -73 -160 -193 -160zM95 271h338v58c0 90 -55 159 -169 159c-109 0 -169 -67 -169 -159v-58zM250 600v110h30
v-110h-30z" />
    <glyph glyph-name="Eogonek" unicode="&#x118;" horiz-adv-x="573" 
d="M523 -160c-60 0 -96 26 -96 73c0 24 15 54 56 87h-385v700h416v-30h-384v-302h336v-30h-336v-308h384v-30c-43 -32 -59 -60 -59 -82c0 -38 29 -53 77 -53h44v-25h-53z" />
    <glyph glyph-name="eogonek" unicode="&#x119;" horiz-adv-x="527" 
d="M357 -160c-60 0 -96 27 -96 73c0 23 11 49 46 79c-14 -2 -28 -4 -42 -4c-131 0 -200 79 -200 187v154c0 107 69 187 200 187c130 0 198 -79 198 -187v-85h-368v-69c0 -92 60 -159 170 -159c103 0 154 56 163 132h30c-8 -84 -50 -120 -100 -144c-43 -21 -69 -58 -69 -86
c0 -37 29 -53 77 -53h44v-25h-53zM95 271h338v58c0 90 -55 159 -169 159c-109 0 -169 -67 -169 -159v-58z" />
    <glyph glyph-name="Ecaron" unicode="&#x11a;" horiz-adv-x="573" 
d="M98 0v700h416v-30h-384v-302h336v-30h-336v-308h384v-30h-416zM294 763l-124 137v13h31l109 -125l112 125h30v-13l-125 -137h-33z" />
    <glyph glyph-name="ecaron" unicode="&#x11b;" horiz-adv-x="527" 
d="M265 -12c-131 0 -200 79 -200 187v154c0 107 69 187 200 187c130 0 198 -79 198 -187v-85h-368v-69c0 -92 60 -159 170 -159c103 0 154 56 163 132h30c-8 -94 -73 -160 -193 -160zM95 271h338v58c0 90 -55 159 -169 159c-109 0 -169 -67 -169 -159v-58zM247 590l-116 128
v12h29l102 -117l104 117h28v-12l-116 -128h-31z" />
    <glyph glyph-name="uni0122" unicode="&#x122;" horiz-adv-x="689" 
d="M342 -15c-162 0 -264 94 -264 252v226c0 159 103 252 267 252c134 0 254 -78 255 -229v-9h-33v9c0 131 -107 199 -222 199c-145 0 -235 -81 -235 -220v-228c0 -139 90 -222 234 -222c107 0 180 47 224 152v140h-197v30h229v-337h-24l-4 122c-42 -87 -115 -137 -230 -137z
M281 -240l70 173h32v-15l-76 -158h-26z" />
    <glyph glyph-name="uni0123" unicode="&#x123;" horiz-adv-x="560" 
d="M279 -172c-114 0 -191 60 -195 161h30c4 -79 67 -133 165 -133c101 0 163 56 163 167v108c-40 -47 -108 -96 -192 -96c-114 0 -177 76 -177 187v107c0 110 63 187 176 187c84 0 153 -49 194 -97l7 85h22v-480c0 -133 -76 -196 -193 -196zM253 63c78 0 143 52 189 102v221
c-46 50 -111 102 -190 102c-97 0 -149 -69 -149 -161v-103c0 -92 52 -161 150 -161zM358 759l-65 -173h-29v15l70 158h24z" />
    <glyph glyph-name="Imacron" unicode="&#x12a;" horiz-adv-x="228" 
d="M98 0v700h32v-700h-32zM-19 814v27h266v-27h-266z" />
    <glyph glyph-name="imacron" unicode="&#x12b;" horiz-adv-x="206" 
d="M-21 637v26h248v-26h-248zM88 0v504h30v-504h-30z" />
    <glyph glyph-name="Iogonek" unicode="&#x12e;" horiz-adv-x="228" 
d="M139 -160c-60 0 -96 28 -96 73c0 24 14 54 55 87v700h32v-700c-44 -32 -60 -59 -60 -82c0 -38 30 -53 77 -53h44v-25h-52z" />
    <glyph glyph-name="iogonek" unicode="&#x12f;" horiz-adv-x="206" 
d="M127 -160c-60 0 -96 27 -96 72c0 28 16 58 57 91v501h30v-504c-44 -32 -60 -57 -60 -83c0 -37 30 -52 77 -52h44v-25h-52zM88 595v110h30v-110h-30z" />
    <glyph glyph-name="dotlessi" unicode="&#x131;" horiz-adv-x="206" 
d="M88 0v504h30v-504h-30z" />
    <glyph glyph-name="uni0136" unicode="&#x136;" horiz-adv-x="587" 
d="M98 0v700h32v-333h151l236 333h30v-12l-238 -334l250 -342v-12h-31l-246 337h-152v-337h-32zM225 -240l70 173h32v-15l-76 -158h-26z" />
    <glyph glyph-name="uni0137" unicode="&#x137;" horiz-adv-x="501" 
d="M88 0v705h30v-434h119l180 233h26v-14l-178 -231l188 -244v-15h-27l-188 244h-120v-244h-30zM192 -240l65 173h29v-15l-70 -158h-24z" />
    <glyph glyph-name="Lacute" unicode="&#x139;" horiz-adv-x="554" 
d="M99 0v700h32v-670h395v-30h-427zM98 762l126 151h36v-13l-126 -138h-36z" />
    <glyph glyph-name="lacute" unicode="&#x13a;" horiz-adv-x="206" 
d="M88 0v705h30v-705h-30zM87 756l118 140h33v-12l-117 -128h-34z" />
    <glyph glyph-name="uni013B" unicode="&#x13b;" horiz-adv-x="553" 
d="M98 0v700h32v-670h395v-30h-427zM241 -240l70 173h32v-15l-76 -158h-26z" />
    <glyph glyph-name="uni013C" unicode="&#x13c;" horiz-adv-x="206" 
d="M88 0v705h30v-705h-30zM23 -240l65 173h29v-15l-70 -158h-24z" />
    <glyph glyph-name="Lcaron" unicode="&#x13d;" horiz-adv-x="559" 
d="M98 0v700h32v-670h395v-30h-427zM429 527l70 173h32v-15l-76 -158h-26z" />
    <glyph glyph-name="lcaron" unicode="&#x13e;" horiz-adv-x="292" 
d="M88 0v705h30v-705h-30zM208 532l70 173h32v-15l-76 -158h-26z" />
    <glyph glyph-name="Lslash" unicode="&#x141;" horiz-adv-x="597" 
d="M142 0v282l-95 -76h-15v26l110 88v380h32v-355l206 167h15v-26l-221 -180v-276h395v-30h-427z" />
    <glyph glyph-name="lslash" unicode="&#x142;" horiz-adv-x="372" 
d="M170 0v317l-152 -181h-18v22l170 202v345h30v-312l155 186h17v-21l-172 -207v-351h-30z" />
    <glyph glyph-name="Nacute" unicode="&#x143;" horiz-adv-x="686" 
d="M98 0v700h30l428 -641v641h32v-700h-29l-429 640v-640h-32zM302 762l126 151h36v-13l-126 -138h-36z" />
    <glyph glyph-name="nacute" unicode="&#x144;" horiz-adv-x="566" 
d="M88 0v504h22l7 -85c43 50 110 97 194 97c97 0 172 -62 172 -187v-329h-30v324c0 113 -65 164 -146 164c-75 0 -142 -47 -189 -103v-385h-30zM238 590l118 140h33v-12l-117 -128h-34z" />
    <glyph glyph-name="Ncommaaccent" unicode="&#x145;" horiz-adv-x="686" 
d="M98 0v700h30l428 -641v641h32v-700h-29l-429 640v-640h-32zM263 -240l70 173h32v-15l-76 -158h-26z" />
    <glyph glyph-name="ncommaaccent" unicode="&#x146;" horiz-adv-x="566" 
d="M88 0v504h22l7 -85c43 50 110 97 194 97c97 0 172 -62 172 -187v-329h-30v324c0 113 -65 164 -146 164c-75 0 -142 -47 -189 -103v-385h-30zM220 -240l65 173h29v-15l-70 -158h-24z" />
    <glyph glyph-name="Ncaron" unicode="&#x147;" horiz-adv-x="686" 
d="M98 0v700h30l428 -641v641h32v-700h-29l-429 640v-640h-32zM327 763l-124 137v13h31l109 -125l112 125h30v-13l-125 -137h-33z" />
    <glyph glyph-name="ncaron" unicode="&#x148;" horiz-adv-x="566" 
d="M88 0v504h22l7 -85c43 50 110 97 194 97c97 0 172 -62 172 -187v-329h-30v324c0 113 -65 164 -146 164c-75 0 -142 -47 -189 -103v-385h-30zM271 590l-116 128v12h29l102 -117l104 117h28v-12l-116 -128h-31z" />
    <glyph glyph-name="Omacron" unicode="&#x14c;" horiz-adv-x="672" 
d="M336 15c140 0 226 83 226 218v234c0 135 -86 218 -226 218s-226 -83 -226 -218v-234c0 -135 86 -218 226 -218zM336 -15c-157 0 -258 91 -258 249v232c0 158 101 249 258 249s258 -91 258 -249v-232c0 -158 -101 -249 -258 -249zM203 814v27h266v-27h-266z" />
    <glyph glyph-name="omacron" unicode="&#x14d;" horiz-adv-x="529" 
d="M265 16c115 0 169 70 169 160v152c0 90 -54 160 -169 160c-110 0 -170 -68 -170 -160v-152c0 -92 60 -160 170 -160zM265 -12c-133 0 -200 81 -200 187v154c0 105 67 187 200 187c134 0 199 -82 199 -187v-154c0 -106 -65 -187 -199 -187zM141 637v26h248v-26h-248z" />
    <glyph glyph-name="obreve" unicode="&#x14f;" horiz-adv-x="529" 
d="M265 16c115 0 169 70 169 160v152c0 90 -54 160 -169 160c-110 0 -170 -68 -170 -160v-152c0 -92 60 -160 170 -160zM265 -12c-133 0 -200 81 -200 187v154c0 105 67 187 200 187c134 0 199 -82 199 -187v-154c0 -106 -65 -187 -199 -187zM265 585
c-87 0 -148 50 -148 137v12h28v-11c0 -72 48 -113 120 -113s121 41 121 113v11h28v-12c0 -87 -62 -137 -149 -137z" />
    <glyph glyph-name="Ohungarumlaut" unicode="&#x150;" horiz-adv-x="672" 
d="M336 15c140 0 226 83 226 218v234c0 135 -86 218 -226 218s-226 -83 -226 -218v-234c0 -135 86 -218 226 -218zM336 -15c-157 0 -258 91 -258 249v232c0 158 101 249 258 249s258 -91 258 -249v-232c0 -158 -101 -249 -258 -249zM224 763l126 150h33v-13l-125 -137h-34z
M404 763l126 150h33v-13l-125 -137h-34z" />
    <glyph glyph-name="ohungarumlaut" unicode="&#x151;" horiz-adv-x="538" 
d="M265 16c115 0 169 70 169 160v152c0 90 -54 160 -169 160c-110 0 -170 -68 -170 -160v-152c0 -92 60 -160 170 -160zM265 -12c-133 0 -200 81 -200 187v154c0 105 67 187 200 187c134 0 199 -82 199 -187v-154c0 -106 -65 -187 -199 -187zM157 590l118 140h31v-12
l-117 -128h-32zM325 590l118 140h30v-12l-116 -128h-32z" />
    <glyph glyph-name="OE" unicode="&#x152;" horiz-adv-x="1038" 
d="M336 -15c-157 0 -258 91 -258 249v232c0 158 101 249 258 249c105 0 185 -46 227 -124v109h416v-30h-384v-302h336v-30h-336v-308h384v-30h-416v108c-42 -78 -122 -123 -227 -123zM336 15c140 0 227 83 227 218v234c0 135 -87 218 -227 218s-226 -83 -226 -218v-234
c0 -135 86 -218 226 -218z" />
    <glyph glyph-name="oe" unicode="&#x153;" horiz-adv-x="896" 
d="M265 -12c-133 0 -200 81 -200 187v154c0 105 67 187 200 187c102 0 163 -51 184 -122c22 71 83 122 185 122c131 0 198 -79 198 -187v-85h-368v-72c1 -91 63 -156 170 -156c103 0 154 56 163 132h30c-8 -94 -73 -160 -193 -160c-102 0 -164 49 -185 121
c-21 -71 -82 -121 -184 -121zM265 16c112 0 169 69 169 158v157c0 87 -57 157 -169 157c-110 0 -170 -68 -170 -160v-152c0 -92 60 -160 170 -160zM464 271h338v58c0 90 -55 159 -169 159c-109 0 -169 -67 -169 -159v-58z" />
    <glyph glyph-name="Racute" unicode="&#x154;" horiz-adv-x="636" 
d="M98 0v700h283c120 0 189 -78 189 -203c0 -114 -59 -183 -155 -198l171 -287v-12h-30l-176 294h-250v-294h-32zM130 324h242c102 0 165 63 165 173c0 108 -59 173 -160 173h-247v-346zM283 762l126 151h36v-13l-126 -138h-36z" />
    <glyph glyph-name="racute" unicode="&#x155;" horiz-adv-x="364" 
d="M88 0v504h21l8 -85c45 50 119 96 203 96h6v-30h-6c-81 0 -151 -40 -202 -99v-386h-30zM162 590l118 140h33v-12l-117 -128h-34z" />
    <glyph glyph-name="Rcommaaccent" unicode="&#x156;" horiz-adv-x="636" 
d="M98 0v700h283c120 0 189 -78 189 -203c0 -114 -59 -183 -155 -198l171 -287v-12h-30l-176 294h-250v-294h-32zM130 324h242c102 0 165 63 165 173c0 108 -59 173 -160 173h-247v-346zM251 -240l70 173h32v-15l-76 -158h-26z" />
    <glyph glyph-name="uni0157" unicode="&#x157;" horiz-adv-x="364" 
d="M88 0v504h21l8 -85c45 50 119 96 203 96h6v-30h-6c-81 0 -151 -40 -202 -99v-386h-30zM23 -240l65 173h29v-15l-70 -158h-24z" />
    <glyph glyph-name="Rcaron" unicode="&#x158;" horiz-adv-x="636" 
d="M98 0v700h283c120 0 189 -78 189 -203c0 -114 -59 -183 -155 -198l171 -287v-12h-30l-176 294h-250v-294h-32zM130 324h242c102 0 165 63 165 173c0 108 -59 173 -160 173h-247v-346zM291 763l-124 137v13h31l109 -125l112 125h30v-13l-125 -137h-33z" />
    <glyph glyph-name="rcaron" unicode="&#x159;" horiz-adv-x="364" 
d="M88 0v504h21l8 -85c45 50 119 96 203 96h6v-30h-6c-81 0 -151 -40 -202 -99v-386h-30zM187 590l-116 128v12h29l102 -117l104 117h28v-12l-116 -128h-31z" />
    <glyph glyph-name="Sacute" unicode="&#x15a;" horiz-adv-x="617" 
d="M319 -15c-133 0 -266 70 -266 242h32c0 -154 124 -212 235 -212c131 0 196 66 196 150c0 77 -51 117 -157 157l-105 39c-125 47 -176 84 -176 179c0 102 82 175 224 175c135 0 244 -69 244 -236h-32c0 151 -103 206 -212 206c-120 0 -192 -61 -192 -143
c0 -77 41 -110 140 -146l102 -38c118 -44 197 -86 197 -192c0 -101 -74 -181 -230 -181zM276 762l126 151h36v-13l-126 -138h-36z" />
    <glyph glyph-name="sacute" unicode="&#x15b;" horiz-adv-x="528" 
d="M270 -12c-109 0 -212 51 -212 178h30c0 -110 96 -150 184 -150c102 0 158 48 158 112c0 58 -37 81 -119 102l-108 29c-86 22 -125 53 -125 125c0 74 68 132 185 132c110 0 193 -54 193 -173h-30c0 101 -71 145 -165 145c-99 0 -153 -45 -153 -103c0 -53 27 -80 104 -99
l108 -28c92 -24 140 -52 140 -129c0 -81 -66 -141 -190 -141zM224 590l118 140h33v-12l-117 -128h-34z" />
    <glyph glyph-name="scircumflex" unicode="&#x15d;" horiz-adv-x="528" 
d="M270 -12c-109 0 -212 51 -212 178h30c0 -110 96 -150 184 -150c102 0 158 48 158 112c0 58 -37 81 -119 102l-108 29c-86 22 -125 53 -125 125c0 74 68 132 185 132c110 0 193 -54 193 -173h-30c0 101 -71 145 -165 145c-99 0 -153 -45 -153 -103c0 -53 27 -80 104 -99
l108 -28c92 -24 140 -52 140 -129c0 -81 -66 -141 -190 -141zM144 590v12l116 128h31l116 -128v-12h-28l-104 117l-102 -117h-29z" />
    <glyph glyph-name="Scaron" unicode="&#x160;" horiz-adv-x="617" 
d="M319 -15c-133 0 -266 70 -266 242h32c0 -154 124 -212 235 -212c131 0 196 66 196 150c0 77 -51 117 -157 157l-105 39c-125 47 -176 84 -176 179c0 102 82 175 224 175c135 0 244 -69 244 -236h-32c0 151 -103 206 -212 206c-120 0 -192 -61 -192 -143
c0 -77 41 -110 140 -146l102 -38c118 -44 197 -86 197 -192c0 -101 -74 -181 -230 -181zM298 763l-124 137v13h31l109 -125l112 125h30v-13l-125 -137h-33z" />
    <glyph glyph-name="scaron" unicode="&#x161;" horiz-adv-x="528" 
d="M270 -12c-109 0 -212 51 -212 178h30c0 -110 96 -150 184 -150c102 0 158 48 158 112c0 58 -37 81 -119 102l-108 29c-86 22 -125 53 -125 125c0 74 68 132 185 132c110 0 193 -54 193 -173h-30c0 101 -71 145 -165 145c-99 0 -153 -45 -153 -103c0 -53 27 -80 104 -99
l108 -28c92 -24 140 -52 140 -129c0 -81 -66 -141 -190 -141zM252 590l-116 128v12h29l102 -117l104 117h28v-12l-116 -128h-31z" />
    <glyph glyph-name="Tcaron" unicode="&#x164;" horiz-adv-x="545" 
d="M257 0v670h-229v30h489v-30h-228v-670h-32zM256 763l-124 137v13h31l109 -125l112 125h30v-13l-125 -137h-33z" />
    <glyph glyph-name="tcaron" unicode="&#x165;" horiz-adv-x="444" 
d="M255 0c-103 0 -136 70 -136 135v342h-91v27h91v105h30v-105h145v-27h-145v-341c0 -70 39 -107 106 -107h39v-29h-39zM358 532l70 173h32v-15l-76 -158h-26z" />
    <glyph glyph-name="Umacron" unicode="&#x16a;" horiz-adv-x="666" 
d="M333 -15c-144 0 -245 88 -245 248v467h32v-467c0 -138 84 -218 213 -218s213 79 213 218v467h32v-467c0 -159 -102 -248 -245 -248zM200 814v27h266v-27h-266z" />
    <glyph glyph-name="umacron" unicode="&#x16b;" horiz-adv-x="566" 
d="M255 -12c-97 0 -172 62 -172 187v329h30v-324c0 -113 64 -164 146 -164c75 0 142 47 189 103v385h30v-504h-22l-7 85c-42 -50 -112 -97 -194 -97zM156 637v26h248v-26h-248z" />
    <glyph glyph-name="Uring" unicode="&#x16e;" horiz-adv-x="666" 
d="M333 -15c-144 0 -245 88 -245 248v467h32v-467c0 -138 84 -218 213 -218s213 79 213 218v467h32v-467c0 -159 -102 -248 -245 -248zM230 847c0 54 45 100 103 100s104 -46 104 -100c0 -55 -46 -100 -104 -100s-103 45 -103 100zM258 847c0 -40 33 -73 75 -73s76 33 76 73
c0 39 -34 73 -76 73s-75 -34 -75 -73z" />
    <glyph glyph-name="uring" unicode="&#x16f;" horiz-adv-x="566" 
d="M255 -12c-97 0 -172 62 -172 187v329h30v-324c0 -113 64 -164 146 -164c75 0 142 47 189 103v385h30v-504h-22l-7 85c-42 -50 -112 -97 -194 -97zM185 668c0 51 42 93 96 93s97 -42 97 -93s-43 -93 -97 -93s-96 42 -96 93zM211 668c0 -37 31 -68 70 -68s71 31 71 68
s-32 68 -71 68s-70 -31 -70 -68z" />
    <glyph glyph-name="Uhungarumlaut" unicode="&#x170;" horiz-adv-x="666" 
d="M333 -15c-144 0 -245 88 -245 248v467h32v-467c0 -138 84 -218 213 -218s213 79 213 218v467h32v-467c0 -159 -102 -248 -245 -248zM204 763l126 150h33v-13l-125 -137h-34zM384 763l126 150h33v-13l-125 -137h-34z" />
    <glyph glyph-name="uhungarumlaut" unicode="&#x171;" horiz-adv-x="566" 
d="M255 -12c-97 0 -172 62 -172 187v329h30v-324c0 -113 64 -164 146 -164c75 0 142 47 189 103v385h30v-504h-22l-7 85c-42 -50 -112 -97 -194 -97zM161 590l118 140h31v-12l-117 -128h-32zM329 590l118 140h30v-12l-116 -128h-32z" />
    <glyph glyph-name="Uogonek" unicode="&#x172;" horiz-adv-x="666" 
d="M445 -160c-60 0 -96 28 -96 73c0 22 12 49 45 78c-19 -4 -40 -6 -61 -6c-144 0 -245 88 -245 248v467h32v-467c0 -138 84 -218 213 -218s213 79 213 218v467h32v-467c0 -113 -41 -174 -142 -235c-45 -27 -60 -57 -60 -80c0 -38 30 -53 77 -53h44v-25h-52z" />
    <glyph glyph-name="uogonek" unicode="&#x173;" horiz-adv-x="566" 
d="M486 -160c-60 0 -96 27 -96 72c0 28 17 58 66 91l-7 82c-42 -50 -112 -97 -194 -97c-97 0 -172 62 -172 187v329h30v-324c0 -113 64 -164 146 -164c75 0 142 47 189 103v385h30v-504c-44 -32 -60 -57 -60 -83c0 -37 30 -52 77 -52h44v-25h-53z" />
    <glyph glyph-name="Ydieresis" unicode="&#x178;" horiz-adv-x="600" 
d="M284 0v278l-266 410v12h31l251 -391l252 391h29v-12l-265 -409v-279h-32zM191 771v118h32v-118h-32zM378 771v118h32v-118h-32z" />
    <glyph glyph-name="Zacute" unicode="&#x179;" horiz-adv-x="563" 
d="M48 0v29l421 641h-408v30h445v-29l-421 -641h431v-30h-468zM239 762l126 151h36v-13l-126 -138h-36z" />
    <glyph glyph-name="zacute" unicode="&#x17a;" horiz-adv-x="506" 
d="M58 0v27l345 450h-329v27h365v-27l-345 -450h348v-27h-384zM201 590l118 140h33v-12l-117 -128h-34z" />
    <glyph glyph-name="Zdotaccent" unicode="&#x17b;" horiz-adv-x="563" 
d="M48 0v29l421 641h-408v30h445v-29l-421 -641h431v-30h-468zM258 774v118h32v-118h-32z" />
    <glyph glyph-name="zdotaccent" unicode="&#x17c;" horiz-adv-x="506" 
d="M58 0v27l345 450h-329v27h365v-27l-345 -450h348v-27h-384zM237 600v110h30v-110h-30z" />
    <glyph glyph-name="Zcaron" unicode="&#x17d;" horiz-adv-x="563" 
d="M48 0v29l421 641h-408v30h445v-29l-421 -641h431v-30h-468zM265 763l-124 137v13h31l109 -125l112 125h30v-13l-125 -137h-33z" />
    <glyph glyph-name="zcaron" unicode="&#x17e;" horiz-adv-x="506" 
d="M58 0v27l345 450h-329v27h365v-27l-345 -450h348v-27h-384zM234 590l-116 128v12h29l102 -117l104 117h28v-12l-116 -128h-31z" />
    <glyph glyph-name="florin" unicode="&#x192;" horiz-adv-x="377" 
d="M71 504h91l5 60c7 91 55 143 149 143c15 0 31 -2 33 -2v-28c-2 0 -17 2 -31 2c-73 0 -114 -39 -121 -115l-5 -60h144v-27h-146l-40 -505c-7 -90 -54 -144 -145 -144c-15 0 -30 2 -33 2v28s14 -2 27 -2c73 0 115 39 121 117l40 504h-89v27z" />
    <glyph glyph-name="scommaaccent" unicode="&#x219;" horiz-adv-x="528" 
d="M270 -12c-109 0 -212 51 -212 178h30c0 -110 96 -150 184 -150c102 0 158 48 158 112c0 58 -37 81 -119 102l-108 29c-86 22 -125 53 -125 125c0 74 68 132 185 132c110 0 193 -54 193 -173h-30c0 101 -71 145 -165 145c-99 0 -153 -45 -153 -103c0 -53 27 -80 104 -99
l108 -28c92 -24 140 -52 140 -129c0 -81 -66 -141 -190 -141zM199 -240l65 173h29v-15l-70 -158h-24z" />
    <glyph glyph-name="circumflex" unicode="&#x2c6;" horiz-adv-x="400" 
d="M68 590v12l116 128h31l116 -128v-12h-28l-104 117l-102 -117h-29z" />
    <glyph glyph-name="caron" unicode="&#x2c7;" horiz-adv-x="400" 
d="M184 590l-116 128v12h29l102 -117l104 117h28v-12l-116 -128h-31z" />
    <glyph glyph-name="breve" unicode="&#x2d8;" horiz-adv-x="396" 
d="M198 571c-87 0 -148 50 -148 137v12h28v-11c0 -72 48 -113 120 -113s121 41 121 113v11h28v-12c0 -87 -62 -137 -149 -137z" />
    <glyph glyph-name="dotaccent" unicode="&#x2d9;" horiz-adv-x="166" 
d="M68 600v110h30v-110h-30z" />
    <glyph glyph-name="ring" unicode="&#x2da;" horiz-adv-x="336" 
d="M72 668c0 51 42 93 96 93s97 -42 97 -93s-43 -93 -97 -93s-96 42 -96 93zM98 668c0 -37 31 -68 70 -68s71 31 71 68s-32 68 -71 68s-70 -31 -70 -68z" />
    <glyph glyph-name="ogonek" unicode="&#x2db;" horiz-adv-x="268" 
d="M153 -160c-60 0 -96 28 -96 73c0 24 15 54 56 87h32c-44 -32 -61 -60 -61 -83c0 -38 30 -52 77 -52h44v-25h-52z" />
    <glyph glyph-name="tilde" unicode="&#x2dc;" horiz-adv-x="490" 
d="M101 621l-21 17c47 61 63 82 98 82c21 0 38 -12 61 -29l26 -19c22 -16 31 -24 48 -24c21 0 34 16 76 70l21 -17c-46 -62 -64 -82 -99 -82c-22 0 -37 11 -59 28l-27 20c-23 17 -33 24 -47 24c-23 0 -34 -17 -77 -70z" />
    <glyph glyph-name="hungarumlaut" unicode="&#x2dd;" horiz-adv-x="448" 
d="M66 590l118 140h31v-12l-117 -128h-32zM234 590l118 140h30v-12l-116 -128h-32z" />
    <glyph glyph-name="brevecap" horiz-adv-x="493" 
d="M247 742c-88 0 -148 50 -148 137v9h27v-8c0 -73 48 -113 121 -113c71 0 120 40 120 113v8h28v-9c0 -87 -61 -137 -148 -137z" />
    <glyph glyph-name="uni03A9" unicode="&#x3a9;" horiz-adv-x="713" 
d="M83 0v30h160c-93 33 -145 110 -145 223v213c0 158 101 249 258 249s258 -91 258 -249v-213c0 -113 -52 -190 -144 -223h160v-30h-224v32c112 17 177 100 177 220v215c0 135 -87 218 -227 218s-226 -83 -226 -218v-215c0 -120 65 -203 176 -220v-32h-223z" />
    <glyph glyph-name="pi" unicode="&#x3c0;" horiz-adv-x="638" 
d="M143 0v477h-105v27h562v-27h-105v-477h-30v477h-292v-477h-30z" />
    <glyph glyph-name="uni0401" unicode="&#x401;" horiz-adv-x="573" 
d="M98 0v700h416v-30h-384v-302h336v-30h-336v-308h384v-30h-416zM193 768v118h32v-118h-32zM380 768v118h32v-118h-32z" />
    <glyph glyph-name="uni0402" unicode="&#x402;" horiz-adv-x="731" 
d="M210 0v670h-182v30h476v-30h-262v-300c72 23 129 33 200 33c148 0 236 -79 236 -201s-66 -202 -194 -202h-54v30h54c107 0 162 68 162 172c0 108 -86 171 -207 171c-74 0 -126 -10 -197 -34v-339h-32z" />
    <glyph glyph-name="uni0403" unicode="&#x403;" horiz-adv-x="559" 
d="M260 762l126 151h36v-13l-126 -138h-36zM98 0v700h413v-30h-381v-670h-32z" />
    <glyph glyph-name="afii10053" unicode="&#x404;" horiz-adv-x="656" 
d="M339 -15c-161 0 -261 92 -261 250v230c0 158 100 250 261 250c132 0 249 -78 249 -228v-10h-31v10c0 131 -105 198 -218 198c-142 0 -229 -80 -229 -218v-100h325v-30h-325v-104c0 -138 87 -218 229 -218c113 0 218 67 218 198v10h31v-10c0 -150 -117 -228 -249 -228z
" />
    <glyph glyph-name="afii10054" unicode="&#x405;" horiz-adv-x="617" 
d="M319 -15c-133 0 -266 70 -266 242h32c0 -154 124 -212 235 -212c131 0 196 66 196 150c0 77 -51 117 -157 157l-105 39c-125 47 -176 84 -176 179c0 102 82 175 224 175c135 0 244 -69 244 -236h-32c0 151 -103 206 -212 206c-120 0 -192 -61 -192 -143
c0 -77 41 -110 140 -146l102 -38c118 -44 197 -86 197 -192c0 -101 -74 -181 -230 -181z" />
    <glyph glyph-name="uni0406" unicode="&#x406;" horiz-adv-x="228" 
d="M98 0v700h32v-700h-32z" />
    <glyph glyph-name="uni0407" unicode="&#x407;" horiz-adv-x="228" 
d="M98 0v700h32v-700h-32zM5 768v118h32v-118h-32zM192 768v118h32v-118h-32z" />
    <glyph glyph-name="uni0408" unicode="&#x408;" horiz-adv-x="560" 
d="M250 -15c-133 0 -222 74 -222 214v26h32v-26c0 -117 74 -184 190 -184c114 0 190 67 190 185v500h32v-501c0 -139 -90 -214 -222 -214z" />
    <glyph glyph-name="uni0409" unicode="&#x409;" horiz-adv-x="1063" 
d="M207 670v-312c0 -284 -52 -358 -182 -358v30c112 0 151 66 151 327v343h404v-294h242c119 0 188 -79 188 -203s-69 -203 -188 -203h-274v670h-341zM580 30h240c98 0 158 65 158 173s-60 173 -158 173h-240v-346z" />
    <glyph glyph-name="uni040A" unicode="&#x40a;" horiz-adv-x="1071" 
d="M106 0v700h32v-294h418v294h32v-294h242c119 0 188 -79 188 -203s-69 -203 -188 -203h-274v376h-418v-376h-32zM588 30h240c98 0 158 65 158 173s-60 173 -158 173h-240v-346z" />
    <glyph glyph-name="uni040B" unicode="&#x40b;" horiz-adv-x="747" 
d="M210 0v670h-182v30h476v-30h-262v-301c58 23 132 34 192 34c120 0 245 -38 245 -209v-194h-32v192c0 116 -64 181 -215 181c-64 0 -133 -11 -190 -35v-338h-32z" />
    <glyph glyph-name="uni040C" unicode="&#x40c;" horiz-adv-x="587" 
d="M98 0v700h32v-333h151l236 333h30v-12l-238 -334l250 -342v-12h-31l-246 337h-152v-337h-32zM271 762l126 151h36v-13l-126 -138h-36z" />
    <glyph glyph-name="uni040E" unicode="&#x40e;" horiz-adv-x="555" 
d="M204 12l75 166l-261 510v12h30l247 -486l212 486h30v-12l-303 -688h-30v12zM278 742c-88 0 -148 50 -148 137v9h27v-8c0 -73 48 -113 121 -113c71 0 120 40 120 113v8h28v-9c0 -87 -61 -137 -148 -137z" />
    <glyph glyph-name="uni040F" unicode="&#x40f;" horiz-adv-x="677" 
d="M323 -140v140h-225v700h32v-670h417v670h32v-700h-226v-140h-30z" />
    <glyph glyph-name="uni0410" unicode="&#x410;" horiz-adv-x="652" 
d="M28 0v12l281 688h33l282 -688v-12h-31l-85 208h-366l-85 -208h-29zM153 238h344l-172 421z" />
    <glyph glyph-name="uni0411" unicode="&#x411;" horiz-adv-x="639" 
d="M98 0v700h444v-30h-412v-264h265c117 0 186 -79 186 -203s-69 -203 -186 -203h-297zM130 30h261c98 0 157 65 157 173s-59 173 -157 173h-261v-346z" />
    <glyph glyph-name="uni0412" unicode="&#x412;" horiz-adv-x="643" 
d="M98 0v700h291c108 0 170 -65 170 -176c0 -93 -48 -143 -104 -159c71 -14 130 -68 130 -179c0 -115 -65 -186 -173 -186h-314zM130 30h276c93 0 147 60 147 157c0 99 -54 158 -147 158h-276v-315zM130 375h260c87 0 137 57 137 148c0 92 -50 147 -142 147h-255v-295z" />
    <glyph glyph-name="uni0413" unicode="&#x413;" horiz-adv-x="559" 
d="M98 0v700h413v-30h-381v-670h-32z" />
    <glyph glyph-name="uni0414" unicode="&#x414;" horiz-adv-x="710" 
d="M33 -148v178h50c55 72 110 159 110 387v283h381v-670h93v-178h-30v148h-574v-148h-30zM120 30h422v640h-319v-253c0 -226 -51 -314 -103 -387z" />
    <glyph glyph-name="uni0415" unicode="&#x415;" horiz-adv-x="573" 
d="M98 0v700h416v-30h-384v-302h336v-30h-336v-308h384v-30h-416z" />
    <glyph glyph-name="uni0416" unicode="&#x416;" horiz-adv-x="846" 
d="M407 0v336h-134l-204 -336h-31v12l207 340l-195 336v12h29l194 -334h134v334h32v-334h134l194 334h29v-12l-195 -336l207 -340v-12h-31l-204 336h-134v-336h-32z" />
    <glyph glyph-name="uni0417" unicode="&#x417;" horiz-adv-x="598" 
d="M307 -15c-143 0 -247 82 -249 230h32c2 -128 92 -200 218 -200s200 68 200 178c0 95 -68 156 -178 156h-106v30h106c94 0 157 47 157 144c0 89 -65 162 -186 162c-117 0 -198 -70 -199 -200h-32c2 150 96 230 231 230c141 0 219 -82 219 -189c0 -95 -56 -146 -127 -160
c81 -14 147 -73 147 -172c0 -126 -84 -209 -233 -209z" />
    <glyph glyph-name="uni0418" unicode="&#x418;" horiz-adv-x="687" 
d="M98 0v700h32v-643l429 643h30v-700h-32v643l-429 -643h-30z" />
    <glyph glyph-name="uni0419" unicode="&#x419;" horiz-adv-x="687" 
d="M98 0v700h32v-643l429 643h30v-700h-32v643l-429 -643h-30zM343 742c-88 0 -148 50 -148 137v9h27v-8c0 -73 48 -113 121 -113c71 0 120 40 120 113v8h28v-9c0 -87 -61 -137 -148 -137z" />
    <glyph glyph-name="uni041A" unicode="&#x41a;" horiz-adv-x="587" 
d="M98 0v700h32v-333h151l236 333h30v-12l-238 -334l250 -342v-12h-31l-246 337h-152v-337h-32z" />
    <glyph glyph-name="uni041B" unicode="&#x41b;" horiz-adv-x="678" 
d="M25 0v30c112 0 151 66 151 327v343h404v-700h-32v670h-341v-312c0 -284 -52 -358 -182 -358z" />
    <glyph glyph-name="uni041C" unicode="&#x41c;" horiz-adv-x="792" 
d="M98 0v700h31l267 -401l268 401h30v-700h-31v643l-256 -384h-22l-256 383v-642h-31z" />
    <glyph glyph-name="uni041D" unicode="&#x41d;" horiz-adv-x="686" 
d="M98 0v700h32v-333h426v333h32v-700h-32v337h-426v-337h-32z" />
    <glyph glyph-name="uni041E" unicode="&#x41e;" horiz-adv-x="672" 
d="M336 15c140 0 226 83 226 218v234c0 135 -86 218 -226 218s-226 -83 -226 -218v-234c0 -135 86 -218 226 -218zM336 -15c-157 0 -258 91 -258 249v232c0 158 101 249 258 249s258 -91 258 -249v-232c0 -158 -101 -249 -258 -249z" />
    <glyph glyph-name="uni041F" unicode="&#x41f;" horiz-adv-x="680" 
d="M98 0v700h484v-700h-32v670h-420v-670h-32z" />
    <glyph glyph-name="uni0420" unicode="&#x420;" horiz-adv-x="613" 
d="M98 0v700h277c116 0 185 -79 185 -203s-69 -203 -185 -203h-245v-294h-32zM130 324h240c98 0 158 65 158 173s-60 173 -158 173h-240v-346z" />
    <glyph glyph-name="uni0421" unicode="&#x421;" horiz-adv-x="657" 
d="M339 -15c-161 0 -261 93 -261 252v226c0 159 100 252 261 252c133 0 250 -79 250 -230v-10h-32v10c0 132 -105 200 -218 200c-142 0 -229 -81 -229 -220v-230c0 -139 87 -220 229 -220c113 0 218 68 218 200v10h32v-10c0 -151 -117 -230 -250 -230z" />
    <glyph glyph-name="uni0422" unicode="&#x422;" horiz-adv-x="545" 
d="M257 0v670h-229v30h489v-30h-228v-670h-32z" />
    <glyph glyph-name="uni0423" unicode="&#x423;" horiz-adv-x="555" 
d="M204 12l75 166l-261 510v12h30l247 -486l212 486h30v-12l-303 -688h-30v12z" />
    <glyph glyph-name="uni0424" unicode="&#x424;" horiz-adv-x="791" 
d="M379 -12v102h-65c-151 0 -256 82 -256 224v74c0 142 105 224 256 224h65v92h32v-92h66c152 0 255 -82 255 -224v-74c0 -142 -103 -224 -255 -224h-66v-102h-32zM313 120h66v462h-66c-136 0 -223 -74 -223 -195v-71c0 -121 87 -196 223 -196zM411 120h67
c136 0 223 75 223 196v71c0 121 -87 195 -223 195h-67v-462z" />
    <glyph glyph-name="uni0425" unicode="&#x425;" horiz-adv-x="598" 
d="M38 0v12l241 342l-238 334v12h32l226 -321l228 321h29v-12l-237 -335l241 -341v-12h-32l-230 329l-230 -329h-30z" />
    <glyph glyph-name="uni0426" unicode="&#x426;" horiz-adv-x="714" 
d="M641 -148v148h-543v700h32v-670h415v670h32v-670h94v-178h-30z" />
    <glyph glyph-name="uni0427" unicode="&#x427;" horiz-adv-x="634" 
d="M504 0v331c-57 -23 -131 -34 -191 -34c-120 0 -245 38 -245 209v194h32v-192c0 -116 64 -181 215 -181c64 0 132 11 189 35v338h32v-700h-32z" />
    <glyph glyph-name="uni0428" unicode="&#x428;" horiz-adv-x="949" 
d="M98 0v700h32v-670h329v670h31v-670h329v670h32v-700h-753z" />
    <glyph glyph-name="uni0429" unicode="&#x429;" horiz-adv-x="987" 
d="M914 -148v148h-816v700h32v-670h329v670h31v-670h329v670h32v-670h93v-178h-30z" />
    <glyph glyph-name="uni042A" unicode="&#x42a;" horiz-adv-x="713" 
d="M198 0v670h-180v30h212v-294h242c119 0 188 -79 188 -203s-69 -203 -188 -203h-274zM230 30h240c98 0 158 65 158 173s-60 173 -158 173h-240v-346z" />
    <glyph glyph-name="uni042B" unicode="&#x42b;" horiz-adv-x="850" 
d="M720 0v700h32v-700h-32zM98 0v700h32v-294h242c119 0 188 -79 188 -203s-69 -203 -188 -203h-274zM130 30h240c98 0 158 65 158 173s-60 173 -158 173h-240v-346z" />
    <glyph glyph-name="uni042C" unicode="&#x42c;" horiz-adv-x="613" 
d="M98 0v700h32v-294h242c119 0 188 -79 188 -203s-69 -203 -188 -203h-274zM130 30h240c98 0 158 65 158 173s-60 173 -158 173h-240v-346z" />
    <glyph glyph-name="uni042D" unicode="&#x42d;" horiz-adv-x="657" 
d="M318 -15c-132 0 -249 78 -249 228v10h31v-10c0 -131 105 -198 218 -198c142 0 229 80 229 218v104h-325v30h325v100c0 138 -87 218 -229 218c-113 0 -218 -67 -218 -198v-10h-31v10c0 150 117 228 249 228c161 0 261 -92 261 -250v-230c0 -158 -100 -250 -261 -250z" />
    <glyph glyph-name="uni042E" unicode="&#x42e;" horiz-adv-x="908" 
d="M582 -15c-151 0 -248 87 -248 241v110h-204v-336h-32v700h32v-334h204v108c0 153 97 241 248 241s248 -87 248 -241v-248c0 -153 -97 -241 -248 -241zM582 15c134 0 216 78 216 209v250c0 131 -83 211 -216 211c-134 0 -216 -78 -216 -209v-250c0 -131 82 -211 216 -211z
" />
    <glyph glyph-name="uni042F" unicode="&#x42f;" horiz-adv-x="629" 
d="M55 0v12l183 289c-98 8 -170 68 -170 199c0 123 68 200 185 200h278v-700h-32v299h-224l-189 -299h-31zM268 329h231v341h-242c-98 0 -156 -64 -156 -170c0 -118 69 -171 167 -171z" />
    <glyph glyph-name="uni0430" unicode="&#x430;" horiz-adv-x="530" 
d="M216 -12c-87 0 -163 44 -163 143c0 101 74 155 210 155h154v70c0 75 -49 132 -154 132c-98 0 -152 -55 -152 -130h-30c0 90 61 158 182 158c124 0 184 -68 184 -158v-358h-22l-8 77c-32 -33 -110 -89 -201 -89zM221 16c87 0 161 59 196 92v151h-154
c-118 0 -180 -43 -180 -126c0 -84 66 -117 138 -117z" />
    <glyph glyph-name="uni0431" unicode="&#x431;" horiz-adv-x="537" 
d="M273 -12c-131 0 -200 79 -200 187v187c0 127 41 204 162 239l112 32c58 17 71 38 71 65v7h30v-7c0 -47 -19 -70 -95 -93l-106 -31c-106 -31 -146 -92 -146 -206v-17c42 48 110 99 194 99c114 0 177 -77 177 -187v-88c0 -107 -67 -187 -199 -187zM273 16
c115 0 169 70 169 160v85c0 92 -52 161 -151 161c-77 0 -142 -51 -188 -102v-144c0 -92 60 -160 170 -160z" />
    <glyph glyph-name="uni0432" unicode="&#x432;" horiz-adv-x="538" 
d="M88 0v504h228c88 0 140 -47 140 -128c0 -69 -35 -107 -81 -120c58 -11 102 -49 102 -123c0 -86 -55 -133 -145 -133h-244zM118 27h211c74 0 116 42 116 107c0 64 -41 106 -117 106h-210v-213zM118 267h200c68 0 106 42 106 105c0 65 -38 105 -110 105h-196v-210z" />
    <glyph glyph-name="uni0433" unicode="&#x433;" horiz-adv-x="450" 
d="M88 0v504h314v-27h-284v-477h-30z" />
    <glyph glyph-name="uni0434" unicode="&#x434;" horiz-adv-x="615" 
d="M37 -134v161h44c42 51 81 118 81 273v204h333v-477h77v-161h-30v134h-475v-134h-30zM116 27h349v450h-274v-181c0 -153 -37 -216 -75 -269z" />
    <glyph glyph-name="uni0435" unicode="&#x435;" horiz-adv-x="527" 
d="M265 -12c-131 0 -200 79 -200 187v154c0 107 69 187 200 187c130 0 198 -79 198 -187v-85h-368v-69c0 -92 60 -159 170 -159c103 0 154 56 163 132h30c-8 -94 -73 -160 -193 -160zM95 271h338v58c0 90 -55 159 -169 159c-109 0 -169 -67 -169 -159v-58z" />
    <glyph glyph-name="uni0436" unicode="&#x436;" horiz-adv-x="768" 
d="M48 0v15l169 241l-162 234v14h27l164 -236h123v236h30v-236h122l165 236h26v-14l-161 -234l169 -241v-15h-28l-168 241h-125v-241h-30v241h-126l-167 -241h-28z" />
    <glyph glyph-name="uni0437" unicode="&#x437;" horiz-adv-x="516" 
d="M265 -12c-123 0 -201 64 -204 170h29c2 -88 69 -142 174 -142c101 0 158 48 158 123c0 65 -52 104 -138 104h-66v28h67c74 0 121 37 121 102c0 66 -49 115 -148 115c-95 0 -156 -53 -158 -142h-30c4 107 76 170 189 170c116 0 178 -61 178 -141c0 -67 -43 -109 -100 -117
c66 -9 116 -51 116 -120c0 -93 -67 -150 -188 -150z" />
    <glyph glyph-name="uni0438" unicode="&#x438;" horiz-adv-x="581" 
d="M88 0v504h30v-457l345 457h30v-504h-30v457l-345 -457h-30z" />
    <glyph glyph-name="uni0439" unicode="&#x439;" horiz-adv-x="581" 
d="M290 571c-87 0 -148 50 -148 137v12h28v-11c0 -72 48 -113 120 -113s121 41 121 113v11h28v-12c0 -87 -62 -137 -149 -137zM88 0v504h30v-457l345 457h30v-504h-30v457l-345 -457h-30z" />
    <glyph glyph-name="uni043A" unicode="&#x43a;" horiz-adv-x="508" 
d="M88 0v504h30v-236h119l189 236h27v-14l-188 -234l195 -241v-15h-27l-195 241h-120v-241h-30z" />
    <glyph glyph-name="uni043B" unicode="&#x43b;" horiz-adv-x="557" 
d="M22 0v28h4c87 0 113 88 113 253v223h330v-504h-30v477h-271v-196c0 -191 -41 -281 -139 -281h-7z" />
    <glyph glyph-name="uni043C" unicode="&#x43c;" horiz-adv-x="668" 
d="M88 0v504h30l215 -273l217 273h30v-504h-30v456l-208 -259h-19l-205 259v-456h-30z" />
    <glyph glyph-name="uni043D" unicode="&#x43d;" horiz-adv-x="571" 
d="M88 0v504h30v-239h335v239h30v-504h-30v238h-335v-238h-30z" />
    <glyph glyph-name="uni043E" unicode="&#x43e;" horiz-adv-x="529" 
d="M265 16c115 0 169 70 169 160v152c0 90 -54 160 -169 160c-110 0 -170 -68 -170 -160v-152c0 -92 60 -160 170 -160zM265 -12c-133 0 -200 81 -200 187v154c0 105 67 187 200 187c134 0 199 -82 199 -187v-154c0 -106 -65 -187 -199 -187z" />
    <glyph glyph-name="uni043F" unicode="&#x43f;" horiz-adv-x="567" 
d="M88 0v504h391v-504h-30v477h-331v-477h-30z" />
    <glyph glyph-name="uni0440" unicode="&#x440;" horiz-adv-x="560" 
d="M88 -160v664h22l7 -85c41 48 110 97 194 97c113 0 176 -77 176 -187v-154c0 -110 -63 -187 -177 -187c-83 0 -152 49 -192 96v-244h-30zM308 16c97 0 149 69 149 161v150c0 92 -52 161 -149 161c-79 0 -144 -52 -190 -102v-268c46 -50 111 -102 190 -102z" />
    <glyph glyph-name="uni0441" unicode="&#x441;" horiz-adv-x="522" 
d="M264 -12c-130 0 -199 80 -199 187v154c0 107 69 187 199 187c124 0 197 -72 197 -172v-4h-30v5c0 82 -61 143 -167 143c-109 0 -169 -67 -169 -159v-154c0 -93 60 -159 169 -159c107 0 167 63 167 146v5h30v-5c0 -101 -73 -174 -197 -174z" />
    <glyph glyph-name="uni0442" unicode="&#x442;" horiz-adv-x="459" 
d="M215 0v477h-187v27h403v-27h-186v-477h-30z" />
    <glyph glyph-name="uni0443" unicode="&#x443;" horiz-adv-x="494" 
d="M169 -160v12l63 148l-204 490v14h28l192 -466l190 466h28v-14l-270 -650h-27z" />
    <glyph glyph-name="uni0444" unicode="&#x444;" horiz-adv-x="757" 
d="M363 -160v222c-33 -37 -82 -74 -150 -74c-90 0 -140 64 -140 153v222c0 90 50 153 140 153c68 0 117 -37 150 -74v263h30v-263c34 37 82 74 151 74c90 0 140 -63 140 -153v-222c0 -89 -50 -153 -140 -153c-69 0 -117 37 -151 74v-222h-30zM221 16c62 0 108 41 142 79v314
c-34 38 -80 79 -142 79c-78 0 -118 -55 -118 -128v-216c0 -73 40 -128 118 -128zM536 16c78 0 118 55 118 128v216c0 73 -40 128 -118 128c-62 0 -108 -41 -143 -79v-314c35 -38 81 -79 143 -79z" />
    <glyph glyph-name="uni0445" unicode="&#x445;" horiz-adv-x="506" 
d="M48 0v15l186 237l-185 238v14h28l176 -228l176 228h26v-14l-184 -237l187 -238v-15h-27l-179 231l-178 -231h-26z" />
    <glyph glyph-name="uni0446" unicode="&#x446;" horiz-adv-x="599" 
d="M526 -134v134h-438v504h30v-477h330v477h30v-477h78v-161h-30z" />
    <glyph glyph-name="uni0447" unicode="&#x447;" horiz-adv-x="529" 
d="M411 0v218c-47 -14 -113 -23 -161 -23c-114 0 -192 49 -192 154v155h30v-153c0 -89 70 -128 165 -128c56 0 113 9 158 24v257h30v-504h-30z" />
    <glyph glyph-name="uni0448" unicode="&#x448;" horiz-adv-x="758" 
d="M88 0v504h30v-477h246v477h30v-477h246v477h30v-504h-582z" />
    <glyph glyph-name="uni0449" unicode="&#x449;" horiz-adv-x="791" 
d="M718 -134v134h-630v504h30v-477h246v477h30v-477h246v477h30v-477h78v-161h-30z" />
    <glyph glyph-name="uni044A" unicode="&#x44a;" horiz-adv-x="585" 
d="M160 0v477h-152v27h182v-193h201c96 0 156 -59 156 -156c0 -96 -60 -155 -156 -155h-231zM190 27h195c82 0 132 50 132 128c0 80 -50 129 -132 129h-195v-257z" />
    <glyph glyph-name="uni044B" unicode="&#x44b;" horiz-adv-x="701" 
d="M88 0v504h30v-193h199c96 0 156 -59 156 -156c0 -96 -60 -155 -156 -155h-229zM118 27h193c82 0 132 50 132 128c0 80 -50 129 -132 129h-193v-257zM583 0v504h30v-504h-30z" />
    <glyph glyph-name="uni044C" unicode="&#x44c;" horiz-adv-x="521" 
d="M88 0v504h30v-193h209c96 0 156 -59 156 -156c0 -96 -60 -155 -156 -155h-239zM118 27h203c82 0 132 50 132 128c0 80 -50 129 -132 129h-203v-257z" />
    <glyph glyph-name="uni044D" unicode="&#x44d;" horiz-adv-x="528" 
d="M261 -12c-127 0 -200 74 -200 179h30c0 -87 60 -151 170 -151c111 0 172 68 172 162v60h-224v28h224v60c0 94 -61 162 -172 162c-109 0 -170 -63 -170 -148h-30c0 103 74 176 200 176c132 0 202 -81 202 -190v-148c0 -109 -70 -190 -202 -190z" />
    <glyph glyph-name="uni044E" unicode="&#x44e;" horiz-adv-x="730" 
d="M469 -12c-129 0 -195 80 -195 184v66h-156v-238h-30v504h30v-239h156v67c0 104 66 184 195 184c131 0 196 -80 196 -184v-160c0 -104 -65 -184 -196 -184zM469 16c111 0 166 69 166 157v158c0 88 -55 157 -166 157c-106 0 -165 -66 -165 -157v-158
c0 -91 59 -157 165 -157z" />
    <glyph glyph-name="uni044F" unicode="&#x44f;" horiz-adv-x="526" 
d="M58 0v15l134 201c-76 8 -122 61 -122 144c0 89 55 144 143 144h225v-504h-30v214h-183l-139 -214h-28zM219 241h189v236h-189c-75 0 -119 -47 -119 -117c0 -75 45 -119 119 -119z" />
    <glyph glyph-name="uni0451" unicode="&#x451;" horiz-adv-x="527" 
d="M265 -12c-131 0 -200 79 -200 187v154c0 107 69 187 200 187c130 0 198 -79 198 -187v-85h-368v-69c0 -92 60 -159 170 -159c103 0 154 56 163 132h30c-8 -94 -73 -160 -193 -160zM95 271h338v58c0 90 -55 159 -169 159c-109 0 -169 -67 -169 -159v-58zM163 595v110h30
v-110h-30zM337 595v110h30v-110h-30z" />
    <glyph glyph-name="uni0452" unicode="&#x452;" horiz-adv-x="579" 
d="M376 -172c-14 0 -26 2 -30 2v27c5 0 17 -1 28 -1c64 0 97 37 97 112v26v241c0 114 -65 164 -146 164c-75 0 -143 -47 -189 -103v-296h-30v559h-87v27h87v119h30v-119h247v-27h-247v-228c42 50 112 96 193 96c96 0 172 -62 172 -187v-246c0 -16 -1 -33 -2 -49
c-5 -72 -43 -117 -123 -117z" />
    <glyph glyph-name="uni0453" unicode="&#x453;" horiz-adv-x="450" 
d="M207 590l118 140h33v-12l-117 -128h-34zM88 0v504h314v-27h-284v-477h-30z" />
    <glyph glyph-name="uni0454" unicode="&#x454;" horiz-adv-x="528" 
d="M267 -12c-132 0 -202 81 -202 190v148c0 109 70 190 202 190c126 0 200 -73 200 -176h-30c0 85 -61 148 -170 148c-111 0 -172 -68 -172 -162v-60h224v-28h-224v-60c0 -94 61 -162 172 -162c110 0 170 64 170 151h30c0 -105 -73 -179 -200 -179z" />
    <glyph glyph-name="uni0455" unicode="&#x455;" horiz-adv-x="528" 
d="M270 -12c-109 0 -212 51 -212 178h30c0 -110 96 -150 184 -150c102 0 158 48 158 112c0 58 -37 81 -119 102l-108 29c-86 22 -125 53 -125 125c0 74 68 132 185 132c110 0 193 -54 193 -173h-30c0 101 -71 145 -165 145c-99 0 -153 -45 -153 -103c0 -53 27 -80 104 -99
l108 -28c92 -24 140 -52 140 -129c0 -81 -66 -141 -190 -141z" />
    <glyph glyph-name="uni0456" unicode="&#x456;" horiz-adv-x="206" 
d="M88 0v504h30v-504h-30zM88 595v110h30v-110h-30z" />
    <glyph glyph-name="uni0457" unicode="&#x457;" horiz-adv-x="206" 
d="M1 595v110h30v-110h-30zM175 595v110h30v-110h-30zM88 0v504h30v-504h-30z" />
    <glyph glyph-name="uni0458" unicode="&#x458;" horiz-adv-x="206" 
d="M88 504h30v-536c0 -82 -35 -140 -125 -140c-13 0 -25 2 -29 2v27c6 0 16 -1 27 -1c88 0 97 59 97 158v490zM88 595v110h30v-110h-30z" />
    <glyph glyph-name="uni0459" unicode="&#x459;" horiz-adv-x="844" 
d="M22 0v28h4c87 0 113 88 113 253v223h318v-193h193c97 0 156 -59 156 -156c0 -96 -59 -155 -156 -155h-223v477h-259v-196c0 -191 -41 -281 -139 -281h-7zM457 27h188c81 0 131 50 131 128c0 80 -50 129 -131 129h-188v-257z" />
    <glyph glyph-name="uni045A" unicode="&#x45a;" horiz-adv-x="838" 
d="M88 0v504h30v-211h311v211h30v-211h191c93 0 150 -56 150 -147s-57 -146 -150 -146h-221v266h-311v-266h-30zM459 27h185c78 0 126 46 126 119c0 74 -48 120 -125 120h-186v-239z" />
    <glyph glyph-name="uni045B" unicode="&#x45b;" horiz-adv-x="570" 
d="M98 0v559h-87v27h87v119h30v-119h247v-27h-247v-228c42 50 112 96 193 96c96 0 172 -62 172 -187v-240h-30v235c0 114 -65 164 -146 164c-74 0 -142 -47 -189 -103v-296h-30z" />
    <glyph glyph-name="uni045C" unicode="&#x45c;" horiz-adv-x="508" 
d="M226 590l118 140h33v-12l-117 -128h-34zM88 0v504h30v-236h119l189 236h27v-14l-188 -234l195 -241v-15h-27l-195 241h-120v-241h-30z" />
    <glyph glyph-name="uni045E" unicode="&#x45e;" horiz-adv-x="494" 
d="M169 -160v12l63 148l-204 490v14h28l192 -466l190 466h28v-14l-270 -650h-27zM248 571c-87 0 -148 50 -148 137v12h28v-11c0 -72 48 -113 120 -113s121 41 121 113v11h28v-12c0 -87 -62 -137 -149 -137z" />
    <glyph glyph-name="uni045F" unicode="&#x45f;" horiz-adv-x="567" 
d="M269 -126v126h-181v504h30v-477h331v477h30v-504h-180v-126h-30z" />
    <glyph glyph-name="uni0490" unicode="&#x490;" horiz-adv-x="549" 
d="M98 0v700h373v130h30v-160h-371v-670h-32z" />
    <glyph glyph-name="uni0491" unicode="&#x491;" horiz-adv-x="445" 
d="M88 0v504h279v122h30v-149h-279v-477h-30z" />
    <glyph glyph-name="uni1E61" unicode="&#x1e61;" horiz-adv-x="528" 
d="M270 -12c-109 0 -212 51 -212 178h30c0 -110 96 -150 184 -150c102 0 158 48 158 112c0 58 -37 81 -119 102l-108 29c-86 22 -125 53 -125 125c0 74 68 132 185 132c110 0 193 -54 193 -173h-30c0 101 -71 145 -165 145c-99 0 -153 -45 -153 -103c0 -53 27 -80 104 -99
l108 -28c92 -24 140 -52 140 -129c0 -81 -66 -141 -190 -141zM252 600v110h30v-110h-30z" />
    <glyph glyph-name="uni1E63" unicode="&#x1e63;" horiz-adv-x="528" 
d="M270 -12c-109 0 -212 51 -212 178h30c0 -110 96 -150 184 -150c102 0 158 48 158 112c0 58 -37 81 -119 102l-108 29c-86 22 -125 53 -125 125c0 74 68 132 185 132c110 0 193 -54 193 -173h-30c0 101 -71 145 -165 145c-99 0 -153 -45 -153 -103c0 -53 27 -80 104 -99
l108 -28c92 -24 140 -52 140 -129c0 -81 -66 -141 -190 -141zM251 -177v110h30v-110h-30z" />
    <glyph glyph-name="endash" unicode="&#x2013;" horiz-adv-x="576" 
d="M68 298v30h440v-30h-440z" />
    <glyph glyph-name="emdash" unicode="&#x2014;" horiz-adv-x="804" 
d="M68 298v30h668v-30h-668z" />
    <glyph glyph-name="quoteleft" unicode="&#x2018;" horiz-adv-x="185" 
d="M124 705h25l-78 -214h-32v15z" />
    <glyph glyph-name="quoteright" unicode="&#x2019;" horiz-adv-x="185" 
d="M53 492h-25l78 214h32v-15z" />
    <glyph glyph-name="quotesinglbase" unicode="&#x201a;" horiz-adv-x="190" 
d="M53 -88h-25l78 214h32v-15z" />
    <glyph glyph-name="quotedblleft" unicode="&#x201c;" horiz-adv-x="352" 
d="M291 705h25l-78 -214h-32v15zM124 705h25l-78 -214h-32v15z" />
    <glyph glyph-name="quotedblright" unicode="&#x201d;" horiz-adv-x="352" 
d="M53 491h-25l78 214h32v-15zM220 491h-25l78 214h32v-15z" />
    <glyph glyph-name="quotedblbase" unicode="&#x201e;" horiz-adv-x="357" 
d="M53 -88h-25l78 214h32v-15zM220 -88h-25l78 214h32v-15z" />
    <glyph glyph-name="dagger" unicode="&#x2020;" horiz-adv-x="521" 
d="M246 -160v617h-208v27h208v221h30v-221h207v-27h-207v-617h-30z" />
    <glyph glyph-name="daggerdbl" unicode="&#x2021;" horiz-adv-x="521" 
d="M246 -160v327h-208v27h208v263h-208v27h208v221h30v-221h207v-27h-207v-263h207v-27h-207v-327h-30z" />
    <glyph glyph-name="bullet" unicode="&#x2022;" horiz-adv-x="335" 
d="M168 220c-62 0 -100 34 -100 97v6c0 63 38 97 100 97c60 0 99 -34 99 -97v-6c0 -62 -39 -97 -99 -97z" />
    <glyph glyph-name="ellipsis" unicode="&#x2026;" horiz-adv-x="648" 
d="M80 0v126h31v-126h-31zM309 0v126h31v-126h-31zM537 0v126h31v-126h-31z" />
    <glyph glyph-name="perthousand" unicode="&#x2030;" horiz-adv-x="1075" 
d="M190 374c78 0 116 50 116 111v94c0 62 -38 111 -116 111c-74 0 -115 -47 -115 -111v-94c0 -64 41 -111 115 -111zM190 349c-93 0 -142 57 -142 138v90c0 81 49 138 142 138c95 0 143 -57 143 -138v-90c0 -81 -48 -138 -143 -138zM167 0v12l389 688h26v-12l-389 -688h-26z
M560 10c78 0 116 50 116 110v95c0 62 -38 111 -116 111c-74 0 -115 -47 -115 -111v-95c0 -63 41 -110 115 -110zM560 -15c-93 0 -142 57 -142 138v90c0 81 49 138 142 138c95 0 143 -57 143 -138v-90c0 -81 -48 -138 -143 -138zM884 10c78 0 116 50 116 110v95
c0 62 -38 111 -116 111c-74 0 -115 -47 -115 -111v-95c0 -63 41 -110 115 -110zM884 -15c-93 0 -142 57 -142 138v90c0 81 49 138 142 138c95 0 144 -57 144 -138v-90c0 -81 -49 -138 -144 -138z" />
    <glyph glyph-name="guilsinglleft" unicode="&#x2039;" horiz-adv-x="316" 
d="M222 62l-182 204l183 205h27v-13l-172 -192l172 -191v-13h-28z" />
    <glyph glyph-name="guilsinglright" unicode="&#x203a;" horiz-adv-x="316" 
d="M276 266l-182 -204h-28v13l172 191l-172 192v13h27z" />
    <glyph glyph-name="fraction" unicode="&#x2044;" horiz-adv-x="331" 
d="M-42 0v12l389 688h26v-12l-389 -688h-26z" />
    <glyph glyph-name="fourinferior" unicode="&#x2084;" horiz-adv-x="347" 
d="M166 700h22v-14l-121 -219h163v90h27v-90h65v-26h-65v-83h-27v83h-198v20z" />
    <glyph glyph-name="Euro" unicode="&#x20ac;" horiz-adv-x="665" 
d="M361 -15c-150 0 -246 91 -246 247v26h-85v28h85v127h-85v28h85v27c0 156 96 247 246 247c125 0 236 -79 236 -230v-10h-30v10c0 133 -96 202 -206 202c-133 0 -216 -81 -216 -219v-27h275v-28h-275v-127h275v-28h-275v-26c0 -138 83 -219 216 -219c112 0 206 69 206 202
v10h30v-10c0 -151 -109 -230 -236 -230z" />
    <glyph glyph-name="uni20B4" unicode="&#x20b4;" horiz-adv-x="635" 
d="M310 -15c-141 0 -218 78 -218 176c0 41 12 75 32 101h-84v28h555v-28h-438c-23 -26 -35 -58 -35 -97c0 -87 68 -152 188 -152c96 0 187 51 202 172h30c-14 -140 -118 -200 -232 -200zM40 408v28h424c22 24 39 58 39 103c0 79 -66 148 -181 148c-97 0 -186 -49 -199 -172
h-30c12 137 109 200 229 200c132 0 211 -77 211 -174c0 -47 -15 -78 -36 -105h98v-28h-555z" />
    <glyph glyph-name="uni20BD" unicode="&#x20bd;" horiz-adv-x="632" 
d="M131 0v140h-95v28h95v129h-95v28h95v375h262c117 0 186 -78 186 -202c0 -123 -69 -201 -186 -201h-232v-129h221v-28h-221v-140h-30zM161 325h229c98 0 159 65 159 173s-61 174 -159 174h-229v-347z" />
    <glyph glyph-name="uni2116" unicode="&#x2116;" horiz-adv-x="1000" 
d="M98 0v700h28l386 -633v633h32v-700h-28l-386 633v-633h-32zM785 374c78 0 116 50 116 110v96c0 62 -38 110 -116 110c-74 0 -115 -47 -115 -110v-96c0 -63 41 -110 115 -110zM785 349c-93 0 -142 57 -142 138v90c0 81 49 138 142 138c95 0 143 -57 143 -138v-90
c0 -81 -48 -138 -143 -138zM643 230v25h285v-25h-285z" />
    <glyph glyph-name="trademark" unicode="&#x2122;" horiz-adv-x="662" 
d="M307 373v327h24l119 -169l121 169h25v-327h-26v283l-110 -154h-19l-109 153v-282h-25zM121 373v302h-104v25h234v-25h-104v-302h-26z" />
    <glyph glyph-name="Omega" unicode="&#x2126;" horiz-adv-x="713" 
d="M83 0v30h160c-93 33 -145 110 -145 223v213c0 158 101 249 258 249s258 -91 258 -249v-213c0 -113 -52 -190 -144 -223h160v-30h-224v32c112 17 177 100 177 220v215c0 135 -87 218 -227 218s-226 -83 -226 -218v-215c0 -120 65 -203 176 -220v-32h-223z" />
    <glyph glyph-name="partialdiff" unicode="&#x2202;" horiz-adv-x="537" 
d="M236 -12c-120 0 -187 70 -187 167c0 12 8 94 9 108c11 113 79 187 193 187c85 0 146 -51 185 -99c2 32 6 73 6 108c-1 141 -65 220 -193 220c-52 0 -82 -7 -112 -15l2 28c30 9 73 15 115 15c148 0 216 -94 216 -245c0 -56 -15 -215 -21 -287c-9 -108 -83 -187 -213 -187z
M239 16c110 0 171 68 180 160l14 141c-42 51 -100 105 -179 105c-100 0 -157 -66 -166 -161c-1 -8 -9 -90 -9 -100c0 -83 55 -145 160 -145z" />
    <glyph glyph-name="Delta" unicode="&#x2206;" horiz-adv-x="652" 
d="M28 0v12l281 688h33l282 -688v-12h-596zM68 30h514l-257 629z" />
    <glyph glyph-name="product" unicode="&#x220f;" horiz-adv-x="675" 
d="M98 -75v775h479v-775h-32v745h-415v-745h-32z" />
    <glyph glyph-name="summation" unicode="&#x2211;" horiz-adv-x="544" 
d="M58 -75v30l206 361l-206 354v30h417v-30h-382l207 -354l-207 -361h393v-30h-428z" />
    <glyph glyph-name="minus" unicode="&#x2212;" horiz-adv-x="510" 
d="M52 300v26h406v-26h-406z" />
    <glyph glyph-name="radical" unicode="&#x221a;" horiz-adv-x="579" 
d="M299 -75l-174 444h-116v28h137l165 -426l226 826h27v-12l-235 -860h-30z" />
    <glyph glyph-name="infinity" unicode="&#x221e;" horiz-adv-x="849" 
d="M226 137c-94 0 -158 72 -158 178c0 105 64 177 158 177c74 0 120 -53 188 -139l11 -15l11 15c67 85 113 139 188 139c93 0 157 -72 157 -177c0 -106 -64 -178 -157 -178c-75 0 -123 52 -188 140l-11 14l-11 -14c-66 -88 -114 -140 -188 -140zM227 165
c62 0 105 51 167 133l13 16l-15 20c-63 80 -104 129 -165 129c-77 0 -129 -62 -129 -149s52 -149 129 -149zM623 165c77 0 129 62 129 149s-52 149 -129 149c-62 0 -104 -50 -168 -132l-13 -17l13 -16c65 -81 106 -133 168 -133z" />
    <glyph glyph-name="integral" unicode="&#x222b;" horiz-adv-x="329" 
d="M-8 -160v27h31c78 0 127 50 127 135v536c0 101 59 162 151 162h36v-27h-30c-78 0 -127 -50 -127 -135v-536c0 -101 -59 -162 -151 -162h-37z" />
    <glyph glyph-name="approxequal" unicode="&#x2248;" horiz-adv-x="465" 
d="M72 383l-20 14c40 61 69 84 105 84c24 0 46 -12 70 -29l27 -19c23 -16 34 -24 54 -24c26 0 48 16 84 70l21 -14c-39 -62 -69 -84 -105 -84c-25 0 -46 11 -69 28l-28 20c-24 17 -35 24 -54 24c-28 0 -48 -17 -85 -70zM72 185l-20 14c40 61 69 84 105 84
c24 0 46 -12 70 -29l27 -19c23 -16 34 -24 54 -24c26 0 48 16 84 70l21 -14c-39 -62 -69 -84 -105 -84c-25 0 -46 11 -69 28l-28 20c-24 17 -35 24 -54 24c-28 0 -48 -17 -85 -70z" />
    <glyph glyph-name="notequal" unicode="&#x2260;" horiz-adv-x="546" 
d="M68 0v12l113 180h-113v26h130l119 191h-249v26h265l115 181h25v-12l-107 -169h107v-26h-123l-120 -191h243v-26h-260l-119 -192h-26z" />
    <glyph glyph-name="lessequal" unicode="&#x2264;" horiz-adv-x="472" 
d="M401 134l-349 187v26l349 188h19v-20l-336 -181l336 -180v-20h-19zM52 30v26h368v-26h-368z" />
    <glyph glyph-name="greaterequal" unicode="&#x2265;" horiz-adv-x="472" 
d="M52 134v20l336 180l-336 181v20h18l350 -188v-26l-350 -187h-18zM52 30v26h368v-26h-368z" />
    <glyph glyph-name="lozenge" unicode="&#x25ca;" horiz-adv-x="530" 
d="M253 0l-195 350l195 350h25l194 -350l-195 -350h-24zM265 35l174 315l-174 315l-174 -315z" />
    <glyph glyph-name="commaaccent" unicode="&#xf6c3;" horiz-adv-x="244" 
d="M67 -240l70 173h32v-15l-76 -158h-26z" />
    <glyph glyph-name="zero.onum" horiz-adv-x="536" 
d="M268 16c116 0 172 74 172 168v136c0 94 -56 168 -172 168c-111 0 -172 -72 -172 -168v-136c0 -96 61 -168 172 -168zM268 -12c-132 0 -202 82 -202 197v134c0 114 70 197 202 197c134 0 202 -83 202 -197v-134c0 -115 -68 -197 -202 -197z" />
    <glyph glyph-name="one.onum" horiz-adv-x="242" 
d="M117 476h-80v19l80 9h30v-504h-30v476z" />
    <glyph glyph-name="two.onum" horiz-adv-x="542" 
d="M66 0v25l198 126c71 45 178 95 178 197c0 83 -69 140 -168 140c-101 0 -180 -56 -180 -161h-30c0 121 90 189 210 189c118 0 198 -69 198 -170c0 -113 -112 -168 -188 -215l-167 -103h372v-28h-423z" />
    <glyph glyph-name="three.onum" horiz-adv-x="560" 
d="M281 -172c-133 0 -219 75 -223 194h30c3 -101 77 -166 193 -166c114 0 181 65 181 169c0 87 -62 148 -160 148h-69v28h70c89 0 140 55 140 138c0 79 -59 149 -169 149c-105 0 -176 -63 -176 -174h-30c0 126 82 202 206 202c129 0 198 -81 198 -175
c0 -86 -48 -137 -114 -153c74 -15 134 -73 134 -165c0 -120 -76 -195 -211 -195z" />
    <glyph glyph-name="four.onum" horiz-adv-x="533" 
d="M376 -160v160h-330v25l290 479h27v-12l-280 -464h293v191h30v-191h99v-28h-99v-160h-30z" />
    <glyph glyph-name="five.onum" horiz-adv-x="570" 
d="M289 -172c-120 0 -203 68 -218 183h31c15 -97 85 -155 187 -155c117 0 183 79 183 197c0 132 -75 191 -179 191c-66 0 -121 -29 -155 -68h-29l28 328h324v-27h-299l-23 -266c36 37 95 61 156 61c119 0 207 -69 207 -220c0 -130 -74 -224 -213 -224z" />
    <glyph glyph-name="six.onum" horiz-adv-x="566" 
d="M284 -12c-143 0 -220 87 -220 221c0 72 24 121 66 188l192 303h28v-12l-199 -311c33 31 82 50 145 50c134 0 208 -86 208 -218c0 -134 -78 -221 -220 -221zM284 16c125 0 190 78 190 192c0 112 -59 191 -187 191c-109 0 -193 -65 -193 -191c0 -114 65 -192 190 -192z" />
    <glyph glyph-name="seven.onum" horiz-adv-x="525" 
d="M205 -160v12l238 625h-357v-161h-30v188h419v-26l-243 -638h-27z" />
    <glyph glyph-name="eight.onum" horiz-adv-x="598" 
d="M299 -12c-151 0 -231 79 -231 201c0 107 72 164 149 180c-63 16 -125 65 -125 161c0 106 73 185 207 185s207 -79 207 -185c0 -96 -62 -145 -124 -161c75 -16 148 -73 148 -180c0 -122 -80 -201 -231 -201zM298 16c134 0 202 69 202 172c0 91 -61 166 -195 166
c-142 0 -207 -68 -207 -166c0 -103 68 -172 200 -172zM292 382c125 0 184 55 184 151c0 92 -64 154 -177 154c-112 0 -177 -62 -177 -154c0 -89 55 -151 170 -151z" />
    <glyph glyph-name="nine.onum" horiz-adv-x="566" 
d="M244 -160v12l173 276c-33 -32 -82 -50 -143 -50c-138 0 -212 88 -212 219c0 130 77 219 220 219c144 0 220 -89 220 -219c0 -72 -22 -119 -65 -189l-166 -268h-27zM279 106c108 0 193 65 193 190c0 112 -64 192 -190 192s-190 -80 -190 -191c0 -112 59 -191 187 -191z
" />
    <glyph glyph-name="uniF653" unicode="&#xf653;" horiz-adv-x="528" 
d="M254 -89v77c-103 6 -196 56 -196 178h30c0 -110 96 -150 184 -150c102 0 158 48 158 112c0 58 -37 81 -119 102l-108 29c-86 22 -125 53 -125 125c0 73 64 129 176 132v77h27v-77c100 -6 175 -60 175 -173h-30c0 101 -71 145 -165 145c-99 0 -153 -45 -153 -103
c0 -52 27 -78 104 -99l108 -27c91 -24 140 -53 140 -130c0 -79 -62 -137 -179 -141v-77h-27z" />
    <glyph glyph-name="uniF64E" unicode="&#xf64e;" horiz-adv-x="550" 
d="M291 -12c-132 0 -198 81 -198 190h-69v27h69v86h-69v27h69c0 112 61 198 198 198c124 0 198 -72 198 -172v-4h-30v5c0 82 -61 143 -168 143c-117 0 -168 -72 -168 -170h206v-27h-206v-86h206v-27h-206c0 -94 57 -162 168 -162c108 0 168 63 168 146v5h30v-5
c0 -101 -73 -174 -198 -174z" />
    <glyph glyph-name="uniF725" unicode="&#xf725;" horiz-adv-x="516" 
d="M26 0v27h74v203h-74v27h74v72c0 107 64 187 183 187c114 0 182 -72 182 -172v-4h-30v5c0 82 -55 143 -152 143c-99 0 -153 -67 -153 -159v-72h185v-27h-185v-203h335v-27h-439z" />
    <glyph glyph-name="uniF727" unicode="&#xf727;" horiz-adv-x="506" 
d="M238 0v83h-159v28h159v84h-159v28h144l-179 267v14h27l181 -275h2l182 275h26v-14l-179 -267h136v-28h-151v-84h151v-28h-151v-83h-30z" />
    <glyph glyph-name="uniF722" unicode="&#xf722;" horiz-adv-x="530" 
d="M103 0v83h-79v27h79v86h-79v27h79v281h232c97 0 156 -58 156 -154s-59 -154 -156 -154h-202v-86h188v-27h-188v-83h-30zM133 223h197c82 0 131 49 131 127s-49 127 -131 127h-197v-254z" />
    <glyph glyph-name="uniF721" unicode="&#xf721;" horiz-adv-x="552" 
d="M272 -12c-115 0 -176 56 -176 128c0 28 10 51 24 70h-74v27h456v-27h-349c-17 -18 -27 -40 -27 -67c0 -57 52 -103 148 -103c76 0 147 33 157 117h30c-10 -101 -96 -145 -189 -145zM46 290v27h349c16 17 28 40 28 68c0 56 -49 103 -142 103c-77 0 -146 -32 -154 -117h-29
c9 98 87 145 185 145c108 0 170 -55 170 -128c0 -30 -10 -52 -26 -71h75v-27h-456z" />
    <glyph glyph-name="zero.onum.mono" 
d="M297 -12c-132 0 -202 82 -202 197v134c0 114 70 197 202 197c134 0 202 -83 202 -197v-134c0 -115 -68 -197 -202 -197zM125 184c0 -37 8 -69 25 -96l278 349c-28 32 -72 51 -131 51c-111 0 -172 -72 -172 -168v-136zM297 16c116 0 172 74 172 168v136c0 34 -8 66 -24 93
l-276 -349c29 -30 72 -48 128 -48z" />
    <glyph glyph-name="one.onum.mono" 
d="M105 0v28h177v448h-110v19l110 9h30v-476h177v-28h-384z" />
    <glyph glyph-name="two.onum.mono" 
d="M88 0v25l198 126c71 45 178 95 178 197c0 83 -69 140 -168 140c-101 0 -180 -56 -180 -161h-30c0 121 90 189 210 189c118 0 198 -69 198 -170c0 -113 -112 -168 -188 -215l-167 -103h372v-28h-423z" />
    <glyph glyph-name="three.onum.mono" 
d="M302 -172c-133 0 -219 75 -223 194h30c3 -101 77 -166 193 -166c114 0 181 65 181 169c0 87 -62 148 -160 148h-69v28h70c89 0 140 55 140 138c0 79 -59 149 -169 149c-105 0 -176 -63 -176 -174h-30c0 126 82 202 206 202c129 0 198 -81 198 -175
c0 -86 -48 -137 -114 -153c74 -15 134 -73 134 -165c0 -120 -76 -195 -211 -195z" />
    <glyph glyph-name="four.onum.mono" 
d="M397 -160v160h-330v25l290 479h27v-12l-280 -464h293v191h30v-191h99v-28h-99v-160h-30z" />
    <glyph glyph-name="five.onum.mono" 
d="M299 -172c-120 0 -203 68 -218 183h31c15 -97 85 -155 187 -155c117 0 183 79 183 197c0 132 -75 191 -179 191c-66 0 -121 -29 -155 -68h-29l28 328h324v-27h-299l-23 -266c36 37 95 61 156 61c119 0 207 -69 207 -220c0 -130 -74 -224 -213 -224z" />
    <glyph glyph-name="six.onum.mono" 
d="M294 -12c-143 0 -220 87 -220 221c0 72 24 121 66 188l192 303h28v-12l-199 -311c33 31 82 50 145 50c134 0 208 -86 208 -218c0 -134 -78 -221 -220 -221zM294 16c125 0 190 78 190 192c0 112 -59 191 -187 191c-109 0 -193 -65 -193 -191c0 -114 65 -192 190 -192z" />
    <glyph glyph-name="seven.onum.mono" 
d="M238 -160v12l238 625h-357v-161h-30v188h419v-26l-243 -638h-27z" />
    <glyph glyph-name="eight.onum.mono" 
d="M296 -12c-151 0 -231 79 -231 201c0 107 72 164 149 180c-63 16 -125 65 -125 161c0 106 73 185 207 185s207 -79 207 -185c0 -96 -62 -145 -124 -161c75 -16 148 -73 148 -180c0 -122 -80 -201 -231 -201zM295 16c134 0 202 69 202 172c0 91 -61 166 -195 166
c-142 0 -207 -68 -207 -166c0 -103 68 -172 200 -172zM289 382c125 0 184 55 184 151c0 92 -64 154 -177 154c-112 0 -177 -62 -177 -154c0 -89 55 -151 170 -151z" />
    <glyph glyph-name="nine.onum.mono" 
d="M257 -160v12l173 276c-33 -32 -82 -50 -143 -50c-138 0 -212 88 -212 219c0 130 77 219 220 219c144 0 220 -89 220 -219c0 -72 -22 -119 -65 -189l-166 -268h-27zM292 106c108 0 193 65 193 190c0 112 -64 192 -190 192s-190 -80 -190 -191c0 -112 59 -191 187 -191z
" />
    <glyph glyph-name="uniF653.mono" 
d="M280 -89v77c-103 6 -196 56 -196 178h30c0 -110 96 -150 184 -150c102 0 158 48 158 112c0 58 -37 81 -119 102l-108 29c-86 22 -125 53 -125 125c0 73 64 129 176 132v77h27v-77c100 -6 175 -60 175 -173h-30c0 101 -71 145 -165 145c-99 0 -153 -45 -153 -103
c0 -52 27 -78 104 -99l108 -27c91 -24 140 -53 140 -130c0 -79 -62 -137 -179 -141v-77h-27z" />
    <glyph glyph-name="uniF64E.mono" 
d="M314 -12c-132 0 -198 81 -198 190h-69v27h69v86h-69v27h69c0 112 61 198 198 198c124 0 198 -72 198 -172v-4h-30v5c0 82 -61 143 -168 143c-117 0 -168 -72 -168 -170h206v-27h-206v-86h206v-27h-206c0 -94 57 -162 168 -162c108 0 168 63 168 146v5h30v-5
c0 -101 -73 -174 -198 -174z" />
    <glyph glyph-name="uniF725.mono" 
d="M63 0v27h74v203h-74v27h74v72c0 107 64 187 183 187c114 0 182 -72 182 -172v-4h-30v5c0 82 -55 143 -152 143c-99 0 -153 -67 -153 -159v-72h185v-27h-185v-203h335v-27h-439z" />
    <glyph glyph-name="uniF727.mono" 
d="M281 0v83h-159v28h159v84h-159v28h144l-179 267v14h27l181 -275h2l182 275h26v-14l-179 -267h136v-28h-151v-84h151v-28h-151v-83h-30z" />
    <glyph glyph-name="uniF722.mono" 
d="M127 0v83h-79v27h79v86h-79v27h79v281h232c97 0 156 -58 156 -154s-59 -154 -156 -154h-202v-86h188v-27h-188v-83h-30zM157 223h197c82 0 131 49 131 127s-49 127 -131 127h-197v-254z" />
    <glyph glyph-name="uniF721.mono" 
d="M285 -12c-115 0 -176 56 -176 128c0 28 10 51 24 70h-74v27h456v-27h-349c-17 -18 -27 -40 -27 -67c0 -57 52 -103 148 -103c76 0 147 33 157 117h30c-10 -101 -96 -145 -189 -145zM59 290v27h349c16 17 28 40 28 68c0 56 -49 103 -142 103c-77 0 -146 -32 -154 -117h-29
c9 98 87 145 185 145c108 0 170 -55 170 -128c0 -30 -10 -52 -26 -71h75v-27h-456z" />
    <glyph glyph-name="zero.mono" 
d="M296 -15c-132 0 -217 79 -217 215v300c0 136 85 215 217 215s218 -79 218 -215v-300c0 -136 -86 -215 -218 -215zM109 198c0 -42 9 -77 26 -106l304 540c-33 35 -82 55 -143 55c-116 0 -187 -70 -187 -185v-304zM296 13c116 0 188 71 188 185v304c0 40 -10 75 -26 103
l-303 -538c32 -35 80 -54 141 -54z" />
    <glyph glyph-name="one.mono" 
d="M282 672h-110v19l110 9h30v-673h177v-27h-384v27h177v645z" />
    <glyph glyph-name="two.mono" 
d="M81 0v26l212 216c66 67 161 160 161 269c0 111 -70 176 -172 176c-103 0 -180 -67 -180 -189h-29c0 140 92 217 209 217c120 0 202 -78 202 -204c0 -123 -108 -224 -168 -286l-193 -197h381v-28h-423z" />
    <glyph glyph-name="three.mono" 
d="M294 -15c-132 0 -220 78 -224 207h29c4 -110 79 -179 196 -179c115 0 182 67 182 180c0 93 -63 159 -164 159h-66v30h67c90 0 146 58 146 147c0 83 -58 158 -169 158c-108 0 -178 -68 -179 -189h-29c1 138 84 217 208 217c127 0 198 -85 198 -185
c0 -91 -52 -145 -118 -162c75 -16 136 -78 136 -175c0 -131 -79 -208 -213 -208z" />
    <glyph glyph-name="four.mono" 
d="M400 0v174h-342v25l293 501h27v-12l-285 -486h307v209h30v-209h99v-28h-99v-174h-30z" />
    <glyph glyph-name="five.mono" 
d="M299 -15c-119 0 -203 69 -219 192h30c15 -103 88 -164 190 -164c120 0 184 84 184 205c0 135 -73 201 -181 201c-68 0 -124 -33 -156 -72h-29l29 353h326v-28h-301l-24 -288c37 38 94 63 158 63c121 0 208 -72 208 -228c0 -139 -78 -234 -215 -234z" />
    <glyph glyph-name="six.mono" 
d="M298 -15c-143 0 -220 87 -220 221c0 72 24 121 66 188l192 306h29v-12l-199 -314c33 31 82 50 145 50c133 0 207 -86 207 -218c0 -134 -78 -221 -220 -221zM298 13c125 0 190 78 190 192c0 112 -59 191 -187 191c-109 0 -193 -65 -193 -191c0 -114 65 -192 190 -192z" />
    <glyph glyph-name="seven.mono" 
d="M224 0v12l255 660h-360v-160h-30v188h422v-27l-260 -673h-27z" />
    <glyph glyph-name="eight.mono" 
d="M296 -15c-151 0 -231 79 -231 201c0 107 72 165 149 181c-63 16 -125 66 -125 162c0 106 73 186 207 186s207 -80 207 -186c0 -96 -62 -146 -124 -162c75 -16 148 -74 148 -181c0 -122 -80 -201 -231 -201zM295 13c134 0 202 69 202 172c0 91 -61 167 -195 167
c-142 0 -207 -69 -207 -167c0 -103 68 -172 200 -172zM289 380c125 0 184 56 184 152c0 92 -64 155 -177 155c-112 0 -177 -63 -177 -155c0 -89 55 -152 170 -152z" />
    <glyph glyph-name="nine.mono" 
d="M234 0v12l197 315c-33 -32 -82 -51 -145 -51c-136 0 -211 87 -211 220c0 131 77 219 220 219c144 0 220 -88 220 -219c0 -72 -21 -120 -64 -190l-189 -306h-28zM295 687c-126 0 -190 -78 -190 -191s60 -192 187 -192c108 0 193 65 193 192c0 113 -65 191 -190 191z" />
    <glyph glyph-name="dollar.mono" 
d="M46 227h30c0 -155 120 -214 233 -214c130 0 194 67 194 152c0 77 -49 116 -145 153l-112 43c-127 48 -175 84 -175 180c0 99 78 171 213 174v93h30v-94c118 -8 217 -79 217 -235h-30c0 153 -102 208 -211 208c-118 0 -189 -61 -189 -145c0 -69 32 -103 109 -133l161 -63
c101 -39 163 -82 163 -180c0 -99 -69 -178 -220 -181v-96h-30v96c-121 8 -238 79 -238 242z" />
    <glyph glyph-name="Euro.mono" 
d="M325 -15c-150 0 -246 91 -246 247v26h-85v28h85v127h-85v28h85v27c0 156 96 247 246 247c125 0 236 -79 236 -230v-10h-30v10c0 133 -96 202 -206 202c-133 0 -216 -81 -216 -219v-27h275v-28h-275v-127h275v-28h-275v-26c0 -138 83 -219 216 -219c112 0 206 69 206 202
v10h30v-10c0 -151 -109 -230 -236 -230z" />
    <glyph glyph-name="sterling.mono" 
d="M50 0v28h80v314h-80v28h80v158c0 107 69 187 199 187c124 0 198 -72 198 -174v-38h-30v38c0 84 -61 146 -168 146c-109 0 -169 -66 -169 -159v-158h204v-28h-204v-314h367v-28h-477z" />
    <glyph glyph-name="yen.mono" 
d="M282 0v123h-210v28h210v127h-210v28h192l-246 382v12h31l248 -390l250 390h29v-12l-247 -382h193v-28h-210v-127h210v-28h-210v-123h-30z" />
    <glyph glyph-name="uni20BD.mono" 
d="M117 0v140h-95v28h95v129h-95v28h95v375h262c117 0 186 -78 186 -202c0 -123 -69 -201 -186 -201h-232v-129h221v-28h-221v-140h-30zM147 325h229c98 0 159 65 159 173s-61 174 -159 174h-229v-347z" />
    <glyph glyph-name="uni20B4.mono" 
d="M289 -15c-141 0 -218 78 -218 176c0 41 12 75 32 101h-84v28h555v-28h-438c-23 -26 -35 -58 -35 -97c0 -87 68 -152 188 -152c96 0 187 51 202 172h30c-14 -140 -118 -200 -232 -200zM19 408v28h424c22 24 39 58 39 103c0 79 -66 148 -181 148c-97 0 -186 -49 -199 -172
h-30c12 137 109 200 229 200c132 0 211 -77 211 -174c0 -47 -15 -78 -36 -105h98v-28h-555z" />
    <glyph glyph-name="a.alt1" horiz-adv-x="560" 
d="M250 -12c-114 0 -177 77 -177 187v154c0 110 64 187 176 187c84 0 153 -49 194 -97l7 85h22v-504h-22l-7 85c-41 -48 -110 -97 -193 -97zM253 16c78 0 143 52 189 102v268c-46 50 -111 102 -190 102c-97 0 -149 -69 -149 -161v-150c0 -92 52 -161 150 -161z" />
    <glyph glyph-name="agrave.alt1" horiz-adv-x="560" 
d="M250 -12c-114 0 -177 77 -177 187v154c0 110 64 187 176 187c84 0 153 -49 194 -97l7 85h22v-504h-22l-7 85c-41 -48 -110 -97 -193 -97zM253 16c78 0 143 52 189 102v268c-46 50 -111 102 -190 102c-97 0 -149 -69 -149 -161v-150c0 -92 52 -161 150 -161zM314 590
l-117 128v12h33l118 -140h-34z" />
    <glyph glyph-name="aacute.alt1" horiz-adv-x="560" 
d="M250 -12c-114 0 -177 77 -177 187v154c0 110 64 187 176 187c84 0 153 -49 194 -97l7 85h22v-504h-22l-7 85c-41 -48 -110 -97 -193 -97zM253 16c78 0 143 52 189 102v268c-46 50 -111 102 -190 102c-97 0 -149 -69 -149 -161v-150c0 -92 52 -161 150 -161zM251 590
l118 140h33v-12l-117 -128h-34z" />
    <glyph glyph-name="acircumflex.alt1" horiz-adv-x="560" 
d="M250 -12c-114 0 -177 77 -177 187v154c0 110 64 187 176 187c84 0 153 -49 194 -97l7 85h22v-504h-22l-7 85c-41 -48 -110 -97 -193 -97zM253 16c78 0 143 52 189 102v268c-46 50 -111 102 -190 102c-97 0 -149 -69 -149 -161v-150c0 -92 52 -161 150 -161zM156 590v12
l116 128h31l116 -128v-12h-28l-104 117l-102 -117h-29z" />
    <glyph glyph-name="atilde.alt1" horiz-adv-x="560" 
d="M250 -12c-114 0 -177 77 -177 187v154c0 110 64 187 176 187c84 0 153 -49 194 -97l7 85h22v-504h-22l-7 85c-41 -48 -110 -97 -193 -97zM253 16c78 0 143 52 189 102v268c-46 50 -111 102 -190 102c-97 0 -149 -69 -149 -161v-150c0 -92 52 -161 150 -161zM144 621
l-21 17c47 61 63 82 98 82c21 0 38 -12 61 -29l26 -19c22 -16 31 -24 48 -24c21 0 34 16 76 70l21 -17c-46 -62 -64 -82 -99 -82c-22 0 -37 11 -59 28l-27 20c-23 17 -33 24 -47 24c-23 0 -34 -17 -77 -70z" />
    <glyph glyph-name="adieresis.alt1" horiz-adv-x="560" 
d="M250 -12c-114 0 -177 77 -177 187v154c0 110 64 187 176 187c84 0 153 -49 194 -97l7 85h22v-504h-22l-7 85c-41 -48 -110 -97 -193 -97zM253 16c78 0 143 52 189 102v268c-46 50 -111 102 -190 102c-97 0 -149 -69 -149 -161v-150c0 -92 52 -161 150 -161zM182 595v110
h30v-110h-30zM356 595v110h30v-110h-30z" />
    <glyph glyph-name="aring.alt1" horiz-adv-x="560" 
d="M250 -12c-114 0 -177 77 -177 187v154c0 110 64 187 176 187c84 0 153 -49 194 -97l7 85h22v-504h-22l-7 85c-41 -48 -110 -97 -193 -97zM253 16c78 0 143 52 189 102v268c-46 50 -111 102 -190 102c-97 0 -149 -69 -149 -161v-150c0 -92 52 -161 150 -161zM188 668
c0 51 42 93 96 93s97 -42 97 -93s-43 -93 -97 -93s-96 42 -96 93zM214 668c0 -37 31 -68 70 -68s71 31 71 68s-32 68 -71 68s-70 -31 -70 -68z" />
    <glyph glyph-name="amacron.alt1" horiz-adv-x="560" 
d="M250 -12c-114 0 -177 77 -177 187v154c0 110 64 187 176 187c84 0 153 -49 194 -97l7 85h22v-504h-22l-7 85c-41 -48 -110 -97 -193 -97zM253 16c78 0 143 52 189 102v268c-46 50 -111 102 -190 102c-97 0 -149 -69 -149 -161v-150c0 -92 52 -161 150 -161zM160 637v26
h248v-26h-248z" />
    <glyph glyph-name="aogonek.alt1" horiz-adv-x="560" 
d="M480 -160c-60 0 -96 25 -96 73c0 26 18 60 65 94l-6 78c-41 -48 -110 -97 -193 -97c-114 0 -177 77 -177 187v154c0 110 64 187 176 187c84 0 153 -49 194 -97l7 85h22v-504c-44 -32 -61 -60 -61 -83c0 -38 30 -52 77 -52h44v-25h-52zM253 16c78 0 143 52 189 102v268
c-46 50 -111 102 -190 102c-97 0 -149 -69 -149 -161v-150c0 -92 52 -161 150 -161z" />
    <glyph glyph-name="t.alt1" horiz-adv-x="372" 
d="M171 0v477h-141v27h141v201h30v-201h141v-27h-141v-477h-30z" />
    <glyph glyph-name="tcaron.alt1" horiz-adv-x="472" 
d="M171 0v477h-141v27h141v201h30v-201h141v-27h-141v-477h-30zM388 532l70 173h32v-15l-76 -158h-26z" />
    <glyph glyph-name="J.alt1" horiz-adv-x="558" 
d="M250 -15c-133 0 -222 74 -222 214v26h32v-26c0 -117 74 -184 190 -184c114 0 190 67 190 185v470h-283v30h315v-501c0 -139 -90 -214 -222 -214z" />
    <glyph glyph-name="ampersand.alt1" horiz-adv-x="587" 
d="M390 251v27h237v-27h-104v-17c0 -153 -92 -246 -234 -246c-135 0 -230 77 -230 209c0 110 70 173 145 188c-65 15 -113 67 -113 149c0 95 69 173 191 173c120 0 193 -62 205 -172h-30c-12 91 -71 144 -175 144c-105 0 -159 -68 -159 -147c0 -76 47 -134 152 -134h57v-27
h-60c-115 0 -183 -70 -183 -173c0 -113 82 -182 200 -182c128 0 204 84 204 216v19h-103z" />
    <glyph glyph-name="ampersand.alt2" horiz-adv-x="587" 
d="M237 0c-113 0 -178 69 -178 187c0 108 59 167 130 179c-57 17 -105 67 -105 161c0 109 62 173 170 173h103v-27h-103c-90 0 -139 -57 -139 -148c0 -89 49 -147 134 -147h198l9 142h21v-142h72v-27h-72v-351h-240zM242 27h205v324h-205c-97 0 -152 -60 -152 -162
c0 -101 55 -162 152 -162z" />
    <glyph glyph-name="at.alt1" horiz-adv-x="736" 
d="M346 -160c-156 0 -258 92 -258 229v407c0 137 102 229 258 229h45c155 0 257 -92 257 -229v-366h-22l-8 77c-33 -33 -111 -89 -196 -89c-88 0 -163 44 -163 143c0 101 74 155 209 155h150v78c0 120 -88 203 -228 203h-44c-140 0 -228 -83 -228 -203v-403
c0 -120 88 -203 228 -203h93v-28h-93zM425 126c84 0 159 60 193 92v151h-150c-117 0 -179 -44 -179 -126c0 -84 66 -117 136 -117z" />
    <glyph glyph-name="uni0430.alt1" horiz-adv-x="560" 
d="M250 -12c-114 0 -177 77 -177 187v154c0 110 64 187 176 187c84 0 153 -49 194 -97l7 85h22v-504h-22l-7 85c-41 -48 -110 -97 -193 -97zM253 16c78 0 143 52 189 102v268c-46 50 -111 102 -190 102c-97 0 -149 -69 -149 -161v-150c0 -92 52 -161 150 -161z" />
    <glyph glyph-name="uni0423.alt1" horiz-adv-x="555" 
d="M114 0v30h16c61 0 97 32 132 110l17 38l-261 510v12h30l247 -486l212 486h30v-12l-242 -548c-47 -106 -85 -140 -168 -140h-13z" />
    <glyph glyph-name="uni040E.alt1" horiz-adv-x="555" 
d="M114 0v30h16c61 0 97 32 132 110l17 38l-261 510v12h30l247 -486l212 486h30v-12l-242 -548c-47 -106 -85 -140 -168 -140h-13zM278 742c-88 0 -148 50 -148 137v9h27v-8c0 -73 48 -113 121 -113c71 0 120 40 120 113v8h28v-9c0 -87 -61 -137 -148 -137z" />
    </font>
</defs>
</svg>
