<svg width="301" height="100" viewBox="0 0 301 100" fill="none" xmlns="http://www.w3.org/2000/svg">
<path fill-rule="evenodd" clip-rule="evenodd" d="M62.986 55.3184C62.3477 58.3932 59.5067 66.2867 50.4624 70.5572L46.8303 66.4755L40.7078 72.6339C33.6413 72.5351 27.0154 69.1457 22.8169 63.4548C23.4642 63.6615 24.1385 63.7874 24.8218 63.8323C25.8287 63.8503 26.9075 63.4817 26.9075 61.7915V45.1683C26.9615 43.6579 25.7747 42.3902 24.2643 42.3363C23.9946 42.3273 23.7249 42.3543 23.4552 42.4262C20.6232 43.0735 18.3487 50.1579 18.3487 50.1579C18.2857 43.541 21.1357 37.2297 26.1434 32.8964C30.3688 29.3182 34.4954 28.0775 37.6331 27.592C34.5404 29.3542 32.7962 32.2401 32.7962 34.6585C32.7962 38.5334 35.1338 38.0748 35.835 37.5085V59.9575C35.9519 60.2362 36.1047 60.5059 36.2845 60.7486C36.9139 61.6207 37.9298 62.1332 38.9996 62.1152C41.3461 62.1152 44.3849 59.436 44.3849 59.436V41.2574C44.3849 39.4054 42.9914 37.1758 41.5979 36.4116C41.5979 36.4116 44.1781 35.9621 46.174 37.4815C46.5516 37.023 46.9471 36.5824 47.3697 36.1689C52.0087 31.6107 56.396 30.3161 60.0462 29.6688C60.0462 29.6688 53.4023 34.8833 53.4023 41.8778C53.4023 47.0832 53.5371 59.7687 53.5371 59.7687C56.0095 62.1421 59.6686 58.7168 62.977 55.3095L62.986 55.3184Z" fill="white"/>
<path fill-rule="evenodd" clip-rule="evenodd" d="M40.9955 13C20.5603 13 4 29.5693 4 50.0045C4 70.4397 20.5693 87 41.0045 87C61.4397 87 78 70.4307 78 49.9955C78 29.5603 61.4397 13 41.0045 13H40.9955ZM40.9955 85.5166C21.3784 85.5166 5.47443 69.6126 5.47443 49.9955C5.47443 30.3784 21.3784 14.4744 40.9955 14.4744C60.6126 14.4744 76.5166 30.3784 76.5166 49.9955C76.5166 69.6126 60.6126 85.5166 40.9955 85.5166Z" fill="white"/>
<path d="M222.945 38.7521V43.4245H192.574V38.7521H198.864V31.0965C196.474 29.5151 195.036 27.1789 195.054 24.3036C195.036 18.8045 200.427 15.1564 207.742 15.1744C214.984 15.1564 220.465 18.8045 220.465 24.3036C220.465 27.143 219.045 29.4612 216.691 31.0426V38.7521H222.945ZM200.769 24.3036C200.751 27.3047 203.411 28.994 207.742 29.0119C211.983 28.994 214.714 27.3047 214.75 24.3036C214.714 21.2306 211.983 19.6491 207.742 19.6671C203.411 19.6491 200.751 21.2306 200.769 24.3036ZM204.579 38.7521H210.904V33.1812C209.898 33.3429 208.838 33.4328 207.742 33.4328C206.645 33.4328 205.585 33.3429 204.579 33.1812V38.7521Z" fill="white"/>
<path d="M173.492 18.481V23.0097H157.786V18.481H162.889V14.7071H168.532V18.481H173.492ZM158.289 32.1029C158.307 27.3945 161.452 24.034 165.729 24.016C170.042 24.034 173.097 27.3945 173.097 32.1029C173.097 36.8832 170.042 40.2437 165.729 40.2617C161.452 40.2437 158.307 36.8832 158.289 32.1029ZM163.357 32.1029C163.357 34.3852 164.273 35.4095 165.729 35.4095C167.13 35.4095 168.047 34.3852 168.065 32.1029C168.047 29.8925 167.13 28.7603 165.729 28.7963C164.273 28.7603 163.357 29.8925 163.357 32.1029ZM174.391 45.7607V14.3837H179.782V27.0711H181.363V13.8086H186.827V47.0546H181.363V31.5997H179.782V45.7607H174.391Z" fill="white"/>
<path d="M142.046 15.5338V20.0984H136.007C136.313 23.405 138.236 26.8375 143.411 28.4369L140.5 32.8936C136.942 31.7974 134.552 29.6409 133.114 26.9632C131.623 29.8925 129.143 32.2287 125.369 33.3968L122.35 28.976C127.669 27.3406 129.7 23.6386 130.059 20.0984H123.859V15.5338H142.046ZM126.914 39.6507V35.0861H149.665V47.0546H143.879V39.6507H126.914ZM143.879 33.9V13.8086H149.665V21.4282H153.799V26.1725H149.665V33.9H143.879Z" fill="white"/>
<path d="M101.974 20.4578C101.938 26.5859 103.843 32.7139 109.989 35.1939L106.646 39.8304C102.98 38.231 100.572 35.3556 99.1166 31.7615C97.6789 35.7869 95.163 38.9857 91.1555 40.7289L87.7051 35.9487C94.0847 33.3968 96.0795 27.0172 96.1154 20.4578V16.1807H101.974V20.4578ZM110.564 47.1625V13.8086H116.387V47.1625H110.564Z" fill="white"/>
<path d="M185.757 53.0667V69.492H180.006V63.8492H175.352C174.256 67.1378 170.931 69.2943 166.816 69.2764C161.712 69.2943 157.794 66.0955 157.83 61.5129C157.794 57.0921 161.712 53.8933 166.816 53.8933C170.931 53.8933 174.292 56.0498 175.37 59.2846H180.006V53.0667H185.757ZM163.293 86.0252V76.1772H180.006V75.0989H163.293V70.714H185.757V80.3464H169.116V81.5325H186.548V86.0252H163.293ZM163.293 61.5129C163.258 63.6694 164.731 64.6758 166.816 64.6758C168.828 64.6758 170.23 63.6694 170.266 61.5129C170.23 59.5362 168.828 58.5298 166.816 58.4938C164.731 58.5298 163.258 59.5362 163.293 61.5129Z" fill="white"/>
<path d="M150.825 53.0667V86.4205H145.074V53.0667H150.825ZM124.408 78.8009V64.6399H134.507V60.2909H124.408V55.6904H140.402V69.1326H130.374V74.1105C135.118 74.0566 139.018 73.7691 143.241 73.0502L143.708 77.6867C138.677 78.6392 133.824 78.8189 127.535 78.8009H124.408Z" fill="white"/>
<path d="M116.252 53.1384V77.3272H110.501V66.1853H105.847C104.75 69.8333 101.336 72.3313 97.3104 72.3313C92.2426 72.3313 88.289 68.6473 88.325 63.6693C88.289 58.6375 92.2426 55.0433 97.3104 55.0433C101.48 55.0433 105.002 57.6491 105.954 61.5488H110.501V53.1384H116.252ZM93.7521 85.8454V74.8831H99.5028V81.2448H116.97V85.8454H93.7521ZM93.7881 63.6693C93.7521 66.0595 95.3156 67.3713 97.3104 67.3713C99.2333 67.3713 100.725 66.0595 100.761 63.6693C100.725 61.2253 99.2333 60.0572 97.3104 60.0752C95.3156 60.0572 93.7521 61.2253 93.7881 63.6693Z" fill="white"/>
<path d="M197.107 85.5644V83.5702L206.488 73.9983C209.718 70.719 213.125 67.3067 213.125 63.0082C213.125 58.754 210.514 56.0951 206.311 56.0951C202.018 56.0951 199.186 58.9313 199.142 63.7616H196.885C196.885 57.4246 200.956 53.8794 206.311 53.8794C211.975 53.8794 215.515 57.6018 215.515 63.0082C215.515 68.2817 211.444 72.137 208.258 75.372L200.381 83.3487H216.178V85.5644H197.107Z" fill="white"/>
<path d="M232.312 84.0134C237.002 84.0134 239.79 81 239.79 76.4799V63.6729C239.79 59.1085 237.002 56.0951 232.312 56.0951C227.621 56.0951 224.878 59.1085 224.878 63.6729V76.4799C224.878 81 227.621 84.0134 232.312 84.0134ZM232.312 86.2291C226.294 86.2291 222.488 82.5953 222.488 76.3469V63.7616C222.488 57.5132 226.294 53.8794 232.312 53.8794C238.33 53.8794 242.179 57.5132 242.179 63.7616V76.3469C242.179 82.5953 238.33 86.2291 232.312 86.2291Z" fill="white"/>
<path d="M248.228 85.5644V83.5702L257.609 73.9983C260.839 70.719 264.246 67.3067 264.246 63.0082C264.246 58.754 261.635 56.0951 257.432 56.0951C253.139 56.0951 250.307 58.9313 250.263 63.7616H248.006C248.006 57.4246 252.077 53.8794 257.432 53.8794C263.096 53.8794 266.636 57.6018 266.636 63.0082C266.636 68.2817 262.565 72.137 259.379 75.372L251.502 83.3487H267.299V85.5644H248.228Z" fill="white"/>
<path d="M285.364 85.5644V78.3411H270.672V76.4356L282.974 54.5441H285.098V55.4304L273.416 76.1254H285.364V67.3511H287.753V76.1254H291.913V78.3411H287.753V85.5644H285.364Z" fill="white"/>
</svg>
