<svg width="41" height="41" viewBox="0 0 41 41" fill="none" xmlns="http://www.w3.org/2000/svg">
<mask id="mask0_3186_637" style="mask-type:alpha" maskUnits="userSpaceOnUse" x="0" y="0" width="41" height="41">
<rect x="0.093689" y="0.340088" width="40.3199" height="40.3199" fill="#00CFC9"/>
</mask>
<g mask="url(#mask0_3186_637)">
<path d="M20.4999 1.50024C9.72889 1.50024 0.999939 10.2292 0.999939 21.0002C0.999939 31.7713 9.72889 40.5002 20.4999 40.5002C31.271 40.5002 39.9999 31.7713 39.9999 21.0002C39.9999 10.2292 31.271 1.50024 20.4999 1.50024ZM30.5502 21.0403C30.5502 26.566 26.0256 31.0906 20.4999 31.0906C14.9743 31.0906 10.4496 26.566 10.4496 21.0403L10.4897 20.5598C10.6098 18.0372 11.6108 15.7148 13.4127 13.913C13.9732 13.3524 14.9743 13.3524 15.5749 13.913C15.8552 14.1933 16.0153 14.5937 16.0153 14.9941C16.0153 15.3945 15.8552 15.7949 15.5749 16.0752C13.693 17.9571 13.0523 20.6799 13.8932 23.2425L13.9732 23.4828C14.9743 26.2056 17.5769 28.0475 20.4999 28.0475C24.3839 28.0475 27.5071 24.8842 27.5071 21.0403C27.5071 19.1584 26.7864 17.4366 25.5051 16.1152V17.7169C25.5051 18.5577 24.8244 19.2384 23.9835 19.2384C23.1427 19.2384 22.462 18.5577 22.462 17.7169V12.4315C22.462 11.5906 23.1427 10.9099 23.9835 10.9099H29.0287C29.8696 10.9099 30.5502 11.5906 30.5502 12.4315C30.5502 13.2723 29.8696 13.953 29.0287 13.953H27.6273C29.5092 15.8349 30.5502 18.3575 30.5502 21.0403Z" fill="white"/>
</g>
</svg>
