<svg width="57" height="56" viewBox="0 0 57 56" fill="none" xmlns="http://www.w3.org/2000/svg">
<path d="M52.0401 18.8635C53.0171 18.8635 53.8067 18.0739 53.8067 17.0969V16.6734C53.8067 15.6964 53.0171 14.9002 52.0401 14.9002H50.8933C51.9651 14.0357 52.6554 12.7102 52.6554 11.2303C52.6554 8.62779 50.5316 6.50391 47.9291 6.50391C45.32 6.50391 43.2027 8.62779 43.2027 11.2303C43.2027 12.7102 43.8864 14.0357 44.9583 14.9002H43.8115C42.8521 14.9002 42.0735 15.6744 42.0449 16.6271C41.7626 16.8587 41.4582 17.0903 41.1406 17.3219C40.8472 17.0109 40.4679 16.8014 40.0445 16.7242C39.5129 16.6271 38.977 16.7462 38.5315 17.0506C38.108 17.3439 37.6736 17.6152 37.2214 17.8644C37.1707 17.8931 37.12 17.9218 37.0626 17.9482C31.8466 20.8044 25.0822 20.8044 19.8641 17.9593C19.8068 17.9306 19.7561 17.8975 19.7009 17.8688C19.2488 17.6196 18.8209 17.3483 18.3975 17.055C17.9564 16.744 17.427 16.6249 16.8955 16.7154C16.461 16.7948 16.0817 17.0087 15.7884 17.3197C15.634 17.205 15.4818 17.0903 15.3296 16.9778C15.1775 16.8587 15.0297 16.7396 14.8885 16.6271C14.8599 15.6722 14.0813 14.9002 13.1219 14.9002H11.9751C13.047 14.0357 13.7307 12.7102 13.7307 11.2303C13.7307 8.62779 11.6134 6.50391 9.00432 6.50391C6.40182 6.50391 4.28454 8.62779 4.28454 11.2303C4.28454 12.7102 4.96823 14.0357 6.04013 14.9002H4.8955C3.91845 14.9002 3.12891 15.6964 3.12891 16.6734V17.0969C3.12891 18.0739 3.91845 18.8635 4.8955 18.8635H6.96208V45.649H6.07548C4.64634 45.649 3.47738 46.8113 3.47738 48.2471V49.2793C3.47738 49.5726 3.71558 49.8108 4.00891 49.8108H14.0087C14.302 49.8108 14.5402 49.5726 14.5402 49.2793V48.2471C14.5402 47.7112 14.377 47.2083 14.0947 46.7959C13.6271 46.1011 12.8353 45.6491 11.9443 45.6491H11.0577L11.0555 18.8635H13.1221C13.8278 18.8635 14.4365 18.4467 14.7188 17.8424C14.8997 17.9769 15.0916 18.1181 15.2835 18.2548C15.1026 19.04 15.4025 19.8913 16.0907 20.3721C16.9817 20.9941 17.9433 21.541 18.9468 22.0152L15.3783 46.0946C15.3563 46.2467 15.4004 46.3989 15.5018 46.518C15.5128 46.529 15.5239 46.5467 15.5415 46.5577C15.5592 46.5754 15.5702 46.5864 15.5856 46.5974C15.676 46.6658 15.7885 46.6989 15.901 46.6989H41.026C41.0988 46.6989 41.1782 46.6812 41.2466 46.6548C41.3149 46.6217 41.3767 46.5754 41.4274 46.5202C41.5289 46.4011 41.5752 46.249 41.5509 46.0968L37.989 22.0107C38.9947 21.5431 39.9475 20.9939 40.8407 20.3742V20.3676C41.5244 19.8934 41.8222 19.0531 41.648 18.2613C41.8398 18.1202 42.0317 17.9856 42.2126 17.8445C42.4949 18.4488 43.1036 18.8656 43.8093 18.8656H45.8759V45.6511H44.9893C44.0983 45.6511 43.3065 46.1033 42.8389 46.798C42.5566 47.2104 42.3934 47.7132 42.3934 48.2492V49.2813C42.3934 49.5747 42.6316 49.8129 42.925 49.8129H52.9247C53.218 49.8129 53.4562 49.5747 53.4562 49.2813V48.2492C53.4562 46.8156 52.2873 45.6511 50.8581 45.6511H49.9715L49.9738 18.8633L52.0401 18.8635ZM9.00633 9.56949C8.09104 9.56949 7.34559 10.3149 7.34559 11.2302C7.34559 11.5236 7.1074 11.7618 6.82068 11.7618C6.52735 11.7618 6.28916 11.5236 6.28916 11.2302C6.28916 9.73492 7.50882 8.51526 9.00412 8.51526C9.29745 8.51526 9.53565 8.75345 9.53565 9.04017C9.53565 9.3335 9.29966 9.56949 9.00633 9.56949ZM40.4216 45.649H16.5139L19.9456 22.4493C22.5834 23.5322 25.5035 24.1078 28.4678 24.1078C28.9993 24.1078 29.5176 24.0902 30.0426 24.0505C30.0867 24.0439 30.1396 24.0439 30.1837 24.0395C32.5546 23.8652 34.8638 23.3227 36.9923 22.4471L40.4216 45.649ZM49.5282 11.23C49.5282 10.3147 48.7827 9.56927 47.8674 9.56927C47.5741 9.56927 47.3359 9.33107 47.3359 9.03774C47.3359 8.74882 47.5741 8.51283 47.8674 8.51283C49.3627 8.51283 50.5824 9.7325 50.5824 11.2278C50.5824 11.5211 50.3442 11.7593 50.0509 11.7593C49.7641 11.7615 49.5282 11.5233 49.5282 11.23Z" fill="white"/>
</svg>
