<svg width="79" height="79" viewBox="0 0 79 79" fill="none" xmlns="http://www.w3.org/2000/svg">
<path d="M72.5022 26.3133C73.8866 26.3133 75.0053 25.1945 75.0053 23.8101V23.2101C75.0053 21.8257 73.8866 20.6977 72.5022 20.6977H70.8773C72.396 19.4727 73.3741 17.5945 73.3741 15.4977C73.3741 11.8101 70.3648 8.80078 66.6773 8.80078C62.9804 8.80078 59.9804 11.8101 59.9804 15.4977C59.9804 17.5945 60.9491 19.4727 62.4679 20.6977H60.843C59.4836 20.6977 58.3805 21.7945 58.3398 23.1445C57.9398 23.4727 57.5085 23.8008 57.0585 24.1289C56.6429 23.6883 56.1054 23.3914 55.5054 23.2821C54.7523 23.1446 53.993 23.3133 53.3617 23.7446C52.7617 24.1602 52.1461 24.5446 51.5054 24.8977C51.4336 24.9383 51.3617 24.9789 51.2804 25.0164C43.8898 29.0633 34.3052 29.0633 26.9116 25.0321C26.8304 24.9914 26.7585 24.9445 26.6804 24.9039C26.0398 24.5508 25.4335 24.1664 24.8335 23.7508C24.2085 23.3102 23.4585 23.1414 22.7053 23.2696C22.0897 23.3821 21.5522 23.6852 21.1366 24.1258C20.9179 23.9633 20.7022 23.8008 20.4866 23.6414C20.271 23.4727 20.0616 23.3039 19.8616 23.1445C19.821 21.7914 18.7179 20.6977 17.3585 20.6977H15.7335C17.2523 19.4727 18.2211 17.5945 18.2211 15.4977C18.2211 11.8101 15.2211 8.80079 11.5242 8.80079C7.83666 8.80079 4.83666 11.8101 4.83666 15.4977C4.83666 17.5945 5.80538 19.4727 7.32418 20.6977H5.70234C4.31794 20.6977 3.19922 21.8258 3.19922 23.2102V23.8102C3.19922 25.1945 4.31794 26.3133 5.70234 26.3133H8.6305V64.2661H7.37426C5.3493 64.2661 3.69298 65.913 3.69298 67.9474V69.4098C3.69298 69.8255 4.03048 70.163 4.44611 70.163H18.6149C19.0305 70.163 19.368 69.8255 19.368 69.4098V67.9474C19.368 67.188 19.1368 66.4755 18.7368 65.8911C18.0743 64.9067 16.9524 64.2662 15.6899 64.2662H14.4337L14.4305 26.3134H17.3587C18.3587 26.3134 19.2212 25.7227 19.6212 24.8665C19.8774 25.0571 20.1493 25.2571 20.4212 25.4508C20.1649 26.5633 20.5899 27.7696 21.5649 28.4508C22.8274 29.3321 24.1899 30.1071 25.6118 30.779L20.5556 64.8974C20.5243 65.113 20.5868 65.3287 20.7306 65.4974C20.7462 65.513 20.7618 65.538 20.7868 65.5537C20.8118 65.5787 20.8275 65.5943 20.8493 65.6099C20.9775 65.7068 21.1368 65.7537 21.2962 65.7537H56.8962C56.9993 65.7537 57.1118 65.7287 57.2087 65.6912C57.3056 65.6443 57.3931 65.5787 57.4649 65.5005C57.6087 65.3318 57.6743 65.1162 57.6399 64.9005L52.5931 30.7725C54.018 30.11 55.3681 29.3319 56.6337 28.4538V28.4444C57.6024 27.7726 58.0244 26.582 57.7775 25.46C58.0493 25.26 58.3212 25.0694 58.5775 24.8694C58.9775 25.7257 59.8399 26.3163 60.8399 26.3163H63.7681V64.2691H62.5119C61.2494 64.2691 60.1275 64.9097 59.465 65.8941C59.065 66.4784 58.8337 67.1909 58.8337 67.9503V69.4128C58.8337 69.8284 59.1712 70.1659 59.5869 70.1659H73.7557C74.1713 70.1659 74.5088 69.8284 74.5088 69.4128V67.9503C74.5088 65.919 72.8526 64.269 70.8275 64.269H69.5713L69.5744 26.313L72.5022 26.3133ZM11.527 13.1445C10.2301 13.1445 9.17391 14.2007 9.17391 15.4976C9.17391 15.9132 8.8364 16.2507 8.43015 16.2507C8.01453 16.2507 7.67703 15.9132 7.67703 15.4976C7.67703 13.3789 9.40519 11.6507 11.5239 11.6507C11.9395 11.6507 12.277 11.9882 12.277 12.3945C12.277 12.8101 11.9427 13.1445 11.527 13.1445ZM56.0398 64.2661H22.1646L27.0271 31.3941C30.7646 32.9285 34.9021 33.7441 39.1023 33.7441C39.8554 33.7441 40.5898 33.7191 41.3336 33.6628C41.3961 33.6534 41.4711 33.6534 41.5336 33.6472C44.8929 33.4003 48.1649 32.6316 51.1808 31.3909L56.0398 64.2661ZM68.943 15.4973C68.943 14.2004 67.8868 13.1441 66.5899 13.1441C66.1743 13.1441 65.8368 12.8066 65.8368 12.391C65.8368 11.9816 66.1743 11.6473 66.5899 11.6473C68.7086 11.6473 70.4368 13.3754 70.4368 15.4941C70.4368 15.9098 70.0993 16.2473 69.6837 16.2473C69.2774 16.2504 68.943 15.9129 68.943 15.4973Z" fill="white"/>
</svg>
