<svg width="28" height="20" viewBox="0 0 28 20" fill="none" xmlns="http://www.w3.org/2000/svg">
<path d="M27.9141 6.92202L27.9141 3.69636C27.9141 2.93591 27.612 2.20662 27.0743 1.6689C26.5365 1.13119 25.8072 0.829101 25.0468 0.829101L2.90521 0.8291C2.14477 0.8291 1.41547 1.13119 0.877756 1.6689C0.34004 2.20662 0.0379561 2.93591 0.0379561 3.69636L0.037956 6.92202C0.0379559 7.68246 0.34004 8.41176 0.877756 8.94948C1.41547 9.48719 2.14477 9.78928 2.90521 9.78928L25.0468 9.78928C25.8072 9.78928 26.5365 9.48719 27.0743 8.94948C27.612 8.41176 27.9141 7.68247 27.9141 6.92202ZM2.90521 7.79813C2.67366 7.79554 2.45232 7.70241 2.28857 7.53866C2.12483 7.37492 2.03169 7.15358 2.02911 6.92202L2.02911 3.69636C2.03169 3.4648 2.12483 3.24346 2.28857 3.07972C2.45232 2.91597 2.67366 2.82284 2.90521 2.82025L25.0468 2.82025C25.2784 2.82284 25.4997 2.91597 25.6634 3.07972C25.8272 3.24346 25.9203 3.4648 25.9229 3.69636L25.9229 6.92202C25.9203 7.15358 25.8272 7.37492 25.6634 7.53866C25.4997 7.70241 25.2784 7.79554 25.0468 7.79813L2.90521 7.79813Z" fill="white"/>
<path d="M27.9141 16.8781L27.9141 13.6524C27.9141 12.892 27.612 12.1627 27.0743 11.625C26.5365 11.0872 25.8072 10.7852 25.0468 10.7852L2.90521 10.7852C2.14477 10.7852 1.41547 11.0872 0.877756 11.625C0.34004 12.1627 0.0379561 12.892 0.0379561 13.6524L0.037956 16.8781C0.037956 17.2546 0.112119 17.6275 0.256212 17.9753C0.400304 18.3232 0.611505 18.6393 0.877756 18.9055C1.144 19.1718 1.46009 19.383 1.80796 19.5271C2.15583 19.6712 2.52868 19.7453 2.90521 19.7453L25.0468 19.7453C25.8072 19.7453 26.5365 19.4432 27.0743 18.9055C27.612 18.3678 27.9141 17.6385 27.9141 16.8781ZM2.90521 17.7542C2.67366 17.7516 2.45232 17.6585 2.28857 17.4947C2.12483 17.331 2.03169 17.1096 2.02911 16.8781L2.02911 13.6524C2.03169 13.4209 2.12483 13.1995 2.28857 13.0358C2.45232 12.872 2.67366 12.7789 2.90521 12.7763L25.0468 12.7763C25.2784 12.7789 25.4997 12.872 25.6634 13.0358C25.8272 13.1995 25.9203 13.4209 25.9229 13.6524L25.9229 16.8781C25.9203 17.1096 25.8272 17.331 25.6634 17.4947C25.4997 17.6585 25.2784 17.7516 25.0468 17.7542L2.90521 17.7542Z" fill="white"/>
</svg>
