<svg width="33" height="33" viewBox="0 0 33 33" fill="none" xmlns="http://www.w3.org/2000/svg">
<path d="M30.8066 18.2326L30.8066 15.0069C30.8066 14.2465 30.5046 13.5172 29.9668 12.9794C29.4291 12.4417 28.6998 12.1396 27.9394 12.1396L5.79779 12.1396C5.03735 12.1396 4.30805 12.4417 3.77033 12.9794C3.23262 13.5172 2.93053 14.2465 2.93053 15.0069L2.93053 18.2326C2.93053 18.6091 3.0047 18.9819 3.14879 19.3298C3.29288 19.6777 3.50408 19.9938 3.77033 20.26C4.03658 20.5263 4.35267 20.7375 4.70054 20.8816C5.04841 21.0257 5.42125 21.0998 5.79779 21.0998L27.9394 21.0998C28.6998 21.0998 29.4291 20.7977 29.9668 20.26C30.5046 19.7223 30.8066 18.993 30.8066 18.2326ZM5.79779 19.1087C5.56623 19.1061 5.34489 19.013 5.18115 18.8492C5.01741 18.6855 4.92427 18.4641 4.92168 18.2326L4.92168 15.0069C4.92427 14.7753 5.01741 14.554 5.18115 14.3903C5.34489 14.2265 5.56623 14.1334 5.79779 14.1308L27.9394 14.1308C28.1709 14.1334 28.3923 14.2265 28.556 14.3903C28.7198 14.554 28.8129 14.7753 28.8155 15.0069L28.8155 18.2326C28.8129 18.4641 28.7198 18.6855 28.556 18.8492C28.3923 19.013 28.1709 19.1061 27.9394 19.1087L5.79779 19.1087Z" fill="white"/>
</svg>
