<svg width="49" height="49" viewBox="0 0 49 49" fill="none" xmlns="http://www.w3.org/2000/svg">
<mask id="mask0_2498_1438" style="mask-type:alpha" maskUnits="userSpaceOnUse" x="0" y="0" width="49" height="49">
<rect x="0.314941" y="0.312988" width="48.4372" height="48.4372" fill="#D9D9D9"/>
</mask>
<g mask="url(#mask0_2498_1438)">
<path d="M15.9109 19.7493L21.2077 20.0492C21.8407 20.0658 22.3487 20.299 22.7318 20.7487C23.1316 21.1818 23.3314 21.6815 23.3314 22.2478C23.3314 22.9641 23.0233 23.5471 22.407 23.9968L18.3345 27.2948L19.7336 32.4917C19.7836 32.6915 19.8086 32.8831 19.8086 33.0663C19.8086 33.6826 19.5837 34.2073 19.134 34.6404C18.6842 35.0734 18.1512 35.29 17.5349 35.29C17.1019 35.29 16.7021 35.1734 16.3357 34.9402L11.8883 31.992L7.41603 34.9402C7.06624 35.1734 6.67481 35.29 6.24174 35.29C5.6421 35.29 5.11741 35.0734 4.66769 34.6404C4.21796 34.224 3.99309 33.7159 3.99309 33.1163C3.99309 32.8831 4.02641 32.6666 4.09303 32.4667L5.44222 27.3198L1.3197 23.9718C0.753378 23.5387 0.470215 22.9641 0.470215 22.2478C0.470215 21.6815 0.661766 21.1818 1.04487 20.7487C1.42797 20.299 1.92767 20.0658 2.54397 20.0492L7.89074 19.7493L9.81459 14.7773C9.98115 14.2943 10.256 13.9278 10.6391 13.678C11.0222 13.4281 11.4386 13.3032 11.8883 13.3032C12.3547 13.3032 12.7711 13.4281 13.1376 13.678C13.5207 13.9278 13.7955 14.2943 13.9621 14.7773L15.9109 19.7493ZM8.74023 26.2204L7.36606 31.4673L11.8883 28.4941L16.4606 31.5422L15.0364 26.2454L19.2089 22.8475L13.8621 22.5477L11.8883 17.5007L9.93951 22.5477L4.56775 22.8475L8.74023 26.2204Z" fill="#FFC63B"/>
<path d="M40.8948 19.7493L46.1916 20.0492C46.8246 20.0658 47.3326 20.299 47.7157 20.7487C48.1154 21.1818 48.3153 21.6815 48.3153 22.2478C48.3153 22.9641 48.0072 23.5471 47.3909 23.9968L43.3183 27.2948L44.7175 32.4917C44.7675 32.6915 44.7924 32.8831 44.7924 33.0663C44.7924 33.6826 44.5676 34.2073 44.1179 34.6404C43.6681 35.0734 43.1351 35.29 42.5188 35.29C42.0857 35.29 41.686 35.1734 41.3195 34.9402L36.8722 31.992L32.3999 34.9402C32.0501 35.1734 31.6587 35.29 31.2256 35.29C30.626 35.29 30.1013 35.0734 29.6516 34.6404C29.2018 34.224 28.977 33.7159 28.977 33.1163C28.977 32.8831 29.0103 32.6666 29.0769 32.4667L30.4261 27.3198L26.3036 23.9718C25.7373 23.5387 25.4541 22.9641 25.4541 22.2478C25.4541 21.6815 25.6457 21.1818 26.0288 20.7487C26.4119 20.299 26.9116 20.0658 27.5279 20.0492L32.8746 19.7493L34.7985 14.7773C34.965 14.2943 35.2399 13.9278 35.623 13.678C36.0061 13.4281 36.4225 13.3032 36.8722 13.3032C37.3386 13.3032 37.755 13.4281 38.1215 13.678C38.5046 13.9278 38.7794 14.2943 38.946 14.7773L40.8948 19.7493ZM33.7241 26.2204L32.3499 31.4673L36.8722 28.4941L41.4445 31.5422L40.0203 26.2454L44.1928 22.8475L38.846 22.5477L36.8722 17.5007L34.9234 22.5477L29.5516 22.8475L33.7241 26.2204Z" fill="#FFC63B"/>
</g>
</svg>
