<svg width="49" height="49" viewBox="0 0 49 49" fill="none" xmlns="http://www.w3.org/2000/svg">
<mask id="mask0_2498_1433" style="mask-type:alpha" maskUnits="userSpaceOnUse" x="0" y="0" width="49" height="49">
<rect x="0.314941" y="0.17627" width="48.4372" height="48.4372" fill="#FFC63B"/>
</mask>
<g mask="url(#mask0_2498_1433)">
<path d="M31.4775 16.6808L40.1091 17.1694C41.1406 17.1965 41.9684 17.5765 42.5927 18.3094C43.2442 19.0152 43.5699 19.8295 43.5699 20.7523C43.5699 21.9195 43.0678 22.8695 42.0634 23.6024L35.4269 28.9768L37.7069 37.4456C37.7883 37.7713 37.8291 38.0835 37.8291 38.3821C37.8291 39.3864 37.4626 40.2414 36.7297 40.9471C35.9969 41.6528 35.1283 42.0057 34.124 42.0057C33.4182 42.0057 32.7668 41.8157 32.1696 41.4357L24.9223 36.6313L17.6343 41.4357C17.0643 41.8157 16.4264 42.0057 15.7207 42.0057C14.7435 42.0057 13.8885 41.6528 13.1556 40.9471C12.4227 40.2685 12.0563 39.4406 12.0563 38.4635C12.0563 38.0835 12.1106 37.7306 12.2191 37.4049L14.4178 29.0175L7.69975 23.5617C6.77687 22.856 6.31543 21.9195 6.31543 20.7523C6.31543 19.8295 6.62758 19.0152 7.25188 18.3094C7.87618 17.5765 8.69049 17.1965 9.6948 17.1694L18.4079 16.6808L21.5429 8.57847C21.8144 7.79131 22.2622 7.19415 22.8865 6.787C23.5108 6.37985 24.1894 6.17627 24.9223 6.17627C25.6823 6.17627 26.3609 6.37985 26.9581 6.787C27.5824 7.19415 28.0302 7.79131 28.3017 8.57847L31.4775 16.6808ZM19.7922 27.2261L17.5528 35.7763L24.9223 30.9312L32.3732 35.8984L30.0524 27.2668L36.8519 21.7295L28.1388 21.2409L24.9223 13.0164L21.7465 21.2409L12.9927 21.7295L19.7922 27.2261Z" fill="#FFC63B"/>
</g>
</svg>
