<svg width="49" height="49" viewBox="0 0 49 49" fill="none" xmlns="http://www.w3.org/2000/svg">
<mask id="mask0_2498_1445" style="mask-type:alpha" maskUnits="userSpaceOnUse" x="0" y="0" width="49" height="49">
<rect x="0.314941" y="0.449707" width="48.4372" height="48.4372" fill="#FFC63B"/>
</mask>
<g mask="url(#mask0_2498_1445)">
<path d="M28.5906 8.97451L33.9521 9.27799C34.5928 9.29485 35.107 9.53089 35.4948 9.98611C35.8994 10.4245 36.1017 10.9303 36.1017 11.5035C36.1017 12.2285 35.7898 12.8186 35.166 13.2738L31.0437 16.6121L32.46 21.8724C32.5105 22.0747 32.5358 22.2686 32.5358 22.454C32.5358 23.0779 32.3082 23.609 31.853 24.0473C31.3978 24.4857 30.8583 24.7048 30.2345 24.7048C29.7961 24.7048 29.3915 24.5868 29.0205 24.3508L24.5189 21.3666L19.992 24.3508C19.638 24.5868 19.2418 24.7048 18.8034 24.7048C18.1964 24.7048 17.6654 24.4857 17.2101 24.0473C16.7549 23.6258 16.5273 23.1116 16.5273 22.5046C16.5273 22.2686 16.561 22.0494 16.6285 21.8471L17.9941 16.6374L13.8213 13.2485C13.248 12.8102 12.9614 12.2285 12.9614 11.5035C12.9614 10.9303 13.1553 10.4245 13.5431 9.98611C13.9309 9.53089 14.4367 9.29485 15.0605 9.27799L20.4725 8.97451L22.4199 3.94181C22.5885 3.45288 22.8667 3.08196 23.2544 2.82906C23.6422 2.57616 24.0637 2.44971 24.5189 2.44971C24.991 2.44971 25.4125 2.57616 25.7834 2.82906C26.1712 3.08196 26.4494 3.45288 26.618 3.94181L28.5906 8.97451ZM21.3324 15.5246L19.9414 20.8355L24.5189 17.826L29.147 20.9114L27.7055 15.5499L31.9289 12.1105L26.5168 11.807L24.5189 6.69842L22.5463 11.807L17.109 12.1105L21.3324 15.5246Z" fill="#FFC63B"/>
<path d="M15.9441 31.7348L21.3056 32.0382C21.9463 32.0551 22.4605 32.2911 22.8483 32.7464C23.2529 33.1847 23.4552 33.6905 23.4552 34.2638C23.4552 34.9887 23.1433 35.5788 22.5195 36.0341L18.3972 39.3723L19.8135 44.6326C19.8641 44.835 19.8894 45.0288 19.8894 45.2143C19.8894 45.8381 19.6617 46.3692 19.2065 46.8076C18.7513 47.2459 18.2118 47.4651 17.588 47.4651C17.1496 47.4651 16.745 47.3471 16.3741 47.111L11.8724 44.1268L7.34554 47.111C6.99148 47.3471 6.59528 47.4651 6.15692 47.4651C5.54996 47.4651 5.01887 47.2459 4.56365 46.8076C4.10843 46.3861 3.88082 45.8718 3.88082 45.2649C3.88082 45.0288 3.91454 44.8097 3.98198 44.6073L5.34764 39.3976L1.1748 36.0088C0.601561 35.5704 0.314941 34.9887 0.314941 34.2638C0.314941 33.6905 0.508831 33.1847 0.89661 32.7464C1.28439 32.2911 1.79019 32.0551 2.41401 32.0382L7.82605 31.7348L9.77338 26.7021C9.94198 26.2131 10.2202 25.8422 10.6079 25.5893C10.9957 25.3364 11.4172 25.21 11.8724 25.21C12.3445 25.21 12.766 25.3364 13.1369 25.5893C13.5247 25.8422 13.8029 26.2131 13.9715 26.7021L15.9441 31.7348ZM8.68591 38.2849L7.29496 43.5957L11.8724 40.5862L16.5005 43.6716L15.059 38.3101L19.2824 34.8707L13.8703 34.5672L11.8724 29.4587L9.89983 34.5672L4.46249 34.8707L8.68591 38.2849Z" fill="#FFC63B"/>
<path d="M41.2371 31.7348L46.5986 32.0382C47.2392 32.0551 47.7535 32.2911 48.1412 32.7464C48.5459 33.1847 48.7482 33.6905 48.7482 34.2638C48.7482 34.9887 48.4363 35.5788 47.8125 36.0341L43.6902 39.3723L45.1064 44.6326C45.157 44.835 45.1823 45.0288 45.1823 45.2143C45.1823 45.8381 44.9547 46.3692 44.4995 46.8076C44.0443 47.2459 43.5048 47.4651 42.8809 47.4651C42.4426 47.4651 42.0379 47.3471 41.667 47.111L37.1654 44.1268L32.6385 47.111C32.2845 47.3471 31.8882 47.4651 31.4499 47.4651C30.8429 47.4651 30.3118 47.2459 29.8566 46.8076C29.4014 46.3861 29.1738 45.8718 29.1738 45.2649C29.1738 45.0288 29.2075 44.8097 29.275 44.6073L30.6406 39.3976L26.4678 36.0088C25.8945 35.5704 25.6079 34.9887 25.6079 34.2638C25.6079 33.6905 25.8018 33.1847 26.1896 32.7464C26.5774 32.2911 27.0832 32.0551 27.707 32.0382L33.119 31.7348L35.0663 26.7021C35.2349 26.2131 35.5131 25.8422 35.9009 25.5893C36.2887 25.3364 36.7102 25.21 37.1654 25.21C37.6375 25.21 38.059 25.3364 38.4299 25.5893C38.8177 25.8422 39.0959 26.2131 39.2645 26.7021L41.2371 31.7348ZM33.9789 38.2849L32.5879 43.5957L37.1654 40.5862L41.7935 43.6716L40.3519 38.3101L44.5754 34.8707L39.1633 34.5672L37.1654 29.4587L35.1928 34.5672L29.7555 34.8707L33.9789 38.2849Z" fill="#FFC63B"/>
</g>
</svg>
