<svg width="33" height="33" viewBox="0 0 33 33" fill="none" xmlns="http://www.w3.org/2000/svg">
<path d="M30.8066 7.84878L30.8066 4.62312C30.8066 3.86267 30.5046 3.13337 29.9668 2.59566C29.4291 2.05794 28.6998 1.75586 27.9394 1.75586L5.79779 1.75586C5.03735 1.75586 4.30805 2.05794 3.77033 2.59566C3.23262 3.13337 2.93053 3.86267 2.93053 4.62312L2.93053 7.84878C2.93053 8.60922 3.23262 9.33852 3.77033 9.87624C4.30805 10.4139 5.03735 10.716 5.79779 10.716L27.9394 10.716C28.6998 10.716 29.4291 10.414 29.9668 9.87624C30.5046 9.33852 30.8066 8.60922 30.8066 7.84878ZM5.79779 8.72488C5.56623 8.7223 5.34489 8.62916 5.18115 8.46542C5.01741 8.30167 4.92427 8.08033 4.92168 7.84878L4.92168 4.62312C4.92427 4.39156 5.01741 4.17022 5.18115 4.00648C5.34489 3.84273 5.56623 3.7496 5.79779 3.74701L27.9394 3.74701C28.1709 3.7496 28.3923 3.84273 28.556 4.00648C28.7198 4.17022 28.8129 4.39156 28.8155 4.62312L28.8155 7.84878C28.8129 8.08033 28.7198 8.30168 28.556 8.46542C28.3923 8.62916 28.1709 8.7223 27.9394 8.72489L5.79779 8.72488Z" fill="white"/>
<path d="M30.8066 17.8048L30.8066 14.5792C30.8066 13.8187 30.5046 13.0894 29.9668 12.5517C29.4291 12.014 28.6998 11.7119 27.9394 11.7119L5.79779 11.7119C5.03735 11.7119 4.30805 12.014 3.77033 12.5517C3.23262 13.0894 2.93053 13.8187 2.93053 14.5792L2.93053 17.8048C2.93053 18.1814 3.0047 18.5542 3.14879 18.9021C3.29288 19.25 3.50408 19.566 3.77033 19.8323C4.03658 20.0985 4.35267 20.3097 4.70054 20.4538C5.04841 20.5979 5.42125 20.6721 5.79779 20.6721L27.9394 20.6721C28.6998 20.6721 29.4291 20.37 29.9668 19.8323C30.5046 19.2946 30.8066 18.5653 30.8066 17.8048ZM5.79779 18.6809C5.56623 18.6784 5.34489 18.5852 5.18115 18.4215C5.01741 18.2577 4.92427 18.0364 4.92168 17.8048L4.92168 14.5792C4.92427 14.3476 5.01741 14.1263 5.18115 13.9625C5.34489 13.7988 5.56623 13.7057 5.79779 13.7031L27.9394 13.7031C28.1709 13.7057 28.3923 13.7988 28.556 13.9625C28.7198 14.1263 28.8129 14.3476 28.8155 14.5792L28.8155 17.8048C28.8129 18.0364 28.7198 18.2577 28.556 18.4215C28.3923 18.5852 28.1709 18.6784 27.9394 18.6809L5.79779 18.6809Z" fill="white"/>
<path d="M30.8066 27.7599L30.8066 24.5342C30.8066 23.7738 30.5046 23.0445 29.9668 22.5068C29.4291 21.9691 28.6998 21.667 27.9394 21.667L5.79779 21.667C5.03735 21.667 4.30805 21.9691 3.77033 22.5068C3.23262 23.0445 2.93053 23.7738 2.93053 24.5342L2.93053 27.7599C2.93053 28.1364 3.0047 28.5093 3.14879 28.8572C3.29288 29.205 3.50408 29.5211 3.77033 29.7874C4.03658 30.0536 4.35267 30.2648 4.70054 30.4089C5.04841 30.553 5.42125 30.6272 5.79779 30.6272L27.9394 30.6272C28.6998 30.6272 29.4291 30.3251 29.9668 29.7874C30.5046 29.2497 30.8066 28.5204 30.8066 27.7599ZM5.79779 28.636C5.56623 28.6334 5.34489 28.5403 5.18115 28.3766C5.01741 28.2128 4.92427 27.9915 4.92168 27.7599L4.92168 24.5342C4.92427 24.3027 5.01741 24.0814 5.18115 23.9176C5.34489 23.7539 5.56623 23.6607 5.79779 23.6581L27.9394 23.6581C28.1709 23.6607 28.3923 23.7539 28.556 23.9176C28.7198 24.0814 28.8129 24.3027 28.8155 24.5342L28.8155 27.7599C28.8129 27.9915 28.7198 28.2128 28.556 28.3766C28.3923 28.5403 28.1709 28.6334 27.9394 28.636L5.79779 28.636Z" fill="white"/>
</svg>
