<svg width="81" height="81" viewBox="0 0 81 81" fill="none" xmlns="http://www.w3.org/2000/svg">
<path d="M40.1813 7.56821L26.9267 20.8228L33.554 27.4501L46.8086 14.1955C52.2761 8.72799 61.223 8.72799 66.6905 14.1955C72.158 19.663 72.158 28.6099 66.6905 34.0774L53.4359 47.332L60.0632 53.9593L73.3178 40.7047C82.4635 31.559 82.4635 16.7139 73.3178 7.56821C64.1721 -1.57746 49.327 -1.57746 40.1813 7.56821ZM46.8086 53.9593L33.554 67.2139C28.0865 72.6814 19.1396 72.6814 13.6721 67.2139C8.20459 61.7464 8.20459 52.7995 13.6721 47.332L26.9267 34.0774L20.2994 27.4501L7.04481 40.7047C-2.10086 49.8504 -2.10086 64.6955 7.04481 73.8412C16.1905 82.9869 31.0356 82.9869 40.1813 73.8412L53.4359 60.5866L46.8086 53.9593ZM23.6131 50.6457L50.1223 24.1365L56.7495 30.7638L30.2404 57.2729L23.6131 50.6457Z" fill="#2A2A2A"/>
</svg>
