<svg width="80" height="80" viewBox="0 0 80 80" fill="none" xmlns="http://www.w3.org/2000/svg">
<g clip-path="url(#clip0_2388_11070)">
<path d="M80 40C80 17.9086 62.0914 0 40 0C17.9086 0 0 17.9086 0 40C0 59.9648 14.6273 76.5133 33.75 79.5141V51.5625H23.5938V40H33.75V31.1875C33.75 21.1625 39.7219 15.625 48.8586 15.625C53.2336 15.625 57.8125 16.4062 57.8125 16.4062V26.25H52.7687C47.8 26.25 46.25 29.3336 46.25 32.5V40H57.3438L55.5703 51.5625H46.25V79.5141C65.3727 76.5133 80 59.9648 80 40Z" fill="#2A2A2A"/>
</g>
<defs>
<clipPath id="clip0_2388_11070">
<rect width="80" height="80" fill="white"/>
</clipPath>
</defs>
</svg>
