<svg width="80" height="80" viewBox="0 0 80 80" fill="none" xmlns="http://www.w3.org/2000/svg">
<g clip-path="url(#clip0_2388_11072)">
<path d="M40 7.20312C50.6875 7.20312 51.9531 7.25 56.1563 7.4375C60.0625 7.60937 62.1719 8.26562 63.5781 8.8125C65.4375 9.53125 66.7813 10.4062 68.1719 11.7969C69.5781 13.2031 70.4375 14.5312 71.1563 16.3906C71.7031 17.7969 72.3594 19.9219 72.5313 23.8125C72.7188 28.0312 72.7656 29.2969 72.7656 39.9687C72.7656 50.6562 72.7188 51.9219 72.5313 56.125C72.3594 60.0312 71.7031 62.1406 71.1563 63.5469C70.4375 65.4062 69.5625 66.75 68.1719 68.1406C66.7656 69.5469 65.4375 70.4062 63.5781 71.125C62.1719 71.6719 60.0469 72.3281 56.1563 72.5C51.9375 72.6875 50.6719 72.7344 40 72.7344C29.3125 72.7344 28.0469 72.6875 23.8438 72.5C19.9375 72.3281 17.8281 71.6719 16.4219 71.125C14.5625 70.4062 13.2188 69.5312 11.8281 68.1406C10.4219 66.7344 9.5625 65.4062 8.84375 63.5469C8.29688 62.1406 7.64063 60.0156 7.46875 56.125C7.28125 51.9062 7.23438 50.6406 7.23438 39.9687C7.23438 29.2812 7.28125 28.0156 7.46875 23.8125C7.64063 19.9062 8.29688 17.7969 8.84375 16.3906C9.5625 14.5312 10.4375 13.1875 11.8281 11.7969C13.2344 10.3906 14.5625 9.53125 16.4219 8.8125C17.8281 8.26562 19.9531 7.60937 23.8438 7.4375C28.0469 7.25 29.3125 7.20312 40 7.20312ZM40 0C29.1406 0 27.7813 0.046875 23.5156 0.234375C19.2656 0.421875 16.3438 1.10937 13.8125 2.09375C11.1719 3.125 8.9375 4.48437 6.71875 6.71875C4.48438 8.9375 3.125 11.1719 2.09375 13.7969C1.10938 16.3438 0.421875 19.25 0.234375 23.5C0.046875 27.7812 0 29.1406 0 40C0 50.8594 0.046875 52.2187 0.234375 56.4844C0.421875 60.7344 1.10938 63.6562 2.09375 66.1875C3.125 68.8281 4.48438 71.0625 6.71875 73.2812C8.9375 75.5 11.1719 76.875 13.7969 77.8906C16.3438 78.875 19.25 79.5625 23.5 79.75C27.7656 79.9375 29.125 79.9844 39.9844 79.9844C50.8438 79.9844 52.2031 79.9375 56.4688 79.75C60.7188 79.5625 63.6406 78.875 66.1719 77.8906C68.7969 76.875 71.0313 75.5 73.25 73.2812C75.4688 71.0625 76.8438 68.8281 77.8594 66.2031C78.8438 63.6562 79.5313 60.75 79.7188 56.5C79.9063 52.2344 79.9531 50.875 79.9531 40.0156C79.9531 29.1562 79.9063 27.7969 79.7188 23.5312C79.5313 19.2812 78.8438 16.3594 77.8594 13.8281C76.875 11.1719 75.5156 8.9375 73.2813 6.71875C71.0625 4.5 68.8281 3.125 66.2031 2.10937C63.6563 1.125 60.75 0.4375 56.5 0.25C52.2188 0.046875 50.8594 0 40 0Z" fill="#2A2A2A"/>
<path d="M39.9998 19.4536C28.656 19.4536 19.4529 28.6567 19.4529 40.0005C19.4529 51.3442 28.656 60.5474 39.9998 60.5474C51.3435 60.5474 60.5466 51.3442 60.5466 40.0005C60.5466 28.6567 51.3435 19.4536 39.9998 19.4536ZM39.9998 53.3286C32.6404 53.3286 26.6716 47.3599 26.6716 40.0005C26.6716 32.6411 32.6404 26.6724 39.9998 26.6724C47.3591 26.6724 53.3279 32.6411 53.3279 40.0005C53.3279 47.3599 47.3591 53.3286 39.9998 53.3286Z" fill="#2A2A2A"/>
<path d="M66.1562 18.6401C66.1562 21.2964 64 23.437 61.3594 23.437C58.7031 23.437 56.5625 21.2808 56.5625 18.6401C56.5625 15.9839 58.7188 13.8433 61.3594 13.8433C64 13.8433 66.1562 15.9995 66.1562 18.6401Z" fill="#2A2A2A"/>
</g>
<defs>
<clipPath id="clip0_2388_11072">
<rect width="80" height="80" fill="white"/>
</clipPath>
</defs>
</svg>
