<svg width="1941" height="72" viewBox="0 0 1941 72" fill="none" xmlns="http://www.w3.org/2000/svg">
<path d="M28.5796 0.818359C22.9271 0.818359 17.4015 2.49452 12.7016 5.63489C8.00175 8.77526 4.33863 13.2388 2.17551 18.461C0.0123831 23.6833 -0.553589 29.4297 0.549162 34.9736C1.65191 40.5175 4.37386 45.6099 8.37079 49.6068C12.3677 53.6037 17.4601 56.3257 23.004 57.4284C28.5479 58.5312 34.2943 57.9652 39.5166 55.8021C44.7388 53.639 49.2023 49.9758 52.3427 45.276C55.4831 40.5761 57.1592 35.0505 57.1592 29.398C57.1592 21.8182 54.1482 14.5489 48.7885 9.18913C43.4287 3.82942 36.1594 0.818359 28.5796 0.818359ZM28.5796 53.8948C23.7346 53.8948 18.9984 52.4581 14.9699 49.7663C10.9414 47.0746 7.80163 43.2487 5.94752 38.7725C4.09342 34.2963 3.6083 29.3708 4.55351 24.6189C5.49873 19.867 7.83182 15.5021 11.2578 12.0761C14.6837 8.65017 19.0486 6.31708 23.8005 5.37186C28.5525 4.42665 33.4779 4.91176 37.9541 6.76587C42.4304 8.61998 46.2562 11.7598 48.948 15.7883C51.6397 19.8168 53.0764 24.553 53.0764 29.398C53.0764 35.8949 50.4955 42.1258 45.9015 46.7198C41.3074 51.3139 35.0766 53.8948 28.5796 53.8948Z" fill="white"/>
<path d="M28.5773 13.0669C28.0359 13.0669 27.5167 13.282 27.1338 13.6648C26.751 14.0476 26.5359 14.5669 26.5359 15.1083V27.3567H14.2875C13.7461 27.3567 13.2268 27.5718 12.844 27.9546C12.4612 28.3375 12.2461 28.8567 12.2461 29.3981C12.2461 29.9395 12.4612 30.4588 12.844 30.8416C13.2268 31.2244 13.7461 31.4395 14.2875 31.4395H28.5773C29.1187 31.4395 29.638 31.2244 30.0208 30.8416C30.4036 30.4588 30.6187 29.9395 30.6187 29.3981V15.1083C30.6187 14.5669 30.4036 14.0476 30.0208 13.6648C29.638 13.282 29.1187 13.0669 28.5773 13.0669Z" fill="white"/>
<path d="M81.4741 48.6616L97.5276 31.0235C100.238 28.0378 102.098 25.6034 103.108 23.7202C104.165 21.8369 104.693 19.9996 104.693 18.2082C104.693 15.7738 104.004 13.7987 102.626 12.2829C101.248 10.7672 99.342 10.0093 96.9075 10.0093C94.0138 10.0093 91.809 10.882 90.2932 12.6274C88.7774 14.3269 88.0196 16.6006 88.0196 19.4484H80.5096C80.5096 16.5547 81.1526 13.9365 82.4387 11.5939C83.7708 9.25137 85.677 7.3911 88.1574 6.01312C90.6377 4.63514 93.5774 3.94615 96.9764 3.94615C101.753 3.94615 105.474 5.16336 108.138 7.5978C110.848 9.9863 112.203 13.2475 112.203 17.3815C112.203 20.1834 111.33 23.0312 109.585 25.9249C107.885 28.8187 105.497 31.9192 102.419 35.2263L90.7755 47.9037H114.27V53.8979H81.4741V48.6616ZM151.725 33.0904C151.725 40.6234 150.347 46.0894 147.591 49.4884C144.835 52.8874 140.931 54.5869 135.878 54.5869C130.825 54.5869 126.875 52.8874 124.027 49.4884C121.225 46.0435 119.825 40.5775 119.825 33.0904V25.236C119.825 17.703 121.203 12.2829 123.958 8.97578C126.76 5.62269 130.711 3.94615 135.809 3.94615C140.908 3.94615 144.835 5.62269 147.591 8.97578C150.347 12.2829 151.725 17.703 151.725 25.236V33.0904ZM144.215 24.0647C144.215 19.058 143.503 15.4753 142.079 13.3164C140.701 11.1116 138.611 10.0093 135.809 10.0093C132.961 10.0093 130.825 11.1116 129.401 13.3164C128.024 15.4753 127.335 19.058 127.335 24.0647V34.1928C127.335 39.1995 128.046 42.8511 129.47 45.1478C130.94 47.4444 133.076 48.5927 135.878 48.5927C138.68 48.5927 140.77 47.4444 142.148 45.1478C143.526 42.8511 144.215 39.1995 144.215 34.1928V24.0647ZM158.313 48.6616L174.366 31.0235C177.076 28.0378 178.936 25.6034 179.947 23.7202C181.003 21.8369 181.532 19.9996 181.532 18.2082C181.532 15.7738 180.843 13.7987 179.465 12.2829C178.087 10.7672 176.181 10.0093 173.746 10.0093C170.852 10.0093 168.648 10.882 167.132 12.6274C165.616 14.3269 164.858 16.6006 164.858 19.4484H157.348C157.348 16.5547 157.991 13.9365 159.277 11.5939C160.609 9.25137 162.516 7.3911 164.996 6.01312C167.476 4.63514 170.416 3.94615 173.815 3.94615C178.592 3.94615 182.313 5.16336 184.977 7.5978C187.687 9.9863 189.042 13.2475 189.042 17.3815C189.042 20.1834 188.169 23.0312 186.424 25.9249C184.724 28.8187 182.336 31.9192 179.258 35.2263L167.614 47.9037H191.109V53.8979H158.313V48.6616ZM227.048 4.63514V11.1805H207.274L205.896 23.6513C206.814 23.1001 207.963 22.6408 209.341 22.2733C210.719 21.8599 212.188 21.6532 213.75 21.6532C218.389 21.6532 222.018 23.123 224.636 26.0627C227.254 29.0024 228.563 33.0215 228.563 38.1201C228.563 42.9889 227.185 46.9621 224.429 50.0396C221.719 53.0712 217.769 54.5869 212.579 54.5869C209.823 54.5869 207.274 54.0587 204.931 53.0023C202.588 51.9458 200.682 50.3611 199.212 48.2482C197.743 46.1353 196.916 43.609 196.732 40.6693H204.035C204.357 43.1956 205.253 45.1478 206.722 46.5258C208.238 47.9037 210.19 48.5927 212.579 48.5927C215.289 48.5927 217.379 47.6511 218.849 45.7679C220.318 43.8387 221.053 41.2435 221.053 37.9823C221.053 34.9966 220.25 32.5622 218.642 30.679C217.034 28.7957 214.784 27.8541 211.89 27.8541C210.052 27.8541 208.629 28.1067 207.618 28.612C206.608 29.0713 205.528 29.8292 204.38 30.8857L198.386 29.301L201.004 4.63514H227.048ZM279.247 42.8052H272.219V23.858H257.957V18.1393H272.219V13.1097H257.957V7.3911H272.219V0.776793H279.247V42.8052ZM280.625 56.6539H242.799V39.0158H249.965V50.8664H280.625V56.6539ZM243.006 29.1632C250.86 29.0713 257.796 28.4283 263.813 27.234L264.502 33.0904C260.598 33.8713 256.763 34.3995 252.996 34.6751C249.23 34.9507 245.05 35.0885 240.457 35.0885H236.047V4.49734H243.006V29.1632ZM332.654 40.5315C332.654 43.4712 331.965 45.9975 330.587 48.1104C329.209 50.2233 327.302 51.831 324.868 52.9334C322.48 54.0357 319.747 54.5869 316.669 54.5869C313.592 54.5869 310.836 54.0357 308.401 52.9334C306.013 51.831 304.106 50.2233 302.683 48.1104C301.305 45.9975 300.616 43.4712 300.616 40.5315C300.616 37.8674 301.351 35.4789 302.82 33.366C304.29 31.2072 306.265 29.5766 308.746 28.4742C306.541 27.4178 304.818 25.9249 303.578 23.9958C302.338 22.0666 301.718 19.9078 301.718 17.5193C301.718 13.2935 303.096 9.9863 305.852 7.5978C308.654 5.16336 312.26 3.94615 316.669 3.94615C321.079 3.94615 324.661 5.16336 327.417 7.5978C330.173 9.9863 331.551 13.2935 331.551 17.5193C331.551 19.9078 330.908 22.0666 329.622 23.9958C328.382 25.9249 326.659 27.4407 324.455 28.5431C326.981 29.6455 328.979 31.2531 330.449 33.366C331.919 35.4789 332.654 37.8674 332.654 40.5315ZM324.041 17.7949C324.041 15.4982 323.352 13.6379 321.974 12.214C320.642 10.7442 318.874 10.0093 316.669 10.0093C314.418 10.0093 312.627 10.7212 311.295 12.1451C309.963 13.5231 309.297 15.4064 309.297 17.7949C309.297 20.1374 309.963 22.0207 311.295 23.4446C312.627 24.8226 314.418 25.5115 316.669 25.5115C318.92 25.5115 320.711 24.8226 322.043 23.4446C323.375 22.0207 324.041 20.1374 324.041 17.7949ZM325.144 40.187C325.144 37.6148 324.34 35.5478 322.732 33.9861C321.17 32.3785 319.126 31.5747 316.6 31.5747C314.028 31.5747 311.961 32.3785 310.399 33.9861C308.883 35.5478 308.126 37.6148 308.126 40.187C308.126 42.8052 308.883 44.8722 310.399 46.388C311.961 47.8578 314.051 48.5927 316.669 48.5927C319.287 48.5927 321.354 47.8578 322.87 46.388C324.386 44.8722 325.144 42.8052 325.144 40.187ZM383.337 33.9172H376.309V31.7814H365.974V27.3718H376.309V0.776793H383.337V33.9172ZM336.899 21.2398C344.019 21.2398 350.449 21.1709 356.191 21.0331C361.978 20.8494 367.49 20.5049 372.726 19.9996L373.071 24.4781C368.202 25.1671 363.15 25.6493 357.913 25.9249V34.055H350.885V26.2005C347.211 26.2924 344.57 26.3383 342.962 26.3383L337.657 26.2694L336.899 21.2398ZM383.337 48.6616H352.057V52.1755H384.784V57.274H345.098V43.9765H376.378V40.6693H344.891V35.7775H383.337V48.6616ZM354.675 1.67248C358.855 1.67248 362.208 2.45334 364.734 4.01505C367.261 5.53083 368.524 7.5978 368.524 10.216C368.524 12.8341 367.261 14.9011 364.734 16.4169C362.208 17.9327 358.855 18.6905 354.675 18.6905C350.495 18.6905 347.142 17.9327 344.616 16.4169C342.089 14.9011 340.826 12.8341 340.826 10.216C340.826 7.5978 342.089 5.53083 344.616 4.01505C347.142 2.45334 350.495 1.67248 354.675 1.67248ZM354.675 6.42652C352.424 6.42652 350.656 6.77101 349.37 7.46C348.084 8.10306 347.441 9.02171 347.441 10.216C347.441 11.3643 348.084 12.2829 349.37 12.9719C350.656 13.615 352.424 13.9365 354.675 13.9365C356.88 13.9365 358.625 13.615 359.911 12.9719C361.243 12.2829 361.909 11.3643 361.909 10.216C361.909 9.02171 361.266 8.10306 359.98 7.46C358.694 6.77101 356.926 6.42652 354.675 6.42652ZM391.722 48.6616L407.775 31.0235C410.485 28.0378 412.345 25.6034 413.356 23.7202C414.412 21.8369 414.941 19.9996 414.941 18.2082C414.941 15.7738 414.252 13.7987 412.874 12.2829C411.496 10.7672 409.589 10.0093 407.155 10.0093C404.261 10.0093 402.056 10.882 400.541 12.6274C399.025 14.3269 398.267 16.6006 398.267 19.4484H390.757C390.757 16.5547 391.4 13.9365 392.686 11.5939C394.018 9.25137 395.924 7.3911 398.405 6.01312C400.885 4.63514 403.825 3.94615 407.224 3.94615C412.001 3.94615 415.721 5.16336 418.386 7.5978C421.096 9.9863 422.451 13.2475 422.451 17.3815C422.451 20.1834 421.578 23.0312 419.832 25.9249C418.133 28.8187 415.744 31.9192 412.667 35.2263L401.023 47.9037H424.518V53.8979H391.722V48.6616ZM460.457 4.63514V11.1805H440.682L439.304 23.6513C440.223 23.1001 441.371 22.6408 442.749 22.2733C444.127 21.8599 445.597 21.6532 447.159 21.6532C451.798 21.6532 455.427 23.123 458.045 26.0627C460.663 29.0024 461.972 33.0215 461.972 38.1201C461.972 42.9889 460.594 46.9621 457.838 50.0396C455.128 53.0712 451.178 54.5869 445.988 54.5869C443.232 54.5869 440.682 54.0587 438.34 53.0023C435.997 51.9458 434.091 50.3611 432.621 48.2482C431.151 46.1353 430.325 43.609 430.141 40.6693H437.444C437.766 43.1956 438.661 45.1478 440.131 46.5258C441.647 47.9037 443.599 48.5927 445.988 48.5927C448.698 48.5927 450.788 47.6511 452.258 45.7679C453.727 43.8387 454.462 41.2435 454.462 37.9823C454.462 34.9966 453.658 32.5622 452.051 30.679C450.443 28.7957 448.192 27.8541 445.299 27.8541C443.461 27.8541 442.037 28.1067 441.027 28.612C440.016 29.0713 438.937 29.8292 437.789 30.8857L431.795 29.301L434.413 4.63514H460.457ZM481.996 2.43037C484.797 2.43037 487.301 3.00453 489.506 4.15284C491.71 5.25523 493.433 6.79398 494.673 8.76908C495.959 10.7442 496.602 12.9719 496.602 15.4523C496.602 17.9327 495.959 20.1374 494.673 22.0666C493.433 23.9958 491.71 25.5115 489.506 26.6139C487.301 27.7163 484.797 28.2675 481.996 28.2675C479.194 28.2675 476.667 27.7163 474.417 26.6139C472.166 25.5115 470.398 23.9958 469.111 22.0666C467.871 20.1374 467.251 17.9327 467.251 15.4523C467.251 12.9719 467.894 10.7442 469.18 8.76908C470.466 6.79398 472.212 5.25523 474.417 4.15284C476.667 3.00453 479.194 2.43037 481.996 2.43037ZM481.996 8.42459C479.699 8.42459 477.816 9.06764 476.346 10.3538C474.876 11.5939 474.141 13.2935 474.141 15.4523C474.141 17.5652 474.876 19.2647 476.346 20.5508C477.816 21.8369 479.699 22.48 481.996 22.48C484.292 22.48 486.175 21.8369 487.645 20.5508C489.115 19.2647 489.85 17.5652 489.85 15.4523C489.85 13.2935 489.115 11.5939 487.645 10.3538C486.175 9.06764 484.292 8.42459 481.996 8.42459ZM512.38 29.3699H505.283V0.707895H512.38V29.3699ZM512.38 47.008H482.616V51.3487H513.896V57.0673H475.795V41.6339H505.352V37.5H475.588V31.9192H512.38V47.008ZM563.344 27.1651C563.39 29.6914 562.931 32.011 561.966 34.1239C561.002 36.1909 559.647 37.8215 557.901 39.0158C556.202 40.21 554.273 40.8071 552.114 40.8071C550.231 40.8071 548.531 40.4397 547.015 39.7047C545.545 38.9698 543.915 37.7756 542.123 36.122C541.021 35.0655 540.01 34.2847 539.092 33.7794C538.219 33.2742 537.3 33.0215 536.336 33.0215C534.728 33.0215 533.465 33.6187 532.546 34.8129C531.674 35.9612 531.26 37.5459 531.306 39.567L524.968 39.6358C524.922 37.0636 525.358 34.767 526.277 32.7459C527.241 30.679 528.573 29.0713 530.273 27.923C532.018 26.7747 533.97 26.2005 536.129 26.2005C537.966 26.2005 539.643 26.591 541.159 27.3718C542.721 28.1067 544.374 29.278 546.12 30.8857C547.314 31.9881 548.347 32.7919 549.22 33.2971C550.093 33.8024 551.011 34.055 551.976 34.055C553.538 34.055 554.801 33.412 555.765 32.1259C556.73 30.7938 557.189 29.1402 557.143 27.1651H563.344ZM573.658 48.6616L589.712 31.0235C592.422 28.0378 594.282 25.6034 595.292 23.7202C596.349 21.8369 596.877 19.9996 596.877 18.2082C596.877 15.7738 596.188 13.7987 594.81 12.2829C593.432 10.7672 591.526 10.0093 589.092 10.0093C586.198 10.0093 583.993 10.882 582.477 12.6274C580.961 14.3269 580.204 16.6006 580.204 19.4484H572.694C572.694 16.5547 573.337 13.9365 574.623 11.5939C575.955 9.25137 577.861 7.3911 580.341 6.01312C582.822 4.63514 585.761 3.94615 589.16 3.94615C593.937 3.94615 597.658 5.16336 600.322 7.5978C603.032 9.9863 604.387 13.2475 604.387 17.3815C604.387 20.1834 603.514 23.0312 601.769 25.9249C600.069 28.8187 597.681 31.9192 594.603 35.2263L582.96 47.9037H606.454V53.8979H573.658V48.6616ZM619.656 25.6493C620.942 24.2714 622.458 23.2149 624.204 22.48C625.995 21.7451 627.924 21.3776 629.991 21.3776C633.069 21.3776 635.664 22.1355 637.777 23.6513C639.89 25.1671 641.451 27.1651 642.462 29.6455C643.518 32.1259 644.047 34.8359 644.047 37.7756C644.047 40.9449 643.426 43.8157 642.186 46.388C640.946 48.9143 639.132 50.9123 636.743 52.3822C634.355 53.852 631.53 54.5869 628.269 54.5869C624.87 54.5869 621.93 53.7142 619.45 51.9688C617.015 50.1774 615.155 47.8348 613.869 44.9411C612.583 42.0014 611.94 38.832 611.94 35.433V25.6493C611.94 21.4695 612.583 17.7489 613.869 14.4877C615.155 11.1805 617.061 8.60832 619.587 6.77101C622.114 4.88777 625.145 3.94615 628.682 3.94615C631.208 3.94615 633.528 4.47437 635.641 5.53083C637.754 6.58728 639.453 8.01119 640.739 9.80257C642.071 11.5939 642.806 13.5461 642.944 15.659H635.641C635.273 14.1891 634.493 12.8801 633.298 11.7317C632.15 10.5834 630.496 10.0093 628.338 10.0093C625.26 10.0093 623.032 11.3183 621.654 13.9365C620.322 16.5547 619.656 20.459 619.656 25.6493ZM619.45 35.9842C619.45 38.6024 619.84 40.876 620.621 42.8052C621.448 44.6884 622.527 46.1124 623.859 47.0769C625.191 48.0415 626.638 48.5238 628.2 48.5238C630.818 48.5238 632.862 47.5592 634.332 45.6301C635.848 43.655 636.605 41.1057 636.605 37.9823C636.605 34.9966 635.871 32.4933 634.401 30.4723C632.931 28.4512 630.887 27.4407 628.269 27.4407C626.294 27.4407 624.502 28.0149 622.895 29.1632C621.287 30.2656 620.139 31.6895 619.45 33.4349V35.9842ZM663.932 2.43037C666.734 2.43037 669.237 3.00453 671.442 4.15284C673.647 5.25523 675.369 6.79398 676.609 8.76908C677.896 10.7442 678.539 12.9719 678.539 15.4523C678.539 17.9327 677.896 20.1374 676.609 22.0666C675.369 23.9958 673.647 25.5115 671.442 26.6139C669.237 27.7163 666.734 28.2675 663.932 28.2675C661.13 28.2675 658.604 27.7163 656.353 26.6139C654.102 25.5115 652.334 23.9958 651.048 22.0666C649.808 20.1374 649.188 17.9327 649.188 15.4523C649.188 12.9719 649.831 10.7442 651.117 8.76908C652.403 6.79398 654.148 5.25523 656.353 4.15284C658.604 3.00453 661.13 2.43037 663.932 2.43037ZM663.932 8.42459C661.635 8.42459 659.752 9.06764 658.282 10.3538C656.812 11.5939 656.078 13.2935 656.078 15.4523C656.078 17.5652 656.812 19.2647 658.282 20.5508C659.752 21.8369 661.635 22.48 663.932 22.48C666.229 22.48 668.112 21.8369 669.582 20.5508C671.052 19.2647 671.787 17.5652 671.787 15.4523C671.787 13.2935 671.052 11.5939 669.582 10.3538C668.112 9.06764 666.229 8.42459 663.932 8.42459ZM694.317 29.3699H687.22V0.707895H694.317V29.3699ZM694.317 47.008H664.552V51.3487H695.832V57.0673H657.731V41.6339H687.289V37.5H657.524V31.9192H694.317V47.008Z" fill="white"/>
<line x1="732.922" y1="0.818359" x2="732.922" y2="71.405" stroke="white" stroke-width="0.840317"/>
<path d="M787.051 0.818359C781.159 0.818359 775.509 3.15885 771.343 7.32494C767.176 11.491 764.836 17.1415 764.836 23.0332C764.836 41.0167 787.051 57.9423 787.051 57.9423C787.051 57.9423 809.266 41.0167 809.266 23.0332C809.266 17.1415 806.925 11.491 802.759 7.32494C798.593 3.15885 792.943 0.818359 787.051 0.818359ZM787.051 33.6117C784.959 33.6117 782.913 32.9913 781.174 31.8289C779.434 30.6665 778.078 29.0144 777.278 27.0814C776.477 25.1485 776.267 23.0215 776.676 20.9694C777.084 18.9174 778.091 17.0325 779.571 15.5531C781.05 14.0736 782.935 13.0661 784.987 12.658C787.039 12.2498 789.166 12.4593 791.099 13.2599C793.032 14.0606 794.684 15.4165 795.846 17.1561C797.009 18.8957 797.629 20.941 797.629 23.0332C797.629 25.8388 796.515 28.5295 794.531 30.5133C792.547 32.4972 789.856 33.6117 787.051 33.6117Z" fill="white"/>
<path d="M876.367 10.8185C876.367 15.917 876.229 20.3725 875.953 24.1849C875.724 27.9514 875.058 32.4987 873.955 37.8269L866.997 37.1379C867.823 33.1418 868.444 29.0997 868.857 25.0117L836.474 26.8719L835.441 20.671L869.27 19.4309C869.362 17.4557 869.408 14.8146 869.408 11.5075H837.163V5.71994H876.367V10.8185ZM881.672 50.7799H831.307V44.8546H849.772V30.8681H856.8V44.8546H881.672V50.7799ZM931.121 34.7953H924.437V0.690317H931.121V34.7953ZM920.166 34.3819H913.551V20.9466H909.349C908.797 24.2079 907.373 26.849 905.077 28.87C902.826 30.8451 900.093 31.8327 896.878 31.8327C894.443 31.8327 892.262 31.2585 890.332 30.1102C888.403 28.916 886.887 27.2853 885.785 25.2184C884.729 23.1055 884.2 20.717 884.2 18.0529C884.2 15.3888 884.729 13.0003 885.785 10.8874C886.887 8.77447 888.403 7.14386 890.332 5.99554C892.262 4.80129 894.443 4.20417 896.878 4.20417C900.093 4.20417 902.849 5.23765 905.146 7.30462C907.442 9.32566 908.866 11.9668 909.417 15.228H913.551V1.7238H920.166V34.3819ZM931.121 57.8076H924.162V42.9254H893.226V37.2068H931.121V57.8076ZM896.878 10.3362C895.041 10.3362 893.525 11.0481 892.33 12.4721C891.136 13.85 890.539 15.7103 890.539 18.0529C890.539 20.3954 891.136 22.2787 892.33 23.7026C893.525 25.1265 895.041 25.8385 896.878 25.8385C898.715 25.8385 900.231 25.1265 901.425 23.7026C902.665 22.2787 903.285 20.3954 903.285 18.0529C903.285 15.7103 902.688 13.85 901.494 12.4721C900.3 11.0481 898.761 10.3362 896.878 10.3362ZM965.136 8.47591C965.136 11.3697 965.963 14.2175 967.616 17.0194C969.27 19.7753 971.589 22.1638 974.575 24.1849C977.606 26.16 981.051 27.492 984.91 28.181L981.74 34.1063C977.147 33.1418 973.059 31.3045 969.476 28.5944C965.894 25.8844 963.207 22.6461 961.415 18.8797C959.578 22.6921 956.868 25.9303 953.285 28.5944C949.748 31.2585 945.66 33.0958 941.021 34.1063L937.99 28.181C941.756 27.4461 945.132 26.0911 948.118 24.116C951.103 22.0949 953.423 19.7065 955.077 16.9505C956.776 14.1486 957.626 11.3237 957.626 8.47591V4.27307H965.136V8.47591ZM986.908 50.5732H936.405V44.579H986.908V50.5732ZM1046.03 12.6098C1046.03 17.8002 1045.92 22.3705 1045.69 26.3208C1045.46 30.271 1044.91 34.8872 1044.04 40.1695L1036.94 39.4805C1037.81 34.6116 1038.36 30.2021 1038.59 26.2519C1038.82 22.3016 1038.94 17.7543 1038.94 12.6098V11.9898H1007.31V6.20224H1046.03V12.6098ZM1052.37 49.9531H1002.01V44.0278H1052.37V49.9531ZM1101.89 43.0632H1095.21V23.0136H1089.69V41.7541H1083.08V1.7927H1089.69V17.2261H1095.21V0.759215H1101.89V43.0632ZM1103.34 56.6363H1064.75V39.2049H1071.85V50.8488H1103.34V56.6363ZM1077.91 22.8069H1063.79V29.4212C1067.05 29.3753 1069.97 29.2375 1072.54 29.0078C1075.16 28.7782 1077.75 28.3877 1080.32 27.8365L1080.94 33.6241C1077.87 34.2212 1074.84 34.6116 1071.85 34.7953C1068.91 34.9791 1065.19 35.0709 1060.69 35.0709H1056.97V17.295H1071.09V11.0941H1056.83V5.37545H1077.91V22.8069ZM1152.1 33.1418H1113.24V5.58215H1151.61V11.4386H1120.2V27.2853H1152.1V33.1418ZM1157.61 50.5043H1107.1V44.579H1157.61V50.5043ZM1186.21 5.85774H1209.64V1.5171H1216.6V20.6021H1201.3V24.805H1223.07V30.5236H1172.71V24.805H1194.27V20.6021H1179.18V1.5171H1186.21V5.85774ZM1209.64 15.1591V11.163H1186.21V15.1591H1209.64ZM1216.87 47.9551H1185.66V51.7445H1218.32V57.2564H1178.7V42.9254H1209.91V39.3427H1178.56V33.9686H1216.87V47.9551ZM1275.76 35.0709H1253.99V39.5494H1269.76V57.0497H1231.8V39.5494H1246.96V35.0709H1225.19V29.3523H1275.76V35.0709ZM1238.76 51.2622H1262.74V45.1302H1238.76V51.2622ZM1269.56 16.4682H1238.62V20.3954H1270.52V26.0452H1231.59V11.3697H1262.46V7.37352H1231.46V1.7927H1269.56V16.4682Z" fill="white"/>
<line x1="1306.86" y1="0.818359" x2="1306.86" y2="71.405" stroke="white" stroke-width="0.840317"/>
<path d="M1367.36 0.818359C1361.7 0.818359 1356.18 2.49452 1351.48 5.63489C1346.78 8.77526 1343.12 13.2388 1340.95 18.461C1338.79 23.6833 1338.22 29.4297 1339.33 34.9736C1340.43 40.5175 1343.15 45.6099 1347.15 49.6068C1351.15 53.6037 1356.24 56.3257 1361.78 57.4284C1367.33 58.5312 1373.07 57.9652 1378.29 55.8021C1383.52 53.639 1387.98 49.9758 1391.12 45.276C1394.26 40.5761 1395.94 35.0505 1395.94 29.398C1395.94 21.8182 1392.93 14.5489 1387.57 9.18913C1382.21 3.82942 1374.94 0.818359 1367.36 0.818359ZM1391.53 25.5397C1391.53 25.5397 1391.43 25.5397 1391.38 25.5397C1388.95 26.9503 1386.37 28.0999 1383.69 28.9693C1383.88 21.318 1381.84 13.7766 1377.81 7.26919C1381.41 8.97068 1384.54 11.5237 1386.93 14.7072C1389.32 17.8907 1390.9 21.6089 1391.53 25.5397ZM1355.11 29.398C1355.11 17.517 1359.6 7.2896 1365.32 5.28903V31.4394C1361.88 31.3355 1358.46 30.8979 1355.11 30.1329C1355.11 29.8471 1355.11 29.6225 1355.11 29.398ZM1365.32 35.5222V53.5682C1360.42 51.833 1356.39 44.0756 1355.37 34.3586C1358.65 35.0306 1361.97 35.4199 1365.32 35.5222ZM1369.4 53.5682V35.5222C1372.74 35.4199 1376.07 35.0306 1379.34 34.3586C1378.32 44.0144 1374.3 51.8534 1369.4 53.5069V53.5682ZM1369.4 31.4394V5.28903C1375.11 7.33043 1379.61 17.5374 1379.61 29.398C1379.61 29.6225 1379.61 29.8471 1379.61 30.0716C1376.26 30.8573 1372.84 31.3154 1369.4 31.4394ZM1356.9 7.26919C1352.88 13.7766 1350.83 21.318 1351.03 28.9693C1348.34 28.1207 1345.76 26.9917 1343.31 25.601C1343.31 25.601 1343.31 25.601 1343.17 25.601C1343.79 21.6571 1345.37 17.9252 1347.76 14.7302C1350.16 11.5351 1353.29 8.97381 1356.9 7.26919ZM1342.86 29.9696C1345.51 31.3354 1348.3 32.4363 1351.17 33.2562C1351.44 39.7735 1353.41 46.1064 1356.88 51.6288C1352.76 49.681 1349.27 46.6218 1346.79 42.7954C1344.31 38.969 1342.95 34.5272 1342.86 29.9696ZM1377.81 51.5268C1381.26 46.034 1383.23 39.7385 1383.52 33.2562C1386.4 32.4375 1389.19 31.3366 1391.85 29.9696C1391.74 34.5118 1390.37 38.9335 1387.89 42.7405C1385.41 46.5474 1381.92 49.5895 1377.81 51.5268Z" fill="white"/>
<path d="M1465.73 57.7563H1458.97V0.707895H1465.73V57.7563ZM1454.22 55.0003H1447.61V27.923H1442.58C1442.25 33.5268 1441.01 37.9134 1438.86 41.0827C1436.74 44.2521 1433.96 45.8368 1430.52 45.8368C1428.08 45.8368 1425.97 45.01 1424.18 43.3564C1422.39 41.7028 1420.99 39.3373 1419.98 36.2598C1419.01 33.1823 1418.53 29.5536 1418.53 25.3737C1418.53 21.1939 1419.01 17.5882 1419.98 14.5566C1420.99 11.4791 1422.39 9.11358 1424.18 7.46C1425.97 5.80642 1428.08 4.97963 1430.52 4.97963C1433.87 4.97963 1436.6 6.51838 1438.72 9.59587C1440.88 12.6274 1442.14 16.8073 1442.51 22.1355H1447.61V1.67248H1454.22V55.0003ZM1430.52 11.8006C1428.82 11.8006 1427.46 12.9719 1426.45 15.3145C1425.49 17.6571 1425.01 21.0101 1425.01 25.3737C1425.01 29.7374 1425.49 33.0904 1426.45 35.433C1427.46 37.7756 1428.82 38.9469 1430.52 38.9469C1432.31 38.9469 1433.69 37.7985 1434.65 35.5019C1435.62 33.1593 1436.1 29.7833 1436.1 25.3737C1436.1 20.9642 1435.62 17.6111 1434.65 15.3145C1433.69 12.9719 1432.31 11.8006 1430.52 11.8006ZM1502.91 10.8361H1498.09V26.2694C1500.48 26.1316 1502.84 25.9249 1505.18 25.6493L1505.67 30.9546C1500.66 31.7354 1495.38 32.2637 1489.82 32.5392C1484.31 32.8148 1478.43 32.9526 1472.18 32.9526L1471.49 27.0273H1477.69V10.8361H1472.94V4.91074H1502.91V10.8361ZM1516.55 57.7563H1509.52V43.8387H1478.86V38.0512H1516.55V57.7563ZM1516.55 35.5019H1509.52V0.707895H1516.55V35.5019ZM1491.34 26.6828V10.8361H1484.45V26.8895L1491.34 26.6828ZM1579.54 22.5489H1587.94V28.5431H1579.54V57.8252H1572.65V0.707895H1579.54V22.5489ZM1563.9 27.3029H1545.57V38.4646C1550.25 38.4186 1554.34 38.2808 1557.83 38.0512C1561.37 37.7756 1564.91 37.3162 1568.44 36.6732L1569.13 42.4607C1565.09 43.1956 1561.07 43.7239 1557.08 44.0454C1553.08 44.321 1548.44 44.4588 1543.16 44.4588H1538.47V21.5843H1556.87V11.4561H1538.4V5.59972H1563.9V27.3029ZM1639.18 34.6062H1617.89V44.9411H1610.8V34.6062H1588.61V28.8876H1639.18V34.6062ZM1633.53 56.6539H1594.81V39.7736H1601.91V50.7975H1633.53V56.6539ZM1613.9 1.87918C1617.85 1.87918 1621.31 2.36147 1624.3 3.32606C1627.29 4.29064 1629.58 5.66862 1631.19 7.46C1632.84 9.20544 1633.67 11.2494 1633.67 13.592C1633.67 15.9805 1632.84 18.0475 1631.19 19.7929C1629.58 21.5384 1627.29 22.8934 1624.3 23.858C1621.31 24.7766 1617.85 25.236 1613.9 25.236C1609.95 25.236 1606.48 24.7766 1603.49 23.858C1600.51 22.8934 1598.19 21.5384 1596.53 19.7929C1594.88 18.0475 1594.05 15.9805 1594.05 13.592C1594.05 11.2494 1594.88 9.20544 1596.53 7.46C1598.19 5.66862 1600.51 4.29064 1603.49 3.32606C1606.48 2.36147 1609.95 1.87918 1613.9 1.87918ZM1613.9 7.5978C1610.08 7.5978 1607.07 8.12602 1604.87 9.18247C1602.71 10.193 1601.63 11.6628 1601.63 13.592C1601.63 15.4753 1602.71 16.9221 1604.87 17.9327C1607.07 18.9432 1610.08 19.4484 1613.9 19.4484C1617.71 19.4484 1620.69 18.9432 1622.85 17.9327C1625.06 16.9221 1626.16 15.4753 1626.16 13.592C1626.16 11.6628 1625.06 10.193 1622.85 9.18247C1620.69 8.12602 1617.71 7.5978 1613.9 7.5978ZM1662.17 16.7614C1662.17 19.9307 1662.72 23.0541 1663.83 26.1316C1664.98 29.1632 1666.61 31.8962 1668.72 34.3306C1670.83 36.7651 1673.33 38.6024 1676.23 39.8425L1672.51 45.5612C1669.34 44.1373 1666.56 42.0473 1664.17 39.2914C1661.83 36.4895 1660.01 33.2512 1658.73 29.5766C1657.44 33.5268 1655.63 37.0407 1653.29 40.1181C1650.94 43.1497 1648.19 45.4463 1645.02 47.008L1640.95 41.2205C1643.8 39.8885 1646.28 37.9363 1648.39 35.3641C1650.55 32.7459 1652.18 29.8063 1653.29 26.545C1654.43 23.2838 1655.01 20.0226 1655.01 16.7614V12.214H1642.95V6.35761H1674.23V12.214H1662.17V16.7614ZM1687.25 57.7563H1680.16V0.707895H1687.25V57.7563Z" fill="white"/>
</svg>
