<svg width="1689" height="959" viewBox="0 0 1689 959" fill="none" xmlns="http://www.w3.org/2000/svg">
<path d="M79.9669 780.66C25.6081 780.66 0 752.645 0 694.007V378.084H66.3939V700.627C66.3939 714.2 71.208 721.421 79.9669 721.421C88.7258 721.421 93.005 714.2 93.005 700.627V378.084H159.666V693.472C159.666 752.645 133.791 780.66 79.9669 780.66ZM179.926 774.509V378.084H246.854L277.745 534.274L286.303 592.377H287.64L283.094 520.166V378.084H347.615V774.509H280.686L249.796 619.122L241.238 561.019H239.901L244.447 633.23V774.509H179.926ZM369.479 774.509V378.084H449.446C501.933 378.084 528.076 403.693 528.076 448.49V535.411C528.076 563.158 517.712 583.952 491.302 592.176V592.711C518.782 599.13 525.669 620.192 526.204 654.024L526.738 726.502C527.006 746.494 528.343 763.276 531.553 774.509H465.426C463.821 765.951 461.949 744.889 461.682 718.546L460.879 643.928C460.612 629.285 455.263 622.599 442.76 622.599H436.074V774.576H369.412L369.479 774.509ZM436.141 571.65H445.501C455.129 571.65 462.016 566.568 462.016 548.449V456.179C462.016 439.664 456.132 433.513 446.304 433.513H436.207V571.583L436.141 571.65ZM544.39 774.509V378.084H670.224V436.722H611.051V542.832H663.538V599.063H611.051V715.002H672.364V774.442H544.39V774.509ZM679.852 774.509L724.65 378.084H820.062L865.127 774.509H797.663L792.314 715.069H752.598L747.249 774.509H679.785H679.852ZM757.68 659.64H787.5L775.799 522.64L773.125 469.618H771.788L769.38 522.64L757.68 659.64ZM877.095 774.509V378.084H943.757V713.197H997.58V774.509H877.095ZM1093.73 774.509V378.084H1218.22V437.257H1160.39V549.786H1211.34V608.959H1160.39V774.509H1093.73ZM1233.27 774.509V378.084H1359.1V436.722H1299.93V542.832H1352.42V599.063H1299.93V715.002H1361.24V774.442H1233.27V774.509ZM1453.18 780.66C1402.76 780.66 1373.48 755.587 1373.48 702.833V630.355H1438.8V702.833C1438.8 714.534 1442.01 723.36 1453.71 723.36C1465.41 723.36 1466.22 717.208 1466.22 708.717V634.634C1466.22 581.88 1374.28 602.674 1374.28 510.672V442.406C1374.28 397.073 1406.24 372 1452.64 372C1499.05 372 1531.01 400.818 1530.74 450.095V515.419H1467.55V450.095C1467.55 435.987 1462.74 429.568 1453.18 429.568C1443.62 429.568 1440.94 434.917 1440.94 442.874V509.802C1441.48 557.007 1532.94 542.03 1532.94 632.16V709.452C1532.94 754.517 1500.45 780.66 1453.24 780.66H1453.18ZM1581.55 774.509V439.129H1541.3V378.084H1689V439.129H1648.21V774.509H1581.55Z" fill="white"/>
<path d="M38.53 958.024C30.824 958.024 24.1231 956.81 18.3604 954.449C12.6646 952.088 8.24206 948.58 5.02565 943.858C1.87624 939.135 0.201026 933.334 0 926.385H19.4995C19.7675 929.556 20.7057 932.254 22.3139 934.481C23.9221 936.639 26.1334 938.258 28.8807 939.338C31.6281 940.417 34.7775 940.957 38.3289 940.957C41.8804 940.957 44.6948 940.485 47.2411 939.473C49.7874 938.461 51.7977 937.112 53.1378 935.358C54.545 933.536 55.2821 931.445 55.2821 929.084C55.2821 926.723 54.612 925.104 53.3389 923.687C52.0657 922.203 50.2565 920.988 47.8442 919.909C45.4318 918.897 42.5505 917.953 39.066 917.143L28.6127 914.58C20.5716 912.623 14.2058 909.588 9.58223 905.338C4.89163 901.088 2.61334 895.353 2.61334 888.27C2.61334 881.187 4.15453 877.341 7.30394 873.024C10.4533 868.639 14.7419 865.266 20.2366 862.837C25.7313 860.409 31.9631 859.127 38.932 859.127C45.9009 859.127 52.1997 860.341 57.4934 862.837C62.7871 865.266 66.9416 868.706 69.89 873.024C72.9054 877.409 74.4466 882.401 74.5136 888.068H55.0811C54.746 884.29 53.1378 881.389 50.2565 879.298C47.4421 877.206 43.6226 876.127 38.798 876.127C33.9734 876.127 32.7672 876.599 30.4219 877.544C28.1436 878.421 26.4014 879.702 25.1952 881.322C23.9891 882.941 23.386 884.829 23.386 886.921C23.386 889.012 24.0561 891.036 25.4633 892.587C26.8034 894.072 28.6797 895.353 30.891 896.365C33.1693 897.31 35.7156 898.119 38.4629 898.726L46.973 900.885C51.1276 901.83 54.9471 903.111 58.4315 904.73C61.916 906.282 64.9984 908.171 67.5447 910.465C70.158 912.758 72.1683 915.457 73.5755 918.56C74.9827 921.596 75.7197 925.171 75.7197 929.151C75.7197 935.088 74.2456 940.215 71.2972 944.532C68.4158 948.85 64.1943 952.155 58.6325 954.516C53.1378 956.878 46.437 958.024 38.597 958.024H38.53ZM117.198 958.092C109.827 958.092 103.461 956.608 98.1676 953.572C92.8739 950.536 88.7194 946.286 85.838 940.687C83.0237 935.088 81.6165 928.477 81.6165 920.854C81.6165 913.23 83.0237 906.957 85.838 901.357C88.7194 895.758 92.7399 891.373 97.8996 888.27C103.126 885.099 109.224 883.548 116.26 883.548C123.296 883.548 125.44 884.357 129.528 885.909C133.615 887.393 137.234 889.687 140.316 892.79C143.398 895.826 145.811 899.603 147.486 904.258C149.228 908.846 150.032 914.175 150.032 920.314V925.778H89.4565V913.433H140.383L131.136 916.671C131.136 913.028 130.6 909.79 129.461 907.092C128.322 904.393 126.713 902.302 124.435 900.818C122.224 899.333 119.543 898.524 116.26 898.524C112.977 898.524 110.229 899.266 107.951 900.818C105.74 902.302 103.997 904.393 102.791 906.957C101.585 909.52 100.982 912.488 100.982 915.861V924.564C100.982 928.477 101.652 931.85 103.059 934.616C104.399 937.381 106.343 939.473 108.755 941.024C111.234 942.508 114.049 943.183 117.265 943.183C120.481 943.183 121.487 942.846 123.296 942.239C125.105 941.564 126.646 940.62 127.919 939.405C129.26 938.191 130.198 936.639 130.868 934.885L149.228 936.1C148.357 940.552 146.414 944.397 143.599 947.703C140.785 951.008 137.1 953.572 132.61 955.393C128.12 957.215 122.894 958.092 116.997 958.092H117.198ZM190.841 958.092C183.604 958.092 177.372 956.54 172.011 953.437C166.717 950.266 162.697 945.949 159.816 940.417C157.001 934.818 155.594 928.342 155.594 920.921C155.594 913.5 157.001 906.889 159.816 901.357C162.697 895.758 166.717 891.373 172.011 888.337C177.305 885.167 183.604 883.615 190.841 883.615C198.077 883.615 204.376 885.167 209.67 888.337C214.964 891.441 219.051 895.758 221.866 901.357C224.747 906.889 226.154 913.433 226.154 920.921C226.154 928.409 224.747 934.818 221.866 940.417C219.051 945.949 214.964 950.334 209.67 953.437C204.376 956.54 198.144 958.092 190.841 958.092ZM190.975 942.441C194.258 942.441 197.005 941.497 199.284 939.675C201.495 937.786 203.17 935.223 204.309 931.917C205.448 928.679 206.052 924.901 206.052 920.719C206.052 916.536 205.448 912.758 204.309 909.52C203.17 906.282 201.562 903.719 199.284 901.897C197.072 900.008 194.325 899.131 190.975 899.131C187.624 899.131 184.81 900.076 182.598 901.897C180.387 903.786 178.712 906.282 177.506 909.52C176.367 912.758 175.831 916.469 175.831 920.719C175.831 924.969 176.367 928.612 177.506 931.917C178.645 935.223 180.32 937.786 182.598 939.675C184.877 941.564 187.691 942.441 190.975 942.441ZM280.9 925.981V884.425H300.735V956.675H281.704V943.588H280.967C279.359 947.77 276.679 951.143 272.926 953.774C269.174 956.338 264.617 957.62 259.256 957.62C254.432 957.62 250.21 956.54 246.525 954.381C242.906 952.223 240.025 949.052 238.015 945.004C236.004 940.957 234.999 936.1 234.999 930.433V884.425H254.834V926.925C254.834 931.175 255.973 934.481 258.251 936.977C260.53 939.405 263.545 940.619 267.297 940.619C269.71 940.619 271.921 940.08 273.998 939C276.076 937.854 277.751 936.235 279.024 934.008C280.364 931.782 281.034 929.151 281.034 925.913L280.9 925.981ZM332.296 860.409V956.675H312.461V860.409H332.296ZM369.955 956.675V942.104L403.995 910.33C406.876 907.496 409.356 905 411.299 902.774C413.242 900.48 414.783 898.254 415.788 896.095C416.794 893.937 417.33 891.508 417.33 889.012C417.33 886.516 416.66 883.75 415.386 881.726C414.113 879.702 412.371 878.151 410.16 877.004C407.949 875.857 405.469 875.318 402.655 875.318C399.84 875.318 397.227 875.925 395.016 877.139C392.805 878.286 391.129 879.972 389.923 882.266C388.784 884.492 388.181 887.123 388.181 890.226H368.949C368.949 883.885 370.357 878.421 373.171 873.833C376.052 869.179 380.006 865.603 385.099 863.04C390.258 860.476 396.155 859.194 402.789 859.194C409.423 859.194 415.52 860.409 420.613 862.905C425.706 865.333 429.659 868.706 432.474 872.956C435.288 877.206 436.695 882.131 436.695 887.73C436.695 893.33 435.958 894.949 434.551 898.457C433.144 901.964 430.664 905.877 427.046 910.195C423.428 914.512 418.335 919.639 411.768 925.643L397.763 939.405V940.147H437.968V956.743H369.821L369.955 956.675ZM486.014 957.957C477.906 957.957 470.937 956.001 465.174 952.155C459.411 948.243 455.056 942.576 451.973 935.29C448.958 927.937 447.417 919.032 447.417 908.576C447.417 898.119 448.958 889.349 452.04 881.996C455.123 874.575 459.545 868.909 465.241 864.996C471.004 861.083 477.973 859.127 486.014 859.127C494.055 859.127 501.09 861.083 506.786 864.996C512.549 868.909 516.971 874.575 519.987 881.929C523.069 889.282 524.611 898.187 524.611 908.643C524.611 919.1 523.069 927.937 520.054 935.358C517.039 942.643 512.616 948.31 506.853 952.223C501.09 956.068 494.189 958.024 486.014 958.024V957.957ZM486.014 941.159C489.9 941.159 493.183 939.945 495.864 937.381C498.544 934.818 500.621 931.108 501.962 926.25C503.369 921.393 504.106 915.457 504.106 908.576C504.106 901.695 503.369 895.691 501.962 890.833C500.621 885.976 498.544 882.266 495.864 879.702C493.183 877.139 489.967 875.857 486.014 875.857C480.251 875.857 475.761 878.691 472.679 884.425C469.529 890.091 467.988 898.187 467.988 908.576C467.988 918.965 468.658 921.393 470.065 926.25C471.473 931.108 473.55 934.818 476.23 937.381C478.911 939.877 482.194 941.159 486.081 941.159H486.014ZM534.662 956.675V942.104L568.702 910.33C571.584 907.496 574.063 905 576.006 902.774C577.949 900.48 579.491 898.254 580.496 896.095C581.501 893.937 582.037 891.508 582.037 889.012C582.037 886.516 581.367 883.75 580.094 881.726C578.82 879.702 577.078 878.151 574.867 877.004C572.656 875.857 570.176 875.318 567.362 875.318C564.548 875.318 561.934 875.925 559.723 877.139C557.512 878.286 555.836 879.972 554.63 882.266C553.491 884.492 552.888 887.123 552.888 890.226H533.657C533.657 883.885 535.064 878.421 537.878 873.833C540.76 869.179 544.713 865.603 549.806 863.04C554.965 860.476 560.862 859.194 567.496 859.194C574.13 859.194 580.228 860.409 585.32 862.905C590.413 865.333 594.366 868.706 597.181 872.956C599.995 877.206 601.402 882.131 601.402 887.73C601.402 893.33 600.665 894.949 599.258 898.457C597.851 901.964 595.372 905.877 591.753 910.195C588.135 914.512 583.042 919.639 576.475 925.643L562.47 939.405V940.147H602.676V956.743H534.528L534.662 956.675ZM648.174 957.957C641.608 957.957 635.711 956.743 630.551 954.314C625.391 951.885 621.237 948.445 618.222 944.195C615.206 939.877 613.665 934.953 613.531 929.488H633.164C633.365 933.199 634.84 936.235 637.721 938.528C640.602 940.822 644.087 941.969 648.174 941.969C652.262 941.969 654.138 941.227 656.55 939.81C658.963 938.393 660.906 936.437 662.246 933.941C663.586 931.377 664.323 928.477 664.323 925.103C664.323 921.73 663.586 918.762 662.179 916.199C660.772 913.635 658.829 911.611 656.349 910.195C653.937 908.711 651.056 908.036 647.906 908.036C644.757 908.036 642.345 908.643 639.731 909.79C637.118 910.937 635.108 912.556 633.634 914.512L615.608 911.274L620.098 860.476H678.596V877.139H636.85L634.505 901.222H635.041C636.716 898.861 639.262 896.905 642.613 895.353C646.03 893.802 649.85 892.992 654.004 892.992C658.159 892.992 664.86 894.341 669.349 897.04C673.906 899.738 677.457 903.516 680.07 908.238C682.684 912.961 683.957 918.425 683.957 924.564C683.957 930.703 682.483 936.842 679.467 941.901C676.452 946.893 672.297 950.806 666.87 953.707C661.509 956.54 655.344 957.957 648.241 957.957H648.174Z" fill="white"/>
<path fill-rule="evenodd" clip-rule="evenodd" d="M211.212 151.558C208.917 162.582 198.772 190.835 166.38 206.138L153.373 191.516L131.438 213.593C106.131 213.251 82.4106 201.094 67.3625 180.719C69.6864 181.456 72.0951 181.909 74.5323 182.079C78.1315 182.135 82.014 180.832 82.014 174.768V115.255C82.2122 109.842 77.9615 105.308 72.5769 105.11C71.6134 105.081 70.6215 105.195 69.6864 105.45C59.5409 107.774 51.4075 133.137 51.4075 133.137C51.1808 109.446 61.383 86.8312 79.3217 71.3295C94.4549 58.5203 109.22 54.071 120.47 52.3423C109.39 58.6621 103.127 68.9775 103.127 77.6493C103.127 91.5354 111.515 89.8918 114.009 87.8513V168.221C114.434 169.241 114.973 170.176 115.624 171.054C117.892 174.172 121.491 176.015 125.345 175.957C133.733 175.957 144.644 166.379 144.644 166.379V101.284C144.644 94.6528 139.656 86.661 134.668 83.9406C134.668 83.9406 143.907 82.3251 151.077 87.7663C152.409 86.1226 153.853 84.564 155.356 83.0621C171.992 66.7387 187.663 62.091 200.728 59.7672C200.728 59.7672 176.951 78.4428 176.951 103.466C176.951 122.085 177.433 167.513 177.433 167.513C186.274 176.015 199.395 163.744 211.241 151.558H211.212ZM132.515 0C205.687 0 265 59.3138 265 132.485C265 205.657 205.687 264.971 132.515 265C59.3424 265 0 205.685 0 132.514C0 59.3422 59.3142 0 132.486 0H132.515Z" fill="white"/>
</svg>
