<svg width="775" height="464" viewBox="0 0 775 464" fill="none" xmlns="http://www.w3.org/2000/svg">
<g clip-path="url(#clip0_2089_9231)">
<path fill-rule="evenodd" clip-rule="evenodd" d="M45.0816 135.314C69.8355 135.314 89.9366 115.213 89.9366 90.4594C89.9366 65.7055 69.8355 45.6348 45.0816 45.6348C20.3277 45.6348 0.226562 65.7359 0.226562 90.4898C0.226562 115.244 20.3277 135.345 45.0816 135.345V135.314ZM56.5462 115.426C67.5243 110.256 70.9607 100.677 71.7209 96.9367C67.7068 101.042 63.2669 105.208 60.2867 102.319C60.2867 102.319 60.1346 86.9318 60.1346 80.6369C60.1346 74.342 68.1629 65.8271 68.1629 65.8271C63.7534 66.6178 58.4317 68.1991 52.7754 73.7338C52.2584 74.2203 51.7718 74.7677 51.3157 75.3151C48.9133 73.4601 45.781 74.0075 45.781 74.0075C47.484 74.9502 49.1565 77.6567 49.1565 79.8766V101.894C49.1565 101.894 45.4769 105.147 42.6184 105.147C39.7598 105.147 41.3411 104.995 40.7633 104.722C40.1855 104.418 39.699 104.022 39.3036 103.475C39.0908 103.171 38.8779 102.867 38.7563 102.532V75.3151C37.9048 76.0145 35.0766 76.5923 35.0766 71.8788C35.0766 67.1652 37.1749 65.4622 40.9458 63.3335C35.7761 64.1242 30.9713 66.3441 26.9875 69.7805C24.0073 72.3653 21.5745 75.5888 19.9628 79.2076C18.351 82.8264 17.4995 86.7493 17.5604 90.7027C17.5604 90.7027 20.2973 82.127 23.764 81.3363C24.2506 81.2147 24.798 81.1843 25.2846 81.3059C25.8015 81.4276 26.2577 81.6404 26.653 81.9749C27.0483 82.3094 27.3829 82.7048 27.5957 83.1913C27.8086 83.6475 27.9302 84.1645 27.8998 84.7119V104.874C27.8998 106.911 26.5922 107.367 25.3454 107.337C24.5243 107.276 23.7032 107.124 22.9126 106.881C25.4366 110.287 28.6905 113.054 32.4614 115C36.2322 116.916 40.3984 117.95 44.595 118.011L52.0151 110.561L56.4246 115.517H56.455L56.5462 115.426Z" fill="white"/>
<path d="M19.1069 449.493C15.6098 449.493 12.5688 448.946 9.95348 447.882C7.36862 446.817 5.36155 445.236 3.90186 443.107C2.47258 440.979 1.71232 438.363 1.62109 435.231H10.4705C10.5921 436.66 11.0178 437.877 11.7477 438.88C12.4775 439.853 13.4811 440.583 14.7279 441.07C15.9747 441.556 17.404 441.8 19.0157 441.8C20.6275 441.8 21.9047 441.587 23.0603 441.131C24.2159 440.674 25.1282 440.066 25.7364 439.276C26.375 438.455 26.7095 437.512 26.7095 436.447C26.7095 435.383 26.4054 434.653 25.8276 434.015C25.2498 433.346 24.4287 432.798 23.334 432.312C22.2392 431.856 20.9316 431.43 19.3502 431.065L14.6062 429.909C10.957 429.027 8.06805 427.659 5.96975 425.743C3.84104 423.827 2.80709 421.242 2.80709 418.049C2.80709 414.856 3.50653 413.123 4.9358 411.177C6.36508 409.2 8.31133 407.679 10.805 406.585C13.2986 405.49 16.1268 404.912 19.2894 404.912C22.4521 404.912 25.3106 405.459 27.713 406.585C30.1154 407.679 32.0009 409.23 33.3389 411.177C34.7074 413.153 35.4068 415.404 35.4372 417.958H26.6183C26.4662 416.255 25.7364 414.947 24.4287 414.005C23.1515 413.062 21.4181 412.575 19.2286 412.575C17.0391 412.575 16.4917 412.788 15.4273 413.214C14.3934 413.609 13.6027 414.187 13.0553 414.917C12.5079 415.647 12.2342 416.498 12.2342 417.441C12.2342 418.384 12.5383 419.296 13.177 419.996C13.7852 420.665 14.6367 421.242 15.6402 421.699C16.6741 422.124 17.8297 422.489 19.0765 422.763L22.9386 423.736C24.8241 424.162 26.5574 424.74 28.1388 425.469C29.7201 426.169 31.119 427.02 32.2746 428.054C33.4606 429.088 34.3729 430.305 35.0115 431.703C35.6501 433.072 35.9846 434.684 35.9846 436.478C35.9846 439.154 35.3156 441.465 33.9775 443.411C32.6699 445.358 30.754 446.848 28.23 447.912C25.7364 448.976 22.6954 449.493 19.1374 449.493H19.1069ZM54.8085 449.524C51.4634 449.524 48.5744 448.855 46.172 447.486C43.7696 446.118 41.8842 444.202 40.5765 441.678C39.2993 439.154 38.6607 436.174 38.6607 432.737C38.6607 429.301 39.2993 426.473 40.5765 423.949C41.8842 421.425 43.7088 419.448 46.0504 418.049C48.4224 416.62 51.1897 415.921 54.3828 415.921C57.5758 415.921 58.549 416.286 60.404 416.985C62.259 417.654 63.9011 418.688 65.3 420.087C66.6989 421.455 67.7936 423.158 68.5539 425.257C69.3446 427.324 69.7095 429.727 69.7095 432.494V434.957H42.2187V429.392H65.3304L61.1338 430.852C61.1338 429.21 60.8905 427.75 60.3736 426.534C59.8566 425.317 59.1267 424.375 58.0928 423.706C57.0893 423.037 55.8729 422.672 54.3828 422.672C52.8927 422.672 51.6458 423.006 50.6119 423.706C49.6084 424.375 48.8177 425.317 48.2703 426.473C47.7229 427.629 47.4492 428.967 47.4492 430.487V434.41C47.4492 436.174 47.7533 437.694 48.392 438.941C49.0002 440.188 49.882 441.131 50.9768 441.83C52.102 442.499 53.3792 442.803 54.8389 442.803C56.2986 442.803 56.7548 442.651 57.5758 442.377C58.3969 442.073 59.0963 441.648 59.6741 441.1C60.2823 440.553 60.7081 439.853 61.0122 439.063L69.3446 439.61C68.9492 441.617 68.0673 443.351 66.7901 444.841C65.5129 446.331 63.8403 447.486 61.8028 448.307C59.7654 449.128 57.3934 449.524 54.7173 449.524H54.8085ZM88.2293 449.524C84.945 449.524 82.1168 448.824 79.684 447.426C77.2816 445.996 75.457 444.05 74.1494 441.556C72.8722 439.032 72.2335 436.113 72.2335 432.768C72.2335 429.423 72.8722 426.443 74.1494 423.949C75.457 421.425 77.2816 419.448 79.684 418.08C82.0864 416.65 84.945 415.951 88.2293 415.951C91.5136 415.951 94.3721 416.65 96.7746 418.08C99.177 419.479 101.032 421.425 102.309 423.949C103.617 426.443 104.255 429.392 104.255 432.768C104.255 436.143 103.617 439.032 102.309 441.556C101.032 444.05 99.177 446.027 96.7746 447.426C94.3721 448.824 91.544 449.524 88.2293 449.524ZM88.2901 442.469C89.7802 442.469 91.027 442.043 92.061 441.222C93.0645 440.37 93.8248 439.215 94.3417 437.725C94.8587 436.265 95.1324 434.562 95.1324 432.677C95.1324 430.791 94.8587 429.088 94.3417 427.628C93.8248 426.169 93.0949 425.013 92.061 424.192C91.0574 423.341 89.8106 422.945 88.2901 422.945C86.7696 422.945 85.4924 423.371 84.4888 424.192C83.4853 425.044 82.7251 426.169 82.1777 427.628C81.6607 429.088 81.4174 430.761 81.4174 432.677C81.4174 434.592 81.6607 436.235 82.1777 437.725C82.6946 439.215 83.4549 440.37 84.4888 441.222C85.5228 442.073 86.8 442.469 88.2901 442.469ZM129.101 435.049V416.316H138.102V448.885H129.465V442.986H129.131C128.401 444.871 127.185 446.392 125.482 447.578C123.779 448.733 121.711 449.311 119.278 449.311C117.089 449.311 115.173 448.824 113.5 447.851C111.858 446.878 110.55 445.449 109.638 443.624C108.726 441.8 108.27 439.61 108.27 437.056V416.316H117.271V435.474C117.271 437.39 117.788 438.88 118.822 440.005C119.856 441.1 121.224 441.648 122.927 441.648C124.022 441.648 125.026 441.404 125.968 440.918C126.911 440.401 127.671 439.671 128.249 438.667C128.857 437.664 129.161 436.478 129.161 435.018L129.101 435.049ZM152.425 405.49V448.885H143.424V405.49H152.425ZM169.516 448.885V442.317L184.964 427.993C186.272 426.716 187.397 425.591 188.279 424.587C189.161 423.554 189.86 422.55 190.316 421.577C190.772 420.604 191.016 419.509 191.016 418.384C191.016 417.259 190.712 416.012 190.134 415.1C189.556 414.187 188.765 413.488 187.762 412.971C186.758 412.454 185.633 412.211 184.356 412.211C183.079 412.211 181.893 412.484 180.889 413.032C179.886 413.549 179.125 414.309 178.578 415.343C178.061 416.346 177.787 417.532 177.787 418.931H169.06C169.06 416.073 169.698 413.609 170.975 411.542C172.283 409.443 174.077 407.831 176.388 406.676C178.73 405.52 181.406 404.943 184.417 404.943C187.427 404.943 190.195 405.49 192.506 406.615C194.817 407.71 196.611 409.23 197.888 411.146C199.166 413.062 199.804 415.282 199.804 417.806C199.804 420.33 199.47 421.06 198.831 422.641C198.193 424.223 197.067 425.986 195.425 427.933C193.783 429.879 191.472 432.19 188.492 434.897L182.136 441.1V441.435H200.382V448.916H169.455L169.516 448.885ZM222.186 449.463C218.507 449.463 215.344 448.581 212.729 446.848C210.113 445.084 208.137 442.53 206.738 439.245C205.369 435.931 204.67 431.916 204.67 427.203C204.67 422.489 205.369 418.536 206.768 415.221C208.167 411.876 210.174 409.322 212.759 407.558C215.374 405.794 218.537 404.912 222.186 404.912C225.835 404.912 229.028 405.794 231.613 407.558C234.229 409.322 236.236 411.876 237.604 415.191C239.003 418.505 239.702 422.52 239.702 427.233C239.702 431.947 239.003 435.93 237.635 439.276C236.266 442.56 234.259 445.114 231.644 446.878C229.028 448.612 225.896 449.493 222.186 449.493V449.463ZM222.186 441.891C223.95 441.891 225.44 441.344 226.656 440.188C227.873 439.032 228.816 437.36 229.424 435.17C230.062 432.981 230.397 430.305 230.397 427.203C230.397 424.101 230.062 421.394 229.424 419.205C228.816 417.015 227.873 415.343 226.656 414.187C225.44 413.032 223.98 412.454 222.186 412.454C219.571 412.454 217.533 413.731 216.135 416.316C214.705 418.87 214.006 422.52 214.006 427.203C214.006 431.886 214.31 432.981 214.949 435.17C215.587 437.36 216.53 439.032 217.746 440.188C218.963 441.313 220.453 441.891 222.217 441.891H222.186ZM244.264 448.885V442.317L259.712 427.993C261.02 426.716 262.145 425.591 263.027 424.587C263.909 423.554 264.608 422.55 265.065 421.577C265.521 420.604 265.764 419.509 265.764 418.384C265.764 417.259 265.46 416.012 264.882 415.1C264.304 414.187 263.514 413.488 262.51 412.971C261.507 412.454 260.381 412.211 259.104 412.211C257.827 412.211 256.641 412.484 255.637 413.032C254.634 413.549 253.874 414.309 253.326 415.343C252.809 416.346 252.536 417.532 252.536 418.931H243.808C243.808 416.073 244.446 413.609 245.724 411.542C247.031 409.443 248.825 407.831 251.137 406.676C253.478 405.52 256.154 404.943 259.165 404.943C262.176 404.943 264.943 405.49 267.254 406.615C269.565 407.71 271.359 409.23 272.637 411.146C273.914 413.062 274.552 415.282 274.552 417.806C274.552 420.33 274.218 421.06 273.579 422.641C272.941 424.223 271.816 425.986 270.173 427.933C268.531 429.879 266.22 432.19 263.24 434.897L256.884 441.1V441.435H275.13V448.916H244.203L244.264 448.885ZM295.779 449.463C292.799 449.463 290.122 448.916 287.781 447.821C285.439 446.726 283.554 445.175 282.185 443.259C280.817 441.313 280.118 439.093 280.057 436.63H288.967C289.058 438.302 289.727 439.671 291.035 440.705C292.342 441.739 293.924 442.256 295.779 442.256C297.634 442.256 298.485 441.921 299.58 441.283C300.675 440.644 301.557 439.762 302.165 438.637C302.773 437.481 303.108 436.174 303.108 434.653C303.108 433.133 302.773 431.795 302.135 430.639C301.496 429.484 300.614 428.571 299.489 427.933C298.394 427.264 297.086 426.959 295.657 426.959C294.228 426.959 293.133 427.233 291.947 427.75C290.761 428.267 289.849 428.997 289.18 429.879L280.999 428.419L283.037 405.52H309.585V413.032H290.639L289.575 423.888H289.818C290.579 422.824 291.734 421.942 293.255 421.242C294.806 420.543 296.539 420.178 298.424 420.178C300.31 420.178 303.351 420.786 305.388 422.003C307.456 423.219 309.068 424.922 310.254 427.051C311.44 429.179 312.018 431.643 312.018 434.41C312.018 437.177 311.349 439.945 309.98 442.225C308.612 444.476 306.726 446.24 304.263 447.547C301.83 448.824 299.033 449.463 295.809 449.463H295.779Z" fill="white"/>
<path d="M40.855 362.886C16.1315 362.886 4.48438 350.144 4.48438 323.474V179.786H34.6817V326.485C34.6817 332.658 36.8712 335.942 40.855 335.942C44.8387 335.942 46.7849 332.658 46.7849 326.485V179.786H77.1039V323.231C77.1039 350.144 65.3352 362.886 40.855 362.886ZM86.3182 360.088V179.786H116.759L130.808 250.824L134.701 277.251H135.309L133.241 244.408V179.786H162.587V360.088H132.146L118.097 289.415L114.204 262.988H113.596L115.664 295.831V360.088H86.3182ZM172.531 360.088V179.786H208.902C232.774 179.786 244.664 191.433 244.664 211.808V251.341C244.664 263.961 239.95 273.419 227.938 277.159V277.403C240.437 280.322 243.569 289.901 243.813 305.289L244.056 338.253C244.177 347.346 244.786 354.979 246.245 360.088H216.17C215.44 356.195 214.588 346.616 214.467 334.635L214.102 300.697C213.98 294.037 211.547 290.996 205.861 290.996H202.82V360.118H172.501L172.531 360.088ZM202.85 267.823H207.107C211.486 267.823 214.619 265.512 214.619 257.271V215.305C214.619 207.794 211.943 204.996 207.472 204.996H202.88V267.793L202.85 267.823ZM252.084 360.088V179.786H309.316V206.456H282.403V254.717H306.275V280.292H282.403V333.023H310.289V360.057H252.084V360.088ZM313.695 360.088L334.07 179.786H377.465L397.962 360.088H367.278L364.845 333.053H346.781L344.349 360.088H313.665H313.695ZM349.093 307.843H362.656L357.334 245.533L356.117 221.417H355.509L354.414 245.533L349.093 307.843ZM403.405 360.088V179.786H433.724V332.202H458.204V360.088H403.405ZM501.934 360.088V179.786H558.558V206.699H532.253V257.879H555.426V284.792H532.253V360.088H501.934ZM565.4 360.088V179.786H622.632V206.456H595.719V254.717H619.591V280.292H595.719V333.023H623.605V360.057H565.4V360.088ZM665.419 362.886C642.49 362.886 629.17 351.482 629.17 327.488V294.524H658.881V327.488C658.881 332.81 660.341 336.824 665.663 336.824C670.984 336.824 671.349 334.026 671.349 330.164V296.47C671.349 272.476 629.535 281.934 629.535 240.089V209.04C629.535 188.422 644.071 177.019 665.176 177.019C686.281 177.019 700.817 190.125 700.695 212.538V242.248H671.958V212.538C671.958 206.121 669.768 203.202 665.419 203.202C661.071 203.202 659.854 205.635 659.854 209.253V239.694C660.098 261.164 701.699 254.352 701.699 295.345V330.499C701.699 350.995 686.919 362.886 665.45 362.886H665.419ZM723.807 360.088V207.55H705.5V179.786H772.676V207.55H754.126V360.088H723.807Z" fill="white"/>
</g>
<defs>
<clipPath id="clip0_2089_9231">
<rect width="773.939" height="462.539" fill="white" transform="translate(0.226562 0.640137)"/>
</clipPath>
</defs>
</svg>
