<svg width="31" height="31" viewBox="0 0 31 31" fill="none" xmlns="http://www.w3.org/2000/svg">
<path d="M16.7737 25.8322C17.0697 25.8575 17.3697 25.8702 17.6737 25.8702C20.5259 25.8702 23.2612 24.7372 25.278 22.7204C27.2947 20.7037 28.4277 17.9683 28.4277 15.1162C28.4277 12.2641 27.2947 9.52875 25.278 7.51198C23.2612 5.49522 20.5259 4.36221 17.6737 4.36221C17.3717 4.36221 17.0717 4.37488 16.7737 4.40021C15.1609 4.02643 13.4844 4.02155 11.8694 4.38593C10.2543 4.75031 8.74239 5.47455 7.44626 6.50466C6.15012 7.53477 5.10323 8.84417 4.38364 10.3352C3.66405 11.8263 3.29032 13.4606 3.29032 15.1162C3.29032 16.7718 3.66405 18.4061 4.38364 19.8972C5.10323 21.3882 6.15012 22.6976 7.44626 23.7278C8.74239 24.7579 10.2543 25.4821 11.8694 25.8465C13.4844 26.2109 15.1609 26.206 16.7737 25.8322ZM3.77674 15.1162C3.77991 12.3306 4.88792 9.6599 6.85767 7.69015C8.82743 5.72039 11.4981 4.61239 14.2837 4.60921C14.5907 4.60921 14.8947 4.62321 15.1947 4.64921C12.8378 5.20689 10.738 6.54376 9.23539 8.44337C7.73279 10.343 6.91532 12.6942 6.91532 15.1162C6.91532 17.5383 7.73279 19.8894 9.23539 21.789C10.738 23.6887 12.8378 25.0255 15.1947 25.5832C14.8947 25.6092 14.5947 25.6232 14.2837 25.6232C11.4981 25.62 8.82743 24.512 6.85767 22.5423C4.88792 20.5725 3.77991 17.9019 3.77674 15.1162Z" fill="#FFC803"/>
</svg>
