<svg width="31" height="31" viewBox="0 0 31 31" fill="none" xmlns="http://www.w3.org/2000/svg">
<path d="M15.6075 27.6526C22.2145 27.6526 27.5705 22.2965 27.5705 15.6896C27.5705 9.08258 22.2145 3.72656 15.6075 3.72656C9.00055 3.72656 3.64453 9.08258 3.64453 15.6896C3.64453 22.2965 9.00055 27.6526 15.6075 27.6526Z" fill="#EA83EC"/>
<path d="M11.9452 16.2043C12.4036 16.2043 12.7752 14.747 12.7752 12.9493C12.7752 11.1516 12.4036 9.69434 11.9452 9.69434C11.4868 9.69434 11.1152 11.1516 11.1152 12.9493C11.1152 14.747 11.4868 16.2043 11.9452 16.2043Z" fill="black"/>
<path d="M19.2753 16.2043C19.7337 16.2043 20.1053 14.747 20.1053 12.9493C20.1053 11.1516 19.7337 9.69434 19.2753 9.69434C18.8169 9.69434 18.4453 11.1516 18.4453 12.9493C18.4453 14.747 18.8169 16.2043 19.2753 16.2043Z" fill="black"/>
<path d="M23.1267 18.2717C23.0956 18.2714 23.0648 18.2784 23.0369 18.2921C23.0089 18.3058 22.9846 18.3259 22.9657 18.3507C22.1035 19.4839 20.991 20.4026 19.7152 21.035C18.4394 21.6674 17.0347 21.9964 15.6107 21.9964C14.1868 21.9964 12.7821 21.6674 11.5063 21.035C10.2304 20.4026 9.11799 19.4839 8.25574 18.3507C8.23972 18.3297 8.21971 18.312 8.19687 18.2987C8.17403 18.2855 8.14879 18.2768 8.12261 18.2733C8.09642 18.2698 8.0698 18.2714 8.04425 18.2782C8.01871 18.2849 7.99475 18.2967 7.97374 18.3127C7.95273 18.3287 7.93508 18.3487 7.92179 18.3716C7.90851 18.3944 7.89986 18.4196 7.89633 18.4458C7.8928 18.472 7.89447 18.4986 7.90123 18.5242C7.90799 18.5497 7.91972 18.5737 7.93574 18.5947C8.83537 19.7774 9.99617 20.7362 11.3275 21.3963C12.6589 22.0563 14.1248 22.3997 15.6107 22.3997C17.0967 22.3997 18.5626 22.0563 19.894 21.3963C21.2253 20.7362 22.3861 19.7774 23.2857 18.5947C23.3019 18.5737 23.3138 18.5498 23.3206 18.5242C23.3275 18.4987 23.3292 18.472 23.3256 18.4458C23.3221 18.4195 23.3134 18.3943 23.3 18.3714C23.2867 18.3486 23.2689 18.3286 23.2477 18.3127C23.213 18.2862 23.1705 18.2718 23.1267 18.2717Z" fill="black"/>
</svg>
