<svg width="31" height="31" viewBox="0 0 31 31" fill="none" xmlns="http://www.w3.org/2000/svg">
<path d="M16.432 3.26845C16.656 2.15745 18.309 2.40645 18.195 3.53445C18.095 4.50345 19.402 4.90545 19.868 4.05045C20.409 3.05045 21.915 3.78045 21.474 4.82345C21.096 5.72345 22.223 6.49045 22.92 5.80945C23.731 5.02145 24.957 6.15545 24.228 7.02145C23.601 7.76745 24.452 8.83444 25.319 8.38945C26.327 7.87245 27.162 9.31944 26.211 9.93444C25.392 10.4624 25.891 11.7344 26.85 11.5634C27.965 11.3634 28.337 12.9954 27.25 13.3014C26.312 13.5654 26.414 14.9264 27.381 15.0474C28.505 15.1874 28.381 16.8544 27.247 16.8254C26.273 16.8004 25.97 18.1314 26.858 18.5314C27.891 18.9974 27.28 20.5524 26.206 20.1914C25.283 19.8814 24.606 21.0634 25.331 21.7074C26.181 22.4564 25.139 23.7634 24.219 23.1014C23.429 22.5324 22.428 23.4604 22.936 24.2914C23.528 25.2584 22.147 26.1994 21.463 25.2914C20.875 24.5144 19.645 25.1064 19.886 26.0504C20.166 27.1504 18.569 27.6414 18.186 26.5764C17.853 25.6604 16.504 25.8644 16.456 26.8374C16.4 27.9684 14.728 27.9684 14.672 26.8374C14.624 25.8644 13.272 25.6604 12.942 26.5764C12.555 27.6414 10.958 27.1484 11.242 26.0504C11.483 25.1064 10.253 24.5144 9.665 25.2914C8.981 26.1914 7.6 25.2534 8.192 24.2914C8.7 23.4604 7.699 22.5324 6.909 23.1014C5.989 23.7634 4.947 22.4564 5.797 21.7074C6.527 21.0634 5.845 19.8814 4.922 20.1914C3.848 20.5524 3.237 18.9974 4.27 18.5314C5.158 18.1314 4.855 16.8004 3.881 16.8254C2.748 16.8544 2.623 15.1874 3.747 15.0474C4.714 14.9264 4.816 13.5654 3.878 13.3014C2.788 12.9954 3.16 11.3664 4.278 11.5634C5.237 11.7324 5.736 10.4634 4.917 9.93444C3.957 9.32144 4.787 7.87345 5.795 8.39045C6.662 8.83545 7.513 7.76845 6.886 7.02145C6.158 6.15445 7.386 5.02145 8.194 5.80845C8.894 6.48945 10.018 5.72044 9.64 4.82244C9.199 3.77945 10.705 3.05345 11.246 4.04945C11.712 4.90444 13.016 4.50244 12.919 3.53345C12.805 2.40545 14.458 2.15645 14.682 3.26745C14.875 4.22145 16.239 4.22145 16.432 3.26845Z" fill="#00B775"/>
</svg>
