<svg width="33" height="33" viewBox="0 0 33 33" fill="none" xmlns="http://www.w3.org/2000/svg">
<path d="M16.2481 2.12109C13.4791 2.12109 10.7724 2.94218 8.47007 4.48052C6.16778 6.01886 4.37337 8.20536 3.31374 10.7635C2.25411 13.3217 1.97687 16.1366 2.51706 18.8524C3.05725 21.5681 4.39062 24.0627 6.34856 26.0206C8.30649 27.9785 10.8011 29.3119 13.5168 29.8521C16.2325 30.3923 19.0475 30.115 21.6056 29.0554C24.1638 27.9958 26.3503 26.2014 27.8886 23.8991C29.427 21.5968 30.2481 18.89 30.2481 16.1211C30.2481 12.4081 28.7731 8.84711 26.1475 6.2216C23.522 3.59609 19.9611 2.12109 16.2481 2.12109ZM28.0881 14.2311C28.0881 14.2311 28.0381 14.2311 28.0181 14.2311C26.8239 14.9221 25.5603 15.4852 24.2481 15.9111C24.3426 12.163 23.3417 8.4688 21.3681 5.28109C23.1311 6.11459 24.6644 7.3652 25.8354 8.92469C27.0063 10.4842 27.7795 12.3055 28.0881 14.2311ZM10.2481 16.1211C10.2481 10.3011 12.4481 5.29109 15.2481 4.31109V17.1211C13.5646 17.0702 11.8901 16.8559 10.2481 16.4811C10.2481 16.3411 10.2481 16.2311 10.2481 16.1211ZM15.2481 19.1211V27.9611C12.8481 27.1111 10.8781 23.3111 10.3781 18.5511C11.9821 18.8803 13.6114 19.071 15.2481 19.1211ZM17.2481 27.9611V19.1211C18.8847 19.071 20.5141 18.8803 22.1181 18.5511C21.6181 23.2811 19.6481 27.1211 17.2481 27.9311V27.9611ZM17.2481 17.1211V4.31109C20.0481 5.31109 22.2481 10.3111 22.2481 16.1211C22.2481 16.2311 22.2481 16.3411 22.2481 16.4511C20.607 16.836 18.9325 17.0604 17.2481 17.1211ZM11.1281 5.28109C9.15439 8.4688 8.1535 12.163 8.24805 15.9111C6.93358 15.4954 5.66658 14.9424 4.46805 14.2611C4.46805 14.2611 4.46805 14.2611 4.39805 14.2611C4.70307 12.3291 5.4757 10.501 6.64867 8.93592C7.82163 7.3708 9.35939 6.11612 11.1281 5.28109ZM4.24805 16.4011C5.54854 17.0702 6.91179 17.6094 8.31805 18.0111C8.45231 21.2036 9.41745 24.3059 11.1181 27.0111C9.09915 26.0569 7.38654 24.5583 6.17286 22.6839C4.95918 20.8095 4.29259 18.6337 4.24805 16.4011ZM21.3681 26.9611C23.0604 24.2704 24.0252 21.1865 24.1681 18.0111C25.5777 17.6101 26.9444 17.0708 28.2481 16.4011C28.1934 18.6262 27.521 20.7922 26.306 22.657C25.091 24.5219 23.3813 26.0121 21.3681 26.9611Z" fill="white"/>
</svg>
