<svg width="50" height="49" viewBox="0 0 50 49" fill="none" xmlns="http://www.w3.org/2000/svg">
<mask id="mask0_2498_1361" style="mask-type:alpha" maskUnits="userSpaceOnUse" x="0" y="0" width="50" height="49">
<rect x="0.627441" y="0.17627" width="48.4308" height="48.4308" fill="#575CEF"/>
</mask>
<g mask="url(#mask0_2498_1361)">
<path d="M9.81082 38.5169C8.09556 38.5169 6.76708 37.92 5.82537 36.726C4.88365 35.5321 4.53051 34.0774 4.76594 32.3622L6.88479 17.2276C7.18748 15.2096 8.08715 13.5448 9.5838 12.2331C11.0804 10.9215 12.8377 10.2656 14.8557 10.2656H34.8334C36.8514 10.2656 38.6087 10.9215 40.1053 12.2331C41.602 13.5448 42.5016 15.2096 42.8043 17.2276L44.9232 32.3622C45.1586 34.0774 44.8055 35.5321 43.8637 36.726C42.922 37.92 41.5935 38.5169 39.8783 38.5169C39.172 38.5169 38.5162 38.3908 37.9108 38.1386C37.3054 37.8863 36.7505 37.508 36.246 37.0035L31.7056 32.4631H17.9835L13.4431 37.0035C12.9386 37.508 12.3837 37.8863 11.7783 38.1386C11.1729 38.3908 10.5171 38.5169 9.81082 38.5169ZM10.618 34.1783L16.3692 28.4272H33.3199L39.0711 34.1783C39.1384 34.2456 39.4074 34.3465 39.8783 34.481C40.2482 34.481 40.5425 34.3717 40.7611 34.1531C40.9798 33.9345 41.0554 33.6402 40.9882 33.2703L38.7684 17.732C38.6339 16.7567 38.1967 15.9411 37.4567 15.2853C36.7168 14.6294 35.8424 14.3015 34.8334 14.3015H14.8557C13.8467 14.3015 12.9723 14.6294 12.2324 15.2853C11.4924 15.9411 11.0552 16.7567 10.9207 17.732L8.70095 33.2703C8.63368 33.6402 8.70935 33.9345 8.92796 34.1531C9.14658 34.3717 9.44086 34.481 9.81082 34.481C9.87808 34.481 10.1471 34.3801 10.618 34.1783ZM34.9343 26.4092C35.5061 26.4092 35.9853 26.2158 36.3721 25.8291C36.7589 25.4423 36.9523 24.963 36.9523 24.3913C36.9523 23.8195 36.7589 23.3403 36.3721 22.9535C35.9853 22.5667 35.5061 22.3733 34.9343 22.3733C34.3626 22.3733 33.8833 22.5667 33.4965 22.9535C33.1097 23.3403 32.9164 23.8195 32.9164 24.3913C32.9164 24.963 33.1097 25.4423 33.4965 25.8291C33.8833 26.2158 34.3626 26.4092 34.9343 26.4092ZM30.8984 20.3554C31.4702 20.3554 31.9494 20.162 32.3362 19.7752C32.723 19.3884 32.9164 18.9092 32.9164 18.3374C32.9164 17.7657 32.723 17.2864 32.3362 16.8996C31.9494 16.5129 31.4702 16.3195 30.8984 16.3195C30.3267 16.3195 29.8474 16.5129 29.4606 16.8996C29.0738 17.2864 28.8805 17.7657 28.8805 18.3374C28.8805 18.9092 29.0738 19.3884 29.4606 19.7752C29.8474 20.162 30.3267 20.3554 30.8984 20.3554ZM16.2683 26.4092H19.2952V22.8778H22.8266V19.8509H19.2952V16.3195H16.2683V19.8509H12.7368V22.8778H16.2683V26.4092Z" fill="#575CEF"/>
</g>
</svg>
