<svg width="50" height="49" viewBox="0 0 50 49" fill="none" xmlns="http://www.w3.org/2000/svg">
<mask id="mask0_2498_1392" style="mask-type:alpha" maskUnits="userSpaceOnUse" x="0" y="0" width="50" height="49">
<rect x="0.627441" y="0.17627" width="48.4372" height="48.4372" fill="#7F9BB8"/>
</mask>
<g mask="url(#mask0_2498_1392)">
<path d="M24.8459 45.5861C23.1641 45.5861 21.7345 44.9975 20.5572 43.8202C19.3799 42.6429 18.7913 41.2133 18.7913 39.5315C18.7913 37.8496 19.3799 36.4201 20.5572 35.2428C21.7345 34.0655 23.1641 33.4768 24.8459 33.4768C26.5277 33.4768 27.9573 34.0655 29.1346 35.2428C30.3119 36.4201 30.9005 37.8496 30.9005 39.5315C30.9005 41.2133 30.3119 42.6429 29.1346 43.8202C27.9573 44.9975 26.5277 45.5861 24.8459 45.5861ZM24.8459 41.5497C25.4177 41.5497 25.8971 41.3563 26.2839 40.9695C26.6707 40.5826 26.8641 40.1033 26.8641 39.5315C26.8641 38.9597 26.6707 38.4803 26.2839 38.0935C25.8971 37.7067 25.4177 37.5133 24.8459 37.5133C24.2741 37.5133 23.7947 37.7067 23.4079 38.0935C23.0211 38.4803 22.8277 38.9597 22.8277 39.5315C22.8277 40.1033 23.0211 40.5826 23.4079 40.9695C23.7947 41.3563 24.2741 41.5497 24.8459 41.5497ZM11.7275 38.0178C10.0457 38.0178 8.61608 37.4292 7.43879 36.2519C6.2615 35.0746 5.67285 33.645 5.67285 31.9632C5.67285 30.2813 6.2615 28.8518 7.43879 27.6745C8.61608 26.4972 10.0457 25.9085 11.7275 25.9085C13.4093 25.9085 14.8389 26.4972 16.0162 27.6745C17.1935 28.8518 17.7821 30.2813 17.7821 31.9632C17.7821 33.645 17.1935 35.0746 16.0162 36.2519C14.8389 37.4292 13.4093 38.0178 11.7275 38.0178ZM37.9643 38.0178C36.2825 38.0178 34.8529 37.4292 33.6756 36.2519C32.4983 35.0746 31.9097 33.645 31.9097 31.9632C31.9097 30.2813 32.4983 28.8518 33.6756 27.6745C34.8529 26.4972 36.2825 25.9085 37.9643 25.9085C39.6461 25.9085 41.0757 26.4972 42.253 27.6745C43.4303 28.8518 44.0189 30.2813 44.0189 31.9632C44.0189 33.645 43.4303 35.0746 42.253 36.2519C41.0757 37.4292 39.6461 38.0178 37.9643 38.0178ZM11.7275 33.9814C12.2993 33.9814 12.7787 33.788 13.1655 33.4012C13.5523 33.0143 13.7457 32.535 13.7457 31.9632C13.7457 31.3914 13.5523 30.912 13.1655 30.5252C12.7787 30.1384 12.2993 29.945 11.7275 29.945C11.1557 29.945 10.6763 30.1384 10.2895 30.5252C9.9027 30.912 9.70928 31.3914 9.70928 31.9632C9.70928 32.535 9.9027 33.0143 10.2895 33.4012C10.6763 33.788 11.1557 33.9814 11.7275 33.9814ZM37.9643 33.9814C38.5361 33.9814 39.0155 33.788 39.4023 33.4012C39.7891 33.0143 39.9825 32.535 39.9825 31.9632C39.9825 31.3914 39.7891 30.912 39.4023 30.5252C39.0155 30.1384 38.5361 29.945 37.9643 29.945C37.3925 29.945 36.9131 30.1384 36.5263 30.5252C36.1395 30.912 35.9461 31.3914 35.9461 31.9632C35.9461 32.535 36.1395 33.0143 36.5263 33.4012C36.9131 33.788 37.3925 33.9814 37.9643 33.9814ZM11.7275 22.8812C10.0457 22.8812 8.61608 22.2926 7.43879 21.1153C6.2615 19.938 5.67285 18.5084 5.67285 16.8266C5.67285 15.1447 6.2615 13.7152 7.43879 12.5379C8.61608 11.3606 10.0457 10.7719 11.7275 10.7719C13.4093 10.7719 14.8389 11.3606 16.0162 12.5379C17.1935 13.7152 17.7821 15.1447 17.7821 16.8266C17.7821 18.5084 17.1935 19.938 16.0162 21.1153C14.8389 22.2926 13.4093 22.8812 11.7275 22.8812ZM37.9643 22.8812C36.2825 22.8812 34.8529 22.2926 33.6756 21.1153C32.4983 19.938 31.9097 18.5084 31.9097 16.8266C31.9097 15.1447 32.4983 13.7152 33.6756 12.5379C34.8529 11.3606 36.2825 10.7719 37.9643 10.7719C39.6461 10.7719 41.0757 11.3606 42.253 12.5379C43.4303 13.7152 44.0189 15.1447 44.0189 16.8266C44.0189 18.5084 43.4303 19.938 42.253 21.1153C41.0757 22.2926 39.6461 22.8812 37.9643 22.8812ZM11.7275 18.8448C12.2993 18.8448 12.7787 18.6514 13.1655 18.2645C13.5523 17.8777 13.7457 17.3984 13.7457 16.8266C13.7457 16.2547 13.5523 15.7754 13.1655 15.3886C12.7787 15.0018 12.2993 14.8084 11.7275 14.8084C11.1557 14.8084 10.6763 15.0018 10.2895 15.3886C9.9027 15.7754 9.70928 16.2547 9.70928 16.8266C9.70928 17.3984 9.9027 17.8777 10.2895 18.2645C10.6763 18.6514 11.1557 18.8448 11.7275 18.8448ZM37.9643 18.8448C38.5361 18.8448 39.0155 18.6514 39.4023 18.2645C39.7891 17.8777 39.9825 17.3984 39.9825 16.8266C39.9825 16.2547 39.7891 15.7754 39.4023 15.3886C39.0155 15.0018 38.5361 14.8084 37.9643 14.8084C37.3925 14.8084 36.9131 15.0018 36.5263 15.3886C36.1395 15.7754 35.9461 16.2547 35.9461 16.8266C35.9461 17.3984 36.1395 17.8777 36.5263 18.2645C36.9131 18.6514 37.3925 18.8448 37.9643 18.8448ZM24.8459 15.3129C23.1641 15.3129 21.7345 14.7243 20.5572 13.547C19.3799 12.3697 18.7913 10.9401 18.7913 9.25826C18.7913 7.57641 19.3799 6.14684 20.5572 4.96955C21.7345 3.79226 23.1641 3.20361 24.8459 3.20361C26.5277 3.20361 27.9573 3.79226 29.1346 4.96955C30.3119 6.14684 30.9005 7.57641 30.9005 9.25826C30.9005 10.9401 30.3119 12.3697 29.1346 13.547C27.9573 14.7243 26.5277 15.3129 24.8459 15.3129ZM24.8459 11.2765C25.4177 11.2765 25.8971 11.0831 26.2839 10.6962C26.6707 10.3094 26.8641 9.83009 26.8641 9.25826C26.8641 8.68643 26.6707 8.20711 26.2839 7.82028C25.8971 7.43346 25.4177 7.24004 24.8459 7.24004C24.2741 7.24004 23.7947 7.43346 23.4079 7.82028C23.0211 8.20711 22.8277 8.68643 22.8277 9.25826C22.8277 9.83009 23.0211 10.3094 23.4079 10.6962C23.7947 11.0831 24.2741 11.2765 24.8459 11.2765Z" fill="#7F9BB8"/>
</g>
</svg>
