<svg width="50" height="49" viewBox="0 0 50 49" fill="none" xmlns="http://www.w3.org/2000/svg">
<mask id="mask0_3096_1472" style="mask-type:alpha" maskUnits="userSpaceOnUse" x="0" y="0" width="50" height="49">
<rect x="0.626953" y="0.176331" width="48.4372" height="48.4372" fill="#D9D9D9"/>
</mask>
<g mask="url(#mask0_3096_1472)">
<path d="M6.68001 29.4405C6.41091 29.4405 6.17545 29.3396 5.97363 29.1378C5.77181 28.936 5.6709 28.7005 5.6709 28.4314C5.6709 28.1623 5.77181 27.9269 5.97363 27.7251C6.17545 27.5232 6.41091 27.4223 6.68001 27.4223C6.9491 27.4223 7.18456 27.5232 7.38638 27.7251C7.5882 27.9269 7.68911 28.1623 7.68911 28.4314C7.68911 28.7005 7.5882 28.936 7.38638 29.1378C7.18456 29.3396 6.9491 29.4405 6.68001 29.4405ZM6.68001 21.3677C6.41091 21.3677 6.17545 21.2668 5.97363 21.0649C5.77181 20.8631 5.6709 20.6277 5.6709 20.3586C5.6709 20.0895 5.77181 19.854 5.97363 19.6522C6.17545 19.4504 6.41091 19.3495 6.68001 19.3495C6.9491 19.3495 7.18456 19.4504 7.38638 19.6522C7.5882 19.854 7.68911 20.0895 7.68911 20.3586C7.68911 20.6277 7.5882 20.8631 7.38638 21.0649C7.18456 21.2668 6.9491 21.3677 6.68001 21.3677ZM12.7347 38.5225C12.1628 38.5225 11.6835 38.3291 11.2967 37.9423C10.9099 37.5555 10.7164 37.0761 10.7164 36.5043C10.7164 35.9325 10.9099 35.4531 11.2967 35.0663C11.6835 34.6795 12.1628 34.4861 12.7347 34.4861C13.3065 34.4861 13.7858 34.6795 14.1726 35.0663C14.5595 35.4531 14.7529 35.9325 14.7529 36.5043C14.7529 37.0761 14.5595 37.5555 14.1726 37.9423C13.7858 38.3291 13.3065 38.5225 12.7347 38.5225ZM12.7347 30.4497C12.1628 30.4497 11.6835 30.2562 11.2967 29.8694C10.9099 29.4826 10.7164 29.0033 10.7164 28.4314C10.7164 27.8596 10.9099 27.3803 11.2967 26.9935C11.6835 26.6066 12.1628 26.4132 12.7347 26.4132C13.3065 26.4132 13.7858 26.6066 14.1726 26.9935C14.5595 27.3803 14.7529 27.8596 14.7529 28.4314C14.7529 29.0033 14.5595 29.4826 14.1726 29.8694C13.7858 30.2562 13.3065 30.4497 12.7347 30.4497ZM12.7347 22.3768C12.1628 22.3768 11.6835 22.1834 11.2967 21.7966C10.9099 21.4097 10.7164 20.9304 10.7164 20.3586C10.7164 19.7867 10.9099 19.3074 11.2967 18.9206C11.6835 18.5338 12.1628 18.3404 12.7347 18.3404C13.3065 18.3404 13.7858 18.5338 14.1726 18.9206C14.5595 19.3074 14.7529 19.7867 14.7529 20.3586C14.7529 20.9304 14.5595 21.4097 14.1726 21.7966C13.7858 22.1834 13.3065 22.3768 12.7347 22.3768ZM12.7347 14.3039C12.1628 14.3039 11.6835 14.1105 11.2967 13.7237C10.9099 13.3369 10.7164 12.8575 10.7164 12.2857C10.7164 11.7139 10.9099 11.2346 11.2967 10.8477C11.6835 10.4609 12.1628 10.2675 12.7347 10.2675C13.3065 10.2675 13.7858 10.4609 14.1726 10.8477C14.5595 11.2346 14.7529 11.7139 14.7529 12.2857C14.7529 12.8575 14.5595 13.3369 14.1726 13.7237C13.7858 14.1105 13.3065 14.3039 12.7347 14.3039ZM20.8075 31.4588C19.9666 31.4588 19.2518 31.1644 18.6632 30.5758C18.0745 29.9871 17.7802 29.2724 17.7802 28.4314C17.7802 27.5905 18.0745 26.8757 18.6632 26.2871C19.2518 25.6984 19.9666 25.4041 20.8075 25.4041C21.6484 25.4041 22.3632 25.6984 22.9519 26.2871C23.5405 26.8757 23.8348 27.5905 23.8348 28.4314C23.8348 29.2724 23.5405 29.9871 22.9519 30.5758C22.3632 31.1644 21.6484 31.4588 20.8075 31.4588ZM20.8075 23.3859C19.9666 23.3859 19.2518 23.0916 18.6632 22.5029C18.0745 21.9143 17.7802 21.1995 17.7802 20.3586C17.7802 19.5177 18.0745 18.8029 18.6632 18.2142C19.2518 17.6256 19.9666 17.3312 20.8075 17.3312C21.6484 17.3312 22.3632 17.6256 22.9519 18.2142C23.5405 18.8029 23.8348 19.5177 23.8348 20.3586C23.8348 21.1995 23.5405 21.9143 22.9519 22.5029C22.3632 23.0916 21.6484 23.3859 20.8075 23.3859ZM20.8075 38.5225C20.2357 38.5225 19.7564 38.3291 19.3695 37.9423C18.9827 37.5555 18.7893 37.0761 18.7893 36.5043C18.7893 35.9325 18.9827 35.4531 19.3695 35.0663C19.7564 34.6795 20.2357 34.4861 20.8075 34.4861C21.3793 34.4861 21.8587 34.6795 22.2455 35.0663C22.6323 35.4531 22.8257 35.9325 22.8257 36.5043C22.8257 37.0761 22.6323 37.5555 22.2455 37.9423C21.8587 38.3291 21.3793 38.5225 20.8075 38.5225ZM20.8075 14.3039C20.2357 14.3039 19.7564 14.1105 19.3695 13.7237C18.9827 13.3369 18.7893 12.8575 18.7893 12.2857C18.7893 11.7139 18.9827 11.2346 19.3695 10.8477C19.7564 10.4609 20.2357 10.2675 20.8075 10.2675C21.3793 10.2675 21.8587 10.4609 22.2455 10.8477C22.6323 11.2346 22.8257 11.7139 22.8257 12.2857C22.8257 12.8575 22.6323 13.3369 22.2455 13.7237C21.8587 14.1105 21.3793 14.3039 20.8075 14.3039ZM20.8075 43.5681C20.5384 43.5681 20.303 43.4671 20.1011 43.2653C19.8993 43.0635 19.7984 42.828 19.7984 42.5589C19.7984 42.2899 19.8993 42.0544 20.1011 41.8526C20.303 41.6507 20.5384 41.5498 20.8075 41.5498C21.0766 41.5498 21.3121 41.6507 21.5139 41.8526C21.7157 42.0544 21.8166 42.2899 21.8166 42.5589C21.8166 42.828 21.7157 43.0635 21.5139 43.2653C21.3121 43.4671 21.0766 43.5681 20.8075 43.5681ZM20.8075 7.24017C20.5384 7.24017 20.303 7.13926 20.1011 6.93744C19.8993 6.73562 19.7984 6.50016 19.7984 6.23106C19.7984 5.96197 19.8993 5.72651 20.1011 5.52469C20.303 5.32287 20.5384 5.22195 20.8075 5.22195C21.0766 5.22195 21.3121 5.32287 21.5139 5.52469C21.7157 5.72651 21.8166 5.96197 21.8166 6.23106C21.8166 6.50016 21.7157 6.73562 21.5139 6.93744C21.3121 7.13926 21.0766 7.24017 20.8075 7.24017ZM28.8804 31.4588C28.0395 31.4588 27.3247 31.1644 26.736 30.5758C26.1474 29.9871 25.8531 29.2724 25.8531 28.4314C25.8531 27.5905 26.1474 26.8757 26.736 26.2871C27.3247 25.6984 28.0395 25.4041 28.8804 25.4041C29.7213 25.4041 30.4361 25.6984 31.0247 26.2871C31.6134 26.8757 31.9077 27.5905 31.9077 28.4314C31.9077 29.2724 31.6134 29.9871 31.0247 30.5758C30.4361 31.1644 29.7213 31.4588 28.8804 31.4588ZM28.8804 23.3859C28.0395 23.3859 27.3247 23.0916 26.736 22.5029C26.1474 21.9143 25.8531 21.1995 25.8531 20.3586C25.8531 19.5177 26.1474 18.8029 26.736 18.2142C27.3247 17.6256 28.0395 17.3312 28.8804 17.3312C29.7213 17.3312 30.4361 17.6256 31.0247 18.2142C31.6134 18.8029 31.9077 19.5177 31.9077 20.3586C31.9077 21.1995 31.6134 21.9143 31.0247 22.5029C30.4361 23.0916 29.7213 23.3859 28.8804 23.3859ZM28.8804 38.5225C28.3086 38.5225 27.8292 38.3291 27.4424 37.9423C27.0556 37.5555 26.8622 37.0761 26.8622 36.5043C26.8622 35.9325 27.0556 35.4531 27.4424 35.0663C27.8292 34.6795 28.3086 34.4861 28.8804 34.4861C29.4522 34.4861 29.9315 34.6795 30.3184 35.0663C30.7052 35.4531 30.8986 35.9325 30.8986 36.5043C30.8986 37.0761 30.7052 37.5555 30.3184 37.9423C29.9315 38.3291 29.4522 38.5225 28.8804 38.5225ZM28.8804 14.3039C28.3086 14.3039 27.8292 14.1105 27.4424 13.7237C27.0556 13.3369 26.8622 12.8575 26.8622 12.2857C26.8622 11.7139 27.0556 11.2346 27.4424 10.8477C27.8292 10.4609 28.3086 10.2675 28.8804 10.2675C29.4522 10.2675 29.9315 10.4609 30.3184 10.8477C30.7052 11.2346 30.8986 11.7139 30.8986 12.2857C30.8986 12.8575 30.7052 13.3369 30.3184 13.7237C29.9315 14.1105 29.4522 14.3039 28.8804 14.3039ZM28.8804 43.5681C28.6113 43.5681 28.3758 43.4671 28.174 43.2653C27.9722 43.0635 27.8713 42.828 27.8713 42.5589C27.8713 42.2899 27.9722 42.0544 28.174 41.8526C28.3758 41.6507 28.6113 41.5498 28.8804 41.5498C29.1495 41.5498 29.3849 41.6507 29.5868 41.8526C29.7886 42.0544 29.8895 42.2899 29.8895 42.5589C29.8895 42.828 29.7886 43.0635 29.5868 43.2653C29.3849 43.4671 29.1495 43.5681 28.8804 43.5681ZM28.8804 7.24017C28.6113 7.24017 28.3758 7.13926 28.174 6.93744C27.9722 6.73562 27.8713 6.50016 27.8713 6.23106C27.8713 5.96197 27.9722 5.72651 28.174 5.52469C28.3758 5.32287 28.6113 5.22195 28.8804 5.22195C29.1495 5.22195 29.3849 5.32287 29.5868 5.52469C29.7886 5.72651 29.8895 5.96197 29.8895 6.23106C29.8895 6.50016 29.7886 6.73562 29.5868 6.93744C29.3849 7.13926 29.1495 7.24017 28.8804 7.24017ZM36.9532 38.5225C36.3814 38.5225 35.9021 38.3291 35.5153 37.9423C35.1284 37.5555 34.935 37.0761 34.935 36.5043C34.935 35.9325 35.1284 35.4531 35.5153 35.0663C35.9021 34.6795 36.3814 34.4861 36.9532 34.4861C37.5251 34.4861 38.0044 34.6795 38.3912 35.0663C38.778 35.4531 38.9715 35.9325 38.9715 36.5043C38.9715 37.0761 38.778 37.5555 38.3912 37.9423C38.0044 38.3291 37.5251 38.5225 36.9532 38.5225ZM36.9532 30.4497C36.3814 30.4497 35.9021 30.2562 35.5153 29.8694C35.1284 29.4826 34.935 29.0033 34.935 28.4314C34.935 27.8596 35.1284 27.3803 35.5153 26.9935C35.9021 26.6066 36.3814 26.4132 36.9532 26.4132C37.5251 26.4132 38.0044 26.6066 38.3912 26.9935C38.778 27.3803 38.9715 27.8596 38.9715 28.4314C38.9715 29.0033 38.778 29.4826 38.3912 29.8694C38.0044 30.2562 37.5251 30.4497 36.9532 30.4497ZM36.9532 22.3768C36.3814 22.3768 35.9021 22.1834 35.5153 21.7966C35.1284 21.4097 34.935 20.9304 34.935 20.3586C34.935 19.7867 35.1284 19.3074 35.5153 18.9206C35.9021 18.5338 36.3814 18.3404 36.9532 18.3404C37.5251 18.3404 38.0044 18.5338 38.3912 18.9206C38.778 19.3074 38.9715 19.7867 38.9715 20.3586C38.9715 20.9304 38.778 21.4097 38.3912 21.7966C38.0044 22.1834 37.5251 22.3768 36.9532 22.3768ZM36.9532 14.3039C36.3814 14.3039 35.9021 14.1105 35.5153 13.7237C35.1284 13.3369 34.935 12.8575 34.935 12.2857C34.935 11.7139 35.1284 11.2346 35.5153 10.8477C35.9021 10.4609 36.3814 10.2675 36.9532 10.2675C37.5251 10.2675 38.0044 10.4609 38.3912 10.8477C38.778 11.2346 38.9715 11.7139 38.9715 12.2857C38.9715 12.8575 38.778 13.3369 38.3912 13.7237C38.0044 14.1105 37.5251 14.3039 36.9532 14.3039ZM43.0079 29.4405C42.7388 29.4405 42.5033 29.3396 42.3015 29.1378C42.0997 28.936 41.9988 28.7005 41.9988 28.4314C41.9988 28.1623 42.0997 27.9269 42.3015 27.7251C42.5033 27.5232 42.7388 27.4223 43.0079 27.4223C43.277 27.4223 43.5124 27.5232 43.7143 27.7251C43.9161 27.9269 44.017 28.1623 44.017 28.4314C44.017 28.7005 43.9161 28.936 43.7143 29.1378C43.5124 29.3396 43.277 29.4405 43.0079 29.4405ZM43.0079 21.3677C42.7388 21.3677 42.5033 21.2668 42.3015 21.0649C42.0997 20.8631 41.9988 20.6277 41.9988 20.3586C41.9988 20.0895 42.0997 19.854 42.3015 19.6522C42.5033 19.4504 42.7388 19.3495 43.0079 19.3495C43.277 19.3495 43.5124 19.4504 43.7143 19.6522C43.9161 19.854 44.017 20.0895 44.017 20.3586C44.017 20.6277 43.9161 20.8631 43.7143 21.0649C43.5124 21.2668 43.277 21.3677 43.0079 21.3677Z" fill="white"/>
</g>
</svg>
