<svg width="50" height="49" viewBox="0 0 50 49" fill="none" xmlns="http://www.w3.org/2000/svg">
<mask id="mask0_3096_1462" style="mask-type:alpha" maskUnits="userSpaceOnUse" x="0" y="0" width="50" height="49">
<rect x="0.626953" y="0.176346" width="48.4308" height="48.4308" fill="#6338E0"/>
</mask>
<g mask="url(#mask0_3096_1462)">
<path d="M8.70094 8.24821L12.7368 16.32H18.7907L14.7548 8.24821H18.7907L22.8266 16.32H28.8805L24.8445 8.24821H28.8805L32.9164 16.32H38.9702L34.9343 8.24821H40.9882C42.098 8.24821 43.0481 8.6434 43.8385 9.43376C44.6289 10.2241 45.0241 11.1742 45.0241 12.2841V36.4995C45.0241 37.6094 44.6289 38.5595 43.8385 39.3499C43.0481 40.1402 42.098 40.5354 40.9882 40.5354H8.70094C7.59107 40.5354 6.64095 40.1402 5.85059 39.3499C5.06022 38.5595 4.66504 37.6094 4.66504 36.4995V12.2841C4.66504 11.1742 5.06022 10.2241 5.85059 9.43376C6.64095 8.6434 7.59107 8.24821 8.70094 8.24821ZM8.70094 20.3559V36.4995H40.9882V20.3559H8.70094Z" fill="white"/>
</g>
</svg>
