<svg width="50" height="49" viewBox="0 0 50 49" fill="none" xmlns="http://www.w3.org/2000/svg">
<mask id="mask0_3096_1457" style="mask-type:alpha" maskUnits="userSpaceOnUse" x="0" y="0" width="50" height="49">
<rect x="0.626953" y="0.176346" width="48.4372" height="48.4372" fill="#0984E2"/>
</mask>
<g mask="url(#mask0_3096_1457)">
<path d="M19.7987 33.4769L33.9262 24.3949L19.7987 15.313V33.4769ZM8.69854 40.5407C7.58852 40.5407 6.63828 40.1454 5.84781 39.355C5.05734 38.5645 4.66211 37.6143 4.66211 36.5042V12.2857C4.66211 11.1756 5.05734 10.2254 5.84781 9.43492C6.63828 8.64446 7.58852 8.24922 8.69854 8.24922H40.99C42.1 8.24922 43.0503 8.64446 43.8407 9.43492C44.6312 10.2254 45.0264 11.1756 45.0264 12.2857V36.5042C45.0264 37.6143 44.6312 38.5645 43.8407 39.355C43.0503 40.1454 42.1 40.5407 40.99 40.5407H8.69854ZM8.69854 36.5042H40.99V12.2857H8.69854V36.5042Z" fill="white"/>
</g>
</svg>
