<svg width="49" height="49" viewBox="0 0 49 49" fill="none" xmlns="http://www.w3.org/2000/svg">
<mask id="mask0_2498_1453" style="mask-type:alpha" maskUnits="userSpaceOnUse" x="0" y="0" width="49" height="49">
<rect x="0.314697" y="0.17627" width="48.4308" height="48.4308" fill="#00CFC9"/>
</mask>
<g mask="url(#mask0_2498_1453)">
<path d="M24.5292 45.5801C22.8476 45.5801 21.4182 44.9915 20.241 43.8144C19.0639 42.6372 18.4753 41.2079 18.4753 39.5262C18.4753 38.2146 18.8537 37.0374 19.6104 35.9948C20.3672 34.9522 21.3341 34.2291 22.5112 33.8255V30.1428C22.1413 30.0082 21.7881 29.8485 21.4518 29.6635C21.1155 29.4785 20.8128 29.2515 20.5437 28.9824L17.3655 30.8491C17.3991 31.0172 17.4243 31.1938 17.4411 31.3788C17.4579 31.5637 17.4663 31.7571 17.4663 31.9589C17.4663 33.6405 16.8778 35.0699 15.7006 36.2471C14.5235 37.4242 13.0941 38.0128 11.4125 38.0128C9.73087 38.0128 8.30149 37.4242 7.12435 36.2471C5.94721 35.0699 5.35864 33.6405 5.35864 31.9589C5.35864 30.2773 5.94721 28.8479 7.12435 27.6708C8.30149 26.4936 9.73087 25.9051 11.4125 25.9051C12.186 25.9051 12.9091 26.0312 13.5818 26.2834C14.2544 26.5357 14.8598 26.8972 15.3979 27.3681L18.5258 25.5519C18.4921 25.3838 18.4669 25.1988 18.4501 24.997C18.4333 24.7952 18.4249 24.5934 18.4249 24.3916C18.4249 24.1898 18.4333 23.9964 18.4501 23.8114C18.4669 23.6265 18.4921 23.4499 18.5258 23.2817L15.3979 21.4151C14.8598 21.886 14.2544 22.2475 13.5818 22.4998C12.9091 22.752 12.186 22.8781 11.4125 22.8781C9.73087 22.8781 8.30149 22.2896 7.12435 21.1124C5.94721 19.9353 5.35864 18.5059 5.35864 16.8243C5.35864 15.1427 5.94721 13.7133 7.12435 12.5361C8.30149 11.359 9.73087 10.7704 11.4125 10.7704C13.0941 10.7704 14.5235 11.359 15.7006 12.5361C16.8778 13.7133 17.4663 15.1427 17.4663 16.8243C17.4663 17.0261 17.4579 17.2279 17.4411 17.4297C17.4243 17.6315 17.3991 17.8165 17.3655 17.9846L20.5437 19.8008C20.8128 19.5317 21.1155 19.3131 21.4518 19.1449C21.7881 18.9768 22.1413 18.8254 22.5112 18.6909V15.0081C21.3341 14.6045 20.3672 13.873 19.6104 12.8136C18.8537 11.7542 18.4753 10.5686 18.4753 9.25698C18.4753 7.57535 19.0639 6.14597 20.241 4.96883C21.4182 3.79169 22.8476 3.20312 24.5292 3.20312C26.2108 3.20312 27.6402 3.79169 28.8173 4.96883C29.9945 6.14597 30.583 7.57535 30.583 9.25698C30.583 10.5686 30.2047 11.7542 29.4479 12.8136C28.6912 13.873 27.7243 14.6045 26.5471 15.0081V18.6909C26.9171 18.8254 27.2618 18.9852 27.5813 19.1702C27.9008 19.3551 28.1951 19.5822 28.4642 19.8512L31.6929 17.9342C31.6593 17.766 31.634 17.5894 31.6172 17.4045C31.6004 17.2195 31.592 17.0261 31.592 16.8243C31.592 15.1427 32.1806 13.7133 33.3577 12.5361C34.5349 11.359 35.9642 10.7704 37.6459 10.7704C39.3275 10.7704 40.7569 11.359 41.934 12.5361C43.1111 13.7133 43.6997 15.1427 43.6997 16.8243C43.6997 18.5059 43.1111 19.9353 41.934 21.1124C40.7569 22.2896 39.3275 22.8781 37.6459 22.8781C36.8723 22.8781 36.1576 22.752 35.5018 22.4998C34.846 22.2475 34.249 21.886 33.7109 21.4151L30.4317 23.3322C30.4653 23.5003 30.4905 23.6769 30.5074 23.8619C30.5242 24.0469 30.5326 24.2234 30.5326 24.3916C30.5326 24.5598 30.5242 24.7448 30.5074 24.9465C30.4905 25.1483 30.4653 25.3333 30.4317 25.5015L33.7109 27.3681C34.249 26.8972 34.846 26.5357 35.5018 26.2834C36.1576 26.0312 36.8723 25.9051 37.6459 25.9051C39.3275 25.9051 40.7569 26.4936 41.934 27.6708C43.1111 28.8479 43.6997 30.2773 43.6997 31.9589C43.6997 33.6405 43.1111 35.0699 41.934 36.2471C40.7569 37.4242 39.3275 38.0128 37.6459 38.0128C35.9642 38.0128 34.5349 37.4242 33.3577 36.2471C32.1806 35.0699 31.592 33.6405 31.592 31.9589C31.592 31.7571 31.6004 31.5637 31.6172 31.3788C31.634 31.1938 31.6593 31.0172 31.6929 30.8491L28.4642 28.9824C28.1951 29.2515 27.9008 29.4701 27.5813 29.6383C27.2618 29.8064 26.9171 29.9578 26.5471 30.0923V33.8255C27.7243 34.2291 28.6912 34.9522 29.4479 35.9948C30.2047 37.0374 30.583 38.2146 30.583 39.5262C30.583 41.2079 29.9945 42.6372 28.8173 43.8144C27.6402 44.9915 26.2108 45.5801 24.5292 45.5801ZM24.5292 41.5442C25.1009 41.5442 25.5802 41.3508 25.967 40.964C26.3537 40.5773 26.5471 40.098 26.5471 39.5262C26.5471 38.9545 26.3537 38.4752 25.967 38.0885C25.5802 37.7017 25.1009 37.5083 24.5292 37.5083C23.9574 37.5083 23.4782 37.7017 23.0914 38.0885C22.7046 38.4752 22.5112 38.9545 22.5112 39.5262C22.5112 40.098 22.7046 40.5773 23.0914 40.964C23.4782 41.3508 23.9574 41.5442 24.5292 41.5442ZM11.4125 33.9769C11.9842 33.9769 12.4635 33.7835 12.8503 33.3967C13.2371 33.0099 13.4304 32.5307 13.4304 31.9589C13.4304 31.3872 13.2371 30.9079 12.8503 30.5211C12.4635 30.1344 11.9842 29.941 11.4125 29.941C10.8407 29.941 10.3615 30.1344 9.97471 30.5211C9.58793 30.9079 9.39454 31.3872 9.39454 31.9589C9.39454 32.5307 9.58793 33.0099 9.97471 33.3967C10.3615 33.7835 10.8407 33.9769 11.4125 33.9769ZM37.6459 33.9769C38.2176 33.9769 38.6969 33.7835 39.0836 33.3967C39.4704 33.0099 39.6638 32.5307 39.6638 31.9589C39.6638 31.3872 39.4704 30.9079 39.0836 30.5211C38.6969 30.1344 38.2176 29.941 37.6459 29.941C37.0741 29.941 36.5948 30.1344 36.2081 30.5211C35.8213 30.9079 35.6279 31.3872 35.6279 31.9589C35.6279 32.5307 35.8213 33.0099 36.2081 33.3967C36.5948 33.7835 37.0741 33.9769 37.6459 33.9769ZM24.5292 26.4096C25.1009 26.4096 25.5802 26.2162 25.967 25.8294C26.3537 25.4426 26.5471 24.9634 26.5471 24.3916C26.5471 23.8199 26.3537 23.3406 25.967 22.9538C25.5802 22.567 25.1009 22.3737 24.5292 22.3737C23.9574 22.3737 23.4782 22.567 23.0914 22.9538C22.7046 23.3406 22.5112 23.8199 22.5112 24.3916C22.5112 24.9634 22.7046 25.4426 23.0914 25.8294C23.4782 26.2162 23.9574 26.4096 24.5292 26.4096ZM11.4125 18.8422C11.9842 18.8422 12.4635 18.6489 12.8503 18.2621C13.2371 17.8753 13.4304 17.396 13.4304 16.8243C13.4304 16.2525 13.2371 15.7733 12.8503 15.3865C12.4635 14.9997 11.9842 14.8063 11.4125 14.8063C10.8407 14.8063 10.3615 14.9997 9.97471 15.3865C9.58793 15.7733 9.39454 16.2525 9.39454 16.8243C9.39454 17.396 9.58793 17.8753 9.97471 18.2621C10.3615 18.6489 10.8407 18.8422 11.4125 18.8422ZM37.6459 18.8422C38.2176 18.8422 38.6969 18.6489 39.0836 18.2621C39.4704 17.8753 39.6638 17.396 39.6638 16.8243C39.6638 16.2525 39.4704 15.7733 39.0836 15.3865C38.6969 14.9997 38.2176 14.8063 37.6459 14.8063C37.0741 14.8063 36.5948 14.9997 36.2081 15.3865C35.8213 15.7733 35.6279 16.2525 35.6279 16.8243C35.6279 17.396 35.8213 17.8753 36.2081 18.2621C36.5948 18.6489 37.0741 18.8422 37.6459 18.8422ZM24.5292 11.2749C25.1009 11.2749 25.5802 11.0815 25.967 10.6948C26.3537 10.308 26.5471 9.82873 26.5471 9.25698C26.5471 8.68522 26.3537 8.20596 25.967 7.81919C25.5802 7.43241 25.1009 7.23903 24.5292 7.23903C23.9574 7.23903 23.4782 7.43241 23.0914 7.81919C22.7046 8.20596 22.5112 8.68522 22.5112 9.25698C22.5112 9.82873 22.7046 10.308 23.0914 10.6948C23.4782 11.0815 23.9574 11.2749 24.5292 11.2749Z" fill="#00CFC9"/>
</g>
</svg>
