<svg width="50" height="49" viewBox="0 0 50 49" fill="none" xmlns="http://www.w3.org/2000/svg">
<mask id="mask0_2498_1412" style="mask-type:alpha" maskUnits="userSpaceOnUse" x="0" y="0" width="50" height="49">
<rect x="0.627441" y="0.17627" width="48.4308" height="48.4308" fill="#6984ED"/>
</mask>
<g mask="url(#mask0_2498_1412)">
<path d="M19.2107 33.4978C18.5661 33.4978 18.0668 33.2737 17.7128 32.8257C17.3589 32.3776 17.2261 31.8317 17.3146 31.188L18.111 25.5082C18.2248 24.7509 18.5629 24.1261 19.1254 23.6339C19.6879 23.1416 20.3484 22.8955 21.1068 22.8955H28.6154C29.3739 22.8955 30.0343 23.1416 30.5968 23.6339C31.1594 24.1261 31.4975 24.7509 31.6113 25.5082L32.4076 31.188C32.4961 31.8317 32.3634 32.3776 32.0094 32.8257C31.6555 33.2737 31.1562 33.4978 30.5115 33.4978C30.2461 33.4978 29.9996 33.4504 29.772 33.3558C29.5445 33.2611 29.3359 33.1191 29.1463 32.9298L27.4398 31.2259H22.2824L20.5759 32.9298C20.3863 33.1191 20.1777 33.2611 19.9502 33.3558C19.7227 33.4504 19.4762 33.4978 19.2107 33.4978ZM19.5141 31.8696L21.6757 29.7112H28.0466L30.2081 31.8696C30.2334 31.8948 30.3345 31.9327 30.5115 31.9832C30.6506 31.9832 30.7612 31.9421 30.8433 31.8601C30.9255 31.7781 30.9539 31.6676 30.9287 31.5288L30.0944 25.6975C30.0438 25.3315 29.8795 25.0254 29.6014 24.7793C29.3233 24.5332 28.9946 24.4101 28.6154 24.4101H21.1068C20.7276 24.4101 20.399 24.5332 20.1209 24.7793C19.8428 25.0254 19.6784 25.3315 19.6279 25.6975L18.7936 31.5288C18.7683 31.6676 18.7968 31.7781 18.8789 31.8601C18.9611 31.9421 19.0717 31.9832 19.2107 31.9832C19.236 31.9832 19.3371 31.9453 19.5141 31.8696ZM28.6533 28.9539C28.8682 28.9539 29.0484 28.8814 29.1937 28.7362C29.3391 28.5911 29.4118 28.4112 29.4118 28.1966C29.4118 27.9821 29.3391 27.8022 29.1937 27.6571C29.0484 27.5119 28.8682 27.4393 28.6533 27.4393C28.4384 27.4393 28.2583 27.5119 28.1129 27.6571C27.9676 27.8022 27.8949 27.9821 27.8949 28.1966C27.8949 28.4112 27.9676 28.5911 28.1129 28.7362C28.2583 28.8814 28.4384 28.9539 28.6533 28.9539ZM27.1365 26.682C27.3513 26.682 27.5315 26.6095 27.6768 26.4643C27.8222 26.3192 27.8949 26.1393 27.8949 25.9247C27.8949 25.7102 27.8222 25.5303 27.6768 25.3851C27.5315 25.24 27.3513 25.1674 27.1365 25.1674C26.9216 25.1674 26.7414 25.24 26.5961 25.3851C26.4507 25.5303 26.378 25.7102 26.378 25.9247C26.378 26.1393 26.4507 26.3192 26.5961 26.4643C26.7414 26.6095 26.9216 26.682 27.1365 26.682ZM21.6377 28.9539H22.7754V27.6287H24.1027V26.4927H22.7754V25.1674H21.6377V26.4927H20.3105V27.6287H21.6377V28.9539Z" fill="#AB8DFF"/>
<path d="M8.70143 8.24805L12.7373 16.3199H18.7912L14.7553 8.24805H18.7912L22.8271 16.3199H28.8809L24.845 8.24805H28.8809L32.9168 16.3199H38.9707L34.9348 8.24805H40.9886C42.0985 8.24805 43.0486 8.64323 43.839 9.43359C44.6294 10.224 45.0245 11.1741 45.0245 12.2839V36.4994C45.0245 37.6092 44.6294 38.5594 43.839 39.3497C43.0486 40.1401 42.0985 40.5353 40.9886 40.5353H8.70143C7.59156 40.5353 6.64144 40.1401 5.85107 39.3497C5.06071 38.5594 4.66553 37.6092 4.66553 36.4994V12.2839C4.66553 11.1741 5.06071 10.224 5.85107 9.43359C6.64144 8.64323 7.59156 8.24805 8.70143 8.24805ZM8.70143 20.3558V36.4994H40.9886V20.3558H8.70143Z" fill="#AB8DFF"/>
</g>
</svg>
