<svg width="50" height="49" viewBox="0 0 50 49" fill="none" xmlns="http://www.w3.org/2000/svg">
<mask id="mask0_3096_1482" style="mask-type:alpha" maskUnits="userSpaceOnUse" x="0" y="0" width="50" height="49">
<rect x="0.627441" y="0.176331" width="48.4372" height="48.4372" fill="#D9D9D9"/>
</mask>
<g mask="url(#mask0_3096_1482)">
<path d="M2.64502 42.559V38.5226H47.0458V42.559H2.64502ZM8.69967 36.5044C7.58965 36.5044 6.6394 36.1091 5.84894 35.3187C5.05847 34.5282 4.66324 33.578 4.66324 32.4679V10.2676C4.66324 9.15755 5.05847 8.20731 5.84894 7.41684C6.6394 6.62637 7.58965 6.23114 8.69967 6.23114H40.9911C42.1011 6.23114 43.0514 6.62637 43.8418 7.41684C44.6323 8.20731 45.0275 9.15755 45.0275 10.2676V32.4679C45.0275 33.578 44.6323 34.5282 43.8418 35.3187C43.0514 36.1091 42.1011 36.5044 40.9911 36.5044H8.69967ZM8.69967 32.4679H40.9911V10.2676H8.69967V32.4679Z" fill="white"/>
<path d="M22.534 22.6839L21.1855 21.3354C21.3567 21.0999 21.4744 20.8591 21.5386 20.613C21.6029 20.3668 21.635 20.1153 21.635 19.8584C21.635 19.6016 21.6029 19.35 21.5386 19.1039C21.4744 18.8577 21.3567 18.6276 21.1855 18.4136L22.534 17.0329C22.8765 17.4396 23.1333 17.8891 23.3046 18.3815C23.4758 18.8738 23.5615 19.3661 23.5615 19.8584C23.5615 20.3507 23.4758 20.8377 23.3046 21.3193C23.1333 21.801 22.8765 22.2558 22.534 22.6839ZM25.2632 25.4452L23.8825 24.0646C24.4177 23.4652 24.819 22.8017 25.0866 22.0739C25.3541 21.3461 25.4879 20.6076 25.4879 19.8584C25.4879 19.1092 25.3541 18.3761 25.0866 17.659C24.819 16.9419 24.4177 16.2837 23.8825 15.6844L25.2632 14.3037C25.991 15.0957 26.5314 15.968 26.8846 16.9205C27.2378 17.8731 27.4144 18.8524 27.4144 19.8584C27.4144 20.8645 27.2378 21.8491 26.8846 22.8124C26.5314 23.7756 25.991 24.6532 25.2632 25.4452ZM15.8555 21.1427C15.1492 21.1427 14.5445 20.8912 14.0414 20.3882C13.5384 19.8852 13.2869 19.2805 13.2869 18.5741C13.2869 17.8677 13.5384 17.263 14.0414 16.76C14.5445 16.257 15.1492 16.0055 15.8555 16.0055C16.5619 16.0055 17.1666 16.257 17.6696 16.76C18.1727 17.263 18.4242 17.8677 18.4242 18.5741C18.4242 19.2805 18.1727 19.8852 17.6696 20.3882C17.1666 20.8912 16.5619 21.1427 15.8555 21.1427ZM10.7183 26.28V25.5415C10.7183 25.0278 10.8574 24.5569 11.1357 24.1288C11.4139 23.7007 11.7992 23.3796 12.2916 23.1655C12.8481 22.9301 13.4207 22.7481 14.0093 22.6197C14.598 22.4913 15.2134 22.4271 15.8555 22.4271C16.4977 22.4271 17.1131 22.4913 17.7017 22.6197C18.2904 22.7481 18.863 22.9301 19.4195 23.1655C19.9118 23.3796 20.2971 23.7007 20.5754 24.1288C20.8537 24.5569 20.9928 25.0278 20.9928 25.5415V26.28H10.7183ZM33.836 21.1427C33.1296 21.1427 32.5249 20.8912 32.0219 20.3882C31.5189 19.8852 31.2674 19.2805 31.2674 18.5741C31.2674 17.8677 31.5189 17.263 32.0219 16.76C32.5249 16.257 33.1296 16.0055 33.836 16.0055C34.5424 16.0055 35.1471 16.257 35.6501 16.76C36.1531 17.263 36.4046 17.8677 36.4046 18.5741C36.4046 19.2805 36.1531 19.8852 35.6501 20.3882C35.1471 20.8912 34.5424 21.1427 33.836 21.1427ZM28.6987 26.28V25.5415C28.6987 25.0278 28.8379 24.5569 29.1161 24.1288C29.3944 23.7007 29.7797 23.3796 30.272 23.1655C30.8286 22.9301 31.4011 22.7481 31.9898 22.6197C32.5784 22.4913 33.1938 22.4271 33.836 22.4271C34.4782 22.4271 35.0936 22.4913 35.6822 22.6197C36.2709 22.7481 36.8435 22.9301 37.4 23.1655C37.8923 23.3796 38.2776 23.7007 38.5559 24.1288C38.8341 24.5569 38.9733 25.0278 38.9733 25.5415V26.28H28.6987Z" fill="white"/>
</g>
</svg>
