<svg width="50" height="49" viewBox="0 0 50 49" fill="none" xmlns="http://www.w3.org/2000/svg">
<mask id="mask0_3096_1488" style="mask-type:alpha" maskUnits="userSpaceOnUse" x="0" y="0" width="50" height="49">
<rect x="0.627441" y="0.176331" width="48.4308" height="48.4308" fill="white"/>
</mask>
<g mask="url(#mask0_3096_1488)">
<path d="M8.69948 42.5533C7.5896 42.5533 6.63948 42.1581 5.84912 41.3678C5.05876 40.5774 4.66357 39.6273 4.66357 38.5174V10.2661C4.66357 9.15622 5.05876 8.2061 5.84912 7.41574C6.63948 6.62538 7.5896 6.23019 8.69948 6.23019H40.9867C42.0966 6.23019 43.0467 6.62538 43.837 7.41574C44.6274 8.2061 45.0226 9.15622 45.0226 10.2661V38.5174C45.0226 39.6273 44.6274 40.5774 43.837 41.3678C43.0467 42.1581 42.0966 42.5533 40.9867 42.5533H8.69948ZM8.69948 38.5174H12.7354V34.4815H8.69948V38.5174ZM36.9508 38.5174H40.9867V34.4815H36.9508V38.5174ZM22.8251 34.4815H26.861V22.3738H22.8251V34.4815ZM8.69948 30.4456H12.7354V26.4097H8.69948V30.4456ZM36.9508 30.4456H40.9867V26.4097H36.9508V30.4456ZM8.69948 22.3738H12.7354V18.3379H8.69948V22.3738ZM36.9508 22.3738H40.9867V18.3379H36.9508V22.3738ZM24.8431 18.3379C25.4148 18.3379 25.8941 18.1445 26.2809 17.7577C26.6677 17.371 26.861 16.8917 26.861 16.3199C26.861 15.7482 26.6677 15.2689 26.2809 14.8822C25.8941 14.4954 25.4148 14.302 24.8431 14.302C24.2713 14.302 23.7921 14.4954 23.4053 14.8822C23.0185 15.2689 22.8251 15.7482 22.8251 16.3199C22.8251 16.8917 23.0185 17.371 23.4053 17.7577C23.7921 18.1445 24.2713 18.3379 24.8431 18.3379ZM8.69948 14.302H12.7354V10.2661H8.69948V14.302ZM36.9508 14.302H40.9867V10.2661H36.9508V14.302ZM16.7713 38.5174H32.9149V10.2661H16.7713V38.5174Z" fill="white"/>
</g>
</svg>
