<svg width="50" height="49" viewBox="0 0 50 49" fill="none" xmlns="http://www.w3.org/2000/svg">
<mask id="mask0_2498_1381" style="mask-type:alpha" maskUnits="userSpaceOnUse" x="0" y="0" width="50" height="49">
<rect x="0.627441" y="0.17627" width="48.4308" height="48.4308" fill="#D9D9D9"/>
</mask>
<g mask="url(#mask0_2498_1381)">
<path d="M4.66553 14.3017V8.24782C4.66553 7.13794 5.06071 6.18782 5.85107 5.39746C6.64144 4.6071 7.59156 4.21191 8.70143 4.21191H14.7553V8.24782H8.70143V14.3017H4.66553ZM14.7553 44.5709H8.70143C7.59156 44.5709 6.64144 44.1758 5.85107 43.3854C5.06071 42.595 4.66553 41.6449 4.66553 40.535V34.4812H8.70143V40.535H14.7553V44.5709ZM34.9348 44.5709V40.535H40.9886V34.4812H45.0245V40.535C45.0245 41.6449 44.6294 42.595 43.839 43.3854C43.0486 44.1758 42.0985 44.5709 40.9886 44.5709H34.9348ZM40.9886 14.3017V8.24782H34.9348V4.21191H40.9886C42.0985 4.21191 43.0486 4.6071 43.839 5.39746C44.6294 6.18782 45.0245 7.13794 45.0245 8.24782V14.3017H40.9886ZM27.872 19.3465C26.7621 19.3465 25.812 18.9514 25.0216 18.161C24.2312 17.3706 23.8361 16.4205 23.8361 15.3106C23.8361 14.2008 24.2312 13.2507 25.0216 12.4603C25.812 11.6699 26.7621 11.2747 27.872 11.2747C28.9818 11.2747 29.932 11.6699 30.7223 12.4603C31.5127 13.2507 31.9079 14.2008 31.9079 15.3106C31.9079 16.4205 31.5127 17.3706 30.7223 18.161C29.932 18.9514 28.9818 19.3465 27.872 19.3465ZM26.4594 36.4991H18.3876L20.4055 26.2076L16.7732 27.6201V34.4812H12.7373V24.9968L20.7082 21.5663C21.8854 21.0618 22.7514 20.7339 23.3064 20.5825C23.8613 20.4312 24.3742 20.3555 24.845 20.3555C25.5513 20.3555 26.2072 20.5405 26.8125 20.9105C27.4179 21.2804 27.9056 21.7681 28.2756 22.3735L30.2935 25.6022C31.1679 27.0148 32.3535 28.1751 33.8501 29.0832C35.3468 29.9912 37.0536 30.4453 38.9707 30.4453V34.4812C36.7509 34.4812 34.6741 34.0187 32.7403 33.0938C30.8064 32.1689 29.1836 30.9498 27.872 29.4363L26.4594 36.4991Z" fill="#2B59AE"/>
</g>
</svg>
