<svg width="50" height="49" viewBox="0 0 50 49" fill="none" xmlns="http://www.w3.org/2000/svg">
<mask id="mask0_2498_1407" style="mask-type:alpha" maskUnits="userSpaceOnUse" x="0" y="0" width="50" height="49">
<rect x="0.627197" y="0.17627" width="48.4372" height="48.4372" fill="#FD79A8"/>
</mask>
<g mask="url(#mask0_2498_1407)">
<path d="M8.69878 40.5406C7.58877 40.5406 6.63852 40.1454 5.84806 39.3549C5.05759 38.5645 4.66235 37.6142 4.66235 36.5042V14.3038H8.69878V36.5042H36.9538V40.5406H8.69878ZM16.7716 32.4678C15.6616 32.4678 14.7114 32.0725 13.9209 31.2821C13.1305 30.4916 12.7352 29.5413 12.7352 28.4313V12.2856C12.7352 11.1756 13.1305 10.2253 13.9209 9.43487C14.7114 8.64441 15.6616 8.24917 16.7716 8.24917H31.7064L27.67 12.2856H16.7716V28.4313H40.9902V17.533L45.0267 13.4965V28.4313C45.0267 29.5413 44.6314 30.4916 43.841 31.2821C43.0505 32.0725 42.1003 32.4678 40.9902 32.4678H16.7716ZM27.8718 24.3949C27.0982 24.3949 26.3498 24.2183 25.6266 23.8651C24.9034 23.5119 24.3063 23.0158 23.8354 22.3767C24.4072 22.3767 24.8866 22.1833 25.2734 21.7964C25.6602 21.4096 25.8536 20.9303 25.8536 20.3585C25.8536 19.5175 26.1479 18.8028 26.7366 18.2141C27.3252 17.6255 28.04 17.3311 28.8809 17.3311C29.7219 17.3311 30.4366 17.6255 31.0253 18.2141C31.6139 18.8028 31.9083 19.5175 31.9083 20.3585C31.9083 21.4685 31.513 22.4187 30.7226 23.2092C29.9321 23.9997 28.9819 24.3949 27.8718 24.3949ZM34.4815 18.3403L30.8992 14.7579L39.1738 6.53369C39.3757 6.33187 39.6111 6.23096 39.8802 6.23096C40.1493 6.23096 40.3848 6.33187 40.5866 6.53369L42.7057 8.65282C42.9075 8.85464 43.0085 9.0901 43.0085 9.35919C43.0085 9.62829 42.9075 9.86375 42.7057 10.0656L34.4815 18.3403Z" fill="#FD79A8"/>
</g>
</svg>
