<svg width="50" height="49" viewBox="0 0 50 49" fill="none" xmlns="http://www.w3.org/2000/svg">
<mask id="mask0_3096_1477" style="mask-type:alpha" maskUnits="userSpaceOnUse" x="0" y="0" width="50" height="49">
<rect x="0.626953" y="0.176331" width="48.4308" height="48.4308" fill="#D9D9D9"/>
</mask>
<g mask="url(#mask0_3096_1477)">
<path d="M4.66504 14.3018V8.24797C4.66504 7.1381 5.06022 6.18798 5.85059 5.39761C6.64095 4.60725 7.59107 4.21207 8.70094 4.21207H14.7548V8.24797H8.70094V14.3018H4.66504ZM14.7548 44.5711H8.70094C7.59107 44.5711 6.64095 44.1759 5.85059 43.3855C5.06022 42.5952 4.66504 41.6451 4.66504 40.5352V34.4813H8.70094V40.5352H14.7548V44.5711ZM34.9343 44.5711V40.5352H40.9882V34.4813H45.0241V40.5352C45.0241 41.6451 44.6289 42.5952 43.8385 43.3855C43.0481 44.1759 42.098 44.5711 40.9882 44.5711H34.9343ZM40.9882 14.3018V8.24797H34.9343V4.21207H40.9882C42.098 4.21207 43.0481 4.60725 43.8385 5.39761C44.6289 6.18798 45.0241 7.1381 45.0241 8.24797V14.3018H40.9882ZM27.8715 19.3467C26.7616 19.3467 25.8115 18.9515 25.0211 18.1612C24.2308 17.3708 23.8356 16.4207 23.8356 15.3108C23.8356 14.2009 24.2308 13.2508 25.0211 12.4604C25.8115 11.6701 26.7616 11.2749 27.8715 11.2749C28.9813 11.2749 29.9315 11.6701 30.7218 12.4604C31.5122 13.2508 31.9074 14.2009 31.9074 15.3108C31.9074 16.4207 31.5122 17.3708 30.7218 18.1612C29.9315 18.9515 28.9813 19.3467 27.8715 19.3467ZM26.4589 36.4993H18.3871L20.4051 26.2077L16.7727 27.6203V34.4813H12.7368V24.997L20.7078 21.5664C21.8849 21.062 22.7509 20.734 23.3059 20.5827C23.8608 20.4313 24.3737 20.3557 24.8445 20.3557C25.5508 20.3557 26.2067 20.5407 26.8121 20.9106C27.4174 21.2806 27.9051 21.7682 28.2751 22.3736L30.293 25.6023C31.1675 27.0149 32.353 28.1752 33.8497 29.0833C35.3463 29.9914 37.0532 30.4454 38.9702 30.4454V34.4813C36.7505 34.4813 34.6737 34.0189 32.7398 33.094C30.8059 32.1691 29.1831 30.9499 27.8715 29.4365L26.4589 36.4993Z" fill="white"/>
</g>
</svg>
