<svg width="50" height="49" viewBox="0 0 50 49" fill="none" xmlns="http://www.w3.org/2000/svg">
<mask id="mask0_2498_1376" style="mask-type:alpha" maskUnits="userSpaceOnUse" x="0" y="0" width="50" height="49">
<rect x="0.627441" y="0.17627" width="48.4308" height="48.4308" fill="#D9D9D9"/>
</mask>
<g mask="url(#mask0_2498_1376)">
<path d="M24.8431 37.5084C26.6592 37.5084 28.2988 37.0291 29.7618 36.0706C31.2249 35.112 32.3263 33.8592 33.0662 32.3121C32.5281 31.8413 31.99 31.3452 31.4519 30.8239C30.9138 30.3026 30.3756 29.7561 29.8375 29.1843C29.6357 30.4624 29.0724 31.4966 28.1475 32.2869C27.2226 33.0773 26.1211 33.4725 24.8431 33.4725C23.4305 33.4725 22.2366 32.9848 21.2612 32.0094C20.2859 31.0341 19.7982 29.8401 19.7982 28.4276C19.7982 27.015 20.2943 25.8295 21.2864 24.8709C22.2786 23.9124 23.481 23.4163 24.8935 23.3827C24.4899 22.7773 24.1032 22.1635 23.7332 21.5413C23.3633 20.9191 23.0101 20.2885 22.6738 19.6495C20.6895 20.154 19.0415 21.2134 17.7298 22.8278C16.4181 24.4421 15.7623 26.3087 15.7623 28.4276C15.7623 30.95 16.6452 33.0941 18.4109 34.8598C20.1766 36.6255 22.3206 37.5084 24.8431 37.5084ZM18.7892 8.24807H21.3117C21.1435 8.88709 21.0174 9.54292 20.9333 10.2156C20.8492 10.8882 20.8072 11.5777 20.8072 12.284H20.5549L16.8722 16.3199H8.69948V40.5353H40.9867V32.2112C41.6593 31.6059 42.332 30.9752 43.0046 30.3194C43.6773 29.6636 44.3499 28.9993 45.0226 28.3267V40.5353C45.0226 41.6452 44.6274 42.5953 43.837 43.3856C43.0467 44.176 42.0966 44.5712 40.9867 44.5712H8.69948C7.5896 44.5712 6.63948 44.176 5.84912 43.3856C5.05876 42.5953 4.66357 41.6452 4.66357 40.5353V16.3199C4.66357 15.21 5.05876 14.2599 5.84912 13.4695C6.63948 12.6792 7.5896 12.284 8.69948 12.284H15.056L18.7892 8.24807ZM36.9508 30.4455C41.0203 26.9814 44.0557 23.7695 46.0568 20.8098C48.0579 17.8502 49.0585 15.1091 49.0585 12.5867C49.0585 8.78619 47.8393 5.76768 45.401 3.53111C42.9626 1.29455 40.1459 0.17627 36.9508 0.17627C33.7557 0.17627 30.939 1.29455 28.5006 3.53111C26.0623 5.76768 24.8431 8.78619 24.8431 12.5867C24.8431 15.1091 25.8437 17.8502 27.8448 20.8098C29.8459 23.7695 32.8813 26.9814 36.9508 30.4455ZM36.9508 25.0475C33.453 21.7515 31.2333 19.0946 30.2916 17.0766C29.3498 15.0587 28.879 13.562 28.879 12.5867C28.879 9.86243 29.7282 7.78563 31.4266 6.35624C33.1251 4.92686 34.9665 4.21217 36.9508 4.21217C38.9351 4.21217 40.7765 4.92686 42.4749 6.35624C44.1734 7.78563 45.0226 9.86243 45.0226 12.5867C45.0226 13.562 44.5517 15.0587 43.61 17.0766C42.6683 19.0946 40.4486 21.7515 36.9508 25.0475ZM33.2176 18.3378L34.6301 13.747L30.8969 10.7705H35.4878L36.9508 6.23012L38.4138 10.7705H43.0046L39.2714 13.747L40.684 18.3378L36.9508 15.5127L33.2176 18.3378Z" fill="#73008F"/>
</g>
</svg>
