<svg width="50" height="49" viewBox="0 0 50 49" fill="none" xmlns="http://www.w3.org/2000/svg">
<mask id="mask0_2498_1397" style="mask-type:alpha" maskUnits="userSpaceOnUse" x="0" y="0" width="50" height="49">
<rect x="0.627441" y="0.17627" width="48.4372" height="48.4372" fill="#D9D9D9"/>
</mask>
<g mask="url(#mask0_2498_1397)">
<path d="M14.7548 44.5772C13.073 44.5772 11.6434 43.9886 10.4661 42.8113C9.28884 41.634 8.7002 40.2044 8.7002 38.5226C8.7002 37.2107 9.07861 36.0334 9.83544 34.9907C10.5923 33.9479 11.5593 33.2247 12.7366 32.8211V15.969C11.5593 15.5654 10.5923 14.8422 9.83544 13.7994C9.07861 12.7567 8.7002 11.5794 8.7002 10.2675C8.7002 8.58569 9.28884 7.15612 10.4661 5.97883C11.6434 4.80154 13.073 4.21289 14.7548 4.21289C16.4367 4.21289 17.8663 4.80154 19.0436 5.97883C20.2208 7.15612 20.8095 8.58569 20.8095 10.2675C20.8095 11.5794 20.4311 12.7567 19.6742 13.7994C18.9174 14.8422 17.9504 15.5654 16.7731 15.969V16.3222C16.7731 18.004 17.3617 19.4336 18.539 20.6109C19.7163 21.7882 21.1459 22.3768 22.8277 22.3768H26.8641C29.656 22.3768 32.0358 23.3607 34.0036 25.3285C35.9713 27.2962 36.9552 29.676 36.9552 32.4679V32.8211C38.1325 33.2247 39.0996 33.9479 39.8564 34.9907C40.6132 36.0334 40.9916 37.2107 40.9916 38.5226C40.9916 40.2044 40.403 41.634 39.2257 42.8113C38.0484 43.9886 36.6188 44.5772 34.937 44.5772C33.2552 44.5772 31.8256 43.9886 30.6483 42.8113C29.471 41.634 28.8824 40.2044 28.8824 38.5226C28.8824 37.2107 29.2608 36.0334 30.0176 34.9907C30.7744 33.9479 31.7415 33.2247 32.9188 32.8211V32.4679C32.9188 30.7861 32.3301 29.3565 31.1528 28.1792C29.9756 27.0019 28.546 26.4133 26.8641 26.4133H22.8277C21.684 26.4133 20.5993 26.2367 19.5733 25.8835C18.5474 25.5303 17.614 25.0341 16.7731 24.395V32.8211C17.9504 33.2247 18.9174 33.9479 19.6742 34.9907C20.4311 36.0334 20.8095 37.2107 20.8095 38.5226C20.8095 40.2044 20.2208 41.634 19.0436 42.8113C17.8663 43.9886 16.4367 44.5772 14.7548 44.5772ZM14.7548 40.5408C15.3267 40.5408 15.806 40.3474 16.1928 39.9605C16.5796 39.5737 16.7731 39.0944 16.7731 38.5226C16.7731 37.9507 16.5796 37.4714 16.1928 37.0846C15.806 36.6978 15.3267 36.5043 14.7548 36.5043C14.183 36.5043 13.7037 36.6978 13.3169 37.0846C12.93 37.4714 12.7366 37.9507 12.7366 38.5226C12.7366 39.0944 12.93 39.5737 13.3169 39.9605C13.7037 40.3474 14.183 40.5408 14.7548 40.5408ZM34.937 40.5408C35.5088 40.5408 35.9882 40.3474 36.375 39.9605C36.7618 39.5737 36.9552 39.0944 36.9552 38.5226C36.9552 37.9507 36.7618 37.4714 36.375 37.0846C35.9882 36.6978 35.5088 36.5043 34.937 36.5043C34.3652 36.5043 33.8858 36.6978 33.499 37.0846C33.1122 37.4714 32.9188 37.9507 32.9188 38.5226C32.9188 39.0944 33.1122 39.5737 33.499 39.9605C33.8858 40.3474 34.3652 40.5408 34.937 40.5408ZM14.7548 12.2858C15.3267 12.2858 15.806 12.0923 16.1928 11.7055C16.5796 11.3187 16.7731 10.8394 16.7731 10.2675C16.7731 9.69571 16.5796 9.21638 16.1928 8.82956C15.806 8.44273 15.3267 8.24932 14.7548 8.24932C14.183 8.24932 13.7037 8.44273 13.3169 8.82956C12.93 9.21638 12.7366 9.69571 12.7366 10.2675C12.7366 10.8394 12.93 11.3187 13.3169 11.7055C13.7037 12.0923 14.183 12.2858 14.7548 12.2858Z" fill="#46ADA0"/>
</g>
</svg>
