<svg width="50" height="49" viewBox="0 0 50 49" fill="none" xmlns="http://www.w3.org/2000/svg">
<mask id="mask0_3096_1432" style="mask-type:alpha" maskUnits="userSpaceOnUse" x="0" y="0" width="50" height="49">
<rect x="0.626953" y="0.176331" width="48.4372" height="48.4372" fill="#FD79A8"/>
</mask>
<g mask="url(#mask0_3096_1432)">
<path d="M8.69854 40.5407C7.58852 40.5407 6.63828 40.1454 5.84781 39.355C5.05734 38.5645 4.66211 37.6142 4.66211 36.5042V14.3039H8.69854V36.5042H36.9536V40.5407H8.69854ZM16.7714 32.4678C15.6614 32.4678 14.7111 32.0726 13.9207 31.2821C13.1302 30.4916 12.735 29.5414 12.735 28.4314V12.2856C12.735 11.1756 13.1302 10.2254 13.9207 9.4349C14.7111 8.64444 15.6614 8.2492 16.7714 8.2492H31.7062L27.6698 12.2856H16.7714V28.4314H40.99V17.533L45.0264 13.4966V28.4314C45.0264 29.5414 44.6312 30.4916 43.8407 31.2821C43.0503 32.0726 42.1 32.4678 40.99 32.4678H16.7714ZM27.8716 24.3949C27.0979 24.3949 26.3495 24.2183 25.6263 23.8651C24.9031 23.512 24.3061 23.0158 23.8352 22.3767C24.407 22.3767 24.8863 22.1833 25.2731 21.7965C25.66 21.4097 25.8534 20.9303 25.8534 20.3585C25.8534 19.5176 26.1477 18.8028 26.7363 18.2141C27.325 17.6255 28.0398 17.3312 28.8807 17.3312C29.7216 17.3312 30.4364 17.6255 31.0251 18.2141C31.6137 18.8028 31.908 19.5176 31.908 20.3585C31.908 21.4685 31.5128 22.4188 30.7223 23.2092C29.9319 23.9997 28.9816 24.3949 27.8716 24.3949ZM34.4812 18.3403L30.8989 14.7579L39.1736 6.53372C39.3754 6.3319 39.6109 6.23099 39.88 6.23099C40.1491 6.23099 40.3845 6.3319 40.5863 6.53372L42.7055 8.65285C42.9073 8.85467 43.0082 9.09013 43.0082 9.35922C43.0082 9.62832 42.9073 9.86378 42.7055 10.0656L34.4812 18.3403Z" fill="white"/>
</g>
</svg>
