<svg width="50" height="49" viewBox="0 0 50 49" fill="none" xmlns="http://www.w3.org/2000/svg">
<mask id="mask0_3096_1452" style="mask-type:alpha" maskUnits="userSpaceOnUse" x="0" y="0" width="50" height="49">
<rect x="0.626953" y="0.176331" width="48.4308" height="48.4308" fill="white"/>
</mask>
<g mask="url(#mask0_3096_1452)">
<path d="M9.80984 38.517C8.09458 38.517 6.7661 37.92 5.82439 36.7261C4.88268 35.5321 4.52954 34.0775 4.76496 32.3623L6.88381 17.2276C7.18651 15.2097 8.08618 13.5449 9.58282 12.2332C11.0795 10.9215 12.8368 10.2657 14.8547 10.2657H34.8324C36.8504 10.2657 38.6077 10.9215 40.1043 12.2332C41.601 13.5449 42.5006 15.2097 42.8033 17.2276L44.9222 32.3623C45.1576 34.0775 44.8045 35.5321 43.8628 36.7261C42.9211 37.92 41.5926 38.517 39.8773 38.517C39.171 38.517 38.5152 38.3909 37.9098 38.1386C37.3044 37.8864 36.7495 37.508 36.245 37.0036L31.7046 32.4632H17.9825L13.4422 37.0036C12.9377 37.508 12.3827 37.8864 11.7773 38.1386C11.172 38.3909 10.5161 38.517 9.80984 38.517ZM10.617 34.1784L16.3682 28.4273H33.319L39.0701 34.1784C39.1374 34.2457 39.4065 34.3466 39.8773 34.4811C40.2473 34.4811 40.5416 34.3718 40.7602 34.1532C40.9788 33.9346 41.0545 33.6403 40.9872 33.2703L38.7674 17.7321C38.6329 16.7568 38.1957 15.9412 37.4558 15.2854C36.7159 14.6295 35.8414 14.3016 34.8324 14.3016H14.8547C13.8457 14.3016 12.9713 14.6295 12.2314 15.2854C11.4915 15.9412 11.0542 16.7568 10.9197 17.7321L8.69997 33.2703C8.6327 33.6403 8.70838 33.9346 8.92699 34.1532C9.1456 34.3718 9.43988 34.4811 9.80984 34.4811C9.87711 34.4811 10.1462 34.3802 10.617 34.1784ZM34.9333 26.4093C35.5051 26.4093 35.9844 26.2159 36.3711 25.8291C36.7579 25.4424 36.9513 24.9631 36.9513 24.3914C36.9513 23.8196 36.7579 23.3403 36.3711 22.9536C35.9844 22.5668 35.5051 22.3734 34.9333 22.3734C34.3616 22.3734 33.8823 22.5668 33.4955 22.9536C33.1088 23.3403 32.9154 23.8196 32.9154 24.3914C32.9154 24.9631 33.1088 25.4424 33.4955 25.8291C33.8823 26.2159 34.3616 26.4093 34.9333 26.4093ZM30.8974 20.3555C31.4692 20.3555 31.9484 20.1621 32.3352 19.7753C32.722 19.3885 32.9154 18.9093 32.9154 18.3375C32.9154 17.7658 32.722 17.2865 32.3352 16.8997C31.9484 16.5129 31.4692 16.3196 30.8974 16.3196C30.3257 16.3196 29.8464 16.5129 29.4596 16.8997C29.0729 17.2865 28.8795 17.7658 28.8795 18.3375C28.8795 18.9093 29.0729 19.3885 29.4596 19.7753C29.8464 20.1621 30.3257 20.3555 30.8974 20.3555ZM16.2673 26.4093H19.2942V22.8779H22.8256V19.851H19.2942V16.3196H16.2673V19.851H12.7359V22.8779H16.2673V26.4093Z" fill="white"/>
</g>
</svg>
