<svg width="50" height="49" viewBox="0 0 50 49" fill="none" xmlns="http://www.w3.org/2000/svg">
<mask id="mask0_3096_1493" style="mask-type:alpha" maskUnits="userSpaceOnUse" x="0" y="0" width="50" height="49">
<rect x="0.626953" y="0.176331" width="48.4308" height="48.4308" fill="#D9D9D9"/>
</mask>
<g mask="url(#mask0_3096_1493)">
<path d="M16.1106 29.1342C16.8769 29.1342 17.5193 28.8774 18.0377 28.3638C18.5561 27.8501 18.8153 27.2137 18.8153 26.4545C18.8153 25.6952 18.5561 25.0588 18.0377 24.5452C17.5193 24.0316 16.8769 23.7748 16.1106 23.7748C15.3443 23.7748 14.7019 24.0316 14.1836 24.5452C13.6652 25.0588 13.406 25.6952 13.406 26.4545C13.406 27.2137 13.6652 27.8501 14.1836 28.3638C14.7019 28.8774 15.3443 29.1342 16.1106 29.1342ZM32.3386 29.1342C33.1049 29.1342 33.7472 28.8774 34.2656 28.3638C34.784 27.8501 35.0432 27.2137 35.0432 26.4545C35.0432 25.6952 34.784 25.0588 34.2656 24.5452C33.7472 24.0316 33.1049 23.7748 32.3386 23.7748C31.5722 23.7748 30.9299 24.0316 30.4115 24.5452C29.8931 25.0588 29.6339 25.6952 29.6339 26.4545C29.6339 27.2137 29.8931 27.8501 30.4115 28.3638C30.9299 28.8774 31.5722 29.1342 32.3386 29.1342ZM5.29199 21.3631L9.75468 8.50053C9.98007 7.87527 10.352 7.36167 10.8703 6.95971C11.3887 6.55776 11.9635 6.35678 12.5946 6.35678H35.8546C36.4857 6.35678 37.0605 6.55776 37.5788 6.95971C38.0972 7.36167 38.4691 7.87527 38.6945 8.50053L43.1572 21.3631V39.049C43.1572 39.6743 42.9544 40.1879 42.5487 40.5898C42.143 40.9918 41.6246 41.1928 40.9935 41.1928H39.9116C39.2805 41.1928 38.7621 40.9918 38.3564 40.5898C37.9507 40.1879 37.7479 39.6743 37.7479 39.049V35.8334H10.7013V39.049C10.7013 39.6743 10.4985 40.1879 10.0928 40.5898C9.68706 40.9918 9.16867 41.1928 8.53758 41.1928H7.45572C6.82463 41.1928 6.30624 40.9918 5.90054 40.5898C5.49484 40.1879 5.29199 39.6743 5.29199 39.049V21.3631ZM12.4593 17.0755H35.9899L34.0966 11.7162H14.3526L12.4593 17.0755ZM10.7013 30.474H37.7479V22.4349H10.7013V30.474Z" fill="white"/>
</g>
</svg>
