<svg width="46" height="39" viewBox="0 0 46 39" fill="none" xmlns="http://www.w3.org/2000/svg">
<path d="M26.4239 4.24762H12.7522V0.211716H30.4598L26.4239 4.24762ZM18.3521 12.3194H6.69838V8.28352H22.388L18.3521 12.3194ZM10.2802 20.3912H0.644531V16.3553H14.3161L10.2802 20.3912ZM28.0887 24.4271L22.842 19.1805L12.7522 29.2702L17.9989 34.5169L28.0887 24.4271ZM25.7176 16.3049L30.9642 21.5515L41.0036 11.5122L35.7569 6.26557L25.7176 16.3049ZM21.4799 14.8923L32.3768 25.7892L20.824 37.342C20.0169 38.1492 19.0752 38.5528 17.9989 38.5528C16.9227 38.5528 15.981 38.1492 15.1738 37.342L15.0729 37.2411L13.7612 38.5528H3.67146L10.028 32.1962L9.92711 32.0953C9.11993 31.2882 8.71634 30.3465 8.71634 29.2702C8.71634 28.194 9.11993 27.2523 9.92711 26.4451L21.4799 14.8923ZM21.4799 14.8923L32.9317 3.44044C33.7389 2.63326 34.6806 2.22967 35.7569 2.22967C36.8331 2.22967 37.7748 2.63326 38.582 3.44044L43.8287 8.68711C44.6359 9.49429 45.0395 10.436 45.0395 11.5122C45.0395 12.5885 44.6359 13.5302 43.8287 14.3374L32.3768 25.7892L21.4799 14.8923Z" fill="white"/>
</svg>
