<svg width="50" height="49" viewBox="0 0 50 49" fill="none" xmlns="http://www.w3.org/2000/svg">
<mask id="mask0_3096_1442" style="mask-type:alpha" maskUnits="userSpaceOnUse" x="0" y="0" width="50" height="49">
<rect x="0.626953" y="0.176346" width="48.4372" height="48.4372" fill="#D9D9D9"/>
</mask>
<g mask="url(#mask0_3096_1442)">
<path d="M14.7548 44.5771C13.073 44.5771 11.6434 43.9884 10.4661 42.8112C9.28884 41.6339 8.7002 40.2043 8.7002 38.5224C8.7002 37.2106 9.07861 36.0333 9.83544 34.9906C10.5923 33.9478 11.5593 33.2246 12.7366 32.821V15.9689C11.5593 15.5652 10.5923 14.8421 9.83544 13.7993C9.07861 12.7566 8.7002 11.5793 8.7002 10.2674C8.7002 8.58558 9.28884 7.15602 10.4661 5.97872C11.6434 4.80143 13.073 4.21278 14.7548 4.21278C16.4367 4.21278 17.8663 4.80143 19.0436 5.97872C20.2208 7.15602 20.8095 8.58558 20.8095 10.2674C20.8095 11.5793 20.4311 12.7566 19.6742 13.7993C18.9174 14.8421 17.9504 15.5652 16.7731 15.9689V16.3221C16.7731 18.0039 17.3617 19.4335 18.539 20.6108C19.7163 21.7881 21.1459 22.3767 22.8277 22.3767H26.8641C29.656 22.3767 32.0358 23.3606 34.0036 25.3284C35.9713 27.2961 36.9552 29.6759 36.9552 32.4678V32.821C38.1325 33.2246 39.0996 33.9478 39.8564 34.9906C40.6132 36.0333 40.9916 37.2106 40.9916 38.5224C40.9916 40.2043 40.403 41.6339 39.2257 42.8112C38.0484 43.9884 36.6188 44.5771 34.937 44.5771C33.2552 44.5771 31.8256 43.9884 30.6483 42.8112C29.471 41.6339 28.8824 40.2043 28.8824 38.5224C28.8824 37.2106 29.2608 36.0333 30.0176 34.9906C30.7744 33.9478 31.7415 33.2246 32.9188 32.821V32.4678C32.9188 30.786 32.3301 29.3564 31.1528 28.1791C29.9756 27.0018 28.546 26.4132 26.8641 26.4132H22.8277C21.684 26.4132 20.5993 26.2366 19.5733 25.8834C18.5474 25.5302 17.614 25.034 16.7731 24.3949V32.821C17.9504 33.2246 18.9174 33.9478 19.6742 34.9906C20.4311 36.0333 20.8095 37.2106 20.8095 38.5224C20.8095 40.2043 20.2208 41.6339 19.0436 42.8112C17.8663 43.9884 16.4367 44.5771 14.7548 44.5771ZM14.7548 40.5407C15.3267 40.5407 15.806 40.3473 16.1928 39.9604C16.5796 39.5736 16.7731 39.0943 16.7731 38.5224C16.7731 37.9506 16.5796 37.4713 16.1928 37.0845C15.806 36.6976 15.3267 36.5042 14.7548 36.5042C14.183 36.5042 13.7037 36.6976 13.3169 37.0845C12.93 37.4713 12.7366 37.9506 12.7366 38.5224C12.7366 39.0943 12.93 39.5736 13.3169 39.9604C13.7037 40.3473 14.183 40.5407 14.7548 40.5407ZM34.937 40.5407C35.5088 40.5407 35.9882 40.3473 36.375 39.9604C36.7618 39.5736 36.9552 39.0943 36.9552 38.5224C36.9552 37.9506 36.7618 37.4713 36.375 37.0845C35.9882 36.6976 35.5088 36.5042 34.937 36.5042C34.3652 36.5042 33.8858 36.6976 33.499 37.0845C33.1122 37.4713 32.9188 37.9506 32.9188 38.5224C32.9188 39.0943 33.1122 39.5736 33.499 39.9604C33.8858 40.3473 34.3652 40.5407 34.937 40.5407ZM14.7548 12.2856C15.3267 12.2856 15.806 12.0922 16.1928 11.7054C16.5796 11.3186 16.7731 10.8393 16.7731 10.2674C16.7731 9.6956 16.5796 9.21628 16.1928 8.82945C15.806 8.44263 15.3267 8.24922 14.7548 8.24922C14.183 8.24922 13.7037 8.44263 13.3169 8.82945C12.93 9.21628 12.7366 9.6956 12.7366 10.2674C12.7366 10.8393 12.93 11.3186 13.3169 11.7054C13.7037 12.0922 14.183 12.2856 14.7548 12.2856Z" fill="white"/>
</g>
</svg>
