<svg width="50" height="49" viewBox="0 0 50 49" fill="none" xmlns="http://www.w3.org/2000/svg">
<mask id="mask0_2498_1351" style="mask-type:alpha" maskUnits="userSpaceOnUse" x="0" y="0" width="50" height="49">
<rect x="0.627197" y="0.17627" width="48.4308" height="48.4308" fill="#FF7640"/>
</mask>
<g mask="url(#mask0_2498_1351)">
<path d="M28.4241 8.24733H14.7525V4.21143H32.46L28.4241 8.24733ZM20.3523 16.3191H8.69863V12.2832H24.3882L20.3523 16.3191ZM12.2805 24.3909H2.64478V20.355H16.3164L12.2805 24.3909ZM30.0889 28.4268L24.8422 23.1802L14.7525 33.2699L19.9992 38.5166L30.0889 28.4268ZM27.7178 20.3046L32.9645 25.5513L43.0038 15.512L37.7571 10.2653L27.7178 20.3046ZM23.4801 18.892L34.3771 29.789L22.8243 41.3417C22.0171 42.1489 21.0754 42.5525 19.9992 42.5525C18.9229 42.5525 17.9812 42.1489 17.174 41.3417L17.0731 41.2408L15.7615 42.5525H5.6717L12.0282 36.1959L11.9274 36.0951C11.1202 35.2879 10.7166 34.3462 10.7166 33.2699C10.7166 32.1937 11.1202 31.252 11.9274 30.4448L23.4801 18.892ZM23.4801 18.892L34.932 7.44015C35.7392 6.63297 36.6809 6.22938 37.7571 6.22938C38.8334 6.22938 39.7751 6.63297 40.5823 7.44015L45.8289 12.6868C46.6361 13.494 47.0397 14.4357 47.0397 15.512C47.0397 16.5882 46.6361 17.5299 45.8289 18.3371L34.3771 29.789L23.4801 18.892Z" fill="#FF7640"/>
</g>
</svg>
