<svg width="50" height="49" viewBox="0 0 50 49" fill="none" xmlns="http://www.w3.org/2000/svg">
<mask id="mask0_3096_1447" style="mask-type:alpha" maskUnits="userSpaceOnUse" x="0" y="0" width="50" height="49">
<rect x="0.626953" y="0.176346" width="48.4308" height="48.4308" fill="#D9D9D9"/>
</mask>
<g mask="url(#mask0_3096_1447)">
<path d="M24.8426 37.5084C26.6588 37.5084 28.2983 37.0292 29.7614 36.0707C31.2244 35.1121 32.3258 33.8593 33.0657 32.3122C32.5276 31.8414 31.9895 31.3453 31.4514 30.824C30.9133 30.3027 30.3751 29.7561 29.837 29.1844C29.6352 30.4624 29.0719 31.4966 28.147 32.287C27.2221 33.0774 26.1206 33.4725 24.8426 33.4725C23.43 33.4725 22.2361 32.9849 21.2607 32.0095C20.2854 31.0342 19.7977 29.8402 19.7977 28.4277C19.7977 27.0151 20.2938 25.8295 21.286 24.871C22.2781 23.9125 23.4805 23.4164 24.893 23.3828C24.4895 22.7774 24.1027 22.1636 23.7327 21.5414C23.3628 20.9192 23.0096 20.2886 22.6733 19.6496C20.689 20.1541 19.041 21.2135 17.7293 22.8278C16.4177 24.4422 15.7618 26.3088 15.7618 28.4277C15.7618 30.9501 16.6447 33.0942 18.4104 34.8599C20.1761 36.6256 22.3202 37.5084 24.8426 37.5084ZM18.7887 8.24815H21.3112C21.143 8.88717 21.0169 9.543 20.9328 10.2157C20.8487 10.8883 20.8067 11.5778 20.8067 12.2841H20.5545L16.8717 16.32H8.69899V40.5354H40.9862V32.2113C41.6589 31.6059 42.3315 30.9753 43.0042 30.3195C43.6768 29.6637 44.3495 28.9994 45.0221 28.3268V40.5354C45.0221 41.6452 44.6269 42.5954 43.8366 43.3857C43.0462 44.1761 42.0961 44.5713 40.9862 44.5713H8.69899C7.58911 44.5713 6.639 44.1761 5.84863 43.3857C5.05827 42.5954 4.66309 41.6452 4.66309 40.5354V16.32C4.66309 15.2101 5.05827 14.26 5.84863 13.4696C6.639 12.6792 7.58911 12.2841 8.69899 12.2841H15.0555L18.7887 8.24815ZM36.9503 30.4456C41.0198 26.9815 44.0552 23.7696 46.0563 20.8099C48.0574 17.8502 49.058 15.1092 49.058 12.5867C49.058 8.78627 47.8388 5.76775 45.4005 3.53119C42.9621 1.29463 40.1454 0.176346 36.9503 0.176346C33.7552 0.176346 30.9385 1.29463 28.5001 3.53119C26.0618 5.76775 24.8426 8.78627 24.8426 12.5867C24.8426 15.1092 25.8432 17.8502 27.8443 20.8099C29.8454 23.7696 32.8808 26.9815 36.9503 30.4456ZM36.9503 25.0476C33.4525 21.7516 31.2328 19.0946 30.2911 17.0767C29.3494 15.0587 28.8785 13.5621 28.8785 12.5867C28.8785 9.86251 29.7277 7.7857 31.4262 6.35632C33.1246 4.92694 34.966 4.21225 36.9503 4.21225C38.9346 4.21225 40.776 4.92694 42.4744 6.35632C44.1729 7.7857 45.0221 9.86251 45.0221 12.5867C45.0221 13.5621 44.5513 15.0587 43.6095 17.0767C42.6678 19.0946 40.4481 21.7516 36.9503 25.0476ZM33.2171 18.3379L34.6297 13.7471L30.8965 10.7706H35.4873L36.9503 6.2302L38.4133 10.7706H43.0042L39.2709 13.7471L40.6835 18.3379L36.9503 15.5128L33.2171 18.3379Z" fill="white"/>
</g>
</svg>
