<svg width="42" height="33" viewBox="0 0 42 33" fill="none" xmlns="http://www.w3.org/2000/svg">
<path d="M4.70143 0.248047L8.73733 8.31985H14.7912L10.7553 0.248047H14.7912L18.8271 8.31985H24.8809L20.845 0.248047H24.8809L28.9168 8.31985H34.9707L30.9348 0.248047H36.9886C38.0985 0.248047 39.0486 0.643229 39.839 1.43359C40.6294 2.22396 41.0245 3.17408 41.0245 4.28395V28.4994C41.0245 29.6092 40.6294 30.5594 39.839 31.3497C39.0486 32.1401 38.0985 32.5353 36.9886 32.5353H4.70143C3.59156 32.5353 2.64144 32.1401 1.85107 31.3497C1.06071 30.5594 0.665527 29.6092 0.665527 28.4994V4.28395C0.665527 3.17408 1.06071 2.22396 1.85107 1.43359C2.64144 0.643229 3.59156 0.248047 4.70143 0.248047ZM4.70143 12.3558V28.4994H36.9886V12.3558H4.70143Z" fill="#6338E0"/>
</svg>
