<svg width="49" height="49" viewBox="0 0 49 49" fill="none" xmlns="http://www.w3.org/2000/svg">
<mask id="mask0_2498_1418" style="mask-type:alpha" maskUnits="userSpaceOnUse" x="0" y="0" width="49" height="49">
<rect x="0.314697" y="0.17627" width="48.4308" height="48.4308" fill="#D9D9D9"/>
</mask>
<g mask="url(#mask0_2498_1418)">
<path d="M15.7984 29.1338C16.5647 29.1338 17.207 28.877 17.7254 28.3634C18.2438 27.8498 18.503 27.2134 18.503 26.4541C18.503 25.6949 18.2438 25.0585 17.7254 24.5449C17.207 24.0312 16.5647 23.7744 15.7984 23.7744C15.032 23.7744 14.3897 24.0312 13.8713 24.5449C13.3529 25.0585 13.0937 25.6949 13.0937 26.4541C13.0937 27.2134 13.3529 27.8498 13.8713 28.3634C14.3897 28.877 15.032 29.1338 15.7984 29.1338ZM32.0263 29.1338C32.7926 29.1338 33.435 28.877 33.9534 28.3634C34.4718 27.8498 34.731 27.2134 34.731 26.4541C34.731 25.6949 34.4718 25.0585 33.9534 24.5449C33.435 24.0312 32.7926 23.7744 32.0263 23.7744C31.26 23.7744 30.6176 24.0312 30.0992 24.5449C29.5809 25.0585 29.3217 25.6949 29.3217 26.4541C29.3217 27.2134 29.5809 27.8498 30.0992 28.3634C30.6176 28.877 31.26 29.1338 32.0263 29.1338ZM4.97974 21.3627L9.44242 8.5002C9.66781 7.87494 10.0397 7.36133 10.5581 6.95938C11.0765 6.55742 11.6512 6.35645 12.2823 6.35645H35.5424C36.1735 6.35645 36.7482 6.55742 37.2666 6.95938C37.785 7.36133 38.1569 7.87494 38.3823 8.5002L42.8449 21.3627V39.0487C42.8449 39.6739 42.6421 40.1876 42.2364 40.5895C41.8307 40.9915 41.3123 41.1924 40.6812 41.1924H39.5994C38.9683 41.1924 38.4499 40.9915 38.0442 40.5895C37.6385 40.1876 37.4356 39.6739 37.4356 39.0487V35.8331H10.3891V39.0487C10.3891 39.6739 10.1862 40.1876 9.7805 40.5895C9.37481 40.9915 8.85641 41.1924 8.22533 41.1924H7.14346C6.51238 41.1924 5.99398 40.9915 5.58828 40.5895C5.18259 40.1876 4.97974 39.6739 4.97974 39.0487V21.3627ZM12.1471 17.0752H35.6776L33.7843 11.7158H14.0403L12.1471 17.0752ZM10.3891 30.4737H37.4356V22.4346H10.3891V30.4737Z" fill="#2FD29E"/>
</g>
</svg>
