<svg width="50" height="49" viewBox="0 0 50 49" fill="none" xmlns="http://www.w3.org/2000/svg">
<mask id="mask0_2498_1366" style="mask-type:alpha" maskUnits="userSpaceOnUse" x="0" y="0" width="50" height="49">
<rect x="0.627441" y="0.17627" width="48.4308" height="48.4308" fill="#F03063"/>
</mask>
<g mask="url(#mask0_2498_1366)">
<path d="M8.69948 42.5531C7.5896 42.5531 6.63948 42.1579 5.84912 41.3676C5.05876 40.5772 4.66357 39.6271 4.66357 38.5172V10.2659C4.66357 9.15601 5.05876 8.20589 5.84912 7.41553C6.63948 6.62516 7.5896 6.22998 8.69948 6.22998H40.9867C42.0966 6.22998 43.0467 6.62516 43.837 7.41553C44.6274 8.20589 45.0226 9.15601 45.0226 10.2659V38.5172C45.0226 39.6271 44.6274 40.5772 43.837 41.3676C43.0467 42.1579 42.0966 42.5531 40.9867 42.5531H8.69948ZM8.69948 38.5172H12.7354V34.4813H8.69948V38.5172ZM36.9508 38.5172H40.9867V34.4813H36.9508V38.5172ZM22.8251 34.4813H26.861V22.3736H22.8251V34.4813ZM8.69948 30.4454H12.7354V26.4095H8.69948V30.4454ZM36.9508 30.4454H40.9867V26.4095H36.9508V30.4454ZM8.69948 22.3736H12.7354V18.3377H8.69948V22.3736ZM36.9508 22.3736H40.9867V18.3377H36.9508V22.3736ZM24.8431 18.3377C25.4148 18.3377 25.8941 18.1443 26.2809 17.7575C26.6676 17.3708 26.861 16.8915 26.861 16.3197C26.861 15.748 26.6676 15.2687 26.2809 14.8819C25.8941 14.4952 25.4148 14.3018 24.8431 14.3018C24.2713 14.3018 23.7921 14.4952 23.4053 14.8819C23.0185 15.2687 22.8251 15.748 22.8251 16.3197C22.8251 16.8915 23.0185 17.3708 23.4053 17.7575C23.7921 18.1443 24.2713 18.3377 24.8431 18.3377ZM8.69948 14.3018H12.7354V10.2659H8.69948V14.3018ZM36.9508 14.3018H40.9867V10.2659H36.9508V14.3018ZM16.7713 38.5172H32.9149V10.2659H16.7713V38.5172Z" fill="#F03063"/>
</g>
</svg>
