<svg width="50" height="49" viewBox="0 0 50 49" fill="none" xmlns="http://www.w3.org/2000/svg">
<mask id="mask0_2498_1402" style="mask-type:alpha" maskUnits="userSpaceOnUse" x="0" y="0" width="50" height="49">
<rect x="0.627441" y="0.17627" width="48.4372" height="48.4372" fill="#0984E2"/>
</mask>
<g mask="url(#mask0_2498_1402)">
<path d="M19.7992 33.4767L33.9267 24.3947L19.7992 15.3128V33.4767ZM8.69903 40.5405C7.58901 40.5405 6.63877 40.1452 5.8483 39.3548C5.05783 38.5643 4.6626 37.6141 4.6626 36.504V12.2855C4.6626 11.1754 5.05783 10.2252 5.8483 9.43473C6.63877 8.64426 7.58901 8.24902 8.69903 8.24902H40.9905C42.1005 8.24902 43.0507 8.64426 43.8412 9.43473C44.6317 10.2252 45.0269 11.1754 45.0269 12.2855V36.504C45.0269 37.6141 44.6317 38.5643 43.8412 39.3548C43.0507 40.1452 42.1005 40.5405 40.9905 40.5405H8.69903ZM8.69903 36.504H40.9905V12.2855H8.69903V36.504Z" fill="#4823B6"/>
</g>
</svg>
