<svg width="50" height="49" viewBox="0 0 50 49" fill="none" xmlns="http://www.w3.org/2000/svg">
<mask id="mask0_2498_1423" style="mask-type:alpha" maskUnits="userSpaceOnUse" x="0" y="0" width="50" height="49">
<rect x="0.627441" y="0.312988" width="48.4372" height="48.4372" fill="#D9D9D9"/>
</mask>
<g mask="url(#mask0_2498_1423)">
<path d="M6.68049 29.577C6.4114 29.577 6.17594 29.4761 5.97412 29.2743C5.7723 29.0724 5.67139 28.837 5.67139 28.5679C5.67139 28.2988 5.7723 28.0633 5.97412 27.8615C6.17594 27.6597 6.4114 27.5588 6.68049 27.5588C6.94959 27.5588 7.18505 27.6597 7.38687 27.8615C7.58869 28.0633 7.6896 28.2988 7.6896 28.5679C7.6896 28.837 7.58869 29.0724 7.38687 29.2743C7.18505 29.4761 6.94959 29.577 6.68049 29.577ZM6.68049 21.5041C6.4114 21.5041 6.17594 21.4032 5.97412 21.2014C5.7723 20.9996 5.67139 20.7641 5.67139 20.495C5.67139 20.2259 5.7723 19.9905 5.97412 19.7886C6.17594 19.5868 6.4114 19.4859 6.68049 19.4859C6.94959 19.4859 7.18505 19.5868 7.38687 19.7886C7.58869 19.9905 7.6896 20.2259 7.6896 20.495C7.6896 20.7641 7.58869 20.9996 7.38687 21.2014C7.18505 21.4032 6.94959 21.5041 6.68049 21.5041ZM12.7351 38.659C12.1633 38.659 11.684 38.4655 11.2972 38.0787C10.9103 37.6919 10.7169 37.2126 10.7169 36.6407C10.7169 36.0689 10.9103 35.5896 11.2972 35.2028C11.684 34.8159 12.1633 34.6225 12.7351 34.6225C13.307 34.6225 13.7863 34.8159 14.1731 35.2028C14.5599 35.5896 14.7534 36.0689 14.7534 36.6407C14.7534 37.2126 14.5599 37.6919 14.1731 38.0787C13.7863 38.4655 13.307 38.659 12.7351 38.659ZM12.7351 30.5861C12.1633 30.5861 11.684 30.3927 11.2972 30.0059C10.9103 29.619 10.7169 29.1397 10.7169 28.5679C10.7169 27.9961 10.9103 27.5167 11.2972 27.1299C11.684 26.7431 12.1633 26.5497 12.7351 26.5497C13.307 26.5497 13.7863 26.7431 14.1731 27.1299C14.5599 27.5167 14.7534 27.9961 14.7534 28.5679C14.7534 29.1397 14.5599 29.619 14.1731 30.0059C13.7863 30.3927 13.307 30.5861 12.7351 30.5861ZM12.7351 22.5132C12.1633 22.5132 11.684 22.3198 11.2972 21.933C10.9103 21.5462 10.7169 21.0668 10.7169 20.495C10.7169 19.9232 10.9103 19.4439 11.2972 19.057C11.684 18.6702 12.1633 18.4768 12.7351 18.4768C13.307 18.4768 13.7863 18.6702 14.1731 19.057C14.5599 19.4439 14.7534 19.9232 14.7534 20.495C14.7534 21.0668 14.5599 21.5462 14.1731 21.933C13.7863 22.3198 13.307 22.5132 12.7351 22.5132ZM12.7351 14.4404C12.1633 14.4404 11.684 14.247 11.2972 13.8601C10.9103 13.4733 10.7169 12.994 10.7169 12.4222C10.7169 11.8503 10.9103 11.371 11.2972 10.9842C11.684 10.5974 12.1633 10.4039 12.7351 10.4039C13.307 10.4039 13.7863 10.5974 14.1731 10.9842C14.5599 11.371 14.7534 11.8503 14.7534 12.4222C14.7534 12.994 14.5599 13.4733 14.1731 13.8601C13.7863 14.247 13.307 14.4404 12.7351 14.4404ZM20.808 31.5952C19.9671 31.5952 19.2523 31.3009 18.6637 30.7122C18.075 30.1236 17.7807 29.4088 17.7807 28.5679C17.7807 27.727 18.075 27.0122 18.6637 26.4235C19.2523 25.8349 19.9671 25.5406 20.808 25.5406C21.6489 25.5406 22.3637 25.8349 22.9524 26.4235C23.541 27.0122 23.8353 27.727 23.8353 28.5679C23.8353 29.4088 23.541 30.1236 22.9524 30.7122C22.3637 31.3009 21.6489 31.5952 20.808 31.5952ZM20.808 23.5223C19.9671 23.5223 19.2523 23.228 18.6637 22.6394C18.075 22.0507 17.7807 21.3359 17.7807 20.495C17.7807 19.6541 18.075 18.9393 18.6637 18.3507C19.2523 17.762 19.9671 17.4677 20.808 17.4677C21.6489 17.4677 22.3637 17.762 22.9524 18.3507C23.541 18.9393 23.8353 19.6541 23.8353 20.495C23.8353 21.3359 23.541 22.0507 22.9524 22.6394C22.3637 23.228 21.6489 23.5223 20.808 23.5223ZM20.808 38.659C20.2362 38.659 19.7569 38.4655 19.37 38.0787C18.9832 37.6919 18.7898 37.2126 18.7898 36.6407C18.7898 36.0689 18.9832 35.5896 19.37 35.2028C19.7569 34.8159 20.2362 34.6225 20.808 34.6225C21.3798 34.6225 21.8592 34.8159 22.246 35.2028C22.6328 35.5896 22.8262 36.0689 22.8262 36.6407C22.8262 37.2126 22.6328 37.6919 22.246 38.0787C21.8592 38.4655 21.3798 38.659 20.808 38.659ZM20.808 14.4404C20.2362 14.4404 19.7569 14.247 19.37 13.8601C18.9832 13.4733 18.7898 12.994 18.7898 12.4222C18.7898 11.8503 18.9832 11.371 19.37 10.9842C19.7569 10.5974 20.2362 10.4039 20.808 10.4039C21.3798 10.4039 21.8592 10.5974 22.246 10.9842C22.6328 11.371 22.8262 11.8503 22.8262 12.4222C22.8262 12.994 22.6328 13.4733 22.246 13.8601C21.8592 14.247 21.3798 14.4404 20.808 14.4404ZM20.808 43.7045C20.5389 43.7045 20.3035 43.6036 20.1016 43.4018C19.8998 43.1999 19.7989 42.9645 19.7989 42.6954C19.7989 42.4263 19.8998 42.1908 20.1016 41.989C20.3035 41.7872 20.5389 41.6863 20.808 41.6863C21.0771 41.6863 21.3126 41.7872 21.5144 41.989C21.7162 42.1908 21.8171 42.4263 21.8171 42.6954C21.8171 42.9645 21.7162 43.1999 21.5144 43.4018C21.3126 43.6036 21.0771 43.7045 20.808 43.7045ZM20.808 7.37661C20.5389 7.37661 20.3035 7.2757 20.1016 7.07388C19.8998 6.87206 19.7989 6.6366 19.7989 6.36751C19.7989 6.09841 19.8998 5.86295 20.1016 5.66113C20.3035 5.45931 20.5389 5.3584 20.808 5.3584C21.0771 5.3584 21.3126 5.45931 21.5144 5.66113C21.7162 5.86295 21.8171 6.09841 21.8171 6.36751C21.8171 6.6366 21.7162 6.87206 21.5144 7.07388C21.3126 7.2757 21.0771 7.37661 20.808 7.37661ZM28.8809 31.5952C28.0399 31.5952 27.3252 31.3009 26.7365 30.7122C26.1479 30.1236 25.8535 29.4088 25.8535 28.5679C25.8535 27.727 26.1479 27.0122 26.7365 26.4235C27.3252 25.8349 28.0399 25.5406 28.8809 25.5406C29.7218 25.5406 30.4366 25.8349 31.0252 26.4235C31.6139 27.0122 31.9082 27.727 31.9082 28.5679C31.9082 29.4088 31.6139 30.1236 31.0252 30.7122C30.4366 31.3009 29.7218 31.5952 28.8809 31.5952ZM28.8809 23.5223C28.0399 23.5223 27.3252 23.228 26.7365 22.6394C26.1479 22.0507 25.8535 21.3359 25.8535 20.495C25.8535 19.6541 26.1479 18.9393 26.7365 18.3507C27.3252 17.762 28.0399 17.4677 28.8809 17.4677C29.7218 17.4677 30.4366 17.762 31.0252 18.3507C31.6139 18.9393 31.9082 19.6541 31.9082 20.495C31.9082 21.3359 31.6139 22.0507 31.0252 22.6394C30.4366 23.228 29.7218 23.5223 28.8809 23.5223ZM28.8809 38.659C28.309 38.659 27.8297 38.4655 27.4429 38.0787C27.0561 37.6919 26.8627 37.2126 26.8627 36.6407C26.8627 36.0689 27.0561 35.5896 27.4429 35.2028C27.8297 34.8159 28.309 34.6225 28.8809 34.6225C29.4527 34.6225 29.932 34.8159 30.3188 35.2028C30.7057 35.5896 30.8991 36.0689 30.8991 36.6407C30.8991 37.2126 30.7057 37.6919 30.3188 38.0787C29.932 38.4655 29.4527 38.659 28.8809 38.659ZM28.8809 14.4404C28.309 14.4404 27.8297 14.247 27.4429 13.8601C27.0561 13.4733 26.8627 12.994 26.8627 12.4222C26.8627 11.8503 27.0561 11.371 27.4429 10.9842C27.8297 10.5974 28.309 10.4039 28.8809 10.4039C29.4527 10.4039 29.932 10.5974 30.3188 10.9842C30.7057 11.371 30.8991 11.8503 30.8991 12.4222C30.8991 12.994 30.7057 13.4733 30.3188 13.8601C29.932 14.247 29.4527 14.4404 28.8809 14.4404ZM28.8809 43.7045C28.6118 43.7045 28.3763 43.6036 28.1745 43.4018C27.9727 43.1999 27.8718 42.9645 27.8718 42.6954C27.8718 42.4263 27.9727 42.1908 28.1745 41.989C28.3763 41.7872 28.6118 41.6863 28.8809 41.6863C29.15 41.6863 29.3854 41.7872 29.5872 41.989C29.7891 42.1908 29.89 42.4263 29.89 42.6954C29.89 42.9645 29.7891 43.1999 29.5872 43.4018C29.3854 43.6036 29.15 43.7045 28.8809 43.7045ZM28.8809 7.37661C28.6118 7.37661 28.3763 7.2757 28.1745 7.07388C27.9727 6.87206 27.8718 6.6366 27.8718 6.36751C27.8718 6.09841 27.9727 5.86295 28.1745 5.66113C28.3763 5.45931 28.6118 5.3584 28.8809 5.3584C29.15 5.3584 29.3854 5.45931 29.5872 5.66113C29.7891 5.86295 29.89 6.09841 29.89 6.36751C29.89 6.6366 29.7891 6.87206 29.5872 7.07388C29.3854 7.2757 29.15 7.37661 28.8809 7.37661ZM36.9537 38.659C36.3819 38.659 35.9026 38.4655 35.5158 38.0787C35.1289 37.6919 34.9355 37.2126 34.9355 36.6407C34.9355 36.0689 35.1289 35.5896 35.5158 35.2028C35.9026 34.8159 36.3819 34.6225 36.9537 34.6225C37.5256 34.6225 38.0049 34.8159 38.3917 35.2028C38.7785 35.5896 38.972 36.0689 38.972 36.6407C38.972 37.2126 38.7785 37.6919 38.3917 38.0787C38.0049 38.4655 37.5256 38.659 36.9537 38.659ZM36.9537 30.5861C36.3819 30.5861 35.9026 30.3927 35.5158 30.0059C35.1289 29.619 34.9355 29.1397 34.9355 28.5679C34.9355 27.9961 35.1289 27.5167 35.5158 27.1299C35.9026 26.7431 36.3819 26.5497 36.9537 26.5497C37.5256 26.5497 38.0049 26.7431 38.3917 27.1299C38.7785 27.5167 38.972 27.9961 38.972 28.5679C38.972 29.1397 38.7785 29.619 38.3917 30.0059C38.0049 30.3927 37.5256 30.5861 36.9537 30.5861ZM36.9537 22.5132C36.3819 22.5132 35.9026 22.3198 35.5158 21.933C35.1289 21.5462 34.9355 21.0668 34.9355 20.495C34.9355 19.9232 35.1289 19.4439 35.5158 19.057C35.9026 18.6702 36.3819 18.4768 36.9537 18.4768C37.5256 18.4768 38.0049 18.6702 38.3917 19.057C38.7785 19.4439 38.972 19.9232 38.972 20.495C38.972 21.0668 38.7785 21.5462 38.3917 21.933C38.0049 22.3198 37.5256 22.5132 36.9537 22.5132ZM36.9537 14.4404C36.3819 14.4404 35.9026 14.247 35.5158 13.8601C35.1289 13.4733 34.9355 12.994 34.9355 12.4222C34.9355 11.8503 35.1289 11.371 35.5158 10.9842C35.9026 10.5974 36.3819 10.4039 36.9537 10.4039C37.5256 10.4039 38.0049 10.5974 38.3917 10.9842C38.7785 11.371 38.972 11.8503 38.972 12.4222C38.972 12.994 38.7785 13.4733 38.3917 13.8601C38.0049 14.247 37.5256 14.4404 36.9537 14.4404ZM43.0084 29.577C42.7393 29.577 42.5038 29.4761 42.302 29.2743C42.1002 29.0724 41.9993 28.837 41.9993 28.5679C41.9993 28.2988 42.1002 28.0633 42.302 27.8615C42.5038 27.6597 42.7393 27.5588 43.0084 27.5588C43.2775 27.5588 43.5129 27.6597 43.7148 27.8615C43.9166 28.0633 44.0175 28.2988 44.0175 28.5679C44.0175 28.837 43.9166 29.0724 43.7148 29.2743C43.5129 29.4761 43.2775 29.577 43.0084 29.577ZM43.0084 21.5041C42.7393 21.5041 42.5038 21.4032 42.302 21.2014C42.1002 20.9996 41.9993 20.7641 41.9993 20.495C41.9993 20.2259 42.1002 19.9905 42.302 19.7886C42.5038 19.5868 42.7393 19.4859 43.0084 19.4859C43.2775 19.4859 43.5129 19.5868 43.7148 19.7886C43.9166 19.9905 44.0175 20.2259 44.0175 20.495C44.0175 20.7641 43.9166 20.9996 43.7148 21.2014C43.5129 21.4032 43.2775 21.5041 43.0084 21.5041Z" fill="#1663D6"/>
</g>
</svg>
