<svg width="50" height="49" viewBox="0 0 50 49" fill="none" xmlns="http://www.w3.org/2000/svg">
<mask id="mask0_3096_1437" style="mask-type:alpha" maskUnits="userSpaceOnUse" x="0" y="0" width="50" height="49">
<rect x="0.627441" y="0.176346" width="48.4308" height="48.4308" fill="#00CFC9"/>
</mask>
<g mask="url(#mask0_3096_1437)">
<path d="M24.8419 45.5803C23.1603 45.5803 21.7309 44.9917 20.5538 43.8146C19.3766 42.6375 18.7881 41.2081 18.7881 39.5265C18.7881 38.2148 19.1664 37.0376 19.9232 35.995C20.6799 34.9524 21.6468 34.2293 22.824 33.8257V30.143C22.454 30.0085 22.1009 29.8487 21.7645 29.6637C21.4282 29.4787 21.1255 29.2517 20.8565 28.9827L17.6782 30.8493C17.7118 31.0174 17.7371 31.194 17.7539 31.379C17.7707 31.564 17.7791 31.7573 17.7791 31.9591C17.7791 33.6408 17.1905 35.0701 16.0134 36.2473C14.8362 37.4244 13.4069 38.013 11.7252 38.013C10.0436 38.013 8.61423 37.4244 7.43709 36.2473C6.25996 35.0701 5.67139 33.6408 5.67139 31.9591C5.67139 30.2775 6.25996 28.8481 7.43709 27.671C8.61423 26.4939 10.0436 25.9053 11.7252 25.9053C12.4988 25.9053 13.2219 26.0314 13.8945 26.2837C14.5672 26.5359 15.1726 26.8974 15.7107 27.3683L18.8385 25.5521C18.8049 25.384 18.7797 25.199 18.7628 24.9972C18.746 24.7954 18.7376 24.5936 18.7376 24.3918C18.7376 24.19 18.746 23.9966 18.7628 23.8117C18.7797 23.6267 18.8049 23.4501 18.8385 23.2819L15.7107 21.4153C15.1726 21.8862 14.5672 22.2477 13.8945 22.5C13.2219 22.7522 12.4988 22.8784 11.7252 22.8784C10.0436 22.8784 8.61423 22.2898 7.43709 21.1127C6.25996 19.9355 5.67139 18.5061 5.67139 16.8245C5.67139 15.1429 6.25996 13.7135 7.43709 12.5364C8.61423 11.3592 10.0436 10.7707 11.7252 10.7707C13.4069 10.7707 14.8362 11.3592 16.0134 12.5364C17.1905 13.7135 17.7791 15.1429 17.7791 16.8245C17.7791 17.0263 17.7707 17.2281 17.7539 17.4299C17.7371 17.6317 17.7118 17.8167 17.6782 17.9848L20.8565 19.801C21.1255 19.5319 21.4282 19.3133 21.7645 19.1452C22.1009 18.977 22.454 18.8256 22.824 18.6911V15.0084C21.6468 14.6048 20.6799 13.8733 19.9232 12.8138C19.1664 11.7544 18.7881 10.5689 18.7881 9.25719C18.7881 7.57557 19.3766 6.14618 20.5538 4.96905C21.7309 3.79191 23.1603 3.20334 24.8419 3.20334C26.5235 3.20334 27.9529 3.79191 29.1301 4.96905C30.3072 6.14618 30.8958 7.57557 30.8958 9.25719C30.8958 10.5689 30.5174 11.7544 29.7607 12.8138C29.0039 13.8733 28.037 14.6048 26.8599 15.0084V18.6911C27.2298 18.8256 27.5746 18.9854 27.8941 19.1704C28.2136 19.3554 28.5079 19.5824 28.7769 19.8514L32.0056 17.9344C31.972 17.7662 31.9468 17.5896 31.93 17.4047C31.9132 17.2197 31.9048 17.0263 31.9048 16.8245C31.9048 15.1429 32.4933 13.7135 33.6705 12.5364C34.8476 11.3592 36.277 10.7707 37.9586 10.7707C39.6402 10.7707 41.0696 11.3592 42.2467 12.5364C43.4239 13.7135 44.0125 15.1429 44.0125 16.8245C44.0125 18.5061 43.4239 19.9355 42.2467 21.1127C41.0696 22.2898 39.6402 22.8784 37.9586 22.8784C37.1851 22.8784 36.4704 22.7522 35.8145 22.5C35.1587 22.2477 34.5617 21.8862 34.0236 21.4153L30.7444 23.3324C30.7781 23.5006 30.8033 23.6771 30.8201 23.8621C30.8369 24.0471 30.8453 24.2237 30.8453 24.3918C30.8453 24.56 30.8369 24.745 30.8201 24.9468C30.8033 25.1486 30.7781 25.3335 30.7444 25.5017L34.0236 27.3683C34.5617 26.8974 35.1587 26.5359 35.8145 26.2837C36.4704 26.0314 37.1851 25.9053 37.9586 25.9053C39.6402 25.9053 41.0696 26.4939 42.2467 27.671C43.4239 28.8481 44.0125 30.2775 44.0125 31.9591C44.0125 33.6408 43.4239 35.0701 42.2467 36.2473C41.0696 37.4244 39.6402 38.013 37.9586 38.013C36.277 38.013 34.8476 37.4244 33.6705 36.2473C32.4933 35.0701 31.9048 33.6408 31.9048 31.9591C31.9048 31.7573 31.9132 31.564 31.93 31.379C31.9468 31.194 31.972 31.0174 32.0056 30.8493L28.7769 28.9827C28.5079 29.2517 28.2136 29.4703 27.8941 29.6385C27.5746 29.8067 27.2298 29.958 26.8599 30.0925V33.8257C28.037 34.2293 29.0039 34.9524 29.7607 35.995C30.5174 37.0376 30.8958 38.2148 30.8958 39.5265C30.8958 41.2081 30.3072 42.6375 29.1301 43.8146C27.9529 44.9917 26.5235 45.5803 24.8419 45.5803ZM24.8419 41.5444C25.4137 41.5444 25.8929 41.351 26.2797 40.9642C26.6665 40.5775 26.8599 40.0982 26.8599 39.5265C26.8599 38.9547 26.6665 38.4754 26.2797 38.0887C25.8929 37.7019 25.4137 37.5085 24.8419 37.5085C24.2702 37.5085 23.7909 37.7019 23.4041 38.0887C23.0174 38.4754 22.824 38.9547 22.824 39.5265C22.824 40.0982 23.0174 40.5775 23.4041 40.9642C23.7909 41.351 24.2702 41.5444 24.8419 41.5444ZM11.7252 33.9771C12.297 33.9771 12.7763 33.7837 13.163 33.3969C13.5498 33.0102 13.7432 32.5309 13.7432 31.9591C13.7432 31.3874 13.5498 30.9081 13.163 30.5213C12.7763 30.1346 12.297 29.9412 11.7252 29.9412C11.1535 29.9412 10.6742 30.1346 10.2874 30.5213C9.90068 30.9081 9.70729 31.3874 9.70729 31.9591C9.70729 32.5309 9.90068 33.0102 10.2874 33.3969C10.6742 33.7837 11.1535 33.9771 11.7252 33.9771ZM37.9586 33.9771C38.5304 33.9771 39.0096 33.7837 39.3964 33.3969C39.7832 33.0102 39.9766 32.5309 39.9766 31.9591C39.9766 31.3874 39.7832 30.9081 39.3964 30.5213C39.0096 30.1346 38.5304 29.9412 37.9586 29.9412C37.3869 29.9412 36.9076 30.1346 36.5208 30.5213C36.134 30.9081 35.9407 31.3874 35.9407 31.9591C35.9407 32.5309 36.134 33.0102 36.5208 33.3969C36.9076 33.7837 37.3869 33.9771 37.9586 33.9771ZM24.8419 26.4098C25.4137 26.4098 25.8929 26.2164 26.2797 25.8296C26.6665 25.4428 26.8599 24.9636 26.8599 24.3918C26.8599 23.8201 26.6665 23.3408 26.2797 22.954C25.8929 22.5673 25.4137 22.3739 24.8419 22.3739C24.2702 22.3739 23.7909 22.5673 23.4041 22.954C23.0174 23.3408 22.824 23.8201 22.824 24.3918C22.824 24.9636 23.0174 25.4428 23.4041 25.8296C23.7909 26.2164 24.2702 26.4098 24.8419 26.4098ZM11.7252 18.8425C12.297 18.8425 12.7763 18.6491 13.163 18.2623C13.5498 17.8755 13.7432 17.3963 13.7432 16.8245C13.7432 16.2528 13.5498 15.7735 13.163 15.3867C12.7763 14.9999 12.297 14.8066 11.7252 14.8066C11.1535 14.8066 10.6742 14.9999 10.2874 15.3867C9.90068 15.7735 9.70729 16.2528 9.70729 16.8245C9.70729 17.3963 9.90068 17.8755 10.2874 18.2623C10.6742 18.6491 11.1535 18.8425 11.7252 18.8425ZM37.9586 18.8425C38.5304 18.8425 39.0096 18.6491 39.3964 18.2623C39.7832 17.8755 39.9766 17.3963 39.9766 16.8245C39.9766 16.2528 39.7832 15.7735 39.3964 15.3867C39.0096 14.9999 38.5304 14.8066 37.9586 14.8066C37.3869 14.8066 36.9076 14.9999 36.5208 15.3867C36.134 15.7735 35.9407 16.2528 35.9407 16.8245C35.9407 17.3963 36.134 17.8755 36.5208 18.2623C36.9076 18.6491 37.3869 18.8425 37.9586 18.8425ZM24.8419 11.2751C25.4137 11.2751 25.8929 11.0818 26.2797 10.695C26.6665 10.3082 26.8599 9.82894 26.8599 9.25719C26.8599 8.68544 26.6665 8.20618 26.2797 7.8194C25.8929 7.43263 25.4137 7.23924 24.8419 7.23924C24.2702 7.23924 23.7909 7.43263 23.4041 7.8194C23.0174 8.20618 22.824 8.68544 22.824 9.25719C22.824 9.82894 23.0174 10.3082 23.4041 10.695C23.7909 11.0818 24.2702 11.2751 24.8419 11.2751Z" fill="white"/>
</g>
</svg>
