<svg width="50" height="49" viewBox="0 0 50 49" fill="none" xmlns="http://www.w3.org/2000/svg">
<mask id="mask0_2498_1356" style="mask-type:alpha" maskUnits="userSpaceOnUse" x="0" y="0" width="50" height="49">
<rect x="0.627441" y="0.17627" width="48.4308" height="48.4308" fill="#895EF6"/>
</mask>
<g mask="url(#mask0_2498_1356)">
<path d="M15.7617 39.5264V29.4367L23.8335 34.4816L15.7617 39.5264ZM26.8604 20.3559C25.1788 20.3559 23.7494 19.7673 22.5723 18.5902C21.3951 17.413 20.8066 15.9837 20.8066 14.302C20.8066 12.6204 21.3951 11.191 22.5723 10.0139C23.7494 8.83676 25.1788 8.24819 26.8604 8.24819H29.3829V11.2751H26.8604C26.0196 11.2751 25.3049 11.5694 24.7164 12.158C24.1278 12.7465 23.8335 13.4612 23.8335 14.302C23.8335 15.1429 24.1278 15.8575 24.7164 16.4461C25.3049 17.0347 26.0196 17.329 26.8604 17.329H29.3829V20.3559H26.8604ZM32.4098 20.3559V17.329H34.9322C35.773 17.329 36.4877 17.0347 37.0763 16.4461C37.6649 15.8575 37.9592 15.1429 37.9592 14.302C37.9592 13.4612 37.6649 12.7465 37.0763 12.158C36.4877 11.5694 35.773 11.2751 34.9322 11.2751H32.4098V8.24819H34.9322C36.6139 8.24819 38.0432 8.83676 39.2204 10.0139C40.3975 11.191 40.9861 12.6204 40.9861 14.302C40.9861 15.9837 40.3975 17.413 39.2204 18.5902C38.0432 19.7673 36.6139 20.3559 34.9322 20.3559H32.4098ZM26.8604 15.8155V12.7886H34.9322V15.8155H26.8604ZM33.1161 28.4277V24.3918H43.004V6.23024H18.7886V24.3918H14.7527V6.23024C14.7527 5.12036 15.1479 4.17025 15.9383 3.37988C16.7286 2.58952 17.6788 2.19434 18.7886 2.19434H43.004C44.1139 2.19434 45.064 2.58952 45.8544 3.37988C46.6448 4.17025 47.0399 5.12036 47.0399 6.23024V24.3918C47.0399 25.5017 46.6448 26.4518 45.8544 27.2422C45.064 28.0325 44.1139 28.4277 43.004 28.4277H33.1161ZM6.68092 46.5893C5.57105 46.5893 4.62093 46.1941 3.83057 45.4037C3.0402 44.6133 2.64502 43.6632 2.64502 42.5534V26.4097C2.64502 25.2999 3.0402 24.3498 3.83057 23.5594C4.62093 22.769 5.57105 22.3738 6.68092 22.3738H30.8963C32.0062 22.3738 32.9563 22.769 33.7467 23.5594C34.5371 24.3498 34.9322 25.2999 34.9322 26.4097V42.5534C34.9322 43.6632 34.5371 44.6133 33.7467 45.4037C32.9563 46.1941 32.0062 46.5893 30.8963 46.5893H6.68092ZM6.68092 42.5534H30.8963V26.4097H6.68092V42.5534Z" fill="#895EF6"/>
</g>
</svg>
