<svg width="59" height="59" viewBox="0 0 59 59" fill="none" xmlns="http://www.w3.org/2000/svg">
<path d="M23.0469 43.3281H10.1406C9.12656 43.3281 8.29688 44.1578 8.29688 45.1719C8.29688 46.1859 9.12656 47.0156 10.1406 47.0156H23.0469C24.0609 47.0156 24.8906 46.1859 24.8906 45.1719C24.8906 44.1578 24.0609 43.3281 23.0469 43.3281Z" fill="#0066FF"/>
<path d="M37.7969 21.2031H10.1406C9.12656 21.2031 8.29688 22.0328 8.29688 23.0469C8.29688 24.0609 9.12656 24.8906 10.1406 24.8906H37.7969C38.8109 24.8906 39.6406 24.0609 39.6406 23.0469C39.6406 22.0328 38.8109 21.2031 37.7969 21.2031Z" fill="#0066FF"/>
<path d="M45.1719 21.2031H43.3281C42.3141 21.2031 41.4844 22.0328 41.4844 23.0469C41.4844 24.0609 42.3141 24.8906 43.3281 24.8906H45.1719C46.1859 24.8906 47.0156 24.0609 47.0156 23.0469C47.0156 22.0328 46.1859 21.2031 45.1719 21.2031Z" fill="#0066FF"/>
<path d="M30.4219 30.4219C30.4219 29.4078 29.5922 28.5781 28.5781 28.5781H17.5156C16.5016 28.5781 15.6719 29.4078 15.6719 30.4219C15.6719 31.4359 16.5016 32.2656 17.5156 32.2656H28.5781C29.5922 32.2656 30.4219 31.4359 30.4219 30.4219Z" fill="#0066FF"/>
<path d="M10.1406 32.2656H11.9844C12.9984 32.2656 13.8281 31.4359 13.8281 30.4219C13.8281 29.4078 12.9984 28.5781 11.9844 28.5781H10.1406C9.12656 28.5781 8.29688 29.4078 8.29688 30.4219C8.29688 31.4359 9.12656 32.2656 10.1406 32.2656Z" fill="#0066FF"/>
<path d="M23.0469 35.9531H10.1406C9.12656 35.9531 8.29688 36.7828 8.29688 37.7969C8.29688 38.8109 9.12656 39.6406 10.1406 39.6406H23.0469C24.0609 39.6406 24.8906 38.8109 24.8906 37.7969C24.8906 36.7828 24.0609 35.9531 23.0469 35.9531Z" fill="#0066FF"/>
<path d="M11.9844 8.29688H11.0625C10.0484 8.29688 9.21875 9.12656 9.21875 10.1406C9.21875 11.1547 10.0484 11.9844 11.0625 11.9844H11.9844C12.9984 11.9844 13.8281 11.1547 13.8281 10.1406C13.8281 9.12656 12.9984 8.29688 11.9844 8.29688Z" fill="#0066FF"/>
<path d="M19.3594 8.29688H18.4375C17.4234 8.29688 16.5938 9.12656 16.5938 10.1406C16.5938 11.1547 17.4234 11.9844 18.4375 11.9844H19.3594C20.3734 11.9844 21.2031 11.1547 21.2031 10.1406C21.2031 9.12656 20.3734 8.29688 19.3594 8.29688Z" fill="#0066FF"/>
<path d="M26.7344 8.29688H25.8125C24.7984 8.29688 23.9688 9.12656 23.9688 10.1406C23.9688 11.1547 24.7984 11.9844 25.8125 11.9844H26.7344C27.7484 11.9844 28.5781 11.1547 28.5781 10.1406C28.5781 9.12656 27.7484 8.29688 26.7344 8.29688Z" fill="#0066FF"/>
<path d="M47.9375 1.84375H7.375C4.33281 1.84375 1.84375 4.33281 1.84375 7.375V47.9375C1.84375 50.9797 4.33281 53.4688 7.375 53.4688H29.7028C30.7169 53.4688 31.5466 52.6391 31.5466 51.625C31.5466 50.6109 30.7169 49.7812 29.7028 49.7812H7.375C6.36094 49.7812 5.53125 48.9516 5.53125 47.9375V18.4375H49.7812V29.7028C49.7812 30.7169 50.6109 31.5466 51.625 31.5466C52.6391 31.5466 53.4688 30.7169 53.4688 29.7028V7.375C53.4688 4.33281 50.9797 1.84375 47.9375 1.84375ZM5.53125 7.375C5.53125 6.36094 6.36094 5.53125 7.375 5.53125H36.875V14.75H5.53125V7.375ZM40.5625 14.75V5.53125H47.9375C48.9516 5.53125 49.7812 6.36094 49.7812 7.375V14.75H40.5625Z" fill="#0066FF"/>
<path d="M44.25 31.3438C37.1331 31.3438 31.3438 37.1331 31.3438 44.25C31.3438 51.3669 37.1331 57.1562 44.25 57.1562C51.3669 57.1562 57.1562 51.3669 57.1562 44.25C57.1562 37.1331 51.3669 31.3438 44.25 31.3438ZM51.0903 51.0903C50.7216 51.4591 50.2606 51.625 49.7812 51.625C49.3019 51.625 48.8409 51.4406 48.4722 51.0903L42.9409 45.5591C42.5906 45.2087 42.4062 44.7478 42.4062 44.25V36.875C42.4062 35.8609 43.2359 35.0312 44.25 35.0312C45.2641 35.0312 46.0938 35.8609 46.0938 36.875V43.4941L51.0903 48.4906C51.8094 49.2097 51.8094 50.3712 51.0903 51.0903Z" fill="#AF47F6"/>
</svg>
