<svg width="209" height="209" viewBox="0 0 209 209" fill="none" xmlns="http://www.w3.org/2000/svg">
<circle cx="104.546" cy="104.94" r="104.038" fill="black"/>
<path d="M55.4021 84.7786C57.56 84.7786 59.484 85.4259 61.1743 86.7206C62.9006 88.0153 64.2493 89.8675 65.2203 92.2771C66.1913 94.6507 66.6768 97.4199 66.6768 100.585C66.6768 103.75 66.1913 106.537 65.2203 108.946C64.2493 111.32 62.9006 113.154 61.1743 114.449C59.484 115.743 57.56 116.391 55.4021 116.391C53.2083 116.391 51.2483 115.743 49.5221 114.449C47.8317 113.154 46.5011 111.32 45.5301 108.946C44.559 106.537 44.0735 103.75 44.0735 100.585C44.0735 97.4199 44.559 94.6507 45.5301 92.2771C46.5011 89.8675 47.8317 88.0153 49.5221 86.7206C51.2483 85.4259 53.2083 84.7786 55.4021 84.7786ZM55.4021 89.8495C53.6039 89.8495 52.1474 90.8025 51.0325 92.7086C49.9536 94.6147 49.4142 97.2401 49.4142 100.585C49.4142 103.929 49.9536 106.555 51.0325 108.461C52.1474 110.331 53.6039 111.266 55.4021 111.266C57.2003 111.266 58.6389 110.331 59.7178 108.461C60.7967 106.555 61.3362 103.929 61.3362 100.585C61.3362 97.2401 60.7967 94.6147 59.7178 92.7086C58.6389 90.8025 57.2003 89.8495 55.4021 89.8495ZM77.6818 98.6966H84.2631V103.39H77.6818V126.209H72.1793V81.5418H77.6818V98.6966ZM120.876 126.263H115.319V81.5418H120.876V126.263ZM97.5713 84.7786C99.7291 84.7786 101.653 85.4259 103.344 86.7206C105.07 88.0153 106.418 89.8675 107.389 92.2771C108.36 94.6507 108.846 97.4199 108.846 100.585C108.846 103.75 108.36 106.537 107.389 108.946C106.418 111.32 105.07 113.154 103.344 114.449C101.653 115.743 99.7291 116.391 97.5713 116.391C95.3775 116.391 93.4175 115.743 91.6912 114.449C89.965 113.154 88.6163 111.32 87.6453 108.946C86.6743 106.537 86.1887 103.75 86.1887 100.585C86.1887 97.4199 86.6743 94.6507 87.6453 92.2771C88.6163 89.8675 89.965 88.0153 91.6912 86.7206C93.4175 85.4259 95.3775 84.7786 97.5713 84.7786ZM97.5713 89.8495C95.7012 89.8495 94.2267 90.8025 93.1478 92.7086C92.0688 94.5787 91.5294 97.2041 91.5294 100.585C91.5294 103.929 92.0688 106.555 93.1478 108.461C94.2267 110.331 95.7012 111.266 97.5713 111.266C99.3695 111.266 100.808 110.331 101.887 108.461C102.966 106.555 103.505 103.929 103.505 100.585C103.505 97.2401 102.966 94.6147 101.887 92.7086C100.808 90.8025 99.3695 89.8495 97.5713 89.8495ZM162.074 114.449H156.518V81.5958H162.074V114.449ZM163.099 125.346H133.159V111.428H138.716V120.814H163.099V125.346ZM151.339 89.9034H147.617V103.066C149.99 102.85 151.824 102.671 153.119 102.527L153.497 106.681C149.613 107.364 145.585 107.795 141.413 107.975C137.241 108.155 132.53 108.245 127.279 108.245L126.74 103.66H131.595V89.9034H127.872V85.4259H151.339V89.9034ZM136.881 103.552C138.644 103.552 140.442 103.498 142.276 103.39V89.9034H136.881V103.552Z" fill="white"/>
</svg>
