<?xml version="1.0" standalone="no"?>
<!DOCTYPE svg PUBLIC "-//W3C//DTD SVG 1.1//EN" "http://www.w3.org/Graphics/SVG/1.1/DTD/svg11.dtd" >
<svg xmlns="http://www.w3.org/2000/svg" xmlns:xlink="http://www.w3.org/1999/xlink" version="1.1">
<metadata>
Created by FontForge 20190801 at Wed Feb 26 14:10:55 2014
 By Jimmy Wärting
Copyright (c) 2013 by Gayane Bagdasaryan, Dmitry Rastvortsev. All rights reserved.
</metadata>
<defs>
<font id="BrutalType-Bold" horiz-adv-x="619" >
  <font-face 
    font-family="Brutal Type"
    font-weight="700"
    font-stretch="normal"
    units-per-em="1000"
    panose-1="2 0 6 3 2 0 0 2 0 4"
    ascent="804"
    descent="-196"
    x-height="524"
    cap-height="700"
    bbox="-52 -261 1114 957"
    underline-thickness="50"
    underline-position="-100"
    stemh="118"
    stemv="130"
    unicode-range="U+0020-FB02"
  />
<missing-glyph horiz-adv-x="292" 
 />
    <glyph glyph-name="fi" unicode="fi" horiz-adv-x="638" 
d="M430 0v411h-210v-411h-130v411h-77v113h77c0 94 55 183 206 183c11 0 26 -1 38 -2v-116h-21c-63 0 -89 -17 -93 -65h340v-524h-130zM430 595v110h130v-110h-130z" />
    <glyph glyph-name="fl" unicode="fl" horiz-adv-x="638" 
d="M90 0v411h-77v113h77c0 94 55 183 206 183c11 0 26 -1 38 -2v-116h-21c-63 0 -89 -17 -93 -65h106v-113h-106v-411h-130zM430 0v705h130v-705h-130z" />
    <glyph glyph-name=".notdef" horiz-adv-x="292" 
 />
    <glyph glyph-name="space" unicode=" " horiz-adv-x="234" 
 />
    <glyph glyph-name="exclam" unicode="!" horiz-adv-x="313" 
d="M92 220v480h130v-480h-130zM92 0v130h130v-130h-130z" />
    <glyph glyph-name="quotedbl" unicode="&#x22;" horiz-adv-x="426" 
d="M76 447l-26 206v52h130v-52l-26 -206h-78zM272 447l-26 206v52h130v-52l-26 -206h-78z" />
    <glyph glyph-name="numbersign" unicode="#" horiz-adv-x="685" 
d="M88 0v47l24 112h-78v118h103l31 146h-88v118h113l34 159h115v-47l-24 -112h129l34 159h116v-47l-24 -112h78v-118h-103l-31 -146h88v-118h-112l-34 -159h-116v47l24 112h-129l-34 -159h-116zM262 277h129l32 146h-130z" />
    <glyph glyph-name="dollar" unicode="$" horiz-adv-x="600" 
d="M43 227h130c0 -96 62 -124 128 -124c68 0 104 36 104 85c0 50 -41 65 -88 86l-81 36c-111 49 -175 90 -175 202c0 106 73 182 176 199v92h130v-95c83 -18 169 -94 169 -229h-130c0 89 -50 118 -114 118c-58 0 -98 -31 -98 -79c0 -53 38 -68 105 -98l66 -29
c99 -45 177 -86 177 -193c0 -101 -53 -184 -175 -209v-107h-130v106c-108 15 -194 94 -194 239z" />
    <glyph glyph-name="percent" unicode="%" horiz-adv-x="792" 
d="M196 449c28 0 44 20 44 45v83c0 25 -16 45 -44 45c-29 0 -44 -21 -44 -45v-83c0 -24 15 -45 44 -45zM196 356c-97 0 -158 52 -158 156v47c0 104 61 156 158 156s158 -52 158 -156v-47c0 -104 -61 -156 -158 -156zM596 78c28 0 44 20 44 45v83c0 24 -16 45 -44 45
c-29 0 -44 -21 -44 -45v-83c0 -24 15 -45 44 -45zM596 -15c-97 0 -158 52 -158 156v47c0 104 61 156 158 156s158 -52 158 -156v-47c0 -104 -61 -156 -158 -156zM146 0v47l409 653h92v-47l-409 -653h-92z" />
    <glyph glyph-name="ampersand" unicode="&#x26;" horiz-adv-x="686" 
d="M53 175c0 66 24 116 104 187l9 8l-14 15c-31 31 -74 75 -74 150c0 102 77 172 188 172c106 0 184 -63 184 -165c0 -63 -37 -105 -81 -144l-27 -25l119 -119c14 39 22 82 22 122h123c0 -69 -18 -145 -54 -213l102 -102v-61h-114l-64 63c-50 -46 -115 -75 -194 -75
c-141 0 -229 69 -229 187zM281 106c43 0 80 16 110 42l-143 141l-10 -9c-40 -36 -55 -64 -55 -97c0 -48 36 -77 98 -77zM243 473l19 -19l27 24c22 20 36 32 36 59c0 33 -27 52 -57 52c-38 0 -60 -24 -60 -54c0 -25 12 -39 35 -62z" />
    <glyph glyph-name="quotesingle" unicode="'" horiz-adv-x="230" 
d="M76 447l-26 206v52h130v-52l-26 -206h-78z" />
    <glyph glyph-name="parenleft" unicode="(" horiz-adv-x="318" 
d="M274 -160c-117 0 -186 72 -186 200v532c0 128 69 200 186 200v-118c-40 0 -59 -37 -59 -75v-546c0 -38 19 -75 59 -75v-118z" />
    <glyph glyph-name="parenright" unicode=")" horiz-adv-x="318" 
d="M44 -160v118c40 0 59 37 59 75v546c0 38 -19 75 -59 75v118c117 0 186 -72 186 -200v-532c0 -128 -69 -200 -186 -200z" />
    <glyph glyph-name="asterisk" unicode="*" horiz-adv-x="456" 
d="M177 333l8 113l-92 -65l-51 90l102 48l-102 48l51 90l92 -65l-8 113h102l-9 -113l94 65l50 -90l-103 -48l103 -48l-50 -90l-94 65l9 -113h-102z" />
    <glyph glyph-name="plus" unicode="+" horiz-adv-x="572" 
d="M227 92v167h-165v108h165v167h118v-167h165v-108h-165v-167h-118z" />
    <glyph glyph-name="comma" unicode="," horiz-adv-x="260" 
d="M32 -119l50 262h128v-55l-86 -207h-92z" />
    <glyph glyph-name="hyphen" unicode="-" horiz-adv-x="444" 
d="M58 254v118h328v-118h-328z" />
    <glyph glyph-name="period" unicode="." horiz-adv-x="279" 
d="M68 0v143h143v-143h-143z" />
    <glyph glyph-name="slash" unicode="/" horiz-adv-x="459" 
d="M38 -100v47l277 825h106v-47l-277 -825h-106z" />
    <glyph glyph-name="zero" unicode="0" horiz-adv-x="615" 
d="M307 103c75 0 110 50 110 114v266c0 64 -35 114 -110 114c-74 0 -109 -50 -109 -114v-266c0 -64 35 -114 109 -114zM307 -15c-146 0 -239 82 -239 239v252c0 157 93 239 239 239c147 0 240 -82 240 -239v-252c0 -157 -93 -239 -240 -239z" />
    <glyph glyph-name="one" unicode="1" horiz-adv-x="330" 
d="M112 0v524h-69v69l166 107h33v-700h-130z" />
    <glyph glyph-name="two" unicode="2" horiz-adv-x="562" 
d="M46 0v106l211 213c93 95 116 121 116 177c0 50 -25 101 -97 101c-79 0 -103 -57 -104 -124h-124c0 152 95 242 228 242c153 0 227 -104 227 -214c0 -103 -50 -160 -148 -255l-133 -128h280v-118h-456z" />
    <glyph glyph-name="three" unicode="3" horiz-adv-x="591" 
d="M288 -15c-147 0 -240 89 -242 245h125c2 -72 42 -127 121 -127c82 0 111 49 111 109c0 61 -42 91 -114 91h-44v118h35c62 0 104 25 104 88c0 38 -19 88 -93 88c-76 0 -105 -52 -107 -119h-124c0 152 89 237 230 237c144 0 221 -86 221 -194c0 -73 -32 -118 -82 -153
c56 -23 104 -86 104 -167c0 -133 -89 -216 -245 -216z" />
    <glyph glyph-name="four" unicode="4" horiz-adv-x="557" 
d="M330 0v129h-302v100l232 471h114v-47l-199 -406h155v164h130v-164h79v-118h-79v-129h-130z" />
    <glyph glyph-name="five" unicode="5" horiz-adv-x="591" 
d="M291 -15c-134 0 -227 76 -241 211h127c8 -53 51 -93 117 -93c76 0 109 54 109 137c0 78 -42 130 -106 130c-56 0 -85 -29 -100 -53h-125l37 383h385v-118h-284l-14 -138c37 21 66 32 125 32c107 0 212 -62 212 -236c0 -168 -99 -255 -242 -255z" />
    <glyph glyph-name="six" unicode="6" horiz-adv-x="588" 
d="M295 -15c-148 0 -245 89 -245 233c0 64 21 125 68 200l179 282h119v-47l-136 -209c18 3 35 5 59 5c110 0 201 -73 201 -217c0 -158 -97 -247 -245 -247zM295 103c76 0 115 48 115 121s-36 120 -116 120c-84 0 -114 -53 -114 -120c0 -73 39 -121 115 -121z" />
    <glyph glyph-name="seven" unicode="7" horiz-adv-x="544" 
d="M153 0v47l207 535h-204v-85h-120v203h458v-110l-224 -590h-117z" />
    <glyph glyph-name="eight" unicode="8" horiz-adv-x="618" 
d="M309 -15c-157 0 -251 81 -251 213c0 79 49 146 105 169c-50 35 -87 76 -87 153c0 105 82 195 233 195s233 -90 233 -195c0 -77 -36 -118 -86 -153c56 -23 104 -90 104 -169c0 -132 -94 -213 -251 -213zM309 101c83 0 120 51 120 109c0 66 -49 105 -120 105
s-120 -39 -120 -105c0 -58 37 -109 120 -109zM309 414c58 0 104 30 104 96c0 51 -31 92 -104 92c-72 0 -104 -41 -104 -92c0 -66 46 -96 104 -96z" />
    <glyph glyph-name="nine" unicode="9" horiz-adv-x="588" 
d="M293 715c148 0 245 -89 245 -233c0 -64 -21 -125 -68 -200l-179 -282h-119v47l136 209c-18 -3 -35 -5 -59 -5c-110 0 -201 73 -201 217c0 158 97 247 245 247zM293 597c-76 0 -115 -48 -115 -121s36 -120 116 -120c84 0 114 53 114 120c0 73 -39 121 -115 121z" />
    <glyph glyph-name="colon" unicode=":" horiz-adv-x="279" 
d="M68 0v143h143v-143h-143zM68 381v143h143v-143h-143z" />
    <glyph glyph-name="semicolon" unicode=";" horiz-adv-x="278" 
d="M32 -119l50 262h128v-55l-86 -207h-92zM67 381v143h143v-143h-143z" />
    <glyph glyph-name="less" unicode="&#x3c;" horiz-adv-x="532" 
d="M408 80l-346 180v106l346 179h62v-92l-279 -140l279 -140v-93h-62z" />
    <glyph glyph-name="equal" unicode="=" horiz-adv-x="573" 
d="M62 151v108h449v-108h-449zM62 367v108h449v-108h-449z" />
    <glyph glyph-name="greater" unicode="&#x3e;" horiz-adv-x="532" 
d="M62 80v93l280 140l-280 140v92h62l346 -179v-106l-346 -180h-62z" />
    <glyph glyph-name="question" unicode="?" horiz-adv-x="525" 
d="M184 220v115l100 71c45 32 73 54 73 106c0 48 -33 85 -94 85c-71 0 -111 -47 -111 -119h-124c0 153 103 237 236 237c150 0 223 -97 223 -200c0 -111 -81 -162 -142 -203l-31 -21v-71h-130zM184 0v130h130v-130h-130z" />
    <glyph glyph-name="at" unicode="@" horiz-adv-x="992" 
d="M570 208v147c-20 20 -49 42 -89 42c-33 0 -67 -22 -67 -64v-102c0 -42 34 -64 67 -64c40 0 69 22 89 41zM587 114c-30 -27 -67 -51 -130 -51c-85 0 -155 49 -155 154v131c0 105 70 153 155 153c63 0 100 -23 130 -51l32 42h63v-271c0 -36 17 -60 54 -60
c43 0 78 38 78 161c0 186 -142 297 -309 297c-190 0 -326 -131 -326 -336c0 -206 136 -335 326 -335h25v-99h-25c-258 0 -437 179 -437 433c0 259 179 433 437 433c234 0 419 -151 419 -393c0 -158 -75 -259 -204 -259c-63 0 -104 18 -133 51z" />
    <glyph glyph-name="A" unicode="A" horiz-adv-x="660" 
d="M18 0v47l242 653h139l243 -653v-47h-140l-56 164h-239l-58 -164h-131zM249 282h154l-76 228z" />
    <glyph glyph-name="B" unicode="B" horiz-adv-x="667" 
d="M88 0v700h296c127 0 207 -65 207 -193c0 -68 -26 -115 -78 -144c58 -25 106 -69 106 -166c0 -132 -79 -197 -207 -197h-324zM230 409h146c37 0 72 25 72 84c0 58 -35 83 -72 83h-146v-167zM230 124h175c37 0 72 25 72 84c0 58 -35 83 -72 83h-175v-167z" />
    <glyph glyph-name="C" unicode="C" horiz-adv-x="661" 
d="M343 -15c-178 0 -275 93 -275 252v226c0 159 97 252 275 252c138 0 260 -72 260 -245v-10h-142v10c0 83 -62 115 -127 115c-84 0 -124 -43 -124 -112v-246c0 -69 40 -112 124 -112c65 0 127 30 127 115v10h142v-10c0 -173 -122 -245 -260 -245z" />
    <glyph glyph-name="D" unicode="D" horiz-adv-x="689" 
d="M230 124h112c91 0 137 53 137 113v226c0 60 -46 113 -137 113h-112v-452zM88 0v700h254c171 0 279 -86 279 -241v-218c0 -155 -108 -241 -279 -241h-254z" />
    <glyph glyph-name="E" unicode="E" horiz-adv-x="594" 
d="M88 0v700h456v-124h-314v-166h268v-118h-268v-168h316v-124h-458z" />
    <glyph glyph-name="F" unicode="F" horiz-adv-x="590" 
d="M88 0v700h464v-124h-322v-175h274v-118h-274v-283h-142z" />
    <glyph glyph-name="G" unicode="G" horiz-adv-x="691" 
d="M324 -15c-161 0 -256 94 -256 249v229c0 159 103 252 279 252c151 0 266 -83 266 -243h-142c0 71 -54 113 -132 113c-87 0 -129 -45 -129 -116v-234c0 -76 45 -120 127 -120c54 0 107 27 134 69v76h-124v118h266v-378h-76l-39 58c-43 -48 -104 -73 -174 -73z" />
    <glyph glyph-name="H" unicode="H" horiz-adv-x="716" 
d="M88 0v700h142v-288h256v288h142v-700h-142v288h-256v-288h-142z" />
    <glyph glyph-name="I" unicode="I" horiz-adv-x="318" 
d="M88 0v700h142v-700h-142z" />
    <glyph glyph-name="J" unicode="J" horiz-adv-x="584" 
d="M263 -15c-138 0 -245 54 -245 224v31h142v-31c0 -67 40 -94 103 -94c52 0 102 25 102 99v486h142v-491c0 -164 -111 -224 -244 -224z" />
    <glyph glyph-name="K" unicode="K" horiz-adv-x="637" 
d="M88 0v700h142v-288h74l169 288h132v-47l-177 -295l192 -311v-47h-141l-175 288h-74v-288h-142z" />
    <glyph glyph-name="L" unicode="L" horiz-adv-x="568" 
d="M88 0v700h142v-576h320v-124h-462z" />
    <glyph glyph-name="M" unicode="M" horiz-adv-x="814" 
d="M451 218h-88l-138 230v-448h-137v700h137l184 -309l184 309h133v-700h-137v448z" />
    <glyph glyph-name="N" unicode="N" horiz-adv-x="716" 
d="M88 0v700h130l268 -436v436h142v-700h-130l-268 436v-436h-142z" />
    <glyph glyph-name="O" unicode="O" horiz-adv-x="694" 
d="M347 115c95 0 137 56 137 116v238c0 60 -42 116 -137 116s-137 -56 -137 -116v-238c0 -60 42 -116 137 -116zM347 -15c-170 0 -279 93 -279 253v224c0 160 109 253 279 253c171 0 279 -93 279 -253v-224c0 -160 -108 -253 -279 -253z" />
    <glyph glyph-name="P" unicode="P" horiz-adv-x="645" 
d="M88 0v700h313c126 0 201 -86 201 -221c0 -134 -75 -220 -201 -220h-171v-259h-142zM230 383h145c42 0 83 29 83 97c0 67 -41 96 -83 96h-145v-193z" />
    <glyph glyph-name="Q" unicode="Q" horiz-adv-x="694" 
d="M347 -15c-170 0 -279 93 -279 253v224c0 160 109 253 279 253c171 0 279 -93 279 -253v-224c0 -88 -30 -146 -79 -190l78 -119v-48h-137l-72 111c-17 -4 -50 -7 -69 -7zM347 115c95 0 137 56 137 116v238c0 60 -42 116 -137 116s-137 -56 -137 -116v-238
c0 -60 42 -116 137 -116z" />
    <glyph glyph-name="R" unicode="R" horiz-adv-x="676" 
d="M88 0v700h303c143 0 217 -82 217 -218c0 -99 -46 -168 -115 -202l129 -233v-47h-138l-146 263h-108v-263h-142zM230 383h135c62 0 98 26 98 97c0 70 -36 96 -98 96h-135v-193z" />
    <glyph glyph-name="S" unicode="S" horiz-adv-x="648" 
d="M317 -15c-150 0 -274 80 -274 242h142c0 -91 82 -112 140 -112c75 0 115 32 115 76c0 50 -57 64 -163 104l-29 11c-89 34 -187 79 -187 198c0 127 98 211 259 211c151 0 264 -67 264 -236h-142c0 80 -60 106 -124 106c-70 0 -114 -28 -114 -73c0 -52 51 -64 118 -88
l28 -10c125 -45 240 -88 240 -216c0 -122 -92 -213 -273 -213z" />
    <glyph glyph-name="T" unicode="T" horiz-adv-x="571" 
d="M215 0v576h-197v124h535v-124h-196v-576h-142z" />
    <glyph glyph-name="U" unicode="U" horiz-adv-x="696" 
d="M476 700h143v-470c0 -155 -105 -245 -270 -245s-271 90 -271 245v470h142v-476c0 -56 39 -109 129 -109c89 0 127 53 127 109v476z" />
    <glyph glyph-name="V" unicode="V" horiz-adv-x="661" 
d="M261 0l-243 653v47h136l179 -510l175 510h135v-47l-242 -653h-140z" />
    <glyph glyph-name="W" unicode="W" horiz-adv-x="842" 
d="M179 0l-141 653v47h138l97 -473l105 305h89l108 -308l94 476h135v-47l-141 -653h-132l-110 314l-110 -314h-132z" />
    <glyph glyph-name="X" unicode="X" horiz-adv-x="660" 
d="M28 0v47l214 317l-194 289v47h145l137 -225l146 225h136v-47l-196 -288l216 -318v-47h-144l-161 250l-163 -250h-136z" />
    <glyph glyph-name="Y" unicode="Y" horiz-adv-x="618" 
d="M238 0v277l-230 376v47h140l162 -290l169 290h131v-47l-230 -370v-283h-142z" />
    <glyph glyph-name="Z" unicode="Z" horiz-adv-x="592" 
d="M38 0v123l342 453h-327v124h490v-122l-343 -454h354v-124h-516z" />
    <glyph glyph-name="bracketleft" unicode="[" horiz-adv-x="340" 
d="M88 -160v932h204v-118h-77v-696h77v-118h-204z" />
    <glyph glyph-name="backslash" unicode="\" horiz-adv-x="459" 
d="M421 -53v-47h-106l-277 825v47h106z" />
    <glyph glyph-name="bracketright" unicode="]" horiz-adv-x="340" 
d="M252 772v-932h-204v118h77v696h-77v118h204z" />
    <glyph glyph-name="asciicircum" unicode="^" horiz-adv-x="537" 
d="M62 387v47l151 271h109l153 -271v-47h-111l-97 171l-94 -171h-111z" />
    <glyph glyph-name="underscore" unicode="_" horiz-adv-x="568" 
d="M-1 -138v108h570v-108h-570z" />
    <glyph glyph-name="grave" unicode="`" horiz-adv-x="304" 
d="M141 590l-83 95v45h117l71 -140h-105z" />
    <glyph glyph-name="a" unicode="a" horiz-adv-x="566" 
d="M219 -12c-94 0 -176 53 -176 156c0 108 70 170 212 170h108v33c0 45 -26 71 -84 71c-59 0 -84 -26 -84 -60h-127c0 103 67 178 211 178s214 -75 214 -180v-356h-75l-38 51c-38 -35 -83 -63 -161 -63zM246 106c50 0 86 17 117 51v58h-108c-68 0 -82 -32 -82 -54
c0 -35 26 -55 73 -55z" />
    <glyph glyph-name="b" unicode="b" horiz-adv-x="596" 
d="M78 0v705h130v-218c22 19 66 49 139 49c102 0 186 -61 186 -192v-164c0 -131 -84 -192 -186 -192c-76 0 -120 30 -156 64l-38 -52h-75zM208 363v-202c26 -26 61 -55 112 -55c40 0 83 29 83 84v144c0 55 -43 84 -83 84c-51 0 -86 -29 -112 -55z" />
    <glyph glyph-name="c" unicode="c" horiz-adv-x="543" 
d="M277 -12c-134 0 -222 74 -222 194v160c0 120 88 194 222 194c130 0 215 -71 215 -196v-6h-130v6c0 47 -30 78 -85 78c-64 0 -92 -30 -92 -74v-164c0 -44 28 -74 92 -74c55 0 85 31 85 77v10h130v-7c0 -123 -89 -198 -215 -198z" />
    <glyph glyph-name="d" unicode="d" horiz-adv-x="596" 
d="M518 705v-705h-75l-38 52c-36 -34 -80 -64 -156 -64c-102 0 -186 61 -186 192v164c0 131 84 192 186 192c73 0 117 -30 139 -49v218h130zM388 161v202c-26 26 -61 55 -112 55c-40 0 -83 -29 -83 -84v-144c0 -55 43 -84 83 -84c51 0 86 29 112 55z" />
    <glyph glyph-name="e" unicode="e" horiz-adv-x="556" 
d="M283 -12c-137 0 -228 69 -228 192v162c0 120 91 194 228 194c129 0 218 -69 218 -192v-125h-316v-37c0 -44 31 -76 98 -76c50 0 78 20 87 53h130c-10 -107 -89 -171 -217 -171zM185 318h186v26c0 45 -33 74 -93 74c-62 0 -93 -30 -93 -74v-26z" />
    <glyph glyph-name="f" unicode="f" horiz-adv-x="352" 
d="M90 0v411h-77v113h77c0 94 55 183 206 183c11 0 26 -1 38 -2v-116h-21c-63 0 -89 -17 -93 -65h106v-113h-106v-411h-130z" />
    <glyph glyph-name="g" unicode="g" horiz-adv-x="596" 
d="M518 524v-492c0 -137 -92 -204 -224 -204c-133 0 -218 64 -218 171v4h130v-3c0 -23 21 -54 87 -54c68 0 95 36 95 86v60c-22 -19 -66 -49 -139 -49c-102 0 -186 61 -186 192v109c0 131 84 192 186 192c76 0 120 -30 156 -64l38 52h75zM388 216v147c-26 26 -61 55 -112 55
c-40 0 -83 -29 -83 -84v-89c0 -55 43 -84 83 -84c51 0 86 29 112 55z" />
    <glyph glyph-name="h" unicode="h" horiz-adv-x="601" 
d="M78 0v705h130v-218c32 26 76 49 138 49c113 0 182 -76 182 -203v-333h-130v325c0 64 -36 93 -81 93c-51 0 -93 -37 -109 -55v-363h-130z" />
    <glyph glyph-name="i" unicode="i" horiz-adv-x="286" 
d="M78 0v524h130v-524h-130zM78 595v110h130v-110h-130z" />
    <glyph glyph-name="j" unicode="j" horiz-adv-x="287" 
d="M79 524h130v-504c0 -88 -45 -192 -179 -192c-12 0 -23 0 -37 2v116h22c34 0 64 15 64 76v502zM79 595v110h130v-110h-130z" />
    <glyph glyph-name="k" unicode="k" horiz-adv-x="552" 
d="M78 0v705h130v-380h55l127 199h112v-61l-122 -191l135 -211v-61h-116l-136 212h-55v-212h-130z" />
    <glyph glyph-name="l" unicode="l" horiz-adv-x="286" 
d="M78 0v705h130v-705h-130z" />
    <glyph glyph-name="m" unicode="m" horiz-adv-x="879" 
d="M507 360v-360h-130v335c0 57 -32 83 -72 83c-45 0 -76 -29 -97 -58v-360h-130v524h75l38 -52c31 32 77 64 145 64c65 0 115 -27 143 -75c33 37 83 75 156 75c114 0 171 -80 171 -190v-346h-130v335c0 57 -32 83 -72 83c-45 0 -76 -29 -97 -58z" />
    <glyph glyph-name="n" unicode="n" horiz-adv-x="601" 
d="M78 0v524h75l38 -52c33 32 82 64 155 64c113 0 182 -76 182 -203v-333h-130v325c0 64 -36 93 -81 93c-51 0 -93 -37 -109 -55v-363h-130z" />
    <glyph glyph-name="o" unicode="o" horiz-adv-x="565" 
d="M283 106c65 0 97 37 97 82v148c0 45 -32 82 -97 82c-67 0 -98 -38 -98 -82v-148c0 -44 31 -82 98 -82zM283 -12c-152 0 -228 85 -228 194v160c0 109 76 194 228 194c151 0 227 -85 227 -194v-160c0 -109 -76 -194 -227 -194z" />
    <glyph glyph-name="p" unicode="p" horiz-adv-x="596" 
d="M78 -160v684h75l38 -52c36 34 80 64 156 64c102 0 186 -61 186 -192v-164c0 -131 -84 -192 -186 -192c-73 0 -117 30 -139 49v-197h-130zM208 363v-202c26 -26 61 -55 112 -55c40 0 83 29 83 84v144c0 55 -43 84 -83 84c-51 0 -86 -29 -112 -55z" />
    <glyph glyph-name="q" unicode="q" horiz-adv-x="596" 
d="M518 524v-684h-130v197c-22 -19 -66 -49 -139 -49c-102 0 -186 61 -186 192v164c0 131 84 192 186 192c76 0 120 -30 156 -64l38 52h75zM388 161v202c-26 26 -61 55 -112 55c-40 0 -83 -29 -83 -84v-144c0 -55 43 -84 83 -84c51 0 86 29 112 55z" />
    <glyph glyph-name="r" unicode="r" horiz-adv-x="382" 
d="M78 0v524h75l38 -52c25 29 67 64 136 64h27v-125h-27c-55 0 -90 -13 -119 -48v-363h-130z" />
    <glyph glyph-name="s" unicode="s" horiz-adv-x="559" 
d="M284 -12c-138 0 -231 74 -235 192h129c6 -47 52 -74 122 -74c47 0 77 18 77 44c0 19 -10 30 -35 36l-145 37c-66 17 -137 51 -137 145c0 103 79 168 213 168s217 -65 221 -180h-130c-3 41 -40 62 -101 62c-57 0 -77 -21 -77 -42c0 -20 16 -30 45 -37l149 -37
c69 -17 123 -55 123 -142c0 -107 -87 -172 -219 -172z" />
    <glyph glyph-name="t" unicode="t" horiz-adv-x="387" 
d="M287 0c-155 0 -192 99 -192 199v212h-77v113h77v109h130v-109h119v-113h-119v-212c0 -68 29 -86 76 -86h43v-113h-57z" />
    <glyph glyph-name="u" unicode="u" horiz-adv-x="597" 
d="M519 524v-524h-75l-38 51c-33 -31 -81 -63 -153 -63c-112 0 -180 75 -180 201v335h130v-327c0 -63 35 -91 79 -91c50 0 91 36 107 54v364h130z" />
    <glyph glyph-name="v" unicode="v" horiz-adv-x="514" 
d="M198 0l-180 463v61h121l123 -346l116 346h118v-61l-180 -463h-118z" />
    <glyph glyph-name="w" unicode="w" horiz-adv-x="724" 
d="M152 0l-109 463v61h118l74 -346l84 254h87l85 -254l73 346h117v-61l-110 -463h-122l-86 228l-86 -228h-125z" />
    <glyph glyph-name="x" unicode="x" horiz-adv-x="529" 
d="M38 0v61l145 201l-143 201v61h117l107 -163l109 163h110v-61l-139 -196l148 -206v-61h-116l-114 174l-113 -174h-111z" />
    <glyph glyph-name="y" unicode="y" horiz-adv-x="515" 
d="M149 -160v47l49 113l-180 463v61h120l124 -347l117 347h118v-61l-242 -623h-106z" />
    <glyph glyph-name="z" unicode="z" horiz-adv-x="533" 
d="M48 0v113l256 298h-249v113h405v-113l-259 -298h273v-113h-426z" />
    <glyph glyph-name="braceleft" unicode="{" horiz-adv-x="343" 
d="M295 -160c-117 0 -186 64 -186 192v142c0 55 -18 79 -56 79h-25v118h25c40 0 56 28 56 79v129c0 128 69 193 186 193v-118c-40 0 -59 -37 -59 -75v-164c0 -60 -38 -89 -64 -103c26 -14 64 -43 64 -103v-176c0 -38 19 -75 59 -75v-118z" />
    <glyph glyph-name="bar" unicode="|" horiz-adv-x="303" 
d="M88 -100v872h127v-872h-127z" />
    <glyph glyph-name="braceright" unicode="}" horiz-adv-x="339" 
d="M48 -160v118c40 0 59 37 59 75v176c0 60 38 89 64 103c-26 14 -64 43 -64 103v164c0 38 -19 75 -59 75v118c117 0 186 -65 186 -193v-129c0 -51 16 -79 56 -79h25v-118h-25c-38 0 -56 -24 -56 -79v-142c0 -128 -69 -192 -186 -192z" />
    <glyph glyph-name="asciitilde" unicode="~" horiz-adv-x="499" 
d="M368 392l88 -51c-30 -65 -71 -116 -135 -116c-24 0 -50 11 -70 24l-27 17c-14 9 -24 15 -39 15c-18 0 -31 -11 -53 -49l-88 51c30 65 71 116 135 116c24 0 50 -11 70 -24l27 -17c14 -9 23 -15 39 -15c18 0 31 11 53 49z" />
    <glyph glyph-name="nbspace" unicode="&#xa0;" horiz-adv-x="234" 
 />
    <glyph glyph-name="exclamdown" unicode="&#xa1;" horiz-adv-x="313" 
d="M92 -160v464h130v-464h-130zM92 394v130h130v-130h-130z" />
    <glyph glyph-name="cent" unicode="&#xa2;" horiz-adv-x="550" 
d="M229 0v76c-105 18 -174 86 -174 191v159c0 104 69 173 174 191v83h94v-82c106 -14 176 -83 176 -193v-7h-123v10c0 37 -22 65 -62 74v-311c35 5 62 37 62 77v10h123v-8c0 -109 -73 -180 -176 -195v-75h-94zM237 191v311c-39 -7 -62 -36 -62 -70v-171c0 -34 23 -63 62 -70
z" />
    <glyph glyph-name="sterling" unicode="&#xa3;" horiz-adv-x="581" 
d="M38 0v118h67v176h-67v118h67v109c0 120 87 194 221 194c130 0 217 -71 217 -208v-34h-130v34c0 59 -31 90 -89 90c-64 0 -89 -36 -89 -82v-103h129v-118h-129v-176h308v-118h-505z" />
    <glyph glyph-name="yen" unicode="&#xa5;" horiz-adv-x="577" 
d="M223 0v96h-162v103h162v81h-162v103h114l-167 270v47h119l162 -276l163 276h117v-47l-168 -270h115v-103h-163v-81h163v-103h-163v-96h-130z" />
    <glyph glyph-name="brokenbar" unicode="&#xa6;" horiz-adv-x="303" 
d="M88 -100v350h127v-350h-127zM88 442v330h127v-330h-127z" />
    <glyph glyph-name="section" unicode="&#xa7;" horiz-adv-x="593" 
d="M48 28h125c0 -67 73 -87 125 -87c63 0 100 22 100 56c0 41 -42 53 -118 79l-26 9c-120 42 -189 89 -189 184c0 63 32 106 69 145c-47 39 -64 70 -64 125c0 96 84 164 220 164s237 -54 237 -195h-124c0 63 -69 82 -118 82c-59 0 -93 -21 -93 -53c0 -38 40 -50 112 -75
l40 -12c120 -40 189 -90 189 -186c0 -63 -29 -106 -66 -146c45 -38 60 -69 60 -123c0 -94 -83 -167 -236 -167c-130 0 -243 64 -243 200zM376 166c23 30 31 55 31 81c0 44 -48 76 -99 93l-79 27c-23 -29 -35 -53 -35 -80c0 -43 48 -74 102 -93z" />
    <glyph glyph-name="dieresis" unicode="&#xa8;" horiz-adv-x="461" 
d="M64 595v110h130v-110h-130zM267 595v110h130v-110h-130z" />
    <glyph glyph-name="copyright" unicode="&#xa9;" horiz-adv-x="840" 
d="M420 -15c-203 0 -360 159 -360 365s157 365 360 365s360 -159 360 -365s-157 -365 -360 -365zM420 54c160 0 284 128 284 296s-124 296 -284 296s-284 -128 -284 -296s124 -296 284 -296zM419 140c-104 0 -173 57 -173 149v123c0 92 69 149 173 149
c102 0 168 -55 168 -151v-4h-102v4c0 36 -23 60 -66 60c-50 0 -72 -23 -72 -57v-126c0 -34 22 -57 72 -57c43 0 66 24 66 60v7h102v-5c0 -95 -70 -152 -168 -152z" />
    <glyph glyph-name="ordfeminine" unicode="&#xaa;" horiz-adv-x="381" 
d="M148 353c-69 0 -118 32 -118 103c0 70 46 102 147 102h52v21c0 26 -15 38 -43 38s-42 -15 -42 -40h-98c0 74 38 128 142 128c103 0 143 -52 143 -122v-225h-55l-24 31c-23 -21 -58 -36 -104 -36zM169 430c22 0 45 10 60 28v37h-52c-36 0 -44 -18 -44 -32
c0 -18 14 -33 36 -33z" />
    <glyph glyph-name="guillemotleft" unicode="&#xab;" horiz-adv-x="549" 
d="M164 103l-128 211l128 210h112v-37l-104 -173l104 -174v-37h-112zM377 103l-128 211l128 210h112v-37l-104 -173l104 -174v-37h-112z" />
    <glyph glyph-name="logicalnot" unicode="&#xac;" horiz-adv-x="564" 
d="M390 195v172h-332v108h448v-280h-116z" />
    <glyph glyph-name="uni00AD" unicode="&#xad;" horiz-adv-x="444" 
d="M58 254v118h328v-118h-328z" />
    <glyph glyph-name="registered" unicode="&#xae;" horiz-adv-x="410" 
d="M138 456v176h74c41 0 66 -20 66 -54c0 -33 -15 -49 -37 -57l37 -51v-14h-42l-40 58h-16v-58h-42zM180 551h33c12 0 23 6 23 22c0 15 -11 19 -23 19h-33v-41zM205 371c-93 0 -167 74 -167 172s74 172 167 172s167 -74 167 -172s-74 -172 -167 -172zM205 409
c71 0 127 57 127 134s-56 134 -127 134s-127 -57 -127 -134s56 -134 127 -134z" />
    <glyph glyph-name="macron" unicode="&#xaf;" horiz-adv-x="422" 
d="M50 604v96h322v-96h-322z" />
    <glyph glyph-name="degree" unicode="&#xb0;" horiz-adv-x="392" 
d="M196 449c28 0 44 20 44 45v83c0 25 -16 45 -44 45c-29 0 -44 -21 -44 -45v-83c0 -24 15 -45 44 -45zM196 356c-97 0 -158 52 -158 156v47c0 104 61 156 158 156s158 -52 158 -156v-47c0 -104 -61 -156 -158 -156z" />
    <glyph glyph-name="plusminus" unicode="&#xb1;" horiz-adv-x="572" 
d="M227 190v154h-165v108h165v155h118v-155h165v-108h-165v-154h-118zM62 0v109h448v-109h-448z" />
    <glyph glyph-name="twosuperior" unicode="&#xb2;" horiz-adv-x="313" 
d="M25 358v79l109 84c33 27 43 40 43 57c0 15 -12 24 -29 24c-16 0 -31 -10 -31 -26h-97c0 83 59 129 133 129c76 0 128 -49 128 -111c0 -55 -30 -84 -68 -116l-45 -34h115v-86h-258z" />
    <glyph glyph-name="threesuperior" unicode="&#xb3;" horiz-adv-x="321" 
d="M161 353c-85 0 -141 53 -141 128h87c0 -23 20 -41 50 -41c29 0 39 12 39 28c0 19 -16 25 -38 25h-41v69h41c20 0 32 11 32 29c0 16 -13 28 -35 28c-26 0 -42 -16 -42 -45h-87c0 84 52 131 132 131c81 0 127 -44 127 -99c0 -31 -17 -55 -38 -67c27 -11 47 -40 47 -74
c0 -64 -49 -112 -133 -112z" />
    <glyph glyph-name="acute" unicode="&#xb4;" horiz-adv-x="304" 
d="M58 590l71 140h117v-45l-84 -95h-104z" />
    <glyph glyph-name="mu" unicode="&#xb5;" horiz-adv-x="602" 
d="M524 524v-524h-75l-38 51c-33 -31 -81 -63 -148 -63c-20 0 -41 4 -55 12v-160h-130v684h130v-332c0 -59 36 -86 79 -86c50 0 91 36 107 54v364h130z" />
    <glyph glyph-name="paragraph" unicode="&#xb6;" horiz-adv-x="635" 
d="M213 -87v455c-108 0 -175 58 -175 162v8c0 106 67 162 175 162h334v-787h-124v669h-86v-669h-124z" />
    <glyph glyph-name="periodcentered" unicode="&#xb7;" horiz-adv-x="278" 
d="M67 243v143h143v-143h-143z" />
    <glyph glyph-name="cedilla" unicode="&#xb8;" horiz-adv-x="303" 
d="M64 -160v45l80 115h104l-67 -160h-117z" />
    <glyph glyph-name="onesuperior" unicode="&#xb9;" horiz-adv-x="258" 
d="M94 358v194h-64v57l133 91h35v-342h-104z" />
    <glyph glyph-name="ordmasculine" unicode="&#xba;" horiz-adv-x="391" 
d="M196 449c33 0 54 26 54 56v48c0 30 -21 56 -54 56c-34 0 -55 -26 -55 -56v-48c0 -30 21 -56 55 -56zM196 353c-103 0 -157 55 -157 164v24c0 109 54 164 157 164s156 -55 156 -164v-24c0 -109 -53 -164 -156 -164z" />
    <glyph glyph-name="guillemotright" unicode="&#xbb;" horiz-adv-x="549" 
d="M300 314l-128 -211h-112v37l104 174l-104 173v37h112zM513 314l-128 -211h-112v37l104 174l-104 173v37h112z" />
    <glyph glyph-name="onequarter" unicode="&#xbc;" horiz-adv-x="747" 
d="M86 0v47l409 653h92v-47l-409 -653h-92zM94 358v194h-64v57l133 91h35v-342h-104zM536 342h71v-53l-97 -151h69v61h97v-61h41v-83h-41v-55h-97v55h-174v81z" />
    <glyph glyph-name="onehalf" unicode="&#xbd;" horiz-adv-x="738" 
d="M86 0v47l409 653h92v-47l-409 -653h-92zM94 358v194h-64v57l133 91h35v-342h-104zM450 0v79l109 84c33 27 43 40 43 57c0 15 -12 24 -29 24c-16 0 -31 -10 -31 -26h-97c0 83 59 129 133 129c76 0 128 -49 128 -111c0 -55 -30 -84 -68 -116l-45 -34h115v-86h-258z" />
    <glyph glyph-name="threequarters" unicode="&#xbe;" horiz-adv-x="787" 
d="M161 353c-85 0 -141 53 -141 128h87c0 -23 20 -41 50 -41c29 0 39 12 39 28c0 19 -16 25 -38 25h-41v69h41c20 0 32 11 32 29c0 16 -13 28 -35 28c-26 0 -42 -16 -42 -45h-87c0 84 52 131 132 131c81 0 127 -44 127 -99c0 -31 -17 -55 -38 -67c27 -11 47 -40 47 -74
c0 -64 -49 -112 -133 -112zM576 342h71v-53l-97 -151h69v61h97v-61h41v-83h-41v-55h-97v55h-174v81zM126 0v47l409 653h92v-47l-409 -653h-92z" />
    <glyph glyph-name="questiondown" unicode="&#xbf;" horiz-adv-x="525" 
d="M329 304v-104l-100 -68c-45 -31 -73 -53 -73 -104c0 -46 33 -82 94 -82c71 0 111 47 111 119h124c0 -153 -103 -237 -236 -237c-150 0 -223 95 -223 198c0 111 79 160 142 199l31 19v60h130zM199 394v130h130v-130h-130z" />
    <glyph glyph-name="Agrave" unicode="&#xc0;" horiz-adv-x="660" 
d="M18 0v47l242 653h139l243 -653v-47h-140l-56 164h-239l-58 -164h-131zM249 282h154l-76 228zM270 762l-89 102v49h126l76 -151h-113z" />
    <glyph glyph-name="Aacute" unicode="&#xc1;" horiz-adv-x="660" 
d="M18 0v47l242 653h139l243 -653v-47h-140l-56 164h-239l-58 -164h-131zM249 282h154l-76 228zM282 762l76 151h126v-49l-90 -102h-112z" />
    <glyph glyph-name="Acircumflex" unicode="&#xc2;" horiz-adv-x="660" 
d="M18 0v47l242 653h139l243 -653v-47h-140l-56 164h-239l-58 -164h-131zM249 282h154l-76 228zM173 762v44l101 107h110l102 -107v-44h-106l-51 58l-52 -58h-104z" />
    <glyph glyph-name="Atilde" unicode="&#xc3;" horiz-adv-x="660" 
d="M18 0v47l242 653h139l243 -653v-47h-140l-56 164h-239l-58 -164h-131zM249 282h154l-76 228zM439 894l80 -48c-27 -59 -64 -105 -123 -105c-22 0 -46 10 -64 21l-25 16c-12 7 -22 14 -37 14c-17 0 -27 -10 -47 -45l-80 47c27 60 64 106 123 106c22 0 46 -10 65 -22
l24 -15c12 -7 22 -15 37 -15c17 0 27 11 47 46z" />
    <glyph glyph-name="Adieresis" unicode="&#xc4;" horiz-adv-x="660" 
d="M18 0v47l242 653h139l243 -653v-47h-140l-56 164h-239l-58 -164h-131zM249 282h154l-76 228zM150 768v118h139v-118h-139zM367 768v118h140v-118h-140z" />
    <glyph glyph-name="Aring" unicode="&#xc5;" horiz-adv-x="660" 
d="M18 0v47l242 653h139l243 -653v-47h-140l-56 164h-239l-58 -164h-131zM249 282h154l-76 228zM327 811c19 0 37 15 37 36c0 20 -18 35 -37 35s-36 -15 -36 -35c0 -21 17 -36 36 -36zM327 736c-64 0 -118 50 -118 111s54 110 118 110s118 -49 118 -110s-54 -111 -118 -111z
" />
    <glyph glyph-name="AE" unicode="&#xc6;" horiz-adv-x="1006" 
d="M8 0v47l412 653h536v-124h-315v-166h269v-118h-269v-168h317v-124h-459v164h-260l-103 -164h-128zM314 282h185v294z" />
    <glyph glyph-name="Ccedilla" unicode="&#xc7;" horiz-adv-x="661" 
d="M208 -160v45l72 105c-138 19 -212 107 -212 247v226c0 159 97 252 275 252c138 0 260 -72 260 -245v-10h-142v10c0 83 -62 115 -127 115c-84 0 -124 -43 -124 -112v-246c0 -69 40 -112 124 -112c65 0 127 30 127 115v10h142v-10c0 -155 -98 -229 -217 -242l-61 -148h-117
z" />
    <glyph glyph-name="Egrave" unicode="&#xc8;" horiz-adv-x="594" 
d="M88 0v700h456v-124h-314v-166h268v-118h-268v-168h316v-124h-458zM284 762l-89 102v49h126l76 -151h-113z" />
    <glyph glyph-name="Eacute" unicode="&#xc9;" horiz-adv-x="594" 
d="M88 0v700h456v-124h-314v-166h268v-118h-268v-168h316v-124h-458zM230 762l76 151h126v-49l-90 -102h-112z" />
    <glyph glyph-name="Ecircumflex" unicode="&#xca;" horiz-adv-x="594" 
d="M88 0v700h456v-124h-314v-166h268v-118h-268v-168h316v-124h-458zM162 762v44l101 107h110l102 -107v-44h-106l-51 58l-52 -58h-104z" />
    <glyph glyph-name="Edieresis" unicode="&#xcb;" horiz-adv-x="594" 
d="M88 0v700h456v-124h-314v-166h268v-118h-268v-168h316v-124h-458zM140 768v118h139v-118h-139zM357 768v118h139v-118h-139z" />
    <glyph glyph-name="Igrave" unicode="&#xcc;" horiz-adv-x="318" 
d="M88 0v700h142v-700h-142zM102 762l-89 102v49h126l76 -151h-113z" />
    <glyph glyph-name="Iacute" unicode="&#xcd;" horiz-adv-x="318" 
d="M88 0v700h142v-700h-142zM107 762l76 151h126v-49l-90 -102h-112z" />
    <glyph glyph-name="Icircumflex" unicode="&#xce;" horiz-adv-x="318" 
d="M88 0v700h142v-700h-142zM3 762v44l101 107h110l102 -107v-44h-106l-51 58l-52 -58h-104z" />
    <glyph glyph-name="Idieresis" unicode="&#xcf;" horiz-adv-x="318" 
d="M88 0v700h142v-700h-142zM-18 769v118h139v-118h-139zM199 769v118h139v-118h-139z" />
    <glyph glyph-name="Eth" unicode="&#xd0;" horiz-adv-x="714" 
d="M255 124h112c91 0 137 53 137 113v226c0 60 -46 113 -137 113h-112v-166h119v-118h-119v-168zM113 0v292h-93v118h93v290h254c170 0 279 -86 279 -241v-218c0 -155 -109 -241 -279 -241h-254z" />
    <glyph glyph-name="Ntilde" unicode="&#xd1;" horiz-adv-x="716" 
d="M88 0v700h130l268 -436v436h142v-700h-130l-268 436v-436h-142zM468 894l80 -48c-27 -59 -64 -105 -123 -105c-22 0 -46 10 -64 21l-25 16c-12 7 -22 14 -37 14c-17 0 -27 -10 -47 -45l-80 47c27 60 64 106 123 106c22 0 46 -10 65 -22l24 -15c12 -7 22 -15 37 -15
c17 0 27 11 47 46z" />
    <glyph glyph-name="Ograve" unicode="&#xd2;" horiz-adv-x="694" 
d="M347 115c95 0 137 56 137 116v238c0 60 -42 116 -137 116s-137 -56 -137 -116v-238c0 -60 42 -116 137 -116zM347 -15c-170 0 -279 93 -279 253v224c0 160 109 253 279 253c171 0 279 -93 279 -253v-224c0 -160 -108 -253 -279 -253zM296 762l-89 102v49h126l76 -151
h-113z" />
    <glyph glyph-name="Oacute" unicode="&#xd3;" horiz-adv-x="694" 
d="M347 115c95 0 137 56 137 116v238c0 60 -42 116 -137 116s-137 -56 -137 -116v-238c0 -60 42 -116 137 -116zM347 -15c-170 0 -279 93 -279 253v224c0 160 109 253 279 253c171 0 279 -93 279 -253v-224c0 -160 -108 -253 -279 -253zM291 762l76 151h126v-49l-90 -102
h-112z" />
    <glyph glyph-name="Ocircumflex" unicode="&#xd4;" horiz-adv-x="694" 
d="M347 115c95 0 137 56 137 116v238c0 60 -42 116 -137 116s-137 -56 -137 -116v-238c0 -60 42 -116 137 -116zM347 -15c-170 0 -279 93 -279 253v224c0 160 109 253 279 253c171 0 279 -93 279 -253v-224c0 -160 -108 -253 -279 -253zM190 762v44l101 107h110l102 -107
v-44h-106l-51 58l-52 -58h-104z" />
    <glyph glyph-name="Otilde" unicode="&#xd5;" horiz-adv-x="694" 
d="M347 115c95 0 137 56 137 116v238c0 60 -42 116 -137 116s-137 -56 -137 -116v-238c0 -60 42 -116 137 -116zM347 -15c-170 0 -279 93 -279 253v224c0 160 109 253 279 253c171 0 279 -93 279 -253v-224c0 -160 -108 -253 -279 -253zM463 894l80 -48
c-27 -59 -64 -105 -123 -105c-22 0 -46 10 -64 21l-25 16c-12 7 -22 14 -37 14c-17 0 -27 -10 -47 -45l-80 47c27 60 64 106 123 106c22 0 46 -10 65 -22l24 -15c12 -7 22 -15 37 -15c17 0 27 11 47 46z" />
    <glyph glyph-name="Odieresis" unicode="&#xd6;" horiz-adv-x="694" 
d="M347 115c95 0 137 56 137 116v238c0 60 -42 116 -137 116s-137 -56 -137 -116v-238c0 -60 42 -116 137 -116zM347 -15c-170 0 -279 93 -279 253v224c0 160 109 253 279 253c171 0 279 -93 279 -253v-224c0 -160 -108 -253 -279 -253zM170 768v118h139v-118h-139zM387 768
v118h140v-118h-140z" />
    <glyph glyph-name="multiply" unicode="&#xd7;" horiz-adv-x="586" 
d="M146 78l-84 83l147 148l-147 148l84 84l147 -148l148 148l83 -84l-148 -148l148 -148l-83 -83l-148 148z" />
    <glyph glyph-name="Oslash" unicode="&#xd8;" horiz-adv-x="694" 
d="M347 -15c-22 0 -43 2 -63 5l-26 -90h-104v47l26 78c-71 42 -112 115 -112 213v224c0 160 109 253 279 253c21 0 40 -2 59 -5l27 90h104v-47l-26 -77c73 -41 115 -115 115 -214v-224c0 -160 -108 -253 -279 -253zM347 115c95 0 137 56 137 116v238c0 29 -10 57 -31 78
l-132 -431c8 -1 17 -1 26 -1zM210 231c0 -28 9 -56 29 -77l130 430c-7 0 -14 1 -22 1c-95 0 -137 -56 -137 -116v-238z" />
    <glyph glyph-name="Ugrave" unicode="&#xd9;" horiz-adv-x="696" 
d="M476 700h143v-470c0 -155 -105 -245 -270 -245s-271 90 -271 245v470h142v-476c0 -56 39 -109 129 -109c89 0 127 53 127 109v476zM314 762l-89 102v49h126l76 -151h-113z" />
    <glyph glyph-name="Uacute" unicode="&#xda;" horiz-adv-x="696" 
d="M476 700h143v-470c0 -155 -105 -245 -270 -245s-271 90 -271 245v470h142v-476c0 -56 39 -109 129 -109c89 0 127 53 127 109v476zM276 762l76 151h126v-49l-90 -102h-112z" />
    <glyph glyph-name="Ucircumflex" unicode="&#xdb;" horiz-adv-x="696" 
d="M476 700h143v-470c0 -155 -105 -245 -270 -245s-271 90 -271 245v470h142v-476c0 -56 39 -109 129 -109c89 0 127 53 127 109v476zM192 762v44l101 107h110l102 -107v-44h-106l-51 58l-52 -58h-104z" />
    <glyph glyph-name="Udieresis" unicode="&#xdc;" horiz-adv-x="696" 
d="M476 700h143v-470c0 -155 -105 -245 -270 -245s-271 90 -271 245v470h142v-476c0 -56 39 -109 129 -109c89 0 127 53 127 109v476zM171 768v118h139v-118h-139zM388 768v118h140v-118h-140z" />
    <glyph glyph-name="Yacute" unicode="&#xdd;" horiz-adv-x="618" 
d="M238 0v277l-230 376v47h140l162 -290l169 290h131v-47l-230 -370v-283h-142zM242 762l76 151h126v-49l-90 -102h-112z" />
    <glyph glyph-name="Thorn" unicode="&#xde;" horiz-adv-x="640" 
d="M88 0v700h142v-129h168c125 0 199 -85 199 -218s-74 -218 -199 -218h-168v-135h-142zM230 259h142c41 0 81 29 81 94c0 66 -40 94 -81 94h-142v-188z" />
    <glyph glyph-name="germandbls" unicode="&#xdf;" horiz-adv-x="604" 
d="M78 0v464c0 155 85 243 224 243s219 -81 219 -181c0 -66 -16 -110 -66 -140c57 -24 101 -91 101 -172c0 -131 -92 -214 -231 -214c-26 0 -45 2 -60 5v115s26 -2 51 -2c79 0 110 53 110 103c0 70 -41 105 -110 105h-43v113h32c55 0 80 27 80 76c0 40 -24 74 -82 74
c-62 0 -95 -40 -95 -112v-477h-130z" />
    <glyph glyph-name="agrave" unicode="&#xe0;" horiz-adv-x="566" 
d="M219 -12c-94 0 -176 53 -176 156c0 108 70 170 212 170h108v33c0 45 -26 71 -84 71c-59 0 -84 -26 -84 -60h-127c0 103 67 178 211 178s214 -75 214 -180v-356h-75l-38 51c-38 -35 -83 -63 -161 -63zM246 106c50 0 86 17 117 51v58h-108c-68 0 -82 -32 -82 -54
c0 -35 26 -55 73 -55zM249 590l-83 95v45h117l71 -140h-105z" />
    <glyph glyph-name="aacute" unicode="&#xe1;" horiz-adv-x="566" 
d="M219 -12c-94 0 -176 53 -176 156c0 108 70 170 212 170h108v33c0 45 -26 71 -84 71c-59 0 -84 -26 -84 -60h-127c0 103 67 178 211 178s214 -75 214 -180v-356h-75l-38 51c-38 -35 -83 -63 -161 -63zM246 106c50 0 86 17 117 51v58h-108c-68 0 -82 -32 -82 -54
c0 -35 26 -55 73 -55zM213 590l71 140h117v-45l-84 -95h-104z" />
    <glyph glyph-name="acircumflex" unicode="&#xe2;" horiz-adv-x="566" 
d="M219 -12c-94 0 -176 53 -176 156c0 108 70 170 212 170h108v33c0 45 -26 71 -84 71c-59 0 -84 -26 -84 -60h-127c0 103 67 178 211 178s214 -75 214 -180v-356h-75l-38 51c-38 -35 -83 -63 -161 -63zM246 106c50 0 86 17 117 51v58h-108c-68 0 -82 -32 -82 -54
c0 -35 26 -55 73 -55zM142 590v41l94 99h103l95 -99v-41h-99l-48 54l-48 -54h-97z" />
    <glyph glyph-name="atilde" unicode="&#xe3;" horiz-adv-x="566" 
d="M219 -12c-94 0 -176 53 -176 156c0 108 70 170 212 170h108v33c0 45 -26 71 -84 71c-59 0 -84 -26 -84 -60h-127c0 103 67 178 211 178s214 -75 214 -180v-356h-75l-38 51c-38 -35 -83 -63 -161 -63zM246 106c50 0 86 17 117 51v58h-108c-68 0 -82 -32 -82 -54
c0 -35 26 -55 73 -55zM400 729l78 -46c-27 -58 -63 -103 -120 -103c-22 0 -45 10 -63 21l-24 15c-12 7 -21 14 -36 14c-16 0 -26 -10 -46 -44l-78 46c27 58 63 103 120 103c22 0 45 -10 63 -21l24 -15c12 -7 21 -14 36 -14c16 0 26 10 46 44z" />
    <glyph glyph-name="adieresis" unicode="&#xe4;" horiz-adv-x="566" 
d="M219 -12c-94 0 -176 53 -176 156c0 108 70 170 212 170h108v33c0 45 -26 71 -84 71c-59 0 -84 -26 -84 -60h-127c0 103 67 178 211 178s214 -75 214 -180v-356h-75l-38 51c-38 -35 -83 -63 -161 -63zM246 106c50 0 86 17 117 51v58h-108c-68 0 -82 -32 -82 -54
c0 -35 26 -55 73 -55zM121 595v110h130v-110h-130zM324 595v110h130v-110h-130z" />
    <glyph glyph-name="aring" unicode="&#xe5;" horiz-adv-x="566" 
d="M219 -12c-94 0 -176 53 -176 156c0 108 70 170 212 170h108v33c0 45 -26 71 -84 71c-59 0 -84 -26 -84 -60h-127c0 103 67 178 211 178s214 -75 214 -180v-356h-75l-38 51c-38 -35 -83 -63 -161 -63zM246 106c50 0 86 17 117 51v58h-108c-68 0 -82 -32 -82 -54
c0 -35 26 -55 73 -55zM289 635c18 0 34 14 34 33s-16 33 -34 33s-34 -14 -34 -33s16 -33 34 -33zM289 565c-60 0 -110 46 -110 103s50 103 110 103s110 -46 110 -103s-50 -103 -110 -103z" />
    <glyph glyph-name="ae" unicode="&#xe6;" horiz-adv-x="864" 
d="M222 -12c-98 0 -179 53 -179 156c0 109 70 170 216 170h104v33c0 45 -26 71 -84 71c-59 0 -84 -26 -84 -60h-127c0 103 67 178 211 178c64 0 115 -14 155 -45c41 30 96 45 157 45c130 0 218 -69 218 -192v-125h-316v-36c0 -45 31 -77 98 -77c50 0 78 20 87 53h131
c-11 -107 -89 -171 -218 -171c-87 0 -152 26 -195 81c-36 -44 -93 -81 -174 -81zM246 106c47 0 83 14 117 51v58h-105c-72 0 -85 -31 -85 -56c0 -32 26 -53 73 -53zM493 318h186v26c0 45 -33 74 -93 74c-61 0 -93 -30 -93 -74v-26z" />
    <glyph glyph-name="ccedilla" unicode="&#xe7;" horiz-adv-x="543" 
d="M132 -160v45l76 110c-94 21 -153 89 -153 187v160c0 120 88 194 222 194c130 0 215 -71 215 -196v-6h-130v6c0 47 -30 78 -85 78c-64 0 -92 -30 -92 -74v-164c0 -44 28 -74 92 -74c55 0 85 31 85 77v10h130v-7c0 -111 -73 -183 -180 -196l-63 -150h-117z" />
    <glyph glyph-name="egrave" unicode="&#xe8;" horiz-adv-x="556" 
d="M283 -12c-137 0 -228 69 -228 192v162c0 120 91 194 228 194c129 0 218 -69 218 -192v-125h-316v-37c0 -44 31 -76 98 -76c50 0 78 20 87 53h130c-10 -107 -89 -171 -217 -171zM185 318h186v26c0 45 -33 74 -93 74c-62 0 -93 -30 -93 -74v-26zM260 590l-83 95v45h117
l71 -140h-105z" />
    <glyph glyph-name="eacute" unicode="&#xe9;" horiz-adv-x="556" 
d="M283 -12c-137 0 -228 69 -228 192v162c0 120 91 194 228 194c129 0 218 -69 218 -192v-125h-316v-37c0 -44 31 -76 98 -76c50 0 78 20 87 53h130c-10 -107 -89 -171 -217 -171zM185 318h186v26c0 45 -33 74 -93 74c-62 0 -93 -30 -93 -74v-26zM212 590l71 140h117v-45
l-84 -95h-104z" />
    <glyph glyph-name="ecircumflex" unicode="&#xea;" horiz-adv-x="556" 
d="M283 -12c-137 0 -228 69 -228 192v162c0 120 91 194 228 194c129 0 218 -69 218 -192v-125h-316v-37c0 -44 31 -76 98 -76c50 0 78 20 87 53h130c-10 -107 -89 -171 -217 -171zM185 318h186v26c0 45 -33 74 -93 74c-62 0 -93 -30 -93 -74v-26zM134 590v41l94 99h103
l95 -99v-41h-99l-48 54l-48 -54h-97z" />
    <glyph glyph-name="edieresis" unicode="&#xeb;" horiz-adv-x="556" 
d="M283 -12c-137 0 -228 69 -228 192v162c0 120 91 194 228 194c129 0 218 -69 218 -192v-125h-316v-37c0 -44 31 -76 98 -76c50 0 78 20 87 53h130c-10 -107 -89 -171 -217 -171zM185 318h186v26c0 45 -33 74 -93 74c-62 0 -93 -30 -93 -74v-26zM114 595v110h130v-110h-130
zM317 595v110h130v-110h-130z" />
    <glyph glyph-name="igrave" unicode="&#xec;" horiz-adv-x="286" 
d="M92 588l-83 95v45h117l71 -140h-105zM78 0v524h130v-524h-130z" />
    <glyph glyph-name="iacute" unicode="&#xed;" horiz-adv-x="286" 
d="M91 590l71 140h117v-45l-84 -95h-104zM78 0v524h130v-524h-130z" />
    <glyph glyph-name="icircumflex" unicode="&#xee;" horiz-adv-x="286" 
d="M78 0v524h130v-524h-130zM-3 590v41l94 99h103l95 -99v-41h-99l-48 54l-48 -54h-97z" />
    <glyph glyph-name="idieresis" unicode="&#xef;" horiz-adv-x="286" 
d="M-23 595v110h130v-110h-130zM180 595v110h130v-110h-130zM78 0v524h130v-524h-130z" />
    <glyph glyph-name="eth" unicode="&#xf0;" horiz-adv-x="560" 
d="M281 -12c-136 0 -228 74 -228 194v109c0 136 88 192 191 192c57 0 81 -14 106 -31c-15 28 -69 72 -69 72h-143v75h78l-35 45v61h117l81 -106h112v-75h-55c58 -81 73 -132 73 -248v-96c0 -123 -92 -192 -228 -192zM281 106c66 0 98 38 98 82v125c-24 28 -55 52 -101 52
c-52 0 -95 -29 -95 -84v-93c0 -45 33 -82 98 -82z" />
    <glyph glyph-name="ntilde" unicode="&#xf1;" horiz-adv-x="601" 
d="M78 0v524h75l38 -52c33 32 82 64 155 64c113 0 182 -76 182 -203v-333h-130v325c0 64 -36 93 -81 93c-51 0 -93 -37 -109 -55v-363h-130zM425 729l78 -46c-27 -58 -63 -103 -120 -103c-22 0 -45 10 -63 21l-24 15c-12 7 -21 14 -36 14c-16 0 -26 -10 -46 -44l-78 46
c27 58 63 103 120 103c22 0 45 -10 63 -21l24 -15c12 -7 21 -14 36 -14c16 0 26 10 46 44z" />
    <glyph glyph-name="ograve" unicode="&#xf2;" horiz-adv-x="565" 
d="M283 106c65 0 97 37 97 82v148c0 45 -32 82 -97 82c-67 0 -98 -38 -98 -82v-148c0 -44 31 -82 98 -82zM283 -12c-152 0 -228 85 -228 194v160c0 109 76 194 228 194c151 0 227 -85 227 -194v-160c0 -109 -76 -194 -227 -194zM244 590l-83 95v45h117l71 -140h-105z" />
    <glyph glyph-name="oacute" unicode="&#xf3;" horiz-adv-x="565" 
d="M283 106c65 0 97 37 97 82v148c0 45 -32 82 -97 82c-67 0 -98 -38 -98 -82v-148c0 -44 31 -82 98 -82zM283 -12c-152 0 -228 85 -228 194v160c0 109 76 194 228 194c151 0 227 -85 227 -194v-160c0 -109 -76 -194 -227 -194zM216 590l71 140h117v-45l-84 -95h-104z" />
    <glyph glyph-name="ocircumflex" unicode="&#xf4;" horiz-adv-x="565" 
d="M283 106c65 0 97 37 97 82v148c0 45 -32 82 -97 82c-67 0 -98 -38 -98 -82v-148c0 -44 31 -82 98 -82zM283 -12c-152 0 -228 85 -228 194v160c0 109 76 194 228 194c151 0 227 -85 227 -194v-160c0 -109 -76 -194 -227 -194zM137 590v41l94 99h103l95 -99v-41h-99l-48 54
l-48 -54h-97z" />
    <glyph glyph-name="otilde" unicode="&#xf5;" horiz-adv-x="565" 
d="M283 106c65 0 97 37 97 82v148c0 45 -32 82 -97 82c-67 0 -98 -38 -98 -82v-148c0 -44 31 -82 98 -82zM283 -12c-152 0 -228 85 -228 194v160c0 109 76 194 228 194c151 0 227 -85 227 -194v-160c0 -109 -76 -194 -227 -194zM388 729l78 -46c-27 -58 -63 -103 -120 -103
c-22 0 -45 10 -63 21l-24 15c-12 7 -21 14 -36 14c-16 0 -26 -10 -46 -44l-78 46c27 58 63 103 120 103c22 0 45 -10 63 -21l24 -15c12 -7 21 -14 36 -14c16 0 26 10 46 44z" />
    <glyph glyph-name="odieresis" unicode="&#xf6;" horiz-adv-x="565" 
d="M283 106c65 0 97 37 97 82v148c0 45 -32 82 -97 82c-67 0 -98 -38 -98 -82v-148c0 -44 31 -82 98 -82zM283 -12c-152 0 -228 85 -228 194v160c0 109 76 194 228 194c151 0 227 -85 227 -194v-160c0 -109 -76 -194 -227 -194zM116 595v110h130v-110h-130zM319 595v110h130
v-110h-130z" />
    <glyph glyph-name="divide" unicode="&#xf7;" horiz-adv-x="572" 
d="M210 65v127h151v-127h-151zM62 259v108h448v-108h-448zM210 434v127h151v-127h-151z" />
    <glyph glyph-name="oslash" unicode="&#xf8;" horiz-adv-x="572" 
d="M283 -12c-36 0 -67 5 -95 13l-70 -127h-63v61l59 107c-39 35 -59 84 -59 140v160c0 109 76 194 228 194c36 0 67 -5 95 -14l68 124h64v-61l-58 -105c38 -35 58 -83 58 -138v-160c0 -109 -76 -194 -227 -194zM185 188c0 -8 1 -16 3 -23l135 247c-11 4 -25 6 -40 6
c-67 0 -98 -38 -98 -82v-148zM283 106c65 0 97 37 97 82v148c0 7 -1 14 -3 20l-135 -245c12 -3 25 -5 41 -5z" />
    <glyph glyph-name="ugrave" unicode="&#xf9;" horiz-adv-x="597" 
d="M519 524v-524h-75l-38 51c-33 -31 -81 -63 -153 -63c-112 0 -180 75 -180 201v335h130v-327c0 -63 35 -91 79 -91c50 0 91 36 107 54v364h130zM267 590l-83 95v45h117l71 -140h-105z" />
    <glyph glyph-name="uacute" unicode="&#xfa;" horiz-adv-x="597" 
d="M519 524v-524h-75l-38 51c-33 -31 -81 -63 -153 -63c-112 0 -180 75 -180 201v335h130v-327c0 -63 35 -91 79 -91c50 0 91 36 107 54v364h130zM222 590l71 140h117v-45l-84 -95h-104z" />
    <glyph glyph-name="ucircumflex" unicode="&#xfb;" horiz-adv-x="597" 
d="M519 524v-524h-75l-38 51c-33 -31 -81 -63 -153 -63c-112 0 -180 75 -180 201v335h130v-327c0 -63 35 -91 79 -91c50 0 91 36 107 54v364h130zM152 590v41l94 99h103l95 -99v-41h-99l-48 54l-48 -54h-97z" />
    <glyph glyph-name="udieresis" unicode="&#xfc;" horiz-adv-x="597" 
d="M519 524v-524h-75l-38 51c-33 -31 -81 -63 -153 -63c-112 0 -180 75 -180 201v335h130v-327c0 -63 35 -91 79 -91c50 0 91 36 107 54v364h130zM133 595v110h130v-110h-130zM336 595v110h130v-110h-130z" />
    <glyph glyph-name="yacute" unicode="&#xfd;" horiz-adv-x="515" 
d="M149 -160v47l49 113l-180 463v61h120l124 -347l117 347h118v-61l-242 -623h-106zM193 590l71 140h117v-45l-84 -95h-104z" />
    <glyph glyph-name="thorn" unicode="&#xfe;" horiz-adv-x="596" 
d="M78 705h130v-218c22 19 66 49 139 49c102 0 186 -61 186 -192v-164c0 -131 -84 -192 -186 -192c-73 0 -117 30 -139 49v-197h-130v865zM208 363v-202c26 -26 61 -55 112 -55c40 0 83 29 83 84v144c0 55 -43 84 -83 84c-51 0 -86 -29 -112 -55z" />
    <glyph glyph-name="ydieresis" unicode="&#xff;" horiz-adv-x="515" 
d="M149 -160v47l49 113l-180 463v61h120l124 -347l117 347h118v-61l-242 -623h-106zM92 595v110h130v-110h-130zM295 595v110h130v-110h-130z" />
    <glyph glyph-name="Amacron" unicode="&#x100;" horiz-adv-x="660" 
d="M18 0v47l242 653h139l243 -653v-47h-140l-56 164h-239l-58 -164h-131zM249 282h154l-76 228zM159 778v103h345v-103h-345z" />
    <glyph glyph-name="amacron" unicode="&#x101;" horiz-adv-x="566" 
d="M219 -12c-94 0 -176 53 -176 156c0 108 70 170 212 170h108v33c0 45 -26 71 -84 71c-59 0 -84 -26 -84 -60h-127c0 103 67 178 211 178s214 -75 214 -180v-356h-75l-38 51c-38 -35 -83 -63 -161 -63zM246 106c50 0 86 17 117 51v58h-108c-68 0 -82 -32 -82 -54
c0 -35 26 -55 73 -55zM128 604v96h322v-96h-322z" />
    <glyph glyph-name="Aogonek" unicode="&#x104;" horiz-adv-x="660" 
d="M624 -160c-65 0 -105 28 -105 73c0 24 15 54 50 87h-67l-56 164h-239l-58 -164h-131v47l242 653h139l243 -653v-47c-27 -22 -37 -39 -37 -56s16 -26 45 -26h31v-78h-57zM249 282h154l-76 228z" />
    <glyph glyph-name="aogonek" unicode="&#x105;" horiz-adv-x="596" 
d="M443 0l-38 52c-36 -34 -80 -64 -156 -64c-102 0 -186 61 -186 192v164c0 131 84 192 186 192c76 0 120 -30 156 -64l38 52h75v-524c-27 -22 -37 -39 -37 -56s16 -26 45 -26h31v-78h-57c-65 0 -105 28 -105 73c0 24 13 54 48 87zM388 161v202c-26 26 -61 55 -112 55
c-40 0 -83 -29 -83 -84v-144c0 -55 43 -84 83 -84c51 0 86 29 112 55z" />
    <glyph glyph-name="Cacute" unicode="&#x106;" horiz-adv-x="661" 
d="M343 -15c-178 0 -275 93 -275 252v226c0 159 97 252 275 252c138 0 260 -72 260 -245v-10h-142v10c0 83 -62 115 -127 115c-84 0 -124 -43 -124 -112v-246c0 -69 40 -112 124 -112c65 0 127 30 127 115v10h142v-10c0 -173 -122 -245 -260 -245zM259 762l76 151h126v-49
l-90 -102h-112z" />
    <glyph glyph-name="cacute" unicode="&#x107;" horiz-adv-x="543" 
d="M277 -12c-134 0 -222 74 -222 194v160c0 120 88 194 222 194c130 0 215 -71 215 -196v-6h-130v6c0 47 -30 78 -85 78c-64 0 -92 -30 -92 -74v-164c0 -44 28 -74 92 -74c55 0 85 31 85 77v10h130v-7c0 -123 -89 -198 -215 -198zM220 590l71 140h117v-45l-84 -95h-104z" />
    <glyph glyph-name="Ccaron" unicode="&#x10c;" horiz-adv-x="661" 
d="M343 -15c-178 0 -275 93 -275 252v226c0 159 97 252 275 252c138 0 260 -72 260 -245v-10h-142v10c0 83 -62 115 -127 115c-84 0 -124 -43 -124 -112v-246c0 -69 40 -112 124 -112c65 0 127 30 127 115v10h142v-10c0 -173 -122 -245 -260 -245zM282 763l-101 106v44h106
l52 -71l51 71h104v-44l-102 -106h-110z" />
    <glyph glyph-name="ccaron" unicode="&#x10d;" horiz-adv-x="543" 
d="M277 -12c-134 0 -222 74 -222 194v160c0 120 88 194 222 194c130 0 215 -71 215 -196v-6h-130v6c0 47 -30 78 -85 78c-64 0 -92 -30 -92 -74v-164c0 -44 28 -74 92 -74c55 0 85 31 85 77v10h130v-7c0 -123 -89 -198 -215 -198zM223 590l-94 99v41h99l48 -66l48 66h97v-41
l-95 -99h-103z" />
    <glyph glyph-name="Dcaron" unicode="&#x10e;" horiz-adv-x="689" 
d="M230 124h112c91 0 137 53 137 113v226c0 60 -46 113 -137 113h-112v-452zM88 0v700h254c171 0 279 -86 279 -241v-218c0 -155 -108 -241 -279 -241h-254zM261 763l-101 106v44h106l52 -71l51 71h104v-44l-102 -106h-110z" />
    <glyph glyph-name="dcaron" unicode="&#x10f;" horiz-adv-x="723" 
d="M518 705v-705h-75l-38 52c-36 -34 -80 -64 -156 -64c-102 0 -186 61 -186 192v164c0 131 84 192 186 192c73 0 117 -30 139 -49v218h130zM388 161v202c-26 26 -61 55 -112 55c-40 0 -83 -29 -83 -84v-144c0 -55 43 -84 83 -84c51 0 86 29 112 55zM587 511l36 194h128v-55
l-72 -139h-92z" />
    <glyph glyph-name="Emacron" unicode="&#x112;" horiz-adv-x="594" 
d="M88 0v700h456v-124h-314v-166h268v-118h-268v-168h316v-124h-458zM144 778v103h345v-103h-345z" />
    <glyph glyph-name="emacron" unicode="&#x113;" horiz-adv-x="556" 
d="M283 -12c-137 0 -228 69 -228 192v162c0 120 91 194 228 194c129 0 218 -69 218 -192v-125h-316v-37c0 -44 31 -76 98 -76c50 0 78 20 87 53h130c-10 -107 -89 -171 -217 -171zM185 318h186v26c0 45 -33 74 -93 74c-62 0 -93 -30 -93 -74v-26zM122 604v96h322v-96h-322z
" />
    <glyph glyph-name="Edotaccent" unicode="&#x116;" horiz-adv-x="594" 
d="M88 0v700h456v-124h-314v-166h268v-118h-268v-168h316v-124h-458zM243 768v118h140v-118h-140z" />
    <glyph glyph-name="edotaccent" unicode="&#x117;" horiz-adv-x="556" 
d="M283 -12c-137 0 -228 69 -228 192v162c0 120 91 194 228 194c129 0 218 -69 218 -192v-125h-316v-37c0 -44 31 -76 98 -76c50 0 78 20 87 53h130c-10 -107 -89 -171 -217 -171zM185 318h186v26c0 45 -33 74 -93 74c-62 0 -93 -30 -93 -74v-26zM220 595v110h130v-110h-130
z" />
    <glyph glyph-name="Eogonek" unicode="&#x118;" horiz-adv-x="606" 
d="M88 0v700h456v-124h-314v-166h268v-118h-268v-168h316v-124c-27 -22 -37 -39 -37 -56s16 -26 45 -26h31v-78h-57c-65 0 -105 28 -105 73c0 24 15 54 50 87h-385z" />
    <glyph glyph-name="eogonek" unicode="&#x119;" horiz-adv-x="556" 
d="M386 -160c-65 0 -105 28 -105 73c0 22 12 48 40 77c-12 -1 -25 -2 -38 -2c-137 0 -228 69 -228 192v162c0 120 91 194 228 194c129 0 218 -69 218 -192v-125h-316v-37c0 -44 31 -76 98 -76c50 0 78 20 87 53h130c-8 -80 -55 -126 -95 -155c-29 -21 -38 -39 -38 -56
c0 -21 16 -30 45 -30h31v-78h-57zM185 318h186v26c0 45 -33 74 -93 74c-62 0 -93 -30 -93 -74v-26z" />
    <glyph glyph-name="Ecaron" unicode="&#x11a;" horiz-adv-x="594" 
d="M88 0v700h456v-124h-314v-166h268v-118h-268v-168h316v-124h-458zM264 763l-101 106v44h106l52 -71l51 71h104v-44l-102 -106h-110z" />
    <glyph glyph-name="ecaron" unicode="&#x11b;" horiz-adv-x="556" 
d="M283 -12c-137 0 -228 69 -228 192v162c0 120 91 194 228 194c129 0 218 -69 218 -192v-125h-316v-37c0 -44 31 -76 98 -76c50 0 78 20 87 53h130c-10 -107 -89 -171 -217 -171zM185 318h186v26c0 45 -33 74 -93 74c-62 0 -93 -30 -93 -74v-26zM231 590l-94 99v41h99
l48 -66l48 66h97v-41l-95 -99h-103z" />
    <glyph glyph-name="uni0122" unicode="&#x122;" horiz-adv-x="697" 
d="M324 -15c-161 0 -256 94 -256 249v229c0 159 103 252 279 252c151 0 266 -83 266 -243h-142c0 71 -54 113 -132 113c-87 0 -129 -45 -129 -116v-234c0 -76 45 -120 127 -120c54 0 107 27 134 69v76h-124v118h266v-378h-76l-39 58c-43 -48 -104 -73 -174 -73zM237 -261
l36 194h128v-55l-72 -139h-92z" />
    <glyph glyph-name="uni0123" unicode="&#x123;" horiz-adv-x="596" 
d="M518 524v-492c0 -137 -92 -204 -224 -204c-133 0 -218 64 -218 171v4h130v-3c0 -23 21 -54 87 -54c68 0 95 36 95 86v60c-22 -19 -66 -49 -139 -49c-102 0 -186 61 -186 192v109c0 131 84 192 186 192c76 0 120 -30 156 -64l38 52h75zM388 216v147c-26 26 -61 55 -112 55
c-40 0 -83 -29 -83 -84v-89c0 -55 43 -84 83 -84c51 0 86 29 112 55zM398 780l-33 -194h-118v55l66 139h85z" />
    <glyph glyph-name="Imacron" unicode="&#x12a;" horiz-adv-x="318" 
d="M88 0v700h142v-700h-142zM-14 778v103h345v-103h-345z" />
    <glyph glyph-name="imacron" unicode="&#x12b;" horiz-adv-x="286" 
d="M-18 604v96h322v-96h-322zM78 0v524h130v-524h-130z" />
    <glyph glyph-name="Iogonek" unicode="&#x12e;" horiz-adv-x="318" 
d="M88 0v700h142v-700c-27 -22 -37 -39 -37 -56s16 -26 45 -26h31v-78h-57c-65 0 -105 28 -105 73c0 24 15 54 50 87h-69z" />
    <glyph glyph-name="iogonek" unicode="&#x12f;" horiz-adv-x="286" 
d="M78 0v524h130v-524c-27 -22 -37 -39 -37 -56s16 -26 45 -26h31v-78h-57c-65 0 -105 28 -105 73c0 24 15 54 50 87h-57zM78 595v110h130v-110h-130z" />
    <glyph glyph-name="dotlessi" unicode="&#x131;" horiz-adv-x="286" 
d="M78 0v524h130v-524h-130z" />
    <glyph glyph-name="uni0136" unicode="&#x136;" horiz-adv-x="637" 
d="M88 0v700h142v-288h74l169 288h132v-47l-177 -295l192 -311v-47h-141l-175 288h-74v-288h-142zM249 -261l36 194h128v-55l-72 -139h-92z" />
    <glyph glyph-name="uni0137" unicode="&#x137;" horiz-adv-x="552" 
d="M78 0v705h130v-380h55l127 199h112v-61l-122 -191l135 -211v-61h-116l-136 212h-55v-212h-130zM192 -261l33 194h118v-55l-66 -139h-85z" />
    <glyph glyph-name="Lacute" unicode="&#x139;" horiz-adv-x="568" 
d="M88 0v700h142v-576h320v-124h-462zM106 762l76 151h126v-49l-90 -102h-112z" />
    <glyph glyph-name="lacute" unicode="&#x13a;" horiz-adv-x="286" 
d="M78 0v705h130v-705h-130zM91 756l71 140h117v-45l-84 -95h-104z" />
    <glyph glyph-name="uni013B" unicode="&#x13b;" horiz-adv-x="568" 
d="M88 0v700h142v-576h320v-124h-462zM221 -261l36 194h128v-55l-72 -139h-92z" />
    <glyph glyph-name="uni013C" unicode="&#x13c;" horiz-adv-x="286" 
d="M78 0v705h130v-705h-130zM52 -261l33 194h118v-55l-66 -139h-85z" />
    <glyph glyph-name="Lcaron" unicode="&#x13d;" horiz-adv-x="568" 
d="M88 0v700h142v-576h320v-124h-462zM378 506l36 194h128v-55l-72 -139h-92z" />
    <glyph glyph-name="lcaron" unicode="&#x13e;" horiz-adv-x="412" 
d="M78 0v705h130v-705h-130zM276 511l36 194h128v-55l-72 -139h-92z" />
    <glyph glyph-name="Lslash" unicode="&#x141;" horiz-adv-x="605" 
d="M125 0v226l-62 -45h-46v99l108 79v341h142v-233l97 70h46v-99l-143 -105v-209h320v-124h-462z" />
    <glyph glyph-name="lslash" unicode="&#x142;" horiz-adv-x="413" 
d="M141 0v208l-80 -83h-61v84l141 150v346h130v-206l82 85h60v-85l-142 -149v-350h-130z" />
    <glyph glyph-name="Nacute" unicode="&#x143;" horiz-adv-x="716" 
d="M88 0v700h130l268 -436v436h142v-700h-130l-268 436v-436h-142zM277 762l76 151h126v-49l-90 -102h-112z" />
    <glyph glyph-name="nacute" unicode="&#x144;" horiz-adv-x="601" 
d="M78 0v524h75l38 -52c33 32 82 64 155 64c113 0 182 -76 182 -203v-333h-130v325c0 64 -36 93 -81 93c-51 0 -93 -37 -109 -55v-363h-130zM252 590l71 140h117v-45l-84 -95h-104z" />
    <glyph glyph-name="Ncommaaccent" unicode="&#x145;" horiz-adv-x="716" 
d="M88 0v700h130l268 -436v436h142v-700h-130l-268 436v-436h-142zM262 -261l36 194h128v-55l-72 -139h-92z" />
    <glyph glyph-name="ncommaaccent" unicode="&#x146;" horiz-adv-x="601" 
d="M78 0v524h75l38 -52c33 32 82 64 155 64c113 0 182 -76 182 -203v-333h-130v325c0 64 -36 93 -81 93c-51 0 -93 -37 -109 -55v-363h-130zM209 -261l33 194h118v-55l-66 -139h-85z" />
    <glyph glyph-name="Ncaron" unicode="&#x147;" horiz-adv-x="716" 
d="M88 0v700h130l268 -436v436h142v-700h-130l-268 436v-436h-142zM302 763l-101 106v44h106l52 -71l51 71h104v-44l-102 -106h-110z" />
    <glyph glyph-name="ncaron" unicode="&#x148;" horiz-adv-x="601" 
d="M78 0v524h75l38 -52c33 32 82 64 155 64c113 0 182 -76 182 -203v-333h-130v325c0 64 -36 93 -81 93c-51 0 -93 -37 -109 -55v-363h-130zM254 590l-94 99v41h99l48 -66l48 66h97v-41l-95 -99h-103z" />
    <glyph glyph-name="Omacron" unicode="&#x14c;" horiz-adv-x="694" 
d="M347 115c95 0 137 56 137 116v238c0 60 -42 116 -137 116s-137 -56 -137 -116v-238c0 -60 42 -116 137 -116zM347 -15c-170 0 -279 93 -279 253v224c0 160 109 253 279 253c171 0 279 -93 279 -253v-224c0 -160 -108 -253 -279 -253zM175 778v103h345v-103h-345z" />
    <glyph glyph-name="omacron" unicode="&#x14d;" horiz-adv-x="565" 
d="M283 106c65 0 97 37 97 82v148c0 45 -32 82 -97 82c-67 0 -98 -38 -98 -82v-148c0 -44 31 -82 98 -82zM283 -12c-152 0 -228 85 -228 194v160c0 109 76 194 228 194c151 0 227 -85 227 -194v-160c0 -109 -76 -194 -227 -194zM122 604v96h322v-96h-322z" />
    <glyph glyph-name="obreve" unicode="&#x14f;" horiz-adv-x="565" 
d="M283 106c65 0 97 37 97 82v148c0 45 -32 82 -97 82c-67 0 -98 -38 -98 -82v-148c0 -44 31 -82 98 -82zM283 -12c-152 0 -228 85 -228 194v160c0 109 76 194 228 194c151 0 227 -85 227 -194v-160c0 -109 -76 -194 -227 -194zM284 585c-97 0 -164 50 -164 137v12h111v-11
c0 -26 15 -44 53 -44c40 0 55 18 55 44v11h109v-12c0 -87 -67 -137 -164 -137z" />
    <glyph glyph-name="Ohungarumlaut" unicode="&#x150;" horiz-adv-x="694" 
d="M347 115c95 0 137 56 137 116v238c0 60 -42 116 -137 116s-137 -56 -137 -116v-238c0 -60 42 -116 137 -116zM347 -15c-170 0 -279 93 -279 253v224c0 160 109 253 279 253c171 0 279 -93 279 -253v-224c0 -160 -108 -253 -279 -253zM180 763l76 150h126v-48l-90 -102
h-112zM369 763l75 150h125v-48l-89 -102h-111z" />
    <glyph glyph-name="ohungarumlaut" unicode="&#x151;" horiz-adv-x="565" 
d="M283 106c65 0 97 37 97 82v148c0 45 -32 82 -97 82c-67 0 -98 -38 -98 -82v-148c0 -44 31 -82 98 -82zM283 -12c-152 0 -228 85 -228 194v160c0 109 76 194 228 194c151 0 227 -85 227 -194v-160c0 -109 -76 -194 -227 -194zM130 590l71 140h117v-45l-84 -95h-104z
M306 590l70 140h117v-45l-83 -95h-104z" />
    <glyph glyph-name="OE" unicode="&#x152;" horiz-adv-x="990" 
d="M347 -15c-170 0 -279 93 -279 253v224c0 160 109 253 279 253c47 0 92 -12 137 -30v15h456v-124h-314v-166h268v-118h-268v-168h316v-124h-458v14c-45 -17 -90 -29 -137 -29zM347 115c92 0 137 52 137 110v243c0 62 -41 117 -137 117c-95 0 -137 -56 -137 -116v-238
c0 -60 42 -116 137 -116z" />
    <glyph glyph-name="oe" unicode="&#x153;" horiz-adv-x="881" 
d="M608 -12c-68 0 -124 17 -164 48c-37 -30 -91 -48 -161 -48c-152 0 -228 85 -228 194v160c0 109 76 194 228 194c70 0 125 -19 162 -50c40 32 96 50 163 50c129 0 218 -69 218 -192v-125h-316v-39c0 -43 34 -74 98 -74c50 0 78 20 87 53h130c-10 -107 -89 -171 -217 -171z
M510 318h186v26c0 45 -33 74 -93 74c-62 0 -93 -30 -93 -74v-26zM283 106c65 0 97 37 97 82v148c0 45 -32 82 -97 82c-67 0 -98 -38 -98 -82v-148c0 -44 31 -82 98 -82z" />
    <glyph glyph-name="Racute" unicode="&#x154;" horiz-adv-x="676" 
d="M88 0v700h303c143 0 217 -82 217 -218c0 -99 -46 -168 -115 -202l129 -233v-47h-138l-146 263h-108v-263h-142zM230 383h135c62 0 98 26 98 97c0 70 -36 96 -98 96h-135v-193zM250 762l76 151h126v-49l-90 -102h-112z" />
    <glyph glyph-name="racute" unicode="&#x155;" horiz-adv-x="382" 
d="M78 0v524h75l38 -52c25 29 67 64 136 64h27v-125h-27c-55 0 -90 -13 -119 -48v-363h-130zM144 590l71 140h117v-45l-84 -95h-104z" />
    <glyph glyph-name="Rcommaaccent" unicode="&#x156;" horiz-adv-x="666" 
d="M88 0v700h303c143 0 217 -82 217 -218c0 -99 -46 -168 -115 -202l129 -233v-47h-138l-146 263h-108v-263h-142zM230 383h135c62 0 98 26 98 97c0 70 -36 96 -98 96h-135v-193zM250 -261l36 194h128v-55l-72 -139h-92z" />
    <glyph glyph-name="uni0157" unicode="&#x157;" horiz-adv-x="382" 
d="M78 0v524h75l38 -52c25 29 67 64 136 64h27v-125h-27c-55 0 -90 -13 -119 -48v-363h-130zM51 -261l33 194h118v-55l-66 -139h-85z" />
    <glyph glyph-name="Rcaron" unicode="&#x158;" horiz-adv-x="676" 
d="M88 0v700h303c143 0 217 -82 217 -218c0 -99 -46 -168 -115 -202l129 -233v-47h-138l-146 263h-108v-263h-142zM230 383h135c62 0 98 26 98 97c0 70 -36 96 -98 96h-135v-193zM264 763l-101 106v44h106l52 -71l51 71h104v-44l-102 -106h-110z" />
    <glyph glyph-name="rcaron" unicode="&#x159;" horiz-adv-x="382" 
d="M78 0v524h75l38 -52c25 29 67 64 136 64h27v-125h-27c-55 0 -90 -13 -119 -48v-363h-130zM155 590l-94 99v41h99l48 -66l48 66h97v-41l-95 -99h-103z" />
    <glyph glyph-name="Sacute" unicode="&#x15a;" horiz-adv-x="648" 
d="M317 -15c-150 0 -274 80 -274 242h142c0 -91 82 -112 140 -112c75 0 115 32 115 76c0 50 -57 64 -163 104l-29 11c-89 34 -187 79 -187 198c0 127 98 211 259 211c151 0 264 -67 264 -236h-142c0 80 -60 106 -124 106c-70 0 -114 -28 -114 -73c0 -52 51 -64 118 -88
l28 -10c125 -45 240 -88 240 -216c0 -122 -92 -213 -273 -213zM244 762l76 151h126v-49l-90 -102h-112z" />
    <glyph glyph-name="sacute" unicode="&#x15b;" horiz-adv-x="559" 
d="M284 -12c-138 0 -231 74 -235 192h129c6 -47 52 -74 122 -74c47 0 77 18 77 44c0 19 -10 30 -35 36l-145 37c-66 17 -137 51 -137 145c0 103 79 168 213 168s217 -65 221 -180h-130c-3 41 -40 62 -101 62c-57 0 -77 -21 -77 -42c0 -20 16 -30 45 -37l149 -37
c69 -17 123 -55 123 -142c0 -107 -87 -172 -219 -172zM201 590l71 140h117v-45l-84 -95h-104z" />
    <glyph glyph-name="scircumflex" unicode="&#x15d;" horiz-adv-x="559" 
d="M284 -12c-138 0 -231 74 -235 192h129c6 -47 52 -74 122 -74c47 0 77 18 77 44c0 19 -10 30 -35 36l-145 37c-66 17 -137 51 -137 145c0 103 79 168 213 168s217 -65 221 -180h-130c-3 41 -40 62 -101 62c-57 0 -77 -21 -77 -42c0 -20 16 -30 45 -37l149 -37
c69 -17 123 -55 123 -142c0 -107 -87 -172 -219 -172zM128 590v41l94 99h103l95 -99v-41h-99l-48 54l-48 -54h-97z" />
    <glyph glyph-name="Scaron" unicode="&#x160;" horiz-adv-x="648" 
d="M317 -15c-150 0 -274 80 -274 242h142c0 -91 82 -112 140 -112c75 0 115 32 115 76c0 50 -57 64 -163 104l-29 11c-89 34 -187 79 -187 198c0 127 98 211 259 211c151 0 264 -67 264 -236h-142c0 80 -60 106 -124 106c-70 0 -114 -28 -114 -73c0 -52 51 -64 118 -88
l28 -10c125 -45 240 -88 240 -216c0 -122 -92 -213 -273 -213zM266 763l-101 106v44h106l52 -71l51 71h104v-44l-102 -106h-110z" />
    <glyph glyph-name="scaron" unicode="&#x161;" horiz-adv-x="559" 
d="M284 -12c-138 0 -231 74 -235 192h129c6 -47 52 -74 122 -74c47 0 77 18 77 44c0 19 -10 30 -35 36l-145 37c-66 17 -137 51 -137 145c0 103 79 168 213 168s217 -65 221 -180h-130c-3 41 -40 62 -101 62c-57 0 -77 -21 -77 -42c0 -20 16 -30 45 -37l149 -37
c69 -17 123 -55 123 -142c0 -107 -87 -172 -219 -172zM224 590l-94 99v41h99l48 -66l48 66h97v-41l-95 -99h-103z" />
    <glyph glyph-name="Tcaron" unicode="&#x164;" horiz-adv-x="571" 
d="M215 0v576h-197v124h535v-124h-196v-576h-142zM231 763l-101 106v44h106l52 -71l51 71h104v-44l-102 -106h-110z" />
    <glyph glyph-name="tcaron" unicode="&#x165;" horiz-adv-x="553" 
d="M287 0c-155 0 -192 99 -192 199v212h-77v113h77v109h130v-109h119v-113h-119v-212c0 -68 29 -86 76 -86h43v-113h-57zM389 511l36 194h128v-55l-72 -139h-92z" />
    <glyph glyph-name="Umacron" unicode="&#x16a;" horiz-adv-x="696" 
d="M476 700h143v-470c0 -155 -105 -245 -270 -245s-271 90 -271 245v470h142v-476c0 -56 39 -109 129 -109c89 0 127 53 127 109v476zM175 778v103h345v-103h-345z" />
    <glyph glyph-name="umacron" unicode="&#x16b;" horiz-adv-x="597" 
d="M519 524v-524h-75l-38 51c-33 -31 -81 -63 -153 -63c-112 0 -180 75 -180 201v335h130v-327c0 -63 35 -91 79 -91c50 0 91 36 107 54v364h130zM136 604v96h322v-96h-322z" />
    <glyph glyph-name="Uring" unicode="&#x16e;" horiz-adv-x="696" 
d="M476 700h143v-470c0 -155 -105 -245 -270 -245s-271 90 -271 245v470h142v-476c0 -56 39 -109 129 -109c89 0 127 53 127 109v476zM349 811c19 0 37 15 37 36c0 20 -18 35 -37 35s-36 -15 -36 -35c0 -21 17 -36 36 -36zM349 736c-64 0 -118 50 -118 111s54 110 118 110
s118 -49 118 -110s-54 -111 -118 -111z" />
    <glyph glyph-name="uring" unicode="&#x16f;" horiz-adv-x="597" 
d="M519 524v-524h-75l-38 51c-33 -31 -81 -63 -153 -63c-112 0 -180 75 -180 201v335h130v-327c0 -63 35 -91 79 -91c50 0 91 36 107 54v364h130zM296 635c18 0 34 14 34 33s-16 33 -34 33s-34 -14 -34 -33s16 -33 34 -33zM296 565c-60 0 -110 46 -110 103s50 103 110 103
s110 -46 110 -103s-50 -103 -110 -103z" />
    <glyph glyph-name="Uhungarumlaut" unicode="&#x170;" horiz-adv-x="696" 
d="M476 700h143v-470c0 -155 -105 -245 -270 -245s-271 90 -271 245v470h142v-476c0 -56 39 -109 129 -109c89 0 127 53 127 109v476zM179 763l76 150h126v-48l-90 -102h-112zM368 763l75 150h125v-48l-89 -102h-111z" />
    <glyph glyph-name="uhungarumlaut" unicode="&#x171;" horiz-adv-x="597" 
d="M519 524v-524h-75l-38 51c-33 -31 -81 -63 -153 -63c-112 0 -180 75 -180 201v335h130v-327c0 -63 35 -91 79 -91c50 0 91 36 107 54v364h130zM142 590l71 140h117v-45l-84 -95h-104zM318 590l70 140h117v-45l-83 -95h-104z" />
    <glyph glyph-name="Uogonek" unicode="&#x172;" horiz-adv-x="696" 
d="M481 -160c-65 0 -105 28 -105 73c0 22 12 49 40 78c-21 -4 -43 -6 -67 -6c-165 0 -271 90 -271 245v470h142v-476c0 -56 39 -109 129 -109c89 0 127 53 127 109v476h143v-470c0 -128 -75 -193 -120 -230c-29 -24 -37 -39 -37 -56s16 -26 45 -26h31v-78h-57z" />
    <glyph glyph-name="uogonek" unicode="&#x173;" horiz-adv-x="597" 
d="M501 -160c-65 0 -105 28 -105 73c0 24 13 54 48 87l-38 51c-33 -31 -81 -63 -153 -63c-112 0 -180 75 -180 201v335h130v-327c0 -63 35 -91 79 -91c50 0 91 36 107 54v364h130v-524c-27 -22 -37 -39 -37 -56s16 -26 45 -26h31v-78h-57z" />
    <glyph glyph-name="Ydieresis" unicode="&#x178;" horiz-adv-x="618" 
d="M238 0v277l-230 376v47h140l162 -290l169 290h131v-47l-230 -370v-283h-142zM133 771v118h139v-118h-139zM350 771v118h139v-118h-139z" />
    <glyph glyph-name="Zacute" unicode="&#x179;" horiz-adv-x="592" 
d="M38 0v123l342 453h-327v124h490v-122l-343 -454h354v-124h-516zM211 762l76 151h126v-49l-90 -102h-112z" />
    <glyph glyph-name="zacute" unicode="&#x17a;" horiz-adv-x="533" 
d="M48 0v113l256 298h-249v113h405v-113l-259 -298h273v-113h-426zM178 590l71 140h117v-45l-84 -95h-104z" />
    <glyph glyph-name="Zdotaccent" unicode="&#x17b;" horiz-adv-x="592" 
d="M38 0v123l342 453h-327v124h490v-122l-343 -454h354v-124h-516zM226 768v118h140v-118h-140z" />
    <glyph glyph-name="zdotaccent" unicode="&#x17c;" horiz-adv-x="533" 
d="M48 0v113l256 298h-249v113h405v-113l-259 -298h273v-113h-426zM195 595v110h130v-110h-130z" />
    <glyph glyph-name="Zcaron" unicode="&#x17d;" horiz-adv-x="592" 
d="M38 0v123l342 453h-327v124h490v-122l-343 -454h354v-124h-516zM246 763l-101 106v44h106l52 -71l51 71h104v-44l-102 -106h-110z" />
    <glyph glyph-name="zcaron" unicode="&#x17e;" horiz-adv-x="533" 
d="M48 0v113l256 298h-249v113h405v-113l-259 -298h273v-113h-426zM211 590l-94 99v41h99l48 -66l48 66h97v-41l-95 -99h-103z" />
    <glyph glyph-name="florin" unicode="&#x192;" horiz-adv-x="374" 
d="M71 11l32 400h-68v113h77c8 100 55 183 206 183c11 0 26 -1 38 -2v-116h-21c-63 0 -89 -17 -93 -65h114v-113h-123l-32 -400c-8 -100 -55 -183 -206 -183c-11 0 -26 1 -38 2v116h21c63 0 89 17 93 65z" />
    <glyph glyph-name="scommaaccent" unicode="&#x219;" horiz-adv-x="559" 
d="M284 -12c-138 0 -231 74 -235 192h129c6 -47 52 -74 122 -74c47 0 77 18 77 44c0 19 -10 30 -35 36l-145 37c-66 17 -137 51 -137 145c0 103 79 168 213 168s217 -65 221 -180h-130c-3 41 -40 62 -101 62c-57 0 -77 -21 -77 -42c0 -20 16 -30 45 -37l149 -37
c69 -17 123 -55 123 -142c0 -107 -87 -172 -219 -172zM187 -261l33 194h118v-55l-66 -139h-85z" />
    <glyph glyph-name="circumflex" unicode="&#x2c6;" horiz-adv-x="408" 
d="M58 590v41l94 99h103l95 -99v-41h-99l-48 54l-48 -54h-97z" />
    <glyph glyph-name="caron" unicode="&#x2c7;" horiz-adv-x="408" 
d="M152 590l-94 99v41h99l48 -66l48 66h97v-41l-95 -99h-103z" />
    <glyph glyph-name="breve" unicode="&#x2d8;" horiz-adv-x="408" 
d="M204 571c-97 0 -164 50 -164 137v12h111v-11c0 -26 15 -44 53 -44c40 0 55 18 55 44v11h109v-12c0 -87 -67 -137 -164 -137z" />
    <glyph glyph-name="dotaccent" unicode="&#x2d9;" horiz-adv-x="246" 
d="M58 595v110h130v-110h-130z" />
    <glyph glyph-name="ring" unicode="&#x2da;" horiz-adv-x="336" 
d="M168 635c18 0 34 14 34 33s-16 33 -34 33s-34 -14 -34 -33s16 -33 34 -33zM168 565c-60 0 -110 46 -110 103s50 103 110 103s110 -46 110 -103s-50 -103 -110 -103z" />
    <glyph glyph-name="ogonek" unicode="&#x2db;" horiz-adv-x="284" 
d="M153 -160c-65 0 -105 28 -105 73c0 24 15 54 50 87h73c-27 -22 -37 -39 -37 -56s16 -26 45 -26h31v-78h-57z" />
    <glyph glyph-name="tilde" unicode="&#x2dc;" horiz-adv-x="483" 
d="M347 729l78 -46c-27 -58 -63 -103 -120 -103c-22 0 -45 10 -63 21l-24 15c-12 7 -21 14 -36 14c-16 0 -26 -10 -46 -44l-78 46c27 58 63 103 120 103c22 0 45 -10 63 -21l24 -15c12 -7 21 -14 36 -14c16 0 26 10 46 44z" />
    <glyph glyph-name="hungarumlaut" unicode="&#x2dd;" horiz-adv-x="479" 
d="M58 590l71 140h117v-45l-84 -95h-104zM234 590l70 140h117v-45l-83 -95h-104z" />
    <glyph glyph-name="brevecap" horiz-adv-x="769" 
d="M385 742c-97 0 -165 46 -165 133v13h111v-12c0 -25 16 -44 54 -44c39 0 54 19 54 44v12h110v-13c0 -87 -67 -133 -164 -133z" />
    <glyph glyph-name="uni03A9" unicode="&#x3a9;" horiz-adv-x="725" 
d="M67 0v124h81c-60 46 -65 100 -65 161v177c0 160 109 253 279 253c171 0 280 -93 280 -253v-177c0 -61 -5 -115 -66 -161h82v-124h-242v124c65 18 84 96 84 152v193c0 60 -43 116 -138 116s-137 -56 -137 -116v-193c0 -56 19 -134 84 -152v-124h-242z" />
    <glyph glyph-name="pi" unicode="&#x3c0;" horiz-adv-x="708" 
d="M127 0v411h-99v113h652v-113h-99v-411h-130v411h-194v-411h-130z" />
    <glyph glyph-name="uni0401" unicode="&#x401;" horiz-adv-x="594" 
d="M88 0v700h456v-124h-314v-166h268v-118h-268v-168h316v-124h-458zM138 768v118h139v-118h-139zM355 768v118h139v-118h-139z" />
    <glyph glyph-name="uni0402" unicode="&#x402;" horiz-adv-x="752" 
d="M190 0v576h-172v124h539v-124h-225v-152c44 7 77 9 120 9c165 0 257 -84 257 -217c0 -131 -72 -216 -207 -216h-73v124h54c50 0 82 31 82 86c0 62 -49 93 -127 93c-43 0 -70 -2 -106 -7v-296h-142z" />
    <glyph glyph-name="uni0403" unicode="&#x403;" horiz-adv-x="566" 
d="M231 762l76 151h126v-49l-90 -102h-112zM88 0v700h440v-124h-298v-576h-142z" />
    <glyph glyph-name="afii10053" unicode="&#x404;" horiz-adv-x="661" 
d="M349 -15c-178 0 -281 93 -281 252v226c0 159 103 252 281 252c126 0 254 -70 254 -243h-130c-2 77 -63 113 -133 113c-88 0 -130 -45 -130 -117v-59h222v-118h-222v-59c0 -72 42 -117 130 -117c67 0 131 30 133 113h130c0 -173 -130 -243 -254 -243z" />
    <glyph glyph-name="afii10054" unicode="&#x405;" horiz-adv-x="648" 
d="M317 -15c-150 0 -274 80 -274 242h142c0 -91 82 -112 140 -112c75 0 115 32 115 76c0 50 -57 64 -163 104l-29 11c-89 34 -187 79 -187 198c0 127 98 211 259 211c151 0 264 -67 264 -236h-142c0 80 -60 106 -124 106c-70 0 -114 -28 -114 -73c0 -52 51 -64 118 -88
l28 -10c125 -45 240 -88 240 -216c0 -122 -92 -213 -273 -213z" />
    <glyph glyph-name="uni0406" unicode="&#x406;" horiz-adv-x="318" 
d="M88 0v700h142v-700h-142z" />
    <glyph glyph-name="uni0407" unicode="&#x407;" horiz-adv-x="318" 
d="M88 0v700h142v-700h-142zM-18 768v118h139v-118h-139zM199 768v118h140v-118h-140z" />
    <glyph glyph-name="uni0408" unicode="&#x408;" horiz-adv-x="584" 
d="M263 -15c-138 0 -245 54 -245 224v31h142v-31c0 -67 40 -94 103 -94c52 0 102 25 102 99v486h142v-491c0 -164 -111 -224 -244 -224z" />
    <glyph glyph-name="uni0409" unicode="&#x409;" horiz-adv-x="1011" 
d="M601 124h142c41 0 81 28 81 94s-40 94 -81 94h-142v-188zM146 366v334h455v-264h168c125 0 199 -85 199 -218s-74 -218 -199 -218h-310v576h-183v-234c0 -252 -83 -342 -256 -342v130c99 0 126 41 126 236z" />
    <glyph glyph-name="uni040A" unicode="&#x40a;" horiz-adv-x="1038" 
d="M486 0v312h-256v-312h-142v700h142v-264h256v264h142v-264h168c125 0 199 -85 199 -218s-74 -218 -199 -218h-310zM628 124h142c41 0 81 28 81 94s-40 94 -81 94h-142v-188z" />
    <glyph glyph-name="uni040B" unicode="&#x40b;" horiz-adv-x="765" 
d="M190 0v576h-172v124h539v-124h-225v-152c37 6 75 9 115 9c127 0 260 -38 260 -211v-222h-142v206c0 62 -38 97 -129 97c-43 0 -71 -3 -104 -9v-294h-142z" />
    <glyph glyph-name="uni040C" unicode="&#x40c;" horiz-adv-x="637" 
d="M88 0v700h142v-288h74l169 288h132v-47l-177 -295l192 -311v-47h-141l-175 288h-74v-288h-142zM267 762l76 151h126v-49l-90 -102h-112z" />
    <glyph glyph-name="uni040E" unicode="&#x40e;" horiz-adv-x="597" 
d="M162 47l79 159l-233 447v47h131l174 -342l152 342h124v-47l-291 -653h-136v47zM304 742c-97 0 -165 46 -165 133v13h111v-12c0 -25 16 -44 54 -44c39 0 54 19 54 44v12h110v-13c0 -87 -67 -133 -164 -133z" />
    <glyph glyph-name="uni040F" unicode="&#x40f;" horiz-adv-x="711" 
d="M290 -138v138h-202v700h142v-576h251v576h142v-700h-203v-138h-130z" />
    <glyph glyph-name="uni0410" unicode="&#x410;" horiz-adv-x="660" 
d="M18 0v47l242 653h139l243 -653v-47h-140l-56 164h-239l-58 -164h-131zM249 282h154l-76 228z" />
    <glyph glyph-name="uni0411" unicode="&#x411;" horiz-adv-x="668" 
d="M88 0v700h489v-124h-347v-140h190c126 0 200 -85 200 -218s-74 -218 -200 -218h-332zM230 124h165c40 0 81 28 81 94s-41 94 -81 94h-165v-188z" />
    <glyph glyph-name="uni0412" unicode="&#x412;" horiz-adv-x="667" 
d="M88 0v700h296c127 0 207 -65 207 -193c0 -68 -26 -115 -78 -144c58 -25 106 -69 106 -166c0 -132 -79 -197 -207 -197h-324zM230 409h146c37 0 72 25 72 84c0 58 -35 83 -72 83h-146v-167zM230 124h175c37 0 72 25 72 84c0 58 -35 83 -72 83h-175v-167z" />
    <glyph glyph-name="uni0413" unicode="&#x413;" horiz-adv-x="566" 
d="M88 0v700h440v-124h-298v-576h-142z" />
    <glyph glyph-name="uni0414" unicode="&#x414;" horiz-adv-x="721" 
d="M23 -138v262h55c36 47 72 108 72 261v315h459v-576h79v-262h-130v138h-405v-138h-130zM230 124h237v452h-187v-191c0 -148 -26 -208 -50 -261z" />
    <glyph glyph-name="uni0415" unicode="&#x415;" horiz-adv-x="594" 
d="M88 0v700h456v-124h-314v-166h268v-118h-268v-168h316v-124h-458z" />
    <glyph glyph-name="uni0416" unicode="&#x416;" horiz-adv-x="947" 
d="M403 0v288h-85l-146 -288h-143v47l168 313l-154 293v47h130l148 -288h82v288h142v-288h82l148 288h130v-47l-154 -293l168 -313v-47h-143l-146 288h-85v-288h-142z" />
    <glyph glyph-name="uni0417" unicode="&#x417;" horiz-adv-x="630" 
d="M325 -15c-146 0 -277 71 -277 245h142c0 -85 64 -115 135 -115s114 29 114 88s-42 87 -111 87h-90v118h90c61 0 96 30 96 84c0 52 -35 93 -103 93c-58 0 -113 -30 -113 -115h-142c0 174 119 245 255 245c159 0 247 -86 247 -208c0 -72 -39 -121 -87 -153
c55 -25 101 -71 101 -151c0 -131 -93 -218 -257 -218z" />
    <glyph glyph-name="uni0418" unicode="&#x418;" horiz-adv-x="721" 
d="M88 0v700h142v-446l273 446h130v-700h-142v446l-273 -446h-130z" />
    <glyph glyph-name="uni0419" unicode="&#x419;" horiz-adv-x="721" 
d="M88 0v700h142v-446l273 446h130v-700h-142v446l-273 -446h-130zM361 742c-97 0 -165 46 -165 133v13h111v-12c0 -25 16 -44 54 -44c39 0 54 19 54 44v12h110v-13c0 -87 -67 -133 -164 -133z" />
    <glyph glyph-name="uni041A" unicode="&#x41a;" horiz-adv-x="637" 
d="M88 0v700h142v-288h74l169 288h132v-47l-177 -295l192 -311v-47h-141l-175 288h-74v-288h-142z" />
    <glyph glyph-name="uni041B" unicode="&#x41b;" horiz-adv-x="689" 
d="M20 0v130c99 0 126 41 126 236v334h455v-700h-142v576h-183v-234c0 -252 -83 -342 -256 -342z" />
    <glyph glyph-name="uni041C" unicode="&#x41c;" horiz-adv-x="814" 
d="M451 218h-88l-138 230v-448h-137v700h137l184 -309l184 309h133v-700h-137v448z" />
    <glyph glyph-name="uni041D" unicode="&#x41d;" horiz-adv-x="716" 
d="M88 0v700h142v-288h256v288h142v-700h-142v288h-256v-288h-142z" />
    <glyph glyph-name="uni041E" unicode="&#x41e;" horiz-adv-x="694" 
d="M347 115c95 0 137 56 137 116v238c0 60 -42 116 -137 116s-137 -56 -137 -116v-238c0 -60 42 -116 137 -116zM347 -15c-170 0 -279 93 -279 253v224c0 160 109 253 279 253c171 0 279 -93 279 -253v-224c0 -160 -108 -253 -279 -253z" />
    <glyph glyph-name="uni041F" unicode="&#x41f;" horiz-adv-x="710" 
d="M88 0v700h534v-700h-142v576h-250v-576h-142z" />
    <glyph glyph-name="uni0420" unicode="&#x420;" horiz-adv-x="645" 
d="M88 0v700h313c126 0 201 -86 201 -221c0 -134 -75 -220 -201 -220h-171v-259h-142zM230 383h145c42 0 83 29 83 97c0 67 -41 96 -83 96h-145v-193z" />
    <glyph glyph-name="uni0421" unicode="&#x421;" horiz-adv-x="661" 
d="M343 -15c-178 0 -275 93 -275 252v226c0 159 97 252 275 252c138 0 260 -72 260 -245v-10h-142v10c0 83 -62 115 -127 115c-84 0 -124 -43 -124 -112v-246c0 -69 40 -112 124 -112c65 0 127 30 127 115v10h142v-10c0 -173 -122 -245 -260 -245z" />
    <glyph glyph-name="uni0422" unicode="&#x422;" horiz-adv-x="571" 
d="M215 0v576h-197v124h535v-124h-196v-576h-142z" />
    <glyph glyph-name="uni0423" unicode="&#x423;" horiz-adv-x="597" 
d="M162 47l79 159l-233 447v47h131l174 -342l152 342h124v-47l-291 -653h-136v47z" />
    <glyph glyph-name="uni0424" unicode="&#x424;" horiz-adv-x="885" 
d="M371 -12v89h-39c-148 0 -284 86 -284 249v72c0 163 136 249 284 249h39v77h142v-77h40c147 0 284 -86 284 -249v-72c0 -163 -137 -249 -284 -249h-40v-89h-142zM326 201h45v322h-45c-84 0 -136 -60 -136 -127v-67c0 -67 52 -128 136 -128zM513 201h46
c84 0 136 61 136 128v67c0 67 -52 127 -136 127h-46v-322z" />
    <glyph glyph-name="uni0425" unicode="&#x425;" horiz-adv-x="660" 
d="M28 0v47l214 317l-194 289v47h145l137 -225l146 225h136v-47l-196 -288l216 -318v-47h-144l-161 250l-163 -250h-136z" />
    <glyph glyph-name="uni0426" unicode="&#x426;" horiz-adv-x="728" 
d="M565 -138v138h-477v700h142v-576h244v576h142v-576h79v-262h-130z" />
    <glyph glyph-name="uni0427" unicode="&#x427;" horiz-adv-x="663" 
d="M433 0v254c-37 -6 -75 -11 -115 -11c-127 0 -260 38 -260 211v246h142v-230c0 -62 38 -97 129 -97c42 0 70 3 104 11v316h142v-700h-142z" />
    <glyph glyph-name="uni0428" unicode="&#x428;" horiz-adv-x="1005" 
d="M88 0v700h142v-576h202v576h142v-576h201v576h142v-700h-829z" />
    <glyph glyph-name="uni0429" unicode="&#x429;" horiz-adv-x="1029" 
d="M866 -138v138h-778v700h142v-576h202v576h142v-576h201v576h142v-576h79v-262h-130z" />
    <glyph glyph-name="uni042A" unicode="&#x42a;" horiz-adv-x="715" 
d="M163 0v576h-155v124h297v-264h168c125 0 199 -85 199 -218s-74 -218 -199 -218h-310zM305 124h142c41 0 81 28 81 94s-40 94 -81 94h-142v-188z" />
    <glyph glyph-name="uni042B" unicode="&#x42b;" horiz-adv-x="900" 
d="M670 0v700h142v-700h-142zM88 0v700h142v-264h168c125 0 199 -85 199 -218s-74 -218 -199 -218h-310zM230 124h142c41 0 81 28 81 94s-40 94 -81 94h-142v-188z" />
    <glyph glyph-name="uni042C" unicode="&#x42c;" horiz-adv-x="640" 
d="M88 0v700h142v-264h168c125 0 199 -85 199 -218s-74 -218 -199 -218h-310zM230 124h142c41 0 81 28 81 94s-40 94 -81 94h-142v-188z" />
    <glyph glyph-name="uni042D" unicode="&#x42d;" horiz-adv-x="662" 
d="M313 -15c-124 0 -254 70 -254 243h130c2 -83 66 -113 133 -113c88 0 130 45 130 117v59h-222v118h222v59c0 72 -42 117 -130 117c-70 0 -131 -36 -133 -113h-130c0 173 128 243 254 243c178 0 281 -93 281 -252v-226c0 -159 -103 -252 -281 -252z" />
    <glyph glyph-name="uni042E" unicode="&#x42e;" horiz-adv-x="950" 
d="M88 0v700h142v-288h114v59c0 154 105 244 269 244c165 0 269 -90 269 -244v-242c0 -154 -104 -244 -269 -244c-164 0 -269 90 -269 244v59h-114v-288h-142zM613 115c88 0 127 52 127 108v254c0 56 -39 108 -127 108s-127 -52 -127 -108v-254c0 -56 39 -108 127 -108z" />
    <glyph glyph-name="uni042F" unicode="&#x42f;" horiz-adv-x="652" 
d="M39 0v47l132 222c-72 35 -117 106 -117 202c0 141 75 229 218 229h292v-700h-142v250h-113l-138 -250h-132zM308 370h114v206h-119c-66 0 -104 -28 -104 -102c0 -76 43 -104 109 -104z" />
    <glyph glyph-name="uni0430" unicode="&#x430;" horiz-adv-x="566" 
d="M219 -12c-94 0 -176 53 -176 156c0 108 70 170 212 170h108v33c0 45 -26 71 -84 71c-59 0 -84 -26 -84 -60h-127c0 103 67 178 211 178s214 -75 214 -180v-356h-75l-38 51c-38 -35 -83 -63 -161 -63zM246 106c50 0 86 17 117 51v58h-108c-68 0 -82 -32 -82 -54
c0 -35 26 -55 73 -55z" />
    <glyph glyph-name="uni0431" unicode="&#x431;" horiz-adv-x="573" 
d="M291 -12c-137 0 -228 69 -228 192v183c0 143 41 228 147 259l127 38c31 10 30 34 30 40v5h130v-5c0 -111 -52 -132 -138 -156l-93 -26c-55 -15 -84 -40 -84 -111v-15c23 35 74 76 149 76c101 0 187 -56 187 -192v-94c0 -120 -92 -194 -227 -194zM291 106
c65 0 97 37 97 82v79c0 54 -42 83 -92 83c-46 0 -79 -23 -103 -51v-111c0 -44 31 -82 98 -82z" />
    <glyph glyph-name="uni0432" unicode="&#x432;" horiz-adv-x="576" 
d="M78 0v524h242c110 0 182 -40 182 -140c0 -52 -20 -89 -52 -114c49 -23 76 -59 76 -116c0 -124 -79 -154 -198 -154h-250zM208 312h107c36 0 50 23 50 49c0 30 -14 50 -50 50h-107v-99zM208 113h128c37 0 51 23 51 50c0 31 -14 50 -51 50h-128v-100z" />
    <glyph glyph-name="uni0433" unicode="&#x433;" horiz-adv-x="474" 
d="M78 0v524h358v-113h-228v-411h-130z" />
    <glyph glyph-name="uni0434" unicode="&#x434;" horiz-adv-x="642" 
d="M26 -124v237h49c37 33 50 101 50 181v230h408v-411h76v-237h-127v124h-328v-124h-128zM216 113h187v298h-155v-138c0 -47 -11 -114 -32 -160z" />
    <glyph glyph-name="uni0435" unicode="&#x435;" horiz-adv-x="556" 
d="M283 -12c-137 0 -228 69 -228 192v162c0 120 91 194 228 194c129 0 218 -69 218 -192v-125h-316v-37c0 -44 31 -76 98 -76c50 0 78 20 87 53h130c-10 -107 -89 -171 -217 -171zM185 318h186v26c0 45 -33 74 -93 74c-62 0 -93 -30 -93 -74v-26z" />
    <glyph glyph-name="uni0436" unicode="&#x436;" horiz-adv-x="795" 
d="M38 0v61l131 205l-123 197v61h107l128 -206h52v206h130v-206h53l127 206h107v-61l-123 -197l131 -205v-61h-115l-124 205h-56v-205h-130v205h-55l-124 -205h-116z" />
    <glyph glyph-name="uni0437" unicode="&#x437;" horiz-adv-x="551" 
d="M280 -12c-147 0 -231 81 -232 205h126c0 -50 25 -87 102 -87c53 0 83 23 83 57c0 31 -20 50 -57 50h-79v104h78c33 0 49 21 49 48c0 34 -29 53 -75 53c-70 0 -90 -36 -90 -84h-127c1 127 75 202 221 202c125 0 209 -60 209 -158c0 -48 -23 -85 -55 -107
c43 -24 64 -63 64 -112c0 -110 -78 -171 -217 -171z" />
    <glyph glyph-name="uni0438" unicode="&#x438;" horiz-adv-x="617" 
d="M78 0v524h130v-323l201 323h130v-524h-130v323l-201 -323h-130z" />
    <glyph glyph-name="uni0439" unicode="&#x439;" horiz-adv-x="617" 
d="M308 571c-97 0 -164 50 -164 137v12h111v-11c0 -26 15 -44 53 -44c40 0 55 18 55 44v11h109v-12c0 -87 -67 -137 -164 -137zM78 0v524h130v-323l201 323h130v-524h-130v323l-201 -323h-130z" />
    <glyph glyph-name="uni043A" unicode="&#x43a;" horiz-adv-x="560" 
d="M78 0v524h130v-206h55l142 206h111v-61l-136 -197l143 -205v-61h-119l-142 205h-54v-205h-130z" />
    <glyph glyph-name="uni043B" unicode="&#x43b;" horiz-adv-x="609" 
d="M32 0v118h13c59 0 82 36 82 98v308h404v-524h-130v411h-152v-194c0 -150 -89 -217 -185 -217h-32z" />
    <glyph glyph-name="uni043C" unicode="&#x43c;" horiz-adv-x="701" 
d="M623 524v-524h-130v323l-113 -186h-60l-112 186v-323h-130v524h130l145 -231l140 231h130z" />
    <glyph glyph-name="uni043D" unicode="&#x43d;" horiz-adv-x="606" 
d="M78 0v524h130v-205h190v205h130v-524h-130v206h-190v-206h-130z" />
    <glyph glyph-name="uni043E" unicode="&#x43e;" horiz-adv-x="565" 
d="M283 106c65 0 97 37 97 82v148c0 45 -32 82 -97 82c-67 0 -98 -38 -98 -82v-148c0 -44 31 -82 98 -82zM283 -12c-152 0 -228 85 -228 194v160c0 109 76 194 228 194c151 0 227 -85 227 -194v-160c0 -109 -76 -194 -227 -194z" />
    <glyph glyph-name="uni043F" unicode="&#x43f;" horiz-adv-x="601" 
d="M78 0v524h445v-524h-130v411h-185v-411h-130z" />
    <glyph glyph-name="uni0440" unicode="&#x440;" horiz-adv-x="596" 
d="M78 -160v684h75l38 -52c36 34 80 64 156 64c102 0 186 -61 186 -192v-164c0 -131 -84 -192 -186 -192c-73 0 -117 30 -139 49v-197h-130zM208 363v-202c26 -26 61 -55 112 -55c40 0 83 29 83 84v144c0 55 -43 84 -83 84c-51 0 -86 -29 -112 -55z" />
    <glyph glyph-name="uni0441" unicode="&#x441;" horiz-adv-x="543" 
d="M277 -12c-134 0 -222 74 -222 194v160c0 120 88 194 222 194c130 0 215 -71 215 -196v-6h-130v6c0 47 -30 78 -85 78c-64 0 -92 -30 -92 -74v-164c0 -44 28 -74 92 -74c55 0 85 31 85 77v10h130v-7c0 -123 -89 -198 -215 -198z" />
    <glyph glyph-name="uni0442" unicode="&#x442;" horiz-adv-x="495" 
d="M183 0v411h-165v113h459v-113h-164v-411h-130z" />
    <glyph glyph-name="uni0443" unicode="&#x443;" horiz-adv-x="515" 
d="M149 -160v47l49 113l-180 463v61h120l124 -347l117 347h118v-61l-242 -623h-106z" />
    <glyph glyph-name="uni0444" unicode="&#x444;" horiz-adv-x="821" 
d="M345 -160v199c-21 -24 -62 -51 -122 -51c-86 0 -160 60 -160 179v190c0 119 74 179 160 179c60 0 101 -27 122 -51v220h130v-220c22 24 62 51 123 51c86 0 160 -60 160 -179v-190c0 -119 -74 -179 -160 -179c-61 0 -101 27 -123 51v-199h-130zM266 106c37 0 61 14 79 31
v250c-18 17 -42 31 -79 31c-39 0 -73 -31 -73 -79v-154c0 -48 34 -79 73 -79zM555 106c39 0 73 31 73 79v154c0 48 -34 79 -73 79c-37 0 -61 -14 -80 -31v-250c19 -17 43 -31 80 -31z" />
    <glyph glyph-name="uni0445" unicode="&#x445;" horiz-adv-x="529" 
d="M38 0v61l145 201l-143 201v61h117l107 -163l109 163h110v-61l-139 -196l148 -206v-61h-116l-114 174l-113 -174h-111z" />
    <glyph glyph-name="uni0446" unicode="&#x446;" horiz-adv-x="627" 
d="M466 -124v124h-388v524h130v-411h179v411h130v-411h77v-237h-128z" />
    <glyph glyph-name="uni0447" unicode="&#x447;" horiz-adv-x="573" 
d="M365 0v178c-25 -5 -60 -12 -105 -12c-128 0 -212 51 -212 175v183h130v-169c0 -53 40 -71 104 -71c38 0 63 6 83 9v231h130v-524h-130z" />
    <glyph glyph-name="uni0448" unicode="&#x448;" horiz-adv-x="818" 
d="M78 0v524h130v-411h136v411h130v-411h136v411h130v-524h-662z" />
    <glyph glyph-name="uni0449" unicode="&#x449;" horiz-adv-x="850" 
d="M689 -124v124h-611v524h130v-411h136v411h130v-411h136v411h130v-411h77v-237h-128z" />
    <glyph glyph-name="uni044A" unicode="&#x44a;" horiz-adv-x="591" 
d="M264 362h133c104 0 166 -71 166 -181s-62 -181 -166 -181h-263v411h-136v113h266v-162zM264 113h100c50 0 69 31 69 68c0 42 -19 68 -69 68h-100v-136z" />
    <glyph glyph-name="uni044B" unicode="&#x44b;" horiz-adv-x="771" 
d="M563 0v524h130v-524h-130zM208 362h123c104 0 166 -71 166 -181s-62 -181 -166 -181h-253v524h130v-162zM208 113h90c50 0 69 31 69 68c0 42 -19 68 -69 68h-90v-136z" />
    <glyph glyph-name="uni044C" unicode="&#x44c;" horiz-adv-x="535" 
d="M208 362h133c104 0 166 -71 166 -181s-62 -181 -166 -181h-263v524h130v-162zM208 113h100c50 0 69 31 69 68c0 42 -19 68 -69 68h-100v-136z" />
    <glyph glyph-name="uni044D" unicode="&#x44d;" horiz-adv-x="550" 
d="M181 193v-6c0 -49 35 -81 92 -81c67 0 92 33 92 79v24h-140v104h140v26c0 46 -25 79 -92 79c-57 0 -92 -32 -92 -81v-3h-130v3c0 127 88 199 220 199c137 0 224 -75 224 -197v-154c0 -122 -87 -197 -224 -197c-130 0 -220 76 -220 201v4h130z" />
    <glyph glyph-name="uni044E" unicode="&#x44e;" horiz-adv-x="791" 
d="M291 319v27c0 107 74 190 223 190c148 0 222 -83 222 -190v-168c0 -107 -74 -190 -222 -190c-149 0 -223 83 -223 190v27h-83v-205h-130v524h130v-205h83zM514 106c62 0 92 35 92 78v156c0 43 -30 78 -92 78c-64 0 -93 -36 -93 -78v-156c0 -42 29 -78 93 -78z" />
    <glyph glyph-name="uni044F" unicode="&#x44f;" horiz-adv-x="559" 
d="M48 0v61l95 132c-59 22 -98 70 -98 161c0 112 69 170 154 170h282v-524h-130v186h-62l-120 -186h-121zM236 290h115v121h-115c-45 0 -61 -24 -61 -61c0 -32 16 -60 61 -60z" />
    <glyph glyph-name="uni0451" unicode="&#x451;" horiz-adv-x="556" 
d="M283 -12c-137 0 -228 69 -228 192v162c0 120 91 194 228 194c129 0 218 -69 218 -192v-125h-316v-37c0 -44 31 -76 98 -76c50 0 78 20 87 53h130c-10 -107 -89 -171 -217 -171zM185 318h186v26c0 45 -33 74 -93 74c-62 0 -93 -30 -93 -74v-26zM117 595v110h130v-110h-130
zM320 595v110h130v-110h-130z" />
    <glyph glyph-name="uni0452" unicode="&#x452;" horiz-adv-x="599" 
d="M410 22v209c0 64 -36 93 -81 93c-51 0 -93 -37 -109 -55v-269h-130v531h-78v92h78v82h130v-82h189v-92h-189v-138c32 26 76 49 138 49c113 0 182 -76 182 -203v-219c0 -88 -45 -192 -179 -192c-12 0 -23 0 -37 2v116h22c34 0 64 15 64 76z" />
    <glyph glyph-name="uni0453" unicode="&#x453;" horiz-adv-x="474" 
d="M183 590l71 140h117v-45l-84 -95h-104zM78 0v524h358v-113h-228v-411h-130z" />
    <glyph glyph-name="uni0454" unicode="&#x454;" horiz-adv-x="550" 
d="M369 187v6h130v-4c0 -125 -90 -201 -220 -201c-137 0 -224 75 -224 197v154c0 122 87 197 224 197c132 0 220 -72 220 -199v-3h-130v3c0 49 -35 81 -92 81c-67 0 -92 -33 -92 -79v-26h140v-104h-140v-24c0 -46 25 -79 92 -79c57 0 92 32 92 81z" />
    <glyph glyph-name="uni0455" unicode="&#x455;" horiz-adv-x="559" 
d="M284 -12c-138 0 -231 74 -235 192h129c6 -47 52 -74 122 -74c47 0 77 18 77 44c0 19 -10 30 -35 36l-145 37c-66 17 -137 51 -137 145c0 103 79 168 213 168s217 -65 221 -180h-130c-3 41 -40 62 -101 62c-57 0 -77 -21 -77 -42c0 -20 16 -30 45 -37l149 -37
c69 -17 123 -55 123 -142c0 -107 -87 -172 -219 -172z" />
    <glyph glyph-name="uni0456" unicode="&#x456;" horiz-adv-x="286" 
d="M78 0v524h130v-524h-130zM78 595v110h130v-110h-130z" />
    <glyph glyph-name="uni0457" unicode="&#x457;" horiz-adv-x="286" 
d="M-23 595v110h130v-110h-130zM180 595v110h130v-110h-130zM78 0v524h130v-524h-130z" />
    <glyph glyph-name="uni0458" unicode="&#x458;" horiz-adv-x="287" 
d="M79 524h130v-504c0 -88 -45 -192 -179 -192c-12 0 -23 0 -37 2v116h22c34 0 64 15 64 76v502zM79 595v110h130v-110h-130z" />
    <glyph glyph-name="uni0459" unicode="&#x459;" horiz-adv-x="858" 
d="M32 0v118h13c59 0 82 36 82 98v308h404v-162h133c104 0 166 -71 166 -181s-62 -181 -166 -181h-263v411h-152v-194c0 -150 -89 -217 -185 -217h-32zM531 113h100c50 0 69 31 69 68c0 42 -19 68 -69 68h-100v-136z" />
    <glyph glyph-name="uni045A" unicode="&#x45a;" horiz-adv-x="855" 
d="M528 362h133c104 0 166 -71 166 -181s-62 -181 -166 -181h-263v206h-190v-206h-130v524h130v-205h190v205h130v-162zM528 113h100c50 0 69 31 69 68c0 42 -19 68 -69 68h-100v-136z" />
    <glyph glyph-name="uni045B" unicode="&#x45b;" horiz-adv-x="602" 
d="M220 269v-269h-130v531h-78v92h78v82h130v-82h189v-92h-189v-138c32 26 76 49 138 49c113 0 182 -76 182 -203v-239h-130v231c0 64 -36 93 -81 93c-51 0 -93 -37 -109 -55z" />
    <glyph glyph-name="uni045C" unicode="&#x45c;" horiz-adv-x="560" 
d="M218 590l71 140h117v-45l-84 -95h-104zM78 0v524h130v-206h55l142 206h111v-61l-136 -197l143 -205v-61h-119l-142 205h-54v-205h-130z" />
    <glyph glyph-name="uni045E" unicode="&#x45e;" horiz-adv-x="515" 
d="M149 -160v47l49 113l-180 463v61h120l124 -347l117 347h118v-61l-242 -623h-106zM260 571c-97 0 -164 50 -164 137v12h111v-11c0 -26 15 -44 53 -44c40 0 55 18 55 44v11h109v-12c0 -87 -67 -137 -164 -137z" />
    <glyph glyph-name="uni045F" unicode="&#x45f;" horiz-adv-x="601" 
d="M237 -124v124h-159v524h130v-411h185v411h130v-524h-159v-124h-127z" />
    <glyph glyph-name="uni0490" unicode="&#x490;" horiz-adv-x="556" 
d="M88 0v700h300v130h130v-254h-288v-576h-142z" />
    <glyph glyph-name="uni0491" unicode="&#x491;" horiz-adv-x="469" 
d="M78 0v524h225v127h128v-240h-223v-411h-130z" />
    <glyph glyph-name="uni1E61" unicode="&#x1e61;" horiz-adv-x="559" 
d="M284 -12c-138 0 -231 74 -235 192h129c6 -47 52 -74 122 -74c47 0 77 18 77 44c0 19 -10 30 -35 36l-145 37c-66 17 -137 51 -137 145c0 103 79 168 213 168s217 -65 221 -180h-130c-3 41 -40 62 -101 62c-57 0 -77 -21 -77 -42c0 -20 16 -30 45 -37l149 -37
c69 -17 123 -55 123 -142c0 -107 -87 -172 -219 -172zM214 595v110h130v-110h-130z" />
    <glyph glyph-name="uni1E63" unicode="&#x1e63;" horiz-adv-x="559" 
d="M284 -12c-138 0 -231 74 -235 192h129c6 -47 52 -74 122 -74c47 0 77 18 77 44c0 19 -10 30 -35 36l-145 37c-66 17 -137 51 -137 145c0 103 79 168 213 168s217 -65 221 -180h-130c-3 41 -40 62 -101 62c-57 0 -77 -21 -77 -42c0 -20 16 -30 45 -37l149 -37
c69 -17 123 -55 123 -142c0 -107 -87 -172 -219 -172zM206 -182v110h130v-110h-130z" />
    <glyph glyph-name="endash" unicode="&#x2013;" horiz-adv-x="605" 
d="M58 259v108h489v-108h-489z" />
    <glyph glyph-name="emdash" unicode="&#x2014;" horiz-adv-x="856" 
d="M58 259v108h740v-108h-740z" />
    <glyph glyph-name="quoteleft" unicode="&#x2018;" horiz-adv-x="260" 
d="M228 705l-50 -262h-128v55l86 207h92z" />
    <glyph glyph-name="quoteright" unicode="&#x2019;" horiz-adv-x="260" 
d="M32 443l50 262h128v-55l-86 -207h-92z" />
    <glyph glyph-name="quotesinglbase" unicode="&#x201a;" horiz-adv-x="260" 
d="M32 -119l50 262h128v-55l-86 -207h-92z" />
    <glyph glyph-name="quotedblleft" unicode="&#x201c;" horiz-adv-x="464" 
d="M228 705l-50 -262h-128v55l86 207h92zM432 705l-50 -262h-128v55l86 207h92z" />
    <glyph glyph-name="quotedblright" unicode="&#x201d;" horiz-adv-x="464" 
d="M32 443l50 262h128v-55l-86 -207h-92zM236 443l50 262h128v-55l-86 -207h-92z" />
    <glyph glyph-name="quotedblbase" unicode="&#x201e;" horiz-adv-x="464" 
d="M236 -119l50 262h128v-55l-86 -207h-92zM32 -119l50 262h128v-55l-86 -207h-92z" />
    <glyph glyph-name="dagger" unicode="&#x2020;" horiz-adv-x="547" 
d="M209 -160v571h-181v113h181v181h130v-181h180v-113h-180v-571h-130z" />
    <glyph glyph-name="daggerdbl" unicode="&#x2021;" horiz-adv-x="547" 
d="M209 -160v284h-181v113h181v174h-181v113h181v181h130v-181h180v-113h-180v-174h180v-113h-180v-284h-130z" />
    <glyph glyph-name="bullet" unicode="&#x2022;" horiz-adv-x="454" 
d="M227 150c-105 0 -169 58 -169 166v8c0 108 64 166 169 166s169 -58 169 -166v-8c0 -107 -64 -166 -169 -166z" />
    <glyph glyph-name="ellipsis" unicode="&#x2026;" horiz-adv-x="765" 
d="M68 0v143h143v-143h-143zM311 0v143h143v-143h-143zM554 0v143h143v-143h-143z" />
    <glyph glyph-name="perthousand" unicode="&#x2030;" horiz-adv-x="1152" 
d="M196 449c28 0 44 20 44 45v83c0 25 -16 45 -44 45c-29 0 -44 -21 -44 -45v-83c0 -24 15 -45 44 -45zM196 356c-97 0 -158 52 -158 156v47c0 104 61 156 158 156s158 -52 158 -156v-47c0 -104 -61 -156 -158 -156zM596 78c28 0 44 20 44 45v83c0 24 -16 45 -44 45
c-29 0 -44 -21 -44 -45v-83c0 -24 15 -45 44 -45zM596 -15c-97 0 -158 52 -158 156v47c0 104 61 156 158 156s158 -52 158 -156v-47c0 -104 -61 -156 -158 -156zM956 78c28 0 44 20 44 45v83c0 24 -16 45 -44 45c-29 0 -43 -21 -43 -45v-83c0 -24 14 -45 43 -45zM956 -15
c-96 0 -158 52 -158 156v47c0 104 62 156 158 156c97 0 158 -52 158 -156v-47c0 -104 -61 -156 -158 -156zM146 0v47l409 653h92v-47l-409 -653h-92z" />
    <glyph glyph-name="guilsinglleft" unicode="&#x2039;" horiz-adv-x="336" 
d="M164 103l-128 211l128 210h112v-37l-104 -173l104 -174v-37h-112z" />
    <glyph glyph-name="guilsinglright" unicode="&#x203a;" horiz-adv-x="336" 
d="M300 314l-128 -211h-112v37l104 174l-104 173v37h112z" />
    <glyph glyph-name="fraction" unicode="&#x2044;" horiz-adv-x="397" 
d="M-52 0v47l409 653h92v-47l-409 -653h-92z" />
    <glyph glyph-name="fourinferior" unicode="&#x2084;" horiz-adv-x="362" 
d="M151 700h71v-53l-97 -151h69v61h97v-61h41v-83h-41v-55h-97v55h-174v81z" />
    <glyph glyph-name="Euro" unicode="&#x20ac;" horiz-adv-x="676" 
d="M371 -15c-146 0 -244 73 -258 221h-83v103h84v81h-84v103h85v5c11 132 99 217 256 217c131 0 247 -72 247 -245v-10h-122v10c0 93 -61 127 -126 127c-68 0 -116 -31 -125 -99v-5h156v-103h-157v-81h157v-103h-157c8 -61 44 -103 126 -103c74 0 126 34 126 127v10h122v-10
c0 -173 -104 -245 -247 -245z" />
    <glyph glyph-name="uni20B4" unicode="&#x20b4;" horiz-adv-x="695" 
d="M351 -15c-150 0 -242 79 -242 197c0 16 1 30 4 48h-73v93h615v-93h-413c-2 -14 -3 -25 -3 -37c0 -57 41 -90 112 -90c72 0 117 36 117 89h130c0 -130 -103 -207 -247 -207zM40 470h414c2 14 3 25 3 37c0 57 -39 90 -110 90c-72 0 -115 -36 -115 -89h-130
c0 130 101 207 245 207c150 0 240 -79 240 -197c0 -16 -1 -30 -4 -48h72v-93h-615v93z" />
    <glyph glyph-name="uni20BD" unicode="&#x20bd;" horiz-adv-x="640" 
d="M111 0v103h-83v103h83v75h-83v113h83v306h286c126 0 200 -82 200 -210s-74 -209 -200 -209h-156v-75h170v-103h-170v-103h-130zM241 394h140c43 0 86 28 86 96s-43 97 -86 97h-140v-193z" />
    <glyph glyph-name="uni2116" unicode="&#x2116;" horiz-adv-x="1024" 
d="M88 0v700h119l245 -435v435h130v-700h-120l-244 435v-435h-130zM826 449c28 0 44 20 44 45v83c0 25 -16 45 -44 45c-29 0 -44 -21 -44 -45v-83c0 -24 15 -45 44 -45zM826 356c-97 0 -158 52 -158 156v47c0 104 61 156 158 156s158 -52 158 -156v-47
c0 -104 -61 -156 -158 -156zM668 196v99h316v-99h-316z" />
    <glyph glyph-name="trademark" unicode="&#x2122;" horiz-adv-x="684" 
d="M317 377v323h73l85 -138l88 138h71v-323h-74v201l-62 -102h-47l-59 100v-199h-75zM99 377v257h-91v66h257v-66h-91v-257h-75z" />
    <glyph glyph-name="Omega" unicode="&#x2126;" horiz-adv-x="725" 
d="M67 0v124h81c-60 46 -65 100 -65 161v177c0 160 109 253 279 253c171 0 280 -93 280 -253v-177c0 -61 -5 -115 -66 -161h82v-124h-242v124c65 18 84 96 84 152v193c0 60 -43 116 -138 116s-137 -56 -137 -116v-193c0 -56 19 -134 84 -152v-124h-242z" />
    <glyph glyph-name="partialdiff" unicode="&#x2202;" horiz-adv-x="571" 
d="M255 -12c-125 0 -211 62 -211 166c0 18 1 40 9 124c14 135 105 192 208 192c74 0 118 -41 139 -76c1 18 1 43 1 42c-3 121 -73 153 -159 153c-49 0 -84 -7 -109 -12l8 116c34 9 83 14 134 14c156 0 244 -104 244 -253c0 -43 -7 -140 -19 -274
c-11 -123 -109 -192 -245 -192zM265 106c67 0 101 38 105 82l9 113c-21 28 -48 51 -95 51c-51 0 -96 -29 -102 -83c-6 -52 -7 -75 -7 -90c0 -41 29 -73 90 -73z" />
    <glyph glyph-name="Delta" unicode="&#x2206;" horiz-adv-x="660" 
d="M18 0v48l242 652h139l243 -652v-48h-624zM195 124h262l-130 386z" />
    <glyph glyph-name="product" unicode="&#x220f;" horiz-adv-x="680" 
d="M88 -75v775h504v-775h-130v657h-244v-657h-130z" />
    <glyph glyph-name="summation" unicode="&#x2211;" horiz-adv-x="571" 
d="M48 -75v118l151 271l-151 268v118h462v-118h-317l151 -268l-151 -271h330v-118h-475z" />
    <glyph glyph-name="minus" unicode="&#x2212;" horiz-adv-x="572" 
d="M62 259v108h448v-108h-448z" />
    <glyph glyph-name="radical" unicode="&#x221a;" horiz-adv-x="550" 
d="M242 -75l-153 409h-90v98h169l117 -347l162 712h98v-46l-192 -826h-111z" />
    <glyph glyph-name="infinity" unicode="&#x221e;" horiz-adv-x="906" 
d="M260 126c-127 0 -202 90 -202 197s75 196 202 196c70 0 130 -36 188 -94l6 -6l6 6c57 57 113 94 187 94c126 0 201 -89 201 -196s-75 -196 -201 -196c-73 0 -131 38 -189 96l-4 4l-4 -4c-59 -59 -118 -97 -190 -97zM263 249c48 0 82 43 110 74c-27 30 -62 73 -110 73
c-40 0 -75 -28 -75 -73s35 -74 75 -74zM644 249c41 0 76 29 76 74s-35 73 -76 73c-43 0 -72 -33 -109 -73c36 -39 66 -74 109 -74z" />
    <glyph glyph-name="integral" unicode="&#x222b;" horiz-adv-x="314" 
d="M2 -160v113h33c40 0 58 19 58 58v527c0 101 66 162 168 162h51v-113h-33c-40 0 -59 -19 -59 -58v-527c0 -101 -65 -162 -167 -162h-51z" />
    <glyph glyph-name="approxequal" unicode="&#x2248;" horiz-adv-x="536" 
d="M386 275l88 -51c-30 -65 -71 -116 -135 -116c-24 0 -50 11 -70 24l-27 17c-14 9 -24 15 -39 15c-18 0 -31 -11 -53 -49l-88 51c30 65 71 116 135 116c24 0 50 -11 70 -24l27 -17c14 -9 23 -15 39 -15c18 0 31 11 53 49zM386 529l88 -51c-30 -65 -71 -116 -135 -116
c-24 0 -50 11 -70 24l-27 17c-14 9 -24 15 -39 15c-18 0 -31 -11 -53 -49l-88 51c30 65 71 116 135 116c24 0 50 -11 70 -24l27 -17c14 -9 23 -15 39 -15c18 0 31 11 53 49z" />
    <glyph glyph-name="notequal" unicode="&#x2260;" horiz-adv-x="573" 
d="M62 259h136l68 108h-204v108h273l90 141h86v-47l-60 -94h60v-108h-129l-68 -108h197v-108h-267l-96 -151h-86v47l66 104h-66v108z" />
    <glyph glyph-name="lessequal" unicode="&#x2264;" horiz-adv-x="532" 
d="M408 190l-346 155v106l346 156h62v-90l-266 -119l266 -118v-90h-62zM62 0v109h408v-109h-408z" />
    <glyph glyph-name="greaterequal" unicode="&#x2265;" horiz-adv-x="532" 
d="M62 190v90l266 118l-266 119v90h62l346 -156v-106l-346 -155h-62zM62 0v109h408v-109h-408z" />
    <glyph glyph-name="lozenge" unicode="&#x25ca;" horiz-adv-x="560" 
d="M231 0l-183 350l183 350h99l182 -350l-183 -350h-98zM280 153l95 197l-95 197l-94 -196z" />
    <glyph glyph-name="commaaccent" unicode="&#xf6c3;" horiz-adv-x="827" 
d="M308 -261l36 194h128v-55l-72 -139h-92z" />
    <glyph glyph-name="zero.onum" horiz-adv-x="615" 
d="M307 106c75 0 110 50 110 114v84c0 64 -35 114 -110 114c-74 0 -109 -50 -109 -114v-84c0 -64 35 -114 109 -114zM307 -12c-146 0 -239 82 -239 239v70c0 157 93 239 239 239c147 0 240 -82 240 -239v-70c0 -157 -93 -239 -240 -239z" />
    <glyph glyph-name="one.onum" horiz-adv-x="330" 
d="M112 0v348h-69v69l166 107h33v-524h-130z" />
    <glyph glyph-name="two.onum" horiz-adv-x="561" 
d="M49 0v104l265 179c33 22 52 36 52 71c0 27 -22 64 -85 64c-66 0 -99 -35 -99 -89h-130v6c0 115 73 201 226 201c149 0 218 -91 218 -186c0 -88 -68 -138 -126 -171l-108 -61h240v-118h-453z" />
    <glyph glyph-name="three.onum" horiz-adv-x="591" 
d="M294 -172c-145 0 -242 78 -246 231h125c3 -70 43 -113 121 -113c76 0 109 40 109 96c0 57 -42 88 -114 88h-44v118h44c52 0 93 25 93 85c0 38 -19 85 -93 85c-66 0 -100 -43 -107 -98h-124c12 138 97 216 230 216c144 0 221 -86 221 -194c0 -73 -30 -113 -80 -147
c56 -22 104 -78 104 -157c0 -129 -83 -210 -239 -210z" />
    <glyph glyph-name="four.onum" horiz-adv-x="555" 
d="M328 -160v160h-302v104l233 420h115v-47l-199 -359h153v143h130v-143h79v-118h-79v-160h-130z" />
    <glyph glyph-name="five.onum" horiz-adv-x="591" 
d="M291 -172c-134 0 -227 72 -241 199h127c8 -46 51 -81 117 -81c76 0 109 51 109 130c0 74 -42 123 -106 123c-54 0 -82 -26 -100 -50h-125l37 375h385v-118h-284l-14 -133c37 21 66 32 125 32c107 0 212 -60 212 -229c0 -163 -99 -248 -242 -248z" />
    <glyph glyph-name="six.onum" horiz-adv-x="588" 
d="M295 -12c-148 0 -245 89 -245 233c0 64 21 125 68 200l179 279h119v-47l-136 -206c18 3 35 5 59 5c110 0 201 -73 201 -217c0 -158 -97 -247 -245 -247zM295 106c76 0 115 48 115 121s-36 120 -116 120c-84 0 -114 -53 -114 -120c0 -73 39 -121 115 -121z" />
    <glyph glyph-name="seven.onum" horiz-adv-x="544" 
d="M152 -160v47l211 519h-207v-85h-120v203h458v-109l-228 -575h-114z" />
    <glyph glyph-name="eight.onum" horiz-adv-x="618" 
d="M309 -12c-157 0 -251 80 -251 212c0 79 49 145 105 168c-50 35 -87 75 -87 152c0 105 82 195 233 195s233 -90 233 -195c0 -77 -36 -117 -86 -152c56 -23 104 -89 104 -168c0 -132 -94 -212 -251 -212zM309 104c83 0 120 50 120 108c0 66 -49 104 -120 104
s-120 -38 -120 -104c0 -58 37 -108 120 -108zM309 415c58 0 104 29 104 95c0 51 -31 92 -104 92c-72 0 -104 -41 -104 -92c0 -66 46 -95 104 -95z" />
    <glyph glyph-name="nine.onum" horiz-adv-x="597" 
d="M293 536c148 0 245 -89 245 -233c0 -64 -18 -127 -68 -200l-179 -263h-119v47l136 190c-18 -3 -35 -5 -59 -5c-110 0 -201 73 -201 217c0 158 97 247 245 247zM293 418c-76 0 -115 -48 -115 -121s36 -120 116 -120c84 0 114 53 114 120c0 73 -39 121 -115 121z" />
    <glyph glyph-name="uniF653" unicode="&#xf653;" horiz-adv-x="559" 
d="M344 616v-87c92 -20 147 -80 150 -173h-130c-3 41 -40 62 -101 62c-57 0 -77 -21 -77 -41s15 -31 45 -38l149 -37c69 -17 123 -55 123 -142c0 -90 -62 -150 -159 -167v-82h-113v81c-109 17 -179 87 -182 189h129c6 -47 52 -75 122 -75c46 0 77 16 77 43
c0 19 -10 31 -35 37l-145 37c-66 17 -137 51 -137 145c0 91 62 153 171 165v83h113z" />
    <glyph glyph-name="uniF64E" unicode="&#xf64e;" horiz-adv-x="586" 
d="M320 -12c-127 0 -208 68 -220 171h-69v82h67v42h-67v82h68c13 108 94 171 221 171s202 -63 214 -178h-119c-6 42 -45 67 -96 67c-54 0 -90 -25 -98 -60h140v-82h-143v-42h143v-82h-137c9 -34 41 -60 95 -60c51 0 90 26 96 70h120c-12 -113 -91 -181 -215 -181z" />
    <glyph glyph-name="uniF725" unicode="&#xf725;" horiz-adv-x="584" 
d="M43 0v113h69v89h-69v101h69v39c0 120 85 194 211 194c125 0 207 -71 207 -196v-6h-130v6c0 47 -26 78 -77 78c-57 0 -81 -30 -81 -74v-41h122v-101h-122v-89h288v-113h-487z" />
    <glyph glyph-name="uniF727" unicode="&#xf727;" horiz-adv-x="542" 
d="M209 0v64h-129v87h129v42h-129v87h79l-120 183v61h117l117 -194h4l116 194h110v-61l-119 -183h80v-87h-125v-42h125v-87h-125v-64h-130z" />
    <glyph glyph-name="uniF722" unicode="&#xf722;" horiz-adv-x="576" 
d="M118 0v64h-87v87h87v42h-87v98h87v233h278c84 0 151 -54 151 -166c0 -111 -67 -165 -151 -165h-148v-42h115v-87h-115v-64h-130zM356 411h-108v-120h108c44 0 61 23 61 60c0 33 -17 60 -61 60z" />
    <glyph glyph-name="uniF721" unicode="&#xf721;" horiz-adv-x="582" 
d="M294 -12c-124 0 -197 52 -197 139c0 18 1 32 4 44h-63v72h506v-72h-322c-1 -8 -2 -16 -2 -26c0 -26 17 -49 77 -49c55 0 82 26 80 48h126c2 -92 -89 -156 -209 -156zM38 282v72h332c1 6 2 15 2 25c0 20 -18 49 -75 49c-59 0 -81 -26 -79 -48h-127c-2 93 87 156 206 156
c125 0 198 -55 198 -142c0 -17 -1 -30 -5 -40h54v-72h-506z" />
    <glyph glyph-name="zero.onum.mono" 
d="M306 -12c-146 0 -239 82 -239 239v70c0 157 93 239 239 239c147 0 240 -82 240 -239v-70c0 -157 -93 -239 -240 -239zM197 220c0 -8 0 -15 1 -22l164 207c-15 8 -34 13 -56 13c-74 0 -109 -50 -109 -114v-84zM306 106c75 0 110 50 110 114v84c0 7 0 13 -1 20l-164 -207
c15 -7 33 -11 55 -11z" />
    <glyph glyph-name="one.onum.mono" 
d="M101 0v118h148v230h-99v69l196 107h33v-406h148v-118h-426z" />
    <glyph glyph-name="two.onum.mono" 
d="M75 0v104l265 179c33 22 52 36 52 71c0 27 -22 64 -85 64c-66 0 -99 -35 -99 -89h-130v6c0 115 73 201 226 201c149 0 218 -91 218 -186c0 -88 -68 -138 -126 -171l-108 -61h240v-118h-453z" />
    <glyph glyph-name="three.onum.mono" 
d="M314 -172c-145 0 -242 78 -246 231h125c3 -70 43 -113 121 -113c76 0 109 40 109 96c0 57 -42 88 -114 88h-44v118h44c52 0 93 25 93 85c0 38 -19 85 -93 85c-66 0 -100 -43 -107 -98h-124c12 138 97 216 230 216c144 0 221 -86 221 -194c0 -73 -30 -113 -80 -147
c56 -22 104 -78 104 -157c0 -129 -83 -210 -239 -210z" />
    <glyph glyph-name="four.onum.mono" 
d="M355 -160v160h-302v104l233 420h115v-47l-199 -359h153v143h130v-143h79v-118h-79v-160h-130z" />
    <glyph glyph-name="five.onum.mono" 
d="M309 -172c-134 0 -227 72 -241 199h127c8 -46 51 -81 117 -81c76 0 109 51 109 130c0 74 -42 123 -106 123c-54 0 -82 -26 -100 -50h-125l37 375h385v-118h-284l-14 -133c37 21 66 32 125 32c107 0 212 -60 212 -229c0 -163 -99 -248 -242 -248z" />
    <glyph glyph-name="six.onum.mono" 
d="M315 -12c-148 0 -245 89 -245 233c0 64 21 125 68 200l179 279h119v-47l-136 -206c18 3 35 5 59 5c110 0 201 -73 201 -217c0 -158 -97 -247 -245 -247zM315 106c76 0 115 48 115 121s-36 120 -116 120c-84 0 -114 -53 -114 -120c0 -73 39 -121 115 -121z" />
    <glyph glyph-name="seven.onum.mono" 
d="M200 -160v47l211 519h-207v-85h-120v203h458v-109l-228 -575h-114z" />
    <glyph glyph-name="eight.onum.mono" 
d="M310 -12c-157 0 -251 80 -251 212c0 79 49 145 105 168c-50 35 -87 75 -87 152c0 105 82 195 233 195s233 -90 233 -195c0 -77 -36 -117 -86 -152c56 -23 104 -89 104 -168c0 -132 -94 -212 -251 -212zM310 104c83 0 120 50 120 108c0 66 -49 104 -120 104
s-120 -38 -120 -104c0 -58 37 -108 120 -108zM310 415c58 0 104 29 104 95c0 51 -31 92 -104 92c-72 0 -104 -41 -104 -92c0 -66 46 -95 104 -95z" />
    <glyph glyph-name="nine.onum.mono" 
d="M304 536c148 0 245 -89 245 -233c0 -64 -18 -127 -68 -200l-179 -263h-119v47l136 190c-18 -3 -35 -5 -59 -5c-110 0 -201 73 -201 217c0 158 97 247 245 247zM304 418c-76 0 -115 -48 -115 -121s36 -120 116 -120c84 0 114 53 114 120c0 73 -39 121 -115 121z" />
    <glyph glyph-name="uniF653.mono" 
d="M378 616v-87c92 -20 147 -80 150 -173h-130c-3 41 -40 62 -101 62c-57 0 -77 -21 -77 -41s15 -31 45 -38l149 -37c69 -17 123 -55 123 -142c0 -90 -62 -150 -159 -167v-82h-113v81c-109 17 -179 87 -182 189h129c6 -47 52 -75 122 -75c46 0 77 16 77 43
c0 19 -10 31 -35 37l-145 37c-66 17 -137 51 -137 145c0 91 62 153 171 165v83h113z" />
    <glyph glyph-name="uniF64E.mono" 
d="M339 -12c-127 0 -208 68 -220 171h-69v82h67v42h-67v82h68c13 108 94 171 221 171s202 -63 214 -178h-119c-6 42 -45 67 -96 67c-54 0 -90 -25 -98 -60h140v-82h-143v-42h143v-82h-137c9 -34 41 -60 95 -60c51 0 90 26 96 70h120c-12 -113 -91 -181 -215 -181z" />
    <glyph glyph-name="uniF725.mono" 
d="M64 0v113h69v89h-69v101h69v39c0 120 85 194 211 194c125 0 207 -71 207 -196v-6h-130v6c0 47 -26 78 -77 78c-57 0 -81 -30 -81 -74v-41h122v-101h-122v-89h288v-113h-487z" />
    <glyph glyph-name="uniF727.mono" 
d="M247 0v64h-129v87h129v42h-129v87h79l-120 183v61h117l117 -194h4l116 194h110v-61l-119 -183h80v-87h-125v-42h125v-87h-125v-64h-130z" />
    <glyph glyph-name="uniF722.mono" 
d="M124 0v64h-87v87h87v42h-87v98h87v233h278c84 0 151 -54 151 -166c0 -111 -67 -165 -151 -165h-148v-42h115v-87h-115v-64h-130zM362 411h-108v-120h108c44 0 61 23 61 60c0 33 -17 60 -61 60z" />
    <glyph glyph-name="uniF721.mono" 
d="M314 -12c-124 0 -197 52 -197 139c0 18 1 32 4 44h-63v72h506v-72h-322c-1 -8 -2 -16 -2 -26c0 -26 17 -49 77 -49c55 0 82 26 80 48h126c2 -92 -89 -156 -209 -156zM58 282v72h332c1 6 2 15 2 25c0 20 -18 49 -75 49c-59 0 -81 -26 -79 -48h-127c-2 93 87 156 206 156
c125 0 198 -55 198 -142c0 -17 -1 -30 -5 -40h54v-72h-506z" />
    <glyph glyph-name="zero.mono" 
d="M309 -15c-146 0 -239 82 -239 239v252c0 157 93 239 239 239c147 0 240 -82 240 -239v-252c0 -157 -93 -239 -240 -239zM200 483v-234l182 325c-18 14 -42 23 -73 23c-74 0 -109 -50 -109 -114zM309 103c75 0 110 50 110 114v231l-182 -322c17 -15 41 -23 72 -23z" />
    <glyph glyph-name="one.mono" 
d="M101 0v118h148v406h-99v69l196 107h33v-582h148v-118h-426z" />
    <glyph glyph-name="two.mono" 
d="M73 0v106l211 213c93 95 116 121 116 177c0 50 -25 101 -97 101c-79 0 -103 -57 -104 -124h-124c0 152 95 242 228 242c153 0 227 -104 227 -214c0 -103 -50 -160 -148 -255l-133 -128h280v-118h-456z" />
    <glyph glyph-name="three.mono" 
d="M309 -15c-147 0 -240 89 -242 245h125c2 -72 42 -127 121 -127c82 0 111 49 111 109c0 61 -42 91 -114 91h-44v118h35c62 0 104 25 104 88c0 38 -19 88 -93 88c-76 0 -105 -52 -107 -119h-124c0 152 89 237 230 237c144 0 221 -86 221 -194c0 -73 -32 -118 -82 -153
c56 -23 104 -86 104 -167c0 -133 -89 -216 -245 -216z" />
    <glyph glyph-name="four.mono" 
d="M351 0v129h-302v100l232 471h114v-47l-199 -406h155v164h130v-164h79v-118h-79v-129h-130z" />
    <glyph glyph-name="five.mono" 
d="M304 -15c-134 0 -227 76 -241 211h127c8 -53 51 -93 117 -93c76 0 109 54 109 137c0 78 -42 130 -106 130c-56 0 -85 -29 -100 -53h-125l37 383h385v-118h-284l-14 -138c37 21 66 32 125 32c107 0 212 -62 212 -236c0 -168 -99 -255 -242 -255z" />
    <glyph glyph-name="six.mono" 
d="M315 -15c-148 0 -245 89 -245 233c0 64 21 125 68 200l179 282h119v-47l-136 -209c18 3 35 5 59 5c110 0 201 -73 201 -217c0 -158 -97 -247 -245 -247zM315 103c76 0 115 48 115 121s-36 120 -116 120c-84 0 -114 -53 -114 -120c0 -73 39 -121 115 -121z" />
    <glyph glyph-name="seven.mono" 
d="M199 0v47l207 535h-204v-85h-120v203h458v-110l-224 -590h-117z" />
    <glyph glyph-name="eight.mono" 
d="M310 -15c-157 0 -251 81 -251 213c0 79 49 146 105 169c-50 35 -87 76 -87 153c0 105 82 195 233 195s233 -90 233 -195c0 -77 -36 -118 -86 -153c56 -23 104 -90 104 -169c0 -132 -94 -213 -251 -213zM310 101c83 0 120 51 120 109c0 66 -49 105 -120 105
s-120 -39 -120 -105c0 -58 37 -109 120 -109zM310 414c58 0 104 30 104 96c0 51 -31 92 -104 92c-72 0 -104 -41 -104 -92c0 -66 46 -96 104 -96z" />
    <glyph glyph-name="nine.mono" 
d="M304 715c148 0 245 -89 245 -233c0 -64 -21 -125 -68 -200l-179 -282h-119v47l136 209c-18 -3 -35 -5 -59 -5c-110 0 -201 73 -201 217c0 158 97 247 245 247zM304 597c-76 0 -115 -48 -115 -121s36 -120 116 -120c84 0 114 53 114 120c0 73 -39 121 -115 121z" />
    <glyph glyph-name="dollar.mono" 
d="M57 227h130c0 -96 62 -124 128 -124c68 0 104 36 104 85c0 50 -41 65 -88 86l-81 36c-111 49 -175 90 -175 202c0 106 73 182 176 199v92h130v-95c83 -18 169 -94 169 -229h-130c0 89 -50 118 -114 118c-58 0 -98 -31 -98 -79c0 -53 38 -68 105 -98l66 -29
c99 -45 177 -86 177 -193c0 -101 -53 -184 -175 -209v-107h-130v106c-108 15 -194 94 -194 239z" />
    <glyph glyph-name="Euro.mono" 
d="M356 -15c-146 0 -244 73 -258 221h-83v103h84v81h-84v103h85v5c11 132 99 217 256 217c131 0 247 -72 247 -245v-10h-122v10c0 93 -61 127 -126 127c-68 0 -116 -31 -125 -99v-5h156v-103h-157v-81h157v-103h-157c8 -61 44 -103 126 -103c74 0 126 34 126 127v10h122v-10
c0 -173 -104 -245 -247 -245z" />
    <glyph glyph-name="sterling.mono" 
d="M50 0v118h67v176h-67v118h67v109c0 120 87 194 221 194c130 0 217 -71 217 -208v-34h-130v34c0 59 -31 90 -89 90c-64 0 -89 -36 -89 -82v-103h129v-118h-129v-176h308v-118h-505z" />
    <glyph glyph-name="yen.mono" 
d="M244 0v96h-162v103h162v81h-162v103h114l-167 270v47h119l162 -276l163 276h117v-47l-168 -270h115v-103h-163v-81h163v-103h-163v-96h-130z" />
    <glyph glyph-name="uni20BD.mono" 
d="M111 0v103h-83v103h83v75h-83v113h83v306h286c126 0 200 -82 200 -210s-74 -209 -200 -209h-156v-75h170v-103h-170v-103h-130zM241 394h140c43 0 86 28 86 96s-43 97 -86 97h-140v-193z" />
    <glyph glyph-name="uni20B4.mono" 
d="M313 -15c-150 0 -242 79 -242 197c0 16 1 30 4 48h-73v93h615v-93h-413c-2 -14 -3 -25 -3 -37c0 -57 41 -90 112 -90c72 0 117 36 117 89h130c0 -130 -103 -207 -247 -207zM2 470h414c2 14 3 25 3 37c0 57 -39 90 -110 90c-72 0 -115 -36 -115 -89h-130
c0 130 101 207 245 207c150 0 240 -79 240 -197c0 -16 -1 -30 -4 -48h72v-93h-615v93z" />
    <glyph glyph-name="a.alt1" horiz-adv-x="596" 
d="M518 0h-75l-38 52c-36 -34 -80 -64 -156 -64c-102 0 -186 61 -186 192v164c0 131 84 192 186 192c76 0 120 -30 156 -64l38 52h75v-524zM388 161v202c-26 26 -61 55 -112 55c-40 0 -83 -29 -83 -84v-144c0 -55 43 -84 83 -84c51 0 86 29 112 55z" />
    <glyph glyph-name="agrave.alt1" horiz-adv-x="596" 
d="M518 0h-75l-38 52c-36 -34 -80 -64 -156 -64c-102 0 -186 61 -186 192v164c0 131 84 192 186 192c76 0 120 -30 156 -64l38 52h75v-524zM388 161v202c-26 26 -61 55 -112 55c-40 0 -83 -29 -83 -84v-144c0 -55 43 -84 83 -84c51 0 86 29 112 55zM269 590l-83 95v45h117
l71 -140h-105z" />
    <glyph glyph-name="aacute.alt1" horiz-adv-x="596" 
d="M518 0h-75l-38 52c-36 -34 -80 -64 -156 -64c-102 0 -186 61 -186 192v164c0 131 84 192 186 192c76 0 120 -30 156 -64l38 52h75v-524zM388 161v202c-26 26 -61 55 -112 55c-40 0 -83 -29 -83 -84v-144c0 -55 43 -84 83 -84c51 0 86 29 112 55zM233 590l71 140h117v-45
l-84 -95h-104z" />
    <glyph glyph-name="acircumflex.alt1" horiz-adv-x="596" 
d="M518 0h-75l-38 52c-36 -34 -80 -64 -156 -64c-102 0 -186 61 -186 192v164c0 131 84 192 186 192c76 0 120 -30 156 -64l38 52h75v-524zM388 161v202c-26 26 -61 55 -112 55c-40 0 -83 -29 -83 -84v-144c0 -55 43 -84 83 -84c51 0 86 29 112 55zM162 590v41l94 99h103
l95 -99v-41h-99l-48 54l-48 -54h-97z" />
    <glyph glyph-name="atilde.alt1" horiz-adv-x="596" 
d="M518 0h-75l-38 52c-36 -34 -80 -64 -156 -64c-102 0 -186 61 -186 192v164c0 131 84 192 186 192c76 0 120 -30 156 -64l38 52h75v-524zM388 161v202c-26 26 -61 55 -112 55c-40 0 -83 -29 -83 -84v-144c0 -55 43 -84 83 -84c51 0 86 29 112 55zM411 729l78 -46
c-27 -58 -63 -103 -120 -103c-22 0 -45 10 -63 21l-24 15c-12 7 -21 14 -36 14c-16 0 -26 -10 -46 -44l-78 46c27 58 63 103 120 103c22 0 45 -10 63 -21l24 -15c12 -7 21 -14 36 -14c16 0 26 10 46 44z" />
    <glyph glyph-name="adieresis.alt1" horiz-adv-x="596" 
d="M518 0h-75l-38 52c-36 -34 -80 -64 -156 -64c-102 0 -186 61 -186 192v164c0 131 84 192 186 192c76 0 120 -30 156 -64l38 52h75v-524zM388 161v202c-26 26 -61 55 -112 55c-40 0 -83 -29 -83 -84v-144c0 -55 43 -84 83 -84c51 0 86 29 112 55zM136 595v110h130v-110
h-130zM339 595v110h130v-110h-130z" />
    <glyph glyph-name="aring.alt1" horiz-adv-x="596" 
d="M518 0h-75l-38 52c-36 -34 -80 -64 -156 -64c-102 0 -186 61 -186 192v164c0 131 84 192 186 192c76 0 120 -30 156 -64l38 52h75v-524zM388 161v202c-26 26 -61 55 -112 55c-40 0 -83 -29 -83 -84v-144c0 -55 43 -84 83 -84c51 0 86 29 112 55zM299 635
c18 0 34 14 34 33s-16 33 -34 33s-34 -14 -34 -33s16 -33 34 -33zM299 565c-60 0 -110 46 -110 103s50 103 110 103s110 -46 110 -103s-50 -103 -110 -103z" />
    <glyph glyph-name="amacron.alt1" horiz-adv-x="596" 
d="M518 0h-75l-38 52c-36 -34 -80 -64 -156 -64c-102 0 -186 61 -186 192v164c0 131 84 192 186 192c76 0 120 -30 156 -64l38 52h75v-524zM388 161v202c-26 26 -61 55 -112 55c-40 0 -83 -29 -83 -84v-144c0 -55 43 -84 83 -84c51 0 86 29 112 55zM147 604v96h322v-96h-322
z" />
    <glyph glyph-name="aogonek.alt1" horiz-adv-x="596" 
d="M500 -160c-65 0 -105 28 -105 73c0 24 14 54 48 87l-38 52c-36 -34 -80 -64 -156 -64c-102 0 -186 61 -186 192v164c0 131 84 192 186 192c76 0 120 -30 156 -64l38 52h75v-524c-27 -22 -37 -39 -37 -56s16 -26 45 -26h31v-78h-57zM388 161v202c-26 26 -61 55 -112 55
c-40 0 -83 -29 -83 -84v-144c0 -55 43 -84 83 -84c51 0 86 29 112 55z" />
    <glyph glyph-name="t.alt1" horiz-adv-x="370" 
d="M120 0v411h-90v113h90v181h130v-181h90v-113h-90v-411h-130z" />
    <glyph glyph-name="tcaron.alt1" horiz-adv-x="535" 
d="M120 0v411h-90v113h90v181h130v-181h90v-113h-90v-411h-130zM399 511l36 194h128v-55l-72 -139h-92z" />
    <glyph glyph-name="J.alt1" horiz-adv-x="573" 
d="M263 -15c-138 0 -245 54 -245 224v31h142v-31c0 -69 40 -94 103 -94c50 0 102 25 102 99v362h-206v124h348v-491c0 -164 -111 -224 -244 -224z" />
    <glyph glyph-name="ampersand.alt1" horiz-adv-x="645" 
d="M368 215v113h265v-113h-68c0 -142 -110 -227 -260 -227c-151 0 -257 82 -257 221c0 85 43 149 102 176c-46 31 -66 70 -66 137c0 112 90 185 219 185c136 0 214 -78 214 -206h-130c0 46 -18 88 -83 88c-58 0 -84 -33 -84 -77c0 -45 27 -74 86 -74h8v-113h-25
c-70 0 -111 -38 -111 -109c0 -58 37 -110 128 -110c90 0 129 48 129 101v8h-67z" />
    <glyph glyph-name="ampersand.alt2" horiz-adv-x="620" 
d="M275 116h118v201h-118c-46 0 -89 -30 -89 -101c0 -70 43 -100 89 -100zM283 430h110l55 90h75v-90h69v-113h-69v-317h-236c-158 0 -239 58 -239 209c0 82 48 143 106 164c-52 28 -79 78 -79 146c0 122 81 181 208 181h99v-113h-99c-37 0 -70 -23 -70 -79
c0 -55 33 -78 70 -78z" />
    <glyph glyph-name="at.alt1" horiz-adv-x="750" 
d="M448 216c47 0 81 17 111 51v63h-102c-58 0 -78 -25 -78 -57c0 -37 27 -57 69 -57zM186 439v-333c0 -93 60 -153 153 -153h102v-113h-102c-172 0 -271 114 -271 266v333c0 152 99 266 271 266h72c172 0 271 -114 271 -266v-329h-71l-36 51c-36 -35 -79 -63 -153 -63
c-89 0 -166 57 -166 165c0 107 66 166 200 166h103v15c0 90 -55 148 -148 148h-72c-93 0 -153 -60 -153 -153z" />
    <glyph glyph-name="uni0430.alt1" horiz-adv-x="596" 
d="M518 0h-75l-38 52c-36 -34 -80 -64 -156 -64c-102 0 -186 61 -186 192v164c0 131 84 192 186 192c76 0 120 -30 156 -64l38 52h75v-524zM388 161v202c-26 26 -61 55 -112 55c-40 0 -83 -29 -83 -84v-144c0 -55 43 -84 83 -84c51 0 86 29 112 55z" />
    <glyph glyph-name="uni0423.alt1" horiz-adv-x="597" 
d="M133 0v130h30c35 0 56 22 82 71l-237 452v47h131l173 -346l153 346h124v-47l-200 -448c-73 -162 -105 -205 -243 -205h-13z" />
    <glyph glyph-name="uni040E.alt1" horiz-adv-x="597" 
d="M133 0v130h30c35 0 56 22 82 71l-237 452v47h131l173 -346l153 346h124v-47l-200 -448c-73 -162 -105 -205 -243 -205h-13zM304 742c-97 0 -165 46 -165 133v13h111v-12c0 -25 16 -44 54 -44c39 0 54 19 54 44v12h110v-13c0 -87 -67 -133 -164 -133z" />
    </font>
</defs>
</svg>
