<?xml version="1.0" standalone="no"?>
<!DOCTYPE svg PUBLIC "-//W3C//DTD SVG 1.1//EN" "http://www.w3.org/Graphics/SVG/1.1/DTD/svg11.dtd" >
<svg xmlns="http://www.w3.org/2000/svg" xmlns:xlink="http://www.w3.org/1999/xlink" version="1.1">
<metadata>
Created by FontForge 20190801 at Wed Feb 26 14:10:54 2014
 By Jimmy Wärting
Copyright (c) 2013 by Gayane Bagdasaryan, Dmitry Rastvortsev. All rights reserved.
</metadata>
<defs>
<font id="BrutalType-Black" horiz-adv-x="626" >
  <font-face 
    font-family="Brutal Type"
    font-weight="900"
    font-stretch="normal"
    units-per-em="1000"
    panose-1="2 0 6 3 2 0 0 2 0 4"
    ascent="804"
    descent="-196"
    x-height="529"
    cap-height="700"
    bbox="-49 -267 1147 970"
    underline-thickness="50"
    underline-position="-100"
    stemh="142"
    stemv="158"
    unicode-range="U+0020-FB02"
  />
<missing-glyph horiz-adv-x="281" 
 />
    <glyph glyph-name="fi" unicode="fi" horiz-adv-x="670" 
d="M436 0v393h-195v-393h-158v393h-73v136h73c0 134 104 180 224 180c9 0 25 -1 39 -2v-128h-24c-55 0 -81 -20 -81 -50h353v-529h-158zM436 590v115h158v-115h-158z" />
    <glyph glyph-name="fl" unicode="fl" horiz-adv-x="670" 
d="M83 0v393h-73v136h73c0 134 104 180 224 180c9 0 25 -1 39 -2v-128h-24c-55 0 -81 -20 -81 -50h96v-136h-96v-393h-158zM436 0v705h158v-705h-158z" />
    <glyph glyph-name=".notdef" horiz-adv-x="281" 
 />
    <glyph glyph-name="space" unicode=" " horiz-adv-x="225" 
 />
    <glyph glyph-name="exclam" unicode="!" horiz-adv-x="333" 
d="M89 0v148h156v-148h-156zM89 220v480h156v-480h-156z" />
    <glyph glyph-name="quotedbl" unicode="&#x22;" horiz-adv-x="460" 
d="M82 435l-32 208v62h156v-62l-33 -208h-91zM287 435l-32 208v62h155v-62l-31 -208h-92z" />
    <glyph glyph-name="numbersign" unicode="#" horiz-adv-x="705" 
d="M83 0v56l20 91h-68v142h99l27 122h-78v142h108l33 147h140v-57l-20 -90h107l32 147h140v-57l-21 -90h68v-142h-98l-25 -122h76v-142h-108l-32 -147h-139v56l20 91h-109l-32 -147h-140zM285 289h108l27 122h-107z" />
    <glyph glyph-name="dollar" unicode="$" horiz-adv-x="597" 
d="M40 227h158c0 -77 49 -100 102 -100c50 0 79 26 79 65c0 35 -25 48 -51 60l-100 46c-105 48 -172 96 -172 212c0 113 73 182 167 200v91h156v-95c81 -19 154 -94 154 -227h-157c0 66 -34 94 -85 94c-41 0 -74 -23 -74 -61c0 -45 39 -57 95 -83l75 -35
c87 -40 153 -88 153 -192c0 -100 -45 -181 -161 -212v-110h-156v108c-101 16 -183 95 -183 239z" />
    <glyph glyph-name="percent" unicode="%" horiz-adv-x="815" 
d="M229 493v87c0 17 -14 30 -31 30c-20 0 -31 -14 -31 -30v-87c0 -17 10 -30 31 -30c18 0 31 12 31 30zM198 358c-98 0 -163 50 -163 151v55c0 101 65 151 163 151s162 -50 162 -151v-55c0 -101 -64 -151 -162 -151zM156 0v56l414 644h94v-57l-414 -643h-94zM618 -15
c-98 0 -163 50 -163 161v35c0 111 65 161 163 161s162 -50 162 -161v-35c0 -111 -64 -161 -162 -161zM649 120v87c0 17 -14 30 -31 30c-20 0 -31 -14 -31 -30v-87c0 -17 10 -30 31 -30c18 0 31 12 31 30z" />
    <glyph glyph-name="ampersand" unicode="&#x26;" horiz-adv-x="697" 
d="M656 73v-73h-129l-59 59c-51 -44 -115 -71 -189 -71c-141 0 -228 80 -228 195c0 56 18 116 97 182l12 10c-28 28 -76 82 -76 156c0 102 75 178 192 178c112 0 187 -70 187 -168c0 -63 -33 -107 -77 -145l-24 -22l88 -89c12 35 14 75 15 104h143c-1 -76 -18 -151 -52 -213
zM286 127c36 0 62 11 87 33l-121 122l-10 -9c-30 -27 -38 -53 -38 -77c0 -43 38 -69 82 -69zM225 533c0 -23 10 -34 31 -54l15 -15l22 17c21 17 32 30 32 51c0 25 -18 45 -51 45c-30 0 -49 -18 -49 -44z" />
    <glyph glyph-name="quotesingle" unicode="'" horiz-adv-x="256" 
d="M82 435l-32 208v62h156v-62l-33 -208h-91z" />
    <glyph glyph-name="parenleft" unicode="(" horiz-adv-x="344" 
d="M227 594v-563c0 -27 14 -48 41 -48h27v-143h-22c-121 0 -188 55 -188 190v563c0 135 67 192 188 192h22v-143h-27c-27 0 -41 -21 -41 -48z" />
    <glyph glyph-name="parenright" unicode=")" horiz-adv-x="344" 
d="M117 31v563c0 27 -14 48 -41 48h-27v143h22c121 0 188 -57 188 -192v-563c0 -135 -67 -190 -188 -190h-22v143h27c27 0 41 21 41 48z" />
    <glyph glyph-name="asterisk" unicode="*" horiz-adv-x="472" 
d="M174 333l17 109l-85 -70l-62 108l105 39l-105 39l62 108l85 -70l-17 109h123l-17 -109l86 70l61 -108l-102 -39l102 -39l-61 -108l-86 70l17 -109h-123z" />
    <glyph glyph-name="plus" unicode="+" horiz-adv-x="588" 
d="M223 88v160h-159v130h159v161h142v-161h159v-130h-159v-160h-142z" />
    <glyph glyph-name="comma" unicode="," horiz-adv-x="289" 
d="M33 -128l42 276h153v-65l-86 -211h-109z" />
    <glyph glyph-name="hyphen" unicode="-" horiz-adv-x="447" 
d="M55 242v142h337v-142h-337z" />
    <glyph glyph-name="period" unicode="." horiz-adv-x="299" 
d="M65 0v148h169v-148h-169z" />
    <glyph glyph-name="slash" unicode="/" horiz-adv-x="460" 
d="M35 -100v56l264 829h125v-56l-263 -829h-126z" />
    <glyph glyph-name="zero" unicode="0" horiz-adv-x="623" 
d="M311 127c63 0 88 42 88 92v260c0 50 -25 94 -88 94s-88 -44 -88 -94v-260c0 -50 25 -92 88 -92zM311 -15c-149 0 -246 82 -246 244v241c0 162 97 245 246 245c151 0 246 -83 246 -245v-241c0 -162 -95 -244 -246 -244z" />
    <glyph glyph-name="one" unicode="1" horiz-adv-x="354" 
d="M111 0v484h-65v85l203 131h20v-700h-158z" />
    <glyph glyph-name="two" unicode="2" horiz-adv-x="562" 
d="M41 0v128l212 212c85 85 98 112 98 159c0 31 -18 74 -76 74c-71 0 -85 -56 -85 -107h-148c0 155 98 249 236 249c162 0 230 -110 230 -216c0 -98 -30 -145 -137 -247l-115 -110h253v-142h-468z" />
    <glyph glyph-name="three" unicode="3" horiz-adv-x="598" 
d="M296 -15c-151 0 -251 89 -253 256h150c2 -67 30 -114 107 -114c57 0 84 35 84 80c0 52 -32 82 -97 82h-40v142h40c47 0 82 20 82 73c0 43 -29 69 -74 69c-67 0 -85 -46 -86 -99h-150c0 156 91 241 236 241c149 0 228 -86 228 -197c0 -68 -29 -114 -75 -150
c51 -23 94 -86 94 -163c0 -133 -87 -220 -246 -220z" />
    <glyph glyph-name="four" unicode="4" horiz-adv-x="569" 
d="M327 0v117h-302v121l215 462h133v-57l-176 -384h130v152h154v-152h74v-142h-74v-117h-154z" />
    <glyph glyph-name="five" unicode="5" horiz-adv-x="595" 
d="M290 -15c-141 0 -234 78 -246 216h152c6 -39 37 -74 96 -74c63 0 91 46 91 119c0 63 -28 108 -88 108c-56 0 -73 -28 -83 -48h-150l39 394h400v-142h-279l-12 -100c34 17 59 25 116 25c103 0 214 -58 214 -237c0 -176 -105 -261 -250 -261z" />
    <glyph glyph-name="six" unicode="6" horiz-adv-x="593" 
d="M296 -15c-149 0 -252 89 -252 235c0 62 20 129 68 205l177 275h144v-57l-126 -189c7 1 16 2 21 2c117 0 220 -59 220 -217c0 -165 -102 -254 -252 -254zM296 127c62 0 94 40 94 102s-33 102 -94 102c-64 0 -94 -41 -94 -102c0 -62 32 -102 94 -102z" />
    <glyph glyph-name="seven" unicode="7" horiz-adv-x="548" 
d="M142 0v56l195 502h-161v-65h-145v207h467v-133l-214 -567h-142z" />
    <glyph glyph-name="eight" unicode="8" horiz-adv-x="622" 
d="M311 715c155 0 240 -93 240 -198c0 -72 -31 -113 -78 -150c51 -28 94 -89 94 -163c0 -134 -100 -219 -256 -219s-256 85 -256 219c0 74 43 135 94 163c-47 37 -78 78 -78 150c0 105 85 198 240 198zM311 423c41 0 83 21 83 81c0 40 -22 75 -83 75s-83 -35 -83 -75
c0 -60 42 -81 83 -81zM311 127c69 0 97 44 97 90c0 58 -46 87 -97 87s-97 -29 -97 -87c0 -46 28 -90 97 -90z" />
    <glyph glyph-name="nine" unicode="9" horiz-adv-x="593" 
d="M297 715c149 0 252 -89 252 -235c0 -62 -20 -129 -68 -205l-177 -275h-144v57l126 189c-7 -1 -16 -2 -21 -2c-117 0 -220 59 -220 217c0 165 102 254 252 254zM297 573c-62 0 -94 -40 -94 -102s33 -102 94 -102c64 0 94 41 94 102c0 62 -32 102 -94 102z" />
    <glyph glyph-name="colon" unicode=":" horiz-adv-x="299" 
d="M65 0v148h169v-148h-169zM65 381v148h169v-148h-169z" />
    <glyph glyph-name="semicolon" unicode=";" horiz-adv-x="305" 
d="M33 -128l42 276h153v-65l-86 -211h-109zM64 381v148h169v-148h-169z" />
    <glyph glyph-name="less" unicode="&#x3c;" horiz-adv-x="548" 
d="M410 74l-346 175v128l346 175h74v-111l-263 -128l263 -128v-111h-74z" />
    <glyph glyph-name="equal" unicode="=" horiz-adv-x="588" 
d="M64 140v130h460v-130h-460zM64 356v130h460v-130h-460z" />
    <glyph glyph-name="greater" unicode="&#x3e;" horiz-adv-x="548" 
d="M64 74v111l263 128l-263 128v111h74l346 -175v-128l-346 -175h-74z" />
    <glyph glyph-name="question" unicode="?" horiz-adv-x="532" 
d="M171 220v119l108 78c36 26 60 46 60 87c0 40 -29 69 -75 69c-61 0 -89 -43 -89 -101h-150c0 157 106 243 242 243c154 0 229 -100 229 -205c0 -107 -71 -155 -133 -199l-36 -25v-66h-156zM171 0v148h156v-148h-156z" />
    <glyph glyph-name="at.alt1" horiz-adv-x="751" 
d="M454 233c29 0 67 8 98 44v49h-84c-52 0 -67 -20 -67 -48c0 -25 17 -45 53 -45zM327 705h97c171 0 265 -101 265 -267v-328h-82l-31 45c-40 -37 -86 -57 -144 -57c-98 0 -179 56 -179 174c0 99 66 167 196 167h103v8c0 87 -52 128 -135 128h-87c-80 0 -135 -48 -135 -135
v-335c0 -87 54 -135 135 -135h109v-130h-112c-168 0 -265 98 -265 265v335c0 166 98 265 265 265z" />
    <glyph glyph-name="A" unicode="A" horiz-adv-x="664" 
d="M488 0l-49 151h-222l-50 -151h-152v56l232 644h169l233 -644v-56h-161zM329 486l-64 -191h126z" />
    <glyph glyph-name="B" unicode="B" horiz-adv-x="674" 
d="M85 0v700h297c133 0 218 -66 218 -198c0 -60 -21 -108 -71 -139c54 -29 100 -70 100 -163c0 -137 -84 -200 -217 -200h-327zM257 423h115c22 0 53 15 53 62c0 49 -31 65 -53 65h-115v-127zM257 150h144c22 0 54 15 54 63c0 50 -32 66 -54 66h-144v-129z" />
    <glyph glyph-name="C" unicode="C" horiz-adv-x="661" 
d="M343 -15c-182 0 -278 93 -278 252v226c0 159 96 252 278 252c140 0 264 -70 264 -249v-10h-172v10c0 69 -49 91 -103 91c-67 0 -95 -32 -95 -82v-249c0 -51 28 -83 95 -83c54 0 103 19 103 92v9h172v-10c0 -179 -124 -249 -264 -249z" />
    <glyph glyph-name="D" unicode="D" horiz-adv-x="694" 
d="M257 150h87c78 0 112 46 112 85v230c0 40 -34 85 -112 85h-87v-400zM85 0v700h259c176 0 284 -86 284 -239v-222c0 -155 -108 -239 -284 -239h-259z" />
    <glyph glyph-name="E" unicode="E" horiz-adv-x="613" 
d="M85 0v700h468v-150h-296v-128h250v-142h-250v-130h298v-150h-470z" />
    <glyph glyph-name="F" unicode="F" horiz-adv-x="597" 
d="M85 0v700h476v-150h-304v-140h256v-142h-256v-268h-172z" />
    <glyph glyph-name="G" unicode="G" horiz-adv-x="691" 
d="M341 143c52 0 87 28 109 53v51h-110v142h277v-389h-91l-34 56c-33 -43 -101 -71 -168 -71c-161 0 -259 92 -259 243v239c0 159 101 248 280 248c156 0 272 -87 272 -245h-173c0 56 -37 87 -103 87c-71 0 -104 -36 -104 -93v-228c0 -57 33 -93 104 -93z" />
    <glyph glyph-name="H" unicode="H" horiz-adv-x="725" 
d="M85 0v700h172v-275h210v275h172v-700h-172v275h-210v-275h-172z" />
    <glyph glyph-name="I" unicode="I" horiz-adv-x="343" 
d="M85 0v700h172v-700h-172z" />
    <glyph glyph-name="J" unicode="J" horiz-adv-x="592" 
d="M266 -15c-138 0 -251 52 -251 225v34h172v-25c0 -59 34 -76 79 -76c44 0 78 17 78 76v481h172v-489c0 -170 -117 -226 -250 -226z" />
    <glyph glyph-name="K" unicode="K" horiz-adv-x="662" 
d="M85 0v700h172v-275h62l155 275h152v-57l-166 -283l181 -304v-56h-163l-156 275h-65v-275h-172z" />
    <glyph glyph-name="L" unicode="L" horiz-adv-x="572" 
d="M85 0v700h172v-550h300v-150h-472z" />
    <glyph glyph-name="M" unicode="M" horiz-adv-x="821" 
d="M85 0v700h167l159 -283l159 283h165v-700h-167v395l-105 -188h-106l-105 188v-395h-167z" />
    <glyph glyph-name="N" unicode="N" horiz-adv-x="725" 
d="M85 0v700h158l229 -379v379h167v-700h-157l-230 379v-379h-167z" />
    <glyph glyph-name="O" unicode="O" horiz-adv-x="699" 
d="M349 143c82 0 112 49 112 89v237c0 39 -30 88 -112 88c-81 0 -112 -49 -112 -88v-237c0 -40 31 -89 112 -89zM349 -15c-172 0 -284 93 -284 253v222c0 162 112 255 284 255c173 0 284 -93 284 -255v-222c0 -160 -111 -253 -284 -253z" />
    <glyph glyph-name="P" unicode="P" horiz-adv-x="655" 
d="M85 0v700h325c129 0 204 -88 204 -225c0 -139 -75 -227 -204 -227h-153v-248h-172zM257 398h120c26 0 63 18 63 75c0 58 -37 77 -63 77h-120v-152z" />
    <glyph glyph-name="Q" unicode="Q" horiz-adv-x="699" 
d="M349 -15c-172 0 -284 93 -284 253v222c0 162 112 255 284 255c173 0 284 -93 284 -255v-222c0 -87 -33 -155 -91 -198l90 -103v-56h-167l-90 105c-8 -1 -17 -1 -26 -1zM349 143c82 0 112 49 112 89v237c0 39 -30 88 -112 88c-81 0 -112 -49 -112 -88v-237
c0 -40 31 -89 112 -89z" />
    <glyph glyph-name="R" unicode="R" horiz-adv-x="687" 
d="M85 0v700h307c150 0 226 -83 226 -222c0 -91 -40 -163 -107 -203l129 -219v-56h-167l-144 256h-72v-256h-172zM257 398h106c51 0 81 16 81 77c0 59 -30 75 -81 75h-106v-152z" />
    <glyph glyph-name="S" unicode="S" horiz-adv-x="657" 
d="M325 -15c-158 0 -285 82 -285 242h172c0 -71 75 -84 126 -84c60 0 89 21 89 55c0 32 -37 45 -103 67l-114 38c-50 17 -152 62 -152 191c0 134 101 221 267 221c155 0 268 -79 268 -240h-173c0 56 -47 82 -103 82c-53 0 -84 -20 -84 -54c0 -33 25 -43 71 -59l111 -38
c111 -38 185 -79 185 -199c0 -129 -87 -222 -275 -222z" />
    <glyph glyph-name="T" unicode="T" horiz-adv-x="578" 
d="M203 0v550h-188v150h547v-150h-187v-550h-172z" />
    <glyph glyph-name="U" unicode="U" horiz-adv-x="705" 
d="M352 -15c-171 0 -277 91 -277 244v471h172v-477c0 -34 26 -80 105 -80c80 0 105 46 105 80v477h172v-471c0 -153 -106 -244 -277 -244z" />
    <glyph glyph-name="V" unicode="V" horiz-adv-x="663" 
d="M247 0l-232 643v57h165l155 -469l150 469h163v-57l-231 -643h-170z" />
    <glyph glyph-name="W" unicode="W" horiz-adv-x="856" 
d="M177 0l-142 643v57h165l88 -425l84 273h114l87 -276l87 428h160v-57l-143 -643h-159l-90 284l-90 -284h-161z" />
    <glyph glyph-name="X" unicode="X" horiz-adv-x="653" 
d="M611 643l-181 -274l205 -313v-56h-172l-139 218l-140 -218h-166v56l205 311l-180 276v57h172l114 -180l116 180h166v-57z" />
    <glyph glyph-name="Y" unicode="Y" horiz-adv-x="619" 
d="M221 0v277l-215 366v57h164l141 -256l142 256h160v-57l-219 -360v-283h-173z" />
    <glyph glyph-name="Z" unicode="Z" horiz-adv-x="599" 
d="M35 0v150l308 400h-292v150h501v-149l-308 -401h321v-150h-530z" />
    <glyph glyph-name="bracketleft" unicode="[" horiz-adv-x="357" 
d="M85 -160v945h214v-143h-72v-659h72v-143h-214z" />
    <glyph glyph-name="backslash" unicode="\" horiz-adv-x="460" 
d="M425 -44v-56h-126l-263 829v56h125z" />
    <glyph glyph-name="bracketright" unicode="]" horiz-adv-x="347" 
d="M262 785v-945h-214v143h72v659h-72v143h214z" />
    <glyph glyph-name="asciicircum" unicode="^" horiz-adv-x="553" 
d="M64 387v56l147 262h131l147 -262v-56h-134l-79 139l-78 -139h-134z" />
    <glyph glyph-name="underscore" unicode="_" horiz-adv-x="582" 
d="M-1 -149v130h584v-130h-584z" />
    <glyph glyph-name="grave" unicode="`" horiz-adv-x="311" 
d="M130 590l-74 86v54h141l57 -140h-124z" />
    <glyph glyph-name="a" unicode="a" horiz-adv-x="576" 
d="M253 126c31 0 65 8 96 39v50h-77c-45 0 -74 -13 -74 -45c0 -22 15 -44 55 -44zM219 -12c-98 0 -179 58 -179 163c0 109 69 170 212 170h97v23c0 36 -21 55 -66 55c-47 0 -65 -18 -65 -41h-154c0 107 69 183 219 183c149 0 223 -76 223 -185v-356h-90l-38 48
c-39 -36 -83 -60 -159 -60z" />
    <glyph glyph-name="b" unicode="b" horiz-adv-x="605" 
d="M324 130c24 0 63 17 63 63v143c0 44 -39 63 -64 63c-44 0 -71 -23 -90 -42v-185c19 -19 47 -42 91 -42zM356 -12c-74 0 -118 29 -153 60l-38 -48h-90v705h158v-199c16 11 53 35 124 35c99 0 188 -57 188 -193v-166c0 -137 -89 -194 -189 -194z" />
    <glyph glyph-name="c" unicode="c" horiz-adv-x="548" 
d="M210 343v-157c0 -31 19 -56 65 -56s68 22 68 58v12h158v-7c0 -130 -94 -205 -220 -205c-136 0 -229 72 -229 196v162c0 123 93 195 229 195c131 0 220 -71 220 -203v-6h-158v6c0 38 -22 61 -68 61s-65 -25 -65 -56z" />
    <glyph glyph-name="d" unicode="d" horiz-adv-x="606" 
d="M281 130c44 0 72 23 91 42v185c-19 19 -46 42 -90 42c-25 0 -64 -19 -64 -63v-143c0 -46 39 -63 63 -63zM249 -12c-100 0 -189 57 -189 194v166c0 136 89 193 188 193c71 0 108 -24 124 -35v199h158v-705h-90l-38 48c-35 -31 -79 -60 -153 -60z" />
    <glyph glyph-name="e" unicode="e" horiz-adv-x="563" 
d="M288 -12c-139 0 -236 66 -236 194v164c0 123 97 195 236 195c128 0 224 -65 224 -193v-136h-302v-29c0 -31 22 -53 78 -53c35 0 57 11 66 31h157c-10 -109 -93 -173 -223 -173zM210 325h144v28c0 32 -25 51 -72 51s-72 -19 -72 -51v-28z" />
    <glyph glyph-name="f" unicode="f" horiz-adv-x="361" 
d="M83 0v393h-73v136h73c0 134 104 180 224 180c9 0 25 -1 39 -2v-128h-24c-55 0 -81 -20 -81 -50h96v-136h-96v-393h-158z" />
    <glyph glyph-name="g" unicode="g" horiz-adv-x="606" 
d="M281 187c44 0 71 24 91 43v127c-20 19 -47 42 -91 42c-23 0 -63 -19 -63 -63v-84c0 -46 40 -65 63 -65zM530 529v-495c0 -138 -96 -206 -232 -206c-143 0 -224 68 -224 179h157c0 -9 3 -37 66 -37c58 0 75 31 75 64v46c-16 -11 -53 -35 -124 -35c-99 0 -188 58 -188 193
v110c0 136 89 193 189 193c74 0 118 -29 153 -60l38 48h90z" />
    <glyph glyph-name="h" unicode="h" horiz-adv-x="610" 
d="M75 0v705h158v-200c29 19 66 36 122 36c119 0 185 -79 185 -208v-333h-158v325c0 50 -27 74 -63 74c-44 0 -79 -34 -86 -42v-357h-158z" />
    <glyph glyph-name="i" unicode="i" horiz-adv-x="309" 
d="M75 0v529h158v-529h-158zM75 590v115h158v-115h-158z" />
    <glyph glyph-name="j" unicode="j" horiz-adv-x="309" 
d="M38 -172c-10 0 -21 0 -38 2v140h20c44 0 55 21 55 103v456h158v-501c0 -94 -53 -200 -195 -200zM75 590v115h158v-115h-158z" />
    <glyph glyph-name="k" unicode="k" horiz-adv-x="581" 
d="M75 0v705h158v-365h42l128 189h131v-73l-123 -180l135 -203v-73h-134l-137 204h-42v-204h-158z" />
    <glyph glyph-name="l" unicode="l" horiz-adv-x="309" 
d="M75 0v705h158v-705h-158z" />
    <glyph glyph-name="m" unicode="m" horiz-adv-x="879" 
d="M75 0v529h90l38 -48c29 26 76 60 142 60c64 0 111 -23 141 -62c32 32 79 62 148 62c120 0 175 -86 175 -191v-350h-158v338c0 42 -23 61 -54 61c-35 0 -66 -22 -76 -40v-359h-158v338c0 42 -23 61 -55 61c-33 0 -62 -19 -75 -40v-359h-158z" />
    <glyph glyph-name="n" unicode="n" horiz-adv-x="610" 
d="M75 0v529h90l38 -48c35 32 81 60 152 60c118 0 185 -79 185 -208v-333h-158v325c0 50 -27 74 -63 74c-44 0 -79 -34 -86 -42v-357h-158z" />
    <glyph glyph-name="o" unicode="o" horiz-adv-x="574" 
d="M288 130c51 0 76 27 76 59v149c0 33 -25 61 -76 61c-56 0 -78 -30 -78 -61v-149c0 -30 22 -59 78 -59zM288 -12c-157 0 -236 85 -236 196v162c0 109 79 195 236 195c155 0 234 -86 234 -195v-162c0 -111 -79 -196 -234 -196z" />
    <glyph glyph-name="p" unicode="p" horiz-adv-x="605" 
d="M324 399c-44 0 -72 -23 -91 -42v-185c19 -19 46 -42 90 -42c25 0 64 19 64 63v143c0 46 -39 63 -63 63zM356 541c100 0 189 -57 189 -194v-166c0 -136 -89 -193 -188 -193c-71 0 -108 24 -124 35v-183h-158v689h90l38 -48c35 31 79 60 153 60z" />
    <glyph glyph-name="q" unicode="q" horiz-adv-x="606" 
d="M281 399c-24 0 -63 -17 -63 -63v-143c0 -44 39 -63 64 -63c44 0 71 23 90 42v185c-19 19 -47 42 -91 42zM249 541c74 0 118 -29 153 -60l38 48h90v-689h-158v183c-16 -11 -53 -35 -124 -35c-99 0 -188 57 -188 193v166c0 137 89 194 189 194z" />
    <glyph glyph-name="r" unicode="r" horiz-adv-x="397" 
d="M75 0v529h90l38 -48c19 24 58 60 126 60h45v-149h-45c-44 0 -76 -10 -96 -36v-356h-158z" />
    <glyph glyph-name="s" unicode="s" horiz-adv-x="563" 
d="M285 -12c-149 0 -239 81 -243 195h152c9 -35 38 -60 106 -60c38 0 61 11 61 32c0 17 -13 27 -37 33l-136 33c-55 13 -129 50 -129 143c0 113 84 177 223 177c130 0 229 -74 229 -184h-151c-6 36 -43 50 -85 50c-48 0 -63 -14 -63 -32c0 -15 12 -20 34 -25l147 -35
c63 -14 121 -59 121 -149c0 -114 -94 -178 -229 -178z" />
    <glyph glyph-name="t" unicode="t" horiz-adv-x="398" 
d="M296 0c-169 0 -208 103 -208 214v179h-73v136h73v111h158v-111h112v-136h-112v-176c0 -67 27 -81 69 -81h43v-136h-62z" />
    <glyph glyph-name="u" unicode="u" horiz-adv-x="606" 
d="M530 529v-529h-90l-38 48c-31 -28 -77 -60 -150 -60c-117 0 -183 78 -183 205v336h158v-325c0 -44 10 -74 61 -74c42 0 76 32 84 39v360h158z" />
    <glyph glyph-name="v" unicode="v" horiz-adv-x="543" 
d="M201 0l-176 456v73h147l106 -312l97 312h143v-73l-176 -456h-141z" />
    <glyph glyph-name="w" unicode="w" horiz-adv-x="732" 
d="M419 441l71 -224l60 312h142v-73l-105 -456h-147l-73 192l-72 -192h-151l-104 456v73h143l61 -312l70 224h105z" />
    <glyph glyph-name="x" unicode="x" horiz-adv-x="536" 
d="M490 456l-126 -185l137 -198v-73h-141l-96 159l-95 -159h-134v73l134 191l-132 192v73h142l87 -146l92 146h132v-73z" />
    <glyph glyph-name="y" unicode="y" horiz-adv-x="520" 
d="M146 -160v56l42 104l-173 456v73h145l106 -311l97 311h143v-73l-229 -616h-131z" />
    <glyph glyph-name="z" unicode="z" horiz-adv-x="540" 
d="M49 0v136l227 257h-222v136h415v-136l-231 -257h249v-136h-438z" />
    <glyph glyph-name="braceleft" unicode="{" horiz-adv-x="350" 
d="M103 30v149c0 49 -16 69 -54 69h-24v141h24c38 0 54 20 54 69v135c0 135 66 192 187 192h10v-143h-19c-28 0 -36 -24 -36 -49v-167c0 -62 -34 -94 -68 -107c34 -13 68 -45 68 -108v-179c0 -25 8 -49 36 -49h19v-143h-10c-121 0 -187 55 -187 190z" />
    <glyph glyph-name="bar" unicode="|" horiz-adv-x="312" 
d="M85 -100v885h142v-885h-142z" />
    <glyph glyph-name="braceright" unicode="}" horiz-adv-x="350" 
d="M247 179v-149c0 -135 -66 -190 -187 -190h-10v143h19c28 0 36 24 36 49v179c0 63 34 95 68 108c-34 13 -68 45 -68 107v167c0 25 -8 49 -36 49h-19v143h10c121 0 187 -57 187 -192v-135c0 -49 16 -69 54 -69h24v-141h-24c-38 0 -54 -20 -54 -69z" />
    <glyph glyph-name="asciitilde" unicode="~" horiz-adv-x="510" 
d="M149 225l-107 59c20 52 65 126 142 126c24 0 52 -10 72 -22l30 -19c11 -7 17 -10 31 -10c16 0 27 9 44 42l107 -60c-19 -51 -64 -125 -141 -125c-25 0 -54 10 -74 23l-29 17c-11 7 -18 11 -31 11c-15 0 -26 -9 -44 -42z" />
    <glyph glyph-name="nbspace" unicode="&#xa0;" horiz-adv-x="0" 
 />
    <glyph glyph-name="exclamdown" unicode="&#xa1;" horiz-adv-x="286" 
d="M65 -160v469h156v-469h-156zM65 381v148h156v-148h-156z" />
    <glyph glyph-name="cent" unicode="&#xa2;" horiz-adv-x="556" 
d="M336 700v-80c103 -16 173 -85 173 -198v-8h-143v13c0 35 -22 59 -45 64v-288c23 5 45 28 45 64v14h143v-7c0 -113 -74 -182 -173 -201v-73h-113v74c-101 22 -171 88 -171 193v161c0 104 70 170 171 191v81h113zM191 396v-98c0 -50 5 -81 45 -95v288
c-40 -14 -45 -45 -45 -95z" />
    <glyph glyph-name="sterling" unicode="&#xa3;" horiz-adv-x="583" 
d="M35 0v142h63v139h-63v142h63v96c0 124 92 196 228 196c132 0 222 -71 222 -217v-34h-158v35c0 52 -22 74 -67 74c-52 0 -67 -28 -67 -61v-89h108v-142h-108v-139h292v-142h-513z" />
    <glyph glyph-name="yen" unicode="&#xa5;" horiz-adv-x="569" 
d="M206 0v88h-150v122h150v70h-150v122h96l-146 241v57h144l136 -244l136 244h141v-57l-146 -241h96v-122h-150v-70h150v-122h-150v-88h-157z" />
    <glyph glyph-name="brokenbar" unicode="&#xa6;" horiz-adv-x="312" 
d="M85 -100v356h142v-356h-142zM85 449v336h142v-336h-142z" />
    <glyph glyph-name="section" unicode="&#xa7;" horiz-adv-x="604" 
d="M54 28h151c0 -52 61 -65 101 -65c52 0 75 16 75 43c0 32 -30 42 -95 61l-37 11c-122 36 -186 89 -186 186c0 65 32 106 71 144c-48 32 -63 72 -63 126c0 99 82 175 222 175c141 0 246 -54 246 -197h-149c0 47 -56 61 -98 61c-55 0 -71 -19 -71 -39c0 -27 19 -40 91 -62
l43 -13c122 -37 189 -90 189 -188c0 -66 -26 -104 -64 -146c45 -38 56 -68 56 -118c0 -102 -80 -179 -240 -179c-130 0 -242 64 -242 200zM370 187c18 27 21 43 21 64c0 39 -26 56 -80 74l-62 21c-19 -25 -30 -41 -30 -64c0 -35 26 -55 86 -74z" />
    <glyph glyph-name="dieresis" unicode="&#xa8;" horiz-adv-x="507" 
d="M69 590v115h157v-115h-157zM280 590v115h158v-115h-158z" />
    <glyph glyph-name="copyright" unicode="&#xa9;" horiz-adv-x="828" 
d="M411 140c-101 0 -171 52 -171 142v137c0 90 70 142 171 142c104 0 170 -55 170 -151v-4h-122v4c0 23 -15 42 -48 42c-36 0 -49 -18 -49 -40v-126c0 -20 13 -38 49 -38c33 0 48 17 48 41v8h122v-6c0 -94 -72 -151 -170 -151zM414 -15c-203 0 -360 159 -360 365
s157 365 360 365s360 -159 360 -365s-157 -365 -360 -365zM414 65c153 0 271 122 271 285c0 162 -118 285 -271 285c-152 0 -271 -123 -271 -285c0 -163 119 -285 271 -285z" />
    <glyph glyph-name="ordfeminine" unicode="&#xaa;" horiz-adv-x="361" 
d="M137 353c-63 0 -117 36 -117 104c0 69 45 105 145 105h47v21c0 20 -15 31 -36 31s-36 -11 -36 -32h-106c0 61 40 123 143 123c105 0 142 -55 142 -127v-220h-60l-21 31c-21 -21 -59 -36 -101 -36zM166 440c11 0 33 4 46 16v37h-50c-17 0 -31 -9 -31 -26
c0 -15 12 -27 35 -27z" />
    <glyph glyph-name="guillemotleft" unicode="&#xab;" horiz-adv-x="556" 
d="M144 87l-111 212l111 210h135v-43l-83 -167l83 -168v-44h-135zM361 87l-111 212l111 210h135v-43l-83 -167l83 -168v-44h-135z" />
    <glyph glyph-name="logicalnot" unicode="&#xac;" horiz-adv-x="573" 
d="M376 206v163h-319v131h459v-294h-140z" />
    <glyph glyph-name="uni00AD" unicode="&#xad;" horiz-adv-x="447" 
d="M55 242v142h337v-142h-337z" />
    <glyph glyph-name="registered" unicode="&#xae;" horiz-adv-x="413" 
d="M140 456v176h71c43 0 68 -20 68 -61c0 -27 -14 -43 -29 -52l29 -47v-16h-50l-31 55h-10v-55h-48zM188 553h24c9 0 18 4 18 17c0 11 -9 15 -18 15h-24v-32zM206 371c-93 0 -167 74 -167 172s74 172 167 172s167 -74 167 -172s-74 -172 -167 -172zM206 415
c68 0 121 53 121 128c0 73 -53 128 -121 128s-121 -55 -121 -128c0 -75 53 -128 121 -128z" />
    <glyph glyph-name="macron" unicode="&#xaf;" horiz-adv-x="415" 
d="M36 595v110h343v-110h-343z" />
    <glyph glyph-name="degree" unicode="&#xb0;" horiz-adv-x="394" 
d="M229 493v87c0 17 -14 30 -31 30c-20 0 -31 -14 -31 -30v-87c0 -17 10 -30 31 -30c18 0 31 12 31 30zM198 358c-98 0 -163 50 -163 151v55c0 101 65 151 163 151s162 -50 162 -151v-55c0 -101 -64 -151 -162 -151z" />
    <glyph glyph-name="plusminus" unicode="&#xb1;" horiz-adv-x="588" 
d="M223 207v145h-159v130h159v145h143v-145h158v-130h-158v-145h-143zM64 0v130h460v-130h-460z" />
    <glyph glyph-name="twosuperior" unicode="&#xb2;" horiz-adv-x="312" 
d="M19 358v92l79 57c75 58 74 60 74 82c0 8 -6 19 -20 19c-21 0 -22 -15 -22 -35h-116c0 86 61 132 138 132c82 0 134 -49 134 -111c0 -50 -24 -80 -63 -108l-46 -32h109v-96h-267z" />
    <glyph glyph-name="threesuperior" unicode="&#xb3;" horiz-adv-x="319" 
d="M165 353c-99 0 -150 54 -150 131h96c-1 -19 17 -32 43 -32c24 0 33 9 33 19c0 15 -16 19 -32 19h-26v78h26c18 0 28 3 28 18c0 12 -12 20 -31 20c-22 0 -36 -14 -36 -35h-96c0 86 54 134 144 134c79 0 128 -44 128 -101c0 -30 -13 -53 -29 -65c21 -11 38 -40 38 -73
c0 -65 -53 -113 -136 -113z" />
    <glyph glyph-name="acute" unicode="&#xb4;" horiz-adv-x="311" 
d="M254 676l-75 -86h-123l57 140h141v-54z" />
    <glyph glyph-name="mu" unicode="&#xb5;" horiz-adv-x="612" 
d="M536 529v-529h-90l-38 48c-31 -28 -77 -60 -150 -60c-9 0 -17 1 -25 2v-150h-158v689h158v-335c0 -38 14 -64 61 -64c42 0 76 31 84 39v360h158z" />
    <glyph glyph-name="paragraph" unicode="&#xb6;" horiz-adv-x="645" 
d="M210 -87v455c-108 0 -175 58 -175 162v8c0 106 67 162 175 162h350v-787h-145v644h-60v-644h-145z" />
    <glyph glyph-name="periodcentered" unicode="&#xb7;" horiz-adv-x="299" 
d="M65 239v148h169v-148h-169z" />
    <glyph glyph-name="cedilla" unicode="&#xb8;" horiz-adv-x="308" 
d="M62 -106l71 106h123l-53 -160h-141v54z" />
    <glyph glyph-name="onesuperior" unicode="&#xb9;" horiz-adv-x="268" 
d="M106 358v176h-75v55l160 111h25v-342h-110z" />
    <glyph glyph-name="ordmasculine" unicode="&#xba;" horiz-adv-x="386" 
d="M193 353c-96 0 -157 51 -157 139v73c0 88 61 140 157 140c97 0 157 -52 157 -140v-73c0 -88 -60 -139 -157 -139zM194 451c32 0 47 17 47 36v82c0 21 -15 38 -47 38c-34 0 -48 -19 -48 -38v-82c0 -18 14 -36 48 -36z" />
    <glyph glyph-name="guillemotright" unicode="&#xbb;" horiz-adv-x="556" 
d="M314 299l-111 -212h-135v44l83 168l-83 167v43h135zM531 299l-111 -212h-135v44l83 168l-83 167v43h135z" />
    <glyph glyph-name="onequarter" unicode="&#xbc;" horiz-adv-x="747" 
d="M103 0v56l414 644h84v-57l-414 -643h-84zM106 358v176h-75v55l160 111h25v-342h-110zM523 342h81v-60l-81 -146h53v63h105v-63h34v-87h-34v-49h-105v49h-169v90z" />
    <glyph glyph-name="onehalf" unicode="&#xbd;" horiz-adv-x="757" 
d="M103 0v56l414 644h84v-57l-414 -643h-84zM106 358v176h-75v55l160 111h25v-342h-110zM464 0v92l79 57c75 58 74 60 74 82c0 8 -6 19 -20 19c-21 0 -22 -15 -22 -35h-116c0 86 61 132 138 132c82 0 134 -49 134 -111c0 -50 -24 -80 -63 -108l-46 -32h109v-96h-267z" />
    <glyph glyph-name="threequarters" unicode="&#xbe;" horiz-adv-x="771" 
d="M127 0v56l414 644h84v-57l-414 -643h-84zM547 342h81v-60l-81 -146h53v63h105v-63h34v-87h-34v-49h-105v49h-169v90zM165 353c-99 0 -150 54 -150 131h96c-1 -19 17 -32 43 -32c24 0 33 9 33 19c0 15 -16 19 -32 19h-26v78h26c18 0 28 3 28 18c0 12 -12 20 -31 20
c-22 0 -36 -14 -36 -35h-96c0 86 54 134 144 134c79 0 128 -44 128 -101c0 -30 -13 -53 -29 -65c21 -11 38 -40 38 -73c0 -65 -53 -113 -136 -113z" />
    <glyph glyph-name="questiondown" unicode="&#xbf;" horiz-adv-x="528" 
d="M345 309v-109l-105 -73c-42 -29 -62 -46 -62 -89c0 -42 30 -68 76 -68c60 0 87 44 87 101h151c0 -156 -104 -243 -241 -243c-154 0 -230 94 -230 206c0 110 76 162 142 202l26 16v57h156zM345 529v-148h-156v148h156z" />
    <glyph glyph-name="Agrave" unicode="&#xc0;" horiz-adv-x="664" 
d="M488 0l-49 151h-222l-50 -151h-152v56l232 644h169l233 -644v-56h-161zM329 486l-64 -191h126zM264 762l-79 93v58h151l61 -151h-133z" />
    <glyph glyph-name="Aacute" unicode="&#xc1;" horiz-adv-x="664" 
d="M488 0l-49 151h-222l-50 -151h-152v56l232 644h169l233 -644v-56h-161zM329 486l-64 -191h126zM481 855l-80 -93h-132l61 151h151v-58z" />
    <glyph glyph-name="Acircumflex" unicode="&#xc2;" horiz-adv-x="664" 
d="M488 0l-49 151h-222l-50 -151h-152v56l232 644h169l233 -644v-56h-161zM329 486l-64 -191h126zM397 913l96 -97v-54h-125l-34 56l-35 -56h-128v54l94 97h132z" />
    <glyph glyph-name="Atilde" unicode="&#xc3;" horiz-adv-x="664" 
d="M488 0l-49 151h-222l-50 -151h-152v56l232 644h169l233 -644v-56h-161zM329 486l-64 -191h126zM239 750l-98 54c31 60 67 107 126 107c27 0 46 -8 60 -17l27 -15c11 -6 21 -9 29 -9c17 0 27 11 43 41l98 -55c-31 -59 -67 -106 -126 -106c-28 0 -46 8 -60 16l-27 15
c-11 7 -21 10 -29 10c-17 0 -27 -12 -43 -41z" />
    <glyph glyph-name="Adieresis" unicode="&#xc4;" horiz-adv-x="664" 
d="M488 0l-49 151h-222l-50 -151h-152v56l232 644h169l233 -644v-56h-161zM329 486l-64 -191h126zM134 763v123h168v-123h-168zM360 763v123h170v-123h-170z" />
    <glyph glyph-name="Aring" unicode="&#xc5;" horiz-adv-x="664" 
d="M488 0l-49 151h-222l-50 -151h-152v56l232 644h169l233 -644v-56h-161zM329 486l-64 -191h126zM210 847c0 64 55 113 122 113s121 -49 121 -113c0 -63 -54 -113 -121 -113s-122 50 -122 113zM301 847c0 -18 16 -30 31 -30s31 12 31 30c0 20 -16 31 -31 31
s-31 -11 -31 -31z" />
    <glyph glyph-name="AE" unicode="&#xc6;" horiz-adv-x="1027" 
d="M5 0v56l407 644h555v-150h-297v-129h251v-142h-251v-129h299v-150h-471v151h-249l-93 -151h-151zM338 295h160v258z" />
    <glyph glyph-name="Ccedilla" unicode="&#xc7;" horiz-adv-x="661" 
d="M206 -106l64 97c-135 22 -205 109 -205 246v226c0 159 96 252 278 252c140 0 264 -70 264 -249v-10h-172v10c0 69 -49 91 -103 91c-67 0 -95 -32 -95 -82v-249c0 -51 28 -83 95 -83c54 0 103 19 103 92v9h172v-10c0 -156 -94 -229 -211 -245l-49 -149h-141v54z" />
    <glyph glyph-name="Egrave" unicode="&#xc8;" horiz-adv-x="613" 
d="M85 0v700h468v-150h-296v-128h250v-142h-250v-130h298v-150h-470zM273 762l-79 93v58h151l61 -151h-133z" />
    <glyph glyph-name="Eacute" unicode="&#xc9;" horiz-adv-x="613" 
d="M85 0v700h468v-150h-296v-128h250v-142h-250v-130h298v-150h-470zM433 855l-80 -93h-132l61 151h151v-58z" />
    <glyph glyph-name="Ecircumflex" unicode="&#xca;" horiz-adv-x="613" 
d="M85 0v700h468v-150h-296v-128h250v-142h-250v-130h298v-150h-470zM385 913l96 -97v-54h-125l-34 56l-35 -56h-128v54l94 97h132z" />
    <glyph glyph-name="Edieresis" unicode="&#xcb;" horiz-adv-x="613" 
d="M85 0v700h468v-150h-296v-128h250v-142h-250v-130h298v-150h-470zM124 763v123h168v-123h-168zM350 763v123h169v-123h-169z" />
    <glyph glyph-name="Igrave" unicode="&#xcc;" horiz-adv-x="343" 
d="M85 0v700h172v-700h-172zM103 762l-79 93v58h151l61 -151h-133z" />
    <glyph glyph-name="Iacute" unicode="&#xcd;" horiz-adv-x="343" 
d="M85 0v700h172v-700h-172zM322 855l-80 -93h-132l61 151h151v-58z" />
    <glyph glyph-name="Icircumflex" unicode="&#xce;" horiz-adv-x="343" 
d="M85 0v700h172v-700h-172zM237 913l96 -97v-54h-125l-34 56l-35 -56h-128v54l94 97h132z" />
    <glyph glyph-name="Idieresis" unicode="&#xcf;" horiz-adv-x="343" 
d="M85 0v700h172v-700h-172zM-25 763v123h168v-123h-168zM200 763v123h169v-123h-169z" />
    <glyph glyph-name="Eth" unicode="&#xd0;" horiz-adv-x="721" 
d="M283 150h88c77 0 112 46 112 85v230c0 40 -35 85 -112 85h-88v-128h89v-142h-89v-130zM111 0v280h-91v142h91v278h260c173 0 284 -86 284 -239v-222c0 -155 -111 -239 -284 -239h-260z" />
    <glyph glyph-name="Ntilde" unicode="&#xd1;" horiz-adv-x="725" 
d="M85 0v700h158l229 -379v379h167v-700h-157l-230 379v-379h-167zM269 736l-98 54c31 60 67 107 126 107c27 0 46 -8 60 -17l27 -15c11 -6 21 -9 29 -9c17 0 27 11 43 41l98 -55c-31 -59 -67 -106 -126 -106c-28 0 -46 8 -60 16l-27 15c-11 7 -21 10 -29 10
c-17 0 -27 -12 -43 -41z" />
    <glyph glyph-name="Ograve" unicode="&#xd2;" horiz-adv-x="699" 
d="M349 143c82 0 112 49 112 89v237c0 39 -30 88 -112 88c-81 0 -112 -49 -112 -88v-237c0 -40 31 -89 112 -89zM349 -15c-172 0 -284 93 -284 253v222c0 162 112 255 284 255c173 0 284 -93 284 -255v-222c0 -160 -111 -253 -284 -253zM282 762l-79 93v58h151l61 -151h-133
z" />
    <glyph glyph-name="Oacute" unicode="&#xd3;" horiz-adv-x="699" 
d="M349 143c82 0 112 49 112 89v237c0 39 -30 88 -112 88c-81 0 -112 -49 -112 -88v-237c0 -40 31 -89 112 -89zM349 -15c-172 0 -284 93 -284 253v222c0 162 112 255 284 255c173 0 284 -93 284 -255v-222c0 -160 -111 -253 -284 -253zM496 855l-80 -93h-132l61 151h151
v-58z" />
    <glyph glyph-name="Ocircumflex" unicode="&#xd4;" horiz-adv-x="699" 
d="M349 143c82 0 112 49 112 89v237c0 39 -30 88 -112 88c-81 0 -112 -49 -112 -88v-237c0 -40 31 -89 112 -89zM349 -15c-172 0 -284 93 -284 253v222c0 162 112 255 284 255c173 0 284 -93 284 -255v-222c0 -160 -111 -253 -284 -253zM415 913l96 -97v-54h-125l-34 56
l-35 -56h-128v54l94 97h132z" />
    <glyph glyph-name="Otilde" unicode="&#xd5;" horiz-adv-x="699" 
d="M349 143c82 0 112 49 112 89v237c0 39 -30 88 -112 88c-81 0 -112 -49 -112 -88v-237c0 -40 31 -89 112 -89zM349 -15c-172 0 -284 93 -284 253v222c0 162 112 255 284 255c173 0 284 -93 284 -255v-222c0 -160 -111 -253 -284 -253zM265 750l-98 54
c31 60 67 107 126 107c27 0 46 -8 60 -17l27 -15c11 -6 21 -9 29 -9c17 0 27 11 43 41l98 -55c-31 -59 -67 -106 -126 -106c-28 0 -46 8 -60 16l-27 15c-11 7 -21 10 -29 10c-17 0 -27 -12 -43 -41z" />
    <glyph glyph-name="Odieresis" unicode="&#xd6;" horiz-adv-x="699" 
d="M349 143c82 0 112 49 112 89v237c0 39 -30 88 -112 88c-81 0 -112 -49 -112 -88v-237c0 -40 31 -89 112 -89zM349 -15c-172 0 -284 93 -284 253v222c0 162 112 255 284 255c173 0 284 -93 284 -255v-222c0 -160 -111 -253 -284 -253zM152 763v123h168v-123h-168zM378 763
v123h170v-123h-170z" />
    <glyph glyph-name="multiply" unicode="&#xd7;" horiz-adv-x="584" 
d="M158 85l-94 94l134 134l-134 134l94 95l134 -135l134 135l94 -95l-133 -134l133 -134l-94 -94l-134 134z" />
    <glyph glyph-name="Oslash" unicode="&#xd8;" horiz-adv-x="699" 
d="M349 -15c-18 0 -36 2 -52 4l-23 -89h-126v56l23 74c-68 42 -106 113 -106 208v222c0 162 112 255 284 255c18 0 35 -1 51 -3l24 88h126v-57l-24 -73c68 -42 107 -114 107 -210v-222c0 -160 -111 -253 -284 -253zM350 127c89 0 121 53 121 96v256c0 17 -4 32 -13 44
l-125 -395c9 -1 13 -1 17 -1zM229 223c0 -15 3 -29 10 -41l123 390c-6 1 -10 1 -12 1c-88 0 -121 -53 -121 -94v-256z" />
    <glyph glyph-name="Ugrave" unicode="&#xd9;" horiz-adv-x="705" 
d="M352 -15c-171 0 -277 91 -277 244v471h172v-477c0 -34 26 -80 105 -80c80 0 105 46 105 80v477h172v-471c0 -153 -106 -244 -277 -244zM297 762l-79 93v58h151l61 -151h-133z" />
    <glyph glyph-name="Uacute" unicode="&#xda;" horiz-adv-x="705" 
d="M352 -15c-171 0 -277 91 -277 244v471h172v-477c0 -34 26 -80 105 -80c80 0 105 46 105 80v477h172v-471c0 -153 -106 -244 -277 -244zM477 855l-80 -93h-132l61 151h151v-58z" />
    <glyph glyph-name="Ucircumflex" unicode="&#xdb;" horiz-adv-x="705" 
d="M352 -15c-171 0 -277 91 -277 244v471h172v-477c0 -34 26 -80 105 -80c80 0 105 46 105 80v477h172v-471c0 -153 -106 -244 -277 -244zM418 913l96 -97v-54h-125l-34 56l-35 -56h-128v54l94 97h132z" />
    <glyph glyph-name="Udieresis" unicode="&#xdc;" horiz-adv-x="705" 
d="M352 -15c-171 0 -277 91 -277 244v471h172v-477c0 -34 26 -80 105 -80c80 0 105 46 105 80v477h172v-471c0 -153 -106 -244 -277 -244zM155 763v123h168v-123h-168zM381 763v123h170v-123h-170z" />
    <glyph glyph-name="Yacute" unicode="&#xdd;" horiz-adv-x="619" 
d="M221 0v277l-215 366v57h164l141 -256l142 256h160v-57l-219 -360v-283h-173zM441 855l-80 -93h-132l61 151h151v-58z" />
    <glyph glyph-name="Thorn" unicode="&#xde;" horiz-adv-x="647" 
d="M85 0v700h172v-124h148c127 0 201 -86 201 -221s-74 -223 -201 -223h-148v-132h-172zM257 282h115c25 0 60 20 60 73c0 55 -35 71 -60 71h-115v-144z" />
    <glyph glyph-name="germandbls" unicode="&#xdf;" horiz-adv-x="611" 
d="M75 0v464c0 157 88 245 229 245c143 0 224 -82 224 -195c0 -55 -18 -99 -51 -127c53 -24 88 -91 88 -168c0 -129 -92 -219 -234 -219c-17 0 -31 1 -47 5v139c9 -1 20 -2 32 -2c56 0 92 28 92 87s-34 86 -92 86h-34v137h23c45 0 65 19 65 58c0 35 -26 56 -64 56
c-48 0 -73 -27 -73 -81v-485h-158z" />
    <glyph glyph-name="agrave" unicode="&#xe0;" horiz-adv-x="576" 
d="M253 126c-40 0 -55 22 -55 44c0 32 29 45 74 45h77v-50c-31 -31 -65 -39 -96 -39zM219 -12c76 0 120 24 159 60l38 -48h90v356c0 109 -74 185 -223 185c-150 0 -219 -76 -219 -183h154c0 23 18 41 65 41c45 0 66 -19 66 -55v-23h-97c-143 0 -212 -61 -212 -170
c0 -105 81 -163 179 -163zM234 590l-74 86v54h141l57 -140h-124z" />
    <glyph glyph-name="aacute" unicode="&#xe1;" horiz-adv-x="577" 
d="M253 126c-40 0 -55 22 -55 44c0 32 29 45 74 45h77v-50c-31 -31 -65 -39 -96 -39zM219 -12c76 0 120 24 159 60l38 -48h90v356c0 109 -74 185 -223 185c-150 0 -219 -76 -219 -183h154c0 23 18 41 65 41c45 0 66 -19 66 -55v-23h-97c-143 0 -212 -61 -212 -170
c0 -105 81 -163 179 -163zM403 676l-75 -86h-123l57 140h141v-54z" />
    <glyph glyph-name="acircumflex" unicode="&#xe2;" horiz-adv-x="576" 
d="M253 126c-40 0 -55 22 -55 44c0 32 29 45 74 45h77v-50c-31 -31 -65 -39 -96 -39zM219 -12c76 0 120 24 159 60l38 -48h90v356c0 109 -74 185 -223 185c-150 0 -219 -76 -219 -183h154c0 23 18 41 65 41c45 0 66 -19 66 -55v-23h-97c-143 0 -212 -61 -212 -170
c0 -105 81 -163 179 -163zM352 730l89 -90v-50h-116l-32 52l-33 -52h-119v50l88 90h123z" />
    <glyph glyph-name="atilde" unicode="&#xe3;" horiz-adv-x="576" 
d="M253 126c-40 0 -55 22 -55 44c0 32 29 45 74 45h77v-50c-31 -31 -65 -39 -96 -39zM219 -12c76 0 120 24 159 60l38 -48h90v356c0 109 -74 185 -223 185c-150 0 -219 -76 -219 -183h154c0 23 18 41 65 41c45 0 66 -19 66 -55v-23h-97c-143 0 -212 -61 -212 -170
c0 -105 81 -163 179 -163zM207 575l-95 53c30 58 65 104 122 104c27 0 45 -8 59 -16l26 -15c11 -6 20 -9 28 -9c17 0 26 11 42 40l95 -53c-30 -58 -65 -104 -122 -104c-27 0 -45 8 -59 16l-26 15c-11 6 -20 9 -28 9c-17 0 -26 -11 -42 -40z" />
    <glyph glyph-name="adieresis" unicode="&#xe4;" horiz-adv-x="576" 
d="M253 126c-40 0 -55 22 -55 44c0 32 29 45 74 45h77v-50c-31 -31 -65 -39 -96 -39zM219 -12c76 0 120 24 159 60l38 -48h90v356c0 109 -74 185 -223 185c-150 0 -219 -76 -219 -183h154c0 23 18 41 65 41c45 0 66 -19 66 -55v-23h-97c-143 0 -212 -61 -212 -170
c0 -105 81 -163 179 -163zM110 590v115h157v-115h-157zM321 590v115h158v-115h-158z" />
    <glyph glyph-name="aring" unicode="&#xe5;" horiz-adv-x="576" 
d="M253 126c-40 0 -55 22 -55 44c0 32 29 45 74 45h77v-50c-31 -31 -65 -39 -96 -39zM219 -12c76 0 120 24 159 60l38 -48h90v356c0 109 -74 185 -223 185c-150 0 -219 -76 -219 -183h154c0 23 18 41 65 41c45 0 66 -19 66 -55v-23h-97c-143 0 -212 -61 -212 -170
c0 -105 81 -163 179 -163zM181 678c0 59 51 105 114 105c62 0 113 -46 113 -105s-51 -106 -113 -106c-63 0 -114 47 -114 106zM266 678c0 -17 15 -28 29 -28s29 11 29 28c0 18 -15 28 -29 28s-29 -10 -29 -28z" />
    <glyph glyph-name="ae" unicode="&#xe6;" horiz-adv-x="859" 
d="M224 -12c-102 0 -184 55 -184 160c0 112 69 175 218 175h91v22c0 36 -21 54 -66 54c-47 0 -65 -18 -65 -41h-154c0 107 69 183 219 183c55 0 104 -5 151 -37c45 30 100 37 151 37c130 0 223 -65 223 -193v-137h-302v-27c0 -31 23 -54 79 -54c36 0 57 11 66 31h157
c-12 -109 -91 -173 -223 -173c-80 0 -149 18 -196 71c-35 -39 -88 -71 -165 -71zM253 126c39 0 64 4 96 36v51h-64c-67 0 -87 -10 -87 -43c0 -22 15 -44 55 -44zM506 324h145v29c0 32 -28 51 -74 51c-47 0 -71 -20 -71 -51v-29z" />
    <glyph glyph-name="ccedilla" unicode="&#xe7;" horiz-adv-x="548" 
d="M126 -106l70 105c-88 24 -144 89 -144 185v162c0 123 93 195 229 195c131 0 220 -71 220 -203v-6h-158v6c0 38 -22 61 -68 61s-65 -25 -65 -56v-157c0 -31 19 -56 65 -56s68 22 68 58v12h158v-7c0 -118 -77 -190 -185 -203l-49 -150h-141v54z" />
    <glyph glyph-name="egrave" unicode="&#xe8;" horiz-adv-x="563" 
d="M288 -12c-139 0 -236 66 -236 194v164c0 123 97 195 236 195c128 0 224 -65 224 -193v-136h-302v-29c0 -31 22 -53 78 -53c35 0 57 11 66 31h157c-10 -109 -93 -173 -223 -173zM210 325h144v28c0 32 -25 51 -72 51s-72 -19 -72 -51v-28zM250 590l-74 86v54h141l57 -140
h-124z" />
    <glyph glyph-name="eacute" unicode="&#xe9;" horiz-adv-x="563" 
d="M288 -12c-139 0 -236 66 -236 194v164c0 123 97 195 236 195c128 0 224 -65 224 -193v-136h-302v-29c0 -31 22 -53 78 -53c35 0 57 11 66 31h157c-10 -109 -93 -173 -223 -173zM210 325h144v28c0 32 -25 51 -72 51s-72 -19 -72 -51v-28zM410 676l-75 -86h-123l57 140h141
v-54z" />
    <glyph glyph-name="ecircumflex" unicode="&#xea;" horiz-adv-x="563" 
d="M288 -12c-139 0 -236 66 -236 194v164c0 123 97 195 236 195c128 0 224 -65 224 -193v-136h-302v-29c0 -31 22 -53 78 -53c35 0 57 11 66 31h157c-10 -109 -93 -173 -223 -173zM210 325h144v28c0 32 -25 51 -72 51s-72 -19 -72 -51v-28zM344 730l89 -90v-50h-116l-32 52
l-33 -52h-119v50l88 90h123z" />
    <glyph glyph-name="edieresis" unicode="&#xeb;" horiz-adv-x="563" 
d="M288 -12c-139 0 -236 66 -236 194v164c0 123 97 195 236 195c128 0 224 -65 224 -193v-136h-302v-29c0 -31 22 -53 78 -53c35 0 57 11 66 31h157c-10 -109 -93 -173 -223 -173zM210 325h144v28c0 32 -25 51 -72 51s-72 -19 -72 -51v-28zM100 590v115h157v-115h-157z
M311 590v115h158v-115h-158z" />
    <glyph glyph-name="igrave" unicode="&#xec;" horiz-adv-x="308" 
d="M93 590l-74 86v54h141l57 -140h-124zM75 0v529h158v-529h-158z" />
    <glyph glyph-name="iacute" unicode="&#xed;" horiz-adv-x="308" 
d="M291 676l-75 -86h-123l57 140h141v-54zM75 0v529h158v-529h-158z" />
    <glyph glyph-name="icircumflex" unicode="&#xee;" horiz-adv-x="308" 
d="M75 0v529h158v-529h-158zM215 730l89 -90v-50h-116l-32 52l-33 -52h-119v50l88 90h123z" />
    <glyph glyph-name="idieresis" unicode="&#xef;" horiz-adv-x="308" 
d="M-30 590v115h157v-115h-157zM181 590v115h158v-115h-158zM75 0v529h158v-529h-158z" />
    <glyph glyph-name="eth" unicode="&#xf0;" horiz-adv-x="562" 
d="M283 -12c-136 0 -235 72 -235 196v114c0 143 95 194 194 194c50 0 64 -5 85 -15c-18 13 -33 27 -52 44h-140v78h68l-33 33v73h142l78 -106h108v-78h-47c58 -84 69 -136 69 -257v-82c0 -128 -99 -194 -237 -194zM283 130c55 0 79 29 79 59v122c-17 20 -43 39 -79 39
c-39 0 -77 -14 -77 -59v-102c0 -32 26 -59 77 -59z" />
    <glyph glyph-name="ntilde" unicode="&#xf1;" horiz-adv-x="610" 
d="M75 0v529h90l38 -48c35 32 81 60 152 60c118 0 185 -79 185 -208v-333h-158v325c0 50 -27 74 -63 74c-44 0 -79 -34 -86 -42v-357h-158zM220 575l-95 53c30 58 65 104 122 104c27 0 45 -8 59 -16l26 -15c11 -6 20 -9 28 -9c17 0 26 11 42 40l95 -53
c-30 -58 -65 -104 -122 -104c-27 0 -45 8 -59 16l-26 15c-11 6 -20 9 -28 9c-17 0 -26 -11 -42 -40z" />
    <glyph glyph-name="ograve" unicode="&#xf2;" horiz-adv-x="574" 
d="M288 130c51 0 76 27 76 59v149c0 33 -25 61 -76 61c-56 0 -78 -30 -78 -61v-149c0 -30 22 -59 78 -59zM288 -12c-157 0 -236 85 -236 196v162c0 109 79 195 236 195c155 0 234 -86 234 -195v-162c0 -111 -79 -196 -234 -196zM238 590l-74 86v54h141l57 -140h-124z" />
    <glyph glyph-name="oacute" unicode="&#xf3;" horiz-adv-x="574" 
d="M288 130c51 0 76 27 76 59v149c0 33 -25 61 -76 61c-56 0 -78 -30 -78 -61v-149c0 -30 22 -59 78 -59zM288 -12c-157 0 -236 85 -236 196v162c0 109 79 195 236 195c155 0 234 -86 234 -195v-162c0 -111 -79 -196 -234 -196zM408 676l-75 -86h-123l57 140h141v-54z" />
    <glyph glyph-name="ocircumflex" unicode="&#xf4;" horiz-adv-x="574" 
d="M288 130c51 0 76 27 76 59v149c0 33 -25 61 -76 61c-56 0 -78 -30 -78 -61v-149c0 -30 22 -59 78 -59zM288 -12c-157 0 -236 85 -236 196v162c0 109 79 195 236 195c155 0 234 -86 234 -195v-162c0 -111 -79 -196 -234 -196zM349 730l89 -90v-50h-116l-32 52l-33 -52
h-119v50l88 90h123z" />
    <glyph glyph-name="otilde" unicode="&#xf5;" horiz-adv-x="574" 
d="M288 130c51 0 76 27 76 59v149c0 33 -25 61 -76 61c-56 0 -78 -30 -78 -61v-149c0 -30 22 -59 78 -59zM288 -12c-157 0 -236 85 -236 196v162c0 109 79 195 236 195c155 0 234 -86 234 -195v-162c0 -111 -79 -196 -234 -196zM195 575l-95 53c30 58 65 104 122 104
c27 0 45 -8 59 -16l26 -15c11 -6 20 -9 28 -9c17 0 26 11 42 40l95 -53c-30 -58 -65 -104 -122 -104c-27 0 -45 8 -59 16l-26 15c-11 6 -20 9 -28 9c-17 0 -26 -11 -42 -40z" />
    <glyph glyph-name="odieresis" unicode="&#xf6;" horiz-adv-x="574" 
d="M288 130c51 0 76 27 76 59v149c0 33 -25 61 -76 61c-56 0 -78 -30 -78 -61v-149c0 -30 22 -59 78 -59zM288 -12c-157 0 -236 85 -236 196v162c0 109 79 195 236 195c155 0 234 -86 234 -195v-162c0 -111 -79 -196 -234 -196zM103 590v115h157v-115h-157zM314 590v115h158
v-115h-158z" />
    <glyph glyph-name="divide" unicode="&#xf7;" horiz-adv-x="588" 
d="M202 54v131h184v-131h-184zM64 248v130h460v-130h-460zM202 441v131h184v-131h-184z" />
    <glyph glyph-name="oslash" unicode="&#xf8;" horiz-adv-x="584" 
d="M288 -12c-36 0 -67 4 -94 12l-1 -2l-72 -124h-69v74l58 97c-39 35 -58 84 -58 139v162c0 109 79 195 236 195c36 0 68 -5 96 -14v1l68 118h70v-74l-54 -92c36 -35 54 -82 54 -134v-162c0 -111 -79 -196 -234 -196zM200 197l122 208c-10 3 -22 5 -35 5
c-63 0 -87 -34 -87 -69v-144zM287 116c58 0 87 31 87 67v145l-121 -208c10 -3 21 -4 34 -4z" />
    <glyph glyph-name="ugrave" unicode="&#xf9;" horiz-adv-x="606" 
d="M530 0v529h-158v-360c-8 -7 -42 -39 -84 -39c-51 0 -61 30 -61 74v325h-158v-336c0 -127 66 -205 183 -205c73 0 119 32 150 60l38 -48h90zM259 590l-74 86v54h141l57 -140h-124z" />
    <glyph glyph-name="uacute" unicode="&#xfa;" horiz-adv-x="606" 
d="M530 0v529h-158v-360c-8 -7 -42 -39 -84 -39c-51 0 -61 30 -61 74v325h-158v-336c0 -127 66 -205 183 -205c73 0 119 32 150 60l38 -48h90zM415 676l-75 -86h-123l57 140h141v-54z" />
    <glyph glyph-name="ucircumflex" unicode="&#xfb;" horiz-adv-x="606" 
d="M530 0v529h-158v-360c-8 -7 -42 -39 -84 -39c-51 0 -61 30 -61 74v325h-158v-336c0 -127 66 -205 183 -205c73 0 119 32 150 60l38 -48h90zM362 730l89 -90v-50h-116l-32 52l-33 -52h-119v50l88 90h123z" />
    <glyph glyph-name="udieresis" unicode="&#xfc;" horiz-adv-x="606" 
d="M530 0v529h-158v-360c-8 -7 -42 -39 -84 -39c-51 0 -61 30 -61 74v325h-158v-336c0 -127 66 -205 183 -205c73 0 119 32 150 60l38 -48h90zM120 590v115h157v-115h-157zM331 590v115h158v-115h-158z" />
    <glyph glyph-name="yacute" unicode="&#xfd;" horiz-adv-x="520" 
d="M146 -160v56l42 104l-173 456v73h145l106 -311l97 311h143v-73l-229 -616h-131zM387 676l-75 -86h-123l57 140h141v-54z" />
    <glyph glyph-name="thorn" unicode="&#xfe;" horiz-adv-x="605" 
d="M357 541c99 0 188 -57 188 -193v-166c0 -137 -89 -194 -188 -194c-70 0 -108 24 -124 35v-183h-158v865h158v-199c15 11 54 35 124 35zM324 130c24 0 63 19 63 64v142c0 44 -39 63 -63 63c-44 0 -71 -23 -91 -42v-185c20 -19 47 -42 91 -42z" />
    <glyph glyph-name="ydieresis" unicode="&#xff;" horiz-adv-x="520" 
d="M146 -160v56l42 104l-173 456v73h145l106 -311l97 311h143v-73l-229 -616h-131zM77 590v115h157v-115h-157zM288 590v115h158v-115h-158z" />
    <glyph glyph-name="Amacron" unicode="&#x100;" horiz-adv-x="664" 
d="M488 0l-49 151h-222l-50 -151h-152v56l232 644h169l233 -644v-56h-161zM329 486l-64 -191h126zM149 768v118h367v-118h-367z" />
    <glyph glyph-name="amacron" unicode="&#x101;" horiz-adv-x="576" 
d="M253 126c-40 0 -55 22 -55 44c0 32 29 45 74 45h77v-50c-31 -31 -65 -39 -96 -39zM219 -12c76 0 120 24 159 60l38 -48h90v356c0 109 -74 185 -223 185c-150 0 -219 -76 -219 -183h154c0 23 18 41 65 41c45 0 66 -19 66 -55v-23h-97c-143 0 -212 -61 -212 -170
c0 -105 81 -163 179 -163zM124 595v110h343v-110h-343z" />
    <glyph glyph-name="Aogonek" unicode="&#x104;" horiz-adv-x="664" 
d="M483 0l-49 151h-212l-50 -151h-157v56l232 644h169l233 -644v-56c-23 -20 -31 -33 -31 -46c0 -14 12 -21 33 -21h31v-93h-59c-67 0 -107 25 -107 73c0 24 15 54 48 87h-81zM329 476l-60 -181h118z" />
    <glyph glyph-name="aogonek" unicode="&#x105;" horiz-adv-x="575" 
d="M481 -160c-67 0 -108 28 -108 73c0 24 14 54 43 87l-42 45c-39 -36 -79 -57 -155 -57c-96 0 -179 55 -179 160c0 109 69 173 212 173h97v23c0 37 -21 55 -66 55c-47 0 -65 -18 -65 -41h-154c0 107 69 183 219 183c149 0 223 -76 223 -185v-356c-22 -20 -31 -34 -31 -49
c0 -11 13 -18 36 -18h28v-93h-58zM253 126c40 0 65 5 96 39v47h-97c-41 0 -54 -21 -54 -42c0 -22 15 -44 55 -44z" />
    <glyph glyph-name="Cacute" unicode="&#x106;" horiz-adv-x="661" 
d="M343 -15c-182 0 -278 93 -278 252v226c0 159 96 252 278 252c140 0 264 -70 264 -249v-10h-172v10c0 69 -49 91 -103 91c-67 0 -95 -32 -95 -82v-249c0 -51 28 -83 95 -83c54 0 103 19 103 92v9h172v-10c0 -179 -124 -249 -264 -249zM477 855l-80 -93h-132l61 151h151
v-58z" />
    <glyph glyph-name="cacute" unicode="&#x107;" horiz-adv-x="548" 
d="M210 343v-157c0 -31 19 -56 65 -56s68 22 68 58v12h158v-7c0 -130 -94 -205 -220 -205c-136 0 -229 72 -229 196v162c0 123 93 195 229 195c131 0 220 -71 220 -203v-6h-158v6c0 38 -22 61 -68 61s-65 -25 -65 -56zM417 676l-75 -86h-123l57 140h141v-54z" />
    <glyph glyph-name="Ccaron" unicode="&#x10c;" horiz-adv-x="661" 
d="M343 -15c-182 0 -278 93 -278 252v226c0 159 96 252 278 252c140 0 264 -70 264 -249v-10h-172v10c0 69 -49 91 -103 91c-67 0 -95 -32 -95 -82v-249c0 -51 28 -83 95 -83c54 0 103 19 103 92v9h172v-10c0 -179 -124 -249 -264 -249zM501 860l-96 -97h-132l-94 97v53h128
l35 -56l34 56h125v-53z" />
    <glyph glyph-name="ccaron" unicode="&#x10d;" horiz-adv-x="548" 
d="M210 343v-157c0 -31 19 -56 65 -56s68 22 68 58v12h158v-7c0 -130 -94 -205 -220 -205c-136 0 -229 72 -229 196v162c0 123 93 195 229 195c131 0 220 -71 220 -203v-6h-158v6c0 38 -22 61 -68 61s-65 -25 -65 -56zM426 680l-89 -90h-123l-88 90v50h119l33 -52l32 52h116
v-50z" />
    <glyph glyph-name="Dcaron" unicode="&#x10e;" horiz-adv-x="694" 
d="M257 150h87c78 0 112 46 112 85v230c0 40 -34 85 -112 85h-87v-400zM85 0v700h259c176 0 284 -86 284 -239v-222c0 -155 -108 -239 -284 -239h-259zM507 860l-96 -97h-132l-94 97v53h128l35 -56l34 56h125v-53z" />
    <glyph glyph-name="dcaron" unicode="&#x10f;" horiz-adv-x="734" 
d="M593 505l28 200h143v-66l-72 -134h-99zM281 130c-24 0 -63 17 -63 63v143c0 44 39 63 64 63c44 0 71 -23 90 -42v-185c-19 -19 -47 -42 -91 -42zM249 -12c74 0 118 29 153 60l38 -48h90v705h-158v-199c-16 11 -53 35 -124 35c-99 0 -188 -57 -188 -193v-166
c0 -137 89 -194 189 -194z" />
    <glyph glyph-name="Emacron" unicode="&#x112;" horiz-adv-x="613" 
d="M85 0v700h468v-150h-296v-128h250v-142h-250v-130h298v-150h-470zM137 768v118h367v-118h-367z" />
    <glyph glyph-name="emacron" unicode="&#x113;" horiz-adv-x="563" 
d="M288 -12c-139 0 -236 66 -236 194v164c0 123 97 195 236 195c128 0 224 -65 224 -193v-136h-302v-29c0 -31 22 -53 78 -53c35 0 57 11 66 31h157c-10 -109 -93 -173 -223 -173zM210 325h144v28c0 32 -25 51 -72 51s-72 -19 -72 -51v-28zM117 595v110h343v-110h-343z" />
    <glyph glyph-name="Edotaccent" unicode="&#x116;" horiz-adv-x="613" 
d="M85 0v700h468v-150h-296v-128h250v-142h-250v-130h298v-150h-470zM231 763v123h169v-123h-169z" />
    <glyph glyph-name="edotaccent" unicode="&#x117;" horiz-adv-x="563" 
d="M288 -12c-139 0 -236 66 -236 194v164c0 123 97 195 236 195c128 0 224 -65 224 -193v-136h-302v-29c0 -31 22 -53 78 -53c35 0 57 11 66 31h157c-10 -109 -93 -173 -223 -173zM210 325h144v28c0 32 -25 51 -72 51s-72 -19 -72 -51v-28zM204 590v115h158v-115h-158z" />
    <glyph glyph-name="Eogonek" unicode="&#x118;" horiz-adv-x="613" 
d="M85 0v700h468v-150h-296v-128h250v-142h-250v-130h298v-150c-23 -20 -31 -33 -31 -46c0 -14 12 -21 33 -21h31v-93h-59c-67 0 -107 25 -107 73c0 24 15 54 48 87h-385z" />
    <glyph glyph-name="eogonek" unicode="&#x119;" horiz-adv-x="563" 
d="M387 -160c-67 0 -104 28 -104 73c0 22 12 48 39 77c-12 -1 -22 -2 -34 -2c-139 0 -236 66 -236 194v164c0 123 97 195 236 195c128 0 224 -65 224 -193v-136h-302v-29c0 -31 22 -53 78 -53c35 0 57 11 66 31h157c-5 -62 -31 -104 -69 -134c-31 -25 -57 -39 -57 -72
c0 -13 10 -22 34 -22h30v-93h-62zM210 325h144v28c0 32 -25 51 -72 51s-72 -19 -72 -51v-28z" />
    <glyph glyph-name="Ecaron" unicode="&#x11a;" horiz-adv-x="613" 
d="M85 0v700h468v-150h-296v-128h250v-142h-250v-130h298v-150h-470zM480 860l-96 -97h-132l-94 97v53h128l35 -56l34 56h125v-53z" />
    <glyph glyph-name="ecaron" unicode="&#x11b;" horiz-adv-x="563" 
d="M288 -12c-139 0 -236 66 -236 194v164c0 123 97 195 236 195c128 0 224 -65 224 -193v-136h-302v-29c0 -31 22 -53 78 -53c35 0 57 11 66 31h157c-10 -109 -93 -173 -223 -173zM210 325h144v28c0 32 -25 51 -72 51s-72 -19 -72 -51v-28zM435 680l-89 -90h-123l-88 90v50
h119l33 -52l32 52h116v-50z" />
    <glyph glyph-name="uni0122" unicode="&#x122;" horiz-adv-x="699" 
d="M341 143c52 0 87 28 109 53v51h-110v142h277v-389h-91l-34 56c-33 -43 -101 -71 -168 -71c-161 0 -259 92 -259 243v239c0 159 101 248 280 248c156 0 272 -87 272 -245h-173c0 56 -37 87 -103 87c-71 0 -104 -36 -104 -93v-228c0 -57 33 -93 104 -93zM230 -267l28 200
h153v-66l-72 -134h-109z" />
    <glyph glyph-name="uni0123" unicode="&#x123;" horiz-adv-x="606" 
d="M281 187c44 0 71 24 91 43v127c-20 19 -47 42 -91 42c-23 0 -63 -19 -63 -63v-84c0 -46 40 -65 63 -65zM530 529v-495c0 -138 -96 -206 -232 -206c-143 0 -224 68 -224 179h157c0 -9 3 -37 66 -37c58 0 75 31 75 64v46c-16 -11 -53 -35 -124 -35c-99 0 -188 58 -188 193
v110c0 136 89 193 189 193c74 0 118 -29 153 -60l38 48h90zM408 786l-26 -200h-140v66l66 134h100z" />
    <glyph glyph-name="Imacron" unicode="&#x12a;" horiz-adv-x="343" 
d="M85 0v700h172v-700h-172zM-12 768v118h367v-118h-367z" />
    <glyph glyph-name="imacron" unicode="&#x12b;" horiz-adv-x="308" 
d="M-18 595v110h343v-110h-343zM75 0v529h158v-529h-158z" />
    <glyph glyph-name="Iogonek" unicode="&#x12e;" horiz-adv-x="343" 
d="M85 0v700h172v-700c-23 -20 -31 -33 -31 -46c0 -14 12 -21 33 -21h31v-93h-59c-67 0 -107 25 -107 73c0 24 15 54 48 87h-87z" />
    <glyph glyph-name="iogonek" unicode="&#x12f;" horiz-adv-x="308" 
d="M75 0v529h158v-529c-23 -20 -31 -33 -31 -46c0 -14 12 -21 33 -21h31v-93h-59c-67 0 -107 25 -107 73c0 24 15 54 48 87h-73zM75 595v110h158v-110h-158z" />
    <glyph glyph-name="dotlessi" unicode="&#x131;" horiz-adv-x="309" 
d="M75 0v529h158v-529h-158z" />
    <glyph glyph-name="uni0136" unicode="&#x136;" horiz-adv-x="662" 
d="M85 0v700h172v-275h62l155 275h152v-57l-166 -283l181 -304v-56h-163l-156 275h-65v-275h-172zM255 -267l28 200h153v-66l-72 -134h-109z" />
    <glyph glyph-name="uni0137" unicode="&#x137;" horiz-adv-x="581" 
d="M75 0v705h158v-365h42l128 189h131v-73l-123 -180l135 -203v-73h-134l-137 204h-42v-204h-158zM215 -267l26 200h140v-66l-66 -134h-100z" />
    <glyph glyph-name="Lacute" unicode="&#x139;" horiz-adv-x="572" 
d="M85 0v700h172v-550h300v-150h-472zM320 855l-80 -93h-132l61 151h151v-58z" />
    <glyph glyph-name="lacute" unicode="&#x13a;" horiz-adv-x="308" 
d="M75 0v705h158v-705h-158zM289 842l-75 -86h-123l57 140h141v-54z" />
    <glyph glyph-name="uni013B" unicode="&#x13b;" horiz-adv-x="572" 
d="M85 0v700h172v-550h300v-150h-472zM216 -267l28 200h153v-66l-72 -134h-109z" />
    <glyph glyph-name="uni013C" unicode="&#x13c;" horiz-adv-x="309" 
d="M75 0v705h158v-705h-158zM58 -267l26 200h140v-66l-66 -134h-100z" />
    <glyph glyph-name="Lcaron" unicode="&#x13d;" horiz-adv-x="572" 
d="M85 0v700h172v-550h300v-150h-472zM375 500l28 200h153v-66l-72 -134h-109z" />
    <glyph glyph-name="lcaron" unicode="&#x13e;" horiz-adv-x="435" 
d="M294 505l28 200h143v-66l-72 -134h-99zM75 0v705h158v-705h-158z" />
    <glyph glyph-name="Lslash" unicode="&#x141;" horiz-adv-x="607" 
d="M120 0v214l-53 -36h-54v111l107 77v334h172v-203l67 43h55v-111l-122 -85v-194h300v-150h-472z" />
    <glyph glyph-name="lslash" unicode="&#x142;" horiz-adv-x="424" 
d="M134 0v183l-61 -56h-73v97l134 136v345h158v-176l61 58h71v-99l-132 -133v-355h-158z" />
    <glyph glyph-name="Nacute" unicode="&#x143;" horiz-adv-x="725" 
d="M85 0v700h158l229 -379v379h167v-700h-157l-230 379v-379h-167zM484 855l-80 -93h-132l61 151h151v-58z" />
    <glyph glyph-name="nacute" unicode="&#x144;" horiz-adv-x="610" 
d="M75 0v529h90l38 -48c35 32 81 60 152 60c118 0 185 -79 185 -208v-333h-158v325c0 50 -27 74 -63 74c-44 0 -79 -34 -86 -42v-357h-158zM441 676l-75 -86h-123l57 140h141v-54z" />
    <glyph glyph-name="Ncommaaccent" unicode="&#x145;" horiz-adv-x="725" 
d="M85 0v700h158l229 -379v379h167v-700h-157l-230 379v-379h-167zM264 -267l28 200h153v-66l-72 -134h-109z" />
    <glyph glyph-name="ncommaaccent" unicode="&#x146;" horiz-adv-x="610" 
d="M75 0v529h90l38 -48c35 32 81 60 152 60c118 0 185 -79 185 -208v-333h-158v325c0 50 -27 74 -63 74c-44 0 -79 -34 -86 -42v-357h-158zM207 -267l26 200h140v-66l-66 -134h-100z" />
    <glyph glyph-name="Ncaron" unicode="&#x147;" horiz-adv-x="725" 
d="M85 0v700h158l229 -379v379h167v-700h-157l-230 379v-379h-167zM522 860l-96 -97h-132l-94 97v53h128l35 -56l34 56h125v-53z" />
    <glyph glyph-name="ncaron" unicode="&#x148;" horiz-adv-x="610" 
d="M75 0v529h90l38 -48c35 32 81 60 152 60c118 0 185 -79 185 -208v-333h-158v325c0 50 -27 74 -63 74c-44 0 -79 -34 -86 -42v-357h-158zM456 680l-89 -90h-123l-88 90v50h119l33 -52l32 52h116v-50z" />
    <glyph glyph-name="Omacron" unicode="&#x14c;" horiz-adv-x="699" 
d="M349 143c82 0 112 49 112 89v237c0 39 -30 88 -112 88c-81 0 -112 -49 -112 -88v-237c0 -40 31 -89 112 -89zM349 -15c-172 0 -284 93 -284 253v222c0 162 112 255 284 255c173 0 284 -93 284 -255v-222c0 -160 -111 -253 -284 -253zM166 768v118h367v-118h-367z" />
    <glyph glyph-name="omacron" unicode="&#x14d;" horiz-adv-x="574" 
d="M288 130c51 0 76 27 76 59v149c0 33 -25 61 -76 61c-56 0 -78 -30 -78 -61v-149c0 -30 22 -59 78 -59zM288 -12c-157 0 -236 85 -236 196v162c0 109 79 195 236 195c155 0 234 -86 234 -195v-162c0 -111 -79 -196 -234 -196zM117 595v110h343v-110h-343z" />
    <glyph glyph-name="obreve" unicode="&#x14f;" horiz-adv-x="574" 
d="M288 130c51 0 76 27 76 59v149c0 33 -25 61 -76 61c-56 0 -78 -30 -78 -61v-149c0 -30 22 -59 78 -59zM288 -12c-157 0 -236 85 -236 196v162c0 109 79 195 236 195c155 0 234 -86 234 -195v-162c0 -111 -79 -196 -234 -196zM289 595c-100 0 -169 50 -169 137v12h129v-9
c0 -15 9 -33 40 -33c33 0 42 18 42 33v9h126v-12c0 -87 -69 -137 -168 -137z" />
    <glyph glyph-name="Ohungarumlaut" unicode="&#x150;" horiz-adv-x="699" 
d="M349 143c82 0 112 49 112 89v237c0 39 -30 88 -112 88c-81 0 -112 -49 -112 -88v-237c0 -40 31 -89 112 -89zM349 -15c-172 0 -284 93 -284 253v222c0 162 112 255 284 255c173 0 284 -93 284 -255v-222c0 -160 -111 -253 -284 -253zM370 855l-81 -92h-121l61 150h141
v-58zM571 855l-79 -92h-122l61 150h140v-58z" />
    <glyph glyph-name="ohungarumlaut" unicode="&#x151;" horiz-adv-x="574" 
d="M288 130c51 0 76 27 76 59v149c0 33 -25 61 -76 61c-56 0 -78 -30 -78 -61v-149c0 -30 22 -59 78 -59zM288 -12c-157 0 -236 85 -236 196v162c0 109 79 195 236 195c155 0 234 -86 234 -195v-162c0 -111 -79 -196 -234 -196zM311 676l-75 -86h-113l57 140h131v-54z
M499 676l-74 -86h-114l57 140h131v-54z" />
    <glyph glyph-name="OE" unicode="&#x152;" horiz-adv-x="989" 
d="M461 0c-34 -9 -71 -15 -112 -15c-172 0 -284 93 -284 253v222c0 162 112 255 284 255c39 0 79 -6 112 -15h468v-150h-296v-128h250v-142h-250v-130h298v-150h-470zM349 143c78 0 112 44 112 83v249c0 38 -34 82 -112 82c-81 0 -112 -49 -112 -88v-237
c0 -40 31 -89 112 -89z" />
    <glyph glyph-name="oe" unicode="&#x153;" horiz-adv-x="875" 
d="M288 -12c-157 0 -236 85 -236 196v162c0 109 79 195 236 195c64 0 115 -15 155 -42c42 28 96 42 157 42c128 0 224 -65 224 -193v-136h-302v-36c2 -27 25 -46 78 -46c35 0 57 12 66 31h157c-10 -109 -93 -173 -223 -173c-61 0 -116 13 -158 40c-40 -26 -92 -40 -154 -40z
M288 130c51 0 76 28 76 59v149c0 33 -25 61 -76 61c-56 0 -78 -30 -78 -61v-149c0 -30 22 -59 78 -59zM522 325h144v28c0 32 -25 51 -72 51s-72 -19 -72 -51v-28z" />
    <glyph glyph-name="Racute" unicode="&#x154;" horiz-adv-x="687" 
d="M85 0v700h307c150 0 226 -83 226 -222c0 -91 -40 -163 -107 -203l129 -219v-56h-167l-144 256h-72v-256h-172zM257 398h106c51 0 81 16 81 77c0 59 -30 75 -81 75h-106v-152zM453 855l-80 -93h-132l61 151h151v-58z" />
    <glyph glyph-name="racute" unicode="&#x155;" horiz-adv-x="397" 
d="M75 0v529h90l38 -48c19 24 58 60 126 60h45v-149h-45c-44 0 -76 -10 -96 -36v-356h-158zM337 676l-75 -86h-123l57 140h141v-54z" />
    <glyph glyph-name="Rcommaaccent" unicode="&#x156;" horiz-adv-x="675" 
d="M85 0v700h307c150 0 226 -83 226 -222c0 -91 -40 -163 -107 -203l129 -219v-56h-167l-144 256h-72v-256h-172zM257 398h106c51 0 81 16 81 77c0 59 -30 75 -81 75h-106v-152zM249 -267l28 200h153v-66l-72 -134h-109z" />
    <glyph glyph-name="uni0157" unicode="&#x157;" horiz-adv-x="397" 
d="M75 0v529h90l38 -48c19 24 58 60 126 60h45v-149h-45c-44 0 -76 -10 -96 -36v-356h-158zM59 -267l26 200h140v-66l-66 -134h-100z" />
    <glyph glyph-name="Rcaron" unicode="&#x158;" horiz-adv-x="687" 
d="M85 0v700h307c150 0 226 -83 226 -222c0 -91 -40 -163 -107 -203l129 -219v-56h-167l-144 256h-72v-256h-172zM257 398h106c51 0 81 16 81 77c0 59 -30 75 -81 75h-106v-152zM484 860l-96 -97h-132l-94 97v53h128l35 -56l34 56h125v-53z" />
    <glyph glyph-name="rcaron" unicode="&#x159;" horiz-adv-x="397" 
d="M75 0v529h90l38 -48c19 24 58 60 126 60h45v-149h-45c-44 0 -76 -10 -96 -36v-356h-158zM358 680l-89 -90h-123l-88 90v50h119l33 -52l32 52h116v-50z" />
    <glyph glyph-name="Sacute" unicode="&#x15a;" horiz-adv-x="657" 
d="M325 -15c-158 0 -285 82 -285 242h172c0 -71 75 -84 126 -84c60 0 89 21 89 55c0 32 -37 45 -103 67l-114 38c-50 17 -152 62 -152 191c0 134 101 221 267 221c155 0 268 -79 268 -240h-173c0 56 -47 82 -103 82c-53 0 -84 -20 -84 -54c0 -33 25 -43 71 -59l111 -38
c111 -38 185 -79 185 -199c0 -129 -87 -222 -275 -222zM457 855l-80 -93h-132l61 151h151v-58z" />
    <glyph glyph-name="sacute" unicode="&#x15b;" horiz-adv-x="563" 
d="M285 -12c-149 0 -239 81 -243 195h152c9 -35 38 -60 106 -60c38 0 61 11 61 32c0 17 -13 27 -37 33l-136 33c-55 13 -129 50 -129 143c0 113 84 177 223 177c130 0 229 -74 229 -184h-151c-6 36 -43 50 -85 50c-48 0 -63 -14 -63 -32c0 -15 12 -20 34 -25l147 -35
c63 -14 121 -59 121 -149c0 -114 -94 -178 -229 -178zM408 676l-75 -86h-123l57 140h141v-54z" />
    <glyph glyph-name="scircumflex" unicode="&#x15d;" horiz-adv-x="563" 
d="M285 -12c-149 0 -239 81 -243 195h152c9 -35 38 -60 106 -60c38 0 61 11 61 32c0 17 -13 27 -37 33l-136 33c-55 13 -129 50 -129 143c0 113 84 177 223 177c130 0 229 -74 229 -184h-151c-6 36 -43 50 -85 50c-48 0 -63 -14 -63 -32c0 -15 12 -20 34 -25l147 -35
c63 -14 121 -59 121 -149c0 -114 -94 -178 -229 -178zM348 730l89 -90v-50h-116l-32 52l-33 -52h-119v50l88 90h123z" />
    <glyph glyph-name="Scaron" unicode="&#x160;" horiz-adv-x="657" 
d="M325 -15c-158 0 -285 82 -285 242h172c0 -71 75 -84 126 -84c60 0 89 21 89 55c0 32 -37 45 -103 67l-114 38c-50 17 -152 62 -152 191c0 134 101 221 267 221c155 0 268 -79 268 -240h-173c0 56 -47 82 -103 82c-53 0 -84 -20 -84 -54c0 -33 25 -43 71 -59l111 -38
c111 -38 185 -79 185 -199c0 -129 -87 -222 -275 -222zM489 860l-96 -97h-132l-94 97v53h128l35 -56l34 56h125v-53z" />
    <glyph glyph-name="scaron" unicode="&#x161;" horiz-adv-x="563" 
d="M285 -12c-149 0 -239 81 -243 195h152c9 -35 38 -60 106 -60c38 0 61 11 61 32c0 17 -13 27 -37 33l-136 33c-55 13 -129 50 -129 143c0 113 84 177 223 177c130 0 229 -74 229 -184h-151c-6 36 -43 50 -85 50c-48 0 -63 -14 -63 -32c0 -15 12 -20 34 -25l147 -35
c63 -14 121 -59 121 -149c0 -114 -94 -178 -229 -178zM436 680l-89 -90h-123l-88 90v50h119l33 -52l32 52h116v-50z" />
    <glyph glyph-name="Tcaron" unicode="&#x164;" horiz-adv-x="578" 
d="M203 0v550h-188v150h547v-150h-187v-550h-172zM450 860l-96 -97h-132l-94 97v53h128l35 -56l34 56h125v-53z" />
    <glyph glyph-name="tcaron" unicode="&#x165;" horiz-adv-x="540" 
d="M296 0c-169 0 -208 103 -208 214v179h-73v136h73v111h158v-111h112v-136h-112v-176c0 -67 27 -81 69 -81h43v-136h-62zM399 505l28 200h143v-66l-72 -134h-99z" />
    <glyph glyph-name="Umacron" unicode="&#x16a;" horiz-adv-x="705" 
d="M352 -15c-171 0 -277 91 -277 244v471h172v-477c0 -34 26 -80 105 -80c80 0 105 46 105 80v477h172v-471c0 -153 -106 -244 -277 -244zM169 768v118h367v-118h-367z" />
    <glyph glyph-name="umacron" unicode="&#x16b;" horiz-adv-x="606" 
d="M530 0v529h-158v-360c-8 -7 -42 -39 -84 -39c-51 0 -61 30 -61 74v325h-158v-336c0 -127 66 -205 183 -205c73 0 119 32 150 60l38 -48h90zM131 595v110h343v-110h-343z" />
    <glyph glyph-name="Uring" unicode="&#x16e;" horiz-adv-x="705" 
d="M352 -15c-171 0 -277 91 -277 244v471h172v-477c0 -34 26 -80 105 -80c80 0 105 46 105 80v477h172v-471c0 -153 -106 -244 -277 -244zM231 857c0 64 55 113 122 113s121 -49 121 -113c0 -63 -54 -113 -121 -113s-122 50 -122 113zM322 857c0 -18 16 -30 31 -30
s31 12 31 30c0 20 -16 31 -31 31s-31 -11 -31 -31z" />
    <glyph glyph-name="uring" unicode="&#x16f;" horiz-adv-x="606" 
d="M530 0v529h-158v-360c-8 -7 -42 -39 -84 -39c-51 0 -61 30 -61 74v325h-158v-336c0 -127 66 -205 183 -205c73 0 119 32 150 60l38 -48h90zM186 678c0 59 51 105 114 105c62 0 113 -46 113 -105s-51 -106 -113 -106c-63 0 -114 47 -114 106zM271 678c0 -17 15 -28 29 -28
s29 11 29 28c0 18 -15 28 -29 28s-29 -10 -29 -28z" />
    <glyph glyph-name="Uhungarumlaut" unicode="&#x170;" horiz-adv-x="705" 
d="M352 -15c-171 0 -277 91 -277 244v471h172v-477c0 -34 26 -80 105 -80c80 0 105 46 105 80v477h172v-471c0 -153 -106 -244 -277 -244zM374 855l-81 -92h-121l61 150h141v-58zM575 855l-79 -92h-122l61 150h140v-58z" />
    <glyph glyph-name="uhungarumlaut" unicode="&#x171;" horiz-adv-x="606" 
d="M530 0v529h-158v-360c-8 -7 -42 -39 -84 -39c-51 0 -61 30 -61 74v325h-158v-336c0 -127 66 -205 183 -205c73 0 119 32 150 60l38 -48h90zM325 676l-75 -86h-113l57 140h131v-54zM513 676l-74 -86h-114l57 140h131v-54z" />
    <glyph glyph-name="Uogonek" unicode="&#x172;" horiz-adv-x="705" 
d="M502 -160c-66 0 -106 28 -106 73c0 22 13 51 42 81c-26 -6 -55 -9 -86 -9c-171 0 -277 91 -277 244v471h172v-477c0 -34 26 -80 105 -80c80 0 105 46 105 80v477h172v-471c0 -94 -38 -149 -78 -183c-29 -24 -56 -56 -56 -87c0 -21 12 -30 38 -30h29v-89h-60z" />
    <glyph glyph-name="uogonek" unicode="&#x173;" horiz-adv-x="606" 
d="M69 529h158v-325c0 -44 10 -74 61 -74c42 0 76 31 84 39v360h158v-529c-23 -20 -31 -33 -31 -46c0 -14 10 -21 29 -21h35v-93h-74c-52 0 -92 25 -92 73c0 29 13 54 43 87l-38 48c-31 -28 -77 -60 -150 -60c-117 0 -183 78 -183 205v336z" />
    <glyph glyph-name="Ydieresis" unicode="&#x178;" horiz-adv-x="619" 
d="M221 0v277l-215 366v57h164l141 -256l142 256h160v-57l-219 -360v-283h-173zM111 766v123h168v-123h-168zM337 766v123h169v-123h-169z" />
    <glyph glyph-name="Zacute" unicode="&#x179;" horiz-adv-x="599" 
d="M35 0v150l308 400h-292v150h501v-149l-308 -401h321v-150h-530zM416 855l-80 -93h-132l61 151h151v-58z" />
    <glyph glyph-name="zacute" unicode="&#x17a;" horiz-adv-x="540" 
d="M49 0v136l227 257h-222v136h415v-136l-231 -257h249v-136h-438zM379 676l-75 -86h-123l57 140h141v-54z" />
    <glyph glyph-name="Zdotaccent" unicode="&#x17b;" horiz-adv-x="599" 
d="M35 0v150l308 400h-292v150h501v-149l-308 -401h321v-150h-530zM217 763v123h169v-123h-169z" />
    <glyph glyph-name="zdotaccent" unicode="&#x17c;" horiz-adv-x="540" 
d="M49 0v136l227 257h-222v136h415v-136l-231 -257h249v-136h-438zM184 590v115h158v-115h-158z" />
    <glyph glyph-name="Zcaron" unicode="&#x17d;" horiz-adv-x="599" 
d="M35 0v150l308 400h-292v150h501v-149l-308 -401h321v-150h-530zM468 860l-96 -97h-132l-94 97v53h128l35 -56l34 56h125v-53z" />
    <glyph glyph-name="zcaron" unicode="&#x17e;" horiz-adv-x="540" 
d="M49 0v136l227 257h-222v136h415v-136l-231 -257h249v-136h-438zM415 680l-89 -90h-123l-88 90v50h119l33 -52l32 52h116v-50z" />
    <glyph glyph-name="florin" unicode="&#x192;" horiz-adv-x="376" 
d="M24 529h73c5 135 104 180 224 180c9 0 24 -1 39 -2v-128h-24c-56 0 -78 -20 -81 -50h106v-136h-116l-33 -385c-12 -135 -104 -180 -224 -180c-9 0 -22 1 -37 2v128h22c56 0 78 20 81 50l33 385h-63v136z" />
    <glyph glyph-name="scommaaccent" unicode="&#x219;" horiz-adv-x="563" 
d="M285 -12c-149 0 -239 81 -243 195h152c9 -35 38 -60 106 -60c38 0 61 11 61 32c0 17 -13 27 -37 33l-136 33c-55 13 -129 50 -129 143c0 113 84 177 223 177c130 0 229 -74 229 -184h-151c-6 36 -43 50 -85 50c-48 0 -63 -14 -63 -32c0 -15 12 -20 34 -25l147 -35
c63 -14 121 -59 121 -149c0 -114 -94 -178 -229 -178zM191 -267l26 200h140v-66l-66 -134h-100z" />
    <glyph glyph-name="circumflex" unicode="&#x2c6;" horiz-adv-x="410" 
d="M266 730l89 -90v-50h-116l-32 52l-33 -52h-119v50l88 90h123z" />
    <glyph glyph-name="caron" unicode="&#x2c7;" horiz-adv-x="410" 
d="M355 680l-89 -90h-123l-88 90v50h119l33 -52l32 52h116v-50z" />
    <glyph glyph-name="breve" unicode="&#x2d8;" horiz-adv-x="411" 
d="M206 581c-100 0 -169 50 -169 137v12h129v-9c0 -15 9 -33 40 -33c33 0 42 18 42 33v9h126v-12c0 -87 -69 -137 -168 -137z" />
    <glyph glyph-name="dotaccent" unicode="&#x2d9;" horiz-adv-x="268" 
d="M55 590v115h158v-115h-158z" />
    <glyph glyph-name="ring" unicode="&#x2da;" horiz-adv-x="336" 
d="M54 678c0 59 51 105 114 105c62 0 113 -46 113 -105s-51 -106 -113 -106c-63 0 -114 47 -114 106zM139 678c0 -17 15 -28 29 -28s29 11 29 28c0 18 -15 28 -29 28s-29 -10 -29 -28z" />
    <glyph glyph-name="ogonek" unicode="&#x2db;" horiz-adv-x="288" 
d="M94 0h85c-23 -20 -31 -33 -31 -46c0 -14 10 -21 29 -21h35v-93h-74c-52 0 -92 25 -92 73c0 29 15 54 48 87z" />
    <glyph glyph-name="tilde" unicode="&#x2dc;" horiz-adv-x="481" 
d="M149 575l-95 53c30 58 65 104 122 104c27 0 45 -8 59 -16l26 -15c11 -6 20 -9 28 -9c17 0 26 11 42 40l95 -53c-30 -58 -65 -104 -122 -104c-27 0 -45 8 -59 16l-26 15c-11 6 -20 9 -28 9c-17 0 -26 -11 -42 -40z" />
    <glyph glyph-name="hungarumlaut" unicode="&#x2dd;" horiz-adv-x="488" 
d="M244 676l-75 -86h-113l57 140h131v-54zM432 676l-74 -86h-114l57 140h131v-54z" />
    <glyph glyph-name="brevecap" horiz-adv-x="845" 
d="M422 742c-100 0 -169 50 -169 137v9h129v-6c0 -15 9 -33 40 -33c33 0 42 18 42 33v6h126v-9c0 -87 -69 -137 -168 -137z" />
    <glyph glyph-name="uni03A9" unicode="&#x3a9;" horiz-adv-x="729" 
d="M476 275v194c0 39 -30 88 -112 88c-81 0 -112 -49 -112 -88v-194c0 -48 5 -106 57 -125v-150h-247v150h67c-43 43 -49 84 -49 125v185c0 162 110 255 284 255s284 -93 284 -255v-185c0 -41 -6 -82 -50 -125h67v-150h-247v150c52 19 58 77 58 125z" />
    <glyph glyph-name="pi" unicode="&#x3c0;" horiz-adv-x="727" 
d="M122 0v393h-97v136h677v-136h-98v-393h-158v393h-166v-393h-158z" />
    <glyph glyph-name="uni0401" unicode="&#x401;" horiz-adv-x="613" 
d="M85 0v700h468v-150h-296v-128h250v-142h-250v-130h298v-150h-470zM121 762v123h168v-123h-168zM346 762v123h169v-123h-169z" />
    <glyph glyph-name="uni0402" unicode="&#x402;" horiz-adv-x="758" 
d="M185 0v550h-170v150h556v-150h-214v-115c32 4 62 6 100 6c169 0 260 -83 260 -219c0 -135 -72 -222 -211 -222h-77v150h30c61 0 83 26 83 70c0 51 -44 73 -113 73c-28 0 -56 -3 -72 -7v-286h-172z" />
    <glyph glyph-name="uni0403" unicode="&#x403;" horiz-adv-x="568" 
d="M435 855l-80 -93h-132l61 151h151v-58zM85 0v700h447v-150h-275v-550h-172z" />
    <glyph glyph-name="afii10053" unicode="&#x404;" horiz-adv-x="661" 
d="M339 -15c-174 0 -274 93 -274 253v224c0 160 100 253 274 253c143 0 268 -65 268 -245h-157c0 58 -43 87 -106 87c-78 0 -107 -36 -107 -90v-45h183v-142h-183v-47c0 -54 29 -90 107 -90c63 0 106 29 106 87h157c0 -181 -125 -245 -268 -245z" />
    <glyph glyph-name="afii10054" unicode="&#x405;" horiz-adv-x="657" 
d="M325 -15c-158 0 -285 82 -285 242h172c0 -71 75 -84 126 -84c60 0 89 21 89 55c0 32 -37 45 -103 67l-114 38c-50 17 -152 62 -152 191c0 134 101 221 267 221c155 0 268 -79 268 -240h-173c0 56 -47 82 -103 82c-53 0 -84 -20 -84 -54c0 -33 25 -43 71 -59l111 -38
c111 -38 185 -79 185 -199c0 -129 -87 -222 -275 -222z" />
    <glyph glyph-name="uni0406" unicode="&#x406;" horiz-adv-x="343" 
d="M85 0v700h172v-700h-172z" />
    <glyph glyph-name="uni0407" unicode="&#x407;" horiz-adv-x="343" 
d="M85 0v700h172v-700h-172zM-26 763v123h168v-123h-168zM200 763v123h170v-123h-170z" />
    <glyph glyph-name="uni0408" unicode="&#x408;" horiz-adv-x="592" 
d="M266 -15c-138 0 -251 52 -251 225v34h172v-25c0 -59 34 -76 79 -76c44 0 78 17 78 76v481h172v-489c0 -170 -117 -226 -250 -226z" />
    <glyph glyph-name="uni0409" unicode="&#x409;" horiz-adv-x="1008" 
d="M440 0v550h-141v-196c0 -241 -82 -354 -264 -354h-15v157h15c92 0 102 54 102 228v315h475v-248h151c129 0 204 -88 204 -225c0 -139 -75 -227 -204 -227h-323zM612 150h118c26 0 63 18 63 75c0 58 -37 77 -63 77h-118v-152z" />
    <glyph glyph-name="uni040A" unicode="&#x40a;" horiz-adv-x="1034" 
d="M466 0v294h-211v-294h-172v700h172v-257h211v257h172v-257h155c126 0 200 -86 200 -221c0 -136 -74 -222 -200 -222h-327zM638 150h120c25 0 61 17 61 72c0 54 -36 72 -61 72h-120v-144z" />
    <glyph glyph-name="uni040B" unicode="&#x40b;" horiz-adv-x="770" 
d="M357 550v-117c28 5 64 8 97 8c130 0 261 -35 261 -208v-233h-172v210c0 47 -30 73 -97 73c-38 0 -61 -3 -89 -8v-275h-172v550h-170v150h556v-150h-214z" />
    <glyph glyph-name="uni040C" unicode="&#x40c;" horiz-adv-x="662" 
d="M85 0v700h172v-275h62l155 275h152v-57l-166 -283l181 -304v-56h-163l-156 275h-65v-275h-172zM487 855l-80 -93h-132l61 151h151v-58z" />
    <glyph glyph-name="uni040E" unicode="&#x40e;" horiz-adv-x="608" 
d="M5 700h159l154 -309l135 309h150v-57l-287 -643h-151v56l70 151l-230 436v57zM307 742c-100 0 -169 50 -169 137v9h129v-6c0 -15 9 -33 40 -33c33 0 42 18 42 33v6h126v-9c0 -87 -69 -137 -168 -137z" />
    <glyph glyph-name="uni040F" unicode="&#x40f;" horiz-adv-x="721" 
d="M281 -136v136h-196v700h172v-550h206v550h172v-700h-197v-136h-157z" />
    <glyph glyph-name="uni0410" unicode="&#x410;" horiz-adv-x="664" 
d="M488 0l-49 151h-222l-50 -151h-152v56l232 644h169l233 -644v-56h-161zM329 486l-64 -191h126z" />
    <glyph glyph-name="uni0411" unicode="&#x411;" horiz-adv-x="675" 
d="M85 0v700h501v-150h-329v-104h170c128 0 204 -88 204 -224c0 -135 -76 -222 -204 -222h-342zM257 150h140c25 0 60 19 60 73c0 55 -35 73 -60 73h-140v-146z" />
    <glyph glyph-name="uni0412" unicode="&#x412;" horiz-adv-x="674" 
d="M85 0v700h297c133 0 218 -66 218 -198c0 -60 -21 -108 -71 -139c54 -29 100 -70 100 -163c0 -137 -84 -200 -217 -200h-327zM257 423h115c22 0 53 15 53 62c0 49 -31 65 -53 65h-115v-127zM257 150h144c22 0 54 15 54 63c0 50 -32 66 -54 66h-144v-129z" />
    <glyph glyph-name="uni0413" unicode="&#x413;" horiz-adv-x="568" 
d="M85 0v700h447v-150h-275v-550h-172z" />
    <glyph glyph-name="uni0414" unicode="&#x414;" horiz-adv-x="738" 
d="M20 -136v286h63c28 41 55 94 55 226v324h482v-550h80v-286h-158v136h-364v-136h-158zM258 150h190v400h-152v-174c0 -126 -19 -186 -38 -226z" />
    <glyph glyph-name="uni0415" unicode="&#x415;" horiz-adv-x="613" 
d="M85 0v700h468v-150h-296v-128h250v-142h-250v-130h298v-150h-470z" />
    <glyph glyph-name="uni0416" unicode="&#x416;" horiz-adv-x="953" 
d="M390 0v275h-66l-142 -275h-164v56l164 303l-147 284v57h149l138 -275h68v275h173v-275h68l138 275h149v-57l-147 -284l164 -303v-56h-164l-142 275h-66v-275h-173z" />
    <glyph glyph-name="uni0417" unicode="&#x417;" horiz-adv-x="633" 
d="M324 -15c-151 0 -284 68 -284 249h172c0 -73 58 -91 113 -91s89 25 89 69c0 46 -34 67 -91 67h-86v142h86c51 0 78 24 78 66c0 41 -28 70 -80 70c-42 0 -89 -18 -89 -91h-173c0 180 125 249 264 249c164 0 252 -95 252 -214c0 -69 -33 -118 -74 -150
c46 -23 87 -68 87 -146c0 -133 -96 -220 -264 -220z" />
    <glyph glyph-name="uni0418" unicode="&#x418;" horiz-adv-x="731" 
d="M85 0v700h172v-390l230 390h158v-700h-172v390l-230 -390h-158z" />
    <glyph glyph-name="uni0419" unicode="&#x419;" horiz-adv-x="731" 
d="M85 0v700h172v-390l230 390h158v-700h-172v390l-230 -390h-158zM365 742c-100 0 -169 50 -169 137v9h129v-6c0 -15 9 -33 40 -33c33 0 42 18 42 33v6h126v-9c0 -87 -69 -137 -168 -137z" />
    <glyph glyph-name="uni041A" unicode="&#x41a;" horiz-adv-x="662" 
d="M85 0v700h172v-275h62l155 275h152v-57l-166 -283l181 -304v-56h-163l-156 275h-65v-275h-172z" />
    <glyph glyph-name="uni041B" unicode="&#x41b;" horiz-adv-x="708" 
d="M20 0v157h16c92 0 101 54 101 228v315h485v-700h-172v550h-151v-196c0 -241 -81 -354 -263 -354h-16z" />
    <glyph glyph-name="uni041C" unicode="&#x41c;" horiz-adv-x="821" 
d="M85 0v700h167l159 -283l159 283h165v-700h-167v395l-105 -188h-106l-105 188v-395h-167z" />
    <glyph glyph-name="uni041D" unicode="&#x41d;" horiz-adv-x="725" 
d="M85 0v700h172v-275h210v275h172v-700h-172v275h-210v-275h-172z" />
    <glyph glyph-name="uni041E" unicode="&#x41e;" horiz-adv-x="699" 
d="M349 143c82 0 112 49 112 89v237c0 39 -30 88 -112 88c-81 0 -112 -49 -112 -88v-237c0 -40 31 -89 112 -89zM349 -15c-172 0 -284 93 -284 253v222c0 162 112 255 284 255c173 0 284 -93 284 -255v-222c0 -160 -111 -253 -284 -253z" />
    <glyph glyph-name="uni041F" unicode="&#x41f;" horiz-adv-x="719" 
d="M85 0v700h548v-700h-172v550h-204v-550h-172z" />
    <glyph glyph-name="uni0420" unicode="&#x420;" horiz-adv-x="655" 
d="M85 0v700h325c129 0 204 -88 204 -225c0 -139 -75 -227 -204 -227h-153v-248h-172zM257 398h120c26 0 63 18 63 75c0 58 -37 77 -63 77h-120v-152z" />
    <glyph glyph-name="uni0421" unicode="&#x421;" horiz-adv-x="661" 
d="M343 -15c-182 0 -278 93 -278 252v226c0 159 96 252 278 252c140 0 264 -70 264 -249v-10h-172v10c0 69 -49 91 -103 91c-67 0 -95 -32 -95 -82v-249c0 -51 28 -83 95 -83c54 0 103 19 103 92v9h172v-10c0 -179 -124 -249 -264 -249z" />
    <glyph glyph-name="uni0422" unicode="&#x422;" horiz-adv-x="578" 
d="M203 0v550h-188v150h547v-150h-187v-550h-172z" />
    <glyph glyph-name="uni0423" unicode="&#x423;" horiz-adv-x="608" 
d="M5 700h159l154 -309l135 309h150v-57l-287 -643h-151v56l70 151l-230 436v57z" />
    <glyph glyph-name="uni0424" unicode="&#x424;" horiz-adv-x="910" 
d="M327 223h42v283h-42c-68 0 -110 -56 -110 -106v-71c0 -51 42 -106 110 -106zM541 223h42c68 0 110 55 110 106v71c0 50 -42 106 -110 106h-42v-283zM541 73v-85h-172v85h-38c-144 0 -286 84 -286 251v81c0 167 142 251 286 251h38v73h172v-73h38c144 0 286 -84 286 -251
v-81c0 -167 -142 -251 -286 -251h-38z" />
    <glyph glyph-name="uni0425" unicode="&#x425;" horiz-adv-x="653" 
d="M611 643l-181 -274l205 -313v-56h-172l-139 218l-140 -218h-166v56l205 311l-180 276v57h172l114 -180l116 180h166v-57z" />
    <glyph glyph-name="uni0426" unicode="&#x426;" horiz-adv-x="748" 
d="M552 -136v136h-467v700h172v-550h201v550h172v-550h80v-286h-158z" />
    <glyph glyph-name="uni0427" unicode="&#x427;" horiz-adv-x="671" 
d="M413 0v237c-28 -5 -64 -8 -97 -8c-130 0 -261 35 -261 208v263h172v-240c0 -47 30 -73 97 -73c38 0 61 3 89 8v305h172v-700h-172z" />
    <glyph glyph-name="uni0428" unicode="&#x428;" horiz-adv-x="1021" 
d="M85 0v700h172v-550h168v550h172v-550h166v550h172v-700h-850z" />
    <glyph glyph-name="uni0429" unicode="&#x429;" horiz-adv-x="1053" 
d="M857 -136v136h-772v700h172v-550h168v550h172v-550h166v550h172v-550h80v-286h-158z" />
    <glyph glyph-name="uni042A" unicode="&#x42a;" horiz-adv-x="721" 
d="M153 0v550h-148v150h320v-248h151c129 0 204 -88 204 -225c0 -139 -75 -227 -204 -227h-323zM325 150h118c26 0 63 18 63 75c0 58 -37 77 -63 77h-118v-152z" />
    <glyph glyph-name="uni042B" unicode="&#x42b;" horiz-adv-x="936" 
d="M678 0v700h172v-700h-172zM85 0v700h172v-248h151c129 0 204 -88 204 -225c0 -139 -75 -227 -204 -227h-323zM257 150h118c26 0 63 18 63 75c0 58 -37 77 -63 77h-118v-152z" />
    <glyph glyph-name="uni042C" unicode="&#x42c;" horiz-adv-x="653" 
d="M85 0v700h172v-248h151c129 0 204 -88 204 -225c0 -139 -75 -227 -204 -227h-323zM257 150h118c26 0 63 18 63 75c0 58 -37 77 -63 77h-118v-152z" />
    <glyph glyph-name="uni042D" unicode="&#x42d;" horiz-adv-x="664" 
d="M324 -15c-143 0 -268 64 -268 245h157c0 -58 43 -87 106 -87c78 0 107 36 107 90v47h-183v142h183v45c0 54 -29 90 -107 90c-63 0 -106 -29 -106 -87h-157c0 180 125 245 268 245c174 0 274 -93 274 -253v-224c0 -160 -100 -253 -274 -253z" />
    <glyph glyph-name="uni042E" unicode="&#x42e;" horiz-adv-x="962" 
d="M620 -15c-166 0 -274 90 -274 244v46h-89v-275h-172v700h172v-275h89v45c0 155 108 245 274 245c168 0 276 -91 276 -245v-241c0 -154 -108 -244 -276 -244zM621 143c75 0 103 45 103 82v251c0 36 -28 81 -103 81s-103 -45 -103 -81v-251c0 -37 28 -82 103 -82z" />
    <glyph glyph-name="uni042F" unicode="&#x42f;" horiz-adv-x="672" 
d="M47 0v56l115 204c-63 46 -100 116 -100 203c0 146 78 237 228 237h296v-700h-173v239h-84l-123 -239h-159zM334 381h79v169h-85c-57 0 -92 -15 -92 -82c0 -69 41 -87 98 -87z" />
    <glyph glyph-name="uni0430" unicode="&#x430;" horiz-adv-x="576" 
d="M253 126c31 0 65 8 96 39v50h-77c-45 0 -74 -13 -74 -45c0 -22 15 -44 55 -44zM219 -12c-98 0 -179 58 -179 163c0 109 69 170 212 170h97v23c0 36 -21 55 -66 55c-47 0 -65 -18 -65 -41h-154c0 107 69 183 219 183c149 0 223 -76 223 -185v-356h-90l-38 48
c-39 -36 -83 -60 -159 -60z" />
    <glyph glyph-name="uni0431" unicode="&#x431;" horiz-adv-x="582" 
d="M296 -12c-139 0 -236 66 -236 194v192c0 147 41 223 143 254l125 39c18 6 19 17 19 33v5h157v-5c0 -128 -61 -144 -149 -170l-84 -25c-41 -13 -67 -28 -67 -81v-26c17 32 64 70 137 70c98 0 189 -50 189 -193v-91c0 -124 -98 -196 -234 -196zM296 130c51 0 76 27 76 59
v76c0 43 -38 61 -74 61c-37 0 -63 -14 -80 -37v-100c0 -30 22 -59 78 -59z" />
    <glyph glyph-name="uni0432" unicode="&#x432;" horiz-adv-x="588" 
d="M75 0v529h248c115 0 193 -39 193 -143c0 -47 -17 -84 -45 -112c47 -24 69 -63 69 -114c0 -132 -85 -160 -212 -160h-253zM228 129h104c33 0 44 17 44 39c0 24 -11 40 -44 40h-104v-79zM228 321h80c33 0 44 17 44 39c0 24 -11 40 -44 40h-80v-79z" />
    <glyph glyph-name="uni0433" unicode="&#x433;" horiz-adv-x="481" 
d="M75 0v529h370v-136h-212v-393h-158z" />
    <glyph glyph-name="uni0434" unicode="&#x434;" horiz-adv-x="649" 
d="M23 -122v258h58c27 43 34 86 34 156v237h429v-393h74v-258h-152v122h-288v-122h-155zM243 136h143v257h-122v-121c0 -38 0 -88 -21 -136z" />
    <glyph glyph-name="uni0435" unicode="&#x435;" horiz-adv-x="563" 
d="M288 -12c-139 0 -236 66 -236 194v164c0 123 97 195 236 195c128 0 224 -65 224 -193v-136h-302v-29c0 -31 22 -53 78 -53c35 0 57 11 66 31h157c-10 -109 -93 -173 -223 -173zM210 325h144v28c0 32 -25 51 -72 51s-72 -19 -72 -51v-28z" />
    <glyph glyph-name="uni0436" unicode="&#x436;" horiz-adv-x="804" 
d="M35 0v73l108 195l-100 188v73h124l105 -196h51v196h157v-196h53l104 196h124v-73l-100 -188l108 -195v-73h-134l-99 196h-56v-196h-157v196h-54l-100 -196h-134z" />
    <glyph glyph-name="uni0437" unicode="&#x437;" horiz-adv-x="574" 
d="M285 -12c-152 0 -242 80 -242 210h152c0 -40 23 -73 89 -73c44 0 74 14 74 45c0 23 -17 34 -43 34h-78v125h74c25 0 36 16 36 33c0 28 -29 42 -65 42c-63 0 -79 -33 -80 -72h-150c1 131 83 209 238 209c126 0 221 -62 221 -164c0 -41 -19 -78 -44 -102
c37 -27 55 -67 55 -110c0 -111 -90 -177 -237 -177z" />
    <glyph glyph-name="uni0438" unicode="&#x438;" horiz-adv-x="632" 
d="M75 0v529h151v-277l174 277h156v-529h-151v277l-174 -277h-156z" />
    <glyph glyph-name="uni0439" unicode="&#x439;" horiz-adv-x="632" 
d="M316 581c-100 0 -169 50 -169 137v12h129v-9c0 -15 9 -33 40 -33c33 0 42 18 42 33v9h126v-12c0 -87 -69 -137 -168 -137zM75 0v529h151v-277l174 277h156v-529h-151v277l-174 -277h-156z" />
    <glyph glyph-name="uni043A" unicode="&#x43a;" horiz-adv-x="575" 
d="M75 0v529h158v-196h57l113 196h130v-73l-107 -187l114 -196v-73h-140l-112 196h-55v-196h-158z" />
    <glyph glyph-name="uni043B" unicode="&#x43b;" horiz-adv-x="623" 
d="M34 0v143h21c56 0 69 32 69 91v295h423v-529h-157v393h-119v-185c0 -139 -85 -208 -194 -208h-43z" />
    <glyph glyph-name="uni043C" unicode="&#x43c;" horiz-adv-x="711" 
d="M75 0v529h154l127 -220l127 220h152v-529h-153v286l-91 -165h-72l-91 165v-286h-153z" />
    <glyph glyph-name="uni043D" unicode="&#x43d;" horiz-adv-x="616" 
d="M75 0v529h158v-196h149v196h158v-529h-158v197h-149v-197h-158z" />
    <glyph glyph-name="uni043E" unicode="&#x43e;" horiz-adv-x="574" 
d="M288 130c51 0 76 27 76 59v149c0 33 -25 61 -76 61c-56 0 -78 -30 -78 -61v-149c0 -30 22 -59 78 -59zM288 -12c-157 0 -236 85 -236 196v162c0 109 79 195 236 195c155 0 234 -86 234 -195v-162c0 -111 -79 -196 -234 -196z" />
    <glyph glyph-name="uni043F" unicode="&#x43f;" horiz-adv-x="611" 
d="M75 0v529h460v-529h-158v393h-144v-393h-158z" />
    <glyph glyph-name="uni0440" unicode="&#x440;" horiz-adv-x="605" 
d="M324 399c-44 0 -72 -23 -91 -42v-185c19 -19 46 -42 90 -42c25 0 64 19 64 63v143c0 46 -39 63 -63 63zM356 541c100 0 189 -57 189 -194v-166c0 -136 -89 -193 -188 -193c-71 0 -108 24 -124 35v-183h-158v689h90l38 -48c35 31 79 60 153 60z" />
    <glyph glyph-name="uni0441" unicode="&#x441;" horiz-adv-x="548" 
d="M210 343v-157c0 -31 19 -56 65 -56s68 22 68 58v12h158v-7c0 -130 -94 -205 -220 -205c-136 0 -229 72 -229 196v162c0 123 93 195 229 195c131 0 220 -71 220 -203v-6h-158v6c0 38 -22 61 -68 61s-65 -25 -65 -56z" />
    <glyph glyph-name="uni0442" unicode="&#x442;" horiz-adv-x="504" 
d="M173 0v393h-158v136h474v-136h-158v-393h-158z" />
    <glyph glyph-name="uni0443" unicode="&#x443;" horiz-adv-x="520" 
d="M146 -160v56l42 104l-173 456v73h145l106 -311l97 311h143v-73l-229 -616h-131z" />
    <glyph glyph-name="uni0444" unicode="&#x444;" horiz-adv-x="838" 
d="M340 31c-22 -20 -56 -44 -114 -44c-86 0 -166 59 -166 186v181c0 127 80 186 166 186c58 0 92 -24 114 -44v209h158v-208c22 20 56 44 114 44c86 0 166 -59 166 -186v-181c0 -127 -80 -186 -166 -186c-58 0 -92 24 -114 44v-192h-158v191zM620 196v137
c0 42 -29 66 -65 66c-24 0 -45 -9 -57 -18v-233c12 -9 33 -18 57 -18c36 0 65 24 65 66zM218 333v-137c0 -42 29 -66 65 -66c24 0 45 9 57 18v233c-12 9 -33 18 -57 18c-36 0 -65 -24 -65 -66z" />
    <glyph glyph-name="uni0445" unicode="&#x445;" horiz-adv-x="536" 
d="M490 456l-126 -185l137 -198v-73h-141l-96 159l-95 -159h-134v73l134 191l-132 192v73h142l87 -146l92 146h132v-73z" />
    <glyph glyph-name="uni0446" unicode="&#x446;" horiz-adv-x="641" 
d="M455 -122v122h-380v529h158v-393h142v393h158v-393h77v-258h-155z" />
    <glyph glyph-name="uni0447" unicode="&#x447;" horiz-adv-x="585" 
d="M352 0v167c-18 -4 -51 -10 -98 -10c-123 0 -209 48 -209 177v195h158v-171c0 -46 31 -59 82 -59c27 0 53 4 67 8v222h157v-529h-157z" />
    <glyph glyph-name="uni0448" unicode="&#x448;" horiz-adv-x="835" 
d="M75 0v529h158v-393h105v393h158v-393h105v393h158v-529h-684z" />
    <glyph glyph-name="uni0449" unicode="&#x449;" horiz-adv-x="867" 
d="M680 -122v122h-605v529h158v-393h105v393h158v-393h105v393h158v-393h77v-258h-156z" />
    <glyph glyph-name="uni044A" unicode="&#x44a;" horiz-adv-x="597" 
d="M127 0v393h-132v136h290v-153h117c104 0 168 -74 168 -188s-64 -188 -168 -188h-275zM285 136h74c43 0 53 22 53 52s-10 52 -53 52h-74v-104z" />
    <glyph glyph-name="uni044B" unicode="&#x44b;" horiz-adv-x="795" 
d="M562 0v529h157v-529h-157zM75 0v529h158v-153h107c104 0 168 -74 168 -188s-64 -188 -168 -188h-265zM233 136h64c43 0 53 22 53 52s-10 52 -53 52h-64v-104z" />
    <glyph glyph-name="uni044C" unicode="&#x44c;" horiz-adv-x="545" 
d="M75 0v529h158v-153h117c104 0 168 -74 168 -188s-64 -188 -168 -188h-275zM233 136h74c43 0 53 22 53 52s-10 52 -53 52h-74v-104z" />
    <glyph glyph-name="uni044D" unicode="&#x44d;" horiz-adv-x="556" 
d="M273 -12c-134 0 -225 76 -225 210h146c0 -46 25 -73 81 -73c58 0 75 27 75 62v13h-118v129h118v12c0 36 -19 63 -77 63c-53 0 -79 -27 -79 -72h-146c0 136 89 209 225 209c139 0 231 -73 231 -198v-156c0 -126 -91 -199 -231 -199z" />
    <glyph glyph-name="uni044E" unicode="&#x44e;" horiz-adv-x="808" 
d="M526 -12c-154 0 -231 83 -231 192v17h-62v-197h-158v529h158v-196h62v17c0 107 77 191 231 191c152 0 230 -84 230 -191v-170c0 -109 -78 -192 -230 -192zM526 130c48 0 72 25 72 55v157c0 31 -24 57 -72 57c-52 0 -73 -28 -73 -57v-157c0 -28 21 -55 73 -55z" />
    <glyph glyph-name="uni044F" unicode="&#x44f;" horiz-adv-x="585" 
d="M61 0v73l81 116c-44 21 -88 70 -88 163c0 118 73 177 157 177h298v-529h-158v170h-44l-103 -170h-143zM263 291h88v102h-88c-42 0 -52 -22 -52 -51s10 -51 52 -51z" />
    <glyph glyph-name="uni0451" unicode="&#x451;" horiz-adv-x="563" 
d="M288 -12c-139 0 -236 66 -236 194v164c0 123 97 195 236 195c128 0 224 -65 224 -193v-136h-302v-29c0 -31 22 -53 78 -53c35 0 57 11 66 31h157c-10 -109 -93 -173 -223 -173zM210 325h144v28c0 32 -25 51 -72 51s-72 -19 -72 -51v-28zM104 590v115h157v-115h-157z
M315 590v115h158v-115h-158z" />
    <glyph glyph-name="uni0452" unicode="&#x452;" horiz-adv-x="603" 
d="M320 -30h24c22 0 51 6 51 56v201c0 50 -27 74 -63 74c-44 0 -79 -34 -86 -42v-259h-158v514h-77v110h77v81h158v-81h170v-110h-170v-107c29 19 66 36 122 36c119 0 185 -79 185 -208v-207c0 -94 -53 -200 -195 -200c-10 0 -21 0 -38 2v140z" />
    <glyph glyph-name="uni0453" unicode="&#x453;" horiz-adv-x="481" 
d="M374 676l-75 -86h-123l57 140h141v-54zM75 0v529h370v-136h-212v-393h-158z" />
    <glyph glyph-name="uni0454" unicode="&#x454;" horiz-adv-x="555" 
d="M283 -12c-140 0 -231 73 -231 199v156c0 125 92 198 231 198c136 0 225 -73 225 -209h-146c0 45 -26 72 -79 72c-58 0 -77 -27 -77 -63v-12h118v-129h-118v-13c0 -35 17 -62 75 -62c56 0 81 27 81 73h146c0 -134 -91 -210 -225 -210z" />
    <glyph glyph-name="uni0455" unicode="&#x455;" horiz-adv-x="563" 
d="M285 -12c-149 0 -239 81 -243 195h152c9 -35 38 -60 106 -60c38 0 61 11 61 32c0 17 -13 27 -37 33l-136 33c-55 13 -129 50 -129 143c0 113 84 177 223 177c130 0 229 -74 229 -184h-151c-6 36 -43 50 -85 50c-48 0 -63 -14 -63 -32c0 -15 12 -20 34 -25l147 -35
c63 -14 121 -59 121 -149c0 -114 -94 -178 -229 -178z" />
    <glyph glyph-name="uni0456" unicode="&#x456;" horiz-adv-x="309" 
d="M75 0v529h158v-529h-158zM75 590v115h158v-115h-158z" />
    <glyph glyph-name="uni0457" unicode="&#x457;" horiz-adv-x="308" 
d="M-30 590v115h157v-115h-157zM181 590v115h158v-115h-158zM75 0v529h158v-529h-158z" />
    <glyph glyph-name="uni0458" unicode="&#x458;" horiz-adv-x="310" 
d="M39 -172c-10 0 -21 0 -38 2v140h20c44 0 55 21 55 103v456h158v-501c0 -94 -53 -200 -195 -200zM76 590v115h158v-115h-158z" />
    <glyph glyph-name="uni0459" unicode="&#x459;" horiz-adv-x="861" 
d="M391 0v393h-120v-185c0 -139 -85 -208 -194 -208h-43v143h21c56 0 69 32 69 91v295h425v-153h117c104 0 168 -74 168 -188s-64 -188 -168 -188h-275zM549 136h74c43 0 53 22 53 52s-10 52 -53 52h-74v-104z" />
    <glyph glyph-name="uni045A" unicode="&#x45a;" horiz-adv-x="854" 
d="M382 0v197h-149v-197h-158v529h158v-196h149v196h158v-153h119c105 0 168 -74 168 -188s-63 -188 -168 -188h-277zM540 136h77c42 0 53 27 53 52c0 32 -11 51 -53 51h-77v-103z" />
    <glyph glyph-name="uni045B" unicode="&#x45b;" horiz-adv-x="611" 
d="M88 0v514h-77v110h77v81h158v-81h170v-110h-170v-107c29 19 66 36 122 36c119 0 185 -79 185 -208v-235h-158v227c0 50 -27 74 -63 74c-44 0 -79 -34 -86 -42v-259h-158z" />
    <glyph glyph-name="uni045C" unicode="&#x45c;" horiz-adv-x="575" 
d="M414 676l-75 -86h-123l57 140h141v-54zM75 0v529h158v-196h57l113 196h130v-73l-107 -187l114 -196v-73h-140l-112 196h-55v-196h-158z" />
    <glyph glyph-name="uni045E" unicode="&#x45e;" horiz-adv-x="520" 
d="M146 -160v56l42 104l-173 456v73h145l106 -311l97 311h143v-73l-229 -616h-131zM260 581c-100 0 -169 50 -169 137v12h129v-9c0 -15 9 -33 40 -33c33 0 42 18 42 33v9h126v-12c0 -87 -69 -137 -168 -137z" />
    <glyph glyph-name="uni045F" unicode="&#x45f;" horiz-adv-x="609" 
d="M227 -122v122h-152v529h158v-393h142v393h158v-529h-152v-122h-154z" />
    <glyph glyph-name="uni0490" unicode="&#x490;" horiz-adv-x="563" 
d="M85 0v700h285v130h157v-280h-270v-550h-172z" />
    <glyph glyph-name="uni0491" unicode="&#x491;" horiz-adv-x="476" 
d="M75 0v529h210v129h155v-265h-207v-393h-158z" />
    <glyph glyph-name="uni1E61" unicode="&#x1e61;" horiz-adv-x="563" 
d="M285 -12c-149 0 -239 81 -243 195h152c9 -35 38 -60 106 -60c38 0 61 11 61 32c0 17 -13 27 -37 33l-136 33c-55 13 -129 50 -129 143c0 113 84 177 223 177c130 0 229 -74 229 -184h-151c-6 36 -43 50 -85 50c-48 0 -63 -14 -63 -32c0 -15 12 -20 34 -25l147 -35
c63 -14 121 -59 121 -149c0 -114 -94 -178 -229 -178zM211 590v115h158v-115h-158z" />
    <glyph glyph-name="uni1E63" unicode="&#x1e63;" horiz-adv-x="563" 
d="M285 -12c-149 0 -239 81 -243 195h152c9 -35 38 -60 106 -60c38 0 61 11 61 32c0 17 -13 27 -37 33l-136 33c-55 13 -129 50 -129 143c0 113 84 177 223 177c130 0 229 -74 229 -184h-151c-6 36 -43 50 -85 50c-48 0 -63 -14 -63 -32c0 -15 12 -20 34 -25l147 -35
c63 -14 121 -59 121 -149c0 -114 -94 -178 -229 -178zM204 -187v115h158v-115h-158z" />
    <glyph glyph-name="endash" unicode="&#x2013;" horiz-adv-x="610" 
d="M54 248v129h503v-129h-503z" />
    <glyph glyph-name="emdash" unicode="&#x2014;" horiz-adv-x="867" 
d="M54 248v129h759v-129h-759z" />
    <glyph glyph-name="quoteleft" unicode="&#x2018;" horiz-adv-x="251" 
d="M220 705l-42 -276h-153v65l86 211h109z" />
    <glyph glyph-name="quoteright" unicode="&#x2019;" horiz-adv-x="251" 
d="M32 429l42 276h153v-65l-86 -211h-109z" />
    <glyph glyph-name="quotesinglbase" unicode="&#x201a;" horiz-adv-x="303" 
d="M33 -128l42 276h153v-65l-86 -211h-109z" />
    <glyph glyph-name="quotedblleft" unicode="&#x201c;" horiz-adv-x="467" 
d="M220 705l-42 -276h-153v65l86 211h109zM436 705l-42 -276h-153v65l86 211h109z" />
    <glyph glyph-name="quotedblright" unicode="&#x201d;" horiz-adv-x="467" 
d="M32 429l42 276h153v-65l-86 -211h-109zM248 429l42 276h153v-65l-86 -211h-109z" />
    <glyph glyph-name="quotedblbase" unicode="&#x201e;" horiz-adv-x="505" 
d="M249 -128l42 276h153v-65l-86 -211h-109zM33 -128l42 276h153v-65l-86 -211h-109z" />
    <glyph glyph-name="dagger" unicode="&#x2020;" horiz-adv-x="554" 
d="M199 -160v553h-174v136h174v176h158v-176h171v-136h-171v-553h-158z" />
    <glyph glyph-name="daggerdbl" unicode="&#x2021;" horiz-adv-x="554" 
d="M199 -160v266h-174v136h174v151h-174v136h174v176h158v-176h171v-136h-171v-151h171v-136h-171v-266h-158z" />
    <glyph glyph-name="bullet" unicode="&#x2022;" horiz-adv-x="486" 
d="M243 131c-117 0 -188 64 -188 185v8c0 120 71 185 188 185s188 -65 188 -185v-8c0 -120 -71 -185 -188 -185z" />
    <glyph glyph-name="ellipsis" unicode="&#x2026;" horiz-adv-x="802" 
d="M65 0v148h169v-148h-169zM317 0v148h169v-148h-169zM568 0v148h169v-148h-169z" />
    <glyph glyph-name="perthousand" unicode="&#x2030;" horiz-adv-x="1182" 
d="M229 493v87c0 17 -14 30 -31 30c-20 0 -31 -14 -31 -30v-87c0 -17 10 -30 31 -30c18 0 31 12 31 30zM198 358c-98 0 -163 50 -163 151v55c0 101 65 151 163 151s162 -50 162 -151v-55c0 -101 -64 -151 -162 -151zM156 0v56l414 644h94v-57l-414 -643h-94zM618 -15
c-98 0 -163 50 -163 161v35c0 111 65 161 163 161s162 -50 162 -161v-35c0 -111 -64 -161 -162 -161zM649 120v87c0 17 -14 30 -31 30c-20 0 -31 -14 -31 -30v-87c0 -17 10 -30 31 -30c18 0 31 12 31 30zM985 -15c-98 0 -163 50 -163 161v35c0 111 65 161 163 161
s162 -50 162 -161v-35c0 -111 -64 -161 -162 -161zM1016 120v87c0 17 -14 30 -31 30c-20 0 -31 -14 -31 -30v-87c0 -17 10 -30 31 -30c18 0 31 12 31 30z" />
    <glyph glyph-name="guilsinglleft" unicode="&#x2039;" horiz-adv-x="338" 
d="M144 87l-111 212l111 210h135v-43l-83 -167l83 -168v-44h-135z" />
    <glyph glyph-name="guilsinglright" unicode="&#x203a;" horiz-adv-x="338" 
d="M305 299l-111 -212h-135v44l83 168l-83 167v43h135z" />
    <glyph glyph-name="fraction" unicode="&#x2044;" horiz-adv-x="414" 
d="M-42 0v56l414 644h84v-57l-414 -643h-84z" />
    <glyph glyph-name="fourinferior" unicode="&#x2084;" horiz-adv-x="362" 
d="M138 700h81v-60l-81 -146h53v63h105v-63h34v-87h-34v-49h-105v49h-169v90z" />
    <glyph glyph-name="Euro" unicode="&#x20ac;" horiz-adv-x="678" 
d="M373 -15c-140 0 -252 70 -261 213h-82v116h84v70h-84v116h85c9 129 101 215 258 215c133 0 251 -70 251 -249v-10h-148v10c0 81 -51 107 -104 107c-47 0 -95 -19 -101 -73h125v-116h-125v-70h125v-116h-126c5 -46 42 -71 102 -71c64 0 104 26 104 107v10h148v-10
c0 -179 -103 -249 -251 -249z" />
    <glyph glyph-name="uni20B4" unicode="&#x20b4;" horiz-adv-x="711" 
d="M359 -15c-152 0 -247 77 -247 197v47h-72v98h631v-98h-402v-32c0 -46 33 -70 92 -70c65 0 91 32 91 67h158c0 -128 -99 -209 -251 -209zM264 506h-158c0 128 102 209 248 209c155 0 250 -79 250 -207v-37h67v-98h-631v98h407v32c0 46 -33 70 -92 70
c-65 0 -91 -32 -91 -67z" />
    <glyph glyph-name="uni20BD" unicode="&#x20bd;" horiz-adv-x="642" 
d="M106 0v94h-80v122h80v61h-80v135h80v288h291c130 0 205 -83 205 -212c0 -130 -75 -211 -205 -211h-134v-61h155v-122h-155v-94h-157zM263 412h115c28 0 66 19 66 76s-38 76 -66 76h-115v-152z" />
    <glyph glyph-name="uni2116" unicode="&#x2116;" horiz-adv-x="1047" 
d="M85 0v700h144l211 -378v378h153v-700h-147l-208 377v-377h-153zM676 187v119h325v-119h-325zM870 493v87c0 17 -14 30 -31 30c-20 0 -31 -14 -31 -30v-87c0 -17 10 -30 31 -30c18 0 31 12 31 30zM839 358c-98 0 -163 50 -163 151v55c0 101 65 151 163 151
s162 -50 162 -151v-55c0 -101 -64 -151 -162 -151z" />
    <glyph glyph-name="trademark" unicode="&#x2122;" horiz-adv-x="689" 
d="M319 378v322h87l77 -130l77 130h84v-322h-88v178l-47 -88h-55l-47 86v-176h-88zM93 378v244h-87v78h263v-78h-87v-244h-89z" />
    <glyph glyph-name="Omega" unicode="&#x2126;" horiz-adv-x="727" 
d="M476 275v194c0 39 -30 88 -112 88c-81 0 -112 -49 -112 -88v-194c0 -48 5 -106 57 -125v-150h-247v150h67c-43 43 -49 84 -49 125v185c0 162 110 255 284 255s284 -93 284 -255v-185c0 -41 -6 -82 -50 -125h67v-150h-247v150c52 19 58 77 58 125z" />
    <glyph glyph-name="partialdiff" unicode="&#x2202;" horiz-adv-x="580" 
d="M260 -12c-126 0 -219 60 -219 166c0 21 4 60 10 128c12 140 101 193 201 193c73 0 122 -37 138 -69c2 18 3 33 3 46c0 97 -84 113 -153 113c-48 0 -85 -6 -109 -10l10 138c36 9 86 14 139 14c158 0 258 -89 258 -238c0 -30 -10 -137 -24 -287
c-12 -128 -116 -194 -254 -194zM272 130c55 0 80 29 83 59l10 106c-16 22 -38 38 -78 38c-38 0 -76 -20 -80 -65c-5 -53 -6 -71 -6 -82c0 -34 22 -56 71 -56z" />
    <glyph glyph-name="Delta" unicode="&#x2206;" horiz-adv-x="662" 
d="M15 0v56l231 644h169l232 -644v-56h-632zM230 149h193l-96 320z" />
    <glyph glyph-name="product" unicode="&#x220f;" horiz-adv-x="682" 
d="M85 -75v775h511v-775h-157v632h-196v-632h-158z" />
    <glyph glyph-name="summation" unicode="&#x2211;" horiz-adv-x="578" 
d="M45 -76v143l136 246l-136 244v143h474v-143h-299l135 -244l-135 -246h312v-143h-487z" />
    <glyph glyph-name="minus" unicode="&#x2212;" horiz-adv-x="588" 
d="M64 248v130h460v-130h-460z" />
    <glyph glyph-name="radical" unicode="&#x221a;" horiz-adv-x="541" 
d="M227 -75l-148 401h-83v114h178l104 -328l146 685h116v-55l-182 -817h-131z" />
    <glyph glyph-name="infinity" unicode="&#x221e;" horiz-adv-x="922" 
d="M268 123c-136 0 -213 95 -213 202s77 201 213 201c69 0 133 -32 193 -85c60 52 120 85 194 85c135 0 211 -94 211 -201s-76 -201 -211 -201c-73 0 -134 35 -194 85c-59 -51 -121 -86 -193 -86zM273 264c39 0 71 29 106 62c-33 31 -67 60 -106 60c-35 0 -69 -21 -69 -60
c0 -38 34 -62 69 -62zM648 264c35 0 69 24 69 62c0 39 -34 60 -69 60c-39 0 -73 -29 -106 -60c35 -33 67 -62 106 -62z" />
    <glyph glyph-name="integral" unicode="&#x222b;" horiz-adv-x="310" 
d="M4 -161v140h21c22 0 52 6 52 60v481c0 14 1 28 5 42c19 69 69 147 188 147c10 0 22 0 38 -3v-140h-21c-22 0 -52 -6 -52 -60v-481c0 -14 -1 -28 -5 -42c-19 -70 -69 -147 -188 -147c-10 0 -23 0 -38 3z" />
    <glyph glyph-name="approxequal" unicode="&#x2248;" horiz-adv-x="554" 
d="M171 111l-107 59c20 52 65 126 142 126c24 0 52 -10 72 -22l30 -19c11 -7 17 -10 31 -10c16 0 27 9 44 42l107 -60c-19 -51 -64 -125 -141 -125c-25 0 -54 10 -74 23l-29 17c-11 7 -18 11 -31 11c-15 0 -26 -9 -44 -42zM171 361l-107 59c20 52 65 126 142 126
c24 0 52 -10 72 -22l30 -19c11 -7 17 -10 31 -10c16 0 27 9 44 42l107 -60c-19 -51 -64 -125 -141 -125c-25 0 -54 10 -74 23l-29 17c-11 7 -18 11 -31 11c-15 0 -26 -9 -44 -42z" />
    <glyph glyph-name="notequal" unicode="&#x2260;" horiz-adv-x="588" 
d="M64 0v56l53 84h-53v130h135l55 87h-190v130h272l88 140h100v-57l-53 -83h53v-130h-135l-55 -87h190v-130h-272l-88 -140h-100z" />
    <glyph glyph-name="lessequal" unicode="&#x2264;" horiz-adv-x="548" 
d="M410 207l-346 146v127l346 147h74v-109l-248 -102l248 -100v-109h-74zM64 0v130h420v-130h-420z" />
    <glyph glyph-name="greaterequal" unicode="&#x2265;" horiz-adv-x="548" 
d="M64 207v109l248 100l-248 102v109h74l346 -147v-127l-346 -146h-74zM64 0v130h420v-130h-420z" />
    <glyph glyph-name="lozenge" unicode="&#x25ca;" horiz-adv-x="569" 
d="M228 0l-183 350l183 350h118l177 -350l-178 -350h-117zM285 187l72 163l-72 163l-72 -163z" />
    <glyph glyph-name="commaaccent" unicode="&#xf6c3;" horiz-adv-x="987" 
d="M374 -267l28 200h153v-66l-72 -134h-109z" />
    <glyph glyph-name="zero.onum" horiz-adv-x="635" 
d="M318 130c63 0 91 42 91 97v74c0 55 -28 98 -91 98c-65 0 -92 -43 -92 -98v-74c0 -55 27 -97 92 -97zM318 -12c-151 0 -250 81 -250 249v55c0 168 99 249 250 249c149 0 249 -81 249 -249v-55c0 -168 -100 -249 -249 -249z" />
    <glyph glyph-name="one.onum" horiz-adv-x="354" 
d="M111 0v313h-65v85l203 131h20v-529h-158z" />
    <glyph glyph-name="two.onum" horiz-adv-x="565" 
d="M41 0v125l204 136c50 31 94 52 93 88c0 23 -15 50 -63 50s-75 -27 -75 -70h-158c0 116 63 212 231 212c158 0 223 -96 223 -191c0 -83 -51 -129 -106 -159l-89 -49h205v-142h-465z" />
    <glyph glyph-name="three.onum" horiz-adv-x="601" 
d="M300 -172c-150 0 -251 78 -256 242h150c4 -64 39 -100 107 -100c62 0 87 33 87 76c0 48 -30 73 -94 73h-45v142h46c37 0 74 19 74 70c0 33 -23 68 -74 68c-57 0 -83 -35 -88 -77h-149c14 143 103 219 237 219c147 0 228 -87 228 -199c0 -69 -28 -109 -75 -145
c52 -24 98 -79 98 -154c0 -134 -86 -215 -246 -215z" />
    <glyph glyph-name="four.onum" horiz-adv-x="561" 
d="M315 -160v160h-294v125l217 404h139v-56l-177 -331h115v130h157v-130h73v-142h-73v-160h-157z" />
    <glyph glyph-name="five.onum" horiz-adv-x="597" 
d="M291 -172c-138 0 -234 73 -247 203h152c6 -32 38 -61 94 -61c66 0 95 45 95 112c0 56 -33 104 -91 104c-52 0 -69 -24 -82 -45h-150l40 388h402v-142h-281l-12 -98c35 17 58 25 117 25c104 0 214 -59 214 -232c0 -174 -108 -254 -251 -254z" />
    <glyph glyph-name="six.onum" horiz-adv-x="593" 
d="M296 -12c-148 0 -252 90 -252 237c0 62 20 128 69 204l176 271h144v-57l-126 -184c6 1 16 2 22 2c116 0 219 -60 219 -218c0 -165 -102 -255 -252 -255zM296 130c63 0 95 40 95 102s-33 104 -95 104c-63 0 -94 -43 -94 -104c0 -62 32 -102 94 -102z" />
    <glyph glyph-name="seven.onum" horiz-adv-x="549" 
d="M138 -160v56l203 491h-165v-64h-145v206h468v-131l-224 -558h-137z" />
    <glyph glyph-name="eight.onum" horiz-adv-x="623" 
d="M311 -12c-159 0 -256 80 -256 215c0 71 43 138 94 163c-47 40 -78 79 -78 151c0 105 85 198 240 198c156 0 240 -93 240 -198c0 -72 -29 -111 -75 -151c52 -25 93 -92 93 -163c0 -135 -99 -215 -258 -215zM228 503c0 -60 42 -80 83 -80c42 0 84 20 84 80
c0 40 -22 76 -84 76c-61 0 -83 -36 -83 -76zM214 219c0 -46 28 -89 97 -89s98 43 98 89c0 59 -46 85 -98 85c-51 0 -97 -26 -97 -85z" />
    <glyph glyph-name="nine.onum" horiz-adv-x="606" 
d="M155 -160v56l130 175c-9 -1 -16 -1 -23 -1c-116 0 -218 58 -218 216c0 166 102 255 252 255c148 0 252 -89 252 -236c0 -62 -18 -130 -69 -204l-180 -261h-144zM296 194c63 0 94 42 94 103c0 62 -32 102 -94 102c-63 0 -95 -40 -95 -102s33 -103 95 -103z" />
    <glyph glyph-name="uniF653" unicode="&#xf653;" horiz-adv-x="559" 
d="M357 529c82 -25 134 -88 138 -172h-151c-10 45 -46 56 -84 56c-37 0 -52 -15 -52 -33c0 -20 15 -28 34 -33l142 -36c62 -16 120 -55 120 -145c0 -91 -57 -150 -147 -170v-85h-136v81c-111 20 -176 98 -178 191h152c7 -28 33 -66 102 -66c32 0 55 10 55 34
c0 19 -13 31 -37 37l-131 33c-50 13 -128 50 -128 143c0 95 58 158 165 173v86h136v-94z" />
    <glyph glyph-name="uniF64E" unicode="&#xf64e;" horiz-adv-x="595" 
d="M33 248h67v35h-67v78h67c11 122 102 180 224 180c124 0 210 -59 222 -175h-143c-11 33 -40 47 -79 47c-47 0 -74 -16 -80 -52h116v-78h-116v-35h116v-78h-116c5 -35 32 -53 82 -53c46 0 68 16 77 50h144c-11 -112 -99 -179 -223 -179c-119 0 -214 66 -224 182h-67v78z
" />
    <glyph glyph-name="uniF725" unicode="&#xf725;" horiz-adv-x="602" 
d="M47 0v136h68v58h-68v112h68v40c0 123 91 195 214 195c133 0 219 -71 219 -203v-6h-158v6c0 37 -16 61 -61 61c-40 0 -57 -20 -57 -51v-42h95v-112h-95v-58h276v-136h-501z" />
    <glyph glyph-name="uniF727" unicode="&#xf727;" horiz-adv-x="551" 
d="M200 0v73h-120v90h120v41h-120v90h62l-105 162v73h142l98 -172h6l98 172h133v-73l-103 -162h65v-90h-118v-41h118v-90h-118v-73h-158z" />
    <glyph glyph-name="uniF722" unicode="&#xf722;" horiz-adv-x="589" 
d="M122 0v65h-89v91h89v41h-89v112h89v220h287c96 0 152 -67 152 -169c0 -101 -56 -163 -152 -163h-129v-41h94v-91h-94v-65h-158zM280 309h81c35 0 43 19 43 42s-8 42 -43 42h-81v-84z" />
    <glyph glyph-name="uniF721" unicode="&#xf721;" horiz-adv-x="582" 
d="M547 170h-311c0 -33 16 -53 60 -53c40 0 52 16 55 25h154c-3 -92 -87 -154 -213 -154c-129 0 -205 67 -205 173v9h-50v78h510v-78zM37 283v78h310c0 29 -16 52 -60 52c-38 0 -50 -15 -53 -24h-155c3 90 86 152 207 152c130 0 211 -63 211 -170v-10h50v-78h-510z" />
    <glyph glyph-name="zero.onum.mono" 
d="M309 -12c-151 0 -250 81 -250 249v55c0 168 99 249 250 249c149 0 249 -81 249 -249v-55c0 -168 -100 -249 -249 -249zM310 128c65 0 95 42 95 99v81l-138 -173c12 -5 26 -7 43 -7zM212 302v-79l137 172c-12 5 -26 7 -39 7c-69 0 -98 -43 -98 -100z" />
    <glyph glyph-name="one.onum.mono" 
d="M98 0v142h140v171h-105v85l243 131h20v-387h139v-142h-437z" />
    <glyph glyph-name="two.onum.mono" 
d="M67 0v125l204 136c50 31 94 52 93 88c0 23 -15 50 -63 50s-75 -27 -75 -70h-158c0 116 63 212 231 212c158 0 223 -96 223 -191c0 -83 -51 -129 -106 -159l-89 -49h205v-142h-465z" />
    <glyph glyph-name="three.onum.mono" 
d="M319 -172c-150 0 -251 78 -256 242h150c4 -64 39 -100 107 -100c62 0 87 33 87 76c0 48 -30 73 -94 73h-45v142h46c37 0 74 19 74 70c0 33 -23 68 -74 68c-57 0 -83 -35 -88 -77h-149c14 143 103 219 237 219c147 0 228 -87 228 -199c0 -69 -28 -109 -75 -145
c52 -24 98 -79 98 -154c0 -134 -86 -215 -246 -215z" />
    <glyph glyph-name="four.onum.mono" 
d="M344 -160v160h-294v125l217 404h139v-56l-177 -331h115v130h157v-130h73v-142h-73v-160h-157z" />
    <glyph glyph-name="five.onum.mono" 
d="M311 -172c-138 0 -234 73 -247 203h152c6 -32 38 -61 94 -61c66 0 95 45 95 112c0 56 -33 104 -91 104c-52 0 -69 -24 -82 -45h-150l40 388h402v-142h-281l-12 -98c35 17 58 25 117 25c104 0 214 -59 214 -232c0 -174 -108 -254 -251 -254z" />
    <glyph glyph-name="six.onum.mono" 
d="M319 -12c-148 0 -252 90 -252 237c0 62 20 128 69 204l176 271h144v-57l-126 -184c6 1 16 2 22 2c116 0 219 -60 219 -218c0 -165 -102 -255 -252 -255zM319 130c63 0 95 40 95 102s-33 104 -95 104c-63 0 -94 -43 -94 -104c0 -62 32 -102 94 -102z" />
    <glyph glyph-name="seven.onum.mono" 
d="M185 -160v56l203 491h-165v-64h-145v206h468v-131l-224 -558h-137z" />
    <glyph glyph-name="eight.onum.mono" 
d="M312 -12c-159 0 -256 80 -256 215c0 71 43 138 94 163c-47 40 -78 79 -78 151c0 105 85 198 240 198c156 0 240 -93 240 -198c0 -72 -29 -111 -75 -151c52 -25 93 -92 93 -163c0 -135 -99 -215 -258 -215zM229 503c0 -60 42 -80 83 -80c42 0 84 20 84 80
c0 40 -22 76 -84 76c-61 0 -83 -36 -83 -76zM215 219c0 -46 28 -89 97 -89s98 43 98 89c0 59 -46 85 -98 85c-51 0 -97 -26 -97 -85z" />
    <glyph glyph-name="nine.onum.mono" 
d="M165 -160v56l130 175c-9 -1 -16 -1 -23 -1c-116 0 -218 58 -218 216c0 166 102 255 252 255c148 0 252 -89 252 -236c0 -62 -18 -130 -69 -204l-180 -261h-144zM306 194c63 0 94 42 94 103c0 62 -32 102 -94 102c-63 0 -95 -40 -95 -102s33 -103 95 -103z" />
    <glyph glyph-name="uniF653.mono" 
d="M396 529c82 -25 134 -88 138 -172h-151c-10 45 -46 56 -84 56c-37 0 -52 -15 -52 -33c0 -20 15 -28 34 -33l142 -36c62 -16 120 -55 120 -145c0 -91 -57 -150 -147 -170v-85h-136v81c-111 20 -176 98 -178 191h152c7 -28 33 -66 102 -66c32 0 55 10 55 34
c0 19 -13 31 -37 37l-131 33c-50 13 -128 50 -128 143c0 95 58 158 165 173v86h136v-94z" />
    <glyph glyph-name="uniF64E.mono" 
d="M50 248h67v35h-67v78h67c11 122 102 180 224 180c124 0 210 -59 222 -175h-143c-11 33 -40 47 -79 47c-47 0 -74 -16 -80 -52h116v-78h-116v-35h116v-78h-116c5 -35 32 -53 82 -53c46 0 68 16 77 50h144c-11 -112 -99 -179 -223 -179c-119 0 -214 66 -224 182h-67v78z
" />
    <glyph glyph-name="uniF725.mono" 
d="M63 0v136h68v58h-68v112h68v40c0 123 91 195 214 195c133 0 219 -71 219 -203v-6h-158v6c0 37 -16 61 -61 61c-40 0 -57 -20 -57 -51v-42h95v-112h-95v-58h276v-136h-501z" />
    <glyph glyph-name="uniF727.mono" 
d="M236 0v73h-120v90h120v41h-120v90h62l-105 162v73h142l98 -172h6l98 172h133v-73l-103 -162h65v-90h-118v-41h118v-90h-118v-73h-158z" />
    <glyph glyph-name="uniF722.mono" 
d="M123 0v65h-89v91h89v41h-89v112h89v220h287c96 0 152 -67 152 -169c0 -101 -56 -163 -152 -163h-129v-41h94v-91h-94v-65h-158zM281 309h81c35 0 43 19 43 42s-8 42 -43 42h-81v-84z" />
    <glyph glyph-name="uniF721.mono" 
d="M579 170h-311c0 -33 16 -53 60 -53c40 0 52 16 55 25h154c-3 -92 -87 -154 -213 -154c-129 0 -205 67 -205 173v9h-50v78h510v-78zM69 283v78h310c0 29 -16 52 -60 52c-38 0 -50 -15 -53 -24h-155c3 90 86 152 207 152c130 0 211 -63 211 -170v-10h50v-78h-510z" />
    <glyph glyph-name="zero.mono" 
d="M313 -15c-149 0 -246 82 -246 244v241c0 162 97 245 246 245c151 0 246 -83 246 -245v-241c0 -162 -95 -244 -246 -244zM313 127c63 0 88 42 88 92v187l-147 -261c14 -11 33 -18 59 -18zM225 479v-186l146 261c-14 12 -33 19 -58 19c-63 0 -88 -44 -88 -94z" />
    <glyph glyph-name="one.mono" 
d="M97 0v142h139v342h-105v85l243 131h20v-558h139v-142h-436z" />
    <glyph glyph-name="two.mono" 
d="M71 0v128l212 212c85 85 98 112 98 159c0 31 -18 74 -76 74c-71 0 -85 -56 -85 -107h-148c0 155 98 249 236 249c162 0 230 -110 230 -216c0 -98 -30 -145 -137 -247l-115 -110h253v-142h-468z" />
    <glyph glyph-name="three.mono" 
d="M319 -15c-151 0 -251 89 -253 256h150c2 -67 30 -114 107 -114c57 0 84 35 84 80c0 52 -32 82 -97 82h-40v142h40c47 0 82 20 82 73c0 43 -29 69 -74 69c-67 0 -85 -46 -86 -99h-150c0 156 91 241 236 241c149 0 228 -86 228 -197c0 -68 -29 -114 -75 -150
c51 -23 94 -86 94 -163c0 -133 -87 -220 -246 -220z" />
    <glyph glyph-name="four.mono" 
d="M348 0v117h-302v121l215 462h133v-57l-176 -384h130v152h154v-152h74v-142h-74v-117h-154z" />
    <glyph glyph-name="five.mono" 
d="M305 -15c-141 0 -234 78 -246 216h152c6 -39 37 -74 96 -74c63 0 91 46 91 119c0 63 -28 108 -88 108c-56 0 -73 -28 -83 -48h-150l39 394h400v-142h-279l-12 -100c34 17 59 25 116 25c103 0 214 -58 214 -237c0 -176 -105 -261 -250 -261z" />
    <glyph glyph-name="six.mono" 
d="M319 -15c-149 0 -252 89 -252 235c0 62 20 129 68 205l177 275h144v-57l-126 -189c7 1 16 2 21 2c117 0 220 -59 220 -217c0 -165 -102 -254 -252 -254zM319 127c62 0 94 40 94 102s-33 102 -94 102c-64 0 -94 -41 -94 -102c0 -62 32 -102 94 -102z" />
    <glyph glyph-name="seven.mono" 
d="M190 0v56l195 502h-161v-65h-145v207h467v-133l-214 -567h-142z" />
    <glyph glyph-name="eight.mono" 
d="M312 715c155 0 240 -93 240 -198c0 -72 -31 -113 -78 -150c51 -28 94 -89 94 -163c0 -134 -100 -219 -256 -219s-256 85 -256 219c0 74 43 135 94 163c-47 37 -78 78 -78 150c0 105 85 198 240 198zM312 423c41 0 83 21 83 81c0 40 -22 75 -83 75s-83 -35 -83 -75
c0 -60 42 -81 83 -81zM312 127c69 0 97 44 97 90c0 58 -46 87 -97 87s-97 -29 -97 -87c0 -46 28 -90 97 -90z" />
    <glyph glyph-name="nine.mono" 
d="M306 715c149 0 252 -89 252 -235c0 -62 -20 -129 -68 -205l-177 -275h-144v57l126 189c-7 -1 -16 -2 -21 -2c-117 0 -220 59 -220 217c0 165 102 254 252 254zM306 573c-62 0 -94 -40 -94 -102s33 -102 94 -102c64 0 94 41 94 102c0 62 -32 102 -94 102z" />
    <glyph glyph-name="dollar.mono" 
d="M60 227h158c0 -77 49 -100 102 -100c50 0 79 26 79 65c0 35 -25 48 -51 60l-100 46c-105 48 -172 96 -172 212c0 113 73 182 167 200v91h156v-95c81 -19 154 -94 154 -227h-157c0 66 -34 94 -85 94c-41 0 -74 -23 -74 -61c0 -45 39 -57 95 -83l75 -35
c87 -40 153 -88 153 -192c0 -100 -45 -181 -161 -212v-110h-156v108c-101 16 -183 95 -183 239z" />
    <glyph glyph-name="Euro.mono" 
d="M359 -15c-140 0 -252 70 -261 213h-82v116h84v70h-84v116h85c9 129 101 215 258 215c133 0 251 -70 251 -249v-10h-148v10c0 81 -51 107 -104 107c-47 0 -95 -19 -101 -73h125v-116h-125v-70h125v-116h-126c5 -46 42 -71 102 -71c64 0 104 26 104 107v10h148v-10
c0 -179 -103 -249 -251 -249z" />
    <glyph glyph-name="sterling.mono" 
d="M49 0v142h63v139h-63v142h63v96c0 124 92 196 228 196c132 0 222 -71 222 -217v-34h-158v35c0 52 -22 74 -67 74c-52 0 -67 -28 -67 -61v-89h108v-142h-108v-139h292v-142h-513z" />
    <glyph glyph-name="yen.mono" 
d="M231 0v88h-150v122h150v70h-150v122h96l-146 241v57h144l136 -244l136 244h141v-57l-146 -241h96v-122h-150v-70h150v-122h-150v-88h-157z" />
    <glyph glyph-name="uni20BD.mono" 
d="M110 0v94h-80v122h80v61h-80v135h80v288h291c130 0 205 -83 205 -212c0 -130 -75 -211 -205 -211h-134v-61h155v-122h-155v-94h-157zM267 412h115c28 0 66 19 66 76s-38 76 -66 76h-115v-152z" />
    <glyph glyph-name="uni20B4.mono" 
d="M316 -15c-152 0 -247 77 -247 197v47h-72v98h631v-98h-402v-32c0 -46 33 -70 92 -70c65 0 91 32 91 67h158c0 -128 -99 -209 -251 -209zM221 506h-158c0 128 102 209 248 209c155 0 250 -79 250 -207v-37h67v-98h-631v98h407v32c0 46 -33 70 -92 70
c-65 0 -91 -32 -91 -67z" />
    <glyph glyph-name="a.alt1" horiz-adv-x="606" 
d="M530 0h-90l-38 48c-35 -31 -79 -60 -153 -60c-100 0 -189 57 -189 194v166c0 136 89 193 189 193c74 0 118 -29 153 -60l38 48h90v-529zM281 130c44 0 72 23 91 42v185c-19 19 -46 42 -90 42c-25 0 -64 -18 -64 -63v-143c0 -45 39 -63 63 -63z" />
    <glyph glyph-name="agrave.alt1" horiz-adv-x="606" 
d="M530 0h-90l-38 48c-35 -31 -79 -60 -153 -60c-100 0 -189 57 -189 194v166c0 136 89 193 189 193c74 0 118 -29 153 -60l38 48h90v-529zM281 130c44 0 72 23 91 42v185c-19 19 -46 42 -90 42c-25 0 -64 -18 -64 -63v-143c0 -45 39 -63 63 -63zM254 590l-74 86v54h141
l57 -140h-124z" />
    <glyph glyph-name="aacute.alt1" horiz-adv-x="606" 
d="M530 0h-90l-38 48c-35 -31 -79 -60 -153 -60c-100 0 -189 57 -189 194v166c0 136 89 193 189 193c74 0 118 -29 153 -60l38 48h90v-529zM281 130c44 0 72 23 91 42v185c-19 19 -46 42 -90 42c-25 0 -64 -18 -64 -63v-143c0 -45 39 -63 63 -63zM433 676l-75 -86h-123
l57 140h141v-54z" />
    <glyph glyph-name="acircumflex.alt1" horiz-adv-x="606" 
d="M530 0h-90l-38 48c-35 -31 -79 -60 -153 -60c-100 0 -189 57 -189 194v166c0 136 89 193 189 193c74 0 118 -29 153 -60l38 48h90v-529zM281 130c44 0 72 23 91 42v185c-19 19 -46 42 -90 42c-25 0 -64 -18 -64 -63v-143c0 -45 39 -63 63 -63zM369 730l89 -90v-50h-116
l-32 52l-33 -52h-119v50l88 90h123z" />
    <glyph glyph-name="atilde.alt1" horiz-adv-x="606" 
d="M530 0h-90l-38 48c-35 -31 -79 -60 -153 -60c-100 0 -189 57 -189 194v166c0 136 89 193 189 193c74 0 118 -29 153 -60l38 48h90v-529zM281 130c44 0 72 23 91 42v185c-19 19 -46 42 -90 42c-25 0 -64 -18 -64 -63v-143c0 -45 39 -63 63 -63zM217 575l-95 53
c30 58 65 104 122 104c27 0 45 -8 59 -16l26 -15c11 -6 20 -9 28 -9c17 0 26 11 42 40l95 -53c-30 -58 -65 -104 -122 -104c-27 0 -45 8 -59 16l-26 15c-11 6 -20 9 -28 9c-17 0 -26 -11 -42 -40z" />
    <glyph glyph-name="adieresis.alt1" horiz-adv-x="606" 
d="M530 0h-90l-38 48c-35 -31 -79 -60 -153 -60c-100 0 -189 57 -189 194v166c0 136 89 193 189 193c74 0 118 -29 153 -60l38 48h90v-529zM281 130c44 0 72 23 91 42v185c-19 19 -46 42 -90 42c-25 0 -64 -18 -64 -63v-143c0 -45 39 -63 63 -63zM121 590v115h157v-115h-157
zM332 590v115h158v-115h-158z" />
    <glyph glyph-name="aring.alt1" horiz-adv-x="606" 
d="M530 0h-90l-38 48c-35 -31 -79 -60 -153 -60c-100 0 -189 57 -189 194v166c0 136 89 193 189 193c74 0 118 -29 153 -60l38 48h90v-529zM281 130c44 0 72 23 91 42v185c-19 19 -46 42 -90 42c-25 0 -64 -18 -64 -63v-143c0 -45 39 -63 63 -63zM195 678
c0 59 51 105 114 105c62 0 113 -46 113 -105s-51 -106 -113 -106c-63 0 -114 47 -114 106zM280 678c0 -17 15 -28 29 -28s29 11 29 28c0 18 -15 28 -29 28s-29 -10 -29 -28z" />
    <glyph glyph-name="amacron.alt1" horiz-adv-x="606" 
d="M530 0h-90l-38 48c-35 -31 -79 -60 -153 -60c-100 0 -189 57 -189 194v166c0 136 89 193 189 193c74 0 118 -29 153 -60l38 48h90v-529zM281 130c44 0 72 23 91 42v185c-19 19 -46 42 -90 42c-25 0 -64 -18 -64 -63v-143c0 -45 39 -63 63 -63zM133 595v110h343v-110h-343
z" />
    <glyph glyph-name="aogonek.alt1" horiz-adv-x="606" 
d="M440 0l-38 48c-35 -31 -79 -60 -153 -60c-100 0 -189 57 -189 194v166c0 136 89 193 189 193c74 0 118 -29 153 -60l38 48h90v-529c-23 -20 -31 -33 -31 -46c0 -14 10 -21 29 -21h35v-93h-74c-52 0 -92 25 -92 73c0 29 13 54 43 87zM281 130c44 0 72 23 91 42v185
c-19 19 -46 42 -90 42c-25 0 -64 -18 -64 -63v-143c0 -45 39 -63 63 -63z" />
    <glyph glyph-name="t.alt1" horiz-adv-x="371" 
d="M106 0v393h-76v136h76v176h158v-176h77v-136h-77v-393h-158z" />
    <glyph glyph-name="tcaron.alt1" horiz-adv-x="540" 
d="M399 505l28 200h143v-66l-72 -134h-99zM106 0v393h-76v136h76v176h158v-176h77v-136h-77v-393h-158z" />
    <glyph glyph-name="J.alt1" horiz-adv-x="577" 
d="M159 550v150h357v-489c0 -170 -117 -226 -250 -226c-138 0 -251 52 -251 225v34h172v-25c0 -59 34 -76 79 -76c44 0 78 17 78 76v331h-185z" />
    <glyph glyph-name="ampersand.alt1" horiz-adv-x="647" 
d="M353 204v136h276v-136h-60c-10 -136 -116 -216 -266 -216c-154 0 -263 84 -263 225c0 82 40 140 88 173c-33 34 -52 68 -52 128c0 119 91 195 222 195c142 0 224 -83 223 -219h-158c0 44 -15 79 -63 79c-39 0 -60 -26 -60 -61s22 -59 68 -59h7v-136h-27
c-53 0 -90 -33 -90 -90c0 -49 34 -93 107 -93c72 0 106 33 106 74h-58z" />
    <glyph glyph-name="ampersand.alt2" horiz-adv-x="629" 
d="M390 564h-98c-25 0 -52 -16 -52 -61c0 -43 27 -59 52 -59h85l69 76h89v-76h69v-136h-69v-308h-234c-170 0 -256 65 -256 207c0 80 44 144 100 168c-50 31 -72 79 -72 140c0 121 85 185 217 185h100v-136zM285 141h92v167h-92c-34 0 -72 -22 -72 -85c0 -60 38 -82 72 -82z
" />
    <glyph glyph-name="at" unicode="@" horiz-adv-x="987" 
d="M502 -151c-258 0 -437 179 -437 433c0 259 179 433 437 433c234 0 419 -151 419 -393c0 -143 -74 -257 -213 -257c-61 0 -106 17 -142 49c-28 -23 -60 -49 -116 -49c-79 0 -150 40 -150 145v146c0 104 71 144 150 144c56 0 85 -22 115 -48l37 40h76v-264
c0 -38 20 -57 50 -57c25 0 84 28 84 152c0 189 -142 296 -310 296c-190 0 -328 -128 -328 -338c0 -211 140 -333 328 -333h25v-99h-25zM479 190c31 0 51 16 64 30v127c-13 13 -32 29 -63 29c-18 0 -45 -13 -45 -44v-97c0 -32 27 -45 44 -45z" />
    <glyph glyph-name="uni0430.alt1" horiz-adv-x="606" 
d="M530 0h-90l-38 48c-35 -31 -79 -60 -153 -60c-100 0 -189 57 -189 194v166c0 136 89 193 189 193c74 0 118 -29 153 -60l38 48h90v-529zM281 130c44 0 72 23 91 42v185c-19 19 -46 42 -90 42c-25 0 -64 -18 -64 -63v-143c0 -45 39 -63 63 -63z" />
    <glyph glyph-name="uni0423.alt1" horiz-adv-x="608" 
d="M5 700h159l154 -310l135 310h150v-57l-201 -449c-67 -150 -105 -194 -242 -194h-37v162h36c38 0 60 8 73 37l4 9l-231 435v57z" />
    <glyph glyph-name="uni040E.alt1" horiz-adv-x="608" 
d="M5 700h159l154 -310l135 310h150v-57l-201 -449c-67 -150 -105 -194 -242 -194h-37v162h36c38 0 60 8 73 37l4 9l-231 435v57zM307 742c-100 0 -169 50 -169 137v9h129v-6c0 -15 9 -33 40 -33c33 0 42 18 42 33v6h126v-9c0 -87 -69 -137 -168 -137z" />
    </font>
</defs>
</svg>
