<svg width="98" height="98" viewBox="0 0 98 98" fill="none" xmlns="http://www.w3.org/2000/svg">
<circle cx="49" cy="49" r="49" fill="black"/>
<path d="M27.544 39.696C28.536 39.696 29.424 39.992 30.208 40.584C30.992 41.176 31.6 42.016 32.032 43.104C32.48 44.176 32.704 45.432 32.704 46.872C32.704 48.328 32.48 49.6 32.032 50.688C31.6 51.776 30.992 52.616 30.208 53.208C29.424 53.8 28.536 54.096 27.544 54.096C26.552 54.096 25.664 53.8 24.88 53.208C24.096 52.616 23.488 51.776 23.056 50.688C22.624 49.6 22.408 48.328 22.408 46.872C22.408 45.432 22.624 44.168 23.056 43.08C23.504 41.992 24.112 41.16 24.88 40.584C25.664 39.992 26.552 39.696 27.544 39.696ZM27.544 42.336C26.808 42.336 26.208 42.736 25.744 43.536C25.296 44.32 25.072 45.432 25.072 46.872C25.072 48.328 25.296 49.448 25.744 50.232C26.208 51.016 26.808 51.408 27.544 51.408C28.296 51.408 28.888 51.016 29.32 50.232C29.768 49.448 29.992 48.328 29.992 46.872C29.992 45.432 29.768 44.32 29.32 43.536C28.888 42.736 28.296 42.336 27.544 42.336ZM37.672 45.864H40.528V48.288H37.672V58.416H34.84V38.28H37.672V45.864ZM56.9361 58.44H54.0801V38.28H56.9361V58.44ZM46.3521 39.696C47.3281 39.696 48.2001 39.992 48.9681 40.584C49.7521 41.176 50.3601 42.016 50.7921 43.104C51.2401 44.176 51.4641 45.432 51.4641 46.872C51.4641 48.328 51.2401 49.6 50.7921 50.688C50.3601 51.776 49.7521 52.616 48.9681 53.208C48.2001 53.8 47.3281 54.096 46.3521 54.096C45.3601 54.096 44.4641 53.8 43.6641 53.208C42.8801 52.616 42.2641 51.776 41.8161 50.688C41.3841 49.6 41.1681 48.328 41.1681 46.872C41.1681 45.432 41.3841 44.176 41.8161 43.104C42.2641 42.016 42.8801 41.176 43.6641 40.584C44.4641 39.992 45.3601 39.696 46.3521 39.696ZM46.3521 42.336C45.5841 42.336 44.9761 42.728 44.5281 43.512C44.0961 44.296 43.8801 45.416 43.8801 46.872C43.8801 48.328 44.0961 49.448 44.5281 50.232C44.9761 51.016 45.5841 51.408 46.3521 51.408C47.0881 51.408 47.6721 51.016 48.1041 50.232C48.5361 49.448 48.7521 48.328 48.7521 46.872C48.7521 45.416 48.5361 44.296 48.1041 43.512C47.6721 42.728 47.0881 42.336 46.3521 42.336ZM75.2643 53.088H72.4323V38.304H75.2643V53.088ZM75.7443 58.08H62.1123V51.72H64.9443V55.728H75.7443V58.08ZM70.3923 42.288H68.7843V47.832C69.8403 47.736 70.6163 47.656 71.1123 47.592L71.2803 49.728C69.5363 50.032 67.7283 50.232 65.8563 50.328C64.0003 50.408 61.8883 50.448 59.5203 50.448L59.2803 48.12H61.3203V42.288H59.7603V39.984H70.3923V42.288ZM66.0723 48V42.288H64.0083V48.072L66.0723 48Z" fill="#6B6B6B"/>
</svg>
