<svg width="98" height="98" viewBox="0 0 98 98" fill="none" xmlns="http://www.w3.org/2000/svg">
<circle cx="49" cy="49" r="49" fill="black"/>
<path d="M62.3761 14.0664H38.111C32.5377 14.0664 28 18.6041 28 24.1774V76.7541C28 82.3274 32.5377 86.8651 38.111 86.8651H62.3761C67.9494 86.8651 72.4871 82.3274 72.4871 76.7541V24.1774C72.4871 18.6005 67.9494 14.0664 62.3761 14.0664ZM68.4441 76.7505C68.4441 80.096 65.7215 82.8186 62.3761 82.8186H38.111C34.7656 82.8186 32.043 80.096 32.043 76.7505V24.1774C32.043 20.832 34.7656 18.1094 38.111 18.1094H62.3761C65.7215 18.1094 68.4441 20.832 68.4441 24.1774V76.7505Z" fill="#8E8E8E"/>
<path d="M50.2432 80.793C52.4761 80.793 54.2862 78.9829 54.2862 76.75C54.2862 74.5171 52.4761 72.707 50.2432 72.707C48.0103 72.707 46.2002 74.5171 46.2002 76.75C46.2002 78.9829 48.0103 80.793 50.2432 80.793Z" fill="#8E8E8E"/>
<path d="M54.2863 20.1309H46.1968C45.0793 20.1309 44.1753 21.0348 44.1753 22.1524C44.1753 23.2699 45.0793 24.1738 46.1968 24.1738H54.2863C55.4038 24.1738 56.3078 23.2699 56.3078 22.1524C56.3078 21.0348 55.4038 20.1309 54.2863 20.1309Z" fill="#8E8E8E"/>
</svg>
