<svg width="300" height="100" viewBox="0 0 300 100" fill="none" xmlns="http://www.w3.org/2000/svg">
<path fill-rule="evenodd" clip-rule="evenodd" d="M78.5691 44.5843C77.9436 47.6254 75.1783 55.4189 66.3494 59.6402L62.8041 55.6067L56.8253 61.6965C49.9275 61.6023 43.4623 58.2488 39.3607 52.6284C39.9941 52.8316 40.6506 52.9565 41.3149 53.0036C42.2959 53.019 43.3541 52.6596 43.3541 50.9867V34.5703C43.4082 33.0772 42.2496 31.8265 40.7819 31.7717C40.5193 31.7639 40.2489 31.7952 39.9941 31.8656C37.2288 32.5066 35.0119 39.5031 35.0119 39.5031C34.9501 32.9678 37.7309 26.7296 42.6203 22.4535C46.7451 18.9201 50.7694 17.6928 53.836 17.216C50.8158 18.9592 49.1087 21.8047 49.1087 24.1968C49.1087 28.0273 51.3951 27.5739 52.0749 27.011V49.1807C52.1907 49.4622 52.3375 49.7202 52.5152 49.9624C53.1331 50.8224 54.1141 51.3307 55.1646 51.3148C57.451 51.3148 60.4248 48.6728 60.4248 48.6728V30.7164C60.4248 28.8872 59.0654 26.6827 57.7059 25.9323C57.7059 25.9323 60.224 25.4866 62.1783 26.9876C62.5414 26.5342 62.9351 26.1042 63.3445 25.6899C67.879 21.1872 72.1503 19.9051 75.7114 19.2641C75.7114 19.2641 69.2306 24.4157 69.2306 31.3183C69.2306 36.4543 69.362 48.9856 69.362 48.9856C71.7717 51.3307 75.3482 47.9459 78.5768 44.5843H78.5691ZM57.1188 2.77747C77.063 2.77747 93.2297 19.139 93.2297 39.3232C93.2297 59.5075 77.063 75.8689 57.1188 75.877C37.1747 75.877 21 59.5152 21 39.3311C21 19.1469 37.167 2.77747 57.1111 2.77747H57.1188Z" fill="white"/>
<path d="M129.041 22.6135C129.041 23.6231 128.819 24.5097 128.375 25.2731C127.932 26.0365 127.316 26.6521 126.54 27.0831C125.763 27.5263 124.876 27.7356 123.866 27.7356C122.856 27.7356 121.993 27.514 121.217 27.0831C120.453 26.6398 119.837 26.0365 119.393 25.2731C118.95 24.5097 118.728 23.6108 118.728 22.6135V2.77747H110.005V23.3523C110.005 25.8025 110.584 27.908 111.742 29.7057C112.9 31.4911 114.514 32.8701 116.597 33.8428C118.679 34.8155 121.094 35.2957 123.854 35.2957C126.614 35.2957 129.041 34.8155 131.123 33.8428C133.205 32.8701 134.832 31.4911 136.002 29.7057C137.173 27.9203 137.752 25.8025 137.752 23.3523V2.77747H129.028V22.6135H129.041Z" fill="white"/>
<path d="M161.334 11.6551C160.077 10.8794 158.587 10.4854 156.874 10.4854C155.161 10.4854 153.584 10.9163 152.377 11.7905C151.157 12.6647 150.282 13.8591 149.752 15.3982H149.58V10.7809H140.992V34.8894H149.666V21.3453C149.666 20.545 149.814 19.8554 150.097 19.289C150.381 18.7227 150.787 18.2794 151.317 17.9716C151.847 17.6638 152.463 17.5037 153.165 17.5037C154.262 17.5037 155.112 17.8484 155.716 18.5256C156.32 19.2029 156.628 20.1509 156.628 21.3453V34.8894H165.302V19.5353C165.302 17.7869 164.957 16.2231 164.267 14.8564C163.577 13.4897 162.603 12.4185 161.347 11.6428L161.334 11.6551Z" fill="white"/>
<path d="M184.966 10.8424C184.621 10.7316 184.264 10.6454 183.882 10.5839C183.512 10.5223 183.13 10.4977 182.76 10.4977C181.479 10.4977 180.358 10.8917 179.409 11.6674C178.448 12.4554 177.758 13.699 177.327 15.4105H177.068V10.7932H168.653V34.9018H177.327V22.355C177.327 21.4315 177.512 20.6312 177.894 19.954C178.276 19.2767 178.805 18.735 179.483 18.3533C180.161 17.9716 180.925 17.7869 181.775 17.7869C182.218 17.7869 182.76 17.8238 183.377 17.8854C183.993 17.947 184.535 18.0578 184.966 18.2178V10.8424Z" fill="white"/>
<path d="M205.493 13.8098C204.445 12.7386 203.176 11.9137 201.71 11.3473C200.232 10.7809 198.581 10.4977 196.757 10.4977C194.268 10.4977 192.112 11.0148 190.289 12.0491C188.465 13.0834 187.048 14.5363 186.05 16.3955C185.052 18.2548 184.547 20.4342 184.547 22.9213C184.547 25.4085 185.04 27.748 186.038 29.6072C187.036 31.4665 188.453 32.8825 190.326 33.8675C192.186 34.8525 194.404 35.345 196.979 35.345C199.209 35.345 201.143 35.0126 202.794 34.3477C204.445 33.6828 205.764 32.7347 206.762 31.5034C207.76 30.2721 208.401 28.8315 208.672 27.157H200.774C200.601 27.6002 200.343 27.9819 199.998 28.3021C199.653 28.6222 199.234 28.8561 198.753 29.0285C198.273 29.1886 197.731 29.2748 197.151 29.2748C196.326 29.2748 195.611 29.0778 194.995 28.6961C194.379 28.3021 193.899 27.7603 193.566 27.0585C193.27 26.4305 193.11 25.7041 193.073 24.8791H208.77V22.8967C208.77 20.9759 208.487 19.2398 207.932 17.7253C207.366 16.1985 206.565 14.9057 205.517 13.8345L205.493 13.8098ZM194.749 17.1097C195.316 16.7526 196.006 16.5802 196.843 16.5802C197.681 16.5802 198.371 16.7526 198.938 17.1097C199.505 17.4668 199.924 17.9716 200.207 18.6365C200.392 19.0674 200.515 19.5599 200.577 20.114H193.11C193.172 19.5599 193.295 19.0674 193.48 18.6365C193.763 17.9716 194.194 17.4544 194.749 17.1097Z" fill="white"/>
<path d="M230.16 12.7879C229.199 12.0737 228.028 11.5073 226.66 11.101C225.293 10.6947 223.753 10.4977 222.04 10.4977C219.637 10.4977 217.629 10.8671 216.027 11.6181C214.426 12.3692 213.206 13.3543 212.38 14.5979C211.555 15.8292 211.087 17.1836 210.988 18.6488H218.935C219.046 17.8977 219.366 17.3436 219.884 16.9866C220.401 16.6295 221.079 16.4448 221.917 16.4448C222.668 16.4448 223.272 16.6172 223.753 16.9496C224.233 17.2821 224.467 17.7623 224.467 18.3779V18.4641C224.467 18.9197 224.282 19.2891 223.913 19.5723C223.543 19.8554 222.952 20.0648 222.139 20.2125C221.325 20.3603 220.241 20.4834 218.886 20.5819C217.629 20.6681 216.471 20.8774 215.399 21.1976C214.327 21.5177 213.391 21.9856 212.577 22.5766C211.777 23.1676 211.148 23.9433 210.705 24.8791C210.261 25.8149 210.039 26.9477 210.039 28.2651C210.039 29.8658 210.372 31.171 211.037 32.2176C211.703 33.2518 212.627 34.0276 213.81 34.5324C214.992 35.0372 216.36 35.2958 217.9 35.2958C218.947 35.2958 219.908 35.1603 220.771 34.9018C221.633 34.6432 222.41 34.2369 223.087 33.6828C223.765 33.1287 224.356 32.4023 224.849 31.4911H225.022V34.9018H233.141V18.3779C233.141 17.2698 232.883 16.2355 232.377 15.2874C231.872 14.327 231.133 13.4897 230.16 12.7756V12.7879ZM224.553 26.369C224.553 27.1077 224.369 27.7234 223.999 28.2282C223.629 28.733 223.161 29.127 222.57 29.3979C221.991 29.6688 221.362 29.8042 220.709 29.8042C219.97 29.8042 219.379 29.6319 218.91 29.2748C218.442 28.9177 218.208 28.4129 218.208 27.7357C218.208 27.317 218.307 26.9354 218.516 26.6029C218.713 26.2705 219.034 25.9749 219.453 25.741C219.871 25.5071 220.426 25.3347 221.104 25.2362C221.449 25.1746 221.781 25.1254 222.089 25.0638C222.397 25.0022 222.705 24.9407 223.001 24.8668C223.297 24.7929 223.568 24.719 223.827 24.6328C224.085 24.5466 224.332 24.4605 224.566 24.3743V26.3566L224.553 26.369Z" fill="white"/>
<path d="M245.179 2.77747H236.505V34.914H245.179V2.77747Z" fill="white"/>
<path d="M118.716 47.39H132.614V40.3594H110.005V72.4836H118.716V61.4882H131.234V54.63H118.716V47.39Z" fill="white"/>
<path d="M153.252 51.3918C152.204 50.3205 150.935 49.4956 149.469 48.9292C147.991 48.3628 146.34 48.0796 144.516 48.0796C142.027 48.0796 139.871 48.5967 138.048 49.631C136.224 50.6653 134.807 52.1182 133.809 53.9774C132.811 55.8367 132.306 58.0161 132.306 60.5033C132.306 62.9905 132.799 65.3299 133.797 67.1891C134.795 69.0484 136.212 70.4644 138.084 71.4494C139.945 72.4344 142.163 72.9269 144.738 72.9269C146.968 72.9269 148.902 72.5945 150.553 71.9296C152.204 71.2647 153.523 70.3166 154.521 69.0853C155.519 67.854 156.159 66.4134 156.43 64.7389H148.533C148.36 65.1822 148.101 65.5638 147.756 65.884C147.412 66.2041 146.993 66.4381 146.512 66.6105C146.032 66.7705 145.489 66.8567 144.91 66.8567C144.085 66.8567 143.37 66.6597 142.754 66.278C142.138 65.884 141.658 65.3422 141.325 64.6404C141.029 64.0124 140.869 63.286 140.832 62.461H156.529V60.4786C156.529 58.5578 156.246 56.8217 155.691 55.3072C155.124 53.7804 154.324 52.4876 153.276 51.4164L153.252 51.3918ZM142.495 54.6916C143.062 54.3345 143.752 54.1621 144.59 54.1621C145.428 54.1621 146.118 54.3345 146.685 54.6916C147.251 55.0487 147.67 55.5535 147.954 56.2184C148.138 56.6493 148.262 57.1419 148.323 57.6959H140.857C140.918 57.1419 141.042 56.6493 141.226 56.2184C141.51 55.5535 141.941 55.0364 142.495 54.6916Z" fill="white"/>
<path d="M179.754 60.2447C178.534 59.1858 176.698 58.4347 174.247 58.0038L169.331 57.1419C168.419 56.9818 167.815 56.7479 167.507 56.4277C167.199 56.1076 167.039 55.7751 167.039 55.4181C167.039 54.9132 167.298 54.5315 167.815 54.2607C168.333 53.9898 168.961 53.8667 169.712 53.8667C170.563 53.8667 171.302 54.076 171.943 54.5069C172.583 54.9256 172.928 55.5043 172.99 56.243H180.937C180.838 53.6943 179.779 51.6996 177.77 50.259C175.762 48.8184 173.014 48.0919 169.54 48.0919C167.236 48.0919 165.252 48.3997 163.589 49.0031C161.926 49.6187 160.644 50.5052 159.745 51.6626C158.845 52.8324 158.402 54.2483 158.402 55.9352C158.402 57.8314 159.018 59.3705 160.238 60.5649C161.457 61.7469 163.293 62.5718 165.745 63.0151L170.02 63.7908C171.856 64.1233 172.78 64.7143 172.78 65.5639C172.78 66.0564 172.522 66.4381 172.004 66.709C171.487 66.9798 170.821 67.1153 170.02 67.1153C169.059 67.1153 168.246 66.906 167.606 66.4996C166.965 66.0933 166.571 65.5023 166.435 64.7389H157.847C158.094 67.2015 159.252 69.1839 161.334 70.686C163.416 72.1882 166.3 72.9393 169.971 72.9393C172.201 72.9393 174.185 72.5945 175.935 71.9173C177.684 71.2401 179.064 70.2674 180.062 69.0115C181.072 67.7556 181.578 66.2657 181.578 64.5419C181.578 62.8181 180.974 61.3406 179.754 60.2693V60.2447Z" fill="white"/>
<path d="M196.659 66.1548C196.301 66.2163 196.006 66.241 195.747 66.241C195.168 66.241 194.749 66.1179 194.49 65.8593C194.231 65.613 194.096 65.2313 194.096 64.7265V54.6792H198.236V48.3873H194.096V42.6495H185.422V48.3873H182.354V54.6792H185.422V65.5515C185.422 67.9525 186.112 69.7748 187.48 71.006C188.847 72.2373 190.892 72.8653 193.603 72.8653C194.379 72.8653 195.168 72.8037 195.981 72.6929C196.782 72.5821 197.681 72.3851 198.679 72.1142L197.423 65.9947C197.262 66.0563 197.004 66.1055 196.659 66.1671V66.1548Z" fill="white"/>
<path d="M220.081 40.3594H211.875L209.978 54.7162H215.596L220.081 40.3594Z" fill="#E929C6"/>
<path d="M224.837 72.533V66.2657L236.813 56.317C237.601 55.6521 238.279 55.0364 238.858 54.4454C239.437 53.8667 239.869 53.2634 240.189 52.6354C240.497 52.0198 240.657 51.3302 240.657 50.5545C240.657 49.7296 240.485 49.0277 240.127 48.449C239.77 47.8703 239.289 47.4147 238.686 47.0946C238.07 46.7745 237.367 46.6144 236.567 46.6144C235.766 46.6144 235.051 46.7745 234.447 47.1069C233.831 47.4271 233.363 47.9073 233.03 48.5229C232.698 49.1385 232.525 49.9019 232.525 50.8131H224.245C224.245 48.5475 224.751 46.6021 225.761 44.9768C226.771 43.3515 228.201 42.0956 230.061 41.2091C231.909 40.3225 234.078 39.8793 236.567 39.8793C239.055 39.8793 241.359 40.2856 243.245 41.1106C245.13 41.9355 246.584 43.0929 247.606 44.5828C248.629 46.0726 249.146 47.8211 249.146 49.8281C249.146 51.0717 248.888 52.2906 248.382 53.5096C247.877 54.7286 246.953 56.083 245.635 57.5605C244.316 59.0504 242.419 60.7988 239.967 62.8304L236.948 65.3423V65.5639H249.491V72.5207H224.837V72.533Z" fill="#E929C6"/>
<path d="M251.339 67.5093V60.7249L264.264 40.3225H270.388V49.3971H266.901L259.915 60.4664V60.7249H279V67.5093H251.339ZM266.938 72.533V65.4407L267.147 62.461V40.3225H275.291V72.533H266.925H266.938Z" fill="#E929C6"/>
<path d="M116.933 98.2966C115.196 98.2966 113.68 98.038 112.386 97.4963C111.093 96.9668 110.082 96.1542 109.368 95.046C108.653 93.9379 108.284 92.5219 108.284 90.8104H113.434C113.471 91.4384 113.619 91.9678 113.902 92.3988C114.173 92.8297 114.555 93.1622 115.06 93.3838C115.553 93.6054 116.157 93.7162 116.859 93.7162C117.438 93.7162 117.931 93.6424 118.325 93.4946C118.719 93.3468 119.015 93.1375 119.212 92.879C119.409 92.6204 119.52 92.3126 119.52 91.9801C119.52 91.6723 119.422 91.3891 119.237 91.1552C119.052 90.9212 118.732 90.7119 118.288 90.5149C117.845 90.3179 117.253 90.1455 116.514 89.9854L114.506 89.5422C112.744 89.1605 111.352 88.4956 110.341 87.5598C109.331 86.624 108.813 85.3558 108.813 83.7428C108.813 82.4377 109.158 81.2926 109.848 80.3075C110.538 79.3225 111.487 78.5591 112.707 78.0173C113.914 77.4756 115.319 77.1924 116.908 77.1924C118.498 77.1924 119.927 77.4756 121.11 78.0296C122.293 78.5837 123.192 79.3718 123.833 80.3814C124.473 81.3911 124.794 82.5608 124.806 83.9152H119.594C119.545 83.238 119.311 82.7209 118.88 82.3515C118.448 81.9821 117.795 81.7974 116.908 81.7974C116.354 81.7974 115.898 81.8589 115.541 81.9944C115.183 82.1298 114.912 82.3145 114.752 82.5485C114.58 82.7824 114.493 83.0656 114.493 83.3611C114.493 83.6813 114.58 83.9645 114.764 84.2107C114.949 84.457 115.245 84.6663 115.639 84.851C116.034 85.0357 116.551 85.1834 117.179 85.3312L118.818 85.6882C119.915 85.9222 120.863 86.2423 121.652 86.6363C122.44 87.0304 123.093 87.4982 123.599 88.0277C124.104 88.5572 124.473 89.1482 124.708 89.8131C124.942 90.478 125.065 91.2044 125.065 91.9801C125.065 93.3345 124.744 94.4796 124.091 95.4277C123.438 96.3758 122.514 97.09 121.307 97.5702C120.099 98.0627 118.646 98.2966 116.958 98.2966H116.933Z" fill="#FFC228"/>
<path d="M133.751 98.3212C132.149 98.3212 130.769 98.001 129.611 97.3731C128.453 96.7451 127.566 95.834 126.95 94.6396C126.334 93.4576 126.026 92.0293 126.026 90.3548C126.026 88.6802 126.334 87.3627 126.962 86.1807C127.578 84.9863 128.465 84.0629 129.599 83.398C130.732 82.7331 132.075 82.4006 133.628 82.4006C134.761 82.4006 135.796 82.5853 136.708 82.9424C137.62 83.3118 138.408 83.8289 139.061 84.5184C139.714 85.208 140.22 86.0329 140.565 87.018C140.91 87.9907 141.094 89.0988 141.094 90.3301V91.5983H127.689V88.5571H138.569L136.043 89.1973C136.043 88.5694 135.957 88.0399 135.772 87.6213C135.587 87.1903 135.328 86.8702 134.983 86.6363C134.638 86.4146 134.195 86.3038 133.677 86.3038C133.16 86.3038 132.728 86.4146 132.371 86.6363C132.026 86.8579 131.755 87.1903 131.583 87.6213C131.398 88.0522 131.312 88.5817 131.312 89.1973V91.4137C131.312 92.017 131.422 92.5464 131.632 93.002C131.841 93.4576 132.137 93.8024 132.519 94.0486C132.901 94.2949 133.357 94.418 133.862 94.418C134.232 94.418 134.564 94.3687 134.86 94.2579C135.156 94.1471 135.414 93.9993 135.636 93.79C135.846 93.593 136.018 93.3468 136.117 93.0636H141.033C140.86 94.1348 140.466 95.0583 139.85 95.8463C139.222 96.6343 138.408 97.2376 137.373 97.6686C136.351 98.0995 135.143 98.3088 133.751 98.3088V98.3212Z" fill="#FFC228"/>
<path d="M149.805 98.3211C148.179 98.3211 146.787 97.9886 145.629 97.3237C144.47 96.6588 143.583 95.7231 142.967 94.5287C142.351 93.3344 142.043 91.943 142.043 90.367C142.043 88.7909 142.351 87.3996 142.967 86.2052C143.583 85.0109 144.47 84.0874 145.629 83.4102C146.787 82.7453 148.179 82.4128 149.805 82.4128C151.432 82.4128 152.824 82.7453 153.982 83.4102C155.141 84.0751 156.028 85.0109 156.644 86.2052C157.26 87.3996 157.568 88.7909 157.568 90.367C157.568 91.943 157.26 93.3344 156.644 94.5287C156.028 95.7231 155.141 96.6465 153.982 97.3237C152.824 97.9886 151.432 98.3211 149.805 98.3211ZM149.83 94.184C150.298 94.184 150.693 94.0362 151.025 93.7284C151.358 93.4205 151.617 92.9896 151.789 92.4109C151.974 91.8322 152.06 91.1427 152.06 90.3423C152.06 89.542 151.974 88.8402 151.789 88.2861C151.604 87.7197 151.358 87.3011 151.025 87.0056C150.693 86.71 150.298 86.5623 149.83 86.5623C149.362 86.5623 148.943 86.71 148.598 87.0056C148.253 87.3011 147.994 87.732 147.809 88.2861C147.625 88.8525 147.538 89.5297 147.538 90.3423C147.538 91.155 147.625 91.8322 147.809 92.4109C147.994 92.9896 148.253 93.4205 148.598 93.7284C148.943 94.0362 149.35 94.184 149.83 94.184Z" fill="#FFC228"/>
<path d="M168.854 91.3152V82.61H174.25V98.0503H169.125V95.1199H168.965C168.644 96.0926 168.078 96.8683 167.264 97.4224C166.451 97.9764 165.49 98.2473 164.369 98.2473C163.322 98.2473 162.398 98.0011 161.621 97.5086C160.833 97.016 160.217 96.3388 159.785 95.4646C159.354 94.5904 159.132 93.5931 159.132 92.4726V82.61H164.529V91.3152C164.529 92.0663 164.714 92.6696 165.096 93.1005C165.478 93.5315 165.995 93.7531 166.685 93.7408C167.129 93.7408 167.523 93.6423 167.843 93.4453C168.164 93.2483 168.41 92.9774 168.595 92.608C168.78 92.2386 168.866 91.8077 168.866 91.3029L168.854 91.3152Z" fill="#FFC228"/>
<path d="M181.742 77.4631V98.0502H176.345V77.4631H181.742Z" fill="#FFC228"/>
</svg>
