<?xml version="1.0" standalone="no"?>
<!DOCTYPE svg PUBLIC "-//W3C//DTD SVG 1.1//EN" "http://www.w3.org/Graphics/SVG/1.1/DTD/svg11.dtd" >
<svg xmlns="http://www.w3.org/2000/svg" xmlns:xlink="http://www.w3.org/1999/xlink" version="1.1">
<metadata>
Created by FontForge 20190801 at Wed Feb 26 16:50:38 2014
 By Jimmy Wärting
Copyright (c) 2013 by Gayane Bagdasaryan, Dmitry Rastvortsev. All rights reserved.
</metadata>
<defs>
<font id="BrutalType-Thin" horiz-adv-x="522" >
  <font-face 
    font-family="Brutal Type"
    font-weight="250"
    font-stretch="normal"
    units-per-em="1000"
    panose-1="2 0 5 6 4 0 0 2 0 4"
    ascent="804"
    descent="-196"
    x-height="500"
    cap-height="700"
    bbox="-42 -235 1024 944"
    underline-thickness="50"
    underline-position="-100"
    stemh="10"
    stemv="10"
    unicode-range="U+0020-FB02"
  />
<missing-glyph horiz-adv-x="339" 
 />
    <glyph glyph-name="fi" unicode="fi" horiz-adv-x="499" 
d="M119 0v490h-94v10h94v73c0 88 46 134 128 134c16 0 32 -2 32 -2v-10s-16 2 -32 2c-74 0 -118 -42 -118 -124v-73h280v-500h-10v490h-270v-490h-10zM399 595v110h10v-110h-10z" />
    <glyph glyph-name="fl" unicode="fl" horiz-adv-x="499" 
d="M119 0v490h-94v10h94v73c0 88 46 134 128 134c16 0 32 -2 32 -2v-10s-16 2 -32 2c-74 0 -118 -42 -118 -124v-73h150v-10h-150v-490h-10zM399 0v705h10v-705h-10z" />
    <glyph glyph-name=".notdef" horiz-adv-x="339" 
 />
    <glyph glyph-name="space" unicode=" " horiz-adv-x="271" 
 />
    <glyph glyph-name="exclam" unicode="!" horiz-adv-x="230" 
d="M110 0v123h10v-123h-10zM110 220v480h10v-480h-10z" />
    <glyph glyph-name="quotedbl" unicode="&#x22;" horiz-adv-x="274" 
d="M50 500v205h10v-205h-10zM214 500v205h10v-205h-10z" />
    <glyph glyph-name="numbersign" unicode="#" horiz-adv-x="584" 
d="M108 0v5l39 208h-127v10h129l48 254h-137v10h139l40 213h9v-5l-39 -208h216l40 213h9v-5l-39 -208h129v-10h-131l-48 -254h139v-10h-141l-40 -213h-9v5l39 208h-216l-40 -213h-9zM159 223h216l48 254h-216z" />
    <glyph glyph-name="dollar" unicode="$" horiz-adv-x="611" 
d="M55 227h10c0 -167 132 -232 254 -232c142 0 212 73 212 165c0 82 -50 126 -156 166l-126 48c-125 47 -168 82 -168 173c0 97 79 168 217 168h4v95h10v-95c125 -5 226 -75 226 -236h-10c0 166 -112 226 -230 226c-130 0 -207 -67 -207 -158c0 -81 40 -117 137 -153
l124 -47c118 -44 189 -85 189 -187c0 -97 -71 -175 -222 -175h-7v-95h-10v96c-124 6 -247 74 -247 241z" />
    <glyph glyph-name="percent" unicode="%" horiz-adv-x="741" 
d="M189 358c88 0 130 55 130 123v100c0 70 -42 124 -130 124c-83 0 -129 -52 -129 -124v-100c0 -71 46 -123 129 -123zM189 348c-92 0 -139 58 -139 134v99c0 76 47 134 139 134c94 0 140 -58 140 -134v-99c0 -76 -46 -134 -140 -134zM172 0v5l385 695h9v-5l-385 -695h-9z
M551 -5c88 0 130 55 130 123v100c0 70 -42 124 -130 124c-83 0 -129 -52 -129 -124v-100c0 -71 46 -123 129 -123zM551 -15c-92 0 -139 58 -139 134v99c0 76 47 134 139 134c94 0 140 -58 140 -134v-99c0 -76 -46 -134 -140 -134z" />
    <glyph glyph-name="ampersand" unicode="&#x26;" horiz-adv-x="580" 
d="M558 5v-5h-9l-86 97c-49 -69 -125 -112 -220 -112c-125 0 -209 79 -209 192c0 85 49 137 119 194l40 33l-27 31c-45 50 -73 84 -73 143c0 77 55 129 128 129c74 0 128 -53 128 -127c0 -51 -33 -90 -73 -122l-69 -56l255 -289c34 53 52 120 52 195h10
c0 -78 -20 -148 -55 -202zM242 -5c93 0 167 42 214 110l-256 292l-41 -33c-68 -55 -115 -106 -115 -187c0 -109 84 -182 198 -182zM103 578c0 -45 13 -73 69 -136l29 -33l62 51c45 37 76 72 76 119c0 67 -48 118 -118 118c-67 0 -118 -48 -118 -119z" />
    <glyph glyph-name="quotesingle" unicode="'" horiz-adv-x="110" 
d="M50 500v205h10v-205h-10z" />
    <glyph glyph-name="parenleft" unicode="(" horiz-adv-x="286" 
d="M266 -160c-100 0 -166 52 -166 152v596c0 100 66 152 166 152v-10c-94 0 -156 -49 -156 -143v-594c0 -94 62 -143 156 -143v-10z" />
    <glyph glyph-name="parenright" unicode=")" horiz-adv-x="286" 
d="M20 -160v10c94 0 156 49 156 143v594c0 94 -62 143 -156 143v10c100 0 166 -52 166 -152v-596c0 -100 -66 -152 -166 -152z" />
    <glyph glyph-name="asterisk" unicode="*" horiz-adv-x="388" 
d="M189 333v177l-154 -89l-5 9l154 89l-154 89l5 8l154 -88v177h10v-177l154 89l5 -9l-154 -89l154 -89l-5 -8l-154 88v-177h-10z" />
    <glyph glyph-name="plus" unicode="+" horiz-adv-x="498" 
d="M244 114v194h-194v10h194v194h10v-194h194v-10h-194v-194h-10z" />
    <glyph glyph-name="comma" unicode="," horiz-adv-x="169" 
d="M25 -82v5l85 200h9v-5l-85 -200h-9z" />
    <glyph glyph-name="hyphen" unicode="-" horiz-adv-x="430" 
d="M70 308v10h290v-10h-290z" />
    <glyph glyph-name="period" unicode="." horiz-adv-x="170" 
d="M80 0v123h10v-123h-10z" />
    <glyph glyph-name="slash" unicode="/" horiz-adv-x="447" 
d="M50 -100v5l338 835h9v-5l-338 -835h-9z" />
    <glyph glyph-name="zero" unicode="0" horiz-adv-x="586" 
d="M293 -5c124 0 203 73 203 198v315c0 125 -79 198 -203 198s-203 -73 -203 -198v-315c0 -125 79 -198 203 -198zM293 -15c-130 0 -213 76 -213 208v314c0 132 83 208 213 208c129 0 213 -76 213 -208v-314c0 -132 -84 -208 -213 -208z" />
    <glyph glyph-name="one" unicode="1" horiz-adv-x="230" 
d="M120 0v690h-94v5l4 5h100v-700h-10z" />
    <glyph glyph-name="two" unicode="2" horiz-adv-x="558" 
d="M70 0v10l212 217c61 62 170 166 170 286c0 123 -79 192 -187 192s-195 -69 -195 -202h-10c0 138 91 212 205 212s197 -73 197 -202c0 -127 -115 -234 -173 -293l-205 -210h402v-10h-416z" />
    <glyph glyph-name="three" unicode="3" horiz-adv-x="557" 
d="M281 -15c-129 0 -217 76 -221 199h10c4 -117 87 -189 211 -189c122 0 196 72 196 196c0 99 -67 172 -173 172h-71v10h74c95 0 154 65 154 159c0 92 -66 174 -184 174c-114 0 -193 -72 -193 -203h-10c0 135 83 212 203 212c124 0 194 -85 194 -183
c0 -95 -57 -151 -126 -164c79 -15 142 -76 142 -177c0 -130 -76 -206 -206 -206z" />
    <glyph glyph-name="four" unicode="4" horiz-adv-x="533" 
d="M390 0v183h-350v10l306 507h9v-5l-302 -502h337v218h10v-218h103v-10h-103v-183h-10z" />
    <glyph glyph-name="five" unicode="5" horiz-adv-x="567" 
d="M288 -15c-116 0 -198 68 -215 188h11c17 -113 95 -178 204 -178c129 0 199 91 199 219c0 147 -79 216 -196 216c-70 0 -131 -33 -167 -76h-9l28 346h313v-10h-304l-26 -319c37 41 99 69 164 69c124 0 207 -73 207 -226c0 -132 -73 -229 -209 -229z" />
    <glyph glyph-name="six" unicode="6" horiz-adv-x="560" 
d="M285 -15c-142 0 -215 87 -215 216c0 77 25 123 66 188l195 311h9v-5l-212 -337c36 38 91 60 161 60c141 0 211 -88 211 -217s-74 -216 -215 -216zM285 -5c135 0 205 84 205 206c0 121 -64 207 -201 207c-114 0 -209 -69 -209 -207c0 -122 70 -206 205 -206z" />
    <glyph glyph-name="seven" unicode="7" horiz-adv-x="523" 
d="M200 0v5l261 685h-391v-175h-10v185h413v-10l-265 -690h-8z" />
    <glyph glyph-name="eight" unicode="8" horiz-adv-x="594" 
d="M297 -15c-150 0 -227 79 -227 199c0 112 77 168 157 183c-65 12 -132 64 -132 164c0 106 71 184 202 184s202 -78 202 -184c0 -100 -67 -152 -132 -164c79 -15 157 -71 157 -183c0 -120 -77 -199 -227 -199zM296 -5c151 0 218 81 218 189c0 87 -55 178 -205 178h-24
c-149 0 -205 -91 -205 -178c0 -108 67 -189 216 -189zM285 372h24c130 0 180 73 180 164c0 95 -67 169 -192 169c-124 0 -192 -74 -192 -169c0 -91 50 -164 180 -164z" />
    <glyph glyph-name="nine" unicode="9" horiz-adv-x="560" 
d="M220 0v5l212 337c-36 -38 -91 -60 -161 -60c-141 0 -211 88 -211 217s74 216 215 216c142 0 215 -87 215 -216c0 -77 -25 -123 -66 -188l-195 -311h-9zM275 705c-135 0 -205 -84 -205 -206c0 -121 64 -207 201 -207c114 0 209 69 209 207c0 122 -70 206 -205 206z" />
    <glyph glyph-name="colon" unicode=":" horiz-adv-x="170" 
d="M80 0v123h10v-123h-10zM80 377v123h10v-123h-10z" />
    <glyph glyph-name="semicolon" unicode=";" horiz-adv-x="179" 
d="M25 -82v5l85 200h9v-5l-85 -200h-9zM84 377v123h10v-123h-10z" />
    <glyph glyph-name="less" unicode="&#x3c;" horiz-adv-x="460" 
d="M400 114l-350 194v10l350 194h10v-5l-349 -194l349 -194v-5h-10z" />
    <glyph glyph-name="equal" unicode="=" horiz-adv-x="496" 
d="M50 200v10h396v-10h-396zM50 417v10h396v-10h-396z" />
    <glyph glyph-name="greater" unicode="&#x3e;" horiz-adv-x="460" 
d="M50 114v5l348 194l-348 194v5h10l350 -194v-10l-350 -194h-10z" />
    <glyph glyph-name="question" unicode="?" horiz-adv-x="497" 
d="M243 220v96l61 40c63 41 133 89 133 182c0 86 -60 167 -188 167c-112 0 -199 -70 -199 -202h-10c0 138 91 212 210 212c133 0 197 -86 197 -177c0 -106 -91 -159 -136 -189l-58 -38v-91h-10zM243 0v123h10v-123h-10z" />
    <glyph glyph-name="at" unicode="@" horiz-adv-x="1016" 
d="M517 -151c-258 0 -437 179 -437 433c0 259 179 433 437 433c234 0 419 -153 419 -395c0 -158 -69 -262 -161 -262c-44 0 -87 29 -87 98v8c-46 -51 -117 -106 -204 -106c-116 0 -174 81 -174 186v74c0 105 58 186 174 186c87 0 158 -55 204 -106v94h10v-329
c0 -72 38 -95 77 -95c84 0 151 99 151 252c0 236 -181 385 -409 385c-252 0 -427 -170 -427 -423c0 -248 175 -423 427 -423h25v-10h-25zM484 68c85 0 154 55 204 110v206c-50 55 -119 110 -204 110c-109 0 -164 -77 -164 -176v-74c0 -99 55 -176 164 -176z" />
    <glyph glyph-name="A" unicode="A" horiz-adv-x="650" 
d="M30 0v5l289 695h12l289 -695v-5h-9l-91 218h-391l-90 -218h-9zM133 228h383l-191 461z" />
    <glyph glyph-name="B" unicode="B" horiz-adv-x="638" 
d="M100 0v700h290c104 0 163 -66 163 -171c0 -99 -52 -150 -110 -164c74 -11 135 -69 135 -182c0 -111 -62 -183 -166 -183h-312zM110 10h299c100 0 159 68 159 174c0 107 -59 174 -159 174h-299v-348zM110 368h286c92 0 147 63 147 161c0 99 -54 161 -153 161h-280v-322z
" />
    <glyph glyph-name="C" unicode="C" horiz-adv-x="656" 
d="M339 -15c-158 0 -259 93 -259 252v226c0 159 101 252 259 252c131 0 247 -80 247 -227v-10h-10v10c0 141 -111 217 -237 217c-152 0 -249 -89 -249 -242v-226c0 -153 97 -242 249 -242c126 0 237 76 237 217v10h10v-10c0 -147 -116 -227 -247 -227z" />
    <glyph glyph-name="D" unicode="D" horiz-adv-x="665" 
d="M110 10h221c149 0 244 88 244 238v204c0 150 -95 238 -244 238h-221v-680zM100 0v700h231c154 0 254 -91 254 -248v-204c0 -157 -100 -248 -254 -248h-231z" />
    <glyph glyph-name="E" unicode="E" horiz-adv-x="568" 
d="M100 0v700h408v-10h-398v-332h350v-10h-350v-338h398v-10h-408z" />
    <glyph glyph-name="F" unicode="F" horiz-adv-x="558" 
d="M100 0v700h408v-10h-398v-332h350v-10h-350v-348h-10z" />
    <glyph glyph-name="G" unicode="G" horiz-adv-x="687" 
d="M345 -15c-162 0 -265 93 -265 252v226c0 159 103 252 265 252c133 0 252 -80 252 -227v-10h-10v10c0 141 -114 217 -242 217c-156 0 -255 -89 -255 -242v-226c0 -153 99 -242 255 -242c118 0 194 49 242 167v156h-211v10h221v-328h-10v138c-39 -96 -116 -153 -242 -153z
" />
    <glyph glyph-name="H" unicode="H" horiz-adv-x="680" 
d="M100 0v700h10v-344h460v344h10v-700h-10v346h-460v-346h-10z" />
    <glyph glyph-name="I" unicode="I" horiz-adv-x="210" 
d="M100 0v700h10v-700h-10z" />
    <glyph glyph-name="J" unicode="J" horiz-adv-x="555" 
d="M247 -15c-132 0 -217 78 -217 212v25h10v-25c0 -127 81 -202 207 -202c127 0 208 75 208 202v503h10v-503c0 -134 -86 -212 -218 -212z" />
    <glyph glyph-name="K" unicode="K" horiz-adv-x="577" 
d="M100 0v700h10v-344h166l251 344h9v-5l-251 -344l262 -346v-5h-9l-261 346h-167v-346h-10z" />
    <glyph glyph-name="L" unicode="L" horiz-adv-x="550" 
d="M100 0v700h10v-690h410v-10h-420z" />
    <glyph glyph-name="M" unicode="M" horiz-adv-x="788" 
d="M100 0v700h10l284 -420l284 420h10v-700h-10v681l-280 -414h-8l-280 414v-681h-10z" />
    <glyph glyph-name="N" unicode="N" horiz-adv-x="680" 
d="M100 0v700h10l460 -682v682h10v-700h-9l-461 681v-681h-10z" />
    <glyph glyph-name="O" unicode="O" horiz-adv-x="668" 
d="M334 -5c149 0 244 88 244 238v234c0 150 -95 238 -244 238s-244 -88 -244 -238v-234c0 -150 95 -238 244 -238zM334 -15c-155 0 -254 91 -254 248v234c0 157 99 248 254 248c154 0 254 -91 254 -248v-234c0 -157 -100 -248 -254 -248z" />
    <glyph glyph-name="P" unicode="P" horiz-adv-x="608" 
d="M100 0v700h270c115 0 183 -78 183 -200s-68 -200 -183 -200h-260v-300h-10zM110 310h260c109 0 173 74 173 190s-64 190 -173 190h-260v-380z" />
    <glyph glyph-name="Q" unicode="Q" horiz-adv-x="673" 
d="M584 -119l-101 141c-41 -24 -91 -37 -149 -37c-155 0 -254 91 -254 248v234c0 157 99 248 254 248c154 0 254 -91 254 -248v-234c0 -94 -36 -164 -97 -205l102 -142v-5h-9zM334 -5c149 0 244 88 244 238v234c0 150 -95 238 -244 238s-244 -88 -244 -238v-234
c0 -150 95 -238 244 -238z" />
    <glyph glyph-name="R" unicode="R" horiz-adv-x="630" 
d="M100 0v700h279c115 0 183 -78 183 -200s-66 -191 -164 -200l180 -295v-5h-9l-183 300h-276v-300h-10zM110 310h269c109 0 173 74 173 190s-64 190 -173 190h-269v-380z" />
    <glyph glyph-name="S" unicode="S" horiz-adv-x="611" 
d="M319 -15c-129 0 -264 68 -264 242h10c0 -167 132 -232 254 -232c142 0 212 73 212 165c0 82 -50 126 -156 166l-126 48c-125 47 -168 82 -168 173c0 97 79 168 217 168c132 0 240 -69 240 -236h-10c0 166 -112 226 -230 226c-130 0 -207 -67 -207 -158
c0 -81 40 -117 137 -153l124 -47c118 -44 189 -85 189 -187c0 -97 -71 -175 -222 -175z" />
    <glyph glyph-name="T" unicode="T" horiz-adv-x="540" 
d="M265 0v690h-235v10h480v-10h-235v-690h-10z" />
    <glyph glyph-name="U" unicode="U" horiz-adv-x="660" 
d="M330 -15c-146 0 -240 93 -240 252v463h10v-463c0 -153 90 -242 230 -242s230 89 230 242v463h10v-463c0 -159 -94 -252 -240 -252z" />
    <glyph glyph-name="V" unicode="V" horiz-adv-x="650" 
d="M319 0l-289 695v5h9l286 -689l286 689h9v-5l-289 -695h-12z" />
    <glyph glyph-name="W" unicode="W" horiz-adv-x="782" 
d="M184 0l-134 695v5h9l132 -685l196 445h8l196 -445l132 685h9v-5l-134 -695h-11l-196 446l-196 -446h-11z" />
    <glyph glyph-name="X" unicode="X" horiz-adv-x="586" 
d="M40 0v5l246 347l-246 343v5h9l244 -341l244 341h9v-5l-246 -344l246 -346v-5h-9l-244 344l-244 -344h-9z" />
    <glyph glyph-name="Y" unicode="Y" horiz-adv-x="596" 
d="M293 0v278l-273 417v5h9l269 -411l269 411h9v-5l-273 -417v-278h-10z" />
    <glyph glyph-name="Z" unicode="Z" horiz-adv-x="558" 
d="M50 0v10l437 680h-424v10h436v-10l-437 -680h446v-10h-458z" />
    <glyph glyph-name="bracketleft" unicode="[" horiz-adv-x="295" 
d="M100 -160v900h195v-10h-185v-880h185v-10h-195z" />
    <glyph glyph-name="backslash" unicode="\" horiz-adv-x="447" 
d="M397 -95v-5h-9l-338 835v5h9z" />
    <glyph glyph-name="bracketright" unicode="]" horiz-adv-x="295" 
d="M0 -160v10h185v880h-185v10h195v-900h-195z" />
    <glyph glyph-name="asciicircum" unicode="^" horiz-adv-x="464" 
d="M50 387v5l176 313h12l176 -313v-5h-9l-173 310l-173 -310h-9z" />
    <glyph glyph-name="underscore" unicode="_" horiz-adv-x="501" 
d="M-1 -89v10h503v-10h-503z" />
    <glyph glyph-name="grave" unicode="`" horiz-adv-x="276" 
d="M193 590l-123 135v5h9l127 -140h-13z" />
    <glyph glyph-name="a" unicode="a" 
d="M216 -12c-86 0 -161 42 -161 140c0 100 75 151 208 151h164v79c0 81 -53 144 -167 144c-106 0 -166 -61 -166 -144h-10c0 87 59 154 176 154c120 0 177 -67 177 -154v-358h-10v83c-35 -32 -117 -95 -211 -95zM216 -2c94 0 176 67 211 99v172h-164
c-126 0 -198 -47 -198 -141s74 -130 151 -130z" />
    <glyph glyph-name="b" unicode="b" horiz-adv-x="553" 
d="M304 -12c-87 0 -158 55 -204 106v-94h-10v705h10v-299c46 51 117 106 204 106c116 0 174 -81 174 -186v-152c0 -105 -58 -186 -174 -186zM304 -2c109 0 164 77 164 176v152c0 99 -55 176 -164 176c-85 0 -154 -55 -204 -110v-284c50 -55 119 -110 204 -110z" />
    <glyph glyph-name="c" unicode="c" horiz-adv-x="518" 
d="M261 -12c-129 0 -194 81 -194 186v152c0 105 65 186 194 186c123 0 194 -72 194 -167v-4h-10v4c0 89 -67 157 -184 157c-118 0 -184 -74 -184 -176v-152c0 -102 66 -176 184 -176s184 69 184 159v5h10v-5c0 -96 -70 -169 -194 -169z" />
    <glyph glyph-name="d" unicode="d" horiz-adv-x="553" 
d="M249 -12c-116 0 -174 81 -174 186v152c0 105 58 186 174 186c87 0 158 -55 204 -106v299h10v-705h-10v94c-46 -51 -117 -106 -204 -106zM249 -2c85 0 154 55 204 110v284c-50 55 -119 110 -204 110c-109 0 -164 -77 -164 -176v-152c0 -99 55 -176 164 -176z" />
    <glyph glyph-name="e" unicode="e" 
d="M261 -12c-129 0 -194 81 -194 186v152c0 105 65 186 194 186c131 0 194 -81 194 -186v-76h-378v-76c0 -102 66 -176 184 -176c114 0 170 63 179 148h10c-8 -92 -70 -158 -189 -158zM77 260h368v66c0 99 -59 176 -184 176c-118 0 -184 -74 -184 -176v-66z" />
    <glyph glyph-name="f" unicode="f" horiz-adv-x="309" 
d="M119 0v490h-94v10h94v73c0 88 46 134 128 134c16 0 32 -2 32 -2v-10s-16 2 -32 2c-74 0 -118 -42 -118 -124v-73h150v-10h-150v-490h-10z" />
    <glyph glyph-name="g" unicode="g" horiz-adv-x="553" 
d="M275 -172c-110 0 -185 59 -189 158h10c4 -90 75 -148 179 -148c108 0 178 60 178 185v117c-46 -51 -117 -106 -204 -106c-116 0 -174 81 -174 186v106c0 105 58 186 174 186c87 0 158 -55 204 -106v94h10v-477c0 -132 -74 -195 -188 -195zM249 44c85 0 154 55 204 110
v238c-50 55 -119 110 -204 110c-109 0 -164 -77 -164 -176v-106c0 -99 55 -176 164 -176z" />
    <glyph glyph-name="h" unicode="h" horiz-adv-x="559" 
d="M90 0v705h10v-299c48 54 120 106 204 106c94 0 170 -60 170 -184v-328h-10v324c0 123 -72 178 -160 178c-79 0 -151 -48 -204 -111v-391h-10z" />
    <glyph glyph-name="i" unicode="i" horiz-adv-x="190" 
d="M90 0v500h10v-500h-10zM90 595v110h10v-110h-10z" />
    <glyph glyph-name="j" unicode="j" horiz-adv-x="190" 
d="M90 500h10v-553c0 -78 -41 -119 -114 -119c-14 0 -28 2 -28 2v10s14 -2 28 -2c65 0 104 37 104 109v553zM90 595v110h10v-110h-10z" />
    <glyph glyph-name="k" unicode="k" horiz-adv-x="491" 
d="M90 0v705h10v-445h132l190 240h9v-5l-189 -239l199 -251v-5h-9l-197 250h-135v-250h-10z" />
    <glyph glyph-name="l" unicode="l" horiz-adv-x="190" 
d="M90 0v705h10v-705h-10z" />
    <glyph glyph-name="m" unicode="m" horiz-adv-x="887" 
d="M90 0v500h10v-94c46 54 113 106 191 106c70 0 130 -38 151 -116c49 60 118 116 200 116c95 0 160 -60 160 -184v-328h-10v324c0 123 -62 178 -150 178c-74 0 -142 -49 -197 -118c4 -17 6 -36 6 -56v-328h-10v324c0 123 -67 178 -150 178c-73 0 -140 -48 -191 -111v-391
h-10z" />
    <glyph glyph-name="n" unicode="n" horiz-adv-x="559" 
d="M90 0v500h10v-94c48 54 120 106 204 106c94 0 170 -60 170 -184v-328h-10v324c0 123 -72 178 -160 178c-79 0 -151 -48 -204 -111v-391h-10z" />
    <glyph glyph-name="o" unicode="o" 
d="M261 -2c125 0 184 77 184 176v152c0 99 -59 176 -184 176c-118 0 -184 -74 -184 -176v-152c0 -102 66 -176 184 -176zM261 -12c-129 0 -194 81 -194 186v152c0 105 65 186 194 186c131 0 194 -81 194 -186v-152c0 -105 -63 -186 -194 -186z" />
    <glyph glyph-name="p" unicode="p" horiz-adv-x="553" 
d="M90 -160v660h10v-94c46 51 117 106 204 106c116 0 174 -81 174 -186v-152c0 -105 -58 -186 -174 -186c-87 0 -158 55 -204 106v-254h-10zM304 -2c109 0 164 77 164 176v152c0 99 -55 176 -164 176c-85 0 -154 -55 -204 -110v-284c50 -55 119 -110 204 -110z" />
    <glyph glyph-name="q" unicode="q" horiz-adv-x="553" 
d="M453 -160v254c-46 -51 -117 -106 -204 -106c-116 0 -174 81 -174 186v152c0 105 58 186 174 186c87 0 158 -55 204 -106v94h10v-660h-10zM249 -2c85 0 154 55 204 110v284c-50 55 -119 110 -204 110c-109 0 -164 -77 -164 -176v-152c0 -99 55 -176 164 -176z" />
    <glyph glyph-name="r" unicode="r" horiz-adv-x="362" 
d="M90 0v500h10v-94c51 54 128 104 217 104h5v-10h-5c-87 0 -160 -45 -217 -108v-392h-10z" />
    <glyph glyph-name="s" unicode="s" horiz-adv-x="523" 
d="M269 -12c-102 0 -209 46 -209 175h10c0 -123 107 -165 199 -165c113 0 174 54 174 125c0 67 -43 92 -134 116l-102 27c-91 24 -124 54 -124 121c0 70 63 125 177 125c106 0 189 -51 189 -170h-10c0 112 -77 160 -179 160c-108 0 -167 -49 -167 -115
c0 -60 29 -88 115 -111l102 -27c95 -26 143 -51 143 -126c0 -77 -62 -135 -184 -135z" />
    <glyph glyph-name="t" unicode="t" horiz-adv-x="339" 
d="M249 0c-93 0 -125 65 -125 122v368h-94v10h94v104h10v-104h150v-10h-150v-368c0 -70 42 -112 114 -112h36v-10h-35z" />
    <glyph glyph-name="u" unicode="u" horiz-adv-x="559" 
d="M255 -12c-94 0 -170 60 -170 184v328h10v-324c0 -123 72 -178 160 -178c79 0 151 48 204 111v391h10v-500h-10v94c-48 -54 -120 -106 -204 -106z" />
    <glyph glyph-name="v" unicode="v" horiz-adv-x="490" 
d="M239 0l-209 495v5h9l206 -489l206 489h9v-5l-209 -495h-12z" />
    <glyph glyph-name="w" unicode="w" horiz-adv-x="686" 
d="M186 0l-131 495v5h9l129 -489l143 384h14l143 -384l129 489h9v-5l-131 -495h-13l-144 385l-144 -385h-13z" />
    <glyph glyph-name="x" unicode="x" horiz-adv-x="500" 
d="M50 0v5l194 245l-193 245v5h9l190 -241l190 241h9v-5l-193 -245l194 -245v-5h-9l-191 242l-191 -242h-9z" />
    <glyph glyph-name="y" unicode="y" horiz-adv-x="490" 
d="M175 -160v5l65 155l-210 495v5h9l206 -489l206 489h9v-5l-276 -655h-9z" />
    <glyph glyph-name="z" unicode="z" horiz-adv-x="501" 
d="M60 0v10l362 480h-344v10h357v-10l-362 -480h363v-10h-376z" />
    <glyph glyph-name="braceleft" unicode="{" horiz-adv-x="300" 
d="M300 -160c-100 0 -166 52 -166 152v220c0 55 -21 79 -65 79h-29v10h29c47 0 65 28 65 79v208c0 100 66 152 166 152v-10c-94 0 -156 -49 -156 -143v-207c0 -48 -14 -76 -48 -84c34 -8 48 -36 48 -84v-219c0 -94 62 -143 156 -143v-10z" />
    <glyph glyph-name="bar" unicode="|" horiz-adv-x="210" 
d="M100 -100v840h10v-840h-10z" />
    <glyph glyph-name="braceright" unicode="}" horiz-adv-x="300" 
d="M0 -160v10c94 0 156 49 156 143v219c0 48 14 76 48 84c-34 8 -48 36 -48 84v207c0 94 -62 143 -156 143v10c100 0 166 -52 166 -152v-208c0 -51 18 -79 65 -79h29v-10h-29c-44 0 -65 -24 -65 -79v-220c0 -100 -66 -152 -166 -152z" />
    <glyph glyph-name="asciitilde" unicode="~" horiz-adv-x="451" 
d="M58 276l-8 6c38 60 67 77 99 77c24 0 44 -12 69 -30l22 -16c24 -18 43 -27 63 -27c29 0 55 17 90 73l8 -6c-37 -60 -67 -77 -99 -77c-24 0 -45 13 -69 30l-22 16c-25 18 -43 27 -63 27c-29 0 -55 -17 -90 -73z" />
    <glyph glyph-name="nbspace" unicode="&#xa0;" horiz-adv-x="271" 
 />
    <glyph glyph-name="exclamdown" unicode="&#xa1;" horiz-adv-x="170" 
d="M80 -160v440h10v-440h-10zM80 377v123h10v-123h-10z" />
    <glyph glyph-name="cent" unicode="&#xa2;" horiz-adv-x="518" 
d="M255 0v82c-125 2 -188 82 -188 186v152c0 103 63 183 188 186v94h10v-94c120 -2 190 -73 190 -167v-4h-10v4c0 88 -66 155 -180 157v-504c115 1 180 70 180 159v5h10v-5c0 -95 -69 -168 -190 -169v-82h-10zM255 92v504c-115 -3 -178 -76 -178 -176v-152
c0 -101 63 -174 178 -176z" />
    <glyph glyph-name="sterling" unicode="&#xa3;" horiz-adv-x="571" 
d="M50 0v10h83v338h-83v10h83v171c0 105 65 186 194 186c123 0 194 -72 194 -167v-45h-10v45c0 89 -67 157 -184 157c-118 0 -184 -74 -184 -176v-171h219v-10h-219v-338h378v-10h-471z" />
    <glyph glyph-name="yen" unicode="&#xa5;" horiz-adv-x="596" 
d="M293 0v127h-220v10h220v141h-220v10h213l-266 407v5h9l269 -411l269 411h9v-5l-267 -407h214v-10h-220v-141h220v-10h-220v-127h-10z" />
    <glyph glyph-name="brokenbar" unicode="&#xa6;" horiz-adv-x="210" 
d="M100 -100v334h10v-334h-10zM100 426v314h10v-314h-10z" />
    <glyph glyph-name="section" unicode="&#xa7;" horiz-adv-x="547" 
d="M292 -172c-129 0 -231 64 -231 200h10c0 -130 96 -190 221 -190c118 0 182 66 182 144c0 51 -33 85 -105 113l-107 41c-116 45 -186 75 -186 164c0 52 27 112 60 153c-29 16 -55 49 -55 100c0 84 70 154 194 154c112 0 209 -62 209 -195h-10c0 128 -93 185 -199 185
c-118 0 -184 -66 -184 -144c0 -68 44 -91 87 -108l125 -50c116 -46 185 -76 185 -157c0 -53 -43 -114 -76 -151c37 -21 72 -48 72 -105c0 -85 -69 -154 -192 -154zM403 93c41 44 75 100 75 145c0 85 -96 114 -187 151l-146 59c-39 -49 -59 -106 -59 -149
c0 -91 97 -121 177 -152z" />
    <glyph glyph-name="dieresis" unicode="&#xa8;" horiz-adv-x="258" 
d="M40 595v110h10v-110h-10zM208 595v110h10v-110h-10z" />
    <glyph glyph-name="copyright" unicode="&#xa9;" horiz-adv-x="880" 
d="M436 140c-113 0 -170 71 -170 163v95c0 92 57 163 170 163c109 0 170 -64 170 -148v-5h-10v5c0 78 -57 138 -160 138s-160 -64 -160 -153v-95c0 -89 57 -153 160 -153s160 60 160 138v5h10v-5c0 -84 -61 -148 -170 -148zM440 -15c-203 0 -360 159 -360 365
s157 365 360 365s360 -159 360 -365s-157 -365 -360 -365zM440 -5c197 0 350 155 350 355s-153 355 -350 355c-198 0 -350 -155 -350 -355s152 -355 350 -355z" />
    <glyph glyph-name="ordfeminine" unicode="&#xaa;" horiz-adv-x="427" 
d="M176 353c-64 0 -116 27 -116 94s56 101 157 101h120v53c0 51 -40 94 -123 94c-78 0 -122 -41 -122 -94h-10c0 58 44 104 132 104c90 0 133 -46 133 -104v-243h-10v58c-27 -21 -90 -63 -161 -63zM178 363c70 0 132 44 159 64v111h-120c-92 0 -147 -32 -147 -91
c0 -62 51 -84 108 -84z" />
    <glyph glyph-name="guillemotleft" unicode="&#xab;" horiz-adv-x="527" 
d="M253 62l-193 202l194 203h10v-5l-189 -198l188 -197v-5h-10zM449 62l-193 202l194 203h10v-5l-189 -198l188 -197v-5h-10z" />
    <glyph glyph-name="logicalnot" unicode="&#xac;" horiz-adv-x="498" 
d="M438 208v209h-388v10h398v-219h-10z" />
    <glyph glyph-name="uni00AD" unicode="&#xad;" horiz-adv-x="430" 
d="M70 308v10h290v-10h-290z" />
    <glyph glyph-name="registered" unicode="&#xae;" horiz-adv-x="394" 
d="M130 456v176h85c34 0 55 -20 55 -52c0 -30 -19 -50 -49 -52l49 -66v-6h-9l-54 72h-67v-72h-10zM140 538h73c29 0 47 17 47 42s-18 42 -47 42h-73v-84zM197 371c-93 0 -167 74 -167 172s74 172 167 172s167 -74 167 -172s-74 -172 -167 -172zM197 381c87 0 157 70 157 162
s-70 162 -157 162s-157 -70 -157 -162s70 -162 157 -162z" />
    <glyph glyph-name="macron" unicode="&#xaf;" horiz-adv-x="453" 
d="M110 645v10h233v-10h-233z" />
    <glyph glyph-name="degree" unicode="&#xb0;" horiz-adv-x="379" 
d="M189 395c88 0 130 55 130 123v63c0 70 -42 124 -130 124c-83 0 -129 -52 -129 -124v-63c0 -71 46 -123 129 -123zM189 385c-92 0 -139 58 -139 134v62c0 76 47 134 139 134c94 0 140 -58 140 -134v-62c0 -76 -46 -134 -140 -134z" />
    <glyph glyph-name="plusminus" unicode="&#xb1;" horiz-adv-x="498" 
d="M244 124v194h-194v10h194v194h10v-194h194v-10h-194v-194h-10zM50 38v10h398v-10h-398z" />
    <glyph glyph-name="twosuperior" unicode="&#xb2;" horiz-adv-x="310" 
d="M44 358v10l96 74c50 39 111 80 111 152c0 62 -42 101 -97 101c-57 0 -104 -40 -104 -116h-10c0 83 51 126 114 126c61 0 107 -42 107 -111c0 -79 -68 -122 -116 -160l-85 -66h210v-10h-226z" />
    <glyph glyph-name="threesuperior" unicode="&#xb3;" horiz-adv-x="324" 
d="M163 353c-72 0 -121 37 -123 96h10c2 -53 46 -86 113 -86s105 34 105 89c0 43 -33 80 -92 80h-40v10h42c52 0 79 33 79 73c0 43 -36 80 -100 80c-59 0 -101 -34 -101 -92h-10c0 64 45 102 111 102c69 0 110 -40 110 -89c0 -43 -24 -69 -60 -79c38 -9 71 -36 71 -85
c0 -62 -42 -99 -115 -99z" />
    <glyph glyph-name="acute" unicode="&#xb4;" horiz-adv-x="276" 
d="M70 590l127 140h9v-5l-123 -135h-13z" />
    <glyph glyph-name="mu" unicode="&#xb5;" horiz-adv-x="564" 
d="M90 -160v660h10v-333c0 -117 74 -169 160 -169c79 0 151 48 204 111v391h10v-500h-10v94c-48 -54 -120 -106 -204 -106c-74 0 -137 37 -160 113v-261h-10z" />
    <glyph glyph-name="paragraph" unicode="&#xb6;" horiz-adv-x="545" 
d="M225 -87v455c-108 0 -175 58 -175 162v8c0 106 67 162 175 162h220v-787h-10v777h-200v-777h-10z" />
    <glyph glyph-name="periodcentered" unicode="&#xb7;" horiz-adv-x="170" 
d="M80 261v123h10v-123h-10z" />
    <glyph glyph-name="cedilla" unicode="&#xb8;" horiz-adv-x="278" 
d="M76 -160v5l122 155h13l-126 -160h-9z" />
    <glyph glyph-name="onesuperior" unicode="&#xb9;" horiz-adv-x="210" 
d="M110 358v332h-94v5l4 5h100v-342h-10z" />
    <glyph glyph-name="ordmasculine" unicode="&#xba;" horiz-adv-x="397" 
d="M198 363c95 0 139 60 139 132v67c0 76 -44 133 -139 133c-89 0 -138 -55 -138 -133v-67c0 -76 49 -132 138 -132zM198 353c-98 0 -148 62 -148 143v66c0 81 50 143 148 143c100 0 149 -62 149 -143v-66c0 -81 -49 -143 -149 -143z" />
    <glyph glyph-name="guillemotright" unicode="&#xbb;" horiz-adv-x="527" 
d="M271 264l-193 -202h-10v5l188 197l-189 198v5h10zM467 264l-193 -202h-10v5l188 197l-189 198v5h10z" />
    <glyph glyph-name="onequarter" unicode="&#xbc;" horiz-adv-x="627" 
d="M110 358v332h-94v5l4 5h100v-342h-10zM71 0v5l385 695h9v-5l-385 -695h-9zM444 342h10v-5l-131 -240h203v102h10v-102h71v-10h-71v-87h-10v87h-216v10z" />
    <glyph glyph-name="onehalf" unicode="&#xbd;" horiz-adv-x="641" 
d="M71 0v5l385 695h9v-5l-385 -695h-9zM110 358v332h-94v5l4 5h100v-342h-10zM375 0v10l96 74c50 39 111 80 111 152c0 62 -42 101 -97 101c-57 0 -104 -40 -104 -116h-10c0 83 51 126 114 126c61 0 107 -42 107 -111c0 -79 -68 -122 -116 -160l-85 -66h210v-10h-226z" />
    <glyph glyph-name="threequarters" unicode="&#xbe;" horiz-adv-x="727" 
d="M171 0v5l385 695h9v-5l-385 -695h-9zM544 341h10v-5l-131 -240h203v102h10v-102h71v-10h-71v-87h-10v87h-216v10zM163 353c-72 0 -121 37 -123 96h10c2 -53 46 -86 113 -86s105 34 105 89c0 43 -33 80 -92 80h-40v10h42c52 0 79 33 79 73c0 43 -36 80 -100 80
c-59 0 -101 -34 -101 -92h-10c0 64 45 102 111 102c69 0 110 -40 110 -89c0 -43 -24 -69 -60 -79c38 -9 71 -36 71 -85c0 -62 -42 -99 -115 -99z" />
    <glyph glyph-name="questiondown" unicode="&#xbf;" horiz-adv-x="497" 
d="M247 -172c-133 0 -197 76 -197 167c0 106 91 152 136 179l58 35v71h10v-76l-61 -37c-64 -39 -133 -79 -133 -172c0 -86 60 -157 188 -157c112 0 199 70 199 202h10c0 -138 -91 -212 -210 -212zM244 377v123h10v-123h-10z" />
    <glyph glyph-name="Agrave" unicode="&#xc0;" horiz-adv-x="650" 
d="M30 0v5l289 695h12l289 -695v-5h-9l-91 218h-391l-90 -218h-9zM133 228h383l-191 461zM324 762l-132 145v6h10l136 -151h-14z" />
    <glyph glyph-name="Aacute" unicode="&#xc1;" horiz-adv-x="650" 
d="M30 0v5l289 695h12l289 -695v-5h-9l-91 218h-391l-90 -218h-9zM133 228h383l-191 461zM324 762l136 151h10v-6l-132 -145h-14z" />
    <glyph glyph-name="Acircumflex" unicode="&#xc2;" horiz-adv-x="650" 
d="M30 0v5l289 695h12l289 -695v-5h-9l-91 218h-391l-90 -218h-9zM133 228h383l-191 461zM187 762v6l132 145h13l132 -145v-6h-10l-129 142l-128 -142h-10z" />
    <glyph glyph-name="Atilde" unicode="&#xc3;" horiz-adv-x="650" 
d="M30 0v5l289 695h12l289 -695v-5h-9l-91 218h-391l-90 -218h-9zM133 228h383l-191 461zM153 794l-8 6c49 62 69 79 102 79c24 0 45 -12 70 -31l23 -16c25 -18 44 -28 65 -28c30 0 46 18 92 75l8 -6c-48 -61 -68 -79 -101 -79c-25 0 -47 13 -71 31l-23 16
c-25 19 -44 28 -64 28c-30 0 -47 -17 -93 -75z" />
    <glyph glyph-name="Adieresis" unicode="&#xc4;" horiz-adv-x="650" 
d="M30 0v5l289 695h12l289 -695v-5h-9l-91 218h-391l-90 -218h-9zM133 228h383l-191 461zM230 768v118h11v-118h-11zM410 768v118h11v-118h-11z" />
    <glyph glyph-name="Aring" unicode="&#xc5;" horiz-adv-x="650" 
d="M30 0v5l289 695h12l289 -695v-5h-9l-91 218h-391l-90 -218h-9zM133 228h383l-191 461zM325 760c52 0 94 38 94 87c0 48 -42 87 -94 87c-51 0 -94 -39 -94 -87c0 -49 43 -87 94 -87zM325 749c-58 0 -105 44 -105 98c0 53 47 97 105 97s105 -44 105 -97
c0 -54 -47 -98 -105 -98z" />
    <glyph glyph-name="AE" unicode="&#xc6;" horiz-adv-x="924" 
d="M20 0v5l436 695h408v-10h-398v-332h350v-10h-350v-338h398v-10h-408v218h-290l-137 -218h-9zM172 228h284v451z" />
    <glyph glyph-name="Ccedilla" unicode="&#xc7;" horiz-adv-x="656" 
d="M219 -160v6l110 139c-152 4 -249 96 -249 252v226c0 159 101 252 259 252c131 0 247 -80 247 -227v-10h-10v10c0 141 -111 217 -237 217c-152 0 -249 -89 -249 -242v-226c0 -153 97 -242 249 -242c126 0 237 76 237 217v10h10v-10c0 -146 -114 -225 -243 -227l-114 -145
h-10z" />
    <glyph glyph-name="Egrave" unicode="&#xc8;" horiz-adv-x="568" 
d="M100 0v700h408v-10h-398v-332h350v-10h-350v-338h398v-10h-408zM355 762l-132 145v6h10l136 -151h-14z" />
    <glyph glyph-name="Eacute" unicode="&#xc9;" horiz-adv-x="568" 
d="M100 0v700h408v-10h-398v-332h350v-10h-350v-338h398v-10h-408zM274 762l136 151h10v-6l-132 -145h-14z" />
    <glyph glyph-name="Ecircumflex" unicode="&#xca;" horiz-adv-x="568" 
d="M100 0v700h408v-10h-398v-332h350v-10h-350v-338h398v-10h-408zM171 762v6l132 145h13l132 -145v-6h-10l-129 142l-128 -142h-10z" />
    <glyph glyph-name="Edieresis" unicode="&#xcb;" horiz-adv-x="568" 
d="M100 0v700h408v-10h-398v-332h350v-10h-350v-338h398v-10h-408zM204 768v118h11v-118h-11zM384 768v118h11v-118h-11z" />
    <glyph glyph-name="Igrave" unicode="&#xcc;" horiz-adv-x="210" 
d="M100 0v700h10v-700h-10zM101 762l-132 145v6h10l136 -151h-14z" />
    <glyph glyph-name="Iacute" unicode="&#xcd;" horiz-adv-x="210" 
d="M100 0v700h10v-700h-10zM98 762l136 151h10v-6l-132 -145h-14z" />
    <glyph glyph-name="Icircumflex" unicode="&#xce;" horiz-adv-x="210" 
d="M100 0v700h10v-700h-10zM-33 762v6l132 145h13l132 -145v-6h-10l-129 142l-128 -142h-10z" />
    <glyph glyph-name="Idieresis" unicode="&#xcf;" horiz-adv-x="210" 
d="M100 0v700h10v-700h-10zM9 768v118h11v-118h-11zM190 768v118h11v-118h-11z" />
    <glyph glyph-name="Eth" unicode="&#xd0;" horiz-adv-x="685" 
d="M130 10h221c149 0 244 88 244 238v204c0 150 -95 238 -244 238h-221v-334h249v-10h-249v-336zM120 0v346h-100v10h100v344h231c154 0 254 -91 254 -248v-204c0 -157 -100 -248 -254 -248h-231z" />
    <glyph glyph-name="Ntilde" unicode="&#xd1;" horiz-adv-x="680" 
d="M100 0v700h10l460 -682v682h10v-700h-9l-461 681v-681h-10zM173 794l-8 6c49 62 69 79 102 79c24 0 45 -12 70 -31l23 -16c25 -18 44 -28 65 -28c30 0 46 18 92 75l8 -6c-48 -61 -68 -79 -101 -79c-25 0 -47 13 -71 31l-23 16c-25 19 -44 28 -64 28
c-30 0 -47 -17 -93 -75z" />
    <glyph glyph-name="Ograve" unicode="&#xd2;" horiz-adv-x="668" 
d="M334 -5c149 0 244 88 244 238v234c0 150 -95 238 -244 238s-244 -88 -244 -238v-234c0 -150 95 -238 244 -238zM334 -15c-155 0 -254 91 -254 248v234c0 157 99 248 254 248c154 0 254 -91 254 -248v-234c0 -157 -100 -248 -254 -248zM362 762l-132 145v6h10l136 -151
h-14z" />
    <glyph glyph-name="Oacute" unicode="&#xd3;" horiz-adv-x="668" 
d="M334 -5c149 0 244 88 244 238v234c0 150 -95 238 -244 238s-244 -88 -244 -238v-234c0 -150 95 -238 244 -238zM334 -15c-155 0 -254 91 -254 248v234c0 157 99 248 254 248c154 0 254 -91 254 -248v-234c0 -157 -100 -248 -254 -248zM327 762l136 151h10v-6l-132 -145
h-14z" />
    <glyph glyph-name="Ocircumflex" unicode="&#xd4;" horiz-adv-x="668" 
d="M334 -5c149 0 244 88 244 238v234c0 150 -95 238 -244 238s-244 -88 -244 -238v-234c0 -150 95 -238 244 -238zM334 -15c-155 0 -254 91 -254 248v234c0 157 99 248 254 248c154 0 254 -91 254 -248v-234c0 -157 -100 -248 -254 -248zM209 762v6l132 145h13l132 -145v-6
h-10l-129 142l-128 -142h-10z" />
    <glyph glyph-name="Otilde" unicode="&#xd5;" horiz-adv-x="668" 
d="M334 -5c149 0 244 88 244 238v234c0 150 -95 238 -244 238s-244 -88 -244 -238v-234c0 -150 95 -238 244 -238zM334 -15c-155 0 -254 91 -254 248v234c0 157 99 248 254 248c154 0 254 -91 254 -248v-234c0 -157 -100 -248 -254 -248zM165 794l-8 6c49 62 69 79 102 79
c24 0 45 -12 70 -31l23 -16c25 -18 44 -28 65 -28c30 0 46 18 92 75l8 -6c-48 -61 -68 -79 -101 -79c-25 0 -47 13 -71 31l-23 16c-25 19 -44 28 -64 28c-30 0 -47 -17 -93 -75z" />
    <glyph glyph-name="Odieresis" unicode="&#xd6;" horiz-adv-x="668" 
d="M334 -5c149 0 244 88 244 238v234c0 150 -95 238 -244 238s-244 -88 -244 -238v-234c0 -150 95 -238 244 -238zM334 -15c-155 0 -254 91 -254 248v234c0 157 99 248 254 248c154 0 254 -91 254 -248v-234c0 -157 -100 -248 -254 -248zM240 768v118h11v-118h-11zM420 768
v118h11v-118h-11z" />
    <glyph glyph-name="multiply" unicode="&#xd7;" horiz-adv-x="422" 
d="M57 152l-7 7l154 154l-154 154l7 7l154 -154l154 154l7 -7l-154 -154l154 -154l-7 -7l-154 154z" />
    <glyph glyph-name="Oslash" unicode="&#xd8;" horiz-adv-x="668" 
d="M334 -15c-52 0 -98 11 -136 30l-48 -115h-9v5l48 115c-69 40 -109 113 -109 213v234c0 157 99 248 254 248c52 0 97 -11 135 -30l49 115h9v-5l-49 -115c69 -40 110 -113 110 -213v-234c0 -157 -100 -248 -254 -248zM334 -5c149 0 244 88 244 238v234
c0 95 -38 165 -104 203l-272 -646c37 -19 81 -29 132 -29zM90 233c0 -95 38 -165 103 -204l272 646c-36 20 -81 30 -131 30c-149 0 -244 -88 -244 -238v-234z" />
    <glyph glyph-name="Ugrave" unicode="&#xd9;" horiz-adv-x="660" 
d="M330 -15c-146 0 -240 93 -240 252v463h10v-463c0 -153 90 -242 230 -242s230 89 230 242v463h10v-463c0 -159 -94 -252 -240 -252zM373 762l-132 145v6h10l136 -151h-14z" />
    <glyph glyph-name="Uacute" unicode="&#xda;" horiz-adv-x="660" 
d="M330 -15c-146 0 -240 93 -240 252v463h10v-463c0 -153 90 -242 230 -242s230 89 230 242v463h10v-463c0 -159 -94 -252 -240 -252zM324 762l136 151h10v-6l-132 -145h-14z" />
    <glyph glyph-name="Ucircumflex" unicode="&#xdb;" horiz-adv-x="660" 
d="M330 -15c-146 0 -240 93 -240 252v463h10v-463c0 -153 90 -242 230 -242s230 89 230 242v463h10v-463c0 -159 -94 -252 -240 -252zM192 762v6l132 145h13l132 -145v-6h-10l-129 142l-128 -142h-10z" />
    <glyph glyph-name="Udieresis" unicode="&#xdc;" horiz-adv-x="660" 
d="M330 -15c-146 0 -240 93 -240 252v463h10v-463c0 -153 90 -242 230 -242s230 89 230 242v463h10v-463c0 -159 -94 -252 -240 -252zM235 768v118h11v-118h-11zM415 768v118h11v-118h-11z" />
    <glyph glyph-name="Yacute" unicode="&#xdd;" horiz-adv-x="596" 
d="M293 0v278l-273 417v5h9l269 -411l269 411h9v-5l-273 -417v-278h-10zM283 762l136 151h10v-6l-132 -145h-14z" />
    <glyph glyph-name="Thorn" unicode="&#xde;" horiz-adv-x="608" 
d="M100 0v700h10v-148h260c115 0 183 -78 183 -200s-68 -200 -183 -200h-260v-152h-10zM110 162h260c109 0 173 74 173 190s-64 190 -173 190h-260v-380z" />
    <glyph glyph-name="germandbls" unicode="&#xdf;" horiz-adv-x="573" 
d="M90 0v470c0 151 75 237 205 237c121 0 186 -79 186 -171c0 -87 -52 -137 -123 -151c78 -13 155 -77 155 -185c0 -134 -78 -200 -214 -200c-36 0 -75 7 -75 7v10s39 -7 75 -7c130 0 204 62 204 190c0 104 -75 180 -199 180h-67v10h67c114 0 167 59 167 146
c0 86 -61 161 -176 161c-124 0 -195 -82 -195 -227v-470h-10z" />
    <glyph glyph-name="agrave" unicode="&#xe0;" 
d="M216 -12c-86 0 -161 42 -161 140c0 100 75 151 208 151h164v79c0 81 -53 144 -167 144c-106 0 -166 -61 -166 -144h-10c0 87 59 154 176 154c120 0 177 -67 177 -154v-358h-10v83c-35 -32 -117 -95 -211 -95zM216 -2c94 0 176 67 211 99v172h-164
c-126 0 -198 -47 -198 -141s74 -130 151 -130zM318 590l-123 135v5h9l127 -140h-13z" />
    <glyph glyph-name="aacute" unicode="&#xe1;" 
d="M216 -12c-86 0 -161 42 -161 140c0 100 75 151 208 151h164v79c0 81 -53 144 -167 144c-106 0 -166 -61 -166 -144h-10c0 87 59 154 176 154c120 0 177 -67 177 -154v-358h-10v83c-35 -32 -117 -95 -211 -95zM216 -2c94 0 176 67 211 99v172h-164
c-126 0 -198 -47 -198 -141s74 -130 151 -130zM250 590l127 140h9v-5l-123 -135h-13z" />
    <glyph glyph-name="acircumflex" unicode="&#xe2;" 
d="M216 -12c-86 0 -161 42 -161 140c0 100 75 151 208 151h164v79c0 81 -53 144 -167 144c-106 0 -166 -61 -166 -144h-10c0 87 59 154 176 154c120 0 177 -67 177 -154v-358h-10v83c-35 -32 -117 -95 -211 -95zM216 -2c94 0 176 67 211 99v172h-164
c-126 0 -198 -47 -198 -141s74 -130 151 -130zM150 590v5l123 135h12l123 -135v-5h-9l-120 132l-120 -132h-9z" />
    <glyph glyph-name="atilde" unicode="&#xe3;" 
d="M216 -12c-86 0 -161 42 -161 140c0 100 75 151 208 151h164v79c0 81 -53 144 -167 144c-106 0 -166 -61 -166 -144h-10c0 87 59 154 176 154c120 0 177 -67 177 -154v-358h-10v83c-35 -32 -117 -95 -211 -95zM216 -2c94 0 176 67 211 99v172h-164
c-126 0 -198 -47 -198 -141s74 -130 151 -130zM107 632l-8 6c48 60 67 77 99 77c24 0 44 -12 69 -30l22 -16c24 -18 43 -27 63 -27c29 0 45 17 90 73l8 -6c-47 -60 -67 -77 -99 -77c-24 0 -45 13 -69 30l-22 16c-25 18 -43 27 -63 27c-29 0 -45 -17 -90 -73z" />
    <glyph glyph-name="adieresis" unicode="&#xe4;" 
d="M216 -12c-86 0 -161 42 -161 140c0 100 75 151 208 151h164v79c0 81 -53 144 -167 144c-106 0 -166 -61 -166 -144h-10c0 87 59 154 176 154c120 0 177 -67 177 -154v-358h-10v83c-35 -32 -117 -95 -211 -95zM216 -2c94 0 176 67 211 99v172h-164
c-126 0 -198 -47 -198 -141s74 -130 151 -130zM172 595v110h10v-110h-10zM340 595v110h10v-110h-10z" />
    <glyph glyph-name="aring" unicode="&#xe5;" 
d="M216 -12c-86 0 -161 42 -161 140c0 100 75 151 208 151h164v79c0 81 -53 144 -167 144c-106 0 -166 -61 -166 -144h-10c0 87 59 154 176 154c120 0 177 -67 177 -154v-358h-10v83c-35 -32 -117 -95 -211 -95zM216 -2c94 0 176 67 211 99v172h-164
c-126 0 -198 -47 -198 -141s74 -130 151 -130zM266 587c48 0 88 36 88 81s-40 81 -88 81s-88 -36 -88 -81s40 -81 88 -81zM266 577c-54 0 -98 41 -98 91s44 91 98 91s98 -41 98 -91s-44 -91 -98 -91z" />
    <glyph glyph-name="ae" unicode="&#xe6;" horiz-adv-x="882" 
d="M216 -12c-86 0 -161 41 -161 136c0 97 75 146 208 146h164v88c0 81 -53 144 -167 144c-106 0 -166 -61 -166 -144h-10c0 87 59 154 176 154c106 0 163 -53 175 -126c21 74 83 126 186 126c131 0 194 -81 194 -186v-66h-378v-92c0 -103 69 -170 184 -170
c114 0 170 63 179 148h10c-8 -92 -70 -158 -189 -158c-118 0 -175 66 -189 135c-40 -72 -118 -135 -216 -135zM216 -2c106 0 191 83 211 143v119h-164c-126 0 -198 -45 -198 -136s74 -126 151 -126zM437 270h368v56c0 99 -59 176 -184 176c-118 0 -184 -74 -184 -176v-56z
" />
    <glyph glyph-name="ccedilla" unicode="&#xe7;" horiz-adv-x="518" 
d="M160 -160v5l113 143h-12c-129 0 -194 81 -194 186v152c0 105 65 186 194 186c123 0 194 -72 194 -167v-4h-10v4c0 89 -67 157 -184 157c-118 0 -184 -74 -184 -176v-152c0 -102 66 -176 184 -176s184 69 184 159v5h10v-5c0 -89 -61 -158 -169 -168l-117 -149h-9z" />
    <glyph glyph-name="egrave" unicode="&#xe8;" 
d="M261 -12c-129 0 -194 81 -194 186v152c0 105 65 186 194 186c131 0 194 -81 194 -186v-76h-378v-76c0 -102 66 -176 184 -176c114 0 170 63 179 148h10c-8 -92 -70 -158 -189 -158zM77 260h368v66c0 99 -59 176 -184 176c-118 0 -184 -74 -184 -176v-66zM280 590
l-123 135v5h9l127 -140h-13z" />
    <glyph glyph-name="eacute" unicode="&#xe9;" 
d="M261 -12c-129 0 -194 81 -194 186v152c0 105 65 186 194 186c131 0 194 -81 194 -186v-76h-378v-76c0 -102 66 -176 184 -176c114 0 170 63 179 148h10c-8 -92 -70 -158 -189 -158zM77 260h368v66c0 99 -59 176 -184 176c-118 0 -184 -74 -184 -176v-66zM222 590l127 140
h9v-5l-123 -135h-13z" />
    <glyph glyph-name="ecircumflex" unicode="&#xea;" 
d="M261 -12c-129 0 -194 81 -194 186v152c0 105 65 186 194 186c131 0 194 -81 194 -186v-76h-378v-76c0 -102 66 -176 184 -176c114 0 170 63 179 148h10c-8 -92 -70 -158 -189 -158zM77 260h368v66c0 99 -59 176 -184 176c-118 0 -184 -74 -184 -176v-66zM139 590v5
l123 135h12l123 -135v-5h-9l-120 132l-120 -132h-9z" />
    <glyph glyph-name="edieresis" unicode="&#xeb;" 
d="M261 -12c-129 0 -194 81 -194 186v152c0 105 65 186 194 186c131 0 194 -81 194 -186v-76h-378v-76c0 -102 66 -176 184 -176c114 0 170 63 179 148h10c-8 -92 -70 -158 -189 -158zM77 260h368v66c0 99 -59 176 -184 176c-118 0 -184 -74 -184 -176v-66zM172 595v110h10
v-110h-10zM340 595v110h10v-110h-10z" />
    <glyph glyph-name="igrave" unicode="&#xec;" horiz-adv-x="190" 
d="M94 588l-123 135v5h9l127 -140h-13zM90 0v500h10v-500h-10z" />
    <glyph glyph-name="iacute" unicode="&#xed;" horiz-adv-x="190" 
d="M83 590l127 140h9v-5l-123 -135h-13zM90 0v500h10v-500h-10z" />
    <glyph glyph-name="icircumflex" unicode="&#xee;" horiz-adv-x="190" 
d="M90 0v500h10v-500h-10zM-34 590v5l123 135h12l123 -135v-5h-9l-120 132l-120 -132h-9z" />
    <glyph glyph-name="idieresis" unicode="&#xef;" horiz-adv-x="190" 
d="M6 595v110h10v-110h-10zM174 595v110h10v-110h-10zM90 0v500h10v-500h-10z" />
    <glyph glyph-name="eth" unicode="&#xf0;" horiz-adv-x="548" 
d="M269 -12c-131 0 -194 81 -194 186v86c0 105 58 186 174 186c87 0 158 -55 204 -106c-6 79 -54 147 -109 217h-194v10h186l-107 133v5h9l110 -138h115v-10h-107c55 -69 107 -137 107 -227v-156c0 -105 -65 -186 -194 -186zM269 -2c118 0 184 74 184 176v152
c-50 55 -119 110 -204 110c-109 0 -164 -77 -164 -176v-86c0 -99 59 -176 184 -176z" />
    <glyph glyph-name="ntilde" unicode="&#xf1;" horiz-adv-x="559" 
d="M90 0v500h10v-94c48 54 120 106 204 106c94 0 170 -60 170 -184v-328h-10v324c0 123 -72 178 -160 178c-79 0 -151 -48 -204 -111v-391h-10zM115 632l-8 6c48 60 67 77 99 77c24 0 44 -12 69 -30l22 -16c24 -18 43 -27 63 -27c29 0 45 17 90 73l8 -6
c-47 -60 -67 -77 -99 -77c-24 0 -45 13 -69 30l-22 16c-25 18 -43 27 -63 27c-29 0 -45 -17 -90 -73z" />
    <glyph glyph-name="ograve" unicode="&#xf2;" 
d="M261 -2c125 0 184 77 184 176v152c0 99 -59 176 -184 176c-118 0 -184 -74 -184 -176v-152c0 -102 66 -176 184 -176zM261 -12c-129 0 -194 81 -194 186v152c0 105 65 186 194 186c131 0 194 -81 194 -186v-152c0 -105 -63 -186 -194 -186zM274 590l-123 135v5h9
l127 -140h-13z" />
    <glyph glyph-name="oacute" unicode="&#xf3;" 
d="M261 -2c125 0 184 77 184 176v152c0 99 -59 176 -184 176c-118 0 -184 -74 -184 -176v-152c0 -102 66 -176 184 -176zM261 -12c-129 0 -194 81 -194 186v152c0 105 65 186 194 186c131 0 194 -81 194 -186v-152c0 -105 -63 -186 -194 -186zM246 590l127 140h9v-5
l-123 -135h-13z" />
    <glyph glyph-name="ocircumflex" unicode="&#xf4;" 
d="M261 -2c125 0 184 77 184 176v152c0 99 -59 176 -184 176c-118 0 -184 -74 -184 -176v-152c0 -102 66 -176 184 -176zM261 -12c-129 0 -194 81 -194 186v152c0 105 65 186 194 186c131 0 194 -81 194 -186v-152c0 -105 -63 -186 -194 -186zM132 590v5l123 135h12
l123 -135v-5h-9l-120 132l-120 -132h-9z" />
    <glyph glyph-name="otilde" unicode="&#xf5;" 
d="M261 -2c125 0 184 77 184 176v152c0 99 -59 176 -184 176c-118 0 -184 -74 -184 -176v-152c0 -102 66 -176 184 -176zM261 -12c-129 0 -194 81 -194 186v152c0 105 65 186 194 186c131 0 194 -81 194 -186v-152c0 -105 -63 -186 -194 -186zM95 632l-8 6
c48 60 67 77 99 77c24 0 44 -12 69 -30l22 -16c24 -18 43 -27 63 -27c29 0 45 17 90 73l8 -6c-47 -60 -67 -77 -99 -77c-24 0 -45 13 -69 30l-22 16c-25 18 -43 27 -63 27c-29 0 -45 -17 -90 -73z" />
    <glyph glyph-name="odieresis" unicode="&#xf6;" 
d="M261 -2c125 0 184 77 184 176v152c0 99 -59 176 -184 176c-118 0 -184 -74 -184 -176v-152c0 -102 66 -176 184 -176zM261 -12c-129 0 -194 81 -194 186v152c0 105 65 186 194 186c131 0 194 -81 194 -186v-152c0 -105 -63 -186 -194 -186zM170 595v110h10v-110h-10z
M338 595v110h10v-110h-10z" />
    <glyph glyph-name="divide" unicode="&#xf7;" horiz-adv-x="498" 
d="M244 114v107h10v-107h-10zM50 308v10h398v-10h-398zM244 405v107h10v-107h-10z" />
    <glyph glyph-name="oslash" unicode="&#xf8;" 
d="M261 -12c-47 0 -85 11 -115 29l-70 -143h-9v5l71 143c-47 34 -71 88 -71 152v152c0 105 65 186 194 186c43 0 78 -9 107 -24l78 158h9v-5l-78 -158c52 -33 78 -90 78 -157v-152c0 -105 -63 -186 -194 -186zM261 -2c125 0 184 77 184 176v152c0 62 -24 116 -73 147
l-221 -447c29 -18 66 -28 110 -28zM77 174c0 -60 23 -110 66 -142l220 446c-27 15 -61 24 -102 24c-118 0 -184 -74 -184 -176v-152z" />
    <glyph glyph-name="ugrave" unicode="&#xf9;" horiz-adv-x="559" 
d="M255 -12c-94 0 -170 60 -170 184v328h10v-324c0 -123 72 -178 160 -178c79 0 151 48 204 111v391h10v-500h-10v94c-48 -54 -120 -106 -204 -106zM301 590l-123 135v5h9l127 -140h-13z" />
    <glyph glyph-name="uacute" unicode="&#xfa;" horiz-adv-x="559" 
d="M255 -12c-94 0 -170 60 -170 184v328h10v-324c0 -123 72 -178 160 -178c79 0 151 48 204 111v391h10v-500h-10v94c-48 -54 -120 -106 -204 -106zM249 590l127 140h9v-5l-123 -135h-13z" />
    <glyph glyph-name="ucircumflex" unicode="&#xfb;" horiz-adv-x="559" 
d="M255 -12c-94 0 -170 60 -170 184v328h10v-324c0 -123 72 -178 160 -178c79 0 151 48 204 111v391h10v-500h-10v94c-48 -54 -120 -106 -204 -106zM150 590v5l123 135h12l123 -135v-5h-9l-120 132l-120 -132h-9z" />
    <glyph glyph-name="udieresis" unicode="&#xfc;" horiz-adv-x="559" 
d="M255 -12c-94 0 -170 60 -170 184v328h10v-324c0 -123 72 -178 160 -178c79 0 151 48 204 111v391h10v-500h-10v94c-48 -54 -120 -106 -204 -106zM187 595v110h10v-110h-10zM355 595v110h10v-110h-10z" />
    <glyph glyph-name="yacute" unicode="&#xfd;" horiz-adv-x="490" 
d="M175 -160v5l65 155l-210 495v5h9l206 -489l206 489h9v-5l-276 -655h-9zM215 590l127 140h9v-5l-123 -135h-13z" />
    <glyph glyph-name="thorn" unicode="&#xfe;" horiz-adv-x="553" 
d="M90 -160v865h10v-299c46 51 117 106 204 106c116 0 174 -81 174 -186v-152c0 -105 -58 -186 -174 -186c-87 0 -158 55 -204 106v-254h-10zM304 -2c109 0 164 77 164 176v152c0 99 -55 176 -164 176c-85 0 -154 -55 -204 -110v-284c50 -55 119 -110 204 -110z" />
    <glyph glyph-name="ydieresis" unicode="&#xff;" horiz-adv-x="490" 
d="M175 -160v5l65 155l-210 495v5h9l206 -489l206 489h9v-5l-276 -655h-9zM153 595v110h10v-110h-10zM321 595v110h10v-110h-10z" />
    <glyph glyph-name="Amacron" unicode="&#x100;" horiz-adv-x="650" 
d="M30 0v5l289 695h12l289 -695v-5h-9l-91 218h-391l-90 -218h-9zM133 228h383l-191 461zM200 822v11h250v-11h-250z" />
    <glyph glyph-name="amacron" unicode="&#x101;" 
d="M216 -12c-86 0 -161 42 -161 140c0 100 75 151 208 151h164v79c0 81 -53 144 -167 144c-106 0 -166 -61 -166 -144h-10c0 87 59 154 176 154c120 0 177 -67 177 -154v-358h-10v83c-35 -32 -117 -95 -211 -95zM216 -2c94 0 176 67 211 99v172h-164
c-126 0 -198 -47 -198 -141s74 -130 151 -130zM147 645v10h233v-10h-233z" />
    <glyph glyph-name="Aogonek" unicode="&#x104;" horiz-adv-x="650" 
d="M639 -160c-58 0 -93 26 -93 71c0 31 17 60 63 93l-89 214h-391l-90 -218h-9v5l289 695h12l289 -695v-5c-46 -33 -64 -59 -64 -89c0 -43 33 -61 86 -61h47v-10h-50zM133 228h383l-191 461z" />
    <glyph glyph-name="aogonek" unicode="&#x105;" 
d="M456 -160c-58 0 -93 26 -93 71c0 31 18 61 64 94v78c-35 -32 -117 -95 -211 -95c-86 0 -161 42 -161 140c0 100 75 151 208 151h164v79c0 81 -53 144 -167 144c-106 0 -166 -61 -166 -144h-10c0 87 59 154 176 154c120 0 177 -67 177 -154v-358c-46 -33 -64 -59 -64 -89
c0 -43 33 -61 86 -61h47v-10h-50zM216 -2c94 0 176 67 211 99v172h-164c-126 0 -198 -47 -198 -141s74 -130 151 -130z" />
    <glyph glyph-name="Cacute" unicode="&#x106;" horiz-adv-x="656" 
d="M339 -15c-158 0 -259 93 -259 252v226c0 159 101 252 259 252c131 0 247 -80 247 -227v-10h-10v10c0 141 -111 217 -237 217c-152 0 -249 -89 -249 -242v-226c0 -153 97 -242 249 -242c126 0 237 76 237 217v10h10v-10c0 -147 -116 -227 -247 -227zM326 762l136 151h10
v-6l-132 -145h-14z" />
    <glyph glyph-name="cacute" unicode="&#x107;" horiz-adv-x="518" 
d="M261 -12c-129 0 -194 81 -194 186v152c0 105 65 186 194 186c123 0 194 -72 194 -167v-4h-10v4c0 89 -67 157 -184 157c-118 0 -184 -74 -184 -176v-152c0 -102 66 -176 184 -176s184 69 184 159v5h10v-5c0 -96 -70 -169 -194 -169zM223 590l127 140h9v-5l-123 -135h-13z
" />
    <glyph glyph-name="Ccaron" unicode="&#x10c;" horiz-adv-x="656" 
d="M339 -15c-158 0 -259 93 -259 252v226c0 159 101 252 259 252c131 0 247 -80 247 -227v-10h-10v10c0 141 -111 217 -237 217c-152 0 -249 -89 -249 -242v-226c0 -153 97 -242 249 -242c126 0 237 76 237 217v10h10v-10c0 -147 -116 -227 -247 -227zM331 763l-132 145v5
h10l128 -141l129 141h10v-5l-132 -145h-13z" />
    <glyph glyph-name="ccaron" unicode="&#x10d;" horiz-adv-x="518" 
d="M261 -12c-129 0 -194 81 -194 186v152c0 105 65 186 194 186c123 0 194 -72 194 -167v-4h-10v4c0 89 -67 157 -184 157c-118 0 -184 -74 -184 -176v-152c0 -102 66 -176 184 -176s184 69 184 159v5h10v-5c0 -96 -70 -169 -194 -169zM257 590l-123 135v5h9l120 -132
l120 132h9v-5l-123 -135h-12z" />
    <glyph glyph-name="Dcaron" unicode="&#x10e;" horiz-adv-x="665" 
d="M110 10h221c149 0 244 88 244 238v204c0 150 -95 238 -244 238h-221v-680zM100 0v700h231c154 0 254 -91 254 -248v-204c0 -157 -100 -248 -254 -248h-231zM315 763l-132 145v5h10l128 -141l129 141h10v-5l-132 -145h-13z" />
    <glyph glyph-name="dcaron" unicode="&#x10f;" horiz-adv-x="626" 
d="M249 -12c-116 0 -174 81 -174 186v152c0 105 58 186 174 186c87 0 158 -55 204 -106v299h10v-705h-10v94c-46 -51 -117 -106 -204 -106zM249 -2c85 0 154 55 204 110v284c-50 55 -119 110 -204 110c-109 0 -164 -77 -164 -176v-152c0 -99 55 -176 164 -176zM559 537v5
l78 163h9v-5l-78 -163h-9z" />
    <glyph glyph-name="Emacron" unicode="&#x112;" horiz-adv-x="568" 
d="M100 0v700h408v-10h-398v-332h350v-10h-350v-338h398v-10h-408zM181 822v11h250v-11h-250z" />
    <glyph glyph-name="emacron" unicode="&#x113;" 
d="M261 -12c-129 0 -194 81 -194 186v152c0 105 65 186 194 186c131 0 194 -81 194 -186v-76h-378v-76c0 -102 66 -176 184 -176c114 0 170 63 179 148h10c-8 -92 -70 -158 -189 -158zM77 260h368v66c0 99 -59 176 -184 176c-118 0 -184 -74 -184 -176v-66zM145 645v10h233
v-10h-233z" />
    <glyph glyph-name="Edotaccent" unicode="&#x116;" horiz-adv-x="568" 
d="M100 0v700h408v-10h-398v-332h350v-10h-350v-338h398v-10h-408zM297 768v118h11v-118h-11z" />
    <glyph glyph-name="edotaccent" unicode="&#x117;" 
d="M261 -12c-129 0 -194 81 -194 186v152c0 105 65 186 194 186c131 0 194 -81 194 -186v-76h-378v-76c0 -102 66 -176 184 -176c114 0 170 63 179 148h10c-8 -92 -70 -158 -189 -158zM77 260h368v66c0 99 -59 176 -184 176c-118 0 -184 -74 -184 -176v-66zM256 595v110h10
v-110h-10z" />
    <glyph glyph-name="Eogonek" unicode="&#x118;" horiz-adv-x="568" 
d="M527 -160c-58 0 -93 24 -93 72c0 24 16 55 58 88h-392v700h408v-10h-398v-332h350v-10h-350v-338h398v-10c-46 -33 -64 -64 -64 -88c0 -44 33 -62 86 -62h47v-10h-50z" />
    <glyph glyph-name="eogonek" unicode="&#x119;" 
d="M356 -160c-58 0 -93 26 -93 73c0 23 11 50 49 80c-16 -3 -33 -5 -51 -5c-129 0 -194 81 -194 186v152c0 105 65 186 194 186c131 0 194 -81 194 -186v-76h-378v-76c0 -102 66 -176 184 -176c114 0 170 63 179 148h10c-9 -92 -61 -126 -107 -146s-70 -58 -70 -87
c0 -44 33 -63 86 -63h47v-10h-50zM77 260h368v66c0 99 -59 176 -184 176c-118 0 -184 -74 -184 -176v-66z" />
    <glyph glyph-name="Ecaron" unicode="&#x11a;" horiz-adv-x="568" 
d="M100 0v700h408v-10h-398v-332h350v-10h-350v-338h398v-10h-408zM304 763l-132 145v5h10l128 -141l129 141h10v-5l-132 -145h-13z" />
    <glyph glyph-name="ecaron" unicode="&#x11b;" 
d="M261 -12c-129 0 -194 81 -194 186v152c0 105 65 186 194 186c131 0 194 -81 194 -186v-76h-378v-76c0 -102 66 -176 184 -176c114 0 170 63 179 148h10c-8 -92 -70 -158 -189 -158zM77 260h368v66c0 99 -59 176 -184 176c-118 0 -184 -74 -184 -176v-66zM253 590
l-123 135v5h9l120 -132l120 132h9v-5l-123 -135h-12z" />
    <glyph glyph-name="uni0122" unicode="&#x122;" horiz-adv-x="687" 
d="M345 -15c-162 0 -265 93 -265 252v226c0 159 103 252 265 252c133 0 252 -80 252 -227v-10h-10v10c0 141 -114 217 -242 217c-156 0 -255 -89 -255 -242v-226c0 -153 99 -242 255 -242c118 0 194 49 242 167v156h-211v10h221v-328h-10v138c-39 -96 -116 -153 -242 -153z
M291 -235v5l78 163h9v-5l-78 -163h-9z" />
    <glyph glyph-name="uni0123" unicode="&#x123;" horiz-adv-x="553" 
d="M275 -172c-110 0 -185 59 -189 158h10c4 -90 75 -148 179 -148c108 0 178 60 178 185v117c-46 -51 -117 -106 -204 -106c-116 0 -174 81 -174 186v106c0 105 58 186 174 186c87 0 158 -55 204 -106v94h10v-477c0 -132 -74 -195 -188 -195zM249 44c85 0 154 55 204 110
v238c-50 55 -119 110 -204 110c-109 0 -164 -77 -164 -176v-106c0 -99 55 -176 164 -176zM349 754v-5l-72 -163h-8v5l71 163h9z" />
    <glyph glyph-name="Imacron" unicode="&#x12a;" horiz-adv-x="210" 
d="M100 0v700h10v-700h-10zM-20 822v11h250v-11h-250z" />
    <glyph glyph-name="imacron" unicode="&#x12b;" horiz-adv-x="190" 
d="M-21 645v10h233v-10h-233zM90 0v500h10v-500h-10z" />
    <glyph glyph-name="Iogonek" unicode="&#x12e;" horiz-adv-x="210" 
d="M129 -160c-58 0 -93 26 -93 71c0 31 18 61 64 94v695h10v-700c-46 -33 -64 -59 -64 -89c0 -43 33 -61 86 -61h47v-10h-50z" />
    <glyph glyph-name="iogonek" unicode="&#x12f;" horiz-adv-x="190" 
d="M119 -160c-58 0 -93 26 -93 71c0 31 18 61 64 94v495h10v-500c-46 -33 -64 -59 -64 -89c0 -43 33 -61 86 -61h47v-10h-50zM90 595v110h10v-110h-10z" />
    <glyph glyph-name="dotlessi" unicode="&#x131;" horiz-adv-x="190" 
d="M90 0v500h10v-500h-10z" />
    <glyph glyph-name="uni0136" unicode="&#x136;" horiz-adv-x="577" 
d="M100 0v700h10v-344h166l251 344h9v-5l-251 -344l262 -346v-5h-9l-261 346h-167v-346h-10zM221 -235v5l78 163h9v-5l-78 -163h-9z" />
    <glyph glyph-name="uni0137" unicode="&#x137;" horiz-adv-x="491" 
d="M90 0v705h10v-445h132l190 240h9v-5l-189 -239l199 -251v-5h-9l-197 250h-135v-250h-10zM194 -235v5l72 163h8v-5l-71 -163h-9z" />
    <glyph glyph-name="Lacute" unicode="&#x139;" horiz-adv-x="551" 
d="M101 0v700h10v-690h410v-10h-420zM100 762l136 151h10v-6l-132 -145h-14z" />
    <glyph glyph-name="lacute" unicode="&#x13a;" horiz-adv-x="190" 
d="M90 0v705h10v-705h-10zM90 756l127 140h9v-5l-123 -135h-13z" />
    <glyph glyph-name="uni013B" unicode="&#x13b;" horiz-adv-x="550" 
d="M100 0v700h10v-690h410v-10h-420zM246 -235v5l78 163h9v-5l-78 -163h-9z" />
    <glyph glyph-name="uni013C" unicode="&#x13c;" horiz-adv-x="190" 
d="M90 0v705h10v-705h-10zM18 -235v5l72 163h8v-5l-71 -163h-9z" />
    <glyph glyph-name="Lcaron" unicode="&#x13d;" horiz-adv-x="550" 
d="M100 0v700h10v-690h410v-10h-420zM440 532v5l78 163h9v-5l-78 -163h-9z" />
    <glyph glyph-name="lcaron" unicode="&#x13e;" horiz-adv-x="263" 
d="M90 0v705h10v-705h-10zM196 537v5l78 163h9v-5l-78 -163h-9z" />
    <glyph glyph-name="Lslash" unicode="&#x141;" horiz-adv-x="595" 
d="M145 0v295l-101 -82h-9v5l110 90v392h10v-384l228 187h9v-5l-237 -195v-293h410v-10h-420z" />
    <glyph glyph-name="lslash" unicode="&#x142;" horiz-adv-x="364" 
d="M175 0v341l-166 -201h-9v5l175 212v348h10v-336l170 206h9v-5l-179 -217v-353h-10z" />
    <glyph glyph-name="Nacute" unicode="&#x143;" horiz-adv-x="680" 
d="M100 0v700h10l460 -682v682h10v-700h-9l-461 681v-681h-10zM312 762l136 151h10v-6l-132 -145h-14z" />
    <glyph glyph-name="nacute" unicode="&#x144;" horiz-adv-x="559" 
d="M90 0v500h10v-94c48 54 120 106 204 106c94 0 170 -60 170 -184v-328h-10v324c0 123 -72 178 -160 178c-79 0 -151 -48 -204 -111v-391h-10zM223 590l127 140h9v-5l-123 -135h-13z" />
    <glyph glyph-name="Ncommaaccent" unicode="&#x145;" horiz-adv-x="680" 
d="M100 0v700h10l460 -682v682h10v-700h-9l-461 681v-681h-10zM264 -235v5l78 163h9v-5l-78 -163h-9z" />
    <glyph glyph-name="ncommaaccent" unicode="&#x146;" horiz-adv-x="559" 
d="M90 0v500h10v-94c48 54 120 106 204 106c94 0 170 -60 170 -184v-328h-10v324c0 123 -72 178 -160 178c-79 0 -151 -48 -204 -111v-391h-10zM229 -235v5l72 163h8v-5l-71 -163h-9z" />
    <glyph glyph-name="Ncaron" unicode="&#x147;" horiz-adv-x="680" 
d="M100 0v700h10l460 -682v682h10v-700h-9l-461 681v-681h-10zM335 763l-132 145v5h10l128 -141l129 141h10v-5l-132 -145h-13z" />
    <glyph glyph-name="ncaron" unicode="&#x148;" horiz-adv-x="559" 
d="M90 0v500h10v-94c48 54 120 106 204 106c94 0 170 -60 170 -184v-328h-10v324c0 123 -72 178 -160 178c-79 0 -151 -48 -204 -111v-391h-10zM277 590l-123 135v5h9l120 -132l120 132h9v-5l-123 -135h-12z" />
    <glyph glyph-name="Omacron" unicode="&#x14c;" horiz-adv-x="668" 
d="M334 -5c149 0 244 88 244 238v234c0 150 -95 238 -244 238s-244 -88 -244 -238v-234c0 -150 95 -238 244 -238zM334 -15c-155 0 -254 91 -254 248v234c0 157 99 248 254 248c154 0 254 -91 254 -248v-234c0 -157 -100 -248 -254 -248zM209 822v11h250v-11h-250z" />
    <glyph glyph-name="omacron" unicode="&#x14d;" 
d="M261 -2c125 0 184 77 184 176v152c0 99 -59 176 -184 176c-118 0 -184 -74 -184 -176v-152c0 -102 66 -176 184 -176zM261 -12c-129 0 -194 81 -194 186v152c0 105 65 186 194 186c131 0 194 -81 194 -186v-152c0 -105 -63 -186 -194 -186zM146 645v10h233v-10h-233z" />
    <glyph glyph-name="obreve" unicode="&#x14f;" 
d="M261 -2c125 0 184 77 184 176v152c0 99 -59 176 -184 176c-118 0 -184 -74 -184 -176v-152c0 -102 66 -176 184 -176zM261 -12c-129 0 -194 81 -194 186v152c0 105 65 186 194 186c131 0 194 -81 194 -186v-152c0 -105 -63 -186 -194 -186zM263 585
c-86 0 -145 50 -145 137v12h10v-11c0 -82 55 -128 135 -128c79 0 135 46 135 128v11h10v-12c0 -87 -60 -137 -145 -137z" />
    <glyph glyph-name="Ohungarumlaut" unicode="&#x150;" horiz-adv-x="668" 
d="M334 -5c149 0 244 88 244 238v234c0 150 -95 238 -244 238s-244 -88 -244 -238v-234c0 -150 95 -238 244 -238zM334 -15c-155 0 -254 91 -254 248v234c0 157 99 248 254 248c154 0 254 -91 254 -248v-234c0 -157 -100 -248 -254 -248zM235 763l136 150h10v-5l-132 -145
h-14zM413 763l136 150h10v-5l-132 -145h-14z" />
    <glyph glyph-name="ohungarumlaut" unicode="&#x151;" 
d="M261 -2c125 0 184 77 184 176v152c0 99 -59 176 -184 176c-118 0 -184 -74 -184 -176v-152c0 -102 66 -176 184 -176zM261 -12c-129 0 -194 81 -194 186v152c0 105 65 186 194 186c131 0 194 -81 194 -186v-152c0 -105 -63 -186 -194 -186zM165 590l127 140h9v-5
l-123 -135h-13zM331 590l127 140h9v-5l-123 -135h-13z" />
    <glyph glyph-name="OE" unicode="&#x152;" horiz-adv-x="1046" 
d="M334 -15c-155 0 -254 91 -254 248v234c0 157 99 248 254 248c125 0 215 -61 244 -168v153h408v-10h-398v-332h350v-10h-350v-338h398v-10h-408v153c-29 -108 -119 -168 -244 -168zM334 -5c145 0 244 89 244 232v246c0 143 -99 232 -244 232c-149 0 -244 -88 -244 -238
v-234c0 -150 95 -238 244 -238z" />
    <glyph glyph-name="oe" unicode="&#x153;" horiz-adv-x="900" 
d="M261 -12c-129 0 -194 81 -194 186v152c0 105 65 186 194 186c110 0 172 -58 189 -138c17 80 80 138 189 138c131 0 194 -81 194 -186v-76h-378v-79c0 -101 69 -173 184 -173c114 0 170 63 179 148h10c-8 -92 -70 -158 -189 -158c-109 0 -172 57 -189 138
c-17 -81 -79 -138 -189 -138zM261 -2c122 0 184 75 184 173v159c0 96 -62 172 -184 172c-118 0 -184 -74 -184 -176v-152c0 -102 66 -176 184 -176zM455 260h368v66c0 99 -59 176 -184 176c-118 0 -184 -74 -184 -176v-66z" />
    <glyph glyph-name="Racute" unicode="&#x154;" horiz-adv-x="630" 
d="M100 0v700h279c115 0 183 -78 183 -200s-66 -191 -164 -200l180 -295v-5h-9l-183 300h-276v-300h-10zM110 310h269c109 0 173 74 173 190s-64 190 -173 190h-269v-380zM293 762l136 151h10v-6l-132 -145h-14z" />
    <glyph glyph-name="racute" unicode="&#x155;" horiz-adv-x="362" 
d="M90 0v500h10v-94c51 54 128 104 217 104h5v-10h-5c-87 0 -160 -45 -217 -108v-392h-10zM169 590l127 140h9v-5l-123 -135h-13z" />
    <glyph glyph-name="Rcommaaccent" unicode="&#x156;" horiz-adv-x="630" 
d="M100 0v700h279c115 0 183 -78 183 -200s-66 -191 -164 -200l180 -295v-5h-9l-183 300h-276v-300h-10zM110 310h269c109 0 173 74 173 190s-64 190 -173 190h-269v-380zM252 -235v5l78 163h9v-5l-78 -163h-9z" />
    <glyph glyph-name="uni0157" unicode="&#x157;" horiz-adv-x="362" 
d="M90 0v500h10v-94c51 54 128 104 217 104h5v-10h-5c-87 0 -160 -45 -217 -108v-392h-10zM19 -235v5l72 163h8v-5l-71 -163h-9z" />
    <glyph glyph-name="Rcaron" unicode="&#x158;" horiz-adv-x="630" 
d="M100 0v700h279c115 0 183 -78 183 -200s-66 -191 -164 -200l180 -295v-5h-9l-183 300h-276v-300h-10zM110 310h269c109 0 173 74 173 190s-64 190 -173 190h-269v-380zM300 763l-132 145v5h10l128 -141l129 141h10v-5l-132 -145h-13z" />
    <glyph glyph-name="rcaron" unicode="&#x159;" horiz-adv-x="362" 
d="M90 0v500h10v-94c51 54 128 104 217 104h5v-10h-5c-87 0 -160 -45 -217 -108v-392h-10zM196 590l-123 135v5h9l120 -132l120 132h9v-5l-123 -135h-12z" />
    <glyph glyph-name="Sacute" unicode="&#x15a;" horiz-adv-x="611" 
d="M319 -15c-129 0 -264 68 -264 242h10c0 -167 132 -232 254 -232c142 0 212 73 212 165c0 82 -50 126 -156 166l-126 48c-125 47 -168 82 -168 173c0 97 79 168 217 168c132 0 240 -69 240 -236h-10c0 166 -112 226 -230 226c-130 0 -207 -67 -207 -158
c0 -81 40 -117 137 -153l124 -47c118 -44 189 -85 189 -187c0 -97 -71 -175 -222 -175zM286 762l136 151h10v-6l-132 -145h-14z" />
    <glyph glyph-name="sacute" unicode="&#x15b;" horiz-adv-x="523" 
d="M269 -12c-102 0 -209 46 -209 175h10c0 -123 107 -165 199 -165c113 0 174 54 174 125c0 67 -43 92 -134 116l-102 27c-91 24 -124 54 -124 121c0 70 63 125 177 125c106 0 189 -51 189 -170h-10c0 112 -77 160 -179 160c-108 0 -167 -49 -167 -115
c0 -60 29 -88 115 -111l102 -27c95 -26 143 -51 143 -126c0 -77 -62 -135 -184 -135zM233 590l127 140h9v-5l-123 -135h-13z" />
    <glyph glyph-name="scircumflex" unicode="&#x15d;" horiz-adv-x="523" 
d="M269 -12c-102 0 -209 46 -209 175h10c0 -123 107 -165 199 -165c113 0 174 54 174 125c0 67 -43 92 -134 116l-102 27c-91 24 -124 54 -124 121c0 70 63 125 177 125c106 0 189 -51 189 -170h-10c0 112 -77 160 -179 160c-108 0 -167 -49 -167 -115
c0 -60 29 -88 115 -111l102 -27c95 -26 143 -51 143 -126c0 -77 -62 -135 -184 -135zM148 590v5l123 135h12l123 -135v-5h-9l-120 132l-120 -132h-9z" />
    <glyph glyph-name="Scaron" unicode="&#x160;" horiz-adv-x="611" 
d="M319 -15c-129 0 -264 68 -264 242h10c0 -167 132 -232 254 -232c142 0 212 73 212 165c0 82 -50 126 -156 166l-126 48c-125 47 -168 82 -168 173c0 97 79 168 217 168c132 0 240 -69 240 -236h-10c0 166 -112 226 -230 226c-130 0 -207 -67 -207 -158
c0 -81 40 -117 137 -153l124 -47c118 -44 189 -85 189 -187c0 -97 -71 -175 -222 -175zM308 763l-132 145v5h10l128 -141l129 141h10v-5l-132 -145h-13z" />
    <glyph glyph-name="scaron" unicode="&#x161;" horiz-adv-x="523" 
d="M269 -12c-102 0 -209 46 -209 175h10c0 -123 107 -165 199 -165c113 0 174 54 174 125c0 67 -43 92 -134 116l-102 27c-91 24 -124 54 -124 121c0 70 63 125 177 125c106 0 189 -51 189 -170h-10c0 112 -77 160 -179 160c-108 0 -167 -49 -167 -115
c0 -60 29 -88 115 -111l102 -27c95 -26 143 -51 143 -126c0 -77 -62 -135 -184 -135zM261 590l-123 135v5h9l120 -132l120 132h9v-5l-123 -135h-12z" />
    <glyph glyph-name="Tcaron" unicode="&#x164;" horiz-adv-x="540" 
d="M265 0v690h-235v10h480v-10h-235v-690h-10zM264 763l-132 145v5h10l128 -141l129 141h10v-5l-132 -145h-13z" />
    <glyph glyph-name="tcaron" unicode="&#x165;" horiz-adv-x="424" 
d="M249 0c-93 0 -125 65 -125 122v368h-94v10h94v104h10v-104h150v-10h-150v-368c0 -70 42 -112 114 -112h36v-10h-35zM357 537v5l78 163h9v-5l-78 -163h-9z" />
    <glyph glyph-name="Umacron" unicode="&#x16a;" horiz-adv-x="660" 
d="M330 -15c-146 0 -240 93 -240 252v463h10v-463c0 -153 90 -242 230 -242s230 89 230 242v463h10v-463c0 -159 -94 -252 -240 -252zM205 822v11h250v-11h-250z" />
    <glyph glyph-name="umacron" unicode="&#x16b;" horiz-adv-x="559" 
d="M255 -12c-94 0 -170 60 -170 184v328h10v-324c0 -123 72 -178 160 -178c79 0 151 48 204 111v391h10v-500h-10v94c-48 -54 -120 -106 -204 -106zM160 645v10h233v-10h-233z" />
    <glyph glyph-name="Uring" unicode="&#x16e;" horiz-adv-x="660" 
d="M330 -15c-146 0 -240 93 -240 252v463h10v-463c0 -153 90 -242 230 -242s230 89 230 242v463h10v-463c0 -159 -94 -252 -240 -252zM331 760c52 0 94 38 94 87c0 48 -42 87 -94 87c-51 0 -94 -39 -94 -87c0 -49 43 -87 94 -87zM331 749c-58 0 -105 44 -105 98
c0 53 47 97 105 97s105 -44 105 -97c0 -54 -47 -98 -105 -98z" />
    <glyph glyph-name="uring" unicode="&#x16f;" horiz-adv-x="559" 
d="M255 -12c-94 0 -170 60 -170 184v328h10v-324c0 -123 72 -178 160 -178c79 0 151 48 204 111v391h10v-500h-10v94c-48 -54 -120 -106 -204 -106zM277 587c48 0 88 36 88 81s-40 81 -88 81s-88 -36 -88 -81s40 -81 88 -81zM277 577c-54 0 -98 41 -98 91s44 91 98 91
s98 -41 98 -91s-44 -91 -98 -91z" />
    <glyph glyph-name="Uhungarumlaut" unicode="&#x170;" horiz-adv-x="660" 
d="M330 -15c-146 0 -240 93 -240 252v463h10v-463c0 -153 90 -242 230 -242s230 89 230 242v463h10v-463c0 -159 -94 -252 -240 -252zM211 763l136 150h10v-5l-132 -145h-14zM389 763l136 150h10v-5l-132 -145h-14z" />
    <glyph glyph-name="uhungarumlaut" unicode="&#x171;" horiz-adv-x="559" 
d="M255 -12c-94 0 -170 60 -170 184v328h10v-324c0 -123 72 -178 160 -178c79 0 151 48 204 111v391h10v-500h-10v94c-48 -54 -120 -106 -204 -106zM167 590l127 140h9v-5l-123 -135h-13zM333 590l127 140h9v-5l-123 -135h-13z" />
    <glyph glyph-name="Uogonek" unicode="&#x172;" horiz-adv-x="660" 
d="M439 -160c-58 0 -93 28 -93 73c0 22 13 49 47 79c-20 -5 -41 -7 -63 -7c-146 0 -240 93 -240 252v463h10v-463c0 -153 90 -242 230 -242s230 89 230 242v463h10v-463c0 -130 -58 -198 -136 -233c-56 -25 -78 -67 -78 -91c0 -45 33 -63 86 -63h47v-10h-50z" />
    <glyph glyph-name="uogonek" unicode="&#x173;" horiz-adv-x="559" 
d="M488 -160c-58 0 -93 26 -93 71c0 31 18 61 64 94v89c-48 -54 -120 -106 -204 -106c-94 0 -170 60 -170 184v328h10v-324c0 -123 72 -178 160 -178c79 0 151 48 204 111v391h10v-500c-46 -33 -64 -59 -64 -89c0 -43 33 -61 86 -61h47v-10h-50z" />
    <glyph glyph-name="Ydieresis" unicode="&#x178;" horiz-adv-x="596" 
d="M293 0v278l-273 417v5h9l269 -411l269 411h9v-5l-273 -417v-278h-10zM203 771v118h11v-118h-11zM383 771v118h11v-118h-11z" />
    <glyph glyph-name="Zacute" unicode="&#x179;" horiz-adv-x="558" 
d="M50 0v10l437 680h-424v10h436v-10l-437 -680h446v-10h-458zM248 762l136 151h10v-6l-132 -145h-14z" />
    <glyph glyph-name="zacute" unicode="&#x17a;" horiz-adv-x="501" 
d="M60 0v10l362 480h-344v10h357v-10l-362 -480h363v-10h-376zM209 590l127 140h9v-5l-123 -135h-13z" />
    <glyph glyph-name="Zdotaccent" unicode="&#x17b;" horiz-adv-x="558" 
d="M50 0v10l437 680h-424v10h436v-10l-437 -680h446v-10h-458zM265 768v118h11v-118h-11z" />
    <glyph glyph-name="zdotaccent" unicode="&#x17c;" horiz-adv-x="501" 
d="M60 0v10l362 480h-344v10h357v-10l-362 -480h363v-10h-376zM247 595v110h10v-110h-10z" />
    <glyph glyph-name="Zcaron" unicode="&#x17d;" horiz-adv-x="558" 
d="M50 0v10l437 680h-424v10h436v-10l-437 -680h446v-10h-458zM272 763l-132 145v5h10l128 -141l129 141h10v-5l-132 -145h-13z" />
    <glyph glyph-name="zcaron" unicode="&#x17e;" horiz-adv-x="501" 
d="M60 0v10l362 480h-344v10h357v-10l-362 -480h363v-10h-376zM243 590l-123 135v5h9l120 -132l120 132h9v-5l-123 -135h-12z" />
    <glyph glyph-name="florin" unicode="&#x192;" horiz-adv-x="378" 
d="M78 500h94l6 73c7 88 56 134 138 134c16 0 32 -2 32 -2v-10s-17 2 -33 2c-74 0 -121 -42 -127 -124l-6 -73h150v-10h-151l-41 -528c-7 -88 -56 -134 -138 -134c-16 0 -32 2 -32 2v10s17 -2 33 -2c74 0 121 42 127 124l41 528h-93v10z" />
    <glyph glyph-name="scommaaccent" unicode="&#x219;" horiz-adv-x="523" 
d="M269 -12c-102 0 -209 46 -209 175h10c0 -123 107 -165 199 -165c113 0 174 54 174 125c0 67 -43 92 -134 116l-102 27c-91 24 -124 54 -124 121c0 70 63 125 177 125c106 0 189 -51 189 -170h-10c0 112 -77 160 -179 160c-108 0 -167 -49 -167 -115
c0 -60 29 -88 115 -111l102 -27c95 -26 143 -51 143 -126c0 -77 -62 -135 -184 -135zM203 -235v5l72 163h8v-5l-71 -163h-9z" />
    <glyph glyph-name="circumflex" unicode="&#x2c6;" horiz-adv-x="398" 
d="M70 590v5l123 135h12l123 -135v-5h-9l-120 132l-120 -132h-9z" />
    <glyph glyph-name="caron" unicode="&#x2c7;" horiz-adv-x="398" 
d="M193 590l-123 135v5h9l120 -132l120 132h9v-5l-123 -135h-12z" />
    <glyph glyph-name="breve" unicode="&#x2d8;" horiz-adv-x="394" 
d="M197 571c-86 0 -145 50 -145 137v12h10v-11c0 -82 55 -128 135 -128c79 0 135 46 135 128v11h10v-12c0 -87 -60 -137 -145 -137z" />
    <glyph glyph-name="dotaccent" unicode="&#x2d9;" horiz-adv-x="150" 
d="M70 595v110h10v-110h-10z" />
    <glyph glyph-name="ring" unicode="&#x2da;" horiz-adv-x="336" 
d="M168 587c48 0 88 36 88 81s-40 81 -88 81s-88 -36 -88 -81s40 -81 88 -81zM168 577c-54 0 -98 41 -98 91s44 91 98 91s98 -41 98 -91s-44 -91 -98 -91z" />
    <glyph glyph-name="ogonek" unicode="&#x2db;" horiz-adv-x="265" 
d="M153 -160c-58 0 -93 28 -93 73c0 24 16 54 58 87h16c-46 -33 -64 -63 -64 -87c0 -45 33 -63 86 -63h47v-10h-50z" />
    <glyph glyph-name="tilde" unicode="&#x2dc;" horiz-adv-x="491" 
d="M78 632l-8 6c48 60 67 77 99 77c24 0 44 -12 69 -30l22 -16c24 -18 43 -27 63 -27c29 0 45 17 90 73l8 -6c-47 -60 -67 -77 -99 -77c-24 0 -45 13 -69 30l-22 16c-25 18 -43 27 -63 27c-29 0 -45 -17 -90 -73z" />
    <glyph glyph-name="hungarumlaut" unicode="&#x2dd;" horiz-adv-x="442" 
d="M70 590l127 140h9v-5l-123 -135h-13zM236 590l127 140h9v-5l-123 -135h-13z" />
    <glyph glyph-name="brevecap" horiz-adv-x="438" 
d="M219 742c-86 0 -145 50 -145 137v9h10v-8c0 -82 55 -128 135 -128c79 0 135 46 135 128v8h10v-9c0 -87 -60 -137 -145 -137z" />
    <glyph glyph-name="uni03A9" unicode="&#x3a9;" horiz-adv-x="708" 
d="M85 0v10h175c-100 30 -160 112 -160 235v222c0 157 99 248 254 248c154 0 254 -91 254 -248v-222c0 -123 -61 -205 -160 -235h175v-10h-220v10c121 17 195 102 195 235v223c0 150 -95 238 -244 238s-244 -88 -244 -238v-223c0 -133 74 -218 195 -235v-10h-220z" />
    <glyph glyph-name="pi" unicode="&#x3c0;" horiz-adv-x="624" 
d="M146 0v490h-106v10h544v-10h-106v-490h-10v490h-312v-490h-10z" />
    <glyph glyph-name="uni0401" unicode="&#x401;" horiz-adv-x="568" 
d="M100 0v700h408v-10h-398v-332h350v-10h-350v-338h398v-10h-408zM204 768v118h11v-118h-11zM384 768v118h11v-118h-11z" />
    <glyph glyph-name="uni0402" unicode="&#x402;" horiz-adv-x="707" 
d="M194 0v690h-184v10h463v-10h-269v-336c77 27 138 39 215 39c145 0 233 -77 233 -196s-65 -197 -189 -197h-53v10h53c118 0 179 75 179 187c0 117 -93 186 -223 186c-80 0 -137 -12 -215 -40v-343h-10z" />
    <glyph glyph-name="uni0403" unicode="&#x403;" horiz-adv-x="558" 
d="M270 762l136 151h10v-6l-132 -145h-14zM100 0v700h408v-10h-398v-690h-10z" />
    <glyph glyph-name="afii10053" unicode="&#x404;" horiz-adv-x="656" 
d="M339 -15c-158 0 -259 93 -259 252v226c0 159 101 252 259 252c131 0 247 -80 247 -227v-10h-10v10c0 141 -111 217 -237 217c-152 0 -249 -89 -249 -242v-107h346v-10h-346v-109c0 -153 97 -242 249 -242c126 0 237 76 237 217v10h10v-10c0 -147 -116 -227 -247 -227z
" />
    <glyph glyph-name="afii10054" unicode="&#x405;" horiz-adv-x="611" 
d="M319 -15c-129 0 -264 68 -264 242h10c0 -167 132 -232 254 -232c142 0 212 73 212 165c0 82 -50 126 -156 166l-126 48c-125 47 -168 82 -168 173c0 97 79 168 217 168c132 0 240 -69 240 -236h-10c0 166 -112 226 -230 226c-130 0 -207 -67 -207 -158
c0 -81 40 -117 137 -153l124 -47c118 -44 189 -85 189 -187c0 -97 -71 -175 -222 -175z" />
    <glyph glyph-name="uni0406" unicode="&#x406;" horiz-adv-x="210" 
d="M100 0v700h10v-700h-10z" />
    <glyph glyph-name="uni0407" unicode="&#x407;" horiz-adv-x="210" 
d="M100 0v700h10v-700h-10zM10 768v118h11v-118h-11zM190 768v118h11v-118h-11z" />
    <glyph glyph-name="uni0408" unicode="&#x408;" horiz-adv-x="555" 
d="M247 -15c-132 0 -217 78 -217 212v25h10v-25c0 -127 81 -202 207 -202c127 0 208 75 208 202v503h10v-503c0 -134 -86 -212 -218 -212z" />
    <glyph glyph-name="uni0409" unicode="&#x409;" horiz-adv-x="1079" 
d="M581 10h260c109 0 173 74 173 190s-64 190 -173 190h-260v-380zM186 358v342h395v-300h260c115 0 183 -78 183 -200s-68 -200 -183 -200h-270v690h-375v-332c0 -296 -51 -358 -167 -358v10c109 0 157 63 157 348z" />
    <glyph glyph-name="uni040A" unicode="&#x40a;" horiz-adv-x="1078" 
d="M110 0v700h10v-300h450v300h10v-300h260c115 0 183 -78 183 -200s-68 -200 -183 -200h-270v390h-450v-390h-10zM580 10h260c109 0 173 74 173 190s-64 190 -173 190h-260v-380z" />
    <glyph glyph-name="uni040B" unicode="&#x40b;" horiz-adv-x="723" 
d="M194 0v690h-184v10h463v-10h-269v-336c62 26 143 39 207 39c119 0 242 -38 242 -209v-184h-10v184c0 127 -69 199 -232 199c-69 0 -145 -14 -207 -41v-342h-10z" />
    <glyph glyph-name="uni040C" unicode="&#x40c;" horiz-adv-x="577" 
d="M100 0v700h10v-344h166l251 344h9v-5l-251 -344l262 -346v-5h-9l-261 346h-167v-346h-10zM276 762l136 151h10v-6l-132 -145h-14z" />
    <glyph glyph-name="uni040E" unicode="&#x40e;" horiz-adv-x="547" 
d="M211 5l75 168l-266 522v5h9l262 -516l227 516h9v-5l-307 -695h-9v5zM276 742c-86 0 -145 50 -145 137v9h10v-8c0 -82 55 -128 135 -128c79 0 135 46 135 128v8h10v-9c0 -87 -60 -137 -145 -137z" />
    <glyph glyph-name="uni040F" unicode="&#x40f;" horiz-adv-x="670" 
d="M330 -140v140h-230v700h10v-690h450v690h10v-700h-230v-140h-10z" />
    <glyph glyph-name="uni0410" unicode="&#x410;" horiz-adv-x="650" 
d="M30 0v5l289 695h12l289 -695v-5h-9l-91 218h-391l-90 -218h-9zM133 228h383l-191 461z" />
    <glyph glyph-name="uni0411" unicode="&#x411;" horiz-adv-x="633" 
d="M100 0v700h435v-10h-425v-290h280c115 0 183 -78 183 -200s-68 -200 -183 -200h-290zM110 10h280c109 0 173 74 173 190s-64 190 -173 190h-280v-380z" />
    <glyph glyph-name="uni0412" unicode="&#x412;" horiz-adv-x="638" 
d="M100 0v700h290c104 0 163 -66 163 -171c0 -99 -52 -150 -110 -164c74 -11 135 -69 135 -182c0 -111 -62 -183 -166 -183h-312zM110 10h299c100 0 159 68 159 174c0 107 -59 174 -159 174h-299v-348zM110 368h286c92 0 147 63 147 161c0 99 -54 161 -153 161h-280v-322z
" />
    <glyph glyph-name="uni0413" unicode="&#x413;" horiz-adv-x="558" 
d="M100 0v700h408v-10h-398v-690h-10z" />
    <glyph glyph-name="uni0414" unicode="&#x414;" horiz-adv-x="711" 
d="M35 -150v160h49c59 77 118 170 118 413v277h368v-690h96v-160h-10v150h-611v-150h-10zM98 10h462v680h-348v-267c0 -242 -56 -336 -114 -413z" />
    <glyph glyph-name="uni0415" unicode="&#x415;" horiz-adv-x="568" 
d="M100 0v700h408v-10h-398v-332h350v-10h-350v-338h398v-10h-408z" />
    <glyph glyph-name="uni0416" unicode="&#x416;" horiz-adv-x="826" 
d="M40 0v5l213 346l-201 344v5h9l201 -344h146v344h10v-344h146l201 344h9v-5l-201 -344l213 -346v-5h-9l-212 346h-147v-346h-10v346h-147l-212 -346h-9z" />
    <glyph glyph-name="uni0417" unicode="&#x417;" horiz-adv-x="592" 
d="M303 -15c-142 0 -241 84 -243 227h10c2 -137 97 -217 233 -217c138 0 219 77 219 197c0 102 -73 171 -192 171h-109v10h109c101 0 170 52 170 157c0 97 -71 176 -203 176c-129 0 -215 -79 -216 -218h-10c2 145 91 227 226 227c137 0 213 -82 213 -185
c0 -99 -59 -151 -135 -162c87 -11 157 -73 157 -176c0 -124 -83 -207 -229 -207z" />
    <glyph glyph-name="uni0418" unicode="&#x418;" horiz-adv-x="680" 
d="M100 0v700h10v-681l460 681h10v-700h-10v681l-460 -681h-10z" />
    <glyph glyph-name="uni0419" unicode="&#x419;" horiz-adv-x="680" 
d="M100 0v700h10v-681l460 681h10v-700h-10v681l-460 -681h-10zM340 742c-86 0 -145 50 -145 137v9h10v-8c0 -82 55 -128 135 -128c79 0 135 46 135 128v8h10v-9c0 -87 -60 -137 -145 -137z" />
    <glyph glyph-name="uni041A" unicode="&#x41a;" horiz-adv-x="577" 
d="M100 0v700h10v-344h166l251 344h9v-5l-251 -344l262 -346v-5h-9l-261 346h-167v-346h-10z" />
    <glyph glyph-name="uni041B" unicode="&#x41b;" horiz-adv-x="681" 
d="M29 0v10c109 0 157 63 157 348v342h395v-700h-10v690h-375v-332c0 -296 -51 -358 -167 -358z" />
    <glyph glyph-name="uni041C" unicode="&#x41c;" horiz-adv-x="788" 
d="M100 0v700h10l284 -420l284 420h10v-700h-10v681l-280 -414h-8l-280 414v-681h-10z" />
    <glyph glyph-name="uni041D" unicode="&#x41d;" horiz-adv-x="680" 
d="M100 0v700h10v-344h460v344h10v-700h-10v346h-460v-346h-10z" />
    <glyph glyph-name="uni041E" unicode="&#x41e;" horiz-adv-x="668" 
d="M334 -5c149 0 244 88 244 238v234c0 150 -95 238 -244 238s-244 -88 -244 -238v-234c0 -150 95 -238 244 -238zM334 -15c-155 0 -254 91 -254 248v234c0 157 99 248 254 248c154 0 254 -91 254 -248v-234c0 -157 -100 -248 -254 -248z" />
    <glyph glyph-name="uni041F" unicode="&#x41f;" horiz-adv-x="674" 
d="M100 0v700h474v-700h-10v690h-454v-690h-10z" />
    <glyph glyph-name="uni0420" unicode="&#x420;" horiz-adv-x="608" 
d="M100 0v700h270c115 0 183 -78 183 -200s-68 -200 -183 -200h-260v-300h-10zM110 310h260c109 0 173 74 173 190s-64 190 -173 190h-260v-380z" />
    <glyph glyph-name="uni0421" unicode="&#x421;" horiz-adv-x="656" 
d="M339 -15c-158 0 -259 93 -259 252v226c0 159 101 252 259 252c131 0 247 -80 247 -227v-10h-10v10c0 141 -111 217 -237 217c-152 0 -249 -89 -249 -242v-226c0 -153 97 -242 249 -242c126 0 237 76 237 217v10h10v-10c0 -147 -116 -227 -247 -227z" />
    <glyph glyph-name="uni0422" unicode="&#x422;" horiz-adv-x="540" 
d="M265 0v690h-235v10h480v-10h-235v-690h-10z" />
    <glyph glyph-name="uni0423" unicode="&#x423;" horiz-adv-x="547" 
d="M211 5l75 168l-266 522v5h9l262 -516l227 516h9v-5l-307 -695h-9v5z" />
    <glyph glyph-name="uni0424" unicode="&#x424;" horiz-adv-x="772" 
d="M381 -12v105h-71c-152 0 -250 81 -250 219v74c0 138 98 219 250 219h71v95h10v-95h71c152 0 250 -81 250 -219v-74c0 -138 -98 -219 -250 -219h-71v-105h-10zM310 103h71v492h-71c-146 0 -240 -77 -240 -209v-74c0 -132 94 -209 240 -209zM391 103h71
c146 0 240 77 240 209v74c0 132 -94 209 -240 209h-71v-492z" />
    <glyph glyph-name="uni0425" unicode="&#x425;" horiz-adv-x="586" 
d="M40 0v5l246 347l-246 343v5h9l244 -341l244 341h9v-5l-246 -344l246 -346v-5h-9l-244 344l-244 -344h-9z" />
    <glyph glyph-name="uni0426" unicode="&#x426;" horiz-adv-x="711" 
d="M656 -150v150h-556v700h10v-690h450v690h10v-690h96v-160h-10z" />
    <glyph glyph-name="uni0427" unicode="&#x427;" horiz-adv-x="629" 
d="M519 0v346c-62 -26 -143 -39 -207 -39c-119 0 -242 38 -242 209v184h10v-184c0 -127 69 -199 232 -199c69 0 145 14 207 41v342h10v-700h-10z" />
    <glyph glyph-name="uni0428" unicode="&#x428;" horiz-adv-x="938" 
d="M100 0v700h10v-690h354v690h10v-690h354v690h10v-700h-738z" />
    <glyph glyph-name="uni0429" unicode="&#x429;" horiz-adv-x="979" 
d="M924 -150v150h-824v700h10v-690h354v690h10v-690h354v690h10v-690h96v-160h-10z" />
    <glyph glyph-name="uni042A" unicode="&#x42a;" horiz-adv-x="713" 
d="M205 0v690h-185v10h195v-300h260c115 0 183 -78 183 -200s-68 -200 -183 -200h-270zM215 10h260c109 0 173 74 173 190s-64 190 -173 190h-260v-380z" />
    <glyph glyph-name="uni042B" unicode="&#x42b;" horiz-adv-x="840" 
d="M730 0v700h10v-700h-10zM100 0v700h10v-300h260c115 0 183 -78 183 -200s-68 -200 -183 -200h-270zM110 10h260c109 0 173 74 173 190s-64 190 -173 190h-260v-380z" />
    <glyph glyph-name="uni042C" unicode="&#x42c;" horiz-adv-x="608" 
d="M100 0v700h10v-300h260c115 0 183 -78 183 -200s-68 -200 -183 -200h-270zM110 10h260c109 0 173 74 173 190s-64 190 -173 190h-260v-380z" />
    <glyph glyph-name="uni042D" unicode="&#x42d;" horiz-adv-x="656" 
d="M317 -15c-131 0 -247 80 -247 227v10h10v-10c0 -141 111 -217 237 -217c152 0 249 89 249 242v109h-346v10h346v107c0 153 -97 242 -249 242c-126 0 -237 -76 -237 -217v-10h-10v10c0 147 116 227 247 227c158 0 259 -93 259 -252v-226c0 -159 -101 -252 -259 -252z" />
    <glyph glyph-name="uni042E" unicode="&#x42e;" horiz-adv-x="900" 
d="M576 -15c-149 0 -244 87 -244 238v123h-222v-346h-10v700h10v-344h222v121c0 151 95 238 244 238c148 0 244 -87 244 -238v-254c0 -151 -96 -238 -244 -238zM576 -5c143 0 234 84 234 228v254c0 144 -91 228 -234 228s-234 -84 -234 -228v-254c0 -144 91 -228 234 -228z
" />
    <glyph glyph-name="uni042F" unicode="&#x42f;" horiz-adv-x="617" 
d="M52 0v5l196 305c-122 0 -184 76 -184 195s66 195 178 195h275v-700h-10v310h-246l-200 -310h-9zM242 320h265v370h-265c-106 0 -168 -72 -168 -185s62 -185 168 -185z" />
    <glyph glyph-name="uni0430" unicode="&#x430;" 
d="M216 -12c-86 0 -161 42 -161 140c0 100 75 151 208 151h164v79c0 81 -53 144 -167 144c-106 0 -166 -61 -166 -144h-10c0 87 59 154 176 154c120 0 177 -67 177 -154v-358h-10v83c-35 -32 -117 -95 -211 -95zM216 -2c94 0 176 67 211 99v172h-164
c-126 0 -198 -47 -198 -141s74 -130 151 -130z" />
    <glyph glyph-name="uni0431" unicode="&#x431;" horiz-adv-x="530" 
d="M269 -12c-129 0 -194 81 -194 186v187c0 123 41 199 165 235l109 32c63 18 79 38 79 70v7h10v-7c0 -35 -12 -58 -86 -80l-109 -32c-116 -34 -158 -103 -158 -225v-21c46 51 117 106 204 106c116 0 174 -81 174 -186v-86c0 -105 -63 -186 -194 -186zM269 -2
c125 0 184 77 184 176v86c0 99 -55 176 -164 176c-85 0 -154 -55 -204 -110v-152c0 -102 66 -176 184 -176z" />
    <glyph glyph-name="uni0432" unicode="&#x432;" horiz-adv-x="530" 
d="M90 0v500h224c84 0 132 -48 132 -126c0 -72 -38 -110 -87 -121c60 -8 109 -47 109 -125s-50 -128 -134 -128h-244zM100 10h231c80 0 127 47 127 118c0 72 -47 118 -127 118h-231v-236zM100 256h218c73 0 117 46 117 117c0 72 -43 117 -122 117h-213v-234z" />
    <glyph glyph-name="uni0433" unicode="&#x433;" horiz-adv-x="445" 
d="M90 0v500h305v-10h-295v-490h-10z" />
    <glyph glyph-name="uni0434" unicode="&#x434;" horiz-adv-x="610" 
d="M38 -136v146h43c43 54 87 121 87 291v199h319v-490h78v-146h-10v136h-507v-136h-10zM95 10h382v480h-299v-189c0 -175 -42 -237 -83 -291z" />
    <glyph glyph-name="uni0435" unicode="&#x435;" 
d="M261 -12c-129 0 -194 81 -194 186v152c0 105 65 186 194 186c131 0 194 -81 194 -186v-76h-378v-76c0 -102 66 -176 184 -176c114 0 170 63 179 148h10c-8 -92 -70 -158 -189 -158zM77 260h368v66c0 99 -59 176 -184 176c-118 0 -184 -74 -184 -176v-66z" />
    <glyph glyph-name="uni0436" unicode="&#x436;" horiz-adv-x="768" 
d="M50 0v5l177 249l-170 241v5h9l171 -242h142v242h10v-242h141l172 242h9v-5l-170 -241l177 -249v-5h-9l-176 248h-144v-248h-10v248h-145l-175 -248h-9z" />
    <glyph glyph-name="uni0437" unicode="&#x437;" horiz-adv-x="509" 
d="M261 -12c-117 0 -194 60 -198 163h10c3 -96 77 -153 188 -153s173 53 173 136c0 72 -58 114 -154 114h-63v10h65c82 0 134 42 134 115c0 72 -53 129 -162 129c-100 0 -169 -56 -172 -153h-10c4 103 76 163 182 163c114 0 172 -62 172 -139c0 -71 -47 -115 -109 -119
c71 -6 127 -47 127 -120c0 -89 -65 -146 -183 -146z" />
    <glyph glyph-name="uni0438" unicode="&#x438;" horiz-adv-x="574" 
d="M90 0v500h10v-483l374 483h10v-500h-10v483l-374 -483h-10z" />
    <glyph glyph-name="uni0439" unicode="&#x439;" horiz-adv-x="574" 
d="M287 571c-86 0 -145 50 -145 137v12h10v-11c0 -82 55 -128 135 -128c79 0 135 46 135 128v11h10v-12c0 -87 -60 -137 -145 -137zM90 0v500h10v-483l374 483h10v-500h-10v483l-374 -483h-10z" />
    <glyph glyph-name="uni043A" unicode="&#x43a;" horiz-adv-x="498" 
d="M90 0v500h10v-242h132l200 242h9v-5l-199 -241l206 -249v-5h-9l-204 248h-135v-248h-10z" />
    <glyph glyph-name="uni043B" unicode="&#x43b;" horiz-adv-x="547" 
d="M20 0v10h2c93 0 119 98 119 284v206h316v-500h-10v490h-296v-196c0 -199 -31 -294 -129 -294h-2z" />
    <glyph glyph-name="uni043C" unicode="&#x43c;" horiz-adv-x="661" 
d="M90 0v500h10l228 -281l233 281h10v-500h-10v483l-228 -274h-10l-223 274v-483h-10z" />
    <glyph glyph-name="uni043D" unicode="&#x43d;" horiz-adv-x="564" 
d="M90 0v500h10v-245h364v245h10v-500h-10v245h-364v-245h-10z" />
    <glyph glyph-name="uni043E" unicode="&#x43e;" 
d="M261 -2c125 0 184 77 184 176v152c0 99 -59 176 -184 176c-118 0 -184 -74 -184 -176v-152c0 -102 66 -176 184 -176zM261 -12c-129 0 -194 81 -194 186v152c0 105 65 186 194 186c131 0 194 -81 194 -186v-152c0 -105 -63 -186 -194 -186z" />
    <glyph glyph-name="uni043F" unicode="&#x43f;" horiz-adv-x="560" 
d="M90 0v500h380v-500h-10v490h-360v-490h-10z" />
    <glyph glyph-name="uni0440" unicode="&#x440;" horiz-adv-x="553" 
d="M90 -160v660h10v-94c46 51 117 106 204 106c116 0 174 -81 174 -186v-152c0 -105 -58 -186 -174 -186c-87 0 -158 55 -204 106v-254h-10zM304 -2c109 0 164 77 164 176v152c0 99 -55 176 -164 176c-85 0 -154 -55 -204 -110v-284c50 -55 119 -110 204 -110z" />
    <glyph glyph-name="uni0441" unicode="&#x441;" horiz-adv-x="518" 
d="M261 -12c-129 0 -194 81 -194 186v152c0 105 65 186 194 186c123 0 194 -72 194 -167v-4h-10v4c0 89 -67 157 -184 157c-118 0 -184 -74 -184 -176v-152c0 -102 66 -176 184 -176s184 69 184 159v5h10v-5c0 -96 -70 -169 -194 -169z" />
    <glyph glyph-name="uni0442" unicode="&#x442;" horiz-adv-x="452" 
d="M221 0v490h-191v10h392v-10h-191v-490h-10z" />
    <glyph glyph-name="uni0443" unicode="&#x443;" horiz-adv-x="490" 
d="M175 -160v5l65 155l-210 495v5h9l206 -489l206 489h9v-5l-276 -655h-9z" />
    <glyph glyph-name="uni0444" unicode="&#x444;" horiz-adv-x="744" 
d="M367 -160v229c-36 -40 -86 -81 -156 -81c-91 0 -136 64 -136 148v228c0 84 45 148 136 148c70 0 120 -41 156 -81v274h10v-274c36 40 86 81 156 81c91 0 136 -64 136 -148v-228c0 -84 -45 -148 -136 -148c-70 0 -120 41 -156 81v-229h-10zM212 -2c67 0 117 43 155 85v334
c-38 42 -88 85 -155 85c-86 0 -127 -60 -127 -138v-228c0 -78 41 -138 127 -138zM532 -2c86 0 127 60 127 138v228c0 78 -41 138 -127 138c-67 0 -117 -43 -155 -85v-334c38 -42 88 -85 155 -85z" />
    <glyph glyph-name="uni0445" unicode="&#x445;" horiz-adv-x="500" 
d="M50 0v5l194 245l-193 245v5h9l190 -241l190 241h9v-5l-193 -245l194 -245v-5h-9l-191 242l-191 -242h-9z" />
    <glyph glyph-name="uni0446" unicode="&#x446;" horiz-adv-x="593" 
d="M538 -136v136h-448v500h10v-490h360v490h10v-490h78v-146h-10z" />
    <glyph glyph-name="uni0447" unicode="&#x447;" horiz-adv-x="520" 
d="M420 0v226c-51 -16 -123 -25 -172 -25c-112 0 -188 48 -188 150v149h10v-149c0 -97 76 -140 178 -140c59 0 122 9 172 26v263h10v-500h-10z" />
    <glyph glyph-name="uni0448" unicode="&#x448;" horiz-adv-x="746" 
d="M90 0v500h10v-490h268v490h10v-490h268v490h10v-500h-566z" />
    <glyph glyph-name="uni0449" unicode="&#x449;" horiz-adv-x="779" 
d="M724 -136v136h-634v500h10v-490h268v490h10v-490h268v490h10v-490h78v-146h-10z" />
    <glyph glyph-name="uni044A" unicode="&#x44a;" horiz-adv-x="583" 
d="M165 0v490h-155v10h165v-199h211c99 0 157 -59 157 -151c0 -91 -58 -150 -157 -150h-221zM175 10h211c93 0 147 55 147 140c0 86 -54 141 -147 141h-211v-281z" />
    <glyph glyph-name="uni044B" unicode="&#x44b;" horiz-adv-x="689" 
d="M90 0v500h10v-199h211c99 0 157 -59 157 -151c0 -91 -58 -150 -157 -150h-221zM100 10h211c93 0 147 55 147 140c0 86 -54 141 -147 141h-211v-281zM589 0v500h10v-500h-10z" />
    <glyph glyph-name="uni044C" unicode="&#x44c;" horiz-adv-x="518" 
d="M90 0v500h10v-199h221c99 0 157 -59 157 -151c0 -91 -58 -150 -157 -150h-231zM100 10h221c93 0 147 55 147 140c0 86 -54 141 -147 141h-221v-281z" />
    <glyph glyph-name="uni044D" unicode="&#x44d;" horiz-adv-x="524" 
d="M260 -12c-126 0 -197 74 -197 174h10c0 -94 67 -164 187 -164s187 75 187 179v67h-241v10h241v69c0 104 -67 179 -187 179c-119 0 -187 -69 -187 -161h-10c0 98 72 171 197 171c131 0 197 -82 197 -189v-146c0 -107 -66 -189 -197 -189z" />
    <glyph glyph-name="uni044E" unicode="&#x44e;" horiz-adv-x="717" 
d="M460 -12c-126 0 -189 79 -189 182v75h-171v-245h-10v500h10v-245h171v75c0 103 63 182 189 182c128 0 190 -79 190 -182v-160c0 -103 -62 -182 -190 -182zM460 -2c122 0 180 75 180 172v160c0 97 -58 172 -180 172c-115 0 -179 -72 -179 -172v-160
c0 -100 64 -172 179 -172z" />
    <glyph glyph-name="uni044F" unicode="&#x44f;" horiz-adv-x="519" 
d="M60 0v5l142 216c-81 6 -127 59 -127 140c0 85 52 139 141 139h213v-500h-10v221h-206l-144 -221h-9zM216 230h203v260h-203c-83 0 -131 -51 -131 -130c0 -80 48 -130 131 -130z" />
    <glyph glyph-name="uni0451" unicode="&#x451;" 
d="M261 -12c-129 0 -194 81 -194 186v152c0 105 65 186 194 186c131 0 194 -81 194 -186v-76h-378v-76c0 -102 66 -176 184 -176c114 0 170 63 179 148h10c-8 -92 -70 -158 -189 -158zM77 260h368v66c0 99 -59 176 -184 176c-118 0 -184 -74 -184 -176v-66zM173 595v110h10
v-110h-10zM341 595v110h10v-110h-10z" />
    <glyph glyph-name="uni0452" unicode="&#x452;" horiz-adv-x="579" 
d="M384 -172c-14 0 -28 2 -28 2v10s14 -2 28 -2c65 0 104 37 104 109v284c0 123 -72 178 -160 178c-79 0 -151 -48 -204 -111v-298h-10v567h-91v10h91v128h10v-128h255v-10h-255v-254c48 54 120 106 204 106c94 0 170 -60 170 -184v-288c0 -78 -41 -119 -114 -119z" />
    <glyph glyph-name="uni0453" unicode="&#x453;" horiz-adv-x="445" 
d="M215 590l127 140h9v-5l-123 -135h-13zM90 0v500h305v-10h-295v-490h-10z" />
    <glyph glyph-name="uni0454" unicode="&#x454;" horiz-adv-x="524" 
d="M264 -12c-131 0 -197 82 -197 189v146c0 107 66 189 197 189c125 0 197 -73 197 -171h-10c0 92 -68 161 -187 161c-120 0 -187 -75 -187 -179v-69h241v-10h-241v-67c0 -104 67 -179 187 -179s187 70 187 164h10c0 -100 -71 -174 -197 -174z" />
    <glyph glyph-name="uni0455" unicode="&#x455;" horiz-adv-x="523" 
d="M269 -12c-102 0 -209 46 -209 175h10c0 -123 107 -165 199 -165c113 0 174 54 174 125c0 67 -43 92 -134 116l-102 27c-91 24 -124 54 -124 121c0 70 63 125 177 125c106 0 189 -51 189 -170h-10c0 112 -77 160 -179 160c-108 0 -167 -49 -167 -115
c0 -60 29 -88 115 -111l102 -27c95 -26 143 -51 143 -126c0 -77 -62 -135 -184 -135z" />
    <glyph glyph-name="uni0456" unicode="&#x456;" horiz-adv-x="190" 
d="M90 0v500h10v-500h-10zM90 595v110h10v-110h-10z" />
    <glyph glyph-name="uni0457" unicode="&#x457;" horiz-adv-x="190" 
d="M6 595v110h10v-110h-10zM174 595v110h10v-110h-10zM90 0v500h10v-500h-10z" />
    <glyph glyph-name="uni0458" unicode="&#x458;" horiz-adv-x="190" 
d="M90 500h10v-553c0 -78 -41 -119 -114 -119c-14 0 -28 2 -28 2v10s14 -2 28 -2c65 0 104 37 104 109v553zM90 595v110h10v-110h-10z" />
    <glyph glyph-name="uni0459" unicode="&#x459;" horiz-adv-x="840" 
d="M20 0v10h2c93 0 119 98 119 284v206h301v-199h201c99 0 157 -59 157 -151c0 -91 -58 -150 -157 -150h-211v490h-281v-196c0 -199 -31 -294 -129 -294h-2zM442 10h201c93 0 147 55 147 140c0 86 -54 141 -147 141h-201v-281z" />
    <glyph glyph-name="uni045A" unicode="&#x45a;" horiz-adv-x="832" 
d="M90 0v500h10v-222h334v222h10v-222h203c92 0 145 -54 145 -139s-53 -139 -145 -139h-213v268h-334v-268h-10zM444 10h203c85 0 135 50 135 129s-50 129 -135 129h-203v-258z" />
    <glyph glyph-name="uni045B" unicode="&#x45b;" horiz-adv-x="564" 
d="M100 0v567h-91v10h91v128h10v-128h255v-10h-255v-254c48 54 120 106 204 106c94 0 170 -60 170 -184v-235h-10v231c0 123 -72 178 -160 178c-79 0 -151 -48 -204 -111v-298h-10z" />
    <glyph glyph-name="uni045C" unicode="&#x45c;" horiz-adv-x="498" 
d="M231 590l127 140h9v-5l-123 -135h-13zM90 0v500h10v-242h132l200 242h9v-5l-199 -241l206 -249v-5h-9l-204 248h-135v-248h-10z" />
    <glyph glyph-name="uni045E" unicode="&#x45e;" horiz-adv-x="490" 
d="M175 -160v5l65 155l-210 495v5h9l206 -489l206 489h9v-5l-276 -655h-9zM245 571c-86 0 -145 50 -145 137v12h10v-11c0 -82 55 -128 135 -128c79 0 135 46 135 128v11h10v-12c0 -87 -60 -137 -145 -137z" />
    <glyph glyph-name="uni045F" unicode="&#x45f;" horiz-adv-x="560" 
d="M275 -126v126h-185v500h10v-490h360v490h10v-500h-185v-126h-10z" />
    <glyph glyph-name="uni0490" unicode="&#x490;" horiz-adv-x="548" 
d="M100 0v700h388v130h10v-140h-388v-690h-10z" />
    <glyph glyph-name="uni0491" unicode="&#x491;" horiz-adv-x="440" 
d="M90 0v500h290v121h10v-131h-290v-490h-10z" />
    <glyph glyph-name="uni1E61" unicode="&#x1e61;" horiz-adv-x="523" 
d="M269 -12c-102 0 -209 46 -209 175h10c0 -123 107 -165 199 -165c113 0 174 54 174 125c0 67 -43 92 -134 116l-102 27c-91 24 -124 54 -124 121c0 70 63 125 177 125c106 0 189 -51 189 -170h-10c0 112 -77 160 -179 160c-108 0 -167 -49 -167 -115
c0 -60 29 -88 115 -111l102 -27c95 -26 143 -51 143 -126c0 -77 -62 -135 -184 -135zM259 595v110h10v-110h-10z" />
    <glyph glyph-name="uni1E63" unicode="&#x1e63;" horiz-adv-x="523" 
d="M269 -12c-102 0 -209 46 -209 175h10c0 -123 107 -165 199 -165c113 0 174 54 174 125c0 67 -43 92 -134 116l-102 27c-91 24 -124 54 -124 121c0 70 63 125 177 125c106 0 189 -51 189 -170h-10c0 112 -77 160 -179 160c-108 0 -167 -49 -167 -115
c0 -60 29 -88 115 -111l102 -27c95 -26 143 -51 143 -126c0 -77 -62 -135 -184 -135zM261 -182v110h10v-110h-10z" />
    <glyph glyph-name="endash" unicode="&#x2013;" horiz-adv-x="571" 
d="M70 308v10h431v-10h-431z" />
    <glyph glyph-name="emdash" unicode="&#x2014;" horiz-adv-x="794" 
d="M70 308v10h654v-10h-654z" />
    <glyph glyph-name="quoteleft" unicode="&#x2018;" horiz-adv-x="159" 
d="M119 705v-5l-85 -200h-9v5l85 200h9z" />
    <glyph glyph-name="quoteright" unicode="&#x2019;" horiz-adv-x="159" 
d="M25 500v5l85 200h9v-5l-85 -200h-9z" />
    <glyph glyph-name="quotesinglbase" unicode="&#x201a;" horiz-adv-x="169" 
d="M25 -82v5l85 200h9v-5l-85 -200h-9z" />
    <glyph glyph-name="quotedblleft" unicode="&#x201c;" horiz-adv-x="323" 
d="M283 705v-5l-85 -200h-9v5l85 200h9zM119 705v-5l-85 -200h-9v5l85 200h9z" />
    <glyph glyph-name="quotedblright" unicode="&#x201d;" horiz-adv-x="323" 
d="M25 500v5l85 200h9v-5l-85 -200h-9zM189 500v5l85 200h9v-5l-85 -200h-9z" />
    <glyph glyph-name="quotedblbase" unicode="&#x201e;" horiz-adv-x="333" 
d="M25 -82v5l85 200h9v-5l-85 -200h-9zM189 -82v5l85 200h9v-5l-85 -200h-9z" />
    <glyph glyph-name="dagger" unicode="&#x2020;" horiz-adv-x="516" 
d="M253 -160v625h-213v10h213v230h10v-230h213v-10h-213v-625h-10z" />
    <glyph glyph-name="daggerdbl" unicode="&#x2021;" horiz-adv-x="516" 
d="M253 -160v336h-213v10h213v279h-213v10h213v230h10v-230h213v-10h-213v-279h213v-10h-213v-336h-10z" />
    <glyph glyph-name="bullet" unicode="&#x2022;" horiz-adv-x="311" 
d="M156 234c-53 0 -86 29 -86 83v6c0 54 33 83 86 83c52 0 85 -29 85 -83v-6c0 -53 -33 -83 -85 -83z" />
    <glyph glyph-name="ellipsis" unicode="&#x2026;" horiz-adv-x="642" 
d="M80 0v123h10v-123h-10zM316 0v123h10v-123h-10zM552 0v123h10v-123h-10z" />
    <glyph glyph-name="perthousand" unicode="&#x2030;" horiz-adv-x="1058" 
d="M189 358c88 0 130 55 130 123v100c0 70 -42 124 -130 124c-83 0 -129 -52 -129 -124v-100c0 -71 46 -123 129 -123zM189 348c-92 0 -139 58 -139 134v99c0 76 47 134 139 134c94 0 140 -58 140 -134v-99c0 -76 -46 -134 -140 -134zM172 0v5l385 695h9v-5l-385 -695h-9z
M551 -5c88 0 130 55 130 123v100c0 70 -42 124 -130 124c-83 0 -129 -52 -129 -124v-100c0 -71 46 -123 129 -123zM551 -15c-92 0 -139 58 -139 134v99c0 76 47 134 139 134c94 0 140 -58 140 -134v-99c0 -76 -46 -134 -140 -134zM868 -5c88 0 130 55 130 123v100
c0 70 -42 124 -130 124c-83 0 -129 -52 -129 -124v-100c0 -71 46 -123 129 -123zM868 -15c-92 0 -139 58 -139 134v99c0 76 47 134 139 134c94 0 140 -58 140 -134v-99c0 -76 -46 -134 -140 -134z" />
    <glyph glyph-name="guilsinglleft" unicode="&#x2039;" horiz-adv-x="331" 
d="M253 62l-193 202l194 203h10v-5l-189 -198l188 -197v-5h-10z" />
    <glyph glyph-name="guilsinglright" unicode="&#x203a;" horiz-adv-x="331" 
d="M271 264l-193 -202h-10v5l188 197l-189 198v5h10z" />
    <glyph glyph-name="fraction" unicode="&#x2044;" horiz-adv-x="314" 
d="M-40 0v5l385 695h9v-5l-385 -695h-9z" />
    <glyph glyph-name="fourinferior" unicode="&#x2084;" horiz-adv-x="347" 
d="M164 700h10v-5l-131 -240h203v102h10v-102h71v-10h-71v-87h-10v87h-216v10z" />
    <glyph glyph-name="Euro" unicode="&#x20ac;" horiz-adv-x="662" 
d="M359 -15c-149 0 -244 93 -244 252v32h-85v10h85v141h-85v10h85v33c0 159 95 252 244 252c124 0 233 -80 233 -227v-10h-10v10c0 141 -104 217 -223 217c-143 0 -234 -89 -234 -242v-33h299v-10h-299v-141h299v-10h-299v-32c0 -153 91 -242 234 -242c119 0 223 76 223 217
v10h10v-10c0 -147 -109 -227 -233 -227z" />
    <glyph glyph-name="uni20B4" unicode="&#x20b4;" horiz-adv-x="623" 
d="M302 -15c-139 0 -214 78 -214 175c0 44 15 81 38 108h-86v10h543v-10h-443c-27 -28 -42 -64 -42 -108c0 -92 74 -165 204 -165c101 0 200 53 219 189h10c-18 -143 -121 -199 -229 -199zM40 419v10h426c26 27 46 65 46 117c0 84 -71 159 -195 159
c-102 0 -199 -51 -214 -189h-10c14 139 109 199 224 199c129 0 205 -77 205 -169c0 -53 -18 -88 -43 -117h104v-10h-543z" />
    <glyph glyph-name="uni20BD" unicode="&#x20bd;" horiz-adv-x="630" 
d="M135 0v149h-97v10h97v141h-97v10h97v390h257c115 0 183 -78 183 -200s-68 -200 -183 -200h-247v-141h231v-10h-231v-149h-10zM145 310h247c109 0 173 74 173 190s-64 190 -173 190h-247v-380z" />
    <glyph glyph-name="uni2116" unicode="&#x2116;" horiz-adv-x="1001" 
d="M100 0v700h10l416 -680v680h10v-700h-9l-417 680v-680h-10zM781 358c88 0 130 55 130 123v100c0 70 -42 124 -130 124c-83 0 -129 -52 -129 -124v-100c0 -71 46 -123 129 -123zM781 348c-92 0 -139 58 -139 134v99c0 76 47 134 139 134c94 0 140 -58 140 -134v-99
c0 -76 -46 -134 -140 -134zM642 237v10h279v-10h-279z" />
    <glyph glyph-name="trademark" unicode="&#x2122;" horiz-adv-x="645" 
d="M292 377v323h10l129 -179l131 179h10v-323h-10v307l-126 -172h-10l-124 172v-307h-10zM128 377v313h-108v10h226v-10h-108v-313h-10z" />
    <glyph glyph-name="Omega" unicode="&#x2126;" horiz-adv-x="708" 
d="M85 0v10h175c-100 30 -160 112 -160 235v222c0 157 99 248 254 248c154 0 254 -91 254 -248v-222c0 -123 -61 -205 -160 -235h175v-10h-220v10c121 17 195 102 195 235v222c0 150 -95 238 -244 238s-244 -88 -244 -238v-222c0 -133 74 -218 195 -235v-10h-220z" />
    <glyph glyph-name="partialdiff" unicode="&#x2202;" horiz-adv-x="530" 
d="M232 -12c-119 0 -182 72 -182 167c0 11 9 105 9 105c10 109 74 186 190 186c87 0 153 -55 195 -106c2 35 6 81 6 124c0 145 -63 233 -200 233c-53 0 -81 -7 -112 -16l1 11c29 9 71 15 111 15c146 0 210 -92 210 -243c0 -59 -16 -230 -21 -290c-9 -105 -78 -186 -207 -186
zM234 -2c118 0 186 74 195 176l14 152c-45 55 -110 110 -195 110c-109 0 -169 -73 -179 -176c0 0 -9 -94 -9 -103c0 -91 60 -159 174 -159z" />
    <glyph glyph-name="Delta" unicode="&#x2206;" horiz-adv-x="650" 
d="M30 0v5l289 695h12l289 -695v-5h-590zM43 10h564l-282 679z" />
    <glyph glyph-name="product" unicode="&#x220f;" horiz-adv-x="674" 
d="M100 -75v775h474v-775h-10v765h-454v-765h-10z" />
    <glyph glyph-name="summation" unicode="&#x2211;" horiz-adv-x="539" 
d="M60 -75v10l217 380l-217 375v10h408v-10h-395l217 -375l-217 -380h406v-10h-419z" />
    <glyph glyph-name="minus" unicode="&#x2212;" horiz-adv-x="498" 
d="M50 308v10h398v-10h-398z" />
    <glyph glyph-name="radical" unicode="&#x221a;" horiz-adv-x="585" 
d="M312 -75l-178 453h-123v10h130l175 -447l243 856h9v-5l-246 -867h-10z" />
    <glyph glyph-name="infinity" unicode="&#x221e;" horiz-adv-x="838" 
d="M219 139c-87 0 -149 69 -149 174s62 174 149 174c75 0 119 -57 188 -149l12 -16l12 16c69 92 113 149 188 149c87 0 149 -69 149 -174s-62 -174 -149 -174c-75 0 -119 57 -188 149l-12 16l-12 -16c-69 -92 -113 -149 -188 -149zM220 149c65 0 112 54 179 144l15 20
l-15 20c-68 91 -114 144 -179 144c-85 0 -140 -69 -140 -164c0 -96 55 -164 140 -164zM618 149c85 0 140 68 140 164c0 95 -55 164 -140 164c-65 0 -111 -53 -179 -144l-15 -20l15 -20c66 -91 114 -144 179 -144z" />
    <glyph glyph-name="integral" unicode="&#x222b;" horiz-adv-x="332" 
d="M-10 -160v10h31c85 0 140 57 140 152v536c0 101 58 162 148 162h33v-10h-31c-85 0 -140 -57 -140 -152v-536c0 -101 -58 -162 -148 -162h-33z" />
    <glyph glyph-name="approxequal" unicode="&#x2248;" horiz-adv-x="451" 
d="M58 411l-8 6c38 60 67 77 99 77c24 0 44 -12 69 -30l22 -16c24 -18 43 -27 63 -27c29 0 55 17 90 73l8 -6c-37 -60 -67 -77 -99 -77c-24 0 -45 13 -69 30l-22 16c-25 18 -43 27 -63 27c-29 0 -55 -17 -90 -73zM58 201l-8 6c38 60 67 77 99 77c24 0 44 -12 69 -30l22 -16
c24 -18 43 -27 63 -27c29 0 55 17 90 73l8 -6c-37 -60 -67 -77 -99 -77c-24 0 -45 13 -69 30l-22 16c-25 18 -43 27 -63 27c-29 0 -55 -17 -90 -73z" />
    <glyph glyph-name="notequal" unicode="&#x2260;" horiz-adv-x="536" 
d="M70 0v5l123 195h-123v10h130l131 207h-261v10h267l120 189h9v-5l-117 -184h117v-10h-123l-131 -207h254v-10h-261l-126 -200h-9z" />
    <glyph glyph-name="lessequal" unicode="&#x2264;" horiz-adv-x="460" 
d="M400 124l-350 194v10l350 194h10v-5l-349 -194l349 -194v-5h-10zM50 38v10h360v-10h-360z" />
    <glyph glyph-name="greaterequal" unicode="&#x2265;" horiz-adv-x="460" 
d="M50 124v5l349 194l-349 194v5h10l350 -194v-10l-350 -194h-10zM50 38v10h360v-10h-360z" />
    <glyph glyph-name="lozenge" unicode="&#x25ca;" horiz-adv-x="524" 
d="M257 0l-197 350l197 350h10l197 -350l-197 -350h-10zM262 10l190 340l-190 340l-190 -340z" />
    <glyph glyph-name="commaaccent" unicode="&#xf6c3;" horiz-adv-x="127" 
d="M20 -235v5l78 163h9v-5l-78 -163h-9z" />
    <glyph glyph-name="zero.onum" 
d="M261 -2c125 0 184 77 184 176v152c0 99 -59 176 -184 176c-118 0 -184 -74 -184 -176v-152c0 -102 66 -176 184 -176zM261 -12c-129 0 -194 81 -194 186v152c0 105 65 186 194 186c131 0 194 -81 194 -186v-152c0 -105 -63 -186 -194 -186z" />
    <glyph glyph-name="one.onum" horiz-adv-x="240" 
d="M130 0v490h-94v5l4 5h100v-500h-10z" />
    <glyph glyph-name="two.onum" horiz-adv-x="537" 
d="M70 0v10l180 112c82 51 211 108 211 224c0 96 -78 156 -185 156c-108 0 -197 -60 -197 -175h-10c0 121 94 185 207 185c112 0 195 -64 195 -166c0 -123 -135 -182 -215 -232l-168 -104h398v-10h-416z" />
    <glyph glyph-name="three.onum" horiz-adv-x="557" 
d="M281 -172c-129 0 -217 71 -221 186h10c4 -109 87 -176 211 -176c122 0 196 68 196 183c0 93 -67 161 -173 161h-71v10h74c95 0 150 61 150 149c0 85 -66 161 -184 161c-114 0 -193 -67 -193 -189h-10c0 127 83 199 203 199c124 0 194 -80 194 -171
c0 -89 -53 -142 -122 -154c79 -14 142 -71 142 -166c0 -122 -76 -193 -206 -193z" />
    <glyph glyph-name="four.onum" horiz-adv-x="533" 
d="M390 -160v160h-340v10l306 490h9v-5l-302 -485h327v201h10v-201h103v-10h-103v-160h-10z" />
    <glyph glyph-name="five.onum" horiz-adv-x="567" 
d="M288 -172c-116 0 -198 65 -215 180h11c17 -108 95 -170 204 -170c129 0 199 87 199 209c0 141 -79 207 -196 207c-70 0 -131 -32 -167 -73h-9l28 319h313v-10h-304l-26 -292c37 39 99 66 164 66c124 0 207 -71 207 -217c0 -126 -73 -219 -209 -219z" />
    <glyph glyph-name="six.onum" horiz-adv-x="560" 
d="M280 -12c-142 0 -215 87 -215 216c0 77 25 123 66 188l195 308h9v-5l-212 -334c36 38 91 60 161 60c141 0 211 -88 211 -217s-74 -216 -215 -216zM280 -2c135 0 205 84 205 206c0 121 -64 207 -201 207c-114 0 -209 -69 -209 -207c0 -122 70 -206 205 -206z" />
    <glyph glyph-name="seven.onum" horiz-adv-x="523" 
d="M216 -160v5l245 645h-391v-175h-10v185h413v-10l-249 -650h-8z" />
    <glyph glyph-name="eight.onum" horiz-adv-x="594" 
d="M297 -15c-150 0 -227 79 -227 199c0 112 77 168 157 183c-65 12 -132 64 -132 164c0 106 71 184 202 184s202 -78 202 -184c0 -100 -67 -152 -132 -164c79 -15 157 -71 157 -183c0 -120 -77 -199 -227 -199zM296 -5c151 0 218 81 218 189c0 87 -55 178 -205 178h-24
c-149 0 -205 -91 -205 -178c0 -108 67 -189 216 -189zM285 372h24c130 0 180 73 180 164c0 95 -67 169 -192 169c-124 0 -192 -74 -192 -169c0 -91 50 -164 180 -164z" />
    <glyph glyph-name="nine.onum" horiz-adv-x="560" 
d="M252 -160v5l185 294c-36 -38 -91 -60 -161 -60c-141 0 -211 88 -211 217s74 216 215 216c142 0 215 -87 215 -216c0 -77 -25 -123 -66 -188l-168 -268h-9zM276 89c114 0 209 69 209 207c0 122 -70 206 -205 206s-205 -84 -205 -206c0 -121 64 -207 201 -207z" />
    <glyph glyph-name="uniF653" unicode="&#xf653;" horiz-adv-x="523" 
d="M259 -89v77c-99 3 -199 50 -199 175h10c0 -123 107 -165 199 -165c113 0 174 54 174 125c0 67 -43 92 -134 116l-102 27c-91 24 -124 54 -124 121c0 70 63 125 176 125v76h10v-76c101 -3 180 -55 180 -170h-10c0 112 -77 160 -179 160c-108 0 -167 -49 -167 -115
c0 -60 29 -88 115 -111l102 -27c95 -26 143 -51 143 -126c0 -77 -62 -135 -184 -135v-77h-10z" />
    <glyph glyph-name="uniF64E" unicode="&#xf64e;" horiz-adv-x="543" 
d="M286 -12c-129 0 -194 81 -194 186v13h-69v10h69v98h-69v10h69v21c0 105 65 186 194 186c123 0 194 -72 194 -167v-4h-10v4c0 89 -67 157 -184 157c-118 0 -184 -74 -184 -176v-21h221v-10h-221v-98h221v-10h-221v-13c0 -102 66 -176 184 -176s184 69 184 159v5h10v-5
c0 -96 -70 -169 -194 -169z" />
    <glyph glyph-name="uniF725" unicode="&#xf725;" horiz-adv-x="502" 
d="M23 0v10h75v227h-75v10h75v79c0 105 59 186 177 186c112 0 177 -72 177 -167v-4h-10v4c0 89 -61 157 -167 157c-107 0 -167 -74 -167 -176v-79h197v-10h-197v-227h344v-10h-429z" />
    <glyph glyph-name="uniF727" unicode="&#xf727;" horiz-adv-x="499" 
d="M244 0v91h-165v10h165v98h-165v10h158l-192 286v5h9l194 -291h1l196 291h9v-5l-193 -286h149v-10h-156v-98h156v-10h-156v-91h-10z" />
    <glyph glyph-name="uniF722" unicode="&#xf722;" horiz-adv-x="520" 
d="M100 0v91h-77v10h77v98h-77v10h77v291h223c99 0 157 -59 157 -150c0 -92 -58 -151 -157 -151h-213v-98h203v-10h-203v-91h-10zM110 209h213c93 0 147 55 147 141c0 85 -54 140 -147 140h-213v-281z" />
    <glyph glyph-name="uniF721" unicode="&#xf721;" horiz-adv-x="546" 
d="M271 -12c-114 0 -173 56 -173 126c0 30 12 56 28 76h-76v10h446v-10h-356c-20 -21 -32 -46 -32 -76c0 -65 59 -116 163 -116c81 0 161 36 174 133h11c-13 -103 -98 -143 -185 -143zM50 298v10h354c19 20 34 47 34 79c0 64 -55 115 -157 115c-81 0 -159 -36 -169 -133h-10
c11 100 87 143 181 143c104 0 165 -55 165 -125c0 -33 -13 -58 -31 -79h79v-10h-446z" />
    <glyph glyph-name="zero.onum.mono" horiz-adv-x="588" 
d="M294 -12c-129 0 -194 81 -194 186v152c0 105 65 186 194 186c131 0 194 -81 194 -186v-152c0 -105 -63 -186 -194 -186zM110 174c0 -43 12 -84 35 -112l294 382c-30 35 -78 58 -145 58c-118 0 -184 -74 -184 -176v-152zM294 -2c125 0 184 77 184 176v152
c0 40 -11 79 -32 109l-295 -381c31 -36 79 -56 143 -56z" />
    <glyph glyph-name="one.onum.mono" horiz-adv-x="588" 
d="M106 0v10h183v480h-134v5l4 5h140v-490h183v-10h-376z" />
    <glyph glyph-name="two.onum.mono" horiz-adv-x="588" 
d="M92 0v10l180 112c82 51 211 108 211 224c0 96 -78 156 -185 156c-108 0 -197 -60 -197 -175h-10c0 121 94 185 207 185c112 0 195 -64 195 -166c0 -123 -135 -182 -215 -232l-168 -104h398v-10h-416z" />
    <glyph glyph-name="three.onum.mono" horiz-adv-x="588" 
d="M301 -172c-129 0 -217 71 -221 186h10c4 -109 87 -176 211 -176c122 0 196 68 196 183c0 93 -67 161 -173 161h-71v10h74c95 0 150 61 150 149c0 85 -66 161 -184 161c-114 0 -193 -67 -193 -189h-10c0 127 83 199 203 199c124 0 194 -80 194 -171
c0 -89 -53 -142 -122 -154c79 -14 142 -71 142 -166c0 -122 -76 -193 -206 -193z" />
    <glyph glyph-name="four.onum.mono" horiz-adv-x="588" 
d="M410 -160v160h-340v10l306 490h9v-5l-302 -485h327v201h10v-201h103v-10h-103v-160h-10z" />
    <glyph glyph-name="five.onum.mono" horiz-adv-x="588" 
d="M298 -172c-116 0 -198 65 -215 180h11c17 -108 95 -170 204 -170c129 0 199 87 199 209c0 141 -79 207 -196 207c-70 0 -131 -32 -167 -73h-9l28 319h313v-10h-304l-26 -292c37 39 99 66 164 66c124 0 207 -71 207 -217c0 -126 -73 -219 -209 -219z" />
    <glyph glyph-name="six.onum.mono" horiz-adv-x="588" 
d="M295 -15c-142 0 -215 87 -215 216c0 77 25 123 66 188l195 311h9v-5l-212 -337c36 38 91 60 161 60c141 0 211 -88 211 -217s-74 -216 -215 -216zM295 -5c135 0 205 84 205 206c0 121 -64 207 -201 207c-114 0 -209 -69 -209 -207c0 -122 70 -206 205 -206z" />
    <glyph glyph-name="seven.onum.mono" horiz-adv-x="588" 
d="M246 -160v5l245 645h-391v-175h-10v185h413v-10l-249 -650h-8z" />
    <glyph glyph-name="eight.onum.mono" horiz-adv-x="588" 
d="M294 -15c-150 0 -227 79 -227 199c0 112 77 168 157 183c-65 12 -132 64 -132 164c0 106 71 184 202 184s202 -78 202 -184c0 -100 -67 -152 -132 -164c79 -15 157 -71 157 -183c0 -120 -77 -199 -227 -199zM293 -5c151 0 218 81 218 189c0 87 -55 178 -205 178h-24
c-149 0 -205 -91 -205 -178c0 -108 67 -189 216 -189zM282 372h24c130 0 180 73 180 164c0 95 -67 169 -192 169c-124 0 -192 -74 -192 -169c0 -91 50 -164 180 -164z" />
    <glyph glyph-name="nine.onum.mono" horiz-adv-x="588" 
d="M265 -160v5l185 294c-36 -38 -91 -60 -161 -60c-141 0 -211 88 -211 217s74 216 215 216c142 0 215 -87 215 -216c0 -77 -25 -123 -66 -188l-168 -268h-9zM289 89c114 0 209 69 209 207c0 122 -70 206 -205 206s-205 -84 -205 -206c0 -121 64 -207 201 -207z" />
    <glyph glyph-name="uniF653.mono" horiz-adv-x="588" 
d="M283 -89v77c-99 3 -199 50 -199 175h10c0 -123 107 -165 199 -165c113 0 174 54 174 125c0 67 -43 92 -134 116l-102 27c-91 24 -124 54 -124 121c0 70 63 125 176 125v76h10v-76c101 -3 180 -55 180 -170h-10c0 112 -77 160 -179 160c-108 0 -167 -49 -167 -115
c0 -60 29 -88 115 -111l102 -27c95 -26 143 -51 143 -126c0 -77 -62 -135 -184 -135v-77h-10z" />
    <glyph glyph-name="uniF64E.mono" horiz-adv-x="588" 
d="M310 -12c-129 0 -194 81 -194 186v13h-69v10h69v98h-69v10h69v21c0 105 65 186 194 186c123 0 194 -72 194 -167v-4h-10v4c0 89 -67 157 -184 157c-118 0 -184 -74 -184 -176v-21h221v-10h-221v-98h221v-10h-221v-13c0 -102 66 -176 184 -176s184 69 184 159v5h10v-5
c0 -96 -70 -169 -194 -169z" />
    <glyph glyph-name="uniF725.mono" horiz-adv-x="588" 
d="M63 0v10h75v227h-75v10h75v79c0 105 59 186 177 186c112 0 177 -72 177 -167v-4h-10v4c0 89 -61 157 -167 157c-107 0 -167 -74 -167 -176v-79h197v-10h-197v-227h344v-10h-429z" />
    <glyph glyph-name="uniF727.mono" horiz-adv-x="588" 
d="M288 0v91h-165v10h165v98h-165v10h158l-192 286v5h9l194 -291h1l196 291h9v-5l-193 -286h149v-10h-156v-98h156v-10h-156v-91h-10z" />
    <glyph glyph-name="uniF722.mono" horiz-adv-x="588" 
d="M128 0v91h-77v10h77v98h-77v10h77v291h223c99 0 157 -59 157 -150c0 -92 -58 -151 -157 -151h-213v-98h203v-10h-203v-91h-10zM138 209h213c93 0 147 55 147 141c0 85 -54 140 -147 140h-213v-281z" />
    <glyph glyph-name="uniF721.mono" horiz-adv-x="588" 
d="M283 -12c-114 0 -173 56 -173 126c0 30 12 56 28 76h-76v10h446v-10h-356c-20 -21 -32 -46 -32 -76c0 -65 59 -116 163 -116c81 0 161 36 174 133h11c-13 -103 -98 -143 -185 -143zM62 298v10h354c19 20 34 47 34 79c0 64 -55 115 -157 115c-81 0 -159 -36 -169 -133h-10
c11 100 87 143 181 143c104 0 165 -55 165 -125c0 -33 -13 -58 -31 -79h79v-10h-446z" />
    <glyph glyph-name="zero.mono" horiz-adv-x="588" 
d="M294 -15c-130 0 -213 76 -213 208v314c0 132 83 208 213 208c129 0 213 -76 213 -208v-314c0 -132 -84 -208 -213 -208zM91 193c0 -48 11 -88 32 -119l337 559c-35 47 -93 73 -166 73c-124 0 -203 -73 -203 -198v-315zM294 -5c124 0 203 73 203 198v315
c0 45 -11 84 -30 115l-337 -559c35 -45 92 -69 164 -69z" />
    <glyph glyph-name="one.mono" horiz-adv-x="588" 
d="M106 0v10h183v680h-134v5l4 5h140v-690h183v-10h-376z" />
    <glyph glyph-name="two.mono" horiz-adv-x="588" 
d="M83 0v10l212 217c61 62 170 166 170 286c0 123 -79 192 -187 192s-195 -69 -195 -202h-10c0 138 91 212 205 212s197 -73 197 -202c0 -127 -115 -234 -173 -293l-205 -210h402v-10h-416z" />
    <glyph glyph-name="three.mono" horiz-adv-x="588" 
d="M291 -15c-129 0 -217 76 -221 199h10c4 -117 87 -189 211 -189c122 0 196 72 196 196c0 99 -67 172 -173 172h-71v10h74c95 0 154 65 154 159c0 92 -66 174 -184 174c-114 0 -193 -72 -193 -203h-10c0 135 83 212 203 212c124 0 194 -85 194 -183
c0 -95 -57 -151 -126 -164c79 -15 142 -76 142 -177c0 -130 -76 -206 -206 -206z" />
    <glyph glyph-name="four.mono" horiz-adv-x="588" 
d="M410 0v183h-350v10l306 507h9v-5l-302 -502h337v218h10v-218h103v-10h-103v-183h-10z" />
    <glyph glyph-name="five.mono" horiz-adv-x="588" 
d="M298 -15c-116 0 -198 68 -215 188h11c17 -113 95 -178 204 -178c129 0 199 91 199 219c0 147 -79 216 -196 216c-70 0 -131 -33 -167 -76h-9l28 346h313v-10h-304l-26 -319c37 41 99 69 164 69c124 0 207 -73 207 -226c0 -132 -73 -229 -209 -229z" />
    <glyph glyph-name="six.mono" horiz-adv-x="588" 
d="M295 -15c-142 0 -215 87 -215 216c0 77 25 123 66 188l195 311h9v-5l-212 -337c36 38 91 60 161 60c141 0 211 -88 211 -217s-74 -216 -215 -216zM295 -5c135 0 205 84 205 206c0 121 -64 207 -201 207c-114 0 -209 -69 -209 -207c0 -122 70 -206 205 -206z" />
    <glyph glyph-name="seven.mono" horiz-adv-x="588" 
d="M230 0v5l261 685h-391v-175h-10v185h413v-10l-265 -690h-8z" />
    <glyph glyph-name="eight.mono" horiz-adv-x="588" 
d="M294 -15c-150 0 -227 79 -227 199c0 112 77 168 157 183c-65 12 -132 64 -132 164c0 106 71 184 202 184s202 -78 202 -184c0 -100 -67 -152 -132 -164c79 -15 157 -71 157 -183c0 -120 -77 -199 -227 -199zM293 -5c151 0 218 81 218 189c0 87 -55 178 -205 178h-24
c-149 0 -205 -91 -205 -178c0 -108 67 -189 216 -189zM282 372h24c130 0 180 73 180 164c0 95 -67 169 -192 169c-124 0 -192 -74 -192 -169c0 -91 50 -164 180 -164z" />
    <glyph glyph-name="nine.mono" horiz-adv-x="588" 
d="M238 0v5l212 337c-36 -38 -91 -60 -161 -60c-141 0 -211 88 -211 217s74 216 215 216c142 0 215 -87 215 -216c0 -77 -25 -123 -66 -188l-195 -311h-9zM293 705c-135 0 -205 -84 -205 -206c0 -121 64 -207 201 -207c114 0 209 69 209 207c0 122 -70 206 -205 206z" />
    <glyph glyph-name="dollar.mono" horiz-adv-x="588" 
d="M44 227h10c0 -167 132 -232 254 -232c142 0 212 73 212 165c0 82 -50 126 -156 166l-126 48c-125 47 -168 82 -168 173c0 97 79 168 217 168h4v95h10v-95c125 -5 226 -75 226 -236h-10c0 166 -112 226 -230 226c-130 0 -207 -67 -207 -158c0 -81 40 -117 137 -153
l124 -47c118 -44 189 -85 189 -187c0 -97 -71 -175 -222 -175h-7v-95h-10v96c-124 6 -247 74 -247 241z" />
    <glyph glyph-name="Euro.mono" horiz-adv-x="588" 
d="M318 -15c-149 0 -244 93 -244 252v32h-85v10h85v141h-85v10h85v33c0 159 95 252 244 252c124 0 233 -80 233 -227v-10h-10v10c0 141 -104 217 -223 217c-143 0 -234 -89 -234 -242v-33h299v-10h-299v-141h299v-10h-299v-32c0 -153 91 -242 234 -242c119 0 223 76 223 217
v10h10v-10c0 -147 -109 -227 -233 -227z" />
    <glyph glyph-name="sterling.mono" horiz-adv-x="588" 
d="M50 0v10h83v338h-83v10h83v171c0 105 65 186 194 186c123 0 194 -72 194 -167v-45h-10v45c0 89 -67 157 -184 157c-118 0 -184 -74 -184 -176v-171h219v-10h-219v-338h378v-10h-471z" />
    <glyph glyph-name="yen.mono" horiz-adv-x="588" 
d="M289 0v127h-220v10h220v141h-220v10h213l-266 407v5h9l269 -411l269 411h9v-5l-267 -407h214v-10h-220v-141h220v-10h-220v-127h-10z" />
    <glyph glyph-name="uni20BD.mono" horiz-adv-x="588" 
d="M118 0v149h-97v10h97v141h-97v10h97v390h257c115 0 183 -78 183 -200s-68 -200 -183 -200h-247v-141h231v-10h-231v-149h-10zM128 310h247c109 0 173 74 173 190s-64 190 -173 190h-247v-380z" />
    <glyph glyph-name="uni20B4.mono" horiz-adv-x="588" 
d="M285 -15c-139 0 -214 78 -214 175c0 44 15 81 38 108h-86v10h543v-10h-443c-27 -28 -42 -64 -42 -108c0 -92 74 -165 204 -165c101 0 200 53 219 189h10c-18 -143 -121 -199 -229 -199zM23 419v10h426c26 27 46 65 46 117c0 84 -71 159 -195 159
c-102 0 -199 -51 -214 -189h-10c14 139 109 199 224 199c129 0 205 -77 205 -169c0 -53 -18 -88 -43 -117h104v-10h-543z" />
    <glyph glyph-name="a.alt1" horiz-adv-x="553" 
d="M249 -12c-116 0 -174 81 -174 186v152c0 105 58 186 174 186c87 0 158 -55 204 -106v94h10v-500h-10v94c-46 -51 -117 -106 -204 -106zM249 -2c85 0 154 55 204 110v284c-50 55 -119 110 -204 110c-109 0 -164 -77 -164 -176v-152c0 -99 55 -176 164 -176z" />
    <glyph glyph-name="agrave.alt1" horiz-adv-x="553" 
d="M328 590l-123 135v5h9l127 -140h-13zM249 -12c-116 0 -174 81 -174 186v152c0 105 58 186 174 186c87 0 158 -55 204 -106v94h10v-500h-10v94c-46 -51 -117 -106 -204 -106zM249 -2c85 0 154 55 204 110v284c-50 55 -119 110 -204 110c-109 0 -164 -77 -164 -176v-152
c0 -99 55 -176 164 -176z" />
    <glyph glyph-name="aacute.alt1" horiz-adv-x="553" 
d="M240 590l127 140h9v-5l-123 -135h-13zM249 -12c-116 0 -174 81 -174 186v152c0 105 58 186 174 186c87 0 158 -55 204 -106v94h10v-500h-10v94c-46 -51 -117 -106 -204 -106zM249 -2c85 0 154 55 204 110v284c-50 55 -119 110 -204 110c-109 0 -164 -77 -164 -176v-152
c0 -99 55 -176 164 -176z" />
    <glyph glyph-name="acircumflex.alt1" horiz-adv-x="553" 
d="M249 -12c-116 0 -174 81 -174 186v152c0 105 58 186 174 186c87 0 158 -55 204 -106v94h10v-500h-10v94c-46 -51 -117 -106 -204 -106zM249 -2c85 0 154 55 204 110v284c-50 55 -119 110 -204 110c-109 0 -164 -77 -164 -176v-152c0 -99 55 -176 164 -176zM155 590v5
l123 135h12l123 -135v-5h-9l-120 132l-120 -132h-9z" />
    <glyph glyph-name="atilde.alt1" horiz-adv-x="553" 
d="M112 632l-8 6c48 60 67 77 99 77c24 0 44 -12 69 -30l22 -16c24 -18 43 -27 63 -27c29 0 45 17 90 73l8 -6c-47 -60 -67 -77 -99 -77c-24 0 -45 13 -69 30l-22 16c-25 18 -43 27 -63 27c-29 0 -45 -17 -90 -73zM249 -12c-116 0 -174 81 -174 186v152
c0 105 58 186 174 186c87 0 158 -55 204 -106v94h10v-500h-10v94c-46 -51 -117 -106 -204 -106zM249 -2c85 0 154 55 204 110v284c-50 55 -119 110 -204 110c-109 0 -164 -77 -164 -176v-152c0 -99 55 -176 164 -176z" />
    <glyph glyph-name="adieresis.alt1" horiz-adv-x="553" 
d="M249 -12c-116 0 -174 81 -174 186v152c0 105 58 186 174 186c87 0 158 -55 204 -106v94h10v-500h-10v94c-46 -51 -117 -106 -204 -106zM249 -2c85 0 154 55 204 110v284c-50 55 -119 110 -204 110c-109 0 -164 -77 -164 -176v-152c0 -99 55 -176 164 -176zM182 595v110
h10v-110h-10zM350 595v110h10v-110h-10z" />
    <glyph glyph-name="aring.alt1" horiz-adv-x="553" 
d="M276 587c48 0 88 36 88 81s-40 81 -88 81s-88 -36 -88 -81s40 -81 88 -81zM276 577c-54 0 -98 41 -98 91s44 91 98 91s98 -41 98 -91s-44 -91 -98 -91zM249 -12c-116 0 -174 81 -174 186v152c0 105 58 186 174 186c87 0 158 -55 204 -106v94h10v-500h-10v94
c-46 -51 -117 -106 -204 -106zM249 -2c85 0 154 55 204 110v284c-50 55 -119 110 -204 110c-109 0 -164 -77 -164 -176v-152c0 -99 55 -176 164 -176z" />
    <glyph glyph-name="amacron.alt1" horiz-adv-x="553" 
d="M249 -12c-116 0 -174 81 -174 186v152c0 105 58 186 174 186c87 0 158 -55 204 -106v94h10v-500h-10v94c-46 -51 -117 -106 -204 -106zM249 -2c85 0 154 55 204 110v284c-50 55 -119 110 -204 110c-109 0 -164 -77 -164 -176v-152c0 -99 55 -176 164 -176zM167 645v10
h233v-10h-233z" />
    <glyph glyph-name="aogonek.alt1" horiz-adv-x="553" 
d="M249 -12c-116 0 -174 81 -174 186v152c0 105 58 186 174 186c87 0 158 -55 204 -106v94h10v-500c-46 -33 -64 -59 -64 -89c0 -43 33 -61 86 -61h47v-10h-50c-58 0 -93 26 -93 71c0 31 18 61 64 94v89c-46 -51 -117 -106 -204 -106zM249 -2c85 0 154 55 204 110v284
c-50 55 -119 110 -204 110c-109 0 -164 -77 -164 -176v-152c0 -99 55 -176 164 -176z" />
    <glyph glyph-name="t.alt1" horiz-adv-x="372" 
d="M181 0v490h-151v10h151v205h10v-205h151v-10h-151v-490h-10z" />
    <glyph glyph-name="tcaron.alt1" horiz-adv-x="444" 
d="M181 0v490h-151v10h151v205h10v-205h151v-10h-151v-490h-10zM377 537v5l78 163h9v-5l-78 -163h-9z" />
    <glyph glyph-name="J.alt1" horiz-adv-x="555" 
d="M247 -15c-132 0 -217 78 -217 212v25h10v-25c0 -127 81 -202 207 -202c127 0 208 75 208 202v493h-298v10h308v-503c0 -134 -86 -212 -218 -212z" />
    <glyph glyph-name="ampersand.alt1" horiz-adv-x="626" 
d="M394 257v10h232v-10h-111v-21c0 -155 -89 -251 -229 -251c-132 0 -226 78 -226 208c0 115 77 179 155 192c-69 12 -123 66 -123 151c0 92 65 171 186 171c116 0 189 -59 203 -165h-10c-14 99 -82 155 -193 155c-115 0 -176 -75 -176 -161c0 -82 53 -146 167 -146h67v-10
h-67c-124 0 -199 -78 -199 -187c0 -124 92 -198 216 -198c135 0 219 93 219 241v21h-111z" />
    <glyph glyph-name="ampersand.alt2" horiz-adv-x="580" 
d="M226 0c-104 0 -166 72 -166 183c0 113 61 171 135 182c-58 14 -110 65 -110 164c0 105 59 171 163 171h104v-10h-104c-99 0 -153 -62 -153 -161c0 -98 55 -161 147 -161h216v152h10v-152h72v-10h-72v-358h-242zM229 10h229v348h-229c-100 0 -159 -67 -159 -174
c0 -106 59 -174 159 -174z" />
    <glyph glyph-name="at.alt1" horiz-adv-x="728" 
d="M342 -160c-152 0 -252 90 -252 224v417c0 134 100 224 252 224h44c152 0 252 -90 252 -224v-371h-10v83c-35 -32 -117 -95 -211 -95c-86 0 -161 42 -161 140c0 100 75 151 208 151h164v90c0 129 -96 216 -243 216h-42c-147 0 -243 -87 -243 -216v-413
c0 -129 96 -216 243 -216h91v-10h-92zM417 108c94 0 176 67 211 99v172h-164c-126 0 -198 -47 -198 -141s74 -130 151 -130z" />
    <glyph glyph-name="uni0430.alt1" horiz-adv-x="553" 
d="M249 -12c-116 0 -174 81 -174 186v152c0 105 58 186 174 186c87 0 158 -55 204 -106v94h10v-500h-10v94c-46 -51 -117 -106 -204 -106zM249 -2c85 0 154 55 204 110v284c-50 55 -119 110 -204 110c-109 0 -164 -77 -164 -176v-152c0 -99 55 -176 164 -176z" />
    <glyph glyph-name="uni0423.alt1" horiz-adv-x="547" 
d="M110 0v10h13c67 0 106 34 143 118l20 45l-266 522v5h9l262 -516l227 516h9v-5l-251 -568c-42 -95 -81 -127 -153 -127h-13z" />
    <glyph glyph-name="uni040E.alt1" horiz-adv-x="547" 
d="M276 742c-86 0 -145 50 -145 137v9h10v-8c0 -82 55 -128 135 -128c79 0 135 46 135 128v8h10v-9c0 -87 -60 -137 -145 -137zM110 0v10h13c67 0 106 34 143 118l20 45l-266 522v5h9l262 -516l227 516h9v-5l-251 -568c-42 -95 -81 -127 -153 -127h-13z" />
    </font>
</defs>
</svg>
