<svg width="512" height="512" viewBox="0 0 512 512" fill="none" xmlns="http://www.w3.org/2000/svg">
<g clip-path="url(#clip0_1825_9)">
<path fill-rule="evenodd" clip-rule="evenodd" d="M408.078 292.821C403.644 314.121 384.042 368.708 321.459 398.275L296.328 370.024L253.947 412.677C205.052 412.018 159.224 388.529 130.149 349.163C134.639 350.586 139.293 351.462 144.002 351.791C150.956 351.899 158.457 349.382 158.457 337.664V222.682C158.84 212.224 150.627 203.463 140.224 203.08C138.362 203.025 136.446 203.244 134.639 203.737C115.037 208.227 99.3231 257.231 99.3231 257.231C98.8852 211.457 118.597 167.764 153.255 137.814C182.494 113.066 211.02 104.469 232.758 101.129C211.349 113.34 199.249 133.27 199.249 150.024C199.249 176.853 215.456 173.678 220.274 169.735V325.015C221.095 326.987 222.136 328.794 223.395 330.49C227.775 336.513 234.729 340.074 242.176 339.963C258.383 339.963 279.463 321.458 279.463 321.458V195.689C279.463 182.876 269.826 167.436 260.189 162.18C260.189 162.18 278.039 159.058 291.892 169.571C294.466 166.395 297.256 163.384 300.159 160.482C332.301 128.944 362.579 119.965 387.821 115.475C387.821 115.475 341.882 151.557 341.882 199.904C341.882 235.877 342.813 323.648 342.813 323.648C359.895 340.074 385.247 316.366 408.133 292.821H408.078ZM256.028 0C397.402 0 512 114.599 512 255.972C512 397.346 397.402 511.943 256.028 512C114.654 512 0 397.399 0 256.027C0 114.654 114.599 0 255.973 0H256.028Z" fill="#424242"/>
</g>
<defs>
<clipPath id="clip0_1825_9">
<rect width="512" height="512" fill="white"/>
</clipPath>
</defs>
</svg>
