<svg width="192" height="192" viewBox="0 0 192 192" fill="none" xmlns="http://www.w3.org/2000/svg">
<g clip-path="url(#clip0_1825_13)">
<path fill-rule="evenodd" clip-rule="evenodd" d="M153.029 109.808C151.367 117.796 144.016 138.266 120.547 149.353L111.123 138.759L95.2303 154.754C76.8946 154.507 59.7088 145.698 48.806 130.936C50.4897 131.47 52.235 131.798 54.0008 131.922C56.6085 131.962 59.4214 131.018 59.4214 126.624V83.5057C59.5651 79.584 56.4853 76.2988 52.584 76.1551C51.8859 76.1345 51.1672 76.2166 50.4897 76.4015C43.139 78.0852 37.2462 96.4618 37.2462 96.4618C37.0819 79.2965 44.4737 62.9116 57.4708 51.6803C68.4353 42.3996 79.1327 39.176 87.2842 37.9235C79.256 42.5023 74.7182 49.9761 74.7182 56.2591C74.7182 66.32 80.7959 65.1291 82.6028 63.6508V121.881C82.9108 122.62 83.3009 123.298 83.7731 123.934C85.4158 126.193 88.0233 127.528 90.8158 127.486C96.8935 127.486 104.799 120.547 104.799 120.547V73.3832C104.799 68.5786 101.185 62.7884 97.571 60.8173C97.571 60.8173 104.265 59.6469 109.459 63.5892C110.425 62.3983 111.471 61.269 112.56 60.1808C124.613 48.3541 135.967 44.9867 145.433 43.303C145.433 43.303 128.206 56.834 128.206 74.9642C128.206 88.454 128.555 121.368 128.555 121.368C134.96 127.528 144.467 118.637 153.05 109.808H153.029ZM96.0106 0C149.026 0 192 42.9745 192 95.9894C192 149.005 149.026 191.979 96.0106 192C42.9953 192 0 149.025 0 96.01C0 42.9951 42.9748 0 95.99 0H96.0106Z" fill="#424242"/>
</g>
<defs>
<clipPath id="clip0_1825_13">
<rect width="192" height="192" fill="white"/>
</clipPath>
</defs>
</svg>
