<svg width="180" height="180" viewBox="0 0 180 180" fill="none" xmlns="http://www.w3.org/2000/svg">
<g clip-path="url(#clip0_1825_18)">
<path fill-rule="evenodd" clip-rule="evenodd" d="M143.465 102.945C141.906 110.433 135.015 129.624 113.013 140.018L104.178 130.086L89.2784 145.082C72.0887 144.85 55.977 136.592 45.7556 122.753C47.3341 123.253 48.9703 123.561 50.6258 123.677C53.0704 123.715 55.7076 122.83 55.7076 118.71V78.2866C55.8423 74.61 52.955 71.5301 49.2975 71.3954C48.6431 71.3761 47.9693 71.4531 47.3341 71.6264C40.4429 73.2049 34.9183 90.4329 34.9183 90.4329C34.7643 74.3405 41.6941 58.9797 53.8789 48.4503C64.1581 39.7496 74.1869 36.7275 81.8289 35.5533C74.3025 39.8459 70.0483 46.8526 70.0483 52.7429C70.0483 62.175 75.7462 61.0586 77.4401 59.6726V114.263C77.7289 114.956 78.0946 115.592 78.5373 116.188C80.0773 118.306 82.5219 119.557 85.1398 119.518C90.8376 119.518 98.2486 113.012 98.2486 113.012V68.7968C98.2486 64.2925 94.8607 58.8641 91.4728 57.0162C91.4728 57.0162 97.7481 55.919 102.618 59.6149C103.523 58.4984 104.504 57.4397 105.525 56.4195C116.825 45.3319 127.469 42.175 136.343 40.5966C136.343 40.5966 120.193 53.2819 120.193 70.2789C120.193 82.9257 120.52 113.783 120.52 113.783C126.525 119.557 135.438 111.222 143.484 102.945H143.465ZM90.0099 0C139.712 0 180 40.2886 180 89.9901C180 139.692 139.712 179.98 90.0099 180C40.3081 180 0 139.711 0 90.0094C0 40.3079 40.2889 0 89.9906 0H90.0099Z" fill="#424242"/>
</g>
<defs>
<clipPath id="clip0_1825_18">
<rect width="180" height="180" fill="white"/>
</clipPath>
</defs>
</svg>
