<svg width="16" height="16" viewBox="0 0 16 16" fill="none" xmlns="http://www.w3.org/2000/svg">
<g clip-path="url(#clip0_1874_12)">
<path fill-rule="evenodd" clip-rule="evenodd" d="M12.7524 9.15066C12.6139 9.81629 12.0013 11.5221 10.0456 12.4461L9.26026 11.5632L7.93585 12.8962C6.40789 12.8756 4.97574 12.1415 4.06717 10.9113C4.20748 10.9558 4.35291 10.9832 4.50007 10.9935C4.71737 10.9968 4.95179 10.9182 4.95179 10.552V6.95881C4.96376 6.632 4.70711 6.35823 4.382 6.34625C4.32383 6.34454 4.26394 6.35139 4.20748 6.36679C3.59492 6.5071 3.10385 8.03848 3.10385 8.03848C3.09016 6.60804 3.70614 5.24264 4.78923 4.30669C5.70294 3.5333 6.59439 3.26467 7.27368 3.16029C6.60466 3.54186 6.22652 4.16468 6.22652 4.68826C6.22652 5.52667 6.73299 5.42743 6.88357 5.30423V10.1567C6.90923 10.2183 6.94174 10.2748 6.98109 10.3278C7.11798 10.516 7.33528 10.6273 7.56798 10.6238C8.07446 10.6238 8.73321 10.0455 8.73321 10.0455V6.11527C8.73321 5.71489 8.43206 5.23236 8.13092 5.06811C8.13092 5.06811 8.68872 4.97057 9.12162 5.2991C9.20207 5.19986 9.28926 5.10575 9.37996 5.01507C10.3844 4.0295 11.3306 3.74889 12.1194 3.60859C12.1194 3.60859 10.6838 4.73617 10.6838 6.24701C10.6838 7.37117 10.7129 10.114 10.7129 10.114C11.2467 10.6273 12.039 9.88644 12.7541 9.15066H12.7524ZM8.00088 0C12.4188 0 16 3.58121 16 7.99912C16 12.417 12.4188 15.9982 8.00088 16C3.58294 16 0 12.4187 0 8.00083C0 3.58293 3.58123 0 7.99917 0H8.00088Z" fill="#424242"/>
</g>
<defs>
<clipPath id="clip0_1874_12">
<rect width="16" height="16" fill="white"/>
</clipPath>
</defs>
</svg>
