<svg width="16" height="16" viewBox="0 0 16 16" fill="none" xmlns="http://www.w3.org/2000/svg">
<path fill-rule="evenodd" clip-rule="evenodd" d="M11.5643 8.86299C11.4604 9.36222 11.001 10.6416 9.53419 11.3346L8.94519 10.6724L7.95189 11.6721C6.80591 11.6567 5.7318 11.1061 5.05038 10.1835C5.15561 10.2169 5.26469 10.2374 5.37505 10.2451C5.53803 10.2476 5.71384 10.1886 5.71384 9.91401V7.21911C5.72282 6.974 5.53033 6.76867 5.2865 6.75969C5.24287 6.75841 5.19795 6.76354 5.15561 6.77509C4.69619 6.88032 4.32789 8.02886 4.32789 8.02886C4.31762 6.95603 4.77961 5.93198 5.59192 5.23002C6.2772 4.64998 6.94579 4.4485 7.45526 4.37022C6.9535 4.65639 6.66989 5.12351 6.66989 5.51619C6.66989 6.145 7.04974 6.07057 7.16267 5.97817V9.61753C7.18192 9.66375 7.20631 9.7061 7.23582 9.74586C7.33848 9.88703 7.50146 9.97048 7.67599 9.96788C8.05584 9.96788 8.54991 9.53416 8.54991 9.53416V6.58645C8.54991 6.28616 8.32405 5.92427 8.09819 5.80108C8.09819 5.80108 8.51654 5.72793 8.84121 5.97432C8.90155 5.89989 8.96695 5.82931 9.03497 5.7613C9.78831 5.02213 10.4979 4.81167 11.0896 4.70644C11.0896 4.70644 10.0129 5.55213 10.0129 6.68526C10.0129 7.52838 10.0347 9.58551 10.0347 9.58551C10.435 9.97048 11.0292 9.41483 11.5656 8.86299H11.5643ZM8.00066 2C11.3141 2 14 4.68591 14 7.99934C14 11.3128 11.3141 13.9987 8.00066 14C4.68721 14 2 11.314 2 8.00063C2 4.68719 4.68593 2 7.99937 2H8.00066Z" fill="#424242"/>
</svg>
