<svg
        xmlns="http://www.w3.org/2000/svg"
        xmlns:xlink="http://www.w3.org/1999/xlink"
        width="8px" height="16px">
    <path fill-rule="evenodd"  fill="rgb(120, 122, 128)"
          d="M7.708,0.668 L5.857,0.665 C3.777,0.665 2.433,2.81 2.433,4.275 L2.433,5.939 L0.570,5.939 C0.410,5.939 0.279,6.74 0.279,6.238 L0.279,8.650 C0.279,8.815 0.410,8.949 0.570,8.949 L2.433,8.949 L2.433,15.33 C2.433,15.198 2.562,15.332 2.723,15.332 L5.152,15.332 C5.313,15.332 5.444,15.198 5.444,15.33 L5.444,8.949 L7.620,8.949 C7.781,8.949 7.911,8.815 7.911,8.650 L7.912,6.238 C7.912,6.159 7.881,6.83 7.827,6.26 C7.772,5.970 7.698,5.939 7.621,5.939 L5.444,5.939 L5.444,4.528 C5.444,3.850 5.600,3.506 6.461,3.506 L7.708,3.505 C7.868,3.505 7.998,3.371 7.998,3.206 L7.998,0.968 C7.998,0.803 7.868,0.668 7.708,0.668 Z"/>
</svg>