<svg
        xmlns="http://www.w3.org/2000/svg"
        xmlns:xlink="http://www.w3.org/1999/xlink"
        width="522px" height="68px">
    <path fill-rule="evenodd"  fill="rgb(30, 33, 44)"
          d="M521.999,66.601 L483.368,66.601 L483.368,65.670 L503.56,45.457 C508.720,39.681 518.842,29.993 518.842,18.816 C518.842,7.358 511.506,0.930 501.477,0.930 C491.448,0.930 483.368,7.358 483.368,19.747 L482.440,19.747 C482.440,6.891 490.890,0.0 501.477,0.0 C512.63,0.0 519.771,6.799 519.771,18.816 C519.771,30.646 509.91,40.612 503.705,46.109 L484.669,65.670 L521.999,65.670 L521.999,66.601 ZM431.587,65.670 L451.273,45.457 C456.938,39.681 467.60,29.993 467.60,18.816 C467.60,7.358 459.724,0.930 449.695,0.930 C439.666,0.930 431.587,7.358 431.587,19.747 L430.657,19.747 C430.657,6.891 439.108,0.0 449.695,0.0 C460.281,0.0 467.989,6.799 467.989,18.816 C467.989,30.646 457.310,40.612 451.923,46.109 L432.887,65.670 L470.217,65.670 L470.217,66.601 L431.587,66.601 L431.587,65.670 ZM397.883,67.999 C385.811,67.999 378.103,60.919 378.103,48.623 L378.103,19.374 C378.103,7.79 385.811,0.0 397.883,0.0 C409.862,0.0 417.663,7.79 417.663,19.374 L417.663,48.623 C417.663,60.919 409.862,67.999 397.883,67.999 ZM416.734,19.281 C416.734,7.637 409.398,0.837 397.883,0.837 C386.368,0.837 379.32,7.637 379.32,19.281 L379.32,48.623 C379.32,60.268 386.368,67.68 397.883,67.68 C409.398,67.68 416.734,60.268 416.734,48.623 L416.734,19.281 ZM325.392,65.670 L345.80,45.457 C350.744,39.681 360.867,29.993 360.867,18.816 C360.867,7.358 353.530,0.930 343.501,0.930 C333.472,0.930 325.392,7.358 325.392,19.747 L324.464,19.747 C324.464,6.891 332.915,0.0 343.501,0.0 C354.87,0.0 361.795,6.799 361.795,18.816 C361.795,30.646 351.116,40.612 345.730,46.109 L326.692,65.670 L364.23,65.670 L364.23,66.601 L325.392,66.601 L325.392,65.670 ZM265.324,1.397 L303.889,1.397 L303.889,2.328 L266.270,2.328 L266.270,33.254 L299.351,33.254 L299.351,34.185 L266.270,34.185 L266.270,65.670 L303.889,65.670 L303.889,66.601 L265.324,66.601 L265.324,1.397 ZM202.26,3.166 L202.26,66.601 L201.81,66.601 L201.81,1.397 L202.26,1.397 L245.505,64.925 L245.505,1.397 L246.450,1.397 L246.450,66.601 L245.600,66.601 L202.26,3.166 ZM181.236,1.397 L182.181,1.397 L182.181,66.602 L181.236,66.602 L181.236,1.397 ZM129.269,1.397 L130.214,1.397 L130.214,65.670 L168.967,65.670 L168.967,66.601 L129.269,66.601 L129.269,1.397 ZM65.971,3.166 L65.971,66.601 L65.25,66.601 L65.25,1.397 L65.971,1.397 L109.450,64.925 L109.450,1.397 L110.395,1.397 L110.395,66.601 L109.544,66.601 L65.971,3.166 ZM24.7,67.999 C9.357,67.999 0.0,59.522 0.0,44.897 L0.0,23.101 C0.0,8.476 9.357,0.0 24.7,0.0 C38.564,0.0 48.15,8.476 48.15,23.101 L48.15,44.897 C48.15,59.522 38.564,67.999 24.7,67.999 ZM47.70,23.101 C47.70,9.128 38.91,0.930 24.7,0.930 C9.924,0.930 0.945,9.128 0.945,23.101 L0.945,44.897 C0.945,58.871 9.924,67.68 24.7,67.68 C38.91,67.68 47.70,58.871 47.70,44.897 L47.70,23.101 Z"/>
</svg>