<?xml version="1.0" encoding="utf-8"?>
<!-- Generator: Adobe Illustrator 26.5.0, SVG Export Plug-In . SVG Version: 6.00 Build 0)  -->
<svg version="1.1" id="Layer_1" xmlns="http://www.w3.org/2000/svg" xmlns:xlink="http://www.w3.org/1999/xlink" x="0px" y="0px"
	 viewBox="0 0 298 298" style="enable-background:new 0 0 298 298;" xml:space="preserve">
<style type="text/css">
	.st0{fill:#FFFFFF;}
	.st1{fill-rule:evenodd;clip-rule:evenodd;fill:#FFFFFF;}
</style>
<path class="st0" d="M209.1,209.2C209.1,209.2,209.1,209.2,209.1,209.2c-1.1,0-2.1-0.4-2.8-1.2c-0.8-0.8-1.2-1.8-1.1-2.8
	c0-2.2,1.8-4,3.9-4c0,0,0,0,0,0c1.1,0,2.1,0.4,2.8,1.2c0.7,0.8,1.1,1.8,1.1,2.8C213,207.5,211.3,209.2,209.1,209.2z M209.1,202.3
	c-1.6,0-2.8,1.3-2.9,2.9c0,0.8,0.3,1.5,0.8,2c0.5,0.6,1.3,0.9,2.1,0.9c0,0,0,0,0,0c1.6,0,2.8-1.3,2.9-2.9c0-0.8-0.3-1.5-0.8-2
	C210.6,202.6,209.9,202.3,209.1,202.3C209.1,202.3,209.1,202.3,209.1,202.3z"/>
<path class="st0" d="M208.8,213.4c0,0-0.1,0-0.1,0c-2.4,0-4.6-1-6.2-2.7c-1.5-1.6-2.4-3.7-2.3-5.9c0.1-4.8,3.9-8.7,8.5-8.6
	c2.4,0,4.6,1,6.2,2.7c1.5,1.6,2.4,3.7,2.3,5.9C217,209.6,213.3,213.4,208.8,213.4z M208.5,197.3c-3.9,0-7.2,3.3-7.3,7.5
	c0,1.9,0.7,3.7,2,5.1c1.4,1.5,3.3,2.3,5.4,2.4c0,0,0.1,0,0.1,0c3.9,0,7.2-3.3,7.3-7.5c0-1.9-0.7-3.7-2-5.1c-1.4-1.5-3.3-2.3-5.4-2.4
	C208.6,197.3,208.6,197.3,208.5,197.3z"/>
<path class="st0" d="M208.2,217.3c-0.1,0-0.2,0-0.3,0c-3.7-0.1-7.1-1.6-9.6-4.2c-2.3-2.5-3.5-5.6-3.4-8.9
	c0.2-7.3,5.9-13.2,12.7-13.2c0.1,0,0.2,0,0.3,0c3.7,0.1,7.1,1.6,9.6,4.2c2.3,2.5,3.5,5.6,3.4,8.9C220.7,211.5,215,217.3,208.2,217.3
	z M207.6,192.1c-6.3,0-11.4,5.4-11.6,12.1c-0.1,3,1,5.9,3.1,8.2c2.3,2.4,5.4,3.8,8.8,3.9c0.1,0,0.2,0,0.3,0
	c6.3,0,11.4-5.4,11.6-12.1c0.1-3-1-5.9-3.1-8.2c-2.3-2.4-5.4-3.8-8.8-3.9C207.8,192.1,207.7,192.1,207.6,192.1z"/>
<path class="st0" d="M206.7,220.9c-4.3,0-8.7-1.9-12-5.2c-3.4-3.4-5.4-8-5.4-12.5c0-4.8,1.8-9.2,5.1-12.6c3.3-3.3,7.7-5.2,12.3-5.2
	c0,0,0.1,0,0.1,0c4.6,0,9,2,12.4,5.4c3.3,3.4,5.2,7.9,5.2,12.3c-0.1,9-8.6,17.7-17.5,17.7C206.8,220.9,206.8,220.9,206.7,220.9z
	 M206.7,186.5c-4.4,0-8.4,1.7-11.5,4.8c-3.1,3.2-4.8,7.3-4.8,11.8c0,4.3,1.9,8.6,5.1,11.8c3.2,3.1,7.4,4.9,11.4,4.9
	c8.4-0.1,16.4-8.2,16.4-16.7c0-4.1-1.7-8.3-4.8-11.5c-3.2-3.3-7.3-5.1-11.6-5.1C206.8,186.5,206.8,186.5,206.7,186.5z"/>
<path class="st0" d="M204.7,224.3c-5,0-10-2.1-14-6c-4.6-4.4-7.2-10.4-7.2-16.3c0-6.1,2.5-12.1,7-16.4c4.2-4.1,9.5-6.2,15.1-5.9
	c10.7,0.5,22.1,9.6,22,22.3c-0.1,12.2-11.7,21.8-22,22.3C205.3,224.3,205,224.3,204.7,224.3z M204.6,180.7c-4.9,0-9.6,2-13.4,5.6
	c-4.3,4.1-6.7,9.8-6.7,15.6c0,5.7,2.5,11.3,6.9,15.5c4.1,3.9,9.1,5.9,14,5.7c9.9-0.5,20.9-9.6,21-21.2c0.1-11.9-11-20.7-21-21.2
	C205.2,180.7,204.9,180.7,204.6,180.7z"/>
<path class="st0" d="M204.2,227.4c-0.1,0-0.2,0-0.3,0c-13.4-0.2-26.5-13.5-26.6-26.9c0-13.8,12.6-26.6,26.6-26.9
	c6.2-0.1,12.8,2.8,18,8c5.4,5.4,8.6,12.4,8.5,18.9c0,6.5-3.3,13.5-8.7,18.9C216.6,224.5,210.3,227.4,204.2,227.4z M204.3,174.7
	c-0.1,0-0.2,0-0.4,0c-13.1,0.3-25.5,12.8-25.5,25.8c0,12.8,12.6,25.6,25.5,25.8c5.9,0,12.1-2.7,17.1-7.7c5.2-5.2,8.4-12,8.4-18.1
	c0-6.2-3-13-8.2-18.1C216.3,177.4,210.2,174.7,204.3,174.7z"/>
<path class="st0" d="M202,230.3c-7.7,0-15.5-3.5-21.5-9.5c-6-6.1-9.5-14.1-9.5-21.9c0-8.3,3.3-16.1,9.2-22.2
	c5.9-6,13.7-9.3,21.8-9.3c0,0,0,0,0,0c7.8,0,15.6,3.5,21.6,9.6c6,6.1,9.5,14.1,9.4,21.9c-0.1,15.8-15.5,31.4-31.1,31.5
	C202.1,230.3,202,230.3,202,230.3z M202.1,168.4c-7.9,0-15.4,3.2-21.1,9c-5.7,5.8-8.9,13.4-8.9,21.4c0,7.6,3.3,15.3,9.2,21.2
	c5.8,5.9,13.4,9.2,20.7,9.2c0,0,0.1,0,0.1,0c15.1-0.1,29.9-15.1,30-30.4c0-7.5-3.3-15.2-9.1-21.1
	C217.2,171.8,209.6,168.4,202.1,168.4C202.1,168.4,202.1,168.4,202.1,168.4z"/>
<path class="st0" d="M200,233c-8.8,0-17.8-4-24.7-10.9c-6.9-6.9-10.8-16.1-10.8-25.1c0-9.5,3.7-18.5,10.5-25.4
	c6.8-6.9,15.7-10.7,25.1-10.7c0,0,0,0,0,0c8.9,0,17.9,4,24.8,11c6.9,7,10.9,16.2,10.8,25.1c-0.1,18.1-17.7,36-35.6,36
	C200.1,233,200,233,200,233z M200.1,162c-9.1,0-17.7,3.7-24.3,10.4c-6.6,6.7-10.2,15.4-10.2,24.6c0,8.7,3.8,17.6,10.5,24.3
	c6.7,6.7,15.4,10.6,23.9,10.6c0,0,0.1,0,0.1,0c17.4-0.1,34.5-17.4,34.5-35c0-8.6-3.8-17.5-10.5-24.3
	C217.5,165.9,208.7,162,200.1,162C200.1,162,200.1,162,200.1,162z"/>
<path class="st0" d="M197.1,235.5c-9.5,0-19.2-4.2-26.7-11.7c-8-7.9-12.6-18.5-12.6-29c0-10.7,4.5-21.4,12.4-29.2
	c7.7-7.6,17.5-11.7,27.7-11.4c21.4,0.5,40.2,19.5,40.1,40.6c0,20.4-19.5,40.1-40.1,40.6C197.6,235.5,197.4,235.5,197.1,235.5z
	 M197.1,155.4c-9.6,0-18.9,3.9-26.1,11.1c-7.7,7.6-12.1,18-12.1,28.4c0,10.2,4.5,20.5,12.3,28.2c7.5,7.4,17.3,11.6,26.7,11.3
	c20-0.5,39-19.7,39.1-39.5c0-20.6-18.2-39.1-39.1-39.5C197.6,155.4,197.3,155.4,197.1,155.4z"/>
<path class="st0" d="M194.7,237.9c-10.7,0-21.5-4.7-29.8-12.9c-8.9-8.8-14-20.6-14-32.3c0-12.1,5-23.9,13.7-32.6
	c8.5-8.4,19.5-12.9,30.9-12.6c23.8,0.6,44.7,21.7,44.6,45.2c0,23.1-21.3,44.6-44.6,45.2C195.2,237.9,195,237.9,194.7,237.9z
	 M194.6,148.6c-10.8,0-21.1,4.4-29.2,12.3c-8.5,8.4-13.4,20-13.4,31.8c0,11.5,5,23,13.6,31.5c8.3,8.2,19.2,12.9,29.9,12.6
	c22.8-0.6,43.5-21.6,43.6-44.1c0-23-20.3-43.6-43.6-44.1C195.2,148.6,194.9,148.6,194.6,148.6z"/>
<path class="st0" d="M193.4,240.2c-0.1,0-0.3,0-0.4,0c-25.7-0.3-49.2-24-49.2-49.8c0-26.2,23-49.4,49.2-49.8
	c12-0.2,24.3,5.2,33.8,14.7c9.8,9.8,15.4,22.6,15.4,35.1c0,12.3-5.7,25.1-15.5,34.9C217.2,234.8,205.1,240.2,193.4,240.2z
	 M193.5,141.7c-0.2,0-0.3,0-0.5,0c-25.6,0.3-48.1,23.1-48.1,48.7c0,25.2,22.9,48.4,48.1,48.7c11.6,0.1,23.5-5.2,32.9-14.5
	c9.7-9.7,15.2-22.1,15.2-34.2c0-12.2-5.5-24.7-15.1-34.3C216.9,146.9,205,141.7,193.5,141.7z"/>
<path class="st0" d="M190.8,242.3c-0.1,0-0.3,0-0.4,0c-28.1-0.3-53.7-26.2-53.7-54.3c0-28.6,25.1-54,53.7-54.3
	c13.2-0.1,26.7,5.7,37,16c10.6,10.7,16.7,24.6,16.7,38.3c0,13.6-6.1,27.6-16.8,38.2C217,236.5,203.8,242.3,190.8,242.3z
	 M190.9,134.7c-0.2,0-0.3,0-0.5,0c-28,0.3-52.6,25.2-52.6,53.3c0,27.6,25.1,53,52.6,53.3c0.1,0,0.3,0,0.4,0
	c12.7,0,25.7-5.7,35.7-15.8C237,214.9,243,201.3,243,188c0-13.4-6-27.1-16.4-37.5C216.6,140.4,203.6,134.7,190.9,134.7z"/>
<path class="st0" d="M188.2,244.4c-0.2,0-0.3,0-0.5,0c-14.6-0.1-29.4-6.7-40.5-17.9c-11.2-11.3-17.7-26.2-17.7-41
	c0-31,27.2-58.6,58.2-58.9c14.4-0.2,29,6.2,40.2,17.3c11.5,11.5,18,26.6,18,41.6c0,14.9-6.6,30.1-18,41.6
	C216.8,238.1,202.4,244.4,188.2,244.4z M188.2,127.6c-0.2,0-0.4,0-0.5,0c-30.4,0.3-57.1,27.4-57.1,57.8c0,30,27.2,57.5,57.1,57.8
	c0.2,0,0.3,0,0.5,0c13.9,0,28.1-6.2,38.9-17c11.3-11.3,17.7-26.1,17.7-40.8c0-14.6-6.4-29.5-17.7-40.8
	C216.3,133.8,202.1,127.6,188.2,127.6z"/>
<path class="st0" d="M184.9,246.4c-16,0-31.9-6.9-43.9-18.9c-12-12.1-18.8-28.3-18.8-44.6c0-16.3,6.8-32.6,18.7-44.6
	c12-12.2,27.7-18.9,44-18.9c0,0,0,0,0,0c16.1,0,32.2,7,44.1,19.1c11.9,12.1,18.6,28.3,18.6,44.4
	C247.6,216.7,218.3,246.4,184.9,246.4C184.9,246.4,184.9,246.4,184.9,246.4z M184.9,120.5c-16.1,0-31.4,6.6-43.3,18.6
	c-11.7,11.8-18.4,27.8-18.4,43.8c0,16,6.8,32,18.5,43.9c11.7,11.8,27.4,18.6,43.1,18.6c0,0,0,0,0,0c32.8,0,61.6-29.2,61.6-62.4
	c0-15.9-6.7-31.8-18.3-43.6C216.5,127.3,200.7,120.5,184.9,120.5C184.9,120.5,184.9,120.5,184.9,120.5z"/>
<path class="st0" d="M182.1,248.3c-17.3,0-34.5-7.4-47.2-20.2c-12.9-13.1-20-30.1-20.1-47.9c0-17.5,7.3-34.9,20-47.8
	c12.7-12.9,29.9-20.3,47.2-20.3c0,0,0,0,0,0c17.6,0,34.4,7.2,47.3,20.3c12.7,12.9,19.9,30.3,19.9,47.8
	C249.3,217.2,218.5,248.3,182.1,248.3C182.1,248.3,182.1,248.3,182.1,248.3z M182.1,113.3c-17,0-33.9,7.3-46.4,20
	c-12.5,12.7-19.7,29.8-19.7,47c0,17.5,7,34.3,19.7,47.1c12.5,12.6,29.4,19.9,46.4,19.9c0,0,0,0,0,0c35.9,0,66.1-30.7,66.2-67
	c0-17.2-7.1-34.3-19.6-47C215.9,120.4,199.4,113.3,182.1,113.3C182.1,113.3,182.1,113.3,182.1,113.3z"/>
<path class="st0" d="M179.2,250.3c-18.9,0-36.8-7.6-50.5-21.5c-13.7-13.9-21.3-32-21.3-51.2c0-18.6,7.8-37.2,21.4-51
	c13.6-13.8,31.9-21.7,50.3-21.7c0,0,0,0,0,0c18.9,0,36.9,7.6,50.6,21.5c13.7,13.9,21.2,32,21.2,51.1
	C251,217.7,218.8,250.3,179.2,250.3C179.2,250.3,179.2,250.3,179.2,250.3z M179.2,106.1c-18.1,0-36.2,7.8-49.6,21.3
	c-13.4,13.6-21.1,31.9-21.1,50.2c0,18.8,7.4,36.7,20.9,50.4c13.5,13.6,31.1,21.2,49.7,21.2c0,0,0,0,0,0c39,0,70.7-32.1,70.7-71.6
	c0-18.8-7.4-36.7-20.9-50.4C215.5,113.6,197.8,106.1,179.2,106.1C179.2,106.1,179.2,106.1,179.2,106.1z"/>
<path class="st0" d="M176.3,252.2c-20,0-39.1-8.1-53.6-22.9c-14.6-14.8-22.6-34.1-22.6-54.3c0-19.6,8.3-39.3,22.9-54
	c14.6-14.8,34-23.2,53.4-23.2c0,0,0,0,0,0c20,0,39.1,8.1,53.7,22.9c14.6,14.8,22.6,34.1,22.6,54.4
	C252.6,217.6,218.4,252.2,176.3,252.2C176.3,252.2,176.3,252.2,176.3,252.2z M176.3,98.8c-19.1,0-38.2,8.3-52.6,22.9
	c-14.4,14.5-22.6,34-22.6,53.2c0,19.9,7.9,38.9,22.3,53.5c14.4,14.6,33.2,22.6,52.9,22.6c0,0,0,0,0,0c41.5,0,75.2-34.2,75.2-76.1
	c0-20-7.9-39-22.3-53.6C214.9,106.9,196.1,98.9,176.3,98.8C176.4,98.8,176.3,98.8,176.3,98.8z"/>
<path class="st0" d="M172.6,254.2c-20.2,0-39.7-8.4-55-23.8c-15.8-15.8-24.9-37-24.9-58c0-20.6,9.2-41.7,25.3-57.7
	c15.6-15.6,35.8-24.3,55.5-24.1c20.6,0.3,41.2,9.2,56.5,24.7c15.7,15.7,24.3,36,24.3,57.1c0,44.6-36.3,81.3-80.8,81.8
	C173.2,254.2,172.9,254.2,172.6,254.2z M172.7,91.6c-19.2,0-38.8,8.6-54,23.8c-15.8,15.8-24.9,36.6-24.9,56.9
	c0,20.8,8.9,41.7,24.5,57.3c15.1,15.1,34.4,23.5,54.3,23.5c0.3,0,0.6,0,0.9,0c43.9-0.5,79.7-36.7,79.7-80.7
	c0-42.5-37.2-80.2-79.7-80.7C173.2,91.6,173,91.6,172.7,91.6z"/>
<path class="st0" d="M169.8,256.2c-21.2,0-41.8-8.9-58.1-25.2c-16.7-16.8-26.3-39.1-26.3-61.2c0-21.5,9.8-43.6,26.9-60.7
	c16.6-16.6,37.8-26,58.4-25.7c45.5,0.5,85.3,40.9,85.3,86.4c0,47.1-38.3,85.8-85.3,86.4C170.4,256.2,170.1,256.2,169.8,256.2z
	 M170,84.5c-20.1,0-40.8,9.2-56.9,25.4c-16.9,16.9-26.6,38.7-26.6,59.9c0,21.8,9.5,43.8,26,60.4c16.3,16.3,37,25.1,58.2,24.9
	c46.4-0.5,84.2-38.8,84.2-85.3c0-44.9-39.3-84.8-84.2-85.3C170.5,84.5,170.2,84.5,170,84.5z"/>
<path class="st0" d="M167,258.2c-22.2,0-43.8-9.4-60.9-26.5c-17.8-17.8-27.9-41.2-27.9-64.4c0-22.3,10.5-45.5,28.7-63.7
	C124.4,86,146.7,76,168,76.3c47.9,0.6,89.9,43.1,89.8,91c0,49.5-40.3,90.3-89.8,91C167.7,258.2,167.3,258.2,167,258.2z M167.2,77.4
	c-20.8,0-42.5,9.8-59.6,26.9c-17.7,17.7-28.3,41.3-28.3,62.9c0,22.9,10,46.1,27.6,63.6c16.9,16.9,38.3,26.2,60.2,26.2
	c0.3,0,0.7,0,1,0c48.9-0.6,88.7-40.9,88.8-89.9c0-47.3-41.4-89.3-88.8-89.9C167.7,77.4,167.4,77.4,167.2,77.4z"/>
<path class="st0" d="M165.9,260.3c-0.2,0-0.3,0-0.5,0c-23.7-0.1-47.7-10.7-65.8-29C81.4,213.1,71,188.8,71,164.8
	c0-47.9,46.7-95.2,94.4-95.5c23.6-0.1,47.6,10.2,65.7,28.4c18.3,18.4,28.7,42.9,28.7,67.2c0,25.7-10,49.9-28,68
	C214.1,250.6,190.7,260.3,165.9,260.3z M165.9,70.4c-0.2,0-0.4,0-0.6,0c-47.1,0.3-93.3,47.1-93.3,94.4c0,50,43.6,94.2,93.3,94.4
	c0.2,0,0.3,0,0.5,0c24.5,0,47.6-9.7,65.1-27.2c17.8-17.9,27.6-41.8,27.6-67.2c0-24-10.3-48.2-28.4-66.4
	C212.5,80.6,189.1,70.4,165.9,70.4z"/>
<path class="st0" d="M163.3,262.6c-0.2,0-0.3,0-0.5,0c-24.8-0.1-49.9-11.2-69-30.5c-19-19.3-29.9-44.6-29.9-69.6
	c0-23.9,11.3-48.9,31-68.8c19.6-19.7,44.3-31.2,67.8-31.3c24.7-0.2,49.7,10.7,68.8,29.8c19.2,19.3,30.2,44.9,30.1,70.3
	c0,27-10.4,52.3-29.2,71.2C213.9,252.3,189.4,262.6,163.3,262.6z M163.4,63.4c-0.2,0-0.4,0-0.6,0c-49.3,0.4-97.8,49.4-97.8,99
	c0,51.6,46.6,98.8,97.8,99c0.2,0,0.3,0,0.5,0c25.8,0,50.1-10.1,68.4-28.5c18.6-18.7,28.9-43.8,28.9-70.5c0-25.1-10.8-50.4-29.8-69.5
	C212.1,74.2,187.6,63.4,163.4,63.4z"/>
<path class="st0" d="M160.9,264.9c-0.2,0-0.3,0-0.5,0C106.2,264.7,57,214.8,57,160.2c0-51.5,52.2-104.3,103.4-104.7
	c0.2,0,0.4,0,0.6,0c25.5,0,51.5,11.4,71.3,31.3c20.1,20.2,31.6,47,31.5,73.4c0,28.3-10.9,54.8-30.5,74.5
	C214,254.2,188.3,264.9,160.9,264.9z M161,56.6c-0.2,0-0.4,0-0.6,0C109.8,57,58.1,109.3,58.1,160.2c0,54,48.7,103.4,102.3,103.6
	c0.2,0,0.3,0,0.5,0c27.1,0,52.5-10.6,71.7-29.8c19.4-19.6,30.2-45.8,30.2-73.8c0-26.1-11.3-52.6-31.2-72.6
	C211.9,67.9,186.3,56.6,161,56.6z"/>
<path class="st0" d="M158.6,267.4c-0.1,0-0.3,0-0.4,0c-56.5-0.2-108-52.3-107.9-109.3c0-25.6,12.5-52.8,34.2-74.7
	c21.6-21.8,48.5-34.4,73.7-34.6c0.2,0,0.4,0,0.6,0c26.6,0,53.7,11.9,74.4,32.7c21,21.1,33,49,32.9,76.5c0,29.6-11.3,57.2-31.8,77.8
	C214.2,256.3,187.3,267.4,158.6,267.4z M158.8,50c-0.2,0-0.4,0-0.6,0c-52.9,0.4-106.8,55-106.8,108.2c0,56.4,50.9,107.9,106.8,108.2
	c0.1,0,0.3,0,0.4,0c28.4,0,55-11,74.9-31.1c20.2-20.4,31.4-47.7,31.5-77.1c0-27.2-11.8-54.8-32.6-75.7C211.9,61.8,185.1,50,158.8,50
	z"/>
<path class="st0" d="M155.9,270.1c-27.9,0-56.3-12.5-77.9-34.4c-21.9-22.2-34.4-51.1-34.4-79.4C43.7,101,101.5,42.5,156.1,42.4
	c0,0,0.1,0,0.1,0c28.1,0,56.7,12.6,78.4,34.6c21.6,21.9,33.9,50.7,33.9,79.2C268.4,220,219,270,156.1,270.1
	C156,270.1,156,270.1,155.9,270.1z M156.2,43.5c0,0-0.1,0-0.1,0c-54,0.1-111.3,58-111.4,112.7c0,28,12.4,56.7,34.1,78.6
	c21.4,21.7,49.5,34.1,77.1,34.1c0.1,0,0.1,0,0.1,0c62.3-0.1,111.3-49.6,111.4-112.7c0-28.2-12.2-56.8-33.6-78.4
	C212.3,56,184,43.5,156.2,43.5z"/>
<path class="st0" d="M154.1,272.9c-29,0-58.6-13-81-35.8c-22.8-23-35.8-53.2-35.8-82.6c0.1-57.5,60.2-118.3,117-118.4
	c0,0,0.1,0,0.1,0c29.2,0,59,13.1,81.6,36c22.4,22.7,35.3,52.8,35.2,82.4c-0.1,32.2-12.1,62.1-33.8,84.1
	c-21.8,22.1-51.3,34.3-83.1,34.3C154.2,272.9,154.1,272.9,154.1,272.9z M154.4,37.2c0,0-0.1,0-0.1,0C98,37.3,38.4,97.6,38.3,154.5
	c0,29.2,12.9,59,35.4,81.8c22.3,22.6,51.5,35.5,80.3,35.5c0.1,0,0.1,0,0.1,0c64.9-0.1,115.8-51.6,115.9-117.3
	c0-29.4-12.7-59.1-34.9-81.6C212.8,50.2,183.3,37.2,154.4,37.2z"/>
<path class="st0" d="M152.4,276c-30.2,0-60.9-13.5-84.2-37.1C44.6,215,31.1,183.7,31.1,153C31.2,93.3,93.6,30.1,152.6,30
	c0,0,0.1,0,0.1,0c30.4,0,61.3,13.6,84.8,37.3c23.3,23.6,36.6,54.8,36.6,85.6c0,33.5-12.5,64.6-35.1,87.4
	c-22.6,22.9-53.3,35.5-86.4,35.6C152.5,276,152.5,276,152.4,276z M152.7,31.1c0,0-0.1,0-0.1,0C94.1,31.2,32.3,93.9,32.2,153
	c0,30.4,13.4,61.4,36.8,85.1c23.1,23.4,53.5,36.8,83.5,36.8c0,0,0.1,0,0.1,0C220,274.8,272.9,221.3,273,153
	c0-30.6-13.2-61.5-36.3-84.9C213.5,44.6,182.9,31.1,152.7,31.1z"/>
<path class="st0" d="M151.1,279.3c-31.5,0-63.4-14-87.5-38.5c-24.4-24.7-38.4-57.2-38.3-89.1c0-29.7,14.6-61.4,39.9-87.1
	c25.3-25.7,56.7-40.4,86.1-40.5c0,0,0.1,0,0.1,0c31.7,0,63.8,14.1,88,38.6c24.1,24.4,37.9,56.8,37.9,88.9
	c0,34.9-12.9,67.1-36.3,90.8c-23.4,23.7-55.2,36.8-89.7,36.8C151.2,279.3,151.1,279.3,151.1,279.3z M151.3,25.3c0,0-0.1,0-0.1,0
	c-29.1,0-60.2,14.7-85.4,40.1c-25.1,25.5-39.5,56.9-39.6,86.3c0,31.6,13.8,63.8,38,88.3c24,24.2,55.6,38.1,86.8,38.1
	c0,0,0.1,0,0.1,0c71.1-0.1,124.8-54.5,124.9-126.5c0-31.8-13.6-64-37.5-88.2C214.5,39.2,182.7,25.3,151.3,25.3z"/>
<path class="st0" d="M150,282.8c-32.8,0-65.9-14.5-90.9-39.7c-25.2-25.5-39.6-59.1-39.5-92.4c0-65.4,65.9-132.1,130.5-132.1
	c0,0,0,0,0.1,0c33.1,0,66.3,14.5,91.3,39.8c24.9,25.2,39.1,58.8,39.1,92.3c0,36.2-13.4,69.6-37.5,94.1c-24.2,24.5-57.2,38-93,38
	C150,282.8,150,282.8,150,282.8z M150.1,19.6C150.1,19.6,150.1,19.6,150.1,19.6c-64.1,0-129.5,66.2-129.5,131
	c0,33,14.3,66.4,39.2,91.6c24.7,25,57.6,39.4,90.1,39.4c0,0,0.1,0,0.1,0c73.7-0.1,129.4-56.4,129.4-131c0-33.2-14.1-66.5-38.8-91.5
	C215.9,34.1,182.9,19.6,150.1,19.6z"/>
<path class="st0" d="M149.2,286.6c-34.4,0-68.9-15-94.7-41.3c-25.6-26.1-40.3-60.9-40.3-95.4c0-32.5,15.4-66.8,42.2-93.9
	c26.8-27.2,60.7-42.8,92.9-42.8c0,0,0,0,0,0c34.3,0,68.7,14.8,94.4,40.7c25.8,26,40.6,61,40.6,96
	C284.2,227.8,226.2,286.6,149.2,286.6C149.2,286.6,149.2,286.6,149.2,286.6z M149.3,14.3C149.3,14.3,149.3,14.3,149.3,14.3
	c-66.4,0-134,68.5-134,135.6c0,34.2,14.6,68.7,40,94.7c25.6,26,59.8,41,93.9,41c0,0,0,0,0.1,0c76.3,0,133.9-58.3,134-135.6
	c0-34.7-14.7-69.4-40.3-95.2C217.5,29,183.3,14.3,149.3,14.3z"/>
<path class="st0" d="M148.7,290.7c-35.8,0-71.5-15.4-98-42.2c-26.4-26.8-41.5-62.9-41.5-99.1c0-34.2,15.7-69.8,43.1-97.6
	c27.4-27.8,62.6-43.7,96.4-43.7c0,0,0,0,0,0c36.4,0,71.3,14.9,98,41.9c26.8,27.1,41.5,62.4,41.5,99.3
	C288.3,230,228.3,290.7,148.7,290.7C148.7,290.7,148.7,290.7,148.7,290.7z M148.7,9.3c-33.6,0-68.4,15.8-95.7,43.4
	c-27.2,27.6-42.8,62.9-42.8,96.8c0,35.9,15,71.7,41.2,98.3c26.2,26.6,61.7,41.9,97.2,41.9c0,0,0,0,0,0
	c78.9,0,138.5-60.3,138.5-140.2c0-36.7-14.6-71.7-41.2-98.6C219.4,24,184.9,9.3,148.7,9.3z"/>
<path class="st0" d="M148.5,295.2c-78.1,0-144-66.8-144.1-145.9c0-36.1,16-73,44-101.3C76.4,19.6,112.9,3.4,148.5,3.4c0,0,0,0,0,0
	c38.1,0,74.2,15.3,101.6,43.2c27.4,27.8,42.4,64.2,42.4,102.7C292.6,232.4,230.7,295.1,148.5,295.2
	C148.5,295.2,148.5,295.2,148.5,295.2z M148.5,4.5c-35.4,0-71.6,16.1-99.3,44.2C21.5,76.8,5.5,113.5,5.6,149.3
	c0,78.5,65.5,144.8,143,144.8c0,0,0,0,0,0c81.5,0,143-62.3,143-144.8C291.6,70.8,226.1,4.5,148.5,4.5C148.5,4.5,148.5,4.5,148.5,4.5
	z"/>
<path class="st1" d="M237.5,170.4c-3.2,13.4-9.4,25.9-18.1,36.5c-8.7,10.6-19.8,19.1-32.3,24.9l-14.6-16.5l-24.7,24.8
	c-14-0.2-27.9-3.6-40.4-10c-12.5-6.4-23.3-15.6-31.7-26.9c2.6,0.8,5.3,1.3,8.1,1.5c1.1,0.2,2.3,0.1,3.4-0.3c1.1-0.3,2.1-0.9,2.9-1.7
	c0.8-0.8,1.4-1.8,1.8-2.9c0.4-1.1,0.5-2.2,0.3-3.4v-66.9c0.1-1.4-0.2-2.9-0.7-4.2c-0.5-1.4-1.3-2.6-2.3-3.6c-1-1.1-2.2-1.9-3.5-2.5
	c-1.3-0.6-2.7-0.9-4.2-1c-1.1,0-2.1,0.1-3.1,0.3C67.1,121.2,58,149.7,58,149.7c-0.2-22,7.6-43.2,21.8-59.9
	c14.3-16.7,34.1-27.7,55.8-30.9c-12.6,7.1-19.5,18.8-19.5,28.5c0,15.7,9.4,13.8,12.2,11.5v90.4c0.5,1.1,1.1,2.2,1.8,3.1
	c1.3,1.7,2.9,3.1,4.8,4.1c1.9,1,4,1.4,6.1,1.4c9.4,0,21.7-10.8,21.7-10.8v-73.2c-0.2-3.9-1.4-7.7-3.3-11.1c-1.9-3.4-4.7-6.3-7.9-8.4
	c6.4-0.9,12.9,0.7,18.2,4.4c1.5-1.9,3.1-3.6,4.8-5.3c13.7-14,31.6-23.2,51-26.2c0,0-26.7,21-26.7,49.2c0,20.9,0.5,72,0.5,72
	C209.5,197.9,224.2,184.1,237.5,170.4z"/>
<path class="st1" d="M149,0c-29.5,0-58.3,8.7-82.8,25.1C41.7,41.5,22.6,64.8,11.3,92c-11.3,27.2-14.2,57.2-8.5,86.1
	s19.9,55.5,40.8,76.3c20.8,20.8,47.4,35,76.3,40.8c28.9,5.7,58.9,2.8,86.1-8.5c27.2-11.3,50.5-30.4,66.9-54.9
	c16.4-24.5,25.1-53.3,25.1-82.8c0-39.5-15.7-77.4-43.6-105.3C226.4,15.7,188.5,0,149,0L149,0z M149,292.1
	c-28.3,0-55.9-8.4-79.5-24.1c-23.5-15.7-41.9-38.1-52.7-64.2C6,177.7,3.2,148.9,8.7,121.2c5.5-27.7,19.1-53.2,39.1-73.2
	c20-20,45.5-33.6,73.2-39.1c27.7-5.5,56.5-2.7,82.6,8.1c26.1,10.8,48.5,29.2,64.2,52.7c15.7,23.5,24.1,51.2,24.1,79.5
	c0,37.9-15.1,74.3-41.9,101.1S186.9,292,149,292.1L149,292.1z"/>
</svg>
