<svg width="319" height="83" viewBox="0 0 319 83" fill="none" xmlns="http://www.w3.org/2000/svg">
<g clip-path="url(#clip0_2734_1980)">
<path fill-rule="evenodd" clip-rule="evenodd" d="M289.96 36.9591L301.776 24.9751C306.704 19.9911 308.777 17.8081 308.777 14.5501C308.777 10.5831 306.872 7.55906 302.504 7.55906C297.8 7.55906 295.896 10.8631 295.84 15.2311H289.96C290.72 6.83106 295.224 1.95906 302.504 1.95906C310.736 1.95906 314.936 7.50306 314.936 13.8311C314.936 19.8231 311.521 23.4621 306.424 28.4471L298.305 36.3991H315.104V41.9991H289.96V36.9591ZM250.17 36.9591L261.986 24.9751C266.913 19.9911 268.986 17.8081 268.986 14.5501C268.986 10.5831 267.82 7.55906 262.714 7.55906C258.1 7.55906 256.106 10.8631 256.5 15.2311H250.17C250.282 6.83106 255.434 1.95906 262.714 1.95906C270.945 1.95906 275.146 7.50306 275.146 13.8311C275.146 19.8231 271.73 23.4621 266.633 28.4471L258.514 36.3991H275.314V41.9991H250.17V36.9591ZM221.87 42.8391C213.806 42.8391 208.71 37.8561 208.71 29.2881V15.5101C208.71 6.94306 213.806 1.95906 221.87 1.95906C229.934 1.95906 235.3 6.94306 235.3 15.5101V29.2881C235.3 37.8561 229.934 42.8391 221.87 42.8391ZM228.87 15.1751C228.87 11.3001 226.518 7.55906 221.87 7.55906C217.222 7.55906 214.87 11.3001 214.87 15.1751V29.6231C214.87 33.7671 217.222 37.2391 221.87 37.2391C226.518 37.2391 228.87 33.7671 228.87 29.6231V15.1751ZM167.799 36.9591L179.616 24.9751C184.544 19.9911 186.615 17.8081 186.615 14.5501C186.615 10.5831 184.712 7.55906 180.343 7.55906C175.639 7.55906 173.735 10.8631 173.68 15.2311H167.799C167.911 6.83106 173.63 1.95906 180.343 1.95906C188.575 1.95906 192.776 7.50306 192.776 13.8311C192.776 19.8231 189.359 23.4621 184.263 28.4471L176.144 36.3991H192.943V41.9991H167.799V36.9591ZM113.877 30.4711H119.564V41.3501H145.514V45.6041H113.877V30.4711ZM138.556 0.663061H144.244V33.8241H138.556V0.663061ZM119.209 26.6631C112.226 26.6631 106.818 21.9151 106.818 15.1351C106.818 8.45706 112.226 3.68506 119.209 3.65806C126.191 3.68506 131.574 8.45706 131.549 15.1351C131.574 21.9151 126.191 26.6631 119.209 26.6631ZM119.209 8.58606C115.273 8.58606 112.328 11.1741 112.354 15.1351C112.328 19.1981 115.273 21.7381 119.209 21.7381C123.43 21.7381 126.14 19.1981 126.14 15.1351C126.14 11.1741 123.43 8.58606 119.209 8.58606ZM89.2169 46.5691H83.632V0.612061H89.2169V18.2331H96.2759V22.9551H89.2169V46.5691ZM55.194 35.7531V17.4211H70.5809V9.19406H55.93V4.62406H76.2169V21.9411H60.7799V31.8101C68.6699 31.3101 73.7289 30.7261 80.1279 29.6081L80.6349 34.1791C73.5509 35.4481 67.3049 35.7531 58.952 35.7531H55.194ZM0.522949 24.5291H18.5509V20.4671C10.1459 19.8591 4.83995 16.5071 4.83995 11.1741C4.83995 5.41106 11.3649 1.88106 21.3949 1.88106C31.3979 1.88106 37.924 5.41106 37.949 11.1741C37.924 16.5071 32.6169 19.8591 24.2379 20.4671V24.5291H42.367V29.1001H0.522949V24.5291ZM32.1089 11.1741C32.1089 8.15306 28.9699 6.37506 21.3949 6.35006C14.7159 6.37506 10.6789 8.15306 10.7299 11.1741C10.6789 14.3491 14.7159 16.2501 21.3949 16.0001C28.9699 16.2501 32.1089 14.3491 32.1089 11.1741ZM5.70195 32.2481H11.3389V41.3501H37.644V45.6041H5.70195V32.2481Z" fill="white"/>
<path d="M1.09799 83.1037H15.4375V80.6428H4.65837L9.94994 75.1478C12.5631 72.4172 15.1435 69.8551 15.1435 66.0457C15.1435 62.0677 12.5957 59 8.12076 59C4.03775 59 1.03266 61.7981 1 66.7536H3.61312C3.64579 63.551 5.21366 61.4609 8.15342 61.4609C10.9952 61.4609 12.5304 63.3825 12.5304 66.1131C12.5304 68.9112 10.6032 70.9001 7.9901 73.6308L1.09799 80.8787V83.1037Z" fill="#FFC700"/>
<path d="M29.9916 81.1484C26.8885 81.1484 25.1573 78.9572 25.1573 75.9569V66.6862C25.1573 63.6522 26.8885 61.4609 29.9916 61.4609C33.1274 61.4609 34.8585 63.6522 34.8585 66.6862V75.9569C34.8585 78.9572 33.1274 81.1484 29.9916 81.1484ZM29.9916 83.6094C34.5646 83.6094 37.4717 80.7439 37.4717 75.7883V66.8211C37.4717 61.8655 34.5646 59 29.9916 59C25.4513 59 22.5442 61.8655 22.5442 66.8211V75.7883C22.5442 80.7439 25.4513 83.6094 29.9916 83.6094Z" fill="#FFC700"/>
<path d="M44.2834 83.1037H58.6229V80.6428H47.8438L53.1353 75.1478C55.7485 72.4172 58.3289 69.8551 58.3289 66.0457C58.3289 62.0677 55.7811 59 51.3062 59C47.2232 59 44.2181 61.7981 44.1854 66.7536H46.7985C46.8312 63.551 48.3991 61.4609 51.3388 61.4609C54.1806 61.4609 55.7158 63.3825 55.7158 66.1131C55.7158 68.9112 53.7886 70.9001 51.1755 73.6308L44.2834 80.8787V83.1037Z" fill="#FFC700"/>
<path d="M65.1743 83.1037H79.5138V80.6428H68.7347L74.0263 75.1478C76.6394 72.4172 79.2199 69.8551 79.2199 66.0457C79.2199 62.0677 76.6721 59 72.1971 59C68.1141 59 65.109 61.7981 65.0763 66.7536H67.6895C67.7221 63.551 69.29 61.4609 72.2297 61.4609C75.0715 61.4609 76.6067 63.3825 76.6067 66.1131C76.6067 68.9112 74.6795 70.9001 72.0664 73.6308L65.1743 80.8787V83.1037Z" fill="#FFC700"/>
<path d="M86.6859 83.1037H89.7563V78.6538H86.6859V83.1037Z" fill="#FFC700"/>
<path d="M104.624 81.1484C101.521 81.1484 99.7895 78.9572 99.7895 75.9569V66.6862C99.7895 63.6522 101.521 61.4609 104.624 61.4609C107.76 61.4609 109.491 63.6522 109.491 66.6862V75.9569C109.491 78.9572 107.76 81.1484 104.624 81.1484ZM104.624 83.6094C109.197 83.6094 112.104 80.7439 112.104 75.7883V66.8211C112.104 61.8655 109.197 59 104.624 59C100.083 59 97.1764 61.8655 97.1764 66.8211V75.7883C97.1764 80.7439 100.083 83.6094 104.624 83.6094Z" fill="#FFC700"/>
<path d="M123.587 83.1037H125.971L131.883 73.1588C133.386 70.6305 134.006 68.8438 134.006 66.8211C134.006 62.0003 131.197 59 126.428 59C121.659 59 118.818 62.0003 118.818 66.8211C118.818 71.507 121.594 74.2039 125.546 74.2039C126.984 74.2039 128.127 73.8331 128.976 73.26L123.587 82.1261V83.1037ZM126.428 61.4609C129.695 61.4609 131.393 63.5848 131.393 66.7199C131.393 69.9899 129.499 72.0126 126.363 72.0126C123.031 72.0126 121.431 69.8551 121.431 66.7199C121.431 63.5848 123.097 61.4609 126.428 61.4609Z" fill="#FFC700"/>
<path d="M138.194 83.1037H141.265V78.6538H138.194V83.1037Z" fill="#FFC700"/>
<path d="M148.129 83.1037H162.469V80.6428H151.69L156.981 75.1478C159.595 72.4172 162.175 69.8551 162.175 66.0457C162.175 62.0677 159.627 59 155.152 59C151.069 59 148.064 61.7981 148.031 66.7536H150.645C150.677 63.551 152.245 61.4609 155.185 61.4609C158.027 61.4609 159.562 63.3825 159.562 66.1131C159.562 68.9112 157.635 70.9001 155.022 73.6308L148.129 80.8787V83.1037Z" fill="#FFC700"/>
<path d="M172.809 83.1037H175.161L183.066 61.7981V59.5057H168.694V66.1131H171.144V61.9666H180.355L172.809 82.1261V83.1037Z" fill="#FFC700"/>
<path d="M200.122 73.7993H210.345V71.3047H200.122V73.7993Z" fill="#FFC700"/>
<path d="M235.578 81.1484C232.475 81.1484 230.744 78.9572 230.744 75.9569V66.6862C230.744 63.6522 232.475 61.4609 235.578 61.4609C238.714 61.4609 240.445 63.6522 240.445 66.6862V75.9569C240.445 78.9572 238.714 81.1484 235.578 81.1484ZM235.578 83.6094C240.151 83.6094 243.058 80.7439 243.058 75.7883V66.8211C243.058 61.8655 240.151 59 235.578 59C231.038 59 228.131 61.8655 228.131 66.8211V75.7883C228.131 80.7439 231.038 83.6094 235.578 83.6094Z" fill="#FFC700"/>
<path d="M254.541 83.1037H256.926L262.838 73.1588C264.34 70.6305 264.961 68.8438 264.961 66.8211C264.961 62.0003 262.152 59 257.383 59C252.614 59 249.772 62.0003 249.772 66.8211C249.772 71.507 252.549 74.2039 256.501 74.2039C257.938 74.2039 259.081 73.8331 259.931 73.26L254.541 82.1261V83.1037ZM257.383 61.4609C260.649 61.4609 262.348 63.5848 262.348 66.7199C262.348 69.9899 260.453 72.0126 257.318 72.0126C253.986 72.0126 252.385 69.8551 252.385 66.7199C252.385 63.5848 254.051 61.4609 257.383 61.4609Z" fill="#FFC700"/>
<path d="M269.149 83.1037H272.219V78.6538H269.149V83.1037Z" fill="#FFC700"/>
<path d="M286.531 83.6094C291.235 83.6094 294.012 80.9125 294.012 76.4625C294.012 73.4622 292.248 71.3721 290.125 70.6979C292.019 69.8214 293.391 68.1695 293.391 65.3715C293.391 61.8655 291.039 59 286.597 59C282.318 59 279.443 61.7306 279.411 66.6525H282.024C282.056 63.4499 283.624 61.4609 286.597 61.4609C289.602 61.4609 290.843 63.551 290.843 65.6074C290.843 68.1358 289.243 69.5854 286.727 69.5854H285.094V72.0463H286.891C289.7 72.0463 291.398 73.6982 291.398 76.294C291.398 79.1595 289.798 81.1484 286.629 81.1484C283.428 81.1484 281.632 79.0583 281.534 75.9906H278.921C279.019 80.7776 281.959 83.6094 286.531 83.6094Z" fill="#FFC700"/>
<path d="M308.52 81.1484C305.417 81.1484 303.686 78.9572 303.686 75.9569V66.6862C303.686 63.6522 305.417 61.4609 308.52 61.4609C311.656 61.4609 313.387 63.6522 313.387 66.6862V75.9569C313.387 78.9572 311.656 81.1484 308.52 81.1484ZM308.52 83.6094C313.093 83.6094 316 80.7439 316 75.7883V66.8211C316 61.8655 313.093 59 308.52 59C303.98 59 301.073 61.8655 301.073 66.8211V75.7883C301.073 80.7439 303.98 83.6094 308.52 83.6094Z" fill="#FFC700"/>
</g>
<defs>
<clipPath id="clip0_2734_1980">
<rect width="319" height="83" fill="white"/>
</clipPath>
</defs>
</svg>
