<svg
        xmlns="http://www.w3.org/2000/svg"
        xmlns:xlink="http://www.w3.org/1999/xlink"
        width="320px" height="68px">
    <path fill-rule="evenodd"  fill="rgb(0, 255, 255)"
          d="M313.214,0.0 L315.759,0.0 L315.759,45.897 L313.214,45.897 L313.214,0.0 ZM318.688,67.614 C309.899,65.380 298.103,59.682 294.787,49.748 C291.317,59.758 279.444,65.534 270.423,67.614 L269.267,65.612 C278.904,63.532 293.477,56.293 293.477,44.49 L293.477,41.45 L296.98,41.45 L296.98,44.49 C296.98,56.62 310.439,63.532 319.999,65.612 L318.688,67.614 ZM264.410,6.314 L294.865,6.314 L294.865,34.884 L264.410,34.884 L264.410,6.314 ZM266.877,32.651 L292.397,32.651 L292.397,8.547 L266.877,8.547 L266.877,32.651 ZM249.921,27.184 L231.262,27.184 L231.262,24.950 L249.921,24.950 L249.921,0.0 L252.465,0.0 L252.465,67.999 L249.921,67.999 L249.921,27.184 ZM236.968,51.674 C229.567,47.591 221.8,38.119 218.310,27.877 C215.611,38.735 207.284,48.593 200.114,52.905 L198.417,50.903 C206.745,46.436 216.999,33.344 216.999,21.100 L216.999,6.545 L219.543,6.545 L219.543,21.100 C219.543,32.805 230.106,45.204 238.432,49.517 L236.968,51.674 ZM137.689,51.750 L177.550,51.750 L177.550,42.123 L137.458,42.123 L137.458,39.813 L180.18,39.813 L180.18,54.60 L140.156,54.60 L140.156,64.611 L183.179,64.611 L183.179,66.921 L137.689,66.921 L137.689,51.750 ZM177.473,19.21 L160.511,19.21 C159.894,27.414 153.187,33.268 143.472,33.268 C133.371,33.268 126.432,26.952 126.432,17.943 C126.432,9.9 133.371,2.772 143.472,2.772 C153.33,2.772 159.817,8.316 160.434,16.710 L177.473,16.710 L177.473,0.0 L180.18,0.0 L180.18,35.347 L177.473,35.347 L177.473,19.21 ZM143.472,5.5 C135.68,5.5 128.900,10.780 128.900,17.943 C128.900,25.335 135.68,31.34 143.472,31.34 C151.799,31.34 158.44,25.335 158.44,17.943 C158.44,10.780 151.799,5.5 143.472,5.5 ZM114.256,0.76 L116.801,0.76 L116.801,67.999 L114.256,67.999 L114.256,0.76 ZM66.146,50.979 L66.146,26.798 L94.210,26.798 L94.210,9.317 L65.914,9.317 L65.914,6.930 L96.678,6.930 L96.678,29.108 L68.613,29.108 L68.613,48.669 L71.389,48.669 C82.106,48.669 92.823,48.130 106.161,46.51 L106.392,48.362 C92.899,50.441 82.338,50.979 71.389,50.979 L66.146,50.979 ZM11.719,45.358 L14.263,45.358 L14.263,63.841 L55.897,63.841 L55.897,66.151 L11.719,66.151 L11.719,45.358 ZM51.117,22.178 L34.0,22.178 C33.384,31.112 26.522,37.195 17.38,37.195 C7.93,37.195 0.0,30.496 0.0,20.945 C0.0,11.397 7.93,4.697 17.38,4.697 C26.599,4.697 33.461,10.935 34.78,19.868 L51.117,19.868 L51.117,0.76 L53.662,0.76 L53.662,50.518 L51.117,50.518 L51.117,22.178 ZM17.38,7.7 C8.635,7.7 2.466,13.167 2.466,20.945 C2.466,28.724 8.635,34.884 17.38,34.884 C25.366,34.884 31.611,28.724 31.611,20.945 C31.611,13.167 25.366,7.7 17.38,7.7 Z"/>
</svg>