<svg width="320" height="68" viewBox="0 0 320 68" fill="none" xmlns="http://www.w3.org/2000/svg">
<path d="M52.1833 3.06798H43.4055V19.3158H33.0035C31.4829 11.8377 24.8478 6.77303 16.7266 6.80702C7.18858 6.77303 -0.0686267 13.2993 0.000489561 22.511C-0.0686267 31.6546 7.18858 38.3169 16.7266 38.3509C24.6059 38.3169 31.1028 33.4561 32.8653 26.318H43.4055V48.2763H52.1833V3.06798ZM8.36356 22.511C8.329 17.3443 11.9576 14.3531 16.7266 14.3531C21.3574 14.3531 24.9169 17.3443 24.9515 22.511C24.9169 27.6436 21.3574 30.8048 16.7266 30.8048C11.9576 30.8048 8.329 27.6436 8.36356 22.511ZM10.437 63.7763H53.7038V56.8421H19.2839V43.7215H10.437V63.7763Z" fill="white"/>
<path d="M113.075 3H104.297V65H113.075V3ZM63.6566 15.1689H84.5988V25.1623H63.7257V50.5197H69.3932C80.8665 50.5197 90.2318 50.1458 100.565 48.3443L99.8044 41.3421C90.5773 42.8377 82.4562 43.3136 72.849 43.3816V32.0285H93.5839V8.16667H63.6566V15.1689Z" fill="white"/>
<path d="M174.519 3H165.741V15.3728H155.201C153.473 8.98246 147.114 4.73355 139.062 4.76754C129.455 4.73355 122.267 10.58 122.336 18.8399C122.267 27.3037 129.455 33.2182 139.062 33.1842C147.114 33.2182 153.473 28.9013 155.201 22.375H165.741V33.932H174.519V3ZM130.699 18.8399C130.665 14.455 134.155 11.7357 139.062 11.7697C143.797 11.7357 147.253 14.455 147.287 18.8399C147.253 23.4967 143.797 26.182 139.062 26.182C134.155 26.182 130.665 23.4967 130.699 18.8399ZM132.635 43.3136H165.741V46.9847H132.704V64.1842H176.385V57.386H141.551V53.375H174.519V36.6513H132.635V43.3136Z" fill="white"/>
<path d="M222.762 17.0044V7.75877H213.846V17.0044C213.777 28.6294 208.87 40.5603 198.088 45.3531L203.617 52.4232C210.805 48.9561 215.643 42.2939 218.339 34.17C220.965 41.818 225.665 48.0044 232.646 51.3355L238.037 44.4013C227.566 39.9485 222.797 28.6294 222.762 17.0044ZM230.987 29.4452H243.359V65H252.067V3H243.359V22.443H230.987V29.4452Z" fill="white"/>
<path d="M312.821 3H303.974V44.1974H312.821V3ZM263.333 36.3794H294.09V7.96272H263.333V36.3794ZM266.789 57.7939L270.245 64.6601C280.336 63.0285 287.593 58.6436 291.36 52.6612C295.058 58.6776 302.35 63.0965 312.613 64.6601L316 57.7939C302.522 55.9583 295.956 49.2281 296.025 42.2939V40.9342H286.764V42.2939C286.764 49.1941 280.094 56.0263 266.789 57.7939ZM272.042 29.5132V14.8289H285.312V29.5132H272.042Z" fill="white"/>
</svg>
