<svg
        xmlns="http://www.w3.org/2000/svg"
        xmlns:xlink="http://www.w3.org/1999/xlink"
        width="18px" height="17px">
    <path fill-rule="evenodd"  fill="rgb(120, 122, 128)"
          d="M15.348,11.304 L13.578,11.304 C13.235,13.174 11.917,16.995 6.848,16.995 C0.137,16.998 0.0,10.294 0.0,10.294 L0.0,6.270 C0.0,6.149 0.98,6.48 0.222,6.48 L15.348,6.48 C16.809,6.48 17.999,7.227 17.999,8.676 C17.999,10.126 16.811,11.304 15.348,11.304 ZM15.287,7.385 C14.576,7.385 14.0,7.956 14.0,8.661 C14.0,9.367 14.575,9.935 15.287,9.935 C15.999,9.935 16.574,9.364 16.574,8.661 C16.574,7.957 15.999,7.385 15.287,7.385 ZM8.476,4.309 C8.464,4.311 8.453,4.312 8.442,4.312 L3.954,4.312 C3.892,4.312 3.832,4.286 3.792,4.240 C3.749,4.194 3.728,4.133 3.734,4.71 C4.33,0.544 7.563,0.4 7.599,0.0 L11.847,0.0 C11.907,0.2 11.965,0.19 12.7,0.64 C12.48,0.106 12.72,0.163 12.71,0.222 C12.10,3.741 8.509,4.304 8.476,4.309 Z"/>
</svg>