<svg
        xmlns="http://www.w3.org/2000/svg"
        xmlns:xlink="http://www.w3.org/1999/xlink"
        width="14px" height="13px">
    <path fill-rule="evenodd"  fill="rgb(255, 255, 255)"
          d="M1.161,11.329 C0.845,11.645 0.829,12.210 1.168,12.542 C1.500,12.874 2.65,12.866 2.381,12.550 L6.992,7.932 L11.610,12.550 C11.934,12.874 12.492,12.874 12.823,12.542 C13.147,12.204 13.154,11.653 12.823,11.329 L8.212,6.711 L12.823,2.100 C13.154,1.777 13.154,1.219 12.823,0.888 C12.484,0.564 11.934,0.556 11.610,0.880 L6.992,5.499 L2.381,0.880 C2.65,0.564 1.493,0.549 1.168,0.888 C0.838,1.219 0.845,1.784 1.161,2.100 L5.779,6.711 L1.161,11.329 Z"/>
</svg>