<svg width="18" height="17" viewBox="0 0 18 17" fill="none" xmlns="http://www.w3.org/2000/svg">
<path d="M1.68956 12.6883L1.336 13.0418L1.68956 13.3954L4.19619 15.902L4.54975 16.2555L4.9033 15.902L8.85661 11.9487L12.8327 15.9248L13.1863 16.2783L13.5398 15.9248L16.0692 13.3954L16.4228 13.0418L16.0692 12.6883L12.0931 8.71216L16.0464 4.75885L16.4 4.4053L16.0464 4.05174L13.5398 1.5451L13.1863 1.19155L12.8327 1.5451L8.87939 5.49841L4.92609 1.5451L4.57253 1.19155L4.21898 1.5451L1.68956 4.07453L1.336 4.42808L1.68956 4.78164L5.64286 8.73494L1.68956 12.6883Z" fill="white" stroke="black"/>
</svg>
