<svg width="36" height="36" viewBox="0 0 36 36" fill="none" xmlns="http://www.w3.org/2000/svg">
<path d="M14.2584 4.02097V13.8355H15.9904V4.02097H14.2584ZM3.82488 14.7583V16.1424H14.279V18.0298H3.88673V22.1821H5.55692V19.33H15.9904V14.7583H3.82488ZM3.88673 21.3852V22.7693H16.6708V21.3852H3.88673ZM1.51549 5.30022V6.68433H11.516V5.30022H1.51549ZM1.18558 13.2064C4.46408 13.1854 8.79418 13.0596 12.5057 12.4934L12.4026 11.2141C8.77356 11.6755 4.31974 11.7594 1 11.7594L1.18558 13.2064ZM3.35063 5.92936V12.3885H5.00019V5.92936H3.35063ZM8.01064 5.92936V12.3885H9.68082V5.92936H8.01064Z" fill="#050505"/>
<path d="M33.3092 4V23H35V4H33.3092ZM29.4327 11.1512V12.5982H33.5566V11.1512H29.4327ZM20.5045 17.0022V18.4492H21.9272C25.4738 18.4492 27.7419 18.3444 30.4225 17.862L30.2575 16.436C27.6388 16.9393 25.4325 17.0022 21.9272 17.0022H20.5045ZM20.5045 5.74062V17.5055H22.1953V7.18764H29.1234V5.74062H20.5045ZM21.7623 11.0673V12.4724H28.3193V11.0673H21.7623Z" fill="#050505"/>
</svg>
