<svg
        xmlns="http://www.w3.org/2000/svg"
        xmlns:xlink="http://www.w3.org/1999/xlink"
        width="15px" height="15px">
    <path fill-rule="evenodd"  fill="rgb(120, 122, 128)"
          d="M13.933,6.211 L11.360,8.785 C11.4,9.140 10.429,9.140 10.73,8.785 C9.718,8.430 9.718,7.854 10.73,7.499 L12.647,4.925 C13.357,4.215 13.357,3.62 12.647,2.352 C11.936,1.641 10.784,1.641 10.73,2.352 L7.499,4.925 C7.144,5.281 6.568,5.281 6.212,4.925 C5.857,4.570 5.857,3.994 6.212,3.639 L8.786,1.64 C10.208,0.355 12.512,0.355 13.933,1.64 C15.354,2.487 15.354,4.790 13.933,6.211 ZM4.926,10.72 C4.570,9.717 4.570,9.140 4.926,8.785 L8.786,4.925 C9.142,4.570 9.718,4.570 10.73,4.925 C10.429,5.280 10.429,5.856 10.73,6.211 L6.212,10.72 C5.857,10.427 5.281,10.427 4.926,10.72 ZM2.353,10.72 C1.642,10.783 1.642,11.935 2.353,12.646 C3.63,13.357 4.215,13.357 4.926,12.646 L7.499,10.72 C7.855,9.717 8.431,9.717 8.786,10.72 C9.142,10.429 9.142,11.4 8.786,11.360 L6.212,13.932 C4.791,15.354 2.487,15.354 1.66,13.932 C0.355,12.511 0.355,10.207 1.66,8.785 L3.639,6.213 C3.994,5.856 4.570,5.856 4.926,6.213 C5.281,6.568 5.281,7.144 4.926,7.499 L2.353,10.72 Z"/>
</svg>