<svg width="295" height="295" viewBox="0 0 295 295" fill="none" xmlns="http://www.w3.org/2000/svg">
<path d="M209.796 206.172C209.785 206.172 209.774 206.172 209.764 206.172C208.694 206.163 207.693 205.741 206.943 204.983C206.191 204.224 205.782 203.218 205.793 202.151C205.814 199.934 207.581 198.142 209.739 198.142C209.751 198.142 209.762 198.142 209.772 198.142C210.855 198.15 211.865 198.582 212.617 199.355C213.353 200.112 213.752 201.109 213.743 202.162C213.723 204.38 211.956 206.172 209.796 206.172ZM209.739 199.235C208.173 199.235 206.89 200.543 206.876 202.162C206.868 202.933 207.164 203.66 207.709 204.21C208.257 204.763 208.99 205.071 209.773 205.079C209.781 205.079 209.788 205.079 209.796 205.079C211.364 205.079 212.645 203.77 212.66 202.151C212.668 201.391 212.378 200.67 211.845 200.122C211.295 199.557 210.556 199.242 209.764 199.235C209.755 199.235 209.748 199.235 209.739 199.235Z" fill="url(#paint0_linear_2734_1977)" fill-opacity="0.85"/>
<path d="M209.465 210.349C209.418 210.349 209.37 210.349 209.323 210.348C206.95 210.305 204.753 209.349 203.137 207.655C201.602 206.044 200.78 203.944 200.824 201.744C200.919 196.93 204.702 193.03 209.342 193.162C211.714 193.204 213.91 194.16 215.525 195.854C217.061 197.465 217.884 199.564 217.841 201.766C217.746 206.529 214.002 210.349 209.465 210.349ZM209.199 194.254C205.248 194.254 201.989 197.597 201.906 201.766C201.868 203.674 202.583 205.496 203.918 206.896C205.333 208.38 207.258 209.217 209.342 209.254C209.383 209.255 209.424 209.255 209.465 209.255C213.416 209.255 216.675 205.913 216.758 201.744C216.796 199.836 216.081 198.013 214.745 196.612C213.331 195.13 211.405 194.293 209.323 194.255C209.281 194.254 209.24 194.254 209.199 194.254Z" fill="url(#paint1_linear_2734_1977)" fill-opacity="0.85"/>
<path d="M208.862 214.23C208.761 214.23 208.662 214.229 208.56 214.227C204.856 214.135 201.449 212.629 198.968 209.986C196.659 207.529 195.44 204.351 195.533 201.04C195.739 193.72 201.432 187.882 208.286 187.882C208.387 187.882 208.486 187.884 208.588 187.886C212.292 187.978 215.699 189.483 218.18 192.126C220.489 194.583 221.709 197.761 221.616 201.071C221.41 208.391 215.717 214.23 208.862 214.23ZM208.287 188.976C202.014 188.976 196.805 194.343 196.616 201.072C196.53 204.09 197.645 206.988 199.753 209.234C202.034 211.664 205.172 213.049 208.588 213.133C208.679 213.136 208.77 213.137 208.861 213.137C215.135 213.137 220.344 207.77 220.533 201.04C220.618 198.022 219.503 195.124 217.394 192.879C215.112 190.449 211.976 189.064 208.56 188.979C208.469 188.977 208.378 188.976 208.287 188.976Z" fill="url(#paint2_linear_2734_1977)" fill-opacity="0.85"/>
<path d="M207.396 217.832C203.056 217.832 198.667 215.937 195.335 212.62C191.934 209.234 189.969 204.665 189.943 200.086C189.917 195.329 191.737 190.857 195.07 187.493C198.37 184.163 202.746 182.333 207.404 182.333C207.443 182.333 207.482 182.333 207.521 182.333C212.112 182.363 216.515 184.299 219.917 187.785C223.239 191.189 225.126 195.673 225.092 200.087C225.022 209.131 216.483 217.755 207.522 217.832C207.481 217.832 207.438 217.832 207.396 217.832ZM207.404 183.427C203.036 183.427 198.931 185.143 195.835 188.267C192.708 191.422 191.001 195.617 191.026 200.079C191.05 204.37 192.899 208.657 196.096 211.841C199.256 214.988 203.466 216.756 207.513 216.738C215.927 216.665 223.944 208.57 224.009 200.078C224.041 195.952 222.268 191.751 219.146 188.553C215.947 185.275 211.815 183.455 207.514 183.427C207.477 183.427 207.44 183.427 207.404 183.427Z" fill="url(#paint3_linear_2734_1977)" fill-opacity="0.85"/>
<path d="M205.377 221.2C200.35 221.2 195.392 219.081 191.33 215.177C186.74 210.762 184.096 204.814 184.078 198.855C184.059 192.755 186.625 186.766 191.116 182.424C195.319 178.359 200.671 176.258 206.21 176.527C216.931 177.035 228.363 186.129 228.292 198.856C228.225 211.045 216.579 220.695 206.21 221.18C205.932 221.194 205.654 221.2 205.377 221.2ZM205.289 177.599C200.368 177.599 195.63 179.573 191.865 183.214C187.586 187.351 185.143 193.05 185.161 198.851C185.178 204.514 187.699 210.175 192.077 214.384C196.146 218.296 201.159 220.313 206.16 220.088C216.044 219.626 227.146 210.444 227.209 198.85C227.276 186.929 216.169 178.093 206.16 177.619C205.869 177.606 205.578 177.599 205.289 177.599Z" fill="url(#paint4_linear_2734_1977)" fill-opacity="0.85"/>
<path d="M204.874 224.298C204.78 224.298 204.686 224.297 204.59 224.296C191.161 224.096 177.969 210.769 177.959 197.391C177.949 183.589 190.641 170.764 204.588 170.486C210.8 170.348 217.455 173.266 222.671 178.457C228.068 183.826 231.27 190.905 231.239 197.393C231.208 203.846 227.941 210.915 222.5 216.303C217.359 221.396 210.95 224.298 204.874 224.298ZM204.977 171.575C204.855 171.575 204.732 171.577 204.609 171.579C191.458 171.842 179.032 184.386 179.041 197.391C179.052 210.225 191.714 223.01 204.607 223.203C210.502 223.25 216.725 220.49 221.742 215.523C226.981 210.334 230.127 203.556 230.156 197.388C230.186 191.189 227.104 184.403 221.912 179.236C217.004 174.353 210.854 171.575 204.977 171.575Z" fill="url(#paint5_linear_2734_1977)" fill-opacity="0.85"/>
<path d="M202.676 227.199C194.998 227.199 187.146 223.73 181.117 217.67C175.079 211.602 171.614 203.6 171.609 195.716C171.605 187.439 174.884 179.566 180.845 173.548C186.794 167.541 194.575 164.234 202.758 164.234C202.766 164.234 202.774 164.234 202.782 164.234C210.562 164.24 218.474 167.743 224.488 173.847C230.536 179.982 233.987 187.955 233.956 195.718C233.893 211.541 218.453 227.134 202.784 227.199C202.748 227.199 202.712 227.199 202.676 227.199ZM202.758 165.327C194.864 165.327 187.355 168.521 181.611 174.321C175.855 180.133 172.688 187.731 172.692 195.716C172.696 203.311 176.046 211.031 181.881 216.895C187.708 222.752 195.282 226.105 202.676 226.105C202.711 226.105 202.745 226.105 202.78 226.105C217.906 226.042 232.813 210.989 232.873 195.714C232.903 188.239 229.566 180.55 223.721 174.618C217.908 168.719 210.277 165.333 202.782 165.327C202.774 165.327 202.765 165.327 202.758 165.327Z" fill="url(#paint6_linear_2734_1977)" fill-opacity="0.85"/>
<path d="M200.659 229.911C191.823 229.911 182.806 225.932 175.903 218.984C169.006 212.042 165.052 202.881 165.052 193.849C165.052 184.385 168.808 175.376 175.629 168.482C182.452 161.586 191.375 157.788 200.754 157.788C200.756 157.788 200.756 157.788 200.758 157.788C209.673 157.789 218.732 161.789 225.611 168.761C232.537 175.78 236.493 184.925 236.464 193.852C236.406 211.987 218.721 229.849 200.76 229.911C200.726 229.911 200.692 229.911 200.659 229.911ZM200.754 158.882C191.665 158.882 183.013 162.565 176.394 169.255C169.779 175.942 166.135 184.676 166.135 193.849C166.135 202.592 169.973 211.472 176.667 218.209C183.368 224.954 192.108 228.817 200.659 228.817C200.691 228.817 200.723 228.817 200.756 228.817C218.174 228.757 235.325 211.436 235.381 193.847C235.409 185.209 231.568 176.347 224.845 169.533C218.166 162.765 209.387 158.883 200.758 158.882C200.757 158.882 200.755 158.882 200.754 158.882Z" fill="url(#paint7_linear_2734_1977)" fill-opacity="0.85"/>
<path d="M197.789 232.461C188.246 232.461 178.512 228.237 170.968 220.796C162.921 212.859 158.307 202.294 158.309 191.813C158.311 181.06 162.853 170.412 170.768 162.598C178.467 154.998 188.298 150.911 198.562 151.174C220.032 151.662 238.83 170.652 238.788 191.814C238.747 212.207 219.199 231.957 198.562 232.452C198.305 232.458 198.047 232.461 197.789 232.461ZM197.728 152.258C188.087 152.258 178.811 156.189 171.525 163.381C163.817 170.99 159.394 181.353 159.392 191.813C159.39 202.003 163.885 212.281 171.726 220.015C179.263 227.452 189.032 231.598 198.536 231.358C218.631 230.876 237.666 211.657 237.705 191.812C237.746 171.222 219.443 152.743 198.536 152.268C198.267 152.261 197.998 152.258 197.728 152.258Z" fill="url(#paint8_linear_2734_1977)" fill-opacity="0.85"/>
<path d="M195.303 234.854C184.607 234.854 173.762 230.185 165.418 221.958C156.513 213.177 151.405 201.393 151.405 189.627C151.405 177.563 156.43 165.686 165.192 157.037C173.714 148.628 184.72 144.15 196.19 144.409C220.069 144.963 240.985 166.094 240.949 189.628C240.914 212.725 219.58 234.277 196.19 234.843C195.895 234.85 195.599 234.854 195.303 234.854ZM195.224 145.492C184.389 145.492 174.027 149.847 165.95 157.82C157.395 166.264 152.488 177.856 152.488 189.627C152.488 201.1 157.476 212.599 166.175 221.176C174.543 229.426 185.46 234.055 196.164 233.749C219.002 233.197 239.831 212.166 239.866 189.625C239.901 166.662 219.48 146.044 196.164 145.503C195.851 145.495 195.537 145.492 195.224 145.492Z" fill="url(#paint9_linear_2734_1977)" fill-opacity="0.85"/>
<path d="M194.052 237.108C193.921 237.108 193.791 237.107 193.66 237.106C167.836 236.841 144.339 213.107 144.361 187.311C144.383 161.122 167.42 137.854 193.658 137.515C205.709 137.35 217.998 142.726 227.519 152.236C237.359 162.062 242.991 174.847 242.971 187.312C242.952 199.658 237.272 212.397 227.389 222.261C217.921 231.711 205.792 237.108 194.052 237.108ZM194.165 138.606C194 138.606 193.837 138.607 193.673 138.609C168.002 138.94 145.466 161.698 145.444 187.311C145.422 212.541 168.408 235.753 193.671 236.012C205.312 236.124 217.258 230.836 226.627 221.483C236.307 211.822 241.869 199.367 241.888 187.31C241.907 175.137 236.392 162.636 226.757 153.013C217.571 143.839 205.718 138.606 194.165 138.606Z" fill="url(#paint10_linear_2734_1977)" fill-opacity="0.85"/>
<path d="M191.454 239.263C191.314 239.263 191.173 239.262 191.032 239.261C162.841 238.986 137.183 213.069 137.201 184.888C137.218 156.259 162.372 130.851 191.031 130.514C204.276 130.384 217.764 136.208 228.122 146.561C238.784 157.218 244.891 171.188 244.876 184.889C244.861 198.515 238.722 212.454 228.034 223.132C217.757 233.4 204.447 239.263 191.454 239.263ZM191.543 131.605C191.377 131.605 191.21 131.606 191.044 131.608C162.955 131.938 138.3 156.835 138.284 184.888C138.266 212.503 163.413 237.898 191.043 238.168C191.18 238.169 191.318 238.17 191.454 238.17C204.164 238.17 217.197 232.421 227.271 222.355C237.756 211.881 243.778 198.224 243.793 184.887C243.808 171.478 237.819 157.791 227.36 147.338C217.337 137.321 204.31 131.605 191.543 131.605Z" fill="url(#paint11_linear_2734_1977)" fill-opacity="0.85"/>
<path d="M188.795 241.332C188.633 241.332 188.473 241.331 188.311 241.33C173.685 241.184 158.868 234.64 147.657 223.378C136.398 212.065 129.942 197.122 129.945 182.379C129.954 151.329 157.227 123.782 188.31 123.427C202.705 123.209 217.416 129.587 228.611 140.776C240.112 152.272 246.7 167.435 246.687 182.379C246.674 197.337 240.077 212.499 228.586 223.98C217.531 235.026 203.054 241.332 188.795 241.332ZM188.858 124.517C188.679 124.517 188.502 124.519 188.323 124.521C157.81 124.869 131.037 151.906 131.028 182.379C131.021 212.359 158.329 239.936 188.322 240.236C188.478 240.238 188.638 240.238 188.796 240.238C202.771 240.24 216.97 234.047 227.825 223.203C239.111 211.926 245.591 197.046 245.604 182.379C245.617 167.725 239.146 152.844 227.849 141.553C216.998 130.708 202.815 124.517 188.858 124.517Z" fill="url(#paint12_linear_2734_1977)" fill-opacity="0.85"/>
<path d="M185.492 243.334C169.484 243.334 153.454 236.452 141.511 224.451C129.507 212.39 122.622 196.117 122.62 179.804C122.618 163.476 129.443 147.216 141.345 135.192C153.422 122.993 169.107 116.275 185.512 116.275C185.516 116.275 185.52 116.275 185.524 116.275C201.68 116.277 217.797 123.239 229.742 135.377C241.626 147.452 248.436 163.645 248.428 179.804C248.409 213.627 219.015 243.313 185.524 243.334C185.513 243.334 185.503 243.334 185.492 243.334ZM185.512 117.368C169.395 117.368 153.984 123.972 142.111 135.965C130.411 147.785 123.701 163.764 123.703 179.804C123.705 195.828 130.474 211.819 142.275 223.676C154.016 235.474 169.768 242.24 185.492 242.24C185.504 242.24 185.512 242.24 185.524 242.24C218.437 242.22 247.326 213.044 247.345 179.804C247.353 163.931 240.657 148.019 228.974 136.148C217.231 124.215 201.394 117.37 185.524 117.368C185.521 117.368 185.515 117.368 185.512 117.368Z" fill="url(#paint13_linear_2734_1977)" fill-opacity="0.85"/>
<path d="M182.662 245.292C165.339 245.292 148.098 237.934 135.356 225.1C122.392 212.044 115.249 195.026 115.246 177.184C115.243 159.693 122.562 142.266 135.326 129.369C148.09 116.473 165.346 109.077 182.668 109.077C182.673 109.077 182.677 109.077 182.682 109.077C200.361 109.082 217.216 116.297 230.141 129.395C242.843 142.266 250.125 159.685 250.12 177.184C250.107 214.088 219.224 245.278 182.682 245.292C182.676 245.292 182.669 245.292 182.662 245.292ZM182.668 110.171C165.63 110.171 148.655 117.449 136.091 130.143C123.528 142.835 116.326 159.981 116.329 177.184C116.332 194.734 123.361 211.476 136.121 224.326C148.661 236.955 165.625 244.199 182.662 244.199C182.67 244.199 182.675 244.199 182.682 244.199C218.637 244.185 249.024 213.495 249.037 177.184C249.042 159.972 241.875 142.835 229.374 130.166C216.653 117.276 200.071 110.175 182.682 110.171C182.678 110.171 182.672 110.171 182.668 110.171Z" fill="url(#paint14_linear_2734_1977)" fill-opacity="0.85"/>
<path d="M179.799 247.226C160.88 247.226 142.9 239.597 129.168 225.741C115.423 211.871 107.85 193.687 107.847 174.541C107.843 155.901 115.665 137.308 129.307 123.53C142.945 109.755 161.349 101.856 179.8 101.856C179.805 101.856 179.81 101.856 179.815 101.856C198.794 101.861 216.804 109.503 230.529 123.377C244.24 137.239 251.789 155.41 251.785 174.541C251.777 214.612 219.491 247.218 179.815 247.226C179.81 247.226 179.804 247.226 179.799 247.226ZM179.8 102.95C161.632 102.95 143.51 110.732 130.072 124.303C116.632 137.877 108.925 156.188 108.93 174.541C108.933 193.394 116.392 211.304 129.934 224.967C143.46 238.616 161.17 246.132 179.799 246.133C179.805 246.133 179.808 246.133 179.815 246.133C218.894 246.124 250.694 214.008 250.702 174.541C250.707 155.701 243.269 137.806 229.762 124.15C216.243 110.483 198.506 102.954 179.815 102.95C179.811 102.95 179.804 102.95 179.8 102.95Z" fill="url(#paint15_linear_2734_1977)" fill-opacity="0.85"/>
<path d="M176.932 249.16C156.871 249.16 137.763 241.009 123.127 226.206C108.502 211.417 100.447 192.129 100.444 171.895C100.441 152.307 108.818 132.609 123.427 117.852C138.035 103.095 157.537 94.6324 176.936 94.6324C176.939 94.6324 176.943 94.6324 176.947 94.6324C197.021 94.6356 216.131 102.764 230.756 117.52C245.394 132.288 253.453 151.599 253.449 171.895C253.441 214.491 219.122 249.151 176.947 249.16C176.941 249.16 176.936 249.16 176.932 249.16ZM176.936 95.7261C157.822 95.7261 138.6 104.071 124.192 118.625C109.785 133.179 101.524 152.595 101.527 171.895C101.529 191.837 109.472 210.85 123.892 225.434C138.324 240.028 157.162 248.065 176.932 248.066C176.937 248.066 176.94 248.066 176.947 248.066C218.525 248.057 252.358 213.887 252.366 171.895C252.37 151.892 244.424 132.855 229.99 118.294C215.57 103.745 196.732 95.7293 176.947 95.7261C176.944 95.7261 176.938 95.7261 176.936 95.7261Z" fill="url(#paint16_linear_2734_1977)" fill-opacity="0.85"/>
<path d="M173.208 251.115C152.962 251.115 133.389 242.693 118 227.336C102.148 211.518 93.0589 190.353 93.0621 169.269C93.0642 148.634 102.299 127.589 118.4 111.529C133.999 95.9685 154.335 87.182 174.104 87.4276C194.743 87.6829 215.403 96.6787 230.79 112.109C246.497 127.862 255.142 148.162 255.132 169.269C255.112 213.85 218.763 250.563 174.103 251.11C173.806 251.113 173.505 251.115 173.208 251.115ZM173.298 88.5159C154.034 88.5159 134.348 97.1572 119.16 112.307C103.265 128.164 94.1471 148.925 94.1449 169.269C94.1418 190.062 103.114 210.943 118.76 226.557C133.946 241.71 153.25 250.021 173.208 250.021C173.502 250.021 173.795 250.019 174.09 250.016C218.16 249.477 254.029 213.254 254.049 169.269C254.069 126.78 216.705 89.0478 174.091 88.5213C173.828 88.5181 173.561 88.5159 173.298 88.5159Z" fill="url(#paint17_linear_2734_1977)" fill-opacity="0.85"/>
<path d="M170.401 253.106C149.1 253.106 128.444 244.174 112.137 227.891C95.342 211.12 85.7146 188.81 85.722 166.681C85.7294 145.205 95.5609 123.078 112.694 105.976C129.303 89.397 150.612 80.0092 171.297 80.2613C216.907 80.7857 256.89 121.169 256.859 166.681C256.827 213.779 218.445 252.545 171.297 253.1C170.999 253.104 170.698 253.106 170.401 253.106ZM170.532 81.3507C150.419 81.3507 129.659 90.5804 113.456 106.753C96.5264 123.652 86.8123 145.495 86.8049 166.681C86.7975 188.52 96.3075 210.547 112.898 227.114C129.225 243.417 150.004 252.271 171.285 252.007C217.842 251.459 255.744 213.181 255.776 166.681C255.806 121.745 216.324 81.8729 171.285 81.3549C171.034 81.3517 170.782 81.3507 170.532 81.3507Z" fill="url(#paint18_linear_2734_1977)" fill-opacity="0.85"/>
<path d="M167.542 255.157C145.283 255.157 123.62 245.755 106.438 228.609C88.6354 210.844 78.4338 187.352 78.4486 164.155C78.4634 141.833 88.9368 118.595 107.183 100.4C124.806 82.8256 147.166 72.8813 168.556 73.1569C216.595 73.74 258.696 116.262 258.65 164.155C258.604 213.695 218.189 254.516 168.557 255.151C168.219 255.155 167.881 255.157 167.542 255.157ZM167.737 74.2452C146.886 74.2452 125.14 84.0292 107.944 101.177C90.1677 118.905 79.5463 142.447 79.5315 164.155C79.5167 187.061 89.6009 210.27 107.199 227.831C124.178 244.773 145.571 254.064 167.542 254.064C167.876 254.064 168.21 254.062 168.543 254.057C217.586 253.429 257.522 213.099 257.568 164.155C257.612 116.837 216.012 74.8262 168.544 74.2505C168.276 74.2473 168.005 74.2452 167.737 74.2452Z" fill="url(#paint19_linear_2734_1977)" fill-opacity="0.85"/>
<path d="M166.422 257.285C166.245 257.285 166.071 257.285 165.894 257.284C142.086 257.151 118.023 246.59 99.8744 228.309C81.6845 209.986 71.2566 185.711 71.2629 161.709C71.2756 113.822 118.148 66.4808 165.893 66.1326C189.545 65.9905 213.597 76.3022 231.74 94.5107C250.058 112.893 260.552 137.386 260.532 161.709C260.509 187.432 250.548 211.582 232.484 229.71C214.753 247.504 191.307 257.285 166.422 257.285ZM166.478 67.2241C166.285 67.2241 166.093 67.2252 165.901 67.2262C118.699 67.5701 72.3585 114.37 72.3458 161.709C72.3321 211.763 116.049 255.914 165.9 256.19C166.073 256.191 166.248 256.191 166.421 256.191C191.021 256.191 214.192 246.524 231.72 228.935C249.579 211.012 259.427 187.138 259.449 161.709C259.469 137.674 249.092 113.465 230.977 95.2861C213.185 77.4311 189.707 67.2241 166.478 67.2241Z" fill="url(#paint20_linear_2734_1977)" fill-opacity="0.85"/>
<path d="M163.853 259.519C163.686 259.519 163.521 259.519 163.352 259.518C138.482 259.394 113.276 248.277 94.1989 229.017C75.1143 209.749 64.1756 184.362 64.1883 159.366C64.2 135.486 75.55 110.405 95.3272 90.5548C115.004 70.8062 139.798 59.3817 163.351 59.2119C188.161 59.0431 213.236 69.9155 232.314 89.066C251.54 108.368 262.55 133.991 262.523 159.367C262.493 186.374 252.078 211.688 233.194 230.645C214.634 249.276 190.026 259.519 163.853 259.519ZM163.951 60.3034C163.753 60.3034 163.558 60.3045 163.36 60.3055C113.881 60.6622 65.2955 109.73 65.2712 159.366C65.2458 210.955 111.998 258.169 163.359 258.425C163.522 258.426 163.689 258.426 163.853 258.426C189.739 258.427 214.075 248.297 232.431 229.869C251.108 211.119 261.41 186.081 261.44 159.364C261.468 134.279 250.573 108.939 231.55 89.8424C212.829 71.0486 188.22 60.3034 163.951 60.3034Z" fill="url(#paint21_linear_2734_1977)" fill-opacity="0.85"/>
<path d="M161.418 261.876C161.26 261.876 161.104 261.876 160.946 261.876C106.637 261.635 57.211 211.716 57.248 157.145C57.2829 105.634 109.615 52.7793 160.943 52.414C161.149 52.4129 161.355 52.4119 161.56 52.4119C187.171 52.4119 213.186 63.8022 233.028 83.727C253.158 103.94 264.683 130.7 264.648 157.146C264.611 185.455 253.744 211.937 234.047 231.716C214.667 251.176 188.889 261.876 161.418 261.876ZM161.56 53.5055C161.356 53.5055 161.156 53.5066 160.952 53.5076C110.155 53.8697 58.3647 106.172 58.3309 157.145C58.2939 211.146 107.206 260.543 160.95 260.783C161.105 260.783 161.263 260.783 161.418 260.783C188.602 260.783 214.107 250.197 233.283 230.94C252.774 211.368 263.529 185.161 263.566 157.144C263.599 130.989 252.191 104.512 232.265 84.5024C212.625 64.7816 186.886 53.5055 161.56 53.5055Z" fill="url(#paint22_linear_2734_1977)" fill-opacity="0.85"/>
<path d="M159.143 264.38C158.992 264.38 158.845 264.38 158.695 264.38C102.003 264.153 50.4166 212.052 50.4642 155.07C50.4854 129.458 62.9902 102.216 84.7735 80.3318C106.464 58.539 133.406 45.9376 158.693 45.7603C158.903 45.7592 159.115 45.7582 159.323 45.7582C186.019 45.7582 213.17 57.6707 233.919 78.5108C254.939 99.6243 266.971 127.529 266.931 155.071C266.886 184.689 255.57 212.343 235.065 232.939C214.868 253.224 187.92 264.38 159.143 264.38ZM159.324 46.8518C159.116 46.8518 158.909 46.8529 158.702 46.8539C105.668 47.2267 51.5915 101.84 51.5471 155.07C51.4995 211.482 102.572 263.062 158.699 263.286C158.846 263.286 158.996 263.286 159.143 263.286C187.634 263.286 214.308 252.245 234.302 232.163C254.6 211.774 265.804 184.394 265.848 155.069C265.888 127.818 253.972 100.196 233.154 79.2862C212.609 58.6501 185.733 46.8518 159.324 46.8518Z" fill="url(#paint23_linear_2734_1977)" fill-opacity="0.85"/>
<path d="M156.476 267.048C128.494 267.048 100.029 254.504 78.3503 232.616C56.3925 210.444 43.8211 181.484 43.8591 153.159C43.9342 97.8888 101.898 39.348 156.625 39.2721C156.666 39.2721 156.712 39.2721 156.754 39.2721C184.939 39.2721 213.596 51.896 235.402 73.9248C257.047 95.7891 269.436 124.67 269.391 153.161C269.293 216.923 219.76 266.947 156.627 267.048C156.577 267.048 156.525 267.048 156.476 267.048ZM156.754 40.3658C156.711 40.3658 156.669 40.3658 156.627 40.3658C102.425 40.4405 45.0171 98.4196 44.942 153.161C44.9039 181.197 57.3601 209.875 79.1159 231.842C100.591 253.526 128.781 265.954 156.476 265.954C156.526 265.954 156.574 265.954 156.625 265.954C219.153 265.854 268.211 216.31 268.308 153.159C268.353 124.956 256.08 96.3583 234.637 74.698C213.033 52.8743 184.652 40.3658 156.754 40.3658Z" fill="url(#paint24_linear_2734_1977)" fill-opacity="0.85"/>
<path d="M154.606 269.903C125.487 269.903 95.8697 256.856 73.3219 234.089C50.4906 211.035 37.4179 180.909 37.4571 151.436C37.5332 93.9414 97.8271 33.0478 154.755 32.9709C154.798 32.9709 154.843 32.9709 154.886 32.9709C184.221 32.9709 214.036 46.0978 236.71 69.0023C259.217 91.7392 272.101 121.786 272.055 151.438C272.005 183.637 259.957 213.522 238.131 235.585C216.287 257.665 186.678 269.852 154.757 269.903C154.707 269.904 154.656 269.903 154.606 269.903ZM154.886 34.0645C154.842 34.0645 154.802 34.0645 154.757 34.0645C98.3538 34.1404 38.6161 94.4722 38.5399 151.438C38.5019 180.622 51.4583 210.466 74.0875 233.316C96.4323 255.877 125.773 268.81 154.606 268.81C154.657 268.81 154.704 268.81 154.755 268.81C219.822 268.705 270.872 217.149 270.972 151.436C271.017 122.073 258.25 92.3084 235.943 69.7756C213.473 47.0761 183.934 34.0645 154.886 34.0645Z" fill="url(#paint25_linear_2734_1977)" fill-opacity="0.85"/>
<path d="M152.966 272.964C122.659 272.964 91.8745 259.426 68.4765 235.802C44.8013 211.898 31.2443 180.594 31.2803 149.92C31.3511 90.1948 93.9758 26.9484 153.112 26.8779C153.153 26.8779 153.195 26.8779 153.237 26.8779C183.769 26.8779 214.755 40.4929 238.267 64.2443C261.62 87.8335 274.988 119.062 274.944 149.922C274.898 183.444 262.402 214.507 239.761 237.388C217.108 260.282 186.336 272.917 153.114 272.964C153.065 272.964 153.013 272.964 152.966 272.964ZM153.237 27.9715C153.193 27.9715 153.156 27.9715 153.114 27.9715C94.5013 28.041 32.434 90.7256 32.3631 149.922C32.3272 180.308 45.7689 211.327 69.2421 235.029C92.4371 258.447 122.946 271.871 152.966 271.871C153.014 271.871 153.062 271.871 153.112 271.871C220.727 271.775 273.766 218.206 273.861 149.92C273.905 119.349 260.652 88.4027 237.502 65.0176C214.192 41.4712 183.483 27.9715 153.237 27.9715Z" fill="url(#paint26_linear_2734_1977)" fill-opacity="0.85"/>
<path d="M151.591 276.256C120.024 276.256 88.039 262.235 63.8129 237.772C39.3394 213.061 25.3213 180.571 25.352 148.634C25.3805 118.932 39.9559 87.1724 65.3399 61.4996C90.7525 35.7968 122.235 21.0402 151.716 21.0124C151.749 21.0124 151.786 21.0124 151.818 21.0124C183.617 21.0124 215.789 35.093 240.107 59.6583C264.277 84.0751 278.118 116.505 278.081 148.635C278.041 183.51 265.11 215.761 241.67 239.446C218.219 263.141 186.274 276.215 151.717 276.256C151.676 276.256 151.631 276.256 151.591 276.256ZM151.818 22.106C151.785 22.106 151.751 22.106 151.717 22.106C122.522 22.1338 91.3183 36.7741 66.1066 62.2717C40.9225 87.7416 26.4634 119.22 26.4348 148.635C26.4042 180.284 40.307 212.492 64.5785 236.999C88.6016 261.257 120.31 275.162 151.591 275.162C151.633 275.162 151.674 275.162 151.715 275.162C223.055 275.077 276.915 220.681 276.998 148.633C277.035 116.793 263.31 84.6444 239.342 60.4316C215.227 36.0713 183.331 22.106 151.818 22.106Z" fill="url(#paint27_linear_2734_1977)" fill-opacity="0.85"/>
<path d="M150.488 279.795C117.584 279.795 84.3727 265.315 59.3545 240.055C34.1291 214.585 19.6732 180.885 19.6933 147.596C19.7325 82.1527 85.7929 15.4352 150.591 15.3968C150.613 15.3968 150.637 15.3968 150.659 15.3968C183.805 15.3968 217.191 29.9228 242.271 55.257C267.222 80.4653 281.517 114.121 281.488 147.596C281.456 183.812 268.087 217.247 243.842 241.744C219.589 266.249 186.471 279.763 150.591 279.795C150.557 279.795 150.522 279.795 150.488 279.795ZM150.659 16.4904C150.635 16.4904 150.615 16.4904 150.591 16.4904C86.329 16.5289 20.8153 82.6942 20.7762 147.596C20.7561 180.598 35.0957 214.016 60.1202 239.28C84.9352 264.335 117.871 278.7 150.488 278.702C150.524 278.702 150.555 278.702 150.591 278.702C224.533 278.636 280.341 222.272 280.405 147.596C280.434 114.409 266.255 81.0345 241.505 56.0303C216.629 30.9011 183.519 16.4904 150.659 16.4904Z" fill="url(#paint28_linear_2734_1977)" fill-opacity="0.85"/>
<path d="M149.692 283.606C115.188 283.606 80.5932 268.554 54.765 242.301C29.0574 216.172 14.3192 181.373 14.3276 146.829C14.3361 114.269 29.7564 80.0124 56.6336 52.8444C83.5298 25.6572 117.472 10.0599 149.758 10.0514C149.767 10.0514 149.781 10.0514 149.789 10.0514C184.221 10.0514 218.736 24.8946 244.499 50.7832C270.377 76.7871 285.208 111.794 285.189 146.829C285.148 224.762 226.926 283.563 149.758 283.606C149.737 283.606 149.713 283.606 149.692 283.606ZM149.789 11.145C149.778 11.145 149.769 11.145 149.758 11.145C83.2306 11.1621 15.4285 79.6386 15.4105 146.829C15.402 181.087 30.0261 215.604 55.5328 241.53C81.1579 267.577 115.477 282.512 149.692 282.512C149.715 282.512 149.735 282.512 149.758 282.512C226.308 282.47 284.065 224.138 284.106 146.829C284.125 112.083 269.41 77.3584 243.736 51.5585C218.176 25.874 183.934 11.145 149.789 11.145Z" fill="url(#paint29_linear_2734_1977)" fill-opacity="0.85"/>
<path d="M149.211 287.709C113.283 287.709 77.4725 272.313 50.9475 245.459C24.4679 218.653 9.28022 182.53 9.27916 146.353C9.2781 112.092 25.0464 76.5094 52.5422 48.7272C80.0465 20.9366 115.291 4.99758 149.237 4.99758C149.239 4.99758 149.24 4.99758 149.242 4.99758C185.799 4.99864 220.711 19.9038 247.548 46.965C274.421 74.0615 289.216 109.359 289.207 146.353C289.187 226.918 229.015 287.688 149.242 287.709C149.234 287.709 149.219 287.709 149.211 287.709ZM149.242 6.09122C115.579 6.09015 80.6122 21.9116 53.3078 49.5005C26.014 77.0786 10.361 112.38 10.362 146.353C10.3631 182.242 25.4355 218.084 51.7142 244.687C78.0362 271.335 113.571 286.616 149.211 286.616C149.221 286.616 149.232 286.616 149.242 286.616C228.398 286.594 288.104 226.295 288.124 146.353C288.133 109.651 273.451 74.6297 246.783 47.7383C220.15 20.8832 185.509 6.09229 149.242 6.09122Z" fill="url(#paint30_linear_2734_1977)" fill-opacity="0.85"/>
<path d="M149.047 292.125C70.7395 292.125 4.58073 225.3 4.56909 146.19C4.5638 110.071 20.6419 73.1152 48.6813 44.7991C76.7111 16.4915 113.295 0.255615 149.046 0.255615C149.054 0.255615 149.057 0.255615 149.066 0.255615C187.283 0.262024 223.482 15.6072 250.995 43.4641C278.451 71.2612 293.568 107.743 293.562 146.19C293.551 229.374 231.431 292.112 149.066 292.125C149.062 292.125 149.052 292.125 149.047 292.125ZM149.046 1.34926C113.578 1.34926 77.2769 17.4666 49.4469 45.5723C21.6084 73.6855 5.64668 110.359 5.65196 146.19C5.6636 224.703 71.3328 291.031 149.047 291.031C149.056 291.031 149.056 291.031 149.066 291.031C230.813 291.018 292.468 228.75 292.48 146.19C292.49 67.6919 226.815 1.36314 149.066 1.34926C149.059 1.34926 149.052 1.34926 149.046 1.34926Z" fill="url(#paint31_linear_2734_1977)" fill-opacity="0.85"/>
<path fill-rule="evenodd" clip-rule="evenodd" d="M235.2 168.814C232.042 182.057 225.911 194.407 217.273 204.929C208.634 215.451 197.715 223.869 185.341 229.546L170.864 213.268L146.478 237.809C132.585 237.623 118.922 234.226 106.56 227.883C94.1973 221.54 83.4694 212.423 75.2152 201.246C77.8092 202.053 80.4886 202.553 83.1989 202.737C84.3157 202.911 85.4575 202.822 86.534 202.478C87.6104 202.133 88.5917 201.543 89.3999 200.753C90.208 199.962 90.8209 198.995 91.1897 197.926C91.5584 196.858 91.673 195.718 91.5243 194.598V128.399C91.5741 126.971 91.3419 125.547 90.8411 124.208C90.3402 122.87 89.5805 121.644 88.6053 120.599C87.6302 119.555 86.4586 118.713 85.1578 118.122C83.857 117.53 82.4524 117.201 81.0243 117.153C79.9775 117.109 78.93 117.224 77.9178 117.495C66.6413 120.104 57.6014 148.28 57.6014 148.28C57.4236 126.564 65.0961 105.515 79.2064 89.0075C93.3167 72.4998 112.915 61.6446 134.394 58.4403C121.968 65.461 115.134 77.0793 115.134 86.5851C115.134 102.118 124.453 100.192 127.218 97.9239V187.298C127.682 188.407 128.288 189.451 129.02 190.404C130.258 192.107 131.885 193.488 133.766 194.434C135.646 195.38 137.725 195.862 139.83 195.841C149.15 195.841 161.296 185.185 161.296 185.185V112.804C161.074 108.948 159.956 105.196 158.031 101.848C156.106 98.499 153.427 95.6452 150.206 93.5126C156.54 92.6669 162.962 94.2059 168.224 97.8307C169.717 96.0005 171.304 94.2482 172.977 92.5807C186.55 78.7227 204.252 69.6424 223.426 66.7036C223.426 66.7036 196.99 87.486 196.99 115.32C196.99 136.041 197.518 186.552 197.518 186.552C207.459 195.996 222.028 182.358 235.2 168.814Z" fill="white"/>
<path fill-rule="evenodd" clip-rule="evenodd" d="M147.628 0.255615C118.479 0.255616 89.9849 8.89962 65.749 25.0945C41.5131 41.2893 22.6241 64.3075 11.4707 91.2381C0.317379 118.169 -2.59923 147.802 3.08968 176.39C8.77859 204.978 22.8175 231.238 43.431 251.847C64.0445 272.456 90.3065 286.489 118.896 292.172C147.485 297.855 177.118 294.932 204.046 283.773C230.974 272.614 253.989 253.72 270.178 229.481C286.368 205.241 295.006 176.746 295 147.597C295 108.519 279.477 71.0426 251.845 43.4108C224.213 15.779 186.736 0.255615 147.659 0.255615H147.628ZM147.628 289.16C119.648 289.16 92.296 280.863 69.0314 265.318C45.7668 249.773 27.6343 227.678 16.9268 201.828C6.21929 175.978 3.4177 147.533 8.87635 120.091C14.335 92.6481 27.8087 67.4406 47.5936 47.6557C67.3785 27.8707 92.586 14.397 120.029 8.93836C147.471 3.47972 175.916 6.28131 201.766 16.9888C227.616 27.6963 249.711 45.8289 265.256 69.0935C280.801 92.3581 289.098 119.71 289.098 147.69C289.073 185.194 274.157 221.153 247.629 247.664C221.101 274.175 185.132 289.067 147.628 289.067V289.16Z" fill="white"/>
<defs>
<linearGradient id="paint0_linear_2734_1977" x1="42.4737" y1="46.5139" x2="260.069" y2="236.04" gradientUnits="userSpaceOnUse">
<stop stop-color="white"/>
<stop offset="1" stop-color="white" stop-opacity="0.51"/>
</linearGradient>
<linearGradient id="paint1_linear_2734_1977" x1="42.4737" y1="46.5139" x2="260.069" y2="236.04" gradientUnits="userSpaceOnUse">
<stop stop-color="white"/>
<stop offset="1" stop-color="white" stop-opacity="0.51"/>
</linearGradient>
<linearGradient id="paint2_linear_2734_1977" x1="42.4737" y1="46.5139" x2="260.069" y2="236.04" gradientUnits="userSpaceOnUse">
<stop stop-color="white"/>
<stop offset="1" stop-color="white" stop-opacity="0.51"/>
</linearGradient>
<linearGradient id="paint3_linear_2734_1977" x1="42.4737" y1="46.5139" x2="260.069" y2="236.04" gradientUnits="userSpaceOnUse">
<stop stop-color="white"/>
<stop offset="1" stop-color="white" stop-opacity="0.51"/>
</linearGradient>
<linearGradient id="paint4_linear_2734_1977" x1="42.4737" y1="46.5139" x2="260.069" y2="236.04" gradientUnits="userSpaceOnUse">
<stop stop-color="white"/>
<stop offset="1" stop-color="white" stop-opacity="0.51"/>
</linearGradient>
<linearGradient id="paint5_linear_2734_1977" x1="42.4737" y1="46.5139" x2="260.069" y2="236.04" gradientUnits="userSpaceOnUse">
<stop stop-color="white"/>
<stop offset="1" stop-color="white" stop-opacity="0.51"/>
</linearGradient>
<linearGradient id="paint6_linear_2734_1977" x1="42.4737" y1="46.5139" x2="260.069" y2="236.04" gradientUnits="userSpaceOnUse">
<stop stop-color="white"/>
<stop offset="1" stop-color="white" stop-opacity="0.51"/>
</linearGradient>
<linearGradient id="paint7_linear_2734_1977" x1="42.4737" y1="46.5139" x2="260.069" y2="236.04" gradientUnits="userSpaceOnUse">
<stop stop-color="white"/>
<stop offset="1" stop-color="white" stop-opacity="0.51"/>
</linearGradient>
<linearGradient id="paint8_linear_2734_1977" x1="42.4737" y1="46.5139" x2="260.069" y2="236.04" gradientUnits="userSpaceOnUse">
<stop stop-color="white"/>
<stop offset="1" stop-color="white" stop-opacity="0.51"/>
</linearGradient>
<linearGradient id="paint9_linear_2734_1977" x1="42.4737" y1="46.5139" x2="260.069" y2="236.04" gradientUnits="userSpaceOnUse">
<stop stop-color="white"/>
<stop offset="1" stop-color="white" stop-opacity="0.51"/>
</linearGradient>
<linearGradient id="paint10_linear_2734_1977" x1="42.4737" y1="46.5139" x2="260.069" y2="236.04" gradientUnits="userSpaceOnUse">
<stop stop-color="white"/>
<stop offset="1" stop-color="white" stop-opacity="0.51"/>
</linearGradient>
<linearGradient id="paint11_linear_2734_1977" x1="42.4737" y1="46.5139" x2="260.069" y2="236.04" gradientUnits="userSpaceOnUse">
<stop stop-color="white"/>
<stop offset="1" stop-color="white" stop-opacity="0.51"/>
</linearGradient>
<linearGradient id="paint12_linear_2734_1977" x1="42.4737" y1="46.5139" x2="260.069" y2="236.04" gradientUnits="userSpaceOnUse">
<stop stop-color="white"/>
<stop offset="1" stop-color="white" stop-opacity="0.51"/>
</linearGradient>
<linearGradient id="paint13_linear_2734_1977" x1="42.4737" y1="46.5139" x2="260.069" y2="236.04" gradientUnits="userSpaceOnUse">
<stop stop-color="white"/>
<stop offset="1" stop-color="white" stop-opacity="0.51"/>
</linearGradient>
<linearGradient id="paint14_linear_2734_1977" x1="42.4737" y1="46.5139" x2="260.069" y2="236.04" gradientUnits="userSpaceOnUse">
<stop stop-color="white"/>
<stop offset="1" stop-color="white" stop-opacity="0.51"/>
</linearGradient>
<linearGradient id="paint15_linear_2734_1977" x1="42.4737" y1="46.5139" x2="260.069" y2="236.04" gradientUnits="userSpaceOnUse">
<stop stop-color="white"/>
<stop offset="1" stop-color="white" stop-opacity="0.51"/>
</linearGradient>
<linearGradient id="paint16_linear_2734_1977" x1="42.4737" y1="46.5139" x2="260.069" y2="236.04" gradientUnits="userSpaceOnUse">
<stop stop-color="white"/>
<stop offset="1" stop-color="white" stop-opacity="0.51"/>
</linearGradient>
<linearGradient id="paint17_linear_2734_1977" x1="42.4737" y1="46.5139" x2="260.069" y2="236.04" gradientUnits="userSpaceOnUse">
<stop stop-color="white"/>
<stop offset="1" stop-color="white" stop-opacity="0.51"/>
</linearGradient>
<linearGradient id="paint18_linear_2734_1977" x1="42.4737" y1="46.5139" x2="260.069" y2="236.04" gradientUnits="userSpaceOnUse">
<stop stop-color="white"/>
<stop offset="1" stop-color="white" stop-opacity="0.51"/>
</linearGradient>
<linearGradient id="paint19_linear_2734_1977" x1="42.4737" y1="46.5139" x2="260.069" y2="236.04" gradientUnits="userSpaceOnUse">
<stop stop-color="white"/>
<stop offset="1" stop-color="white" stop-opacity="0.51"/>
</linearGradient>
<linearGradient id="paint20_linear_2734_1977" x1="42.4737" y1="46.5139" x2="260.069" y2="236.04" gradientUnits="userSpaceOnUse">
<stop stop-color="white"/>
<stop offset="1" stop-color="white" stop-opacity="0.51"/>
</linearGradient>
<linearGradient id="paint21_linear_2734_1977" x1="42.4737" y1="46.5139" x2="260.069" y2="236.04" gradientUnits="userSpaceOnUse">
<stop stop-color="white"/>
<stop offset="1" stop-color="white" stop-opacity="0.51"/>
</linearGradient>
<linearGradient id="paint22_linear_2734_1977" x1="42.4737" y1="46.5139" x2="260.069" y2="236.04" gradientUnits="userSpaceOnUse">
<stop stop-color="white"/>
<stop offset="1" stop-color="white" stop-opacity="0.51"/>
</linearGradient>
<linearGradient id="paint23_linear_2734_1977" x1="42.4737" y1="46.5139" x2="260.069" y2="236.04" gradientUnits="userSpaceOnUse">
<stop stop-color="white"/>
<stop offset="1" stop-color="white" stop-opacity="0.51"/>
</linearGradient>
<linearGradient id="paint24_linear_2734_1977" x1="42.4737" y1="46.5139" x2="260.069" y2="236.04" gradientUnits="userSpaceOnUse">
<stop stop-color="white"/>
<stop offset="1" stop-color="white" stop-opacity="0.51"/>
</linearGradient>
<linearGradient id="paint25_linear_2734_1977" x1="42.4737" y1="46.5139" x2="260.069" y2="236.04" gradientUnits="userSpaceOnUse">
<stop stop-color="white"/>
<stop offset="1" stop-color="white" stop-opacity="0.51"/>
</linearGradient>
<linearGradient id="paint26_linear_2734_1977" x1="42.4737" y1="46.5139" x2="260.069" y2="236.04" gradientUnits="userSpaceOnUse">
<stop stop-color="white"/>
<stop offset="1" stop-color="white" stop-opacity="0.51"/>
</linearGradient>
<linearGradient id="paint27_linear_2734_1977" x1="42.4737" y1="46.5139" x2="260.069" y2="236.04" gradientUnits="userSpaceOnUse">
<stop stop-color="white"/>
<stop offset="1" stop-color="white" stop-opacity="0.51"/>
</linearGradient>
<linearGradient id="paint28_linear_2734_1977" x1="42.4737" y1="46.5139" x2="260.069" y2="236.04" gradientUnits="userSpaceOnUse">
<stop stop-color="white"/>
<stop offset="1" stop-color="white" stop-opacity="0.51"/>
</linearGradient>
<linearGradient id="paint29_linear_2734_1977" x1="42.4737" y1="46.5139" x2="260.069" y2="236.04" gradientUnits="userSpaceOnUse">
<stop stop-color="white"/>
<stop offset="1" stop-color="white" stop-opacity="0.51"/>
</linearGradient>
<linearGradient id="paint30_linear_2734_1977" x1="42.4737" y1="46.5139" x2="260.069" y2="236.04" gradientUnits="userSpaceOnUse">
<stop stop-color="white"/>
<stop offset="1" stop-color="white" stop-opacity="0.51"/>
</linearGradient>
<linearGradient id="paint31_linear_2734_1977" x1="42.4737" y1="46.5139" x2="260.069" y2="236.04" gradientUnits="userSpaceOnUse">
<stop stop-color="white"/>
<stop offset="1" stop-color="white" stop-opacity="0.51"/>
</linearGradient>
</defs>
</svg>
