<svg width="298" height="298" viewBox="0 0 298 298" fill="none" xmlns="http://www.w3.org/2000/svg">
    <path d="M209.108 209.244C209.096 209.244 209.085 209.244 209.075 209.244C208.009 209.234 207.01 208.813 206.263 208.056C205.513 207.297 205.105 206.291 205.115 205.225C205.137 203.009 206.899 201.217 209.051 201.217C209.062 201.217 209.073 201.217 209.083 201.217C210.163 201.226 211.17 201.657 211.92 202.43C212.654 203.187 213.052 204.183 213.043 205.236C213.023 207.453 211.261 209.244 209.108 209.244ZM209.051 202.311C207.489 202.311 206.21 203.617 206.195 205.236C206.188 206.006 206.483 206.733 207.026 207.283C207.572 207.836 208.303 208.143 209.084 208.151C209.092 208.151 209.099 208.151 209.108 208.151C210.67 208.151 211.948 206.843 211.963 205.225C211.97 204.465 211.681 203.744 211.15 203.197C210.602 202.632 209.865 202.317 209.075 202.311C209.066 202.311 209.059 202.311 209.051 202.311Z" fill="#ffffff"/>
    <path d="M208.777 213.419C208.73 213.419 208.683 213.419 208.635 213.418C206.269 213.375 204.079 212.42 202.468 210.726C200.937 209.116 200.117 207.017 200.161 204.818C200.256 200.006 204.028 196.108 208.654 196.24C211.019 196.282 213.209 197.238 214.819 198.931C216.351 200.541 217.172 202.639 217.129 204.84C217.034 209.601 213.301 213.419 208.777 213.419ZM208.512 197.332C204.572 197.332 201.323 200.673 201.24 204.84C201.202 206.747 201.915 208.568 203.246 209.968C204.657 211.451 206.577 212.288 208.654 212.325C208.695 212.326 208.736 212.326 208.777 212.326C212.717 212.326 215.967 208.985 216.049 204.818C216.087 202.91 215.374 201.088 214.042 199.689C212.631 198.207 210.711 197.37 208.635 197.333C208.594 197.332 208.553 197.332 208.512 197.332Z" fill="#ffffff"/>
    <path d="M208.175 217.299C208.075 217.299 207.976 217.298 207.875 217.295C204.181 217.204 200.784 215.698 198.31 213.056C196.008 210.6 194.793 207.424 194.885 204.115C195.091 196.798 200.767 190.963 207.602 190.963C207.702 190.963 207.801 190.964 207.902 190.966C211.596 191.058 214.993 192.563 217.467 195.204C219.769 197.66 220.986 200.836 220.893 204.146C220.687 211.462 215.011 217.299 208.175 217.299ZM207.603 192.056C201.348 192.056 196.154 197.42 195.965 204.147C195.88 207.162 196.991 210.06 199.094 212.305C201.368 214.733 204.497 216.118 207.902 216.202C207.993 216.204 208.084 216.205 208.174 216.205C214.43 216.205 219.624 210.841 219.813 204.115C219.897 201.098 218.786 198.201 216.684 195.957C214.408 193.528 211.281 192.143 207.875 192.059C207.784 192.057 207.694 192.056 207.603 192.056Z" fill="#ffffff"/>
    <path d="M206.714 220.898C202.387 220.898 198.011 219.004 194.688 215.689C191.297 212.305 189.338 207.738 189.312 203.16C189.285 198.406 191.1 193.936 194.424 190.573C197.714 187.245 202.078 185.416 206.722 185.416C206.761 185.416 206.799 185.416 206.838 185.416C211.417 185.446 215.806 187.381 219.198 190.866C222.511 194.268 224.393 198.749 224.359 203.161C224.289 212.201 215.775 220.821 206.839 220.898C206.798 220.898 206.756 220.898 206.714 220.898ZM206.722 186.509C202.367 186.509 198.273 188.225 195.187 191.347C192.069 194.501 190.366 198.694 190.391 203.154C190.416 207.443 192.259 211.728 195.446 214.911C198.598 218.055 202.796 219.823 206.831 219.805C215.22 219.733 223.214 211.641 223.279 203.153C223.311 199.029 221.543 194.829 218.43 191.633C215.24 188.357 211.12 186.537 206.832 186.509C206.795 186.509 206.758 186.509 206.722 186.509Z" fill="#ffffff"/>
    <path d="M204.701 224.265C199.688 224.265 194.745 222.147 190.695 218.244C186.118 213.832 183.482 207.886 183.464 201.931C183.445 195.833 186.003 189.847 190.481 185.507C194.672 181.444 200.009 179.344 205.532 179.613C216.222 180.12 227.62 189.21 227.549 201.932C227.483 214.115 215.871 223.76 205.532 224.245C205.255 224.259 204.977 224.265 204.701 224.265ZM204.614 180.684C199.706 180.684 194.982 182.657 191.228 186.297C186.961 190.431 184.526 196.127 184.544 201.926C184.56 207.586 187.074 213.245 191.44 217.452C195.497 221.363 200.495 223.378 205.481 223.154C215.337 222.692 226.406 213.514 226.47 201.925C226.536 190.009 215.462 181.178 205.481 180.704C205.191 180.691 204.901 180.684 204.614 180.684Z" fill="#ffffff"/>
    <path d="M204.199 227.362C204.105 227.362 204.011 227.361 203.917 227.36C190.526 227.159 177.372 213.839 177.362 200.467C177.352 186.671 190.008 173.853 203.914 173.574C210.108 173.436 216.744 176.353 221.945 181.542C227.326 186.908 230.519 193.984 230.488 200.469C230.458 206.919 227.199 213.985 221.774 219.371C216.648 224.461 210.258 227.362 204.199 227.362ZM204.303 174.663C204.18 174.663 204.058 174.665 203.936 174.667C190.823 174.93 178.432 187.468 178.442 200.467C178.452 213.295 191.078 226.075 203.933 226.267C209.811 226.314 216.016 223.555 221.018 218.59C226.242 213.404 229.379 206.629 229.408 200.464C229.438 194.268 226.365 187.485 221.188 182.32C216.295 177.439 210.162 174.663 204.303 174.663Z" fill="#ffffff"/>
    <path d="M202.008 230.261C194.352 230.261 186.523 226.794 180.511 220.737C174.491 214.671 171.035 206.674 171.031 198.793C171.027 190.52 174.297 182.65 180.24 176.634C186.172 170.631 193.93 167.325 202.089 167.325C202.098 167.325 202.105 167.325 202.114 167.325C209.871 167.331 217.76 170.833 223.757 176.933C229.787 183.066 233.228 191.035 233.197 198.795C233.135 214.611 217.739 230.196 202.116 230.261C202.08 230.261 202.044 230.261 202.008 230.261ZM202.089 168.418C194.218 168.418 186.732 171.61 181.004 177.407C175.265 183.217 172.107 190.811 172.111 198.793C172.115 206.384 175.454 214.1 181.273 219.962C187.083 225.816 194.636 229.168 202.008 229.168C202.043 229.168 202.077 229.168 202.111 229.168C217.194 229.105 232.057 214.059 232.117 198.791C232.147 191.319 228.82 183.633 222.992 177.704C217.196 171.808 209.586 168.423 202.114 168.418C202.105 168.418 202.097 168.418 202.089 168.418Z" fill="#ffffff"/>
    <path d="M199.996 232.972C191.186 232.972 182.195 228.995 175.312 222.05C168.435 215.111 164.493 205.954 164.493 196.927C164.493 187.467 168.238 178.462 175.039 171.571C181.842 164.678 190.739 160.882 200.091 160.882C200.093 160.882 200.093 160.882 200.095 160.882C208.984 160.883 218.017 164.881 224.877 171.85C231.782 178.866 235.727 188.007 235.698 196.929C235.64 215.057 218.006 232.91 200.097 232.972C200.064 232.972 200.03 232.972 199.996 232.972ZM200.091 161.975C191.028 161.975 182.402 165.657 175.802 172.344C169.206 179.028 165.572 187.758 165.572 196.927C165.572 205.666 169.4 214.541 176.074 221.275C182.755 228.018 191.47 231.879 199.996 231.879C200.029 231.879 200.061 231.879 200.093 231.879C217.461 231.819 234.562 214.506 234.618 196.925C234.646 188.291 230.816 179.432 224.112 172.622C217.453 165.857 208.699 161.976 200.095 161.975C200.094 161.975 200.092 161.975 200.091 161.975Z" fill="#ffffff"/>
    <path d="M197.135 235.521C187.619 235.521 177.913 231.299 170.392 223.862C162.368 215.928 157.767 205.368 157.77 194.891C157.772 184.143 162.3 173.5 170.192 165.69C177.869 158.094 187.671 154.008 197.905 154.271C219.313 154.759 238.057 173.74 238.015 194.892C237.975 215.277 218.482 235.017 197.905 235.512C197.649 235.518 197.392 235.521 197.135 235.521ZM197.074 155.355C187.461 155.355 178.212 159.284 170.947 166.473C163.261 174.078 158.851 184.436 158.849 194.891C158.847 205.076 163.33 215.35 171.147 223.08C178.663 230.514 188.403 234.659 197.88 234.418C217.916 233.937 236.896 214.727 236.935 194.89C236.976 174.309 218.726 155.839 197.88 155.364C197.611 155.358 197.343 155.355 197.074 155.355Z" fill="#ffffff"/>
    <path d="M194.657 237.912C183.991 237.912 173.178 233.246 164.857 225.023C155.978 216.246 150.885 204.467 150.885 192.706C150.885 180.648 155.896 168.776 164.633 160.132C173.129 151.726 184.104 147.25 195.54 147.509C219.35 148.063 240.206 169.184 240.17 192.707C240.135 215.794 218.863 237.336 195.54 237.902C195.246 237.909 194.951 237.912 194.657 237.912ZM194.578 148.592C183.774 148.592 173.442 152.945 165.388 160.914C156.857 169.354 151.965 180.941 151.965 192.706C151.965 204.174 156.939 215.668 165.612 224.241C173.956 232.487 184.842 237.114 195.515 236.809C218.286 236.257 239.055 215.235 239.09 192.705C239.125 169.752 218.763 149.144 195.515 148.602C195.203 148.595 194.89 148.592 194.578 148.592Z" fill="#ffffff"/>
    <path d="M193.409 240.166C193.278 240.166 193.149 240.165 193.018 240.164C167.269 239.899 143.84 216.176 143.862 190.392C143.884 164.215 166.853 140.957 193.016 140.618C205.032 140.453 217.286 145.827 226.779 155.332C236.59 165.154 242.206 177.934 242.186 190.393C242.167 202.733 236.504 215.466 226.649 225.325C217.209 234.772 205.114 240.166 193.409 240.166ZM193.521 141.708C193.356 141.708 193.194 141.709 193.031 141.712C167.434 142.042 144.964 164.79 144.941 190.392C144.919 215.61 167.839 238.811 193.029 239.071C204.636 239.183 216.548 233.896 225.89 224.548C235.541 214.891 241.087 202.442 241.106 190.391C241.125 178.223 235.626 165.728 226.02 156.109C216.86 146.939 205.041 141.708 193.521 141.708Z" fill="#ffffff"/>
    <path d="M190.818 242.32C190.678 242.32 190.538 242.319 190.398 242.318C162.288 242.043 136.704 216.138 136.722 187.969C136.739 159.353 161.821 133.957 190.397 133.621C203.603 133.491 217.052 139.312 227.38 149.66C238.012 160.312 244.101 174.276 244.085 187.971C244.07 201.59 237.949 215.523 227.292 226.196C217.045 236.46 203.773 242.32 190.818 242.32ZM190.907 134.711C190.742 134.711 190.575 134.712 190.409 134.714C162.402 135.044 137.819 159.93 137.802 187.969C137.784 215.572 162.858 240.956 190.408 241.225C190.545 241.226 190.682 241.227 190.818 241.227C203.492 241.227 216.486 235.481 226.532 225.419C236.987 214.95 242.991 201.3 243.005 187.968C243.021 174.566 237.049 160.885 226.621 150.436C216.627 140.424 203.637 134.711 190.907 134.711Z" fill="#ffffff"/>
    <path d="M188.167 244.388C188.005 244.388 187.846 244.387 187.685 244.386C173.101 244.24 158.326 237.699 147.148 226.442C135.922 215.135 129.485 200.198 129.488 185.462C129.496 154.426 156.691 126.891 187.684 126.537C202.037 126.319 216.705 132.694 227.868 143.878C239.335 155.368 245.904 170.525 245.891 185.462C245.879 200.412 239.3 215.568 227.843 227.044C216.82 238.084 202.385 244.388 188.167 244.388ZM188.23 127.627C188.052 127.627 187.875 127.628 187.696 127.63C157.272 127.978 130.576 155.002 130.567 185.462C130.56 215.428 157.79 242.993 187.695 243.293C187.851 243.295 188.011 243.295 188.168 243.295C202.103 243.296 216.261 237.106 227.083 226.267C238.337 214.995 244.799 200.122 244.812 185.462C244.824 170.814 238.372 155.941 227.108 144.655C216.288 133.814 202.146 127.627 188.23 127.627Z" fill="#ffffff"/>
    <path d="M184.874 246.389C168.912 246.389 152.929 239.51 141.02 227.515C129.051 215.459 122.186 199.193 122.184 182.888C122.182 166.568 128.987 150.315 140.854 138.297C152.896 126.103 168.536 119.388 184.894 119.388C184.898 119.388 184.901 119.388 184.905 119.388C201.015 119.39 217.085 126.349 228.995 138.481C240.845 150.551 247.635 166.736 247.627 182.888C247.608 216.695 218.299 246.368 184.905 246.389C184.895 246.389 184.884 246.389 184.874 246.389ZM184.894 120.481C168.823 120.481 153.457 127.081 141.618 139.069C129.952 150.884 123.261 166.855 123.263 182.888C123.266 198.905 130.015 214.888 141.781 226.74C153.489 238.533 169.195 245.295 184.874 245.295C184.885 245.295 184.894 245.295 184.905 245.295C217.723 245.275 246.528 216.113 246.547 182.888C246.556 167.023 239.879 151.118 228.23 139.252C216.52 127.325 200.729 120.483 184.905 120.481C184.902 120.481 184.897 120.481 184.894 120.481Z" fill="#ffffff"/>
    <path d="M182.052 248.346C164.779 248.346 147.588 240.991 134.883 228.164C121.956 215.113 114.834 198.103 114.831 180.269C114.828 162.787 122.126 145.367 134.853 132.476C147.58 119.586 164.786 112.194 182.057 112.194C182.063 112.194 182.067 112.194 182.072 112.194C199.7 112.198 216.505 119.41 229.394 132.502C242.058 145.367 249.319 162.778 249.314 180.269C249.301 217.157 218.508 248.333 182.072 248.346C182.066 248.346 182.058 248.346 182.052 248.346ZM182.057 113.287C165.069 113.287 148.144 120.562 135.616 133.249C123.089 145.936 115.908 163.074 115.911 180.269C115.914 197.811 122.923 214.545 135.646 227.39C148.149 240.013 165.064 247.253 182.052 247.253C182.059 247.253 182.065 247.253 182.072 247.253C217.923 247.239 248.222 216.564 248.234 180.269C248.239 163.065 241.094 145.936 228.628 133.273C215.944 120.389 199.41 113.291 182.072 113.287C182.068 113.287 182.061 113.287 182.057 113.287Z" fill="#ffffff"/>
    <path d="M179.197 250.28C160.333 250.28 142.404 242.653 128.713 228.804C115.007 214.94 107.456 196.765 107.453 177.627C107.449 158.996 115.249 140.411 128.851 126.639C142.45 112.871 160.8 104.976 179.198 104.976C179.203 104.976 179.208 104.976 179.213 104.976C198.137 104.98 216.095 112.619 229.78 126.487C243.451 140.342 250.979 158.505 250.975 177.627C250.966 217.68 218.775 250.271 179.213 250.28C179.208 250.28 179.202 250.28 179.197 250.28ZM179.198 106.069C161.083 106.069 143.013 113.847 129.614 127.412C116.214 140.98 108.529 159.283 108.533 177.627C108.536 196.472 115.974 214.374 129.476 228.03C142.963 241.673 160.622 249.185 179.197 249.187C179.203 249.187 179.206 249.187 179.213 249.187C218.179 249.178 249.886 217.077 249.895 177.627C249.899 158.796 242.483 140.909 229.015 127.259C215.535 113.598 197.849 106.073 179.213 106.069C179.209 106.069 179.202 106.069 179.198 106.069Z" fill="#ffffff"/>
    <path d="M176.338 252.212C156.336 252.212 137.283 244.065 122.689 229.269C108.107 214.487 100.074 195.207 100.072 174.983C100.069 155.404 108.421 135.714 122.988 120.964C137.554 106.214 157 97.7553 176.342 97.7553C176.345 97.7553 176.35 97.7553 176.353 97.7553C196.369 97.7585 215.424 105.883 230.006 120.632C244.602 135.394 252.637 154.696 252.633 174.983C252.626 217.559 218.407 252.203 176.353 252.212C176.348 252.212 176.342 252.212 176.338 252.212ZM176.342 98.8484C157.283 98.8484 138.117 107.19 123.752 121.737C109.386 136.284 101.149 155.692 101.152 174.983C101.154 194.916 109.074 213.92 123.452 228.497C137.842 243.085 156.626 251.118 176.338 251.119C176.343 251.119 176.346 251.119 176.353 251.119C217.811 251.11 251.546 216.956 251.554 174.983C251.558 154.988 243.635 135.961 229.243 121.406C214.865 106.863 196.081 98.8516 176.353 98.8484C176.351 98.8484 176.344 98.8484 176.342 98.8484Z" fill="#ffffff"/>
    <path d="M172.625 254.167C152.437 254.167 132.922 245.748 117.577 230.398C101.771 214.587 92.7082 193.432 92.7114 172.358C92.7135 151.732 101.922 130.697 117.975 114.645C133.529 99.0907 153.807 90.3082 173.518 90.5538C194.098 90.8089 214.698 99.8006 230.04 115.224C245.701 130.97 254.321 151.261 254.312 172.358C254.292 216.919 218.048 253.615 173.517 254.161C173.221 254.164 172.922 254.167 172.625 254.167ZM172.715 91.6416C153.507 91.6416 133.877 100.279 118.734 115.422C102.884 131.271 93.7932 152.023 93.7911 172.358C93.7879 193.142 102.734 214.013 118.335 229.62C133.477 244.766 152.725 253.073 172.625 253.073C172.919 253.073 173.211 253.071 173.505 253.068C217.447 252.529 253.212 216.323 253.232 172.358C253.252 129.888 215.996 92.1732 173.506 91.6469C173.243 91.6437 172.978 91.6416 172.715 91.6416Z" fill="#ffffff"/>
    <path d="M169.826 256.156C148.587 256.156 127.99 247.229 111.731 230.953C94.9847 214.19 85.3852 191.889 85.3926 169.771C85.4 148.305 95.203 126.188 112.287 109.093C128.848 92.5223 150.094 83.1387 170.72 83.3907C216.198 83.9148 256.064 124.28 256.034 169.771C256.002 216.847 217.731 255.596 170.72 256.151C170.423 256.154 170.122 256.156 169.826 256.156ZM169.957 84.4796C149.902 84.4796 129.202 93.7051 113.046 109.871C96.1656 126.762 86.4797 148.595 86.4723 169.771C86.4649 191.6 95.9474 213.617 112.49 230.176C128.77 246.472 149.488 255.322 170.707 255.058C217.13 254.51 254.922 216.25 254.954 169.771C254.984 124.855 215.617 85.0016 170.707 84.4838C170.457 84.4806 170.207 84.4796 169.957 84.4796Z" fill="#ffffff"/>
    <path d="M166.976 258.207C144.781 258.207 123.181 248.809 106.049 231.671C88.2975 213.913 78.1255 190.432 78.1402 167.246C78.155 144.934 88.598 121.707 106.791 103.52C124.363 85.9538 146.659 76.0141 167.987 76.2895C215.886 76.8724 257.865 119.375 257.82 167.246C257.774 216.764 217.475 257.566 167.988 258.201C167.651 258.205 167.313 258.207 166.976 258.207ZM167.17 77.3773C146.38 77.3773 124.696 87.1569 107.55 104.297C89.8254 122.017 79.2347 145.548 79.22 167.246C79.2052 190.142 89.2602 213.34 106.807 230.893C123.737 247.828 145.068 257.114 166.976 257.114C167.309 257.114 167.641 257.112 167.973 257.108C216.874 256.48 256.695 216.168 256.74 167.246C256.785 119.95 215.305 77.9581 167.974 77.3827C167.708 77.3795 167.438 77.3773 167.17 77.3773Z" fill="#ffffff"/>
    <path d="M165.859 260.334C165.682 260.334 165.509 260.334 165.332 260.333C141.594 260.2 117.6 249.643 99.504 231.371C81.3668 213.056 70.9691 188.793 70.9754 164.801C70.988 116.937 117.724 69.6164 165.331 69.2684C188.915 69.1264 212.897 79.4334 230.988 97.6336C249.253 116.008 259.716 140.489 259.696 164.801C259.674 190.512 249.741 214.651 231.729 232.771C214.05 250.557 190.672 260.334 165.859 260.334ZM165.915 70.3594C165.722 70.3594 165.531 70.3605 165.339 70.3616C118.274 70.7053 72.0678 117.484 72.0551 164.801C72.0414 214.833 115.631 258.963 165.338 259.239C165.511 259.24 165.685 259.24 165.858 259.24C190.386 259.24 213.491 249.577 230.968 231.996C248.775 214.082 258.594 190.219 258.616 164.801C258.636 140.777 248.289 116.579 230.227 98.4086C212.486 80.5618 189.077 70.3594 165.915 70.3594Z" fill="#ffffff"/>
    <path d="M163.297 262.567C163.13 262.567 162.966 262.567 162.798 262.566C138 262.442 112.867 251.33 93.8449 232.078C74.8156 212.819 63.9086 187.444 63.9213 162.459C63.9329 138.59 75.25 113.52 94.9699 93.6795C114.59 73.9399 139.312 62.5206 162.797 62.3509C187.535 62.1822 212.538 73.0496 231.559 92.1913C250.73 111.485 261.709 137.096 261.681 162.46C261.652 189.455 251.267 214.758 232.438 233.705C213.932 252.328 189.394 262.567 163.297 262.567ZM163.395 63.4419C163.198 63.4419 163.003 63.443 162.806 63.444C113.47 63.8006 65.0252 112.846 65.001 162.459C64.9757 214.024 111.592 261.218 162.804 261.473C162.967 261.474 163.133 261.474 163.297 261.474C189.108 261.475 213.374 251.349 231.677 232.93C250.3 214.189 260.572 189.162 260.602 162.458C260.629 137.384 249.766 112.056 230.798 92.9674C212.132 74.1822 187.594 63.4419 163.395 63.4419Z" fill="#ffffff"/>
    <path d="M160.87 264.923C160.711 264.923 160.556 264.923 160.398 264.923C106.247 264.682 56.9641 214.786 57.0011 160.239C57.0358 108.752 109.216 55.9212 160.396 55.5561C160.601 55.555 160.806 55.554 161.011 55.554C186.548 55.554 212.487 66.9391 232.272 86.8548C252.343 107.059 263.836 133.807 263.801 160.241C263.764 188.536 252.927 215.007 233.288 234.776C213.964 254.227 188.26 264.923 160.87 264.923ZM161.011 56.6471C160.807 56.6471 160.608 56.6482 160.405 56.6492C109.755 57.0111 58.1145 109.29 58.0808 160.239C58.0439 214.216 106.814 263.591 160.402 263.83C160.557 263.83 160.715 263.83 160.87 263.83C187.975 263.83 213.405 253.248 232.526 234.001C251.961 214.438 262.684 188.243 262.721 160.238C262.755 134.095 251.38 107.63 231.511 87.6298C211.928 67.918 186.263 56.6471 161.011 56.6471Z" fill="#ffffff"/>
    <path d="M158.6 267.425C158.451 267.425 158.304 267.425 158.154 267.425C101.627 267.199 50.1894 215.121 50.2369 158.165C50.258 132.565 62.7266 105.336 84.4468 83.4611C106.074 61.6783 132.939 49.0826 158.152 48.9054C158.361 48.9044 158.573 48.9033 158.781 48.9033C185.399 48.9033 212.471 60.8104 233.16 81.641C254.119 102.745 266.116 130.637 266.076 158.166C266.032 187.771 254.748 215.412 234.303 235.998C214.165 256.275 187.295 267.425 158.6 267.425ZM158.782 49.9964C158.574 49.9964 158.367 49.9975 158.161 49.9986C105.281 50.3711 51.3609 104.96 51.3166 158.165C51.2692 214.552 102.194 266.108 158.159 266.332C158.305 266.332 158.454 266.332 158.6 266.332C187.009 266.332 213.606 255.296 233.542 235.223C253.782 214.843 264.953 187.476 264.996 158.164C265.036 130.925 253.155 103.316 232.398 82.416C211.912 61.7894 185.114 49.9964 158.782 49.9964Z" fill="#ffffff"/>
    <path d="M155.941 270.092C128.041 270.092 99.6579 257.554 78.0422 235.676C56.148 213.514 43.613 184.567 43.6509 156.255C43.7258 101.01 101.522 42.496 156.09 42.4202C156.131 42.4202 156.177 42.4202 156.218 42.4202C184.322 42.4202 212.896 55.0384 234.639 77.0571C256.221 98.9114 268.574 127.779 268.53 156.258C268.432 219.99 219.042 269.991 156.092 270.092C156.042 270.092 155.991 270.092 155.941 270.092ZM156.218 43.5134C156.176 43.5134 156.134 43.5134 156.092 43.5134C102.047 43.5881 44.8055 101.541 44.7307 156.258C44.6927 184.28 57.1128 212.945 78.8056 234.902C100.219 256.576 128.327 268.999 155.941 268.999C155.992 268.999 156.039 268.999 156.09 268.999C218.437 268.898 267.353 219.377 267.45 156.255C267.494 128.065 255.257 99.4804 233.876 77.83C212.335 56.0162 184.036 43.5134 156.218 43.5134Z" fill="#ffffff"/>
    <path d="M154.077 272.946C125.042 272.946 95.5109 259.904 73.0284 237.148C50.2633 214.105 37.2284 183.993 37.2674 154.533C37.3434 97.0646 97.4626 36.1987 154.226 36.1219C154.269 36.1219 154.313 36.1219 154.356 36.1219C183.606 36.1219 213.335 49.2428 235.943 72.1369C258.385 94.8633 271.231 124.896 271.186 154.535C271.136 186.719 259.123 216.591 237.36 238.644C215.58 260.714 186.056 272.895 154.228 272.946C154.178 272.946 154.127 272.946 154.077 272.946ZM154.356 37.215C154.312 37.215 154.272 37.215 154.228 37.215C97.9877 37.2908 38.4231 97.5951 38.3472 154.535C38.3092 183.706 51.2281 213.536 73.7918 236.375C96.0718 258.927 125.328 271.853 154.077 271.853C154.128 271.853 154.175 271.853 154.226 271.853C219.105 271.749 270.006 220.216 270.106 154.533C270.15 125.183 257.42 95.4323 235.178 72.9097C212.774 50.2206 183.32 37.215 154.356 37.215Z" fill="#ffffff"/>
    <path d="M152.442 276.006C122.223 276.006 91.5272 262.474 68.197 238.86C44.5904 214.967 31.0727 183.678 31.1085 153.018C31.1792 93.3197 93.6224 30.1021 152.587 30.0316C152.628 30.0316 152.67 30.0316 152.711 30.0316C183.156 30.0316 214.052 43.6404 237.496 67.3811C260.781 90.9594 274.11 122.174 274.067 153.02C274.02 186.526 261.561 217.575 238.986 240.446C216.398 263.329 185.715 275.959 152.589 276.006C152.541 276.006 152.489 276.006 152.442 276.006ZM152.711 31.1248C152.668 31.1248 152.631 31.1248 152.589 31.1248C94.1464 31.1942 32.2589 93.8503 32.1883 153.02C32.1524 183.392 45.5552 214.397 68.9604 238.087C92.0882 261.495 122.508 274.913 152.442 274.913C152.49 274.913 152.537 274.913 152.587 274.913C220.006 274.817 272.892 221.273 272.987 153.018C273.03 122.461 259.816 91.5284 236.732 68.1539C213.491 44.6183 182.87 31.1248 152.711 31.1248Z" fill="#ffffff"/>
    <path d="M151.071 279.296C119.595 279.296 87.7028 265.282 63.5469 240.83C39.1443 216.13 25.1668 183.655 25.1974 151.732C25.2259 122.044 39.759 90.2986 65.0695 64.6375C90.4085 38.9465 121.8 24.1966 151.195 24.1688C151.228 24.1688 151.265 24.1688 151.297 24.1688C183.004 24.1688 215.083 38.243 239.331 62.7971C263.431 87.2028 277.231 119.618 277.194 151.733C277.154 186.592 264.26 218.828 240.889 242.503C217.506 266.187 185.653 279.255 151.196 279.296C151.155 279.296 151.111 279.296 151.071 279.296ZM151.297 25.262C151.264 25.262 151.23 25.262 151.196 25.262C122.086 25.2897 90.9726 39.9233 65.834 65.4093C40.7228 90.8676 26.3056 122.332 26.2771 151.733C26.2466 183.367 40.1091 215.561 64.3103 240.057C88.2638 264.304 119.881 278.203 151.071 278.203C151.113 278.203 151.153 278.203 151.194 278.203C222.328 278.117 276.032 223.746 276.114 151.731C276.151 119.905 262.466 87.7718 238.567 63.57C214.522 39.2209 182.718 25.262 151.297 25.262Z" fill="#ffffff"/>
    <path d="M149.971 282.834C117.162 282.834 84.0471 268.36 59.1015 243.111C33.9492 217.653 19.5351 183.968 19.5552 150.695C19.5942 85.2813 85.4632 18.5942 150.073 18.5558C150.095 18.5558 150.12 18.5558 150.142 18.5558C183.192 18.5558 216.481 33.0751 241.488 58.3978C266.367 83.5946 280.62 117.235 280.591 150.695C280.56 186.894 267.23 220.314 243.055 244.8C218.872 269.293 185.85 282.802 150.073 282.834C150.04 282.834 150.005 282.834 149.971 282.834ZM150.142 19.6489C150.118 19.6489 150.098 19.6489 150.073 19.6489C85.9978 19.6873 20.6739 85.8225 20.6349 150.695C20.6149 183.681 34.9129 217.084 59.8649 242.337C84.6081 267.38 117.448 281.738 149.971 281.741C150.007 281.741 150.037 281.741 150.073 281.741C223.801 281.674 279.447 225.337 279.512 150.695C279.54 117.523 265.402 84.1636 240.725 59.1707C215.92 34.053 182.906 19.6489 150.142 19.6489Z" fill="#ffffff"/>
    <path d="M149.177 286.643C114.773 286.643 80.2786 271.597 54.5253 245.356C28.8921 219.239 14.1966 184.456 14.205 149.928C14.2134 117.383 29.5891 83.142 56.3884 55.9863C83.2067 28.8115 117.051 13.2214 149.243 13.2128C149.252 13.2128 149.266 13.2128 149.274 13.2128C183.606 13.2128 218.022 28.0493 243.71 53.926C269.513 79.918 284.301 114.909 284.282 149.928C284.241 227.825 226.187 286.6 149.243 286.643C149.222 286.643 149.198 286.643 149.177 286.643ZM149.274 14.306C149.263 14.306 149.254 14.306 149.243 14.306C82.9083 14.323 15.3027 82.7683 15.2847 149.928C15.2763 184.17 29.858 218.671 55.2908 244.586C80.8417 270.621 115.061 285.55 149.177 285.55C149.2 285.55 149.22 285.55 149.243 285.55C225.571 285.507 283.161 227.202 283.202 149.928C283.221 115.198 268.549 80.4892 242.948 54.701C217.463 29.0282 183.32 14.306 149.274 14.306Z" fill="#ffffff"/>
    <path d="M148.697 290.744C112.874 290.744 77.167 275.355 50.7188 248.513C24.3159 221.719 9.17221 185.612 9.17115 149.452C9.1701 115.207 24.8927 79.6405 52.3088 51.871C79.7335 24.093 114.875 8.16131 148.724 8.16131C148.726 8.16131 148.727 8.16131 148.729 8.16131C185.179 8.16237 219.99 23.0607 246.75 50.1096C273.545 77.1937 288.297 112.475 288.288 149.452C288.268 229.981 228.271 290.723 148.729 290.744C148.72 290.744 148.706 290.744 148.697 290.744ZM148.729 9.25445C115.163 9.25338 80.2976 25.0677 53.0723 52.6439C25.8575 80.2095 10.2498 115.494 10.2509 149.452C10.2519 185.325 25.2807 221.15 51.4832 247.741C77.729 274.377 113.161 289.651 148.697 289.651C148.708 289.651 148.718 289.651 148.729 289.651C227.655 289.63 287.188 229.357 287.208 149.452C287.217 112.767 272.578 77.7616 245.987 50.8825C219.431 24.0396 184.891 9.25552 148.729 9.25445Z" fill="#ffffff"/>
    <path d="M148.534 295.157C70.4534 295.157 4.48633 228.363 4.47473 149.289C4.46946 113.186 20.501 76.2479 48.4591 47.9447C76.4078 19.65 112.886 3.42151 148.533 3.42151C148.541 3.42151 148.544 3.42151 148.553 3.42151C186.66 3.42791 222.754 18.7661 250.187 46.6103C277.563 74.3947 292.636 110.86 292.631 149.289C292.619 232.435 230.679 295.144 148.553 295.157C148.549 295.157 148.539 295.157 148.534 295.157ZM148.533 4.51465C113.168 4.51465 76.9719 20.6246 49.2225 48.7176C21.4647 76.8179 5.54919 113.475 5.55447 149.289C5.56607 227.767 71.045 294.064 148.534 294.064C148.543 294.064 148.543 294.064 148.553 294.064C230.063 294.051 291.54 231.812 291.551 149.289C291.562 70.827 226.076 4.52853 148.553 4.51465C148.546 4.51465 148.539 4.51465 148.533 4.51465Z" fill="#ffffff"/>
    <path fill-rule="evenodd" clip-rule="evenodd" d="M237.539 170.42C234.346 183.809 228.148 196.296 219.414 206.934C210.68 217.573 199.64 226.084 187.129 231.823L172.493 215.365L147.838 240.178C133.791 239.989 119.978 236.555 107.478 230.141C94.9793 223.728 84.1329 214.511 75.7875 203.21C78.4102 204.026 81.1192 204.532 83.8594 204.718C84.9885 204.894 86.143 204.804 87.2313 204.456C88.3197 204.108 89.3118 203.51 90.1289 202.711C90.946 201.913 91.5656 200.934 91.9384 199.854C92.3113 198.774 92.4272 197.622 92.2768 196.489V129.558C92.3271 128.115 92.0924 126.675 91.586 125.322C91.0796 123.969 90.3115 122.729 89.3256 121.673C88.3396 120.617 87.1552 119.766 85.84 119.168C84.5248 118.57 83.1047 118.237 81.6608 118.189C80.6024 118.144 79.5433 118.26 78.52 118.534C67.1189 121.172 57.9792 149.66 57.9792 149.66C57.7994 127.704 65.5566 106.422 79.8228 89.7322C94.089 73.0421 113.904 62.0671 135.62 58.8273C123.057 65.9256 116.147 77.6722 116.147 87.2831C116.147 102.987 125.569 101.04 128.365 98.747V189.108C128.834 190.229 129.446 191.285 130.186 192.249C131.438 193.97 133.083 195.367 134.985 196.323C136.886 197.279 138.988 197.767 141.116 197.745C150.539 197.745 162.819 186.972 162.819 186.972V113.791C162.595 109.893 161.464 106.1 159.518 102.714C157.572 99.3285 154.863 96.4432 151.607 94.2871C158.01 93.432 164.503 94.988 169.823 98.6528C171.333 96.8024 172.937 95.0307 174.629 93.3448C188.352 79.3338 206.25 70.1532 225.636 67.1819C225.636 67.1819 198.907 88.1939 198.907 116.336C198.907 137.285 199.441 188.354 199.441 188.354C209.492 197.902 224.222 184.114 237.539 170.42Z" fill="#ffffff"/>
    <path fill-rule="evenodd" clip-rule="evenodd" d="M149 0C119.529 6.54744e-07 90.7204 8.73948 66.2168 25.1132C41.7132 41.4869 22.6155 64.7594 11.339 91.9874C0.0624462 119.215 -2.88637 149.176 2.86537 178.08C8.61711 206.984 22.8111 233.533 43.6523 254.37C64.4934 275.207 91.0456 289.395 119.951 295.141C148.856 300.886 178.816 297.931 206.042 286.649C233.267 275.367 256.536 256.264 272.904 231.757C289.273 207.25 298.006 178.439 298 148.969C298 109.46 282.305 71.5689 254.368 43.6319C226.431 15.6948 188.54 0 149.031 0H149ZM149 292.095C120.711 292.095 93.057 283.707 69.5355 267.99C46.0139 252.273 27.6811 229.935 16.8553 203.799C6.02955 177.663 3.19701 148.904 8.71595 121.159C14.2349 93.4129 27.8574 67.927 47.8609 47.9236C67.8643 27.9202 93.3503 14.2976 121.096 8.77865C148.841 3.25971 177.6 6.09225 203.736 16.918C229.872 27.7438 252.211 46.0767 267.927 69.5982C283.644 93.1198 292.032 120.774 292.032 149.063C292.008 186.981 276.927 223.338 250.106 250.141C223.285 276.944 186.918 292.001 149 292.001V292.095Z" fill="#ffffff"/>
    <defs>
        <linearGradient id="paint0_linear_15_1655" x1="42.2695" y1="49.6587" x2="259.692" y2="238.572" gradientUnits="userSpaceOnUse">
            <stop stop-color="#ffffff"/>
            <stop offset="1" stop-color="#FFCA0F" stop-opacity="0.51"/>
        </linearGradient>
        <linearGradient id="paint1_linear_15_1655" x1="42.2695" y1="49.6587" x2="259.692" y2="238.572" gradientUnits="userSpaceOnUse">
            <stop stop-color="#ffffff"/>
            <stop offset="1" stop-color="#FFCA0F" stop-opacity="0.51"/>
        </linearGradient>
        <linearGradient id="paint2_linear_15_1655" x1="42.2695" y1="49.6587" x2="259.692" y2="238.572" gradientUnits="userSpaceOnUse">
            <stop stop-color="#ffffff"/>
            <stop offset="1" stop-color="#FFCA0F" stop-opacity="0.51"/>
        </linearGradient>
        <linearGradient id="paint3_linear_15_1655" x1="42.2695" y1="49.6587" x2="259.692" y2="238.572" gradientUnits="userSpaceOnUse">
            <stop stop-color="#ffffff"/>
            <stop offset="1" stop-color="#FFCA0F" stop-opacity="0.51"/>
        </linearGradient>
        <linearGradient id="paint4_linear_15_1655" x1="42.2695" y1="49.6587" x2="259.692" y2="238.572" gradientUnits="userSpaceOnUse">
            <stop stop-color="#ffffff"/>
            <stop offset="1" stop-color="#FFCA0F" stop-opacity="0.51"/>
        </linearGradient>
        <linearGradient id="paint5_linear_15_1655" x1="42.2695" y1="49.6587" x2="259.692" y2="238.572" gradientUnits="userSpaceOnUse">
            <stop stop-color="#ffffff"/>
            <stop offset="1" stop-color="#FFCA0F" stop-opacity="0.51"/>
        </linearGradient>
        <linearGradient id="paint6_linear_15_1655" x1="42.2695" y1="49.6587" x2="259.692" y2="238.572" gradientUnits="userSpaceOnUse">
            <stop stop-color="#ffffff"/>
            <stop offset="1" stop-color="#FFCA0F" stop-opacity="0.51"/>
        </linearGradient>
        <linearGradient id="paint7_linear_15_1655" x1="42.2695" y1="49.6587" x2="259.692" y2="238.572" gradientUnits="userSpaceOnUse">
            <stop stop-color="#ffffff"/>
            <stop offset="1" stop-color="#FFCA0F" stop-opacity="0.51"/>
        </linearGradient>
        <linearGradient id="paint8_linear_15_1655" x1="42.2695" y1="49.6587" x2="259.692" y2="238.572" gradientUnits="userSpaceOnUse">
            <stop stop-color="#ffffff"/>
            <stop offset="1" stop-color="#FFCA0F" stop-opacity="0.51"/>
        </linearGradient>
        <linearGradient id="paint9_linear_15_1655" x1="42.2695" y1="49.6587" x2="259.692" y2="238.572" gradientUnits="userSpaceOnUse">
            <stop stop-color="#ffffff"/>
            <stop offset="1" stop-color="#FFCA0F" stop-opacity="0.51"/>
        </linearGradient>
        <linearGradient id="paint10_linear_15_1655" x1="42.2695" y1="49.6587" x2="259.692" y2="238.572" gradientUnits="userSpaceOnUse">
            <stop stop-color="#ffffff"/>
            <stop offset="1" stop-color="#FFCA0F" stop-opacity="0.51"/>
        </linearGradient>
        <linearGradient id="paint11_linear_15_1655" x1="42.2695" y1="49.6587" x2="259.692" y2="238.572" gradientUnits="userSpaceOnUse">
            <stop stop-color="#ffffff"/>
            <stop offset="1" stop-color="#FFCA0F" stop-opacity="0.51"/>
        </linearGradient>
        <linearGradient id="paint12_linear_15_1655" x1="42.2695" y1="49.6587" x2="259.692" y2="238.572" gradientUnits="userSpaceOnUse">
            <stop stop-color="#ffffff"/>
            <stop offset="1" stop-color="#FFCA0F" stop-opacity="0.51"/>
        </linearGradient>
        <linearGradient id="paint13_linear_15_1655" x1="42.2695" y1="49.6587" x2="259.692" y2="238.572" gradientUnits="userSpaceOnUse">
            <stop stop-color="#ffffff"/>
            <stop offset="1" stop-color="#FFCA0F" stop-opacity="0.51"/>
        </linearGradient>
        <linearGradient id="paint14_linear_15_1655" x1="42.2695" y1="49.6587" x2="259.692" y2="238.572" gradientUnits="userSpaceOnUse">
            <stop stop-color="#ffffff"/>
            <stop offset="1" stop-color="#FFCA0F" stop-opacity="0.51"/>
        </linearGradient>
        <linearGradient id="paint15_linear_15_1655" x1="42.2695" y1="49.6587" x2="259.692" y2="238.572" gradientUnits="userSpaceOnUse">
            <stop stop-color="#ffffff"/>
            <stop offset="1" stop-color="#FFCA0F" stop-opacity="0.51"/>
        </linearGradient>
        <linearGradient id="paint16_linear_15_1655" x1="42.2695" y1="49.6587" x2="259.692" y2="238.572" gradientUnits="userSpaceOnUse">
            <stop stop-color="#ffffff"/>
            <stop offset="1" stop-color="#FFCA0F" stop-opacity="0.51"/>
        </linearGradient>
        <linearGradient id="paint17_linear_15_1655" x1="42.2695" y1="49.6587" x2="259.692" y2="238.572" gradientUnits="userSpaceOnUse">
            <stop stop-color="#ffffff"/>
            <stop offset="1" stop-color="#FFCA0F" stop-opacity="0.51"/>
        </linearGradient>
        <linearGradient id="paint18_linear_15_1655" x1="42.2695" y1="49.6587" x2="259.692" y2="238.572" gradientUnits="userSpaceOnUse">
            <stop stop-color="#ffffff"/>
            <stop offset="1" stop-color="#FFCA0F" stop-opacity="0.51"/>
        </linearGradient>
        <linearGradient id="paint19_linear_15_1655" x1="42.2695" y1="49.6587" x2="259.692" y2="238.572" gradientUnits="userSpaceOnUse">
            <stop stop-color="#ffffff"/>
            <stop offset="1" stop-color="#FFCA0F" stop-opacity="0.51"/>
        </linearGradient>
        <linearGradient id="paint20_linear_15_1655" x1="42.2695" y1="49.6587" x2="259.692" y2="238.572" gradientUnits="userSpaceOnUse">
            <stop stop-color="#ffffff"/>
            <stop offset="1" stop-color="#FFCA0F" stop-opacity="0.51"/>
        </linearGradient>
        <linearGradient id="paint21_linear_15_1655" x1="42.2695" y1="49.6587" x2="259.692" y2="238.572" gradientUnits="userSpaceOnUse">
            <stop stop-color="#ffffff"/>
            <stop offset="1" stop-color="#FFCA0F" stop-opacity="0.51"/>
        </linearGradient>
        <linearGradient id="paint22_linear_15_1655" x1="42.2695" y1="49.6587" x2="259.692" y2="238.572" gradientUnits="userSpaceOnUse">
            <stop stop-color="#ffffff"/>
            <stop offset="1" stop-color="#FFCA0F" stop-opacity="0.51"/>
        </linearGradient>
        <linearGradient id="paint23_linear_15_1655" x1="42.2695" y1="49.6587" x2="259.692" y2="238.572" gradientUnits="userSpaceOnUse">
            <stop stop-color="#ffffff"/>
            <stop offset="1" stop-color="#FFCA0F" stop-opacity="0.51"/>
        </linearGradient>
        <linearGradient id="paint24_linear_15_1655" x1="42.2695" y1="49.6587" x2="259.692" y2="238.572" gradientUnits="userSpaceOnUse">
            <stop stop-color="#ffffff"/>
            <stop offset="1" stop-color="#FFCA0F" stop-opacity="0.51"/>
        </linearGradient>
        <linearGradient id="paint25_linear_15_1655" x1="42.2695" y1="49.6587" x2="259.692" y2="238.572" gradientUnits="userSpaceOnUse">
            <stop stop-color="#ffffff"/>
            <stop offset="1" stop-color="#FFCA0F" stop-opacity="0.51"/>
        </linearGradient>
        <linearGradient id="paint26_linear_15_1655" x1="42.2695" y1="49.6587" x2="259.692" y2="238.572" gradientUnits="userSpaceOnUse">
            <stop stop-color="#ffffff"/>
            <stop offset="1" stop-color="#FFCA0F" stop-opacity="0.51"/>
        </linearGradient>
        <linearGradient id="paint27_linear_15_1655" x1="42.2695" y1="49.6587" x2="259.692" y2="238.572" gradientUnits="userSpaceOnUse">
            <stop stop-color="#ffffff"/>
            <stop offset="1" stop-color="#FFCA0F" stop-opacity="0.51"/>
        </linearGradient>
        <linearGradient id="paint28_linear_15_1655" x1="42.2695" y1="49.6587" x2="259.692" y2="238.572" gradientUnits="userSpaceOnUse">
            <stop stop-color="#ffffff"/>
            <stop offset="1" stop-color="#FFCA0F" stop-opacity="0.51"/>
        </linearGradient>
        <linearGradient id="paint29_linear_15_1655" x1="42.2695" y1="49.6587" x2="259.692" y2="238.572" gradientUnits="userSpaceOnUse">
            <stop stop-color="#ffffff"/>
            <stop offset="1" stop-color="#FFCA0F" stop-opacity="0.51"/>
        </linearGradient>
        <linearGradient id="paint30_linear_15_1655" x1="42.2695" y1="49.6587" x2="259.692" y2="238.572" gradientUnits="userSpaceOnUse">
            <stop stop-color="#ffffff"/>
            <stop offset="1" stop-color="#FFCA0F" stop-opacity="0.51"/>
        </linearGradient>
        <linearGradient id="paint31_linear_15_1655" x1="42.2695" y1="49.6587" x2="259.692" y2="238.572" gradientUnits="userSpaceOnUse">
            <stop stop-color="#ffffff"/>
            <stop offset="1" stop-color="#FFCA0F" stop-opacity="0.51"/>
        </linearGradient>
    </defs>
</svg>
