<svg
        xmlns="http://www.w3.org/2000/svg"
        xmlns:xlink="http://www.w3.org/1999/xlink"
        width="24px" height="24px">
    <path fill-rule="evenodd"  fill="rgb(255, 255, 255)"
          d="M19.116,9.767 C17.403,9.767 15.897,8.885 15.26,7.553 L9.588,10.276 C9.837,11.185 9.819,12.155 9.537,13.54 L15.488,15.847 C16.381,14.857 17.675,14.232 19.116,14.232 C21.813,14.232 23.999,16.418 23.999,19.116 C23.999,21.813 21.813,23.999 19.116,23.999 C16.418,23.999 14.232,21.813 14.232,19.116 C14.232,18.663 14.293,18.224 14.410,17.807 L8.389,14.981 C7.502,15.895 6.259,16.464 4.883,16.464 C2.186,16.464 0.0,14.278 0.0,11.581 C0.0,8.883 2.186,6.697 4.883,6.697 C6.326,6.697 7.622,7.323 8.515,8.316 L14.263,5.438 C14.242,5.255 14.232,5.71 14.232,4.883 C14.232,2.186 16.418,0.0 19.116,0.0 C21.813,0.0 23.999,2.186 23.999,4.883 C23.999,7.580 21.813,9.767 19.116,9.767 ZM19.116,21.767 C20.580,21.767 21.767,20.580 21.767,19.116 C21.767,17.652 20.580,16.464 19.116,16.464 C18.131,16.464 17.271,17.0 16.813,17.802 C16.591,18.188 16.464,18.635 16.464,19.116 C16.464,20.580 17.652,21.767 19.116,21.767 ZM7.197,10.284 C6.740,9.474 5.875,8.929 4.883,8.929 C3.419,8.929 2.232,10.117 2.232,11.581 C2.232,13.45 3.419,14.232 4.883,14.232 C5.825,14.232 6.652,13.742 7.124,12.999 C7.638,12.189 7.666,11.120 7.197,10.284 ZM19.116,2.232 C17.652,2.232 16.464,3.419 16.464,4.883 C16.464,5.172 16.510,5.448 16.594,5.705 C16.940,6.768 17.940,7.534 19.116,7.534 C20.580,7.534 21.767,6.347 21.767,4.883 C21.767,3.419 20.580,2.232 19.116,2.232 Z"/>
</svg>