<?xml version="1.0" encoding="utf-8"?>
<!-- Generator: Adobe Illustrator 24.3.0, SVG Export Plug-In . SVG Version: 6.00 Build 0)  -->
<svg version="1.1" id="Layer_1" xmlns="http://www.w3.org/2000/svg" xmlns:xlink="http://www.w3.org/1999/xlink" x="0px" y="0px"
	 viewBox="0 0 200 200" enable-background="new 0 0 200 200" xml:space="preserve">
<path fill="#282828" d="M81.532,99.998l5.2,9.1c1.1,1.8,3.7,1.8,4.7,0l5.2-9.1c1.1-1.8-0.3-4.1-2.4-4.1h-10.4
	C81.732,95.898,80.432,98.198,81.532,99.998z"/>
<path fill="#282828" d="M89.432,98.998c-1,0-1.8-0.7-2-1.7c-1.2-7.2,1.1-14.5,6.3-19.7c5.3-5.3,12.9-7.6,20.3-6.1
	c1.1,0.2,1.8,1.3,1.6,2.4s-1.3,1.8-2.4,1.6c-6.1-1.2-12.3,0.7-16.7,5c-4.2,4.2-6.2,10.2-5.2,16.1c0.2,1.1-0.5,2.1-1.6,2.3
	C89.632,98.998,89.532,98.998,89.432,98.998z"/>
<path fill="#282828" d="M119.532,143.298h-30.9c-0.5,0-1-0.2-1.4-0.6l-20.3-20.3c-0.4-0.3-0.6-0.8-0.6-1.4v-50.1
	c0-8.2,6.6-14.8,14.8-14.8h38.4c8.2,0,14.8,6.6,14.8,14.8v57.6C134.332,136.698,127.732,143.298,119.532,143.298z M89.432,139.298
	h30.1c6,0,10.8-4.8,10.8-10.8v-57.6c0-6-4.8-10.8-10.8-10.8h-38.4c-6,0-10.8,4.8-10.8,10.8v49.3L89.432,139.298z"/>
<path fill="#282828" d="M87.132,141.298v-13c0-3.7-3.8-7-8.2-7h-9.6v-4h9.6c6.6,0,12.2,5,12.2,11v13
	C91.132,142.398,87.132,142.398,87.132,141.298z"/>
</svg>
