<svg
        xmlns="http://www.w3.org/2000/svg"
        xmlns:xlink="http://www.w3.org/1999/xlink"
        width="319px" height="83px">
    <path fill-rule="evenodd"  fill="rgb(0, 255, 255)"
          d="M317.20,80.423 L317.20,64.796 L318.408,64.796 L318.408,80.423 L317.20,80.423 ZM310.446,72.241 C309.716,74.533 308.133,76.520 306.349,77.417 L305.523,76.327 C307.765,75.255 309.716,72.302 309.724,69.594 L309.724,67.556 L306.33,67.556 L306.33,66.413 L314.840,66.413 L314.840,67.556 L311.113,67.556 L311.113,69.594 C311.122,72.249 313.47,74.947 315.350,75.940 L314.576,77.30 C312.748,76.204 311.175,74.403 310.446,72.241 ZM289.960,36.959 L301.776,24.975 C306.704,19.991 308.777,17.808 308.777,14.55 C308.777,10.583 306.872,7.559 302.504,7.559 C297.800,7.559 295.896,10.863 295.840,15.231 L289.960,15.231 C290.72,6.831 295.224,1.959 302.504,1.959 C310.736,1.959 314.936,7.503 314.936,13.831 C314.936,19.823 311.521,23.462 306.424,28.447 L298.305,36.399 L315.104,36.399 L315.104,41.999 L289.960,41.999 L289.960,36.959 ZM290.847,68.347 C290.837,66.404 293.26,65.209 296.366,65.200 C299.705,65.209 301.868,66.404 301.868,68.347 C301.868,70.272 299.705,71.466 296.366,71.458 C293.26,71.466 290.837,70.272 290.847,68.347 ZM300.408,68.347 C300.408,67.98 298.792,66.334 296.366,66.325 C293.931,66.334 292.305,67.98 292.323,68.347 C292.305,69.559 293.931,70.333 296.366,70.333 C298.792,70.333 300.408,69.559 300.408,68.347 ZM303.538,73.885 L297.192,73.885 L297.192,77.83 L295.803,77.83 L295.803,73.885 L289.229,73.885 L289.229,72.742 L303.538,72.742 L303.538,73.885 ZM285.64,80.458 L283.693,80.458 L283.693,64.796 L285.64,64.796 L285.64,71.18 L287.683,71.18 L287.683,72.179 L285.64,72.179 L285.64,80.458 ZM273.620,76.679 L273.620,70.702 L279.316,70.702 L279.316,67.397 L273.585,67.397 L273.585,66.254 L280.687,66.254 L280.687,71.844 L274.992,71.844 L274.992,75.501 C277.892,75.510 279.922,75.395 282.287,74.956 L282.427,76.99 C279.966,76.547 277.883,76.661 274.868,76.679 L273.620,76.679 ZM250.170,36.959 L261.986,24.975 C266.913,19.991 268.986,17.808 268.986,14.55 C268.986,10.583 267.82,7.559 262.714,7.559 C258.10,7.559 256.106,10.863 256.50,15.231 L250.170,15.231 C250.282,6.831 255.434,1.959 262.714,1.959 C270.945,1.959 275.146,7.503 275.146,13.831 C275.146,19.823 271.730,23.462 266.633,28.447 L258.514,36.399 L275.314,36.399 L275.314,41.999 L250.170,41.999 L250.170,36.959 ZM250.665,65.130 L250.665,79.632 L249.347,79.632 L249.347,72.38 L247.334,72.38 C247.202,75.79 245.892,76.987 243.967,76.977 C241.938,76.987 240.619,74.868 240.610,71.545 C240.619,68.223 241.938,66.123 243.967,66.114 C245.866,66.123 247.150,67.951 247.325,70.896 L249.347,70.896 L249.347,65.130 L250.665,65.130 ZM243.967,67.415 C242.702,67.415 241.893,69.5 241.911,71.545 C241.893,74.77 242.702,75.676 243.967,75.659 C245.242,75.676 246.51,74.77 246.42,71.545 C246.51,69.5 245.242,67.415 243.967,67.415 ZM221.870,42.839 C213.806,42.839 208.710,37.856 208.710,29.288 L208.710,15.510 C208.710,6.943 213.806,1.959 221.870,1.959 C229.934,1.959 235.30,6.943 235.30,15.510 L235.30,29.288 C235.30,37.856 229.934,42.839 221.870,42.839 ZM228.870,15.175 C228.870,11.30 226.518,7.559 221.870,7.559 C217.222,7.559 214.870,11.30 214.870,15.175 L214.870,29.623 C214.870,33.767 217.222,37.239 221.870,37.239 C226.518,37.239 228.870,33.767 228.870,29.623 L228.870,15.175 ZM207.724,74.148 C207.733,77.284 208.840,80.836 210.27,82.585 L208.691,82.585 C207.74,80.230 206.177,77.470 206.160,74.148 C206.177,70.834 207.74,68.74 208.691,65.727 L210.27,65.727 C208.840,67.459 207.733,71.18 207.724,74.148 ZM198.479,79.175 C195.657,79.175 194.23,76.802 194.31,72.635 C194.23,68.504 195.675,66.97 198.479,66.97 C201.274,66.97 202.926,68.504 202.926,72.635 C202.926,76.802 201.300,79.175 198.479,79.175 ZM198.479,67.468 C196.650,67.476 195.570,69.340 195.561,72.635 C195.570,75.932 196.633,77.769 198.479,77.769 C200.315,77.769 201.388,75.932 201.379,72.635 C201.388,69.340 200.307,67.476 198.479,67.468 ZM167.799,36.959 L179.616,24.975 C184.544,19.991 186.615,17.808 186.615,14.55 C186.615,10.583 184.712,7.559 180.343,7.559 C175.639,7.559 173.735,10.863 173.680,15.231 L167.799,15.231 C167.911,6.831 173.63,1.959 180.343,1.959 C188.575,1.959 192.776,7.503 192.776,13.831 C192.776,19.823 189.359,23.462 184.263,28.447 L176.144,36.399 L192.943,36.399 L192.943,41.999 L167.799,41.999 L167.799,36.959 ZM170.321,74.569 C168.45,74.569 166.155,72.820 166.155,70.368 C166.155,67.995 167.895,66.71 170.602,66.97 C172.791,66.123 175.225,67.442 175.225,72.126 C175.225,76.653 173.371,79.175 170.391,79.175 C168.149,79.175 166.577,77.804 166.260,75.783 L167.825,75.783 C168.106,76.925 168.976,77.769 170.391,77.769 C172.465,77.769 173.731,75.975 173.748,72.882 L173.573,72.882 C172.844,73.936 171.675,74.569 170.321,74.569 ZM170.602,67.485 C168.941,67.485 167.684,68.777 167.701,70.350 C167.693,71.925 168.888,73.181 170.549,73.181 C172.211,73.181 173.502,71.809 173.502,70.315 C173.502,68.856 172.280,67.485 170.602,67.485 ZM159.89,79.175 C156.268,79.175 154.633,76.802 154.642,72.635 C154.633,68.504 156.286,66.97 159.89,66.97 C161.884,66.97 163.536,68.504 163.536,72.635 C163.536,76.802 161.910,79.175 159.89,79.175 ZM159.89,67.468 C157.261,67.476 156.180,69.340 156.171,72.635 C156.180,75.932 157.243,77.769 159.89,77.769 C160.926,77.769 161.998,75.932 161.990,72.635 C161.998,69.340 160.917,67.476 159.89,67.468 ZM146.328,72.863 L151.901,72.863 L151.901,74.253 L146.328,74.253 L146.328,72.863 ZM113.877,30.471 L119.564,30.471 L119.564,41.35 L145.514,41.35 L145.514,45.604 L113.877,45.604 L113.877,30.471 ZM138.556,0.663 L144.244,0.663 L144.244,33.824 L138.556,33.824 L138.556,0.663 ZM119.209,26.663 C112.226,26.663 106.818,21.915 106.818,15.135 C106.818,8.457 112.226,3.685 119.209,3.658 C126.191,3.685 131.574,8.457 131.549,15.135 C131.574,21.915 126.191,26.663 119.209,26.663 ZM119.209,8.586 C115.273,8.586 112.328,11.174 112.354,15.135 C112.328,19.198 115.273,21.738 119.209,21.738 C123.43,21.738 126.14,19.198 126.14,15.135 C126.14,11.174 123.43,8.586 119.209,8.586 ZM108.416,67.749 L102.597,78.999 L100.945,78.999 L106.781,67.767 L106.781,67.679 L100.48,67.679 L100.48,66.273 L108.416,66.273 L108.416,67.749 ZM89.239,77.838 L93.580,73.269 C95.83,71.669 95.804,70.808 95.813,69.630 C95.804,68.321 94.714,67.476 93.281,67.468 C91.761,67.476 90.812,68.435 90.803,69.858 L89.309,69.858 C89.291,67.608 91.32,66.97 93.334,66.97 C95.646,66.97 97.281,67.651 97.290,69.630 C97.281,71.53 96.622,72.161 94.371,74.482 L91.454,77.487 L91.454,77.593 L97.518,77.593 L97.518,78.999 L89.256,78.999 L89.239,77.838 ZM89.217,46.569 L83.632,46.569 L83.632,0.612 L89.217,0.612 L89.217,18.233 L96.276,18.233 L96.276,22.955 L89.217,22.955 L89.217,46.569 ZM76.689,79.175 C74.448,79.175 72.875,77.804 72.558,75.783 L74.122,75.783 C74.404,76.925 75.274,77.769 76.689,77.769 C78.763,77.769 80.29,75.975 80.46,72.882 L79.871,72.882 C79.141,73.936 77.972,74.569 76.619,74.569 C74.342,74.569 72.452,72.820 72.452,70.368 C72.452,67.995 74.193,66.71 76.900,66.97 C79.88,66.123 81.523,67.442 81.523,72.126 C81.523,76.653 79.669,79.175 76.689,79.175 ZM76.900,67.485 C75.239,67.485 73.982,68.777 74.0,70.350 C73.991,71.925 75.186,73.181 76.847,73.181 C78.509,73.181 79.800,71.809 79.800,70.315 C79.800,68.856 78.579,67.485 76.900,67.485 ZM55.194,35.753 L55.194,17.421 L70.581,17.421 L70.581,9.194 L55.93,9.194 L55.93,4.624 L76.217,4.624 L76.217,21.941 L60.780,21.941 L60.780,31.81 C68.67,31.31 73.729,30.726 80.128,29.608 L80.635,34.179 C73.551,35.448 67.305,35.753 58.952,35.753 L55.194,35.753 ZM51.818,79.104 C51.203,79.95 50.676,78.586 50.693,77.962 C50.676,77.346 51.203,76.837 51.818,76.837 C52.442,76.837 52.952,77.346 52.943,77.962 C52.952,78.586 52.442,79.95 51.818,79.104 ZM39.427,77.838 L43.769,73.269 C45.271,71.669 45.992,70.808 46.1,69.630 C45.992,68.321 44.902,67.476 43.469,67.468 C41.949,67.476 41.0,68.435 40.991,69.858 L39.497,69.858 C39.479,67.608 41.219,66.97 43.522,66.97 C45.834,66.97 47.469,67.651 47.477,69.630 C47.469,71.53 46.809,72.161 44.559,74.482 L41.641,77.487 L41.641,77.593 L47.706,77.593 L47.706,78.999 L39.444,78.999 L39.427,77.838 ZM0.523,24.529 L18.551,24.529 L18.551,20.467 C10.146,19.859 4.840,16.507 4.840,11.174 C4.840,5.411 11.365,1.881 21.395,1.881 C31.398,1.881 37.924,5.411 37.949,11.174 C37.924,16.507 32.617,19.859 24.238,20.467 L24.238,24.529 L42.367,24.529 L42.367,29.100 L0.523,29.100 L0.523,24.529 ZM32.109,11.174 C32.109,8.153 28.97,6.375 21.395,6.350 C14.716,6.375 10.679,8.153 10.730,11.174 C10.679,14.349 14.716,16.25 21.395,16.0 C28.97,16.25 32.109,14.349 32.109,11.174 ZM11.989,69.630 C11.980,68.321 10.890,67.476 9.458,67.468 C7.937,67.476 6.987,68.435 6.979,69.858 L5.485,69.858 C5.467,67.608 7.208,66.97 9.511,66.97 C11.822,66.97 13.456,67.651 13.465,69.630 C13.456,71.53 12.798,72.161 10.547,74.482 L7.629,77.487 L7.629,77.593 L13.694,77.593 L13.694,78.999 L5.432,78.999 L5.415,77.838 L9.756,73.269 C11.259,71.669 11.980,70.808 11.989,69.630 ZM20.883,66.97 C23.678,66.97 25.331,68.504 25.331,72.635 C25.331,76.802 23.704,79.175 20.883,79.175 C18.61,79.175 16.427,76.802 16.436,72.635 C16.427,68.504 18.79,66.97 20.883,66.97 ZM20.883,77.769 C22.720,77.769 23.792,75.932 23.784,72.635 C23.792,69.340 22.711,67.476 20.883,67.468 C19.55,67.476 17.974,69.340 17.965,72.635 C17.974,75.932 19.37,77.769 20.883,77.769 ZM5.702,32.248 L11.339,32.248 L11.339,41.35 L37.644,41.35 L37.644,45.604 L5.702,45.604 L5.702,32.248 ZM34.716,69.630 C34.707,68.321 33.618,67.476 32.185,67.468 C30.664,67.476 29.715,68.435 29.706,69.858 L28.212,69.858 C28.194,67.608 29.935,66.97 32.237,66.97 C34.549,66.97 36.184,67.651 36.193,69.630 C36.184,71.53 35.525,72.161 33.275,74.482 L30.357,77.487 L30.357,77.593 L36.421,77.593 L36.421,78.999 L28.159,78.999 L28.142,77.838 L32.484,73.269 C33.987,71.669 34.707,70.808 34.716,69.630 ZM65.387,66.97 C68.182,66.97 69.834,68.504 69.834,72.635 C69.834,76.802 68.208,79.175 65.387,79.175 C62.566,79.175 60.931,76.802 60.940,72.635 C60.931,68.504 62.583,66.97 65.387,66.97 ZM65.387,77.769 C67.224,77.769 68.296,75.932 68.287,72.635 C68.296,69.340 67.215,67.476 65.387,67.468 C63.559,67.476 62.478,69.340 62.469,72.635 C62.478,75.932 63.541,77.769 65.387,77.769 ZM85.56,76.837 C85.680,76.837 86.190,77.346 86.181,77.962 C86.190,78.586 85.680,79.95 85.56,79.104 C84.441,79.95 83.913,78.586 83.931,77.962 C83.913,77.346 84.441,76.837 85.56,76.837 ZM115.464,65.727 C114.277,67.459 113.170,71.18 113.161,74.148 C113.170,77.284 114.277,80.836 115.464,82.585 L114.128,82.585 C112.511,80.230 111.614,77.470 111.596,74.148 C111.614,70.834 112.511,68.74 114.128,65.727 L115.464,65.727 ZM122.987,64.831 L122.987,66.713 L126.994,66.713 L126.994,67.837 L117.572,67.837 L117.572,66.713 L121.597,66.713 L121.597,64.831 L122.987,64.831 ZM121.597,74.482 C119.779,74.270 118.592,73.198 118.610,71.652 C118.592,69.884 120.86,68.742 122.301,68.751 C124.481,68.742 126.2,69.884 126.10,71.652 C126.2,73.207 124.797,74.270 122.987,74.482 L122.987,76.151 C124.437,76.81 125.913,75.958 127.275,75.764 L127.364,76.819 C123.953,77.399 120.262,77.434 117.520,77.434 L117.291,76.256 C118.565,76.256 120.51,76.248 121.597,76.204 L121.597,74.482 ZM124.692,71.652 C124.683,70.562 123.725,69.823 122.301,69.823 C120.851,69.823 119.902,70.562 119.893,71.652 C119.902,72.733 120.851,73.445 122.301,73.426 C123.725,73.445 124.683,72.733 124.692,71.652 ZM129.613,71.458 L132.109,71.458 L132.109,72.618 L129.613,72.618 L129.613,80.423 L128.225,80.423 L128.225,64.796 L129.613,64.796 L129.613,71.458 ZM135.132,65.727 C136.749,68.74 137.646,70.834 137.663,74.148 C137.646,77.470 136.749,80.230 135.132,82.585 L133.796,82.585 C134.983,80.836 136.90,77.284 136.99,74.148 C136.90,71.18 134.983,67.459 133.796,65.727 L135.132,65.727 ZM178.758,76.837 C179.382,76.837 179.891,77.346 179.882,77.962 C179.891,78.586 179.382,79.95 178.758,79.104 C178.142,79.95 177.615,78.586 177.633,77.962 C177.615,77.346 178.142,76.837 178.758,76.837 ZM186.860,77.769 C188.539,77.769 189.752,76.864 189.761,75.536 C189.752,74.148 188.645,73.172 186.667,73.163 L185.630,73.163 L185.630,71.775 L186.667,71.775 C188.214,71.775 189.295,70.904 189.287,69.594 C189.295,68.321 188.363,67.476 186.913,67.468 C185.550,67.476 184.312,68.223 184.241,69.471 L182.712,69.471 C182.791,67.450 184.672,66.97 186.931,66.97 C189.356,66.97 190.833,67.687 190.816,69.507 C190.833,70.957 189.989,72.12 188.654,72.390 L188.654,72.478 C190.314,72.733 191.317,73.919 191.308,75.536 C191.317,77.628 189.418,79.175 186.878,79.175 C184.347,79.175 182.527,77.821 182.448,75.800 L184.47,75.800 C184.136,77.13 185.340,77.769 186.860,77.769 ZM223.104,66.800 L223.104,66.782 L213.859,66.782 L213.859,65.639 L224.475,65.639 L224.475,66.800 C224.475,68.12 224.475,69.437 224.62,71.388 L226.357,71.388 L226.357,72.531 L212.48,72.531 L212.48,71.388 L222.674,71.388 C223.113,69.419 223.113,68.12 223.104,66.800 ZM224.546,80.212 L213.806,80.212 L213.806,74.693 L224.546,74.693 L224.546,80.212 ZM223.174,75.783 L215.177,75.783 L215.177,79.87 L223.174,79.87 L223.174,75.783 ZM229.695,65.727 C231.313,68.74 232.209,70.834 232.227,74.148 C232.209,77.470 231.313,80.230 229.695,82.585 L228.359,82.585 C229.546,80.836 230.654,77.284 230.663,74.148 C230.654,71.18 229.546,67.459 228.359,65.727 L229.695,65.727 ZM253.811,80.423 L252.475,80.423 L252.475,64.796 L253.811,64.796 L253.811,80.423 ZM258.961,67.221 L257.397,67.221 L257.397,66.79 L265.852,66.79 L265.852,67.221 L264.270,67.221 L264.270,71.942 C265.78,71.889 265.869,71.827 266.625,71.739 L266.731,72.776 C263.522,73.260 259.840,73.303 257.133,73.303 L256.957,72.126 C257.582,72.126 258.258,72.126 258.961,72.117 L258.961,67.221 ZM260.297,72.100 C261.158,72.82 262.46,72.55 262.933,72.12 L262.933,67.221 L260.297,67.221 L260.297,72.100 ZM269.596,64.796 L269.596,74.288 L268.225,74.288 L268.225,64.796 L269.596,64.796 ZM269.596,80.423 L268.225,80.423 L268.225,76.186 L259.84,76.186 L259.84,75.44 L269.596,75.44 L269.596,80.423 ZM292.463,78.911 L301.938,78.911 L301.938,80.88 L291.75,80.88 L291.75,75.519 L292.463,75.519 L292.463,78.911 Z"/>
</svg>