<?xml version="1.0" standalone="no"?>
<!DOCTYPE svg PUBLIC "-//W3C//DTD SVG 1.1//EN" "http://www.w3.org/Graphics/SVG/1.1/DTD/svg11.dtd" >
<svg xmlns="http://www.w3.org/2000/svg" xmlns:xlink="http://www.w3.org/1999/xlink" version="1.1">
<metadata>
Created by FontForge 20190801 at Wed Feb 26 14:10:53 2014
 By Jimmy Wärting
Copyright (c) 2013 by Gayane Bagdasaryan, Dmitry Rastvortsev. All rights reserved.
</metadata>
<defs>
<font id="BrutalType-ExtraBold" horiz-adv-x="622" >
  <font-face 
    font-family="Brutal Type"
    font-weight="800"
    font-stretch="normal"
    units-per-em="1000"
    panose-1="2 0 6 3 2 0 0 2 0 4"
    ascent="804"
    descent="-196"
    x-height="526"
    cap-height="700"
    bbox="-44 -284 1125 958"
    underline-thickness="50"
    underline-position="-100"
    stemh="128"
    stemv="142"
    unicode-range="U+0020-FB02"
  />
<missing-glyph horiz-adv-x="287" 
 />
    <glyph glyph-name="fi" unicode="fi" horiz-adv-x="652" 
d="M433 0v403h-204v-403h-142v403h-75v123h75c0 121 91 183 214 183c10 0 25 -1 38 -2v-121h-24c-62 0 -86 -25 -86 -60h346v-526h-142zM433 595v110h142v-110h-142z" />
    <glyph glyph-name="fl" unicode="fl" horiz-adv-x="652" 
d="M87 0v403h-75v123h75c0 121 91 183 214 183c10 0 25 -1 38 -2v-121h-24c-62 0 -86 -25 -86 -60h102v-123h-102v-403h-142zM433 0v705h142v-705h-142z" />
    <glyph glyph-name=".notdef" horiz-adv-x="287" 
 />
    <glyph glyph-name="space" unicode=" " horiz-adv-x="230" 
 />
    <glyph glyph-name="exclam" unicode="!" horiz-adv-x="321" 
d="M90 220v480h142v-480h-142zM90 0v142h142v-142h-142z" />
    <glyph glyph-name="quotedbl" unicode="&#x22;" horiz-adv-x="441" 
d="M79 442l-29 213v50h142v-50l-29 -213h-84zM278 442l-29 213v50h142v-50l-28 -213h-85z" />
    <glyph glyph-name="numbersign" unicode="#" horiz-adv-x="695" 
d="M87 0v51l22 103h-74v128h102l29 136h-84v128h111l34 154h126v-51l-22 -103h119l33 154h126v-51l-23 -103h74v-128h-101l-28 -136h83v-128h-111l-33 -154h-126v51l22 103h-120l-33 -154h-126zM273 282h120l29 136h-119z" />
    <glyph glyph-name="dollar" unicode="$" horiz-adv-x="598" 
d="M42 227h142c0 -89 58 -114 118 -114s93 31 93 76c0 41 -31 56 -65 72l-95 43c-109 51 -176 92 -176 206c0 108 71 181 172 201v91h141v-95c81 -19 162 -96 162 -228h-142c0 81 -42 108 -100 108c-50 0 -88 -27 -88 -71c0 -50 38 -64 102 -93c122 -57 234 -93 234 -221
c0 -102 -50 -186 -168 -213v-108h-141v107c-107 16 -189 96 -189 239z" />
    <glyph glyph-name="percent" unicode="%" horiz-adv-x="799" 
d="M156 0v51l411 649h80v-51l-411 -649h-80zM197 458c22 0 36 17 36 37v82c0 20 -14 37 -36 37c-23 0 -36 -18 -36 -37v-82c0 -19 13 -37 36 -37zM197 357c-97 0 -160 51 -160 158v42c0 107 63 158 160 158c98 0 160 -51 160 -158v-42c0 -107 -62 -158 -160 -158zM603 86
c22 0 36 17 36 37v82c0 20 -14 37 -36 37c-23 0 -36 -18 -36 -37v-82c0 -19 13 -37 36 -37zM603 -15c-97 0 -160 51 -160 158v42c0 107 63 158 160 158c98 0 160 -51 160 -158v-42c0 -107 -62 -158 -160 -158z" />
    <glyph glyph-name="ampersand" unicode="&#x26;" horiz-adv-x="624" 
d="M293 0c-163 0 -246 57 -246 212c0 78 46 140 103 162c-52 29 -76 79 -76 144c0 124 83 182 212 182h100v-123h-81c-39 0 -80 -4 -80 -71c0 -51 31 -70 62 -70h99l61 84h81v-84h69v-123h-69v-313h-235zM280 127h106v186h-106c-41 0 -82 -26 -82 -94c0 -66 41 -92 82 -92z
" />
    <glyph glyph-name="quotesingle" unicode="'" horiz-adv-x="242" 
d="M79 442l-29 213v50h142v-50l-29 -213h-84z" />
    <glyph glyph-name="parenleft" unicode="(" horiz-adv-x="319" 
d="M273 -159c-119 0 -186 65 -186 196v545c0 131 67 198 186 198v-129c-34 0 -49 -36 -49 -68v-545c0 -32 15 -68 49 -68v-129z" />
    <glyph glyph-name="parenright" unicode=")" horiz-adv-x="319" 
d="M46 -159v129c34 0 49 36 49 68v545c0 32 -15 68 -49 68v129c119 0 186 -67 186 -198v-545c0 -131 -67 -196 -186 -196z" />
    <glyph glyph-name="asterisk" unicode="*" horiz-adv-x="463" 
d="M176 333l9 107l-86 -63l-56 98l97 44l-97 44l56 98l86 -63l-9 107h111l-10 -107l88 63l55 -98l-98 -44l98 -44l-55 -98l-88 63l10 -107h-111z" />
    <glyph glyph-name="plus" unicode="+" horiz-adv-x="579" 
d="M225 90v164h-162v118h162v164h129v-164h162v-118h-162v-164h-129z" />
    <glyph glyph-name="comma" unicode="," horiz-adv-x="279" 
d="M33 -123c20 116 32 192 46 268h140v-60l-86 -208h-100z" />
    <glyph glyph-name="hyphen" unicode="-" horiz-adv-x="445" 
d="M57 249v128h332v-128h-332z" />
    <glyph glyph-name="period" unicode="." horiz-adv-x="288" 
d="M67 0v145h154v-145h-154z" />
    <glyph glyph-name="slash" unicode="/" horiz-adv-x="460" 
d="M37 -100v51l271 829h115v-51l-271 -829h-115z" />
    <glyph glyph-name="zero" unicode="0" horiz-adv-x="618" 
d="M309 113c70 0 100 47 100 105v263c0 58 -30 106 -100 106c-69 0 -100 -48 -100 -106v-263c0 -58 31 -105 100 -105zM308 -15c-147 0 -241 83 -241 242v246c0 159 94 242 241 242c149 0 243 -83 243 -242v-246c0 -159 -94 -242 -243 -242z" />
    <glyph glyph-name="one" unicode="1" horiz-adv-x="340" 
d="M111 0v507h-66v76l182 117h26v-700h-142z" />
    <glyph glyph-name="two" unicode="2" horiz-adv-x="562" 
d="M44 0v116l211 212c97 97 107 122 107 171c0 43 -21 88 -87 88c-76 0 -95 -57 -96 -117h-135c0 153 95 245 230 245c157 0 230 -107 230 -215c0 -101 -40 -153 -142 -251l-126 -121h270v-128h-462z" />
    <glyph glyph-name="three" unicode="3" horiz-adv-x="594" 
d="M294 -15c-149 0 -245 90 -247 250h136c2 -70 36 -122 117 -122c67 0 96 40 96 93c0 57 -40 91 -109 91h-41v129h31c59 0 97 22 97 82c0 45 -28 79 -82 79c-75 0 -98 -56 -100 -117h-136c0 154 90 245 233 245c146 0 224 -86 224 -195c0 -71 -27 -115 -76 -152
c54 -24 101 -87 101 -166c0 -133 -86 -217 -244 -217z" />
    <glyph glyph-name="four" unicode="4" horiz-adv-x="559" 
d="M324 0v124h-297v109l224 467h125v-51l-189 -397h137v159h142v-159h77v-128h-77v-124h-142z" />
    <glyph glyph-name="five" unicode="5" horiz-adv-x="593" 
d="M291 -15c-136 0 -230 77 -243 213h138c7 -47 46 -85 108 -85c70 0 101 51 101 130c0 71 -33 121 -97 121c-57 0 -81 -29 -94 -51h-136l38 387h392v-128h-282l-13 -121c34 19 63 29 121 29c105 0 213 -61 213 -237c0 -172 -102 -258 -246 -258z" />
    <glyph glyph-name="six" unicode="6" horiz-adv-x="591" 
d="M424 700v-51l-131 -199c10 1 21 2 35 2c117 0 216 -63 216 -217c0 -161 -99 -250 -248 -250c-148 0 -248 89 -248 235c0 62 20 126 68 201l178 279h130zM296 339c-70 0 -106 -45 -106 -113s36 -113 106 -113s106 45 106 113s-36 113 -106 113z" />
    <glyph glyph-name="seven" unicode="7" horiz-adv-x="546" 
d="M148 0v51l202 521h-185v-77h-131v205h462v-120l-220 -580h-128z" />
    <glyph glyph-name="eight" unicode="8" horiz-adv-x="620" 
d="M310 -15c-158 0 -253 81 -253 214c0 78 46 142 100 168c-49 35 -83 77 -83 152c0 105 83 196 236 196s236 -91 236 -196c0 -75 -33 -117 -81 -152c54 -26 99 -90 99 -168c0 -133 -96 -214 -254 -214zM310 113c76 0 110 47 110 100c0 62 -49 97 -110 97s-110 -35 -110 -97
c0 -53 34 -100 110 -100zM310 418c50 0 95 26 95 89c0 47 -28 85 -95 85s-95 -38 -95 -85c0 -63 45 -89 95 -89z" />
    <glyph glyph-name="nine" unicode="9" horiz-adv-x="591" 
d="M167 0v51l131 199c-11 -1 -21 -2 -35 -2c-117 0 -216 63 -216 217c0 161 99 250 248 250c148 0 248 -89 248 -235c0 -62 -20 -126 -68 -201l-178 -279h-130zM295 361c70 0 106 45 106 113s-36 113 -106 113s-106 -45 -106 -113s36 -113 106 -113z" />
    <glyph glyph-name="colon" unicode=":" horiz-adv-x="288" 
d="M67 0v145h154v-145h-154zM67 381v145h154v-145h-154z" />
    <glyph glyph-name="semicolon" unicode=";" horiz-adv-x="292" 
d="M33 -123c20 116 32 192 46 268h140v-60l-86 -208h-100zM68 381v145h154v-145h-154z" />
    <glyph glyph-name="less" unicode="&#x3c;" horiz-adv-x="539" 
d="M409 78l-346 177v116l346 177h67v-100l-272 -135l272 -135v-100h-67z" />
    <glyph glyph-name="equal" unicode="=" horiz-adv-x="580" 
d="M63 146v118h454v-118h-454zM63 362v118h454v-118h-454z" />
    <glyph glyph-name="greater" unicode="&#x3e;" horiz-adv-x="539" 
d="M476 255l-346 -177h-67v100l272 135l-272 135v100h67l346 -177v-116z" />
    <glyph glyph-name="question" unicode="?" horiz-adv-x="528" 
d="M178 220v117l104 74c43 31 67 51 67 99c0 45 -30 77 -85 77c-67 0 -102 -46 -102 -112h-135c0 155 104 240 238 240c152 0 226 -98 226 -202c0 -112 -80 -163 -143 -205l-28 -19v-69h-142zM178 0v142h142v-142h-142z" />
    <glyph glyph-name="at" unicode="@" horiz-adv-x="990" 
d="M504 -151c-258 0 -437 179 -437 433c0 259 179 433 437 433c234 0 419 -151 419 -393c0 -145 -82 -258 -214 -258c-60 0 -100 17 -132 53c-30 -26 -64 -53 -123 -53c-82 0 -153 45 -153 150v137c0 105 71 150 153 150c59 0 93 -26 123 -54l35 45h68v-252
c0 -39 20 -63 53 -63c32 0 73 25 73 145c0 183 -139 288 -302 288c-186 0 -320 -125 -320 -327c0 -204 136 -326 320 -326h25v-108h-25zM423 326v-87c0 -38 16 -62 58 -62c35 0 60 18 77 35v141c-17 17 -42 35 -77 35c-42 0 -58 -24 -58 -62z" />
    <glyph glyph-name="A" unicode="A" horiz-adv-x="661" 
d="M17 0v51l237 649h152l238 -649v-51h-153l-52 159h-224l-55 -159h-143zM261 288h131l-65 204z" />
    <glyph glyph-name="B" unicode="B" horiz-adv-x="670" 
d="M87 0v700h296c130 0 212 -65 212 -195c0 -65 -24 -112 -75 -142c56 -27 104 -69 104 -165c0 -134 -82 -198 -212 -198h-325zM242 135h164c28 0 61 20 61 73s-33 73 -61 73h-164v-146zM242 410h131c31 0 65 21 65 77s-34 78 -65 78h-131v-155z" />
    <glyph glyph-name="C" unicode="C" horiz-adv-x="661" 
d="M343 -15c-180 0 -276 93 -276 252v226c0 159 96 252 276 252c139 0 262 -71 262 -247v-10h-156v10c0 77 -57 105 -116 105c-77 0 -111 -38 -111 -99v-248c0 -61 34 -99 111 -99c59 0 116 25 116 105v10h156v-10c0 -176 -123 -247 -262 -247z" />
    <glyph glyph-name="D" unicode="D" horiz-adv-x="691" 
d="M242 135h101c85 0 126 50 126 101v228c0 51 -41 101 -126 101h-101v-430zM87 0v700h256c173 0 281 -86 281 -240v-220c0 -155 -108 -240 -281 -240h-256z" />
    <glyph glyph-name="E" unicode="E" horiz-adv-x="607" 
d="M87 0v700h461v-135h-306v-150h260v-129h-260v-151h308v-135h-463z" />
    <glyph glyph-name="F" unicode="F" horiz-adv-x="593" 
d="M87 0v700h469v-135h-314v-160h266v-129h-266v-276h-155z" />
    <glyph glyph-name="G" unicode="G" horiz-adv-x="691" 
d="M326 -15c-161 0 -259 100 -259 252v226c0 159 103 252 280 252c152 0 268 -84 268 -244h-156c0 64 -49 102 -121 102c-80 0 -116 -41 -116 -103v-233c0 -61 40 -110 114 -110c58 0 103 31 128 65v62h-120v129h271v-383h-83l-32 62c-35 -47 -102 -77 -174 -77z" />
    <glyph glyph-name="H" unicode="H" horiz-adv-x="720" 
d="M87 0v700h155v-282h236v282h155v-700h-155v283h-236v-283h-155z" />
    <glyph glyph-name="I" unicode="I" horiz-adv-x="329" 
d="M87 0v700h155v-700h-155z" />
    <glyph glyph-name="J" unicode="J" horiz-adv-x="588" 
d="M265 -15c-139 0 -248 52 -248 225v32h155v-32c0 -61 36 -83 93 -83c44 0 91 20 91 89v484h155v-490c0 -167 -113 -225 -246 -225z" />
    <glyph glyph-name="K" unicode="K" horiz-adv-x="652" 
d="M87 0v700h155v-282h61l169 282h140v-51l-178 -290l193 -308v-51h-150l-171 282h-64v-282h-155z" />
    <glyph glyph-name="L" unicode="L" horiz-adv-x="570" 
d="M87 0v700h155v-565h311v-135h-466z" />
    <glyph glyph-name="M" unicode="M" horiz-adv-x="817" 
d="M87 0v700h150l175 -293l175 293h143v-700h-150v425l-124 -212h-96l-123 212v-425h-150z" />
    <glyph glyph-name="N" unicode="N" horiz-adv-x="720" 
d="M87 0v700h142l249 -411v411h155v-700h-142l-249 411v-411h-155z" />
    <glyph glyph-name="O" unicode="O" horiz-adv-x="696" 
d="M348 127c89 0 126 53 126 104v238c0 51 -37 104 -126 104s-126 -53 -126 -104v-238c0 -51 37 -104 126 -104zM348 715c171 0 281 -93 281 -254v-223c0 -160 -110 -253 -281 -253s-281 93 -281 253v223c0 161 110 254 281 254z" />
    <glyph glyph-name="P" unicode="P" horiz-adv-x="643" 
d="M87 0v700h314c126 0 200 -86 200 -220s-74 -219 -200 -219h-159v-261h-155zM242 396h130c34 0 72 23 72 84s-38 85 -72 85h-130v-169z" />
    <glyph glyph-name="Q" unicode="Q" horiz-adv-x="696" 
d="M478 -119l-85 105c-15 0 -30 -1 -45 -1c-171 0 -281 93 -281 253v223c0 161 110 254 281 254c173 0 281 -93 281 -254v-223c0 -87 -32 -155 -90 -198l89 -108v-51h-150zM348 127c90 0 126 53 126 104v238c0 51 -36 104 -126 104c-89 0 -126 -53 -126 -104v-238
c0 -51 37 -104 126 -104z" />
    <glyph glyph-name="R" unicode="R" horiz-adv-x="680" 
d="M87 0v700h304c146 0 221 -82 221 -220c0 -95 -42 -165 -112 -202l132 -227v-51h-151l-146 260h-93v-260h-155zM242 389h123c57 0 90 22 90 89c0 65 -33 87 -90 87h-123v-176z" />
    <glyph glyph-name="S" unicode="S" horiz-adv-x="652" 
d="M321 -15c-152 0 -279 81 -279 242h155c0 -81 80 -100 138 -100c69 0 102 27 102 67c0 42 -47 57 -134 86l-56 19c-87 29 -188 75 -188 201c0 130 99 215 262 215c152 0 265 -77 265 -239h-156c0 68 -54 97 -113 97c-64 0 -101 -24 -101 -65c0 -49 51 -58 115 -81l52 -18
c113 -39 211 -88 211 -207c0 -125 -89 -217 -273 -217z" />
    <glyph glyph-name="T" unicode="T" horiz-adv-x="574" 
d="M210 0v565h-193v135h540v-135h-192v-565h-155z" />
    <glyph glyph-name="U" unicode="U" horiz-adv-x="700" 
d="M350 127c85 0 118 49 118 96v477h155v-471c0 -154 -106 -244 -273 -244s-273 90 -273 244v471h155v-477c0 -47 33 -96 118 -96z" />
    <glyph glyph-name="V" unicode="V" horiz-adv-x="662" 
d="M255 0l-238 649v51h148l169 -492l164 492h147v-51l-237 -649h-153z" />
    <glyph glyph-name="W" unicode="W" horiz-adv-x="848" 
d="M178 0l-141 649v51h151l93 -452l96 291h97l99 -294l91 455h147v-51l-142 -649h-144l-101 301l-101 -301h-145z" />
    <glyph glyph-name="X" unicode="X" horiz-adv-x="667" 
d="M27 0v51l211 314l-189 284v51h158l127 -213l136 213h149v-51l-191 -283l213 -315v-51h-158l-153 241l-155 -241h-148z" />
    <glyph glyph-name="Y" unicode="Y" horiz-adv-x="620" 
d="M232 0v277l-225 372v51h153l151 -278l159 278h143v-51l-225 -366v-283h-156z" />
    <glyph glyph-name="Z" unicode="Z" horiz-adv-x="595" 
d="M37 0v134l332 431h-317v135h495v-133l-333 -432h345v-135h-522z" />
    <glyph glyph-name="bracketleft" unicode="[" horiz-adv-x="342" 
d="M87 -160v940h203v-129h-66v-682h66v-129h-203z" />
    <glyph glyph-name="backslash" unicode="\" horiz-adv-x="460" 
d="M423 -49v-51h-115l-271 829v51h115z" />
    <glyph glyph-name="bracketright" unicode="]" horiz-adv-x="342" 
d="M255 780v-940h-203v129h66v682h-66v129h203z" />
    <glyph glyph-name="asciicircum" unicode="^" horiz-adv-x="544" 
d="M63 387v51l149 267h118l151 -267v-51h-121l-90 157l-86 -157h-121z" />
    <glyph glyph-name="underscore" unicode="_" horiz-adv-x="566" 
d="M-5 -143v118h576v-118h-576z" />
    <glyph glyph-name="grave" unicode="`" horiz-adv-x="307" 
d="M136 590l-79 91v49h128l65 -140h-114z" />
    <glyph glyph-name="a" unicode="a" horiz-adv-x="571" 
d="M417 0l-39 49c-38 -36 -82 -61 -159 -61c-95 0 -177 54 -177 158c0 108 69 171 212 171h103v29c0 41 -24 64 -76 64c-54 0 -76 -23 -76 -52h-139c0 105 68 180 215 180c146 0 218 -75 218 -182v-356h-82zM249 113c46 0 77 12 108 46v58h-103c-52 0 -70 -24 -70 -52
c0 -29 21 -52 65 -52z" />
    <glyph glyph-name="b" unicode="b" horiz-adv-x="600" 
d="M322 116c33 0 74 24 74 75v144c0 50 -41 75 -74 75c-48 0 -80 -27 -103 -50v-194c23 -23 55 -50 103 -50zM197 49l-39 -49h-81v705h142v-210c19 16 61 43 132 43c101 0 187 -59 187 -192v-165c0 -134 -86 -193 -187 -193c-75 0 -119 28 -154 61z" />
    <glyph glyph-name="c" unicode="c" horiz-adv-x="545" 
d="M279 -12c-135 0 -225 73 -225 195v161c0 121 90 194 225 194c130 0 217 -71 217 -199v-6h-142v6c0 43 -27 71 -80 71c-54 0 -78 -26 -78 -64v-166c0 -39 24 -64 78 -64c53 0 80 27 80 69v11h142v-7c0 -126 -91 -201 -217 -201z" />
    <glyph glyph-name="d" unicode="d" horiz-adv-x="600" 
d="M442 0l-39 49c-35 -33 -79 -61 -154 -61c-101 0 -187 59 -187 193v165c0 133 86 192 187 192c72 0 113 -27 132 -43v210h142v-705h-81zM278 116c48 0 80 27 103 50v194c-23 23 -55 50 -103 50c-33 0 -74 -25 -74 -75v-144c0 -51 41 -75 74 -75z" />
    <glyph glyph-name="e" unicode="e" horiz-adv-x="559" 
d="M285 -12c-138 0 -231 68 -231 193v163c0 121 93 194 231 194c129 0 221 -67 221 -192v-130h-310v-34c0 -38 27 -66 89 -66c44 0 69 17 78 44h142c-10 -108 -91 -172 -220 -172zM196 319h168v27c0 39 -29 64 -84 64s-84 -25 -84 -64v-27z" />
    <glyph glyph-name="f" unicode="f" horiz-adv-x="356" 
d="M87 0v403h-75v123h75c0 121 91 183 214 183c10 0 25 -1 38 -2v-121h-24c-62 0 -86 -25 -86 -60h102v-123h-102v-403h-142z" />
    <glyph glyph-name="g" unicode="g" horiz-adv-x="600" 
d="M296 -172c-139 0 -221 67 -221 177h142c0 -17 11 -49 78 -49c64 0 86 34 86 76v55c-19 -16 -60 -43 -132 -43c-101 0 -187 59 -187 192v110c0 133 86 192 187 192c75 0 116 -27 151 -59l42 47h81v-493c0 -138 -93 -205 -227 -205zM278 172c48 0 80 27 103 50v138
c-23 23 -55 50 -103 50c-33 0 -74 -25 -74 -75v-87c0 -51 41 -76 74 -76z" />
    <glyph glyph-name="h" unicode="h" horiz-adv-x="605" 
d="M77 0v705h142v-210c30 23 71 43 131 43c115 0 183 -77 183 -205v-333h-142v325c0 58 -32 85 -73 85c-48 0 -87 -36 -99 -50v-360h-142z" />
    <glyph glyph-name="i" unicode="i" horiz-adv-x="296" 
d="M77 0v526h142v-526h-142zM77 595v110h142v-110h-142z" />
    <glyph glyph-name="j" unicode="j" horiz-adv-x="296" 
d="M77 526h142v-503c0 -88 -49 -195 -186 -195c-11 0 -22 0 -37 2v126h21c29 0 60 11 60 68v502zM77 595v110h142v-110h-142z" />
    <glyph glyph-name="k" unicode="k" horiz-adv-x="558" 
d="M77 0v705h142v-373h35l133 194h122v-66l-128 -186l141 -208v-66h-126l-142 209h-35v-209h-142z" />
    <glyph glyph-name="l" unicode="l" horiz-adv-x="296" 
d="M77 0v705h142v-705h-142z" />
    <glyph glyph-name="m" unicode="m" horiz-adv-x="879" 
d="M513 362v-362h-142v337c0 50 -27 73 -64 73c-39 0 -72 -24 -88 -48v-362h-142v526h81l39 -49c30 29 76 61 143 61c65 0 114 -26 143 -71c31 35 80 71 152 71c116 0 172 -82 172 -190v-348h-142v337c0 50 -27 73 -64 73c-39 0 -72 -24 -88 -48z" />
    <glyph glyph-name="n" unicode="n" horiz-adv-x="605" 
d="M77 0v526h81l39 -49c35 33 81 61 153 61c115 0 183 -77 183 -205v-333h-142v325c0 58 -32 85 -73 85c-48 0 -87 -36 -99 -50v-360h-142z" />
    <glyph glyph-name="o" unicode="o" horiz-adv-x="569" 
d="M285 116c59 0 88 33 88 72v149c0 40 -29 73 -88 73c-62 0 -89 -35 -89 -73v-149c0 -38 27 -72 89 -72zM285 -12c-154 0 -231 85 -231 195v161c0 109 77 194 231 194c153 0 230 -85 230 -194v-161c0 -110 -77 -195 -230 -195z" />
    <glyph glyph-name="p" unicode="p" horiz-adv-x="600" 
d="M158 526l39 -49c35 32 79 61 154 61c101 0 187 -59 187 -192v-165c0 -134 -86 -193 -187 -193c-71 0 -113 27 -132 43v-191h-142v686h81zM322 116c33 0 74 24 74 75v144c0 50 -41 75 -74 75c-48 0 -80 -27 -103 -50v-194c23 -23 55 -50 103 -50z" />
    <glyph glyph-name="q" unicode="q" horiz-adv-x="600" 
d="M403 477l39 49h81v-686h-142v191c-19 -16 -60 -43 -132 -43c-101 0 -187 59 -187 193v165c0 133 86 192 187 192c75 0 119 -29 154 -61zM278 116c48 0 80 27 103 50v194c-23 23 -55 50 -103 50c-33 0 -74 -25 -74 -75v-144c0 -51 41 -75 74 -75z" />
    <glyph glyph-name="r" unicode="r" horiz-adv-x="391" 
d="M158 526l39 -49c22 26 64 61 131 61h38v-135h-38c-52 0 -83 -11 -109 -43v-360h-142v526h81z" />
    <glyph glyph-name="s" unicode="s" horiz-adv-x="549" 
d="M279 -12c-143 0 -231 82 -234 193h138c7 -37 39 -67 109 -67c42 0 69 14 69 37c0 18 -15 32 -46 40l-129 33c-55 14 -128 50 -128 142c0 105 77 172 213 172c129 0 216 -71 220 -183h-137c-13 43 -46 57 -92 57c-45 0 -66 -16 -66 -38c0 -18 16 -25 42 -32l138 -35
c66 -17 123 -57 123 -145c0 -110 -87 -174 -220 -174z" />
    <glyph glyph-name="t" unicode="t" horiz-adv-x="392" 
d="M291 0c-161 0 -199 102 -199 207v196h-75v123h75v110h142v-110h116v-123h-116v-196c0 -68 28 -84 72 -84h44v-123h-59z" />
    <glyph glyph-name="u" unicode="u" horiz-adv-x="601" 
d="M442 0l-39 49c-32 -29 -79 -61 -150 -61c-114 0 -181 76 -181 203v335h142v-328c0 -57 31 -82 71 -82c47 0 85 35 97 48v362h142v-526h-82z" />
    <glyph glyph-name="v" unicode="v" horiz-adv-x="533" 
d="M202 0l-177 460v66h132l115 -331l107 331h129v-66l-178 -460h-128z" />
    <glyph glyph-name="w" unicode="w" horiz-adv-x="728" 
d="M149 0l-107 460v66h129l68 -331l78 241h95l79 -241l67 331h128v-66l-108 -460h-133l-80 212l-80 -212h-136z" />
    <glyph glyph-name="x" unicode="x" horiz-adv-x="532" 
d="M37 0v66l140 197l-138 197v66h128l98 -155l101 155h120v-66l-133 -191l143 -203v-66h-127l-106 167l-105 -167h-121z" />
    <glyph glyph-name="y" unicode="y" horiz-adv-x="517" 
d="M146 -160v51l48 109l-177 460v66h131l116 -332l108 332h129v-66l-239 -620h-116z" />
    <glyph glyph-name="z" unicode="z" horiz-adv-x="536" 
d="M50 0v123l245 280h-239v123h409v-123l-248 -280h264v-123h-431z" />
    <glyph glyph-name="braceleft" unicode="{" horiz-adv-x="345" 
d="M292 -160c-119 0 -186 65 -186 196v137c0 55 -17 79 -55 79h-24v128h24c40 0 55 28 55 79v123c0 131 67 198 186 198v-129c-35 0 -49 -36 -49 -68v-162c0 -61 -41 -90 -66 -105c25 -15 66 -44 66 -105v-174c0 -32 14 -68 49 -68v-129z" />
    <glyph glyph-name="bar" unicode="|" horiz-adv-x="311" 
d="M87 -100v880h137v-880h-137z" />
    <glyph glyph-name="braceright" unicode="}" horiz-adv-x="338" 
d="M53 -160v129c35 0 49 36 49 68v174c0 61 41 90 66 105c-25 15 -66 44 -66 105v162c0 32 -14 68 -49 68v129c119 0 186 -67 186 -198v-123c0 -51 15 -79 55 -79h24v-128h-24c-38 0 -55 -24 -55 -79v-137c0 -131 -67 -196 -186 -196z" />
    <glyph glyph-name="asciitilde" unicode="~" horiz-adv-x="504" 
d="M139 228l-96 55c24 54 67 120 137 120c25 0 52 -10 72 -23l28 -18c13 -8 21 -13 36 -13c17 0 29 10 49 46l96 -55c-23 -54 -66 -120 -136 -120c-25 0 -52 10 -72 23l-28 17c-14 8 -22 14 -36 14c-17 0 -29 -10 -50 -46z" />
    <glyph glyph-name="nbspace" unicode="&#xa0;" horiz-adv-x="0" 
 />
    <glyph glyph-name="exclamdown" unicode="&#xa1;" horiz-adv-x="283" 
d="M71 -160v466h142v-466h-142zM71 384v142h142v-142h-142z" />
    <glyph glyph-name="cent" unicode="&#xa2;" horiz-adv-x="552" 
d="M185 424v-154c0 -38 21 -63 50 -69v292c-29 -6 -50 -31 -50 -69zM369 270v9h134v-7c0 -111 -73 -181 -174 -198v-74h-103v75c-103 20 -172 87 -172 192v160c0 104 69 172 172 191v82h103v-81c104 -15 174 -84 174 -195v-8h-134v8c0 38 -21 63 -50 69v-292
c29 6 50 31 50 69z" />
    <glyph glyph-name="sterling" unicode="&#xa3;" horiz-adv-x="582" 
d="M37 0v128h65v161h-65v128h65v103c0 122 89 195 224 195c131 0 219 -71 219 -212v-33h-142v34c0 56 -27 83 -79 83c-59 0 -80 -32 -80 -72v-98h120v-128h-120v-161h301v-128h-508z" />
    <glyph glyph-name="yen" unicode="&#xa5;" horiz-adv-x="575" 
d="M214 0v93h-155v112h155v75h-155v112h103l-155 257v51h130l149 -263l154 263h128v-51l-160 -257h107v-112h-159v-75h159v-112h-159v-93h-142z" />
    <glyph glyph-name="brokenbar" unicode="&#xa6;" horiz-adv-x="311" 
d="M87 -100v354h137v-354h-137zM87 446v334h137v-334h-137z" />
    <glyph glyph-name="section" unicode="&#xa7;" horiz-adv-x="598" 
d="M291 -172c-130 0 -244 64 -244 200h136c0 -61 71 -77 116 -77c57 0 91 19 91 50c0 37 -36 48 -103 70l-34 11c-121 39 -189 90 -189 186c0 64 32 107 70 145c-48 42 -65 74 -65 129c0 97 85 165 223 165s239 -53 239 -195h-135c0 56 -67 72 -110 72
c-53 0 -84 -17 -84 -44c0 -33 35 -48 110 -71l36 -11c122 -37 190 -92 190 -189c0 -64 -28 -105 -65 -146c44 -37 58 -68 58 -120c0 -99 -84 -175 -240 -175zM373 175c22 29 27 51 27 75c0 40 -34 68 -90 87l-72 25c-22 -27 -33 -49 -33 -74c0 -38 34 -66 94 -87z" />
    <glyph glyph-name="dieresis" unicode="&#xa8;" horiz-adv-x="481" 
d="M66 595v110h142v-110h-142zM273 595v110h142v-110h-142z" />
    <glyph glyph-name="copyright" unicode="&#xa9;" horiz-adv-x="836" 
d="M417 140c-103 0 -173 56 -173 148v125c0 92 70 148 173 148c102 0 168 -54 168 -151v-4h-111v4c0 31 -20 52 -57 52c-44 0 -63 -19 -63 -48v-129c0 -28 19 -47 63 -47c37 0 57 20 57 52v7h111v-5c0 -96 -71 -152 -168 -152zM418 -15c-203 0 -360 159 -360 365
s157 365 360 365s360 -159 360 -365s-157 -365 -360 -365zM418 60c156 0 277 125 277 290s-121 290 -277 290s-277 -125 -277 -290s121 -290 277 -290z" />
    <glyph glyph-name="ordfeminine" unicode="&#xaa;" horiz-adv-x="376" 
d="M145 353c-64 0 -118 33 -118 101c0 69 45 103 146 103h51v20c0 23 -13 36 -39 36s-40 -13 -40 -38h-103c0 75 39 130 143 130s142 -53 142 -124v-223h-57l-21 32c-22 -21 -60 -37 -104 -37zM174 437c16 0 36 5 50 21v37h-52c-25 0 -36 -13 -36 -29c0 -17 13 -29 38 -29z
" />
    <glyph glyph-name="guillemotleft" unicode="&#xab;" horiz-adv-x="551" 
d="M154 105l-120 211l120 210h122v-40l-94 -170l94 -171v-40h-122zM369 105l-120 211l120 210h122v-40l-94 -170l94 -171v-40h-122z" />
    <glyph glyph-name="logicalnot" unicode="&#xac;" horiz-adv-x="567" 
d="M383 205v168h-326v118h453v-286h-127z" />
    <glyph glyph-name="uni00AD" unicode="&#xad;" horiz-adv-x="445" 
d="M57 249v128h332v-128h-332z" />
    <glyph glyph-name="registered" unicode="&#xae;" horiz-adv-x="412" 
d="M139 456v176h73c44 0 67 -20 67 -60c0 -28 -15 -43 -32 -52l32 -49v-15h-46l-34 57h-15v-57h-45zM184 552h29c10 0 21 5 21 20c0 14 -11 17 -21 17h-29v-37zM206 371c-93 0 -167 74 -167 172s74 172 167 172s167 -74 167 -172s-74 -172 -167 -172zM206 412
c69 0 124 55 124 131c0 75 -55 131 -124 131c-70 0 -124 -56 -124 -131c0 -76 54 -131 124 -131z" />
    <glyph glyph-name="macron" unicode="&#xaf;" horiz-adv-x="419" 
d="M44 595v110h331v-110h-331z" />
    <glyph glyph-name="degree" unicode="&#xb0;" horiz-adv-x="393" 
d="M197 458c22 0 36 17 36 37v82c0 20 -14 37 -36 37c-23 0 -36 -18 -36 -37v-82c0 -19 13 -37 36 -37zM197 357c-97 0 -160 51 -160 158v42c0 107 63 158 160 158c98 0 160 -51 160 -158v-42c0 -107 -62 -158 -160 -158z" />
    <glyph glyph-name="plusminus" unicode="&#xb1;" horiz-adv-x="579" 
d="M63 0v118h453v-118h-453zM225 197v150h-162v118h162v150h129v-150h162v-118h-162v-150h-129z" />
    <glyph glyph-name="twosuperior" unicode="&#xb2;" horiz-adv-x="313" 
d="M23 358v86l112 84c41 31 43 43 43 60c0 13 -9 25 -26 25c-18 0 -28 -12 -28 -30v-9h-106c0 85 59 131 135 131c79 0 130 -48 130 -111c0 -53 -26 -83 -66 -112l-47 -34h114v-90h-261z" />
    <glyph glyph-name="threesuperior" unicode="&#xb3;" horiz-adv-x="321" 
d="M165 353c-95 0 -146 53 -146 128h89c0 -21 19 -36 48 -36c27 0 38 11 38 24c0 17 -17 24 -37 24h-28v73h28c21 0 32 7 32 23c0 14 -13 24 -36 24c-24 0 -40 -15 -40 -39h-89c0 84 53 131 139 131c79 0 126 -44 126 -100c0 -31 -14 -54 -32 -66c23 -11 42 -40 42 -74
c0 -65 -52 -112 -134 -112z" />
    <glyph glyph-name="acute" unicode="&#xb4;" horiz-adv-x="307" 
d="M57 590l65 140h128v-49l-80 -91h-113z" />
    <glyph glyph-name="mu" unicode="&#xb5;" horiz-adv-x="606" 
d="M447 0l-39 49c-32 -29 -79 -61 -150 -61c-14 0 -27 2 -39 4v-152h-142v686h142v-328c0 -57 31 -82 71 -82c47 0 85 35 97 48v362h142v-526h-82z" />
    <glyph glyph-name="paragraph" unicode="&#xb6;" horiz-adv-x="644" 
d="M212 -87v455c-108 0 -175 58 -175 162v8c0 106 67 162 175 162h345v-787h-135v658h-75v-658h-135z" />
    <glyph glyph-name="periodcentered" unicode="&#xb7;" horiz-adv-x="289" 
d="M68 241v145h154v-145h-154z" />
    <glyph glyph-name="cedilla" unicode="&#xb8;" horiz-adv-x="305" 
d="M63 -160v49l76 111h113l-61 -160h-128z" />
    <glyph glyph-name="onesuperior" unicode="&#xb9;" horiz-adv-x="263" 
d="M103 358v190h-72v52l146 100h29v-342h-103z" />
    <glyph glyph-name="ordmasculine" unicode="&#xba;" horiz-adv-x="390" 
d="M195 445c38 0 55 23 55 44v80c0 21 -17 44 -55 44c-37 0 -54 -23 -54 -44v-80c0 -21 17 -44 54 -44zM195 705c96 0 157 -52 157 -142v-69c0 -90 -61 -141 -157 -141c-95 0 -157 51 -157 141v69c0 90 62 142 157 142z" />
    <glyph glyph-name="guillemotright" unicode="&#xbb;" horiz-adv-x="551" 
d="M309 316l-120 -211h-122v40l94 171l-94 170v40h122zM524 316l-120 -211h-122v40l94 171l-94 170v40h122z" />
    <glyph glyph-name="onequarter" unicode="&#xbc;" horiz-adv-x="735" 
d="M103 358v190h-72v52l146 100h29v-342h-103zM515 342h76v-55l-86 -152h62v64h99v-64h38v-83h-38v-52h-99v52h-171v83zM95 0v51l411 649h80v-51l-411 -649h-80z" />
    <glyph glyph-name="onehalf" unicode="&#xbd;" horiz-adv-x="747" 
d="M98 0v51l411 649h80v-51l-411 -649h-80zM103 358v190h-72v52l146 100h29v-342h-103zM457 0v86l112 84c41 31 43 43 43 60c0 13 -9 25 -26 25c-18 0 -28 -12 -28 -30v-9h-106c0 85 59 131 135 131c79 0 130 -48 130 -111c0 -53 -26 -83 -66 -112l-47 -34h114v-90h-261z
" />
    <glyph glyph-name="threequarters" unicode="&#xbe;" horiz-adv-x="772" 
d="M132 0v51l411 649h80v-51l-411 -649h-80zM552 342h76v-55l-86 -152h62v64h99v-64h38v-83h-38v-52h-99v52h-171v83zM165 353c-95 0 -146 53 -146 128h89c0 -21 19 -36 48 -36c27 0 38 11 38 24c0 17 -17 24 -37 24h-28v73h28c21 0 32 7 32 23c0 14 -13 24 -36 24
c-24 0 -40 -15 -40 -39h-89c0 84 53 131 139 131c79 0 126 -44 126 -100c0 -31 -14 -54 -32 -66c23 -11 42 -40 42 -74c0 -65 -52 -112 -134 -112z" />
    <glyph glyph-name="questiondown" unicode="&#xbf;" horiz-adv-x="528" 
d="M249 -172c-152 0 -225 99 -225 203c0 112 77 159 141 199l29 18v58h142v-106l-100 -68c-45 -31 -70 -48 -70 -97c0 -45 30 -79 84 -79c67 0 102 46 102 111h136c0 -154 -104 -239 -239 -239zM194 384v142h142v-142h-142z" />
    <glyph glyph-name="Agrave" unicode="&#xc0;" horiz-adv-x="661" 
d="M17 0v51l237 649h152l238 -649v-51h-153l-52 159h-224l-55 -159h-143zM261 288h131l-65 204zM265 762l-85 98v53h137l70 -151h-122z" />
    <glyph glyph-name="Aacute" unicode="&#xc1;" horiz-adv-x="661" 
d="M17 0v51l237 649h152l238 -649v-51h-153l-52 159h-224l-55 -159h-143zM261 288h131l-65 204zM278 762l70 151h137v-53l-86 -98h-121z" />
    <glyph glyph-name="Acircumflex" unicode="&#xc2;" horiz-adv-x="661" 
d="M17 0v51l237 649h152l238 -649v-51h-153l-52 159h-224l-55 -159h-143zM261 288h131l-65 204zM172 762v49l98 102h120l98 -102v-49h-115l-44 50l-43 -50h-114z" />
    <glyph glyph-name="Atilde" unicode="&#xc3;" horiz-adv-x="661" 
d="M17 0v51l237 649h152l238 -649v-51h-153l-52 159h-224l-55 -159h-143zM261 288h131l-65 204zM230 753l-87 51c25 60 63 109 125 109c22 0 46 -10 64 -21l24 -15c11 -6 20 -13 35 -13s25 10 42 42l87 -52c-25 -58 -63 -107 -125 -107c-22 0 -46 9 -63 20l-25 15
c-11 7 -20 13 -35 13c-14 0 -25 -9 -42 -42z" />
    <glyph glyph-name="Adieresis" unicode="&#xc4;" horiz-adv-x="661" 
d="M17 0v51l237 649h152l238 -649v-51h-153l-52 159h-224l-55 -159h-143zM261 288h131l-65 204zM141 768v118h152v-118h-152zM363 768v118h152v-118h-152z" />
    <glyph glyph-name="Aring" unicode="&#xc5;" horiz-adv-x="661" 
d="M17 0v51l237 649h152l238 -649v-51h-153l-52 159h-224l-55 -159h-143zM261 288h131l-65 204zM327 817c16 0 31 13 31 30s-15 30 -31 30s-31 -13 -31 -30s15 -30 31 -30zM327 735c-65 0 -119 50 -119 112s54 111 119 111s119 -49 119 -111s-54 -112 -119 -112z" />
    <glyph glyph-name="AE" unicode="&#xc6;" horiz-adv-x="1024" 
d="M7 0v51l409 649h549v-135h-307v-150h261v-129h-261v-151h309v-135h-464v157h-258l-98 -157h-140zM328 286h175v280z" />
    <glyph glyph-name="Ccedilla" unicode="&#xc7;" horiz-adv-x="661" 
d="M207 -160v49l69 101c-137 21 -209 109 -209 247v226c0 159 96 252 276 252c139 0 262 -71 262 -247v-10h-156v10c0 77 -57 105 -116 105c-77 0 -111 -38 -111 -99v-248c0 -61 34 -99 111 -99c59 0 116 25 116 105v10h156v-10c0 -155 -96 -229 -214 -244l-56 -148h-128z
" />
    <glyph glyph-name="Egrave" unicode="&#xc8;" horiz-adv-x="607" 
d="M87 0v700h461v-135h-306v-150h260v-129h-260v-151h308v-135h-463zM255 762l-85 98v53h137l70 -151h-122z" />
    <glyph glyph-name="Eacute" unicode="&#xc9;" horiz-adv-x="607" 
d="M87 0v700h461v-135h-306v-150h260v-129h-260v-151h308v-135h-463zM226 762l70 151h137v-53l-86 -98h-121z" />
    <glyph glyph-name="Ecircumflex" unicode="&#xca;" horiz-adv-x="607" 
d="M87 0v700h461v-135h-306v-150h260v-129h-260v-151h308v-135h-463zM161 762v49l98 102h120l98 -102v-49h-115l-44 50l-43 -50h-114z" />
    <glyph glyph-name="Edieresis" unicode="&#xcb;" horiz-adv-x="607" 
d="M87 0v700h461v-135h-306v-150h260v-129h-260v-151h308v-135h-463zM133 768v118h152v-118h-152zM355 768v118h152v-118h-152z" />
    <glyph glyph-name="Igrave" unicode="&#xcc;" horiz-adv-x="329" 
d="M87 0v700h155v-700h-155zM103 762l-85 98v53h137l70 -151h-122z" />
    <glyph glyph-name="Iacute" unicode="&#xcd;" horiz-adv-x="329" 
d="M87 0v700h155v-700h-155zM108 762l70 151h137v-53l-86 -98h-121z" />
    <glyph glyph-name="Icircumflex" unicode="&#xce;" horiz-adv-x="329" 
d="M87 0v700h155v-700h-155zM7 762v49l98 102h120l98 -102v-49h-115l-44 50l-43 -50h-114z" />
    <glyph glyph-name="Idieresis" unicode="&#xcf;" horiz-adv-x="329" 
d="M87 0v700h155v-700h-155zM-21 768v118h152v-118h-152zM200 768v118h152v-118h-152z" />
    <glyph glyph-name="Eth" unicode="&#xd0;" horiz-adv-x="717" 
d="M267 135h102c85 0 126 50 126 101v228c0 51 -41 101 -126 101h-102v-151h106v-129h-106v-150zM112 0v285h-92v129h92v286h257c171 0 281 -86 281 -240v-220c0 -155 -110 -240 -281 -240h-257z" />
    <glyph glyph-name="Ntilde" unicode="&#xd1;" horiz-adv-x="720" 
d="M87 0v700h142l249 -411v411h155v-700h-142l-249 411v-411h-155zM260 742l-87 51c25 60 63 109 125 109c22 0 46 -10 64 -21l24 -15c11 -6 20 -13 35 -13s25 10 42 42l87 -52c-25 -58 -63 -107 -125 -107c-22 0 -46 9 -63 20l-25 15c-11 7 -20 13 -35 13
c-14 0 -25 -9 -42 -42z" />
    <glyph glyph-name="Ograve" unicode="&#xd2;" horiz-adv-x="696" 
d="M348 127c89 0 126 53 126 104v238c0 51 -37 104 -126 104s-126 -53 -126 -104v-238c0 -51 37 -104 126 -104zM348 715c171 0 281 -93 281 -254v-223c0 -160 -110 -253 -281 -253s-281 93 -281 253v223c0 161 110 254 281 254zM290 762l-85 98v53h137l70 -151h-122z" />
    <glyph glyph-name="Oacute" unicode="&#xd3;" horiz-adv-x="696" 
d="M348 127c89 0 126 53 126 104v238c0 51 -37 104 -126 104s-126 -53 -126 -104v-238c0 -51 37 -104 126 -104zM348 715c171 0 281 -93 281 -254v-223c0 -160 -110 -253 -281 -253s-281 93 -281 253v223c0 161 110 254 281 254zM288 762l70 151h137v-53l-86 -98h-121z" />
    <glyph glyph-name="Ocircumflex" unicode="&#xd4;" horiz-adv-x="696" 
d="M348 127c89 0 126 53 126 104v238c0 51 -37 104 -126 104s-126 -53 -126 -104v-238c0 -51 37 -104 126 -104zM348 715c171 0 281 -93 281 -254v-223c0 -160 -110 -253 -281 -253s-281 93 -281 253v223c0 161 110 254 281 254zM190 762v49l98 102h120l98 -102v-49h-115
l-44 50l-43 -50h-114z" />
    <glyph glyph-name="Otilde" unicode="&#xd5;" horiz-adv-x="696" 
d="M348 127c89 0 126 53 126 104v238c0 51 -37 104 -126 104s-126 -53 -126 -104v-238c0 -51 37 -104 126 -104zM348 715c171 0 281 -93 281 -254v-223c0 -160 -110 -253 -281 -253s-281 93 -281 253v223c0 161 110 254 281 254zM255 753l-87 51c25 60 63 109 125 109
c22 0 46 -10 64 -21l24 -15c11 -6 20 -13 35 -13s25 10 42 42l87 -52c-25 -58 -63 -107 -125 -107c-22 0 -46 9 -63 20l-25 15c-11 7 -20 13 -35 13c-14 0 -25 -9 -42 -42z" />
    <glyph glyph-name="Odieresis" unicode="&#xd6;" horiz-adv-x="696" 
d="M348 127c89 0 126 53 126 104v238c0 51 -37 104 -126 104s-126 -53 -126 -104v-238c0 -51 37 -104 126 -104zM348 715c171 0 281 -93 281 -254v-223c0 -160 -110 -253 -281 -253s-281 93 -281 253v223c0 161 110 254 281 254zM162 768v118h152v-118h-152zM384 768v118
h152v-118h-152z" />
    <glyph glyph-name="multiply" unicode="&#xd7;" horiz-adv-x="571" 
d="M149 90l-86 84l136 139l-136 137l86 86l136 -138l139 138l84 -86l-137 -137l137 -139l-84 -84l-139 137z" />
    <glyph glyph-name="Oslash" unicode="&#xd8;" horiz-adv-x="697" 
d="M348 -15c-20 0 -40 2 -58 4l-25 -89h-114v51l25 76c-69 43 -109 115 -109 211v223c0 161 110 254 281 254c18 0 34 -1 51 -2l25 87h114v-51l-24 -73c73 -41 116 -115 116 -215v-223c0 -160 -109 -253 -282 -253zM332 121h19c93 0 131 54 131 105v247c0 23 -8 48 -26 67z
M365 579h-19c-93 0 -131 -54 -131 -105v-247c0 -23 8 -48 26 -67z" />
    <glyph glyph-name="Ugrave" unicode="&#xd9;" horiz-adv-x="700" 
d="M350 127c85 0 118 49 118 96v477h155v-471c0 -154 -106 -244 -273 -244s-273 90 -273 244v471h155v-477c0 -47 33 -96 118 -96zM287 762l-85 98v53h137l70 -151h-122z" />
    <glyph glyph-name="Uacute" unicode="&#xda;" horiz-adv-x="700" 
d="M350 127c85 0 118 49 118 96v477h155v-471c0 -154 -106 -244 -273 -244s-273 90 -273 244v471h155v-477c0 -47 33 -96 118 -96zM271 762l70 151h137v-53l-86 -98h-121z" />
    <glyph glyph-name="Ucircumflex" unicode="&#xdb;" horiz-adv-x="700" 
d="M350 127c85 0 118 49 118 96v477h155v-471c0 -154 -106 -244 -273 -244s-273 90 -273 244v471h155v-477c0 -47 33 -96 118 -96zM196 762v49l98 102h120l98 -102v-49h-115l-44 50l-43 -50h-114z" />
    <glyph glyph-name="Udieresis" unicode="&#xdc;" horiz-adv-x="700" 
d="M350 127c85 0 118 49 118 96v477h155v-471c0 -154 -106 -244 -273 -244s-273 90 -273 244v471h155v-477c0 -47 33 -96 118 -96zM168 768v118h152v-118h-152zM390 768v118h152v-118h-152z" />
    <glyph glyph-name="Yacute" unicode="&#xdd;" horiz-adv-x="620" 
d="M232 0v277l-225 372v51h153l151 -278l159 278h143v-51l-225 -366v-283h-156zM238 762l70 151h137v-53l-86 -98h-121z" />
    <glyph glyph-name="Thorn" unicode="&#xde;" horiz-adv-x="643" 
d="M87 0v700h155v-128h159c126 0 200 -85 200 -219s-74 -220 -200 -220h-159v-133h-155zM242 268h130c34 0 72 25 72 85c0 61 -38 84 -72 84h-130v-169z" />
    <glyph glyph-name="germandbls" unicode="&#xdf;" horiz-adv-x="607" 
d="M77 0v465c0 156 86 244 226 244c141 0 220 -82 220 -192c0 -59 -20 -103 -58 -130c55 -25 95 -92 95 -171c0 -130 -93 -216 -232 -216c-22 0 -36 2 -51 5v123h38c65 0 103 34 103 98s-38 96 -103 96h-38v123h28c52 0 75 24 75 68c0 40 -29 67 -75 67
c-56 0 -86 -33 -86 -97v-483h-142z" />
    <glyph glyph-name="agrave" unicode="&#xe0;" horiz-adv-x="571" 
d="M378 49l39 -49h82v356c0 107 -72 182 -218 182c-147 0 -215 -75 -215 -180h139c0 29 22 52 76 52c52 0 76 -23 76 -64v-29h-103c-143 0 -212 -63 -212 -171c0 -104 82 -158 177 -158c77 0 121 25 159 61zM249 113c-44 0 -65 23 -65 52c0 28 18 52 70 52h103v-58
c-31 -34 -62 -46 -108 -46zM242 590l-79 91v49h128l65 -140h-114z" />
    <glyph glyph-name="aacute" unicode="&#xe1;" horiz-adv-x="571" 
d="M378 49l39 -49h82v356c0 107 -72 182 -218 182c-147 0 -215 -75 -215 -180h139c0 29 22 52 76 52c52 0 76 -23 76 -64v-29h-103c-143 0 -212 -63 -212 -171c0 -104 82 -158 177 -158c77 0 121 25 159 61zM249 113c-44 0 -65 23 -65 52c0 28 18 52 70 52h103v-58
c-31 -34 -62 -46 -108 -46zM209 590l65 140h128v-49l-80 -91h-113z" />
    <glyph glyph-name="acircumflex" unicode="&#xe2;" horiz-adv-x="571" 
d="M378 49l39 -49h82v356c0 107 -72 182 -218 182c-147 0 -215 -75 -215 -180h139c0 29 22 52 76 52c52 0 76 -23 76 -64v-29h-103c-143 0 -212 -63 -212 -171c0 -104 82 -158 177 -158c77 0 121 25 159 61zM249 113c-44 0 -65 23 -65 52c0 28 18 52 70 52h103v-58
c-31 -34 -62 -46 -108 -46zM141 590v45l91 95h112l92 -95v-45h-108l-41 46l-40 -46h-106z" />
    <glyph glyph-name="atilde" unicode="&#xe3;" horiz-adv-x="571" 
d="M378 49l39 -49h82v356c0 107 -72 182 -218 182c-147 0 -215 -75 -215 -180h139c0 29 22 52 76 52c52 0 76 -23 76 -64v-29h-103c-143 0 -212 -63 -212 -171c0 -104 82 -158 177 -158c77 0 121 25 159 61zM249 113c-44 0 -65 23 -65 52c0 28 18 52 70 52h103v-58
c-31 -34 -62 -46 -108 -46zM197 581l-85 50c25 58 62 106 122 106c22 0 45 -10 62 -20l24 -15c11 -6 19 -13 34 -13s24 10 41 41l85 -50c-25 -57 -62 -105 -122 -105c-22 0 -45 9 -62 20l-24 15c-11 6 -19 12 -34 12c-14 0 -24 -9 -41 -41z" />
    <glyph glyph-name="adieresis" unicode="&#xe4;" horiz-adv-x="571" 
d="M378 49l39 -49h82v356c0 107 -72 182 -218 182c-147 0 -215 -75 -215 -180h139c0 29 22 52 76 52c52 0 76 -23 76 -64v-29h-103c-143 0 -212 -63 -212 -171c0 -104 82 -158 177 -158c77 0 121 25 159 61zM249 113c-44 0 -65 23 -65 52c0 28 18 52 70 52h103v-58
c-31 -34 -62 -46 -108 -46zM115 595v110h142v-110h-142zM322 595v110h142v-110h-142z" />
    <glyph glyph-name="aring" unicode="&#xe5;" horiz-adv-x="571" 
d="M378 49l39 -49h82v356c0 107 -72 182 -218 182c-147 0 -215 -75 -215 -180h139c0 29 22 52 76 52c52 0 76 -23 76 -64v-29h-103c-143 0 -212 -63 -212 -171c0 -104 82 -158 177 -158c77 0 121 25 159 61zM249 113c-44 0 -65 23 -65 52c0 28 18 52 70 52h103v-58
c-31 -34 -62 -46 -108 -46zM291 640c15 0 29 12 29 28s-14 28 -29 28s-29 -12 -29 -28s14 -28 29 -28zM291 564c-61 0 -111 46 -111 104s50 104 111 104s111 -46 111 -104s-50 -104 -111 -104z" />
    <glyph glyph-name="ae" unicode="&#xe6;" horiz-adv-x="862" 
d="M223 -12c-100 0 -181 54 -181 158c0 110 69 172 217 172h98v28c0 41 -24 64 -76 64c-54 0 -76 -23 -76 -52h-139c0 105 68 180 215 180c60 0 110 -11 153 -41c43 29 98 41 155 41c130 0 220 -67 220 -192v-130h-310v-33c0 -39 28 -67 90 -67c44 0 69 17 78 44h141
c-11 -108 -89 -172 -219 -172c-84 0 -152 23 -196 77c-35 -42 -91 -77 -170 -77zM499 319h168v27c0 39 -31 64 -85 64c-55 0 -83 -26 -83 -64v-27zM357 159v58h-103c-52 0 -70 -24 -70 -52c0 -29 21 -52 65 -52c46 0 77 12 108 46z" />
    <glyph glyph-name="ccedilla" unicode="&#xe7;" horiz-adv-x="545" 
d="M129 -160v49l74 108c-92 23 -149 89 -149 186v161c0 121 90 194 225 194c130 0 217 -71 217 -199v-6h-142v6c0 43 -27 71 -80 71c-54 0 -78 -26 -78 -64v-166c0 -39 24 -64 78 -64c53 0 80 27 80 69v11h142v-7c0 -114 -75 -186 -182 -199l-57 -150h-128z" />
    <glyph glyph-name="egrave" unicode="&#xe8;" horiz-adv-x="559" 
d="M285 -12c-138 0 -231 68 -231 193v163c0 121 93 194 231 194c129 0 221 -67 221 -192v-130h-310v-34c0 -38 27 -66 89 -66c44 0 69 17 78 44h142c-10 -108 -91 -172 -220 -172zM196 319h168v27c0 39 -29 64 -84 64s-84 -25 -84 -64v-27zM253 590l-79 91v49h128l65 -140
h-114z" />
    <glyph glyph-name="eacute" unicode="&#xe9;" horiz-adv-x="559" 
d="M285 -12c-138 0 -231 68 -231 193v163c0 121 93 194 231 194c129 0 221 -67 221 -192v-130h-310v-34c0 -38 27 -66 89 -66c44 0 69 17 78 44h142c-10 -108 -91 -172 -220 -172zM196 319h168v27c0 39 -29 64 -84 64s-84 -25 -84 -64v-27zM211 590l65 140h128v-49l-80 -91
h-113z" />
    <glyph glyph-name="ecircumflex" unicode="&#xea;" horiz-adv-x="559" 
d="M285 -12c-138 0 -231 68 -231 193v163c0 121 93 194 231 194c129 0 221 -67 221 -192v-130h-310v-34c0 -38 27 -66 89 -66c44 0 69 17 78 44h142c-10 -108 -91 -172 -220 -172zM196 319h168v27c0 39 -29 64 -84 64s-84 -25 -84 -64v-27zM134 590v45l91 95h112l92 -95v-45
h-108l-41 46l-40 -46h-106z" />
    <glyph glyph-name="edieresis" unicode="&#xeb;" horiz-adv-x="559" 
d="M285 -12c-138 0 -231 68 -231 193v163c0 121 93 194 231 194c129 0 221 -67 221 -192v-130h-310v-34c0 -38 27 -66 89 -66c44 0 69 17 78 44h142c-10 -108 -91 -172 -220 -172zM196 319h168v27c0 39 -29 64 -84 64s-84 -25 -84 -64v-27zM108 595v110h142v-110h-142z
M315 595v110h142v-110h-142z" />
    <glyph glyph-name="igrave" unicode="&#xec;" horiz-adv-x="296" 
d="M92 590l-79 91v49h128l65 -140h-114zM77 0v526h142v-526h-142z" />
    <glyph glyph-name="iacute" unicode="&#xed;" horiz-adv-x="296" 
d="M92 590l65 140h128v-49l-80 -91h-113zM77 0v526h142v-526h-142z" />
    <glyph glyph-name="icircumflex" unicode="&#xee;" horiz-adv-x="296" 
d="M77 0v526h142v-526h-142zM0 590v45l91 95h112l92 -95v-45h-108l-41 46l-40 -46h-106z" />
    <glyph glyph-name="idieresis" unicode="&#xef;" horiz-adv-x="296" 
d="M-26 595v110h142v-110h-142zM181 595v110h142v-110h-142zM77 0v526h142v-526h-142z" />
    <glyph glyph-name="eth" unicode="&#xf0;" horiz-adv-x="561" 
d="M282 -12c-136 0 -231 73 -231 195v111c0 139 91 193 192 193c54 0 74 -10 97 -24l-58 61h-145v73h78l-39 42v66h128l81 -108h109v-73h-52c58 -83 72 -135 72 -253v-90c0 -125 -95 -193 -232 -193zM282 116c61 0 90 34 90 72v125c-22 25 -49 46 -91 46
c-46 0 -88 -24 -88 -75v-96c0 -39 30 -72 89 -72z" />
    <glyph glyph-name="ntilde" unicode="&#xf1;" horiz-adv-x="605" 
d="M77 0v526h81l39 -49c35 33 81 61 153 61c115 0 183 -77 183 -205v-333h-142v325c0 58 -32 85 -73 85c-48 0 -87 -36 -99 -50v-360h-142zM215 581l-85 50c25 58 62 106 122 106c22 0 45 -10 62 -20l24 -15c11 -6 19 -13 34 -13s24 10 41 41l85 -50
c-25 -57 -62 -105 -122 -105c-22 0 -45 9 -62 20l-24 15c-11 6 -19 12 -34 12c-14 0 -24 -9 -41 -41z" />
    <glyph glyph-name="ograve" unicode="&#xf2;" horiz-adv-x="569" 
d="M285 116c59 0 88 33 88 72v149c0 40 -29 73 -88 73c-62 0 -89 -35 -89 -73v-149c0 -38 27 -72 89 -72zM285 -12c-154 0 -231 85 -231 195v161c0 109 77 194 231 194c153 0 230 -85 230 -194v-161c0 -110 -77 -195 -230 -195zM241 590l-79 91v49h128l65 -140h-114z" />
    <glyph glyph-name="oacute" unicode="&#xf3;" horiz-adv-x="569" 
d="M285 116c59 0 88 33 88 72v149c0 40 -29 73 -88 73c-62 0 -89 -35 -89 -73v-149c0 -38 27 -72 89 -72zM285 -12c-154 0 -231 85 -231 195v161c0 109 77 194 231 194c153 0 230 -85 230 -194v-161c0 -110 -77 -195 -230 -195zM213 590l65 140h128v-49l-80 -91h-113z" />
    <glyph glyph-name="ocircumflex" unicode="&#xf4;" horiz-adv-x="569" 
d="M285 116c59 0 88 33 88 72v149c0 40 -29 73 -88 73c-62 0 -89 -35 -89 -73v-149c0 -38 27 -72 89 -72zM285 -12c-154 0 -231 85 -231 195v161c0 109 77 194 231 194c153 0 230 -85 230 -194v-161c0 -110 -77 -195 -230 -195zM138 590v45l91 95h112l92 -95v-45h-108
l-41 46l-40 -46h-106z" />
    <glyph glyph-name="otilde" unicode="&#xf5;" horiz-adv-x="569" 
d="M285 116c59 0 88 33 88 72v149c0 40 -29 73 -88 73c-62 0 -89 -35 -89 -73v-149c0 -38 27 -72 89 -72zM285 -12c-154 0 -231 85 -231 195v161c0 109 77 194 231 194c153 0 230 -85 230 -194v-161c0 -110 -77 -195 -230 -195zM185 581l-85 50c25 58 62 106 122 106
c22 0 45 -10 62 -20l24 -15c11 -6 19 -13 34 -13s24 10 41 41l85 -50c-25 -57 -62 -105 -122 -105c-22 0 -45 9 -62 20l-24 15c-11 6 -19 12 -34 12c-14 0 -24 -9 -41 -41z" />
    <glyph glyph-name="odieresis" unicode="&#xf6;" horiz-adv-x="569" 
d="M285 116c59 0 88 33 88 72v149c0 40 -29 73 -88 73c-62 0 -89 -35 -89 -73v-149c0 -38 27 -72 89 -72zM285 -12c-154 0 -231 85 -231 195v161c0 109 77 194 231 194c153 0 230 -85 230 -194v-161c0 -110 -77 -195 -230 -195zM110 595v110h142v-110h-142zM317 595v110h142
v-110h-142z" />
    <glyph glyph-name="divide" unicode="&#xf7;" horiz-adv-x="579" 
d="M207 60v129h165v-129h-165zM63 254v118h453v-118h-453zM207 437v129h165v-129h-165z" />
    <glyph glyph-name="oslash" unicode="&#xf8;" horiz-adv-x="577" 
d="M285 -12c-35 0 -65 4 -93 11l-70 -125h-68v67l58 103c-39 35 -58 84 -58 139v161c0 109 77 194 231 194c35 0 66 -4 94 -13l67 121h69v-67l-56 -99c37 -36 56 -83 56 -136v-161c0 -110 -77 -195 -230 -195zM190 342v-166l133 237c-9 2 -23 4 -37 4c-67 0 -96 -36 -96 -75
zM379 184v166l-133 -237c9 -2 23 -4 37 -4c67 0 96 36 96 75z" />
    <glyph glyph-name="ugrave" unicode="&#xf9;" horiz-adv-x="601" 
d="M403 49l39 -49h82v526h-142v-362c-12 -13 -50 -48 -97 -48c-40 0 -71 25 -71 82v328h-142v-335c0 -127 67 -203 181 -203c71 0 118 32 150 61zM264 590l-79 91v49h128l65 -140h-114z" />
    <glyph glyph-name="uacute" unicode="&#xfa;" horiz-adv-x="601" 
d="M403 49l39 -49h82v526h-142v-362c-12 -13 -50 -48 -97 -48c-40 0 -71 25 -71 82v328h-142v-335c0 -127 67 -203 181 -203c71 0 118 32 150 61zM219 590l65 140h128v-49l-80 -91h-113z" />
    <glyph glyph-name="ucircumflex" unicode="&#xfb;" horiz-adv-x="601" 
d="M403 49l39 -49h82v526h-142v-362c-12 -13 -50 -48 -97 -48c-40 0 -71 25 -71 82v328h-142v-335c0 -127 67 -203 181 -203c71 0 118 32 150 61zM152 590v45l91 95h112l92 -95v-45h-108l-41 46l-40 -46h-106z" />
    <glyph glyph-name="udieresis" unicode="&#xfc;" horiz-adv-x="601" 
d="M403 49l39 -49h82v526h-142v-362c-12 -13 -50 -48 -97 -48c-40 0 -71 25 -71 82v328h-142v-335c0 -127 67 -203 181 -203c71 0 118 32 150 61zM127 595v110h142v-110h-142zM334 595v110h142v-110h-142z" />
    <glyph glyph-name="yacute" unicode="&#xfd;" horiz-adv-x="517" 
d="M146 -160v51l48 109l-177 460v66h131l116 -332l108 332h129v-66l-239 -620h-116zM191 590l65 140h128v-49l-80 -91h-113z" />
    <glyph glyph-name="thorn" unicode="&#xfe;" horiz-adv-x="600" 
d="M77 -160v865h142v-210c19 16 61 43 132 43c101 0 187 -59 187 -192v-165c0 -134 -86 -193 -187 -193c-71 0 -113 27 -132 43v-191h-142zM322 116c33 0 74 25 74 76v143c0 50 -41 75 -74 75c-48 0 -80 -27 -103 -50v-194c23 -23 55 -50 103 -50z" />
    <glyph glyph-name="ydieresis" unicode="&#xff;" horiz-adv-x="517" 
d="M146 -160v51l48 109l-177 460v66h131l116 -332l108 332h129v-66l-239 -620h-116zM85 595v110h142v-110h-142zM292 595v110h142v-110h-142z" />
    <glyph glyph-name="Amacron" unicode="&#x100;" horiz-adv-x="661" 
d="M17 0v51l237 649h152l238 -649v-51h-153l-52 159h-224l-55 -159h-143zM261 288h131l-65 204zM154 768v118h355v-118h-355z" />
    <glyph glyph-name="amacron" unicode="&#x101;" horiz-adv-x="571" 
d="M378 49l39 -49h82v356c0 107 -72 182 -218 182c-147 0 -215 -75 -215 -180h139c0 29 22 52 76 52c52 0 76 -23 76 -64v-29h-103c-143 0 -212 -63 -212 -171c0 -104 82 -158 177 -158c77 0 121 25 159 61zM249 113c-44 0 -65 23 -65 52c0 28 18 52 70 52h103v-58
c-31 -34 -62 -46 -108 -46zM126 595v110h331v-110h-331z" />
    <glyph glyph-name="Aogonek" unicode="&#x104;" horiz-adv-x="661" 
d="M622 -160c-66 0 -106 28 -106 73c0 24 15 54 49 87h-74l-52 159h-224l-55 -159h-143v51l237 649h152l238 -649v-51c-25 -21 -35 -37 -35 -53c0 -14 15 -22 41 -22h30v-85h-58zM261 288h131l-65 204z" />
    <glyph glyph-name="aogonek" unicode="&#x105;" horiz-adv-x="570" 
d="M477 -160c-66 0 -106 28 -106 73c0 24 14 54 46 87l-39 49c-38 -36 -82 -61 -159 -61c-95 0 -177 54 -177 158c0 108 69 171 212 171h103v29c0 41 -24 64 -76 64c-54 0 -76 -23 -76 -52h-139c0 105 68 180 215 180c146 0 218 -75 218 -182v-356c-25 -21 -35 -37 -35 -53
c0 -14 15 -22 41 -22h30v-85h-58zM249 113c46 0 77 12 108 46v58h-103c-52 0 -70 -24 -70 -52c0 -29 21 -52 65 -52z" />
    <glyph glyph-name="Cacute" unicode="&#x106;" horiz-adv-x="661" 
d="M343 -15c-180 0 -276 93 -276 252v226c0 159 96 252 276 252c139 0 262 -71 262 -247v-10h-156v10c0 77 -57 105 -116 105c-77 0 -111 -38 -111 -99v-248c0 -61 34 -99 111 -99c59 0 116 25 116 105v10h156v-10c0 -176 -123 -247 -262 -247zM253 762l70 151h137v-53
l-86 -98h-121z" />
    <glyph glyph-name="cacute" unicode="&#x107;" horiz-adv-x="545" 
d="M279 -12c-135 0 -225 73 -225 195v161c0 121 90 194 225 194c130 0 217 -71 217 -199v-6h-142v6c0 43 -27 71 -80 71c-54 0 -78 -26 -78 -64v-166c0 -39 24 -64 78 -64c53 0 80 27 80 69v11h142v-7c0 -126 -91 -201 -217 -201zM220 590l65 140h128v-49l-80 -91h-113z" />
    <glyph glyph-name="Ccaron" unicode="&#x10c;" horiz-adv-x="661" 
d="M343 -15c-180 0 -276 93 -276 252v226c0 159 96 252 276 252c139 0 262 -71 262 -247v-10h-156v10c0 77 -57 105 -116 105c-77 0 -111 -38 -111 -99v-248c0 -61 34 -99 111 -99c59 0 116 25 116 105v10h156v-10c0 -176 -123 -247 -262 -247zM277 763l-98 102v48h116
l44 -63l43 63h113v-48l-98 -102h-120z" />
    <glyph glyph-name="ccaron" unicode="&#x10d;" horiz-adv-x="545" 
d="M279 -12c-135 0 -225 73 -225 195v161c0 121 90 194 225 194c130 0 217 -71 217 -199v-6h-142v6c0 43 -27 71 -80 71c-54 0 -78 -26 -78 -64v-166c0 -39 24 -64 78 -64c53 0 80 27 80 69v11h142v-7c0 -126 -91 -201 -217 -201zM220 590l-91 95v45h108l41 -59l40 59h106
v-45l-92 -95h-112z" />
    <glyph glyph-name="Dcaron" unicode="&#x10e;" horiz-adv-x="691" 
d="M242 135h101c85 0 126 50 126 101v228c0 51 -41 101 -126 101h-101v-430zM87 0v700h256c173 0 281 -86 281 -240v-220c0 -155 -108 -240 -281 -240h-256zM256 763l-98 102v48h116l44 -63l43 63h113v-48l-98 -102h-120z" />
    <glyph glyph-name="dcaron" unicode="&#x10f;" horiz-adv-x="738" 
d="M442 0l-39 49c-35 -33 -79 -61 -154 -61c-101 0 -187 59 -187 193v165c0 133 86 192 187 192c72 0 113 -27 132 -43v210h142v-705h-81zM278 116c48 0 80 27 103 50v194c-23 23 -55 50 -103 50c-33 0 -74 -25 -74 -75v-144c0 -51 41 -75 74 -75zM590 488l32 217h140v-60
l-72 -157h-100z" />
    <glyph glyph-name="Emacron" unicode="&#x112;" horiz-adv-x="607" 
d="M87 0v700h461v-135h-306v-150h260v-129h-260v-151h308v-135h-463zM135 768v118h355v-118h-355z" />
    <glyph glyph-name="emacron" unicode="&#x113;" horiz-adv-x="559" 
d="M285 -12c-138 0 -231 68 -231 193v163c0 121 93 194 231 194c129 0 221 -67 221 -192v-130h-310v-34c0 -38 27 -66 89 -66c44 0 69 17 78 44h142c-10 -108 -91 -172 -220 -172zM196 319h168v27c0 39 -29 64 -84 64s-84 -25 -84 -64v-27zM120 595v110h331v-110h-331z" />
    <glyph glyph-name="Edotaccent" unicode="&#x116;" horiz-adv-x="607" 
d="M87 0v700h461v-135h-306v-150h260v-129h-260v-151h308v-135h-463zM238 768v118h152v-118h-152z" />
    <glyph glyph-name="edotaccent" unicode="&#x117;" horiz-adv-x="559" 
d="M285 -12c-138 0 -231 68 -231 193v163c0 121 93 194 231 194c129 0 221 -67 221 -192v-130h-310v-34c0 -38 27 -66 89 -66c44 0 69 17 78 44h142c-10 -108 -91 -172 -220 -172zM196 319h168v27c0 39 -29 64 -84 64s-84 -25 -84 -64v-27zM211 595v110h142v-110h-142z" />
    <glyph glyph-name="Eogonek" unicode="&#x118;" horiz-adv-x="610" 
d="M87 0v700h461v-135h-306v-150h260v-129h-260v-151h308v-135c-25 -21 -35 -37 -35 -53c0 -14 15 -22 41 -22h30v-85h-58c-66 0 -106 28 -106 73c0 24 15 54 49 87h-384z" />
    <glyph glyph-name="eogonek" unicode="&#x119;" horiz-adv-x="559" 
d="M389 -160c-66 0 -106 28 -106 73c0 22 12 48 39 77c-12 -1 -24 -2 -37 -2c-138 0 -231 68 -231 193v163c0 121 93 194 231 194c129 0 221 -67 221 -192v-130h-310v-34c0 -38 27 -66 89 -66c44 0 69 17 78 44h142c-6 -65 -37 -113 -68 -141c-29 -26 -61 -39 -61 -72
c0 -14 15 -22 41 -22h30v-85h-58zM196 319h168v27c0 39 -29 64 -84 64s-84 -25 -84 -64v-27z" />
    <glyph glyph-name="Ecaron" unicode="&#x11a;" horiz-adv-x="607" 
d="M87 0v700h461v-135h-306v-150h260v-129h-260v-151h308v-135h-463zM260 763l-98 102v48h116l44 -63l43 63h113v-48l-98 -102h-120z" />
    <glyph glyph-name="ecaron" unicode="&#x11b;" horiz-adv-x="559" 
d="M285 -12c-138 0 -231 68 -231 193v163c0 121 93 194 231 194c129 0 221 -67 221 -192v-130h-310v-34c0 -38 27 -66 89 -66c44 0 69 17 78 44h142c-10 -108 -91 -172 -220 -172zM196 319h168v27c0 39 -29 64 -84 64s-84 -25 -84 -64v-27zM229 590l-91 95v45h108l41 -59
l40 59h106v-45l-92 -95h-112z" />
    <glyph glyph-name="uni0122" unicode="&#x122;" horiz-adv-x="698" 
d="M326 -15c-161 0 -259 100 -259 252v226c0 159 103 252 280 252c152 0 268 -84 268 -244h-156c0 64 -49 102 -121 102c-80 0 -116 -41 -116 -103v-233c0 -61 40 -110 114 -110c58 0 103 31 128 65v62h-120v129h271v-383h-83l-32 62c-35 -47 -102 -77 -174 -77zM232 -284
l32 217h140v-60l-72 -157h-100z" />
    <glyph glyph-name="uni0123" unicode="&#x123;" horiz-adv-x="600" 
d="M296 -172c-139 0 -221 67 -221 177h142c0 -17 11 -49 78 -49c64 0 86 34 86 76v55c-19 -16 -60 -43 -132 -43c-101 0 -187 59 -187 192v110c0 133 86 192 187 192c75 0 116 -27 151 -59l42 47h81v-493c0 -138 -93 -205 -227 -205zM278 172c48 0 80 27 103 50v138
c-23 23 -55 50 -103 50c-33 0 -74 -25 -74 -75v-87c0 -51 41 -76 74 -76zM402 803l-29 -217h-129v60l66 157h92z" />
    <glyph glyph-name="Imacron" unicode="&#x12a;" horiz-adv-x="329" 
d="M87 0v700h155v-700h-155zM-14 768v118h355v-118h-355z" />
    <glyph glyph-name="imacron" unicode="&#x12b;" horiz-adv-x="296" 
d="M-18 595v110h331v-110h-331zM77 0v526h142v-526h-142z" />
    <glyph glyph-name="Iogonek" unicode="&#x12e;" horiz-adv-x="329" 
d="M87 0v700h155v-700c-25 -21 -35 -37 -35 -53c0 -14 15 -22 41 -22h30v-85h-58c-66 0 -106 28 -106 73c0 24 15 54 49 87h-76z" />
    <glyph glyph-name="iogonek" unicode="&#x12f;" horiz-adv-x="296" 
d="M77 0v526h142v-526c-25 -21 -35 -37 -35 -53c0 -14 15 -22 41 -22h30v-85h-58c-66 0 -106 28 -106 73c0 24 15 54 49 87h-63zM77 595v110h142v-110h-142z" />
    <glyph glyph-name="dotlessi" unicode="&#x131;" horiz-adv-x="296" 
d="M77 0v526h142v-526h-142z" />
    <glyph glyph-name="uni0136" unicode="&#x136;" horiz-adv-x="652" 
d="M87 0v700h155v-282h61l169 282h140v-51l-178 -290l193 -308v-51h-150l-171 282h-64v-282h-155zM252 -284l32 217h140v-60l-72 -157h-100z" />
    <glyph glyph-name="uni0137" unicode="&#x137;" horiz-adv-x="558" 
d="M77 0v705h142v-373h35l133 194h122v-66l-128 -186l141 -208v-66h-126l-142 209h-35v-209h-142zM192 -284l29 217h129v-60l-66 -157h-92z" />
    <glyph glyph-name="Lacute" unicode="&#x139;" horiz-adv-x="570" 
d="M87 0v700h155v-565h311v-135h-466zM107 762l70 151h137v-53l-86 -98h-121z" />
    <glyph glyph-name="lacute" unicode="&#x13a;" horiz-adv-x="296" 
d="M77 0v705h142v-705h-142zM91 756l65 140h128v-49l-80 -91h-113z" />
    <glyph glyph-name="uni013B" unicode="&#x13b;" horiz-adv-x="570" 
d="M87 0v700h155v-565h311v-135h-466zM219 -284l32 217h140v-60l-72 -157h-100z" />
    <glyph glyph-name="uni013C" unicode="&#x13c;" horiz-adv-x="296" 
d="M77 0v705h142v-705h-142zM56 -284l29 217h129v-60l-66 -157h-92z" />
    <glyph glyph-name="Lcaron" unicode="&#x13d;" horiz-adv-x="570" 
d="M87 0v700h155v-565h311v-135h-466zM381 483l32 217h140v-60l-72 -157h-100z" />
    <glyph glyph-name="lcaron" unicode="&#x13e;" horiz-adv-x="432" 
d="M77 0v705h142v-705h-142zM284 488l32 217h140v-60l-72 -157h-100z" />
    <glyph glyph-name="Lslash" unicode="&#x141;" horiz-adv-x="606" 
d="M123 0v211l-58 -41h-50v124l108 78v328h155v-210l84 58h50v-124l-134 -96v-193h311v-135h-466z" />
    <glyph glyph-name="lslash" unicode="&#x142;" horiz-adv-x="418" 
d="M138 0v197l-72 -71h-66v87l138 144v348h142v-195l73 73h65v-89l-138 -142v-352h-142z" />
    <glyph glyph-name="Nacute" unicode="&#x143;" horiz-adv-x="720" 
d="M87 0v700h142l249 -411v411h155v-700h-142l-249 411v-411h-155zM274 762l70 151h137v-53l-86 -98h-121z" />
    <glyph glyph-name="nacute" unicode="&#x144;" horiz-adv-x="605" 
d="M77 0v526h81l39 -49c35 33 81 61 153 61c115 0 183 -77 183 -205v-333h-142v325c0 58 -32 85 -73 85c-48 0 -87 -36 -99 -50v-360h-142zM245 590l65 140h128v-49l-80 -91h-113z" />
    <glyph glyph-name="Ncommaaccent" unicode="&#x145;" horiz-adv-x="720" 
d="M87 0v700h142l249 -411v411h155v-700h-142l-249 411v-411h-155zM262 -284l32 217h140v-60l-72 -157h-100z" />
    <glyph glyph-name="ncommaaccent" unicode="&#x146;" horiz-adv-x="605" 
d="M77 0v526h81l39 -49c35 33 81 61 153 61c115 0 183 -77 183 -205v-333h-142v325c0 58 -32 85 -73 85c-48 0 -87 -36 -99 -50v-360h-142zM208 -284l29 217h129v-60l-66 -157h-92z" />
    <glyph glyph-name="Ncaron" unicode="&#x147;" horiz-adv-x="720" 
d="M87 0v700h142l249 -411v411h155v-700h-142l-249 411v-411h-155zM299 763l-98 102v48h116l44 -63l43 63h113v-48l-98 -102h-120z" />
    <glyph glyph-name="ncaron" unicode="&#x148;" horiz-adv-x="605" 
d="M77 0v526h81l39 -49c35 33 81 61 153 61c115 0 183 -77 183 -205v-333h-142v325c0 58 -32 85 -73 85c-48 0 -87 -36 -99 -50v-360h-142zM252 590l-91 95v45h108l41 -59l40 59h106v-45l-92 -95h-112z" />
    <glyph glyph-name="Omacron" unicode="&#x14c;" horiz-adv-x="696" 
d="M348 127c89 0 126 53 126 104v238c0 51 -37 104 -126 104s-126 -53 -126 -104v-238c0 -51 37 -104 126 -104zM348 715c171 0 281 -93 281 -254v-223c0 -160 -110 -253 -281 -253s-281 93 -281 253v223c0 161 110 254 281 254zM171 768v118h355v-118h-355z" />
    <glyph glyph-name="omacron" unicode="&#x14d;" horiz-adv-x="569" 
d="M285 116c59 0 88 33 88 72v149c0 40 -29 73 -88 73c-62 0 -89 -35 -89 -73v-149c0 -38 27 -72 89 -72zM285 -12c-154 0 -231 85 -231 195v161c0 109 77 194 231 194c153 0 230 -85 230 -194v-161c0 -110 -77 -195 -230 -195zM120 595v110h331v-110h-331z" />
    <glyph glyph-name="obreve" unicode="&#x14f;" horiz-adv-x="569" 
d="M285 116c59 0 88 33 88 72v149c0 40 -29 73 -88 73c-62 0 -89 -35 -89 -73v-149c0 -38 27 -72 89 -72zM285 -12c-154 0 -231 85 -231 195v161c0 109 77 194 231 194c153 0 230 -85 230 -194v-161c0 -110 -77 -195 -230 -195zM286 590c-98 0 -166 50 -166 137v12h121v-11
c0 -20 11 -36 45 -36c36 0 47 16 47 36v11h119v-12c0 -87 -68 -137 -166 -137z" />
    <glyph glyph-name="Ohungarumlaut" unicode="&#x150;" horiz-adv-x="696" 
d="M348 127c89 0 126 53 126 104v238c0 51 -37 104 -126 104s-126 -53 -126 -104v-238c0 -51 37 -104 126 -104zM348 715c171 0 281 -93 281 -254v-223c0 -160 -110 -253 -281 -253s-281 93 -281 253v223c0 161 110 254 281 254zM175 763l70 150h137v-52l-86 -98h-121z
M365 763l68 150h138v-52l-85 -98h-121z" />
    <glyph glyph-name="ohungarumlaut" unicode="&#x151;" horiz-adv-x="569" 
d="M285 116c59 0 88 33 88 72v149c0 40 -29 73 -88 73c-62 0 -89 -35 -89 -73v-149c0 -38 27 -72 89 -72zM285 -12c-154 0 -231 85 -231 195v161c0 109 77 194 231 194c153 0 230 -85 230 -194v-161c0 -110 -77 -195 -230 -195zM127 590l65 140h128v-49l-80 -91h-113z
M304 590l64 140h128v-49l-79 -91h-113z" />
    <glyph glyph-name="OE" unicode="&#x152;" horiz-adv-x="995" 
d="M348 -15c-171 0 -281 93 -281 253v223c0 161 110 254 281 254c39 0 80 -7 127 -15h460v-135h-305v-150h260v-129h-260v-151h308v-135h-463c-47 -8 -88 -15 -127 -15zM348 127c90 0 127 53 127 104v238c0 51 -37 104 -127 104c-89 0 -126 -53 -126 -104v-238
c0 -51 37 -104 126 -104z" />
    <glyph glyph-name="oe" unicode="&#x153;" horiz-adv-x="878" 
d="M604 -12c-65 0 -121 15 -161 44c-38 -28 -91 -44 -158 -44c-154 0 -231 85 -231 195v161c0 109 77 194 231 194c68 0 121 -17 159 -46c40 30 95 46 160 46c129 0 221 -67 221 -192v-130h-310v-40c2 -35 30 -60 89 -60c44 0 69 17 78 44h142c-10 -108 -91 -172 -220 -172z
M285 116c59 0 88 33 88 72v149c0 40 -29 73 -88 73c-62 0 -89 -35 -89 -73v-149c0 -38 27 -72 89 -72zM515 319h168v27c0 39 -29 64 -84 64s-84 -25 -84 -64v-27z" />
    <glyph glyph-name="Racute" unicode="&#x154;" horiz-adv-x="680" 
d="M87 0v700h304c146 0 221 -82 221 -220c0 -95 -42 -165 -112 -202l132 -227v-51h-151l-146 260h-93v-260h-155zM242 389h123c57 0 90 22 90 89c0 65 -33 87 -90 87h-123v-176zM246 762l70 151h137v-53l-86 -98h-121z" />
    <glyph glyph-name="racute" unicode="&#x155;" horiz-adv-x="391" 
d="M158 526l39 -49c22 26 64 61 131 61h38v-135h-38c-52 0 -83 -11 -109 -43v-360h-142v526h81zM142 590l65 140h128v-49l-80 -91h-113z" />
    <glyph glyph-name="Rcommaaccent" unicode="&#x156;" horiz-adv-x="670" 
d="M87 0v700h304c146 0 221 -82 221 -220c0 -95 -42 -165 -112 -202l132 -227v-51h-151l-146 260h-93v-260h-155zM242 389h123c57 0 90 22 90 89c0 65 -33 87 -90 87h-123v-176zM250 -284l32 217h140v-60l-72 -157h-100z" />
    <glyph glyph-name="uni0157" unicode="&#x157;" horiz-adv-x="391" 
d="M158 526l39 -49c22 26 64 61 131 61h38v-135h-38c-52 0 -83 -11 -109 -43v-360h-142v526h81zM55 -284l29 217h129v-60l-66 -157h-92z" />
    <glyph glyph-name="Rcaron" unicode="&#x158;" horiz-adv-x="680" 
d="M87 0v700h304c146 0 221 -82 221 -220c0 -95 -42 -165 -112 -202l132 -227v-51h-151l-146 260h-93v-260h-155zM242 389h123c57 0 90 22 90 89c0 65 -33 87 -90 87h-123v-176zM261 763l-98 102v48h116l44 -63l43 63h113v-48l-98 -102h-120z" />
    <glyph glyph-name="rcaron" unicode="&#x159;" horiz-adv-x="373" 
d="M158 526l39 -49c22 26 64 61 131 61h38v-135h-38c-52 0 -83 -11 -109 -43v-360h-142v526h81zM151 590l-91 95v45h108l41 -59l40 59h106v-45l-92 -95h-112z" />
    <glyph glyph-name="Sacute" unicode="&#x15a;" horiz-adv-x="652" 
d="M321 -15c-152 0 -279 81 -279 242h155c0 -81 80 -100 138 -100c69 0 102 27 102 67c0 42 -47 57 -134 86l-56 19c-87 29 -188 75 -188 201c0 130 99 215 262 215c152 0 265 -77 265 -239h-156c0 68 -54 97 -113 97c-64 0 -101 -24 -101 -65c0 -49 51 -58 115 -81l52 -18
c113 -39 211 -88 211 -207c0 -125 -89 -217 -273 -217zM240 762l70 151h137v-53l-86 -98h-121z" />
    <glyph glyph-name="sacute" unicode="&#x15b;" horiz-adv-x="549" 
d="M279 -12c-143 0 -231 82 -234 193h138c7 -37 39 -67 109 -67c42 0 69 14 69 37c0 18 -15 32 -46 40l-129 33c-55 14 -128 50 -128 142c0 105 77 172 213 172c129 0 216 -71 220 -183h-137c-13 43 -46 57 -92 57c-45 0 -66 -16 -66 -38c0 -18 16 -25 42 -32l138 -35
c66 -17 123 -57 123 -145c0 -110 -87 -174 -220 -174zM195 590l65 140h128v-49l-80 -91h-113z" />
    <glyph glyph-name="scircumflex" unicode="&#x15d;" horiz-adv-x="549" 
d="M279 -12c-143 0 -231 82 -234 193h138c7 -37 39 -67 109 -67c42 0 69 14 69 37c0 18 -15 32 -46 40l-129 33c-55 14 -128 50 -128 142c0 105 77 172 213 172c129 0 216 -71 220 -183h-137c-13 43 -46 57 -92 57c-45 0 -66 -16 -66 -38c0 -18 16 -25 42 -32l138 -35
c66 -17 123 -57 123 -145c0 -110 -87 -174 -220 -174zM123 590v45l91 95h112l92 -95v-45h-108l-41 46l-40 -46h-106z" />
    <glyph glyph-name="Scaron" unicode="&#x160;" horiz-adv-x="652" 
d="M321 -15c-152 0 -279 81 -279 242h155c0 -81 80 -100 138 -100c69 0 102 27 102 67c0 42 -47 57 -134 86l-56 19c-87 29 -188 75 -188 201c0 130 99 215 262 215c152 0 265 -77 265 -239h-156c0 68 -54 97 -113 97c-64 0 -101 -24 -101 -65c0 -49 51 -58 115 -81l52 -18
c113 -39 211 -88 211 -207c0 -125 -89 -217 -273 -217zM262 763l-98 102v48h116l44 -63l43 63h113v-48l-98 -102h-120z" />
    <glyph glyph-name="scaron" unicode="&#x161;" horiz-adv-x="549" 
d="M279 -12c-143 0 -231 82 -234 193h138c7 -37 39 -67 109 -67c42 0 69 14 69 37c0 18 -15 32 -46 40l-129 33c-55 14 -128 50 -128 142c0 105 77 172 213 172c129 0 216 -71 220 -183h-137c-13 43 -46 57 -92 57c-45 0 -66 -16 -66 -38c0 -18 16 -25 42 -32l138 -35
c66 -17 123 -57 123 -145c0 -110 -87 -174 -220 -174zM217 590l-91 95v45h108l41 -59l40 59h106v-45l-92 -95h-112z" />
    <glyph glyph-name="Tcaron" unicode="&#x164;" horiz-adv-x="574" 
d="M210 0v565h-193v135h540v-135h-192v-565h-155zM228 763l-98 102v48h116l44 -63l43 63h113v-48l-98 -102h-120z" />
    <glyph glyph-name="tcaron" unicode="&#x165;" horiz-adv-x="565" 
d="M291 0c-161 0 -199 102 -199 207v196h-75v123h75v110h142v-110h116v-123h-116v-196c0 -68 28 -84 72 -84h44v-123h-59zM392 488l32 217h140v-60l-72 -157h-100z" />
    <glyph glyph-name="Umacron" unicode="&#x16a;" horiz-adv-x="700" 
d="M350 127c85 0 118 49 118 96v477h155v-471c0 -154 -106 -244 -273 -244s-273 90 -273 244v471h155v-477c0 -47 33 -96 118 -96zM174 768v118h355v-118h-355z" />
    <glyph glyph-name="umacron" unicode="&#x16b;" horiz-adv-x="601" 
d="M403 49l39 -49h82v526h-142v-362c-12 -13 -50 -48 -97 -48c-40 0 -71 25 -71 82v328h-142v-335c0 -127 67 -203 181 -203c71 0 118 32 150 61zM134 595v110h331v-110h-331z" />
    <glyph glyph-name="Uring" unicode="&#x16e;" horiz-adv-x="700" 
d="M350 127c85 0 118 49 118 96v477h155v-471c0 -154 -106 -244 -273 -244s-273 90 -273 244v471h155v-477c0 -47 33 -96 118 -96zM351 817c16 0 31 13 31 30s-15 30 -31 30s-31 -13 -31 -30s15 -30 31 -30zM351 735c-65 0 -119 50 -119 112s54 111 119 111
s119 -49 119 -111s-54 -112 -119 -112z" />
    <glyph glyph-name="uring" unicode="&#x16f;" horiz-adv-x="601" 
d="M403 49l39 -49h82v526h-142v-362c-12 -13 -50 -48 -97 -48c-40 0 -71 25 -71 82v328h-142v-335c0 -127 67 -203 181 -203c71 0 118 32 150 61zM298 640c15 0 29 12 29 28s-14 28 -29 28s-29 -12 -29 -28s14 -28 29 -28zM298 564c-61 0 -111 46 -111 104s50 104 111 104
s111 -46 111 -104s-50 -104 -111 -104z" />
    <glyph glyph-name="Uhungarumlaut" unicode="&#x170;" horiz-adv-x="700" 
d="M350 127c85 0 118 49 118 96v477h155v-471c0 -154 -106 -244 -273 -244s-273 90 -273 244v471h155v-477c0 -47 33 -96 118 -96zM176 763l70 150h137v-52l-86 -98h-121zM366 763l68 150h138v-52l-85 -98h-121z" />
    <glyph glyph-name="uhungarumlaut" unicode="&#x171;" horiz-adv-x="601" 
d="M403 49l39 -49h82v526h-142v-362c-12 -13 -50 -48 -97 -48c-40 0 -71 25 -71 82v328h-142v-335c0 -127 67 -203 181 -203c71 0 118 32 150 61zM140 590l65 140h128v-49l-80 -91h-113zM317 590l64 140h128v-49l-79 -91h-113z" />
    <glyph glyph-name="Uogonek" unicode="&#x172;" horiz-adv-x="700" 
d="M496 -160c-66 0 -106 28 -106 73c0 22 13 50 42 80c-25 -5 -53 -8 -82 -8c-167 0 -273 90 -273 244v471h155v-477c0 -47 33 -96 118 -96s118 49 118 96v477h155v-471c0 -96 -33 -152 -81 -192c-29 -24 -59 -55 -59 -80c0 -23 15 -32 41 -32h30v-85h-58z" />
    <glyph glyph-name="uogonek" unicode="&#x173;" horiz-adv-x="601" 
d="M502 -160c-66 0 -106 28 -106 73c0 24 14 54 46 87l-39 49c-32 -29 -79 -61 -150 -61c-114 0 -181 76 -181 203v335h142v-328c0 -57 31 -82 71 -82c47 0 85 35 97 48v362h142v-526c-25 -21 -35 -37 -35 -53c0 -14 15 -22 41 -22h30v-85h-58z" />
    <glyph glyph-name="Ydieresis" unicode="&#x178;" horiz-adv-x="620" 
d="M232 0v277l-225 372v51h153l151 -278l159 278h143v-51l-225 -366v-283h-156zM125 771v118h152v-118h-152zM347 771v118h152v-118h-152z" />
    <glyph glyph-name="Zacute" unicode="&#x179;" horiz-adv-x="595" 
d="M37 0v134l332 431h-317v135h495v-133l-333 -432h345v-135h-522zM208 762l70 151h137v-53l-86 -98h-121z" />
    <glyph glyph-name="zacute" unicode="&#x17a;" horiz-adv-x="536" 
d="M50 0v123l245 280h-239v123h409v-123l-248 -280h264v-123h-431zM175 590l65 140h128v-49l-80 -91h-113z" />
    <glyph glyph-name="Zdotaccent" unicode="&#x17b;" horiz-adv-x="595" 
d="M37 0v134l332 431h-317v135h495v-133l-333 -432h345v-135h-522zM222 768v118h152v-118h-152z" />
    <glyph glyph-name="zdotaccent" unicode="&#x17c;" horiz-adv-x="536" 
d="M50 0v123l245 280h-239v123h409v-123l-248 -280h264v-123h-431zM190 595v110h142v-110h-142z" />
    <glyph glyph-name="Zcaron" unicode="&#x17d;" horiz-adv-x="595" 
d="M37 0v134l332 431h-317v135h495v-133l-333 -432h345v-135h-522zM244 763l-98 102v48h116l44 -63l43 63h113v-48l-98 -102h-120z" />
    <glyph glyph-name="zcaron" unicode="&#x17e;" horiz-adv-x="536" 
d="M50 0v123l245 280h-239v123h409v-123l-248 -280h264v-123h-431zM208 590l-91 95v45h108l41 -59l40 59h106v-45l-92 -95h-112z" />
    <glyph glyph-name="florin" unicode="&#x192;" horiz-adv-x="375" 
d="M31 526h75c8 121 91 181 214 181c10 0 25 -1 38 -2v-121h-24c-62 0 -82 -22 -86 -58h110v-123h-120l-30 -371c-12 -154 -83 -204 -216 -204c-10 0 -26 1 -36 2v121h22c62 0 83 23 88 83l30 369h-65v123z" />
    <glyph glyph-name="scommaaccent" unicode="&#x219;" horiz-adv-x="549" 
d="M279 -12c-143 0 -231 82 -234 193h138c7 -37 39 -67 109 -67c42 0 69 14 69 37c0 18 -15 32 -46 40l-129 33c-55 14 -128 50 -128 142c0 105 77 172 213 172c129 0 216 -71 220 -183h-137c-13 43 -46 57 -92 57c-45 0 -66 -16 -66 -38c0 -18 16 -25 42 -32l138 -35
c66 -17 123 -57 123 -145c0 -110 -87 -174 -220 -174zM183 -284l29 217h129v-60l-66 -157h-92z" />
    <glyph glyph-name="circumflex" unicode="&#x2c6;" horiz-adv-x="409" 
d="M57 590v45l91 95h112l92 -95v-45h-108l-41 46l-40 -46h-106z" />
    <glyph glyph-name="caron" unicode="&#x2c7;" horiz-adv-x="409" 
d="M148 590l-91 95v45h108l41 -59l40 59h106v-45l-92 -95h-112z" />
    <glyph glyph-name="breve" unicode="&#x2d8;" horiz-adv-x="409" 
d="M205 576c-98 0 -166 50 -166 137v12h121v-11c0 -20 11 -36 45 -36c36 0 47 16 47 36v11h119v-12c0 -87 -68 -137 -166 -137z" />
    <glyph glyph-name="dotaccent" unicode="&#x2d9;" horiz-adv-x="256" 
d="M57 595v110h142v-110h-142z" />
    <glyph glyph-name="ring" unicode="&#x2da;" horiz-adv-x="336" 
d="M168 640c15 0 29 12 29 28s-14 28 -29 28s-29 -12 -29 -28s14 -28 29 -28zM168 564c-61 0 -111 46 -111 104s50 104 111 104s111 -46 111 -104s-50 -104 -111 -104z" />
    <glyph glyph-name="ogonek" unicode="&#x2db;" horiz-adv-x="286" 
d="M153 -160c-66 0 -106 28 -106 73c0 24 15 54 49 87h79c-25 -21 -35 -37 -35 -53c0 -14 15 -22 41 -22h30v-85h-58z" />
    <glyph glyph-name="tilde" unicode="&#x2dc;" horiz-adv-x="482" 
d="M142 581l-85 50c25 58 62 106 122 106c22 0 45 -10 62 -20l24 -15c11 -6 19 -13 34 -13s24 10 41 41l85 -50c-25 -57 -62 -105 -122 -105c-22 0 -45 9 -62 20l-24 15c-11 6 -19 12 -34 12c-14 0 -24 -9 -41 -41z" />
    <glyph glyph-name="hungarumlaut" unicode="&#x2dd;" horiz-adv-x="483" 
d="M57 590l65 140h128v-49l-80 -91h-113zM234 590l64 140h128v-49l-79 -91h-113z" />
    <glyph glyph-name="brevecap" horiz-adv-x="802" 
d="M402 742c-99 0 -167 46 -167 133v13h121v-12c0 -20 12 -36 46 -36c35 0 45 16 45 36v12h120v-13c0 -87 -67 -133 -165 -133z" />
    <glyph glyph-name="uni03A9" unicode="&#x3a9;" horiz-adv-x="727" 
d="M363 573c-90 0 -126 -53 -126 -104v-190c0 -48 13 -125 72 -144v-135h-244v135h72c-54 46 -55 95 -55 148v178c0 161 109 254 281 254s281 -93 281 -254v-178c0 -53 -1 -102 -55 -148h72v-135h-244v135c59 19 72 96 72 144v190c0 51 -36 104 -126 104z" />
    <glyph glyph-name="pi" unicode="&#x3c0;" horiz-adv-x="716" 
d="M125 0v403h-98v123h663v-123h-99v-403h-142v403h-182v-403h-142z" />
    <glyph glyph-name="uni0401" unicode="&#x401;" horiz-adv-x="607" 
d="M87 0v700h461v-135h-306v-150h260v-129h-260v-151h308v-135h-463zM130 767v118h152v-118h-152zM351 767v118h152v-118h-152z" />
    <glyph glyph-name="uni0402" unicode="&#x402;" horiz-adv-x="755" 
d="M188 0v565h-171v135h546v-135h-220v-140c39 5 76 8 115 8c167 0 255 -86 255 -217s-72 -216 -208 -216h-76v135h49c52 0 77 31 77 76c0 48 -26 80 -111 80c-33 0 -69 -3 -101 -8v-283h-155z" />
    <glyph glyph-name="uni0403" unicode="&#x403;" horiz-adv-x="567" 
d="M227 762l70 151h137v-53l-86 -98h-121zM87 0v700h443v-135h-288v-565h-155z" />
    <glyph glyph-name="afii10053" unicode="&#x404;" horiz-adv-x="661" 
d="M340 -15c-173 0 -273 93 -273 252v226c0 159 100 252 273 252c134 0 265 -69 265 -244h-142c0 68 -50 102 -123 102c-80 0 -118 -41 -118 -105v-53h210v-129h-210v-55c0 -63 38 -104 118 -104c73 0 123 34 123 102h142c0 -175 -131 -244 -265 -244z" />
    <glyph glyph-name="afii10054" unicode="&#x405;" horiz-adv-x="652" 
d="M321 -15c-152 0 -279 81 -279 242h155c0 -81 80 -100 138 -100c69 0 102 27 102 67c0 42 -47 57 -134 86l-56 19c-87 29 -188 75 -188 201c0 130 99 215 262 215c152 0 265 -77 265 -239h-156c0 68 -54 97 -113 97c-64 0 -101 -24 -101 -65c0 -49 51 -58 115 -81l52 -18
c113 -39 211 -88 211 -207c0 -125 -89 -217 -273 -217z" />
    <glyph glyph-name="uni0406" unicode="&#x406;" horiz-adv-x="329" 
d="M87 0v700h155v-700h-155z" />
    <glyph glyph-name="uni0407" unicode="&#x407;" horiz-adv-x="329" 
d="M87 0v700h155v-700h-155zM-21 768v118h152v-118h-152zM201 768v118h152v-118h-152z" />
    <glyph glyph-name="uni0408" unicode="&#x408;" horiz-adv-x="588" 
d="M265 -15c-139 0 -248 52 -248 225v32h155v-32c0 -61 36 -83 93 -83c44 0 91 20 91 89v484h155v-490c0 -167 -113 -225 -246 -225z" />
    <glyph glyph-name="uni0409" unicode="&#x409;" horiz-adv-x="1004" 
d="M19 0v142c98 0 123 52 123 238v320h461v-261h159c126 0 200 -85 200 -219s-74 -220 -200 -220h-314v565h-164v-212c0 -247 -87 -353 -265 -353zM603 135h130c34 0 72 24 72 85s-38 84 -72 84h-130v-169z" />
    <glyph glyph-name="uni040A" unicode="&#x40a;" horiz-adv-x="1034" 
d="M478 0v304h-237v-304h-155v700h155v-260h237v260h155v-260h159c126 0 200 -86 200 -220s-74 -220 -200 -220h-314zM633 135h130c34 0 72 24 72 85s-38 84 -72 84h-130v-169z" />
    <glyph glyph-name="uni040B" unicode="&#x40b;" horiz-adv-x="767" 
d="M188 0v565h-171v135h546v-135h-220v-138c34 4 68 6 106 6c127 0 261 -38 261 -211v-222h-155v205c0 55 -35 86 -119 86c-40 0 -67 -2 -93 -5v-286h-155z" />
    <glyph glyph-name="uni040C" unicode="&#x40c;" horiz-adv-x="652" 
d="M87 0v700h155v-282h61l169 282h140v-51l-178 -290l193 -308v-51h-150l-171 282h-64v-282h-155zM266 762l70 151h137v-53l-86 -98h-121z" />
    <glyph glyph-name="uni040E" unicode="&#x40e;" horiz-adv-x="602" 
d="M166 51l74 153l-233 445v51h143l164 -329l146 329h135v-51l-288 -649h-141v51zM303 742c-99 0 -167 46 -167 133v13h121v-12c0 -20 12 -36 46 -36c35 0 45 16 45 36v12h120v-13c0 -87 -67 -133 -165 -133z" />
    <glyph glyph-name="uni040F" unicode="&#x40f;" horiz-adv-x="715" 
d="M286 -137v137h-199v700h155v-565h231v565h155v-700h-200v-137h-142z" />
    <glyph glyph-name="uni0410" unicode="&#x410;" horiz-adv-x="661" 
d="M17 0v51l237 649h152l238 -649v-51h-153l-52 159h-224l-55 -159h-143zM261 288h131l-65 204z" />
    <glyph glyph-name="uni0411" unicode="&#x411;" horiz-adv-x="671" 
d="M87 0v700h494v-135h-339v-125h181c127 0 202 -86 202 -220s-75 -220 -202 -220h-336zM242 135h154c34 0 72 24 72 85s-38 85 -72 85h-154v-170z" />
    <glyph glyph-name="uni0412" unicode="&#x412;" horiz-adv-x="670" 
d="M87 0v700h296c130 0 212 -65 212 -195c0 -65 -24 -112 -75 -142c56 -27 104 -69 104 -165c0 -134 -82 -198 -212 -198h-325zM242 135h164c28 0 61 20 61 73s-33 73 -61 73h-164v-146zM242 410h131c31 0 65 21 65 77s-34 78 -65 78h-131v-155z" />
    <glyph glyph-name="uni0413" unicode="&#x413;" horiz-adv-x="567" 
d="M87 0v700h443v-135h-288v-565h-155z" />
    <glyph glyph-name="uni0414" unicode="&#x414;" horiz-adv-x="728" 
d="M22 -137v272h55c34 44 68 102 68 246v319h468v-565h77v-272h-142v137h-384v-137h-142zM243 135h215v430h-171v-184c0 -138 -23 -195 -44 -246z" />
    <glyph glyph-name="uni0415" unicode="&#x415;" horiz-adv-x="607" 
d="M87 0v700h461v-135h-306v-150h260v-129h-260v-151h308v-135h-463z" />
    <glyph glyph-name="uni0416" unicode="&#x416;" horiz-adv-x="957" 
d="M401 0v283h-66l-152 -283h-156v51l177 307l-163 291v51h142l155 -282h63v282h156v-282h63l155 282h142v-51l-163 -291l177 -307v-51h-156l-152 283h-66v-283h-156z" />
    <glyph glyph-name="uni0417" unicode="&#x417;" horiz-adv-x="633" 
d="M327 -15c-146 0 -280 70 -280 247h155c0 -80 63 -105 127 -105s101 27 101 79c0 53 -38 77 -102 77h-88v129h88c57 0 88 29 88 78c0 47 -32 83 -93 83c-51 0 -102 -25 -102 -105h-156c0 177 123 247 260 247c161 0 248 -93 248 -211c0 -72 -36 -121 -81 -151
c51 -22 95 -69 95 -149c0 -132 -94 -219 -260 -219z" />
    <glyph glyph-name="uni0418" unicode="&#x418;" horiz-adv-x="725" 
d="M87 0v700h155v-422l254 422h142v-700h-155v422l-254 -422h-142z" />
    <glyph glyph-name="uni0419" unicode="&#x419;" horiz-adv-x="725" 
d="M87 0v700h155v-422l254 422h142v-700h-155v422l-254 -422h-142zM363 742c-99 0 -167 46 -167 133v13h121v-12c0 -20 12 -36 46 -36c35 0 45 16 45 36v12h120v-13c0 -87 -67 -133 -165 -133z" />
    <glyph glyph-name="uni041A" unicode="&#x41a;" horiz-adv-x="652" 
d="M87 0v700h155v-282h61l169 282h140v-51l-178 -290l193 -308v-51h-150l-171 282h-64v-282h-155z" />
    <glyph glyph-name="uni041B" unicode="&#x41b;" horiz-adv-x="690" 
d="M19 0v142c98 0 123 52 123 238v320h461v-700h-155v565h-164v-212c0 -247 -87 -353 -265 -353z" />
    <glyph glyph-name="uni041C" unicode="&#x41c;" horiz-adv-x="817" 
d="M87 0v700h150l175 -293l175 293h143v-700h-150v425l-124 -212h-96l-123 212v-425h-150z" />
    <glyph glyph-name="uni041D" unicode="&#x41d;" horiz-adv-x="720" 
d="M87 0v700h155v-282h236v282h155v-700h-155v283h-236v-283h-155z" />
    <glyph glyph-name="uni041E" unicode="&#x41e;" horiz-adv-x="696" 
d="M348 127c89 0 126 53 126 104v238c0 51 -37 104 -126 104s-126 -53 -126 -104v-238c0 -51 37 -104 126 -104zM348 715c171 0 281 -93 281 -254v-223c0 -160 -110 -253 -281 -253s-281 93 -281 253v223c0 161 110 254 281 254z" />
    <glyph glyph-name="uni041F" unicode="&#x41f;" horiz-adv-x="714" 
d="M87 0v700h540v-700h-155v565h-230v-565h-155z" />
    <glyph glyph-name="uni0420" unicode="&#x420;" horiz-adv-x="643" 
d="M87 0v700h314c126 0 200 -86 200 -220s-74 -219 -200 -219h-159v-261h-155zM242 396h130c34 0 72 23 72 84s-38 85 -72 85h-130v-169z" />
    <glyph glyph-name="uni0421" unicode="&#x421;" horiz-adv-x="661" 
d="M343 -15c-180 0 -276 93 -276 252v226c0 159 96 252 276 252c139 0 262 -71 262 -247v-10h-156v10c0 77 -57 105 -116 105c-77 0 -111 -38 -111 -99v-248c0 -61 34 -99 111 -99c59 0 116 25 116 105v10h156v-10c0 -176 -123 -247 -262 -247z" />
    <glyph glyph-name="uni0422" unicode="&#x422;" horiz-adv-x="574" 
d="M210 0v565h-193v135h540v-135h-192v-565h-155z" />
    <glyph glyph-name="uni0423" unicode="&#x423;" horiz-adv-x="602" 
d="M166 51l74 153l-233 445v51h143l164 -329l146 329h135v-51l-288 -649h-141v51z" />
    <glyph glyph-name="uni0424" unicode="&#x424;" horiz-adv-x="896" 
d="M370 -12v87h-36c-147 0 -287 87 -287 252v72c0 166 140 252 287 252h36v75h155v-75h37c147 0 287 -86 287 -252v-72c0 -165 -140 -252 -287 -252h-37v-87h-155zM328 210h42v306h-42c-78 0 -126 -60 -126 -120v-66c0 -61 48 -120 126 -120zM525 210h44
c77 0 125 59 125 120v66c0 60 -48 120 -125 120h-44v-306z" />
    <glyph glyph-name="uni0425" unicode="&#x425;" horiz-adv-x="667" 
d="M27 0v51l211 314l-189 284v51h158l127 -213l136 213h149v-51l-191 -283l213 -315v-51h-158l-153 241l-155 -241h-148z" />
    <glyph glyph-name="uni0426" unicode="&#x426;" horiz-adv-x="736" 
d="M556 -137v137h-469v700h155v-565h223v565h156v-565h77v-272h-142z" />
    <glyph glyph-name="uni0427" unicode="&#x427;" horiz-adv-x="666" 
d="M424 0v246c-34 -5 -68 -9 -105 -9c-128 0 -262 38 -262 211v252h155v-235c0 -55 34 -86 118 -86c31 0 63 2 94 9v312h155v-700h-155z" />
    <glyph glyph-name="uni0428" unicode="&#x428;" horiz-adv-x="1012" 
d="M87 0v700h155v-565h187v565h155v-565h186v565h155v-700h-838z" />
    <glyph glyph-name="uni0429" unicode="&#x429;" horiz-adv-x="1040" 
d="M860 -137v137h-773v700h155v-565h187v565h155v-565h186v565h155v-565h77v-272h-142z" />
    <glyph glyph-name="uni042A" unicode="&#x42a;" horiz-adv-x="715" 
d="M159 0v565h-152v135h307v-261h159c126 0 200 -85 200 -219s-74 -220 -200 -220h-314zM314 135h130c34 0 72 24 72 85s-38 84 -72 84h-130v-169z" />
    <glyph glyph-name="uni042B" unicode="&#x42b;" horiz-adv-x="919" 
d="M677 0v700h155v-700h-155zM87 0v700h155v-261h159c126 0 200 -85 200 -219s-74 -220 -200 -220h-314zM242 135h130c34 0 72 24 72 85s-38 84 -72 84h-130v-169z" />
    <glyph glyph-name="uni042C" unicode="&#x42c;" horiz-adv-x="643" 
d="M87 0v700h155v-261h159c126 0 200 -85 200 -219s-74 -220 -200 -220h-314zM242 135h130c34 0 72 24 72 85s-38 84 -72 84h-130v-169z" />
    <glyph glyph-name="uni042D" unicode="&#x42d;" horiz-adv-x="663" 
d="M323 -15c-134 0 -265 69 -265 244h142c0 -68 50 -102 123 -102c80 0 118 41 118 104v55h-210v129h210v53c0 64 -38 105 -118 105c-73 0 -123 -34 -123 -102h-142c0 175 131 244 265 244c173 0 273 -93 273 -252v-226c0 -159 -100 -252 -273 -252z" />
    <glyph glyph-name="uni042E" unicode="&#x42e;" horiz-adv-x="955" 
d="M617 127c82 0 116 49 116 96v254c0 47 -34 96 -116 96c-83 0 -117 -49 -117 -96v-254c0 -47 34 -96 117 -96zM345 283h-103v-283h-155v700h155v-282h103v52c0 155 106 245 271 245c166 0 272 -90 272 -245v-241c0 -154 -106 -244 -272 -244c-165 0 -271 90 -271 244v54z
" />
    <glyph glyph-name="uni042F" unicode="&#x42f;" horiz-adv-x="666" 
d="M48 0v51l123 214c-68 41 -108 111 -108 203c0 143 76 232 222 232h294v-700h-156v246h-100l-131 -246h-144zM324 375h99v190h-104c-62 0 -99 -22 -99 -93c0 -74 42 -97 104 -97z" />
    <glyph glyph-name="uni0430" unicode="&#x430;" horiz-adv-x="571" 
d="M417 0l-39 49c-38 -36 -82 -61 -159 -61c-95 0 -177 54 -177 158c0 108 69 171 212 171h103v29c0 41 -24 64 -76 64c-54 0 -76 -23 -76 -52h-139c0 105 68 180 215 180c146 0 218 -75 218 -182v-356h-82zM249 113c46 0 77 12 108 46v58h-103c-52 0 -70 -24 -70 -52
c0 -29 21 -52 65 -52z" />
    <glyph glyph-name="uni0431" unicode="&#x431;" horiz-adv-x="577" 
d="M293 -12c-138 0 -231 68 -231 193v182c0 145 41 230 145 262l124 38c28 9 25 32 25 37v5h142v-5c0 -118 -57 -135 -143 -161l-87 -26c-49 -15 -76 -36 -76 -101v-19c20 34 69 73 143 73c100 0 188 -53 188 -192v-91c0 -122 -94 -195 -230 -195zM293 116c59 0 88 33 88 72
v77c0 49 -40 73 -84 73c-42 0 -72 -19 -93 -45v-105c0 -38 27 -72 89 -72z" />
    <glyph glyph-name="uni0432" unicode="&#x432;" horiz-adv-x="585" 
d="M77 0v526h248c112 0 187 -40 187 -141c0 -50 -19 -87 -49 -113c48 -23 73 -61 73 -115c0 -127 -82 -157 -204 -157h-255zM215 119h123c33 0 46 24 46 46c0 28 -13 47 -46 47h-123v-93zM215 316h101c33 0 46 22 46 45c0 27 -13 46 -46 46h-101v-91z" />
    <glyph glyph-name="uni0433" unicode="&#x433;" horiz-adv-x="477" 
d="M77 0v526h363v-123h-221v-403h-142z" />
    <glyph glyph-name="uni0434" unicode="&#x434;" horiz-adv-x="645" 
d="M25 -123v246h49c37 31 47 99 47 170v233h417v-403h75v-246h-138v123h-310v-123h-140zM228 123h168v280h-141v-133c0 -34 -8 -102 -27 -147z" />
    <glyph glyph-name="uni0435" unicode="&#x435;" horiz-adv-x="559" 
d="M285 -12c-138 0 -231 68 -231 193v163c0 121 93 194 231 194c129 0 221 -67 221 -192v-130h-310v-34c0 -38 27 -66 89 -66c44 0 69 17 78 44h142c-10 -108 -91 -172 -220 -172zM196 319h168v27c0 39 -29 64 -84 64s-84 -25 -84 -64v-27z" />
    <glyph glyph-name="uni0436" unicode="&#x436;" horiz-adv-x="798" 
d="M37 0v66l132 201l-124 193v66h117l129 -202h37v202h142v-202h39l128 202h117v-66l-124 -193l132 -201v-66h-126l-124 201h-42v-201h-142v201h-40l-125 -201h-126z" />
    <glyph glyph-name="uni0437" unicode="&#x437;" horiz-adv-x="566" 
d="M287 -12c-152 0 -241 80 -242 208h137c1 -45 26 -79 105 -79c42 0 79 16 79 51c0 27 -21 41 -54 41h-78v114h74c31 0 45 18 45 41c0 29 -27 46 -71 46c-66 0 -88 -35 -89 -77h-137c1 129 81 205 230 205c125 0 215 -61 215 -161c0 -44 -21 -81 -50 -104
c40 -25 63 -65 63 -112c0 -112 -85 -173 -227 -173z" />
    <glyph glyph-name="uni0438" unicode="&#x438;" horiz-adv-x="621" 
d="M77 0v526h142v-307l183 307h142v-526h-142v307l-183 -307h-142z" />
    <glyph glyph-name="uni0439" unicode="&#x439;" horiz-adv-x="621" 
d="M310 576c-98 0 -166 50 -166 137v12h121v-11c0 -20 11 -36 45 -36c36 0 47 16 47 36v11h119v-12c0 -87 -68 -137 -166 -137zM77 0v526h142v-307l183 307h142v-526h-142v307l-183 -307h-142z" />
    <glyph glyph-name="uni043A" unicode="&#x43a;" horiz-adv-x="566" 
d="M77 0v526h142v-202h35l148 202h121v-66l-142 -193l149 -201v-66h-130l-147 201h-34v-201h-142z" />
    <glyph glyph-name="uni043B" unicode="&#x43b;" horiz-adv-x="615" 
d="M126 526h412v-526h-142v403h-137v-194c0 -145 -95 -209 -191 -209h-35v129h14c78 0 79 53 79 133v264z" />
    <glyph glyph-name="uni043C" unicode="&#x43c;" horiz-adv-x="705" 
d="M77 0v526h142l136 -226l131 226h142v-526h-142v307l-101 -177h-65l-101 177v-307h-142z" />
    <glyph glyph-name="uni043D" unicode="&#x43d;" horiz-adv-x="610" 
d="M77 0v526h142v-201h172v201h142v-526h-142v202h-172v-202h-142z" />
    <glyph glyph-name="uni043E" unicode="&#x43e;" horiz-adv-x="569" 
d="M285 116c59 0 88 33 88 72v149c0 40 -29 73 -88 73c-62 0 -89 -35 -89 -73v-149c0 -38 27 -72 89 -72zM285 -12c-154 0 -231 85 -231 195v161c0 109 77 194 231 194c153 0 230 -85 230 -194v-161c0 -110 -77 -195 -230 -195z" />
    <glyph glyph-name="uni043F" unicode="&#x43f;" horiz-adv-x="605" 
d="M77 0v526h451v-526h-142v403h-167v-403h-142z" />
    <glyph glyph-name="uni0440" unicode="&#x440;" horiz-adv-x="600" 
d="M158 526l39 -49c35 32 79 61 154 61c101 0 187 -59 187 -192v-165c0 -134 -86 -193 -187 -193c-71 0 -113 27 -132 43v-191h-142v686h81zM322 116c33 0 74 24 74 75v144c0 50 -41 75 -74 75c-48 0 -80 -27 -103 -50v-194c23 -23 55 -50 103 -50z" />
    <glyph glyph-name="uni0441" unicode="&#x441;" horiz-adv-x="545" 
d="M279 -12c-135 0 -225 73 -225 195v161c0 121 90 194 225 194c130 0 217 -71 217 -199v-6h-142v6c0 43 -27 71 -80 71c-54 0 -78 -26 -78 -64v-166c0 -39 24 -64 78 -64c53 0 80 27 80 69v11h142v-7c0 -126 -91 -201 -217 -201z" />
    <glyph glyph-name="uni0442" unicode="&#x442;" horiz-adv-x="499" 
d="M179 0v403h-162v123h465v-123h-161v-403h-142z" />
    <glyph glyph-name="uni0443" unicode="&#x443;" horiz-adv-x="517" 
d="M146 -160v51l48 109l-177 460v66h131l116 -332l108 332h129v-66l-239 -620h-116z" />
    <glyph glyph-name="uni0444" unicode="&#x444;" horiz-adv-x="829" 
d="M343 -160v196c-20 -22 -60 -48 -119 -48c-85 0 -162 60 -162 182v186c0 123 77 182 162 182c59 0 99 -25 119 -48v215h142v-215c20 23 59 48 119 48c86 0 163 -59 163 -182v-186c0 -122 -77 -182 -163 -182c-60 0 -99 26 -119 48v-196h-142zM271 116c34 0 56 11 72 25
v243c-16 14 -38 26 -72 26s-67 -29 -67 -74v-147c0 -45 33 -73 67 -73zM557 116c35 0 68 28 68 73v147c0 45 -33 74 -68 74c-34 0 -55 -12 -72 -26v-243c17 -14 38 -25 72 -25z" />
    <glyph glyph-name="uni0445" unicode="&#x445;" horiz-adv-x="532" 
d="M37 0v66l140 197l-138 197v66h128l98 -155l101 155h120v-66l-133 -191l143 -203v-66h-127l-106 167l-105 -167h-121z" />
    <glyph glyph-name="uni0446" unicode="&#x446;" horiz-adv-x="631" 
d="M459 -123v123h-382v526h142v-403h161v403h142v-403h77v-246h-140z" />
    <glyph glyph-name="uni0447" unicode="&#x447;" horiz-adv-x="578" 
d="M359 0v173c-22 -5 -53 -11 -98 -11c-129 0 -214 52 -214 178v186h142v-171c0 -48 36 -65 96 -65c34 0 57 5 74 9v227h142v-526h-142z" />
    <glyph glyph-name="uni0448" unicode="&#x448;" horiz-adv-x="825" 
d="M77 0v526h142v-403h123v403h142v-403h122v403h142v-526h-671z" />
    <glyph glyph-name="uni0449" unicode="&#x449;" horiz-adv-x="857" 
d="M685 -123v123h-608v526h142v-403h123v403h142v-403h122v403h142v-403h77v-246h-140z" />
    <glyph glyph-name="uni044A" unicode="&#x44a;" horiz-adv-x="592" 
d="M131 0v403h-134v123h276v-158h125c105 0 167 -72 167 -184s-62 -184 -167 -184h-267zM273 123h89c45 0 61 29 61 61c0 38 -16 61 -61 61h-89v-122z" />
    <glyph glyph-name="uni044B" unicode="&#x44b;" horiz-adv-x="779" 
d="M77 0v526h142v-158h114c104 0 167 -72 167 -184s-63 -184 -167 -184h-256zM219 123h78c45 0 61 29 61 61c0 38 -16 61 -61 61h-78v-122zM560 0v526h142v-526h-142z" />
    <glyph glyph-name="uni044C" unicode="&#x44c;" horiz-adv-x="537" 
d="M77 0v526h142v-158h124c104 0 167 -72 167 -184s-63 -184 -167 -184h-266zM219 123h88c45 0 61 29 61 61c0 38 -16 61 -61 61h-88v-122z" />
    <glyph glyph-name="uni044D" unicode="&#x44d;" horiz-adv-x="553" 
d="M272 -12c-134 0 -222 78 -222 208h142c0 -48 26 -80 85 -80s80 29 80 69v20h-128v114h128v22c0 40 -22 69 -81 69c-56 0 -84 -30 -84 -77h-142c0 132 87 205 222 205c138 0 227 -74 227 -197v-155c0 -124 -89 -198 -227 -198z" />
    <glyph glyph-name="uni044E" unicode="&#x44e;" horiz-adv-x="799" 
d="M519 -12c-151 0 -226 83 -226 191v23h-74v-202h-142v526h142v-201h74v23c0 107 75 190 226 190c150 0 226 -83 226 -190v-169c0 -108 -76 -191 -226 -191zM519 116c56 0 84 31 84 68v157c0 38 -28 69 -84 69c-58 0 -84 -33 -84 -69v-157c0 -36 26 -68 84 -68z" />
    <glyph glyph-name="uni044F" unicode="&#x44f;" horiz-adv-x="571" 
d="M55 0v66l90 124c-56 24 -95 71 -95 163c0 115 71 173 155 173h289v-526h-142v182h-48l-117 -182h-132zM352 403h-106c-41 0 -54 -21 -54 -54c0 -27 13 -53 54 -53h106v107z" />
    <glyph glyph-name="uni0451" unicode="&#x451;" horiz-adv-x="559" 
d="M285 -12c-138 0 -231 68 -231 193v163c0 121 93 194 231 194c129 0 221 -67 221 -192v-130h-310v-34c0 -38 27 -66 89 -66c44 0 69 17 78 44h142c-10 -108 -91 -172 -220 -172zM196 319h168v27c0 39 -29 64 -84 64s-84 -25 -84 -64v-27zM111 595v110h142v-110h-142z
M318 595v110h142v-110h-142z" />
    <glyph glyph-name="uni0452" unicode="&#x452;" horiz-adv-x="601" 
d="M545 239v-216c0 -88 -49 -195 -186 -195c-11 0 -22 0 -37 2v127h21c29 0 60 11 60 68v206c0 58 -32 85 -73 85c-48 0 -87 -36 -99 -50v-266h-142v527h-77v101h77v77h142v-77h182v-101h-182v-126c30 23 71 43 131 43c115 0 183 -77 183 -205z" />
    <glyph glyph-name="uni0453" unicode="&#x453;" horiz-adv-x="477" 
d="M180 590l65 140h128v-49l-80 -91h-113zM77 0v526h363v-123h-221v-403h-142z" />
    <glyph glyph-name="uni0454" unicode="&#x454;" horiz-adv-x="552" 
d="M281 -12c-138 0 -227 74 -227 198v155c0 123 89 197 227 197c135 0 222 -73 222 -205h-142c0 47 -28 77 -84 77c-59 0 -81 -29 -81 -69v-22h128v-114h-128v-20c0 -40 21 -69 80 -69s85 32 85 80h142c0 -130 -88 -208 -222 -208z" />
    <glyph glyph-name="uni0455" unicode="&#x455;" horiz-adv-x="549" 
d="M279 -12c-143 0 -231 82 -234 193h138c7 -37 39 -67 109 -67c42 0 69 14 69 37c0 18 -15 32 -46 40l-129 33c-55 14 -128 50 -128 142c0 105 77 172 213 172c129 0 216 -71 220 -183h-137c-13 43 -46 57 -92 57c-45 0 -66 -16 -66 -38c0 -18 16 -25 42 -32l138 -35
c66 -17 123 -57 123 -145c0 -110 -87 -174 -220 -174z" />
    <glyph glyph-name="uni0456" unicode="&#x456;" horiz-adv-x="296" 
d="M77 0v526h142v-526h-142zM77 595v110h142v-110h-142z" />
    <glyph glyph-name="uni0457" unicode="&#x457;" horiz-adv-x="296" 
d="M-26 595v110h142v-110h-142zM181 595v110h142v-110h-142zM77 0v526h142v-526h-142z" />
    <glyph glyph-name="uni0458" unicode="&#x458;" horiz-adv-x="297" 
d="M78 526h142v-503c0 -88 -49 -195 -186 -195c-11 0 -22 0 -37 2v126h21c29 0 60 11 60 68v502zM78 595v110h142v-110h-142z" />
    <glyph glyph-name="uni0459" unicode="&#x459;" horiz-adv-x="856" 
d="M126 526h412v-158h124c104 0 167 -72 167 -184s-63 -184 -167 -184h-266v403h-137v-194c0 -145 -95 -209 -191 -209h-35v129h14c78 0 79 53 79 133v264zM538 123h88c45 0 61 29 61 61c0 38 -16 61 -61 61h-88v-122z" />
    <glyph glyph-name="uni045A" unicode="&#x45a;" horiz-adv-x="851" 
d="M391 0v202h-172v-202h-142v526h142v-201h172v201h142v-158h124c104 0 167 -72 167 -184s-63 -184 -167 -184h-266zM533 123h88c45 0 61 29 61 61c0 38 -16 61 -61 61h-88v-122z" />
    <glyph glyph-name="uni045B" unicode="&#x45b;" horiz-adv-x="606" 
d="M89 0v527h-77v101h77v77h142v-77h182v-101h-182v-126c30 23 71 43 131 43c115 0 183 -77 183 -205v-239h-142v231c0 58 -32 85 -73 85c-48 0 -87 -36 -99 -50v-266h-142z" />
    <glyph glyph-name="uni045C" unicode="&#x45c;" horiz-adv-x="566" 
d="M217 590l65 140h128v-49l-80 -91h-113zM77 0v526h142v-202h35l148 202h121v-66l-142 -193l149 -201v-66h-130l-147 201h-34v-201h-142z" />
    <glyph glyph-name="uni045E" unicode="&#x45e;" horiz-adv-x="517" 
d="M146 -160v51l48 109l-177 460v66h131l116 -332l108 332h129v-66l-239 -620h-116zM261 576c-98 0 -166 50 -166 137v12h121v-11c0 -20 11 -36 45 -36c36 0 47 16 47 36v11h119v-12c0 -87 -68 -137 -166 -137z" />
    <glyph glyph-name="uni045F" unicode="&#x45f;" horiz-adv-x="605" 
d="M233 -123v123h-156v526h142v-403h167v403h142v-526h-156v-123h-139z" />
    <glyph glyph-name="uni0490" unicode="&#x490;" horiz-adv-x="561" 
d="M87 0v700h295v130h142v-265h-282v-565h-155z" />
    <glyph glyph-name="uni0491" unicode="&#x491;" horiz-adv-x="472" 
d="M77 0v526h218v128h140v-251h-216v-403h-142z" />
    <glyph glyph-name="uni1E61" unicode="&#x1e61;" horiz-adv-x="549" 
d="M279 -12c-143 0 -231 82 -234 193h138c7 -37 39 -67 109 -67c42 0 69 14 69 37c0 18 -15 32 -46 40l-129 33c-55 14 -128 50 -128 142c0 105 77 172 213 172c129 0 216 -71 220 -183h-137c-13 43 -46 57 -92 57c-45 0 -66 -16 -66 -38c0 -18 16 -25 42 -32l138 -35
c66 -17 123 -57 123 -145c0 -110 -87 -174 -220 -174zM206 595v110h142v-110h-142z" />
    <glyph glyph-name="uni1E63" unicode="&#x1e63;" horiz-adv-x="549" 
d="M279 -12c-143 0 -231 82 -234 193h138c7 -37 39 -67 109 -67c42 0 69 14 69 37c0 18 -15 32 -46 40l-129 33c-55 14 -128 50 -128 142c0 105 77 172 213 172c129 0 216 -71 220 -183h-137c-13 43 -46 57 -92 57c-45 0 -66 -16 -66 -38c0 -18 16 -25 42 -32l138 -35
c66 -17 123 -57 123 -145c0 -110 -87 -174 -220 -174zM197 -182v110h142v-110h-142z" />
    <glyph glyph-name="endash" unicode="&#x2013;" horiz-adv-x="606" 
d="M56 254v118h495v-118h-495z" />
    <glyph glyph-name="emdash" unicode="&#x2014;" horiz-adv-x="860" 
d="M56 254v118h748v-118h-748z" />
    <glyph glyph-name="quoteleft" unicode="&#x2018;" horiz-adv-x="249" 
d="M216 705c-20 -116 -32 -192 -46 -268h-140v60l86 208h100z" />
    <glyph glyph-name="quoteright" unicode="&#x2019;" horiz-adv-x="249" 
d="M33 437c20 116 32 192 46 268h140v-60l-86 -208h-100z" />
    <glyph glyph-name="quotesinglbase" unicode="&#x201a;" horiz-adv-x="289" 
d="M33 -123c20 116 32 192 46 268h140v-60l-86 -208h-100z" />
    <glyph glyph-name="quotedblleft" unicode="&#x201c;" horiz-adv-x="457" 
d="M216 705c-20 -116 -32 -192 -46 -268h-140v60l86 208h100zM424 705c-20 -116 -32 -192 -46 -268h-140v60l86 208h100z" />
    <glyph glyph-name="quotedblright" unicode="&#x201d;" horiz-adv-x="457" 
d="M33 437c20 116 32 192 46 268h140v-60l-86 -208h-100zM241 437c20 116 32 192 46 268h140v-60l-86 -208h-100z" />
    <glyph glyph-name="quotedblbase" unicode="&#x201e;" horiz-adv-x="487" 
d="M241 -123c20 116 32 192 46 268h140v-60l-86 -208h-100zM33 -123c20 116 32 192 46 268h140v-60l-86 -208h-100z" />
    <glyph glyph-name="dagger" unicode="&#x2020;" horiz-adv-x="550" 
d="M205 -160v563h-178v123h178v179h142v-179h176v-123h-176v-563h-142z" />
    <glyph glyph-name="daggerdbl" unicode="&#x2021;" horiz-adv-x="550" 
d="M205 -160v276h-178v123h178v164h-178v123h178v179h142v-179h176v-123h-176v-164h176v-123h-176v-276h-142z" />
    <glyph glyph-name="bullet" unicode="&#x2022;" horiz-adv-x="468" 
d="M234 142c-110 0 -177 60 -177 174v8c0 113 67 174 177 174s177 -61 177 -174v-8c0 -113 -67 -174 -177 -174z" />
    <glyph glyph-name="ellipsis" unicode="&#x2026;" horiz-adv-x="775" 
d="M67 0v145h154v-145h-154zM311 0v145h154v-145h-154zM554 0v145h154v-145h-154z" />
    <glyph glyph-name="perthousand" unicode="&#x2030;" horiz-adv-x="1162" 
d="M156 0v51l411 649h80v-51l-411 -649h-80zM197 458c22 0 36 17 36 37v82c0 20 -14 37 -36 37c-23 0 -36 -18 -36 -37v-82c0 -19 13 -37 36 -37zM197 357c-97 0 -160 51 -160 158v42c0 107 63 158 160 158c98 0 160 -51 160 -158v-42c0 -107 -62 -158 -160 -158zM603 86
c22 0 36 17 36 37v82c0 20 -14 37 -36 37c-23 0 -36 -18 -36 -37v-82c0 -19 13 -37 36 -37zM603 -15c-97 0 -160 51 -160 158v42c0 107 63 158 160 158c98 0 160 -51 160 -158v-42c0 -107 -62 -158 -160 -158zM965 86c22 0 36 17 36 37v82c0 20 -14 37 -36 37
c-23 0 -36 -18 -36 -37v-82c0 -19 13 -37 36 -37zM965 -15c-97 0 -160 51 -160 158v42c0 107 63 158 160 158c98 0 160 -51 160 -158v-42c0 -107 -62 -158 -160 -158z" />
    <glyph glyph-name="guilsinglleft" unicode="&#x2039;" horiz-adv-x="336" 
d="M154 105l-120 211l120 210h122v-40l-94 -170l94 -171v-40h-122z" />
    <glyph glyph-name="guilsinglright" unicode="&#x203a;" horiz-adv-x="336" 
d="M302 316l-120 -211h-122v40l94 171l-94 170v40h122z" />
    <glyph glyph-name="fraction" unicode="&#x2044;" horiz-adv-x="405" 
d="M-43 0v51l411 649h80v-51l-411 -649h-80z" />
    <glyph glyph-name="fourinferior" unicode="&#x2084;" horiz-adv-x="363" 
d="M143 700h76v-55l-86 -152h62v64h99v-64h38v-83h-38v-52h-99v52h-171v83z" />
    <glyph glyph-name="Euro" unicode="&#x20ac;" horiz-adv-x="677" 
d="M372 -15c-141 0 -247 70 -259 215h-83v112h84v75h-84v112h85c11 132 99 216 257 216c132 0 249 -71 249 -247v-10h-134v10c0 88 -56 119 -116 119s-106 -27 -114 -88h142v-112h-143v-75h143v-112h-143c7 -57 48 -87 115 -87c70 0 116 31 116 119v10h134v-10
c0 -176 -104 -247 -249 -247z" />
    <glyph glyph-name="uni20B4" unicode="&#x20b4;" horiz-adv-x="702" 
d="M357 -15c-151 0 -247 77 -247 194v47h-70v101h622v-101h-410v-30c0 -55 38 -83 105 -83c69 0 103 35 103 80h142c0 -129 -98 -208 -245 -208zM453 474v30c0 55 -38 83 -105 83c-69 0 -103 -35 -103 -80h-142c0 129 101 208 246 208c154 0 246 -79 246 -203v-38h67v-101
h-622v101h413z" />
    <glyph glyph-name="uni20BD" unicode="&#x20bd;" horiz-adv-x="641" 
d="M109 0v99h-82v112h82v68h-82v123h82v298h288c128 0 202 -82 202 -211s-74 -210 -202 -210h-146v-68h163v-112h-163v-99h-142zM251 402h129c36 0 77 24 77 87s-41 88 -77 88h-129v-175z" />
    <glyph glyph-name="uni2116" unicode="&#x2116;" horiz-adv-x="1037" 
d="M87 0v700h130l228 -411v411h142v-700h-132l-226 410v-410h-142zM830 458c22 0 36 17 36 37v82c0 20 -14 37 -36 37c-23 0 -36 -18 -36 -37v-82c0 -19 13 -37 36 -37zM830 357c-97 0 -160 51 -160 158v42c0 107 63 158 160 158c98 0 160 -51 160 -158v-42
c0 -107 -62 -158 -160 -158zM670 192v108h320v-108h-320z" />
    <glyph glyph-name="trademark" unicode="&#x2122;" horiz-adv-x="688" 
d="M319 377v323h80l80 -134l84 134h77v-323h-80v190l-56 -95h-51l-52 93v-188h-82zM96 377v251h-89v72h260v-72h-89v-251h-82z" />
    <glyph glyph-name="Omega" unicode="&#x2126;" horiz-adv-x="726" 
d="M363 573c-90 0 -126 -53 -126 -104v-190c0 -48 13 -125 72 -144v-135h-244v135h72c-54 46 -55 95 -55 148v178c0 161 109 254 281 254s281 -93 281 -254v-178c0 -53 -1 -102 -55 -148h72v-135h-244v135c59 19 72 96 72 144v190c0 51 -36 104 -126 104z" />
    <glyph glyph-name="partialdiff" unicode="&#x2202;" horiz-adv-x="575" 
d="M257 -12c-125 0 -215 61 -215 166c0 19 1 33 10 126c13 137 99 192 201 192c74 0 124 -39 143 -73c2 20 4 38 4 52c0 104 -82 128 -159 128c-48 0 -84 -6 -109 -11l9 125c35 9 84 14 136 14c157 0 254 -91 254 -240c0 -34 -12 -145 -25 -286
c-11 -125 -112 -193 -249 -193zM268 116c62 0 92 34 95 72l10 110c-19 26 -42 46 -89 46c-45 0 -85 -24 -91 -74c-7 -57 -7 -74 -7 -90c0 -36 26 -64 82 -64z" />
    <glyph glyph-name="Delta" unicode="&#x2206;" horiz-adv-x="661" 
d="M17 0v52l237 648h152l238 -648v-52h-627zM210 135h232l-115 357z" />
    <glyph glyph-name="product" unicode="&#x220f;" horiz-adv-x="681" 
d="M87 -75v775h507v-775h-142v646h-223v-646h-142z" />
    <glyph glyph-name="summation" unicode="&#x2211;" horiz-adv-x="574" 
d="M47 -75v129l144 260l-144 257v129h467v-129h-309l144 -257l-144 -260h322v-129h-480z" />
    <glyph glyph-name="minus" unicode="&#x2212;" horiz-adv-x="579" 
d="M63 254v118h453v-118h-453z" />
    <glyph glyph-name="radical" unicode="&#x221a;" horiz-adv-x="546" 
d="M235 -75l-151 405h-86v106h173l111 -337l154 698h107v-50l-187 -822h-121z" />
    <glyph glyph-name="infinity" unicode="&#x221e;" horiz-adv-x="913" 
d="M263 125c-131 0 -206 92 -206 199s75 198 206 198c70 0 132 -34 189 -88l5 -5l6 5c56 53 114 88 188 88c130 0 205 -91 205 -198s-75 -198 -205 -198c-73 0 -133 36 -190 90l-4 3l-3 -3c-58 -55 -119 -91 -191 -91zM267 259c38 0 66 28 87 49l15 16l-14 16
c-21 20 -50 48 -88 48c-35 0 -68 -24 -68 -64s33 -65 68 -65zM647 259c36 0 69 25 69 65s-33 64 -69 64c-34 0 -58 -20 -83 -45l-18 -19l18 -19c26 -25 50 -46 83 -46z" />
    <glyph glyph-name="integral" unicode="&#x222b;" horiz-adv-x="312" 
d="M228 512v-480c0 -88 -49 -195 -186 -195c-11 0 -24 0 -39 2v126h23c29 0 60 11 60 67v480c0 88 49 195 186 195c11 0 24 0 39 -2v-126h-23c-29 0 -60 -11 -60 -67z" />
    <glyph glyph-name="approxequal" unicode="&#x2248;" horiz-adv-x="544" 
d="M159 116l-96 55c24 54 67 120 137 120c25 0 52 -10 72 -23l28 -18c13 -8 21 -13 36 -13c17 0 29 10 49 46l96 -55c-23 -54 -66 -120 -136 -120c-25 0 -52 10 -72 23l-28 17c-14 8 -22 14 -36 14c-17 0 -29 -10 -50 -46zM159 356l-96 55c24 54 67 120 137 120
c25 0 52 -10 72 -23l28 -18c13 -8 21 -13 36 -13c17 0 29 10 49 46l96 -55c-23 -54 -66 -120 -136 -120c-25 0 -52 10 -72 23l-28 17c-14 8 -22 14 -36 14c-17 0 -29 -10 -50 -46z" />
    <glyph glyph-name="notequal" unicode="&#x2260;" horiz-adv-x="580" 
d="M63 0v51l60 95h-60v118h136l62 98h-198v118h273l87 136h94v-51l-54 -85h54v-118h-130l-61 -98h191v-118h-268l-93 -146h-93z" />
    <glyph glyph-name="lessequal" unicode="&#x2264;" horiz-adv-x="539" 
d="M409 197l-346 151v115l346 152h67v-98l-258 -112l258 -110v-98h-67zM63 0v118h413v-118h-413z" />
    <glyph glyph-name="greaterequal" unicode="&#x2265;" horiz-adv-x="539" 
d="M63 197v98l258 110l-258 112v98h67l346 -152v-115l-346 -151h-67zM63 0v118h413v-118h-413z" />
    <glyph glyph-name="lozenge" unicode="&#x25ca;" horiz-adv-x="564" 
d="M229 0l-182 350l182 350h107l181 -350l-182 -350h-106zM282 178l85 172l-85 172l-84 -172z" />
    <glyph glyph-name="commaaccent" unicode="&#xf6c3;" horiz-adv-x="897" 
d="M337 -284l32 217h140v-60l-72 -157h-100z" />
    <glyph glyph-name="zero.onum" horiz-adv-x="624" 
d="M312 116c70 0 102 47 102 108v78c0 60 -32 108 -102 108s-102 -48 -102 -108v-78c0 -61 32 -108 102 -108zM312 -12c-148 0 -244 82 -244 244v62c0 162 96 244 244 244s244 -82 244 -244v-62c0 -162 -96 -244 -244 -244z" />
    <glyph glyph-name="one.onum" horiz-adv-x="342" 
d="M112 0v334h-66v75l182 117h26v-526h-142z" />
    <glyph glyph-name="two.onum" horiz-adv-x="563" 
d="M44 0v113l259 171c30 20 48 36 48 66c0 29 -22 60 -76 60c-56 0 -88 -31 -88 -81h-142v7c0 114 71 202 228 202c153 0 220 -93 220 -188c0 -86 -57 -133 -114 -165l-100 -57h225v-128h-460z" />
    <glyph glyph-name="three.onum" horiz-adv-x="594" 
d="M297 -172c-148 0 -246 79 -250 236h136c3 -67 42 -108 115 -108c69 0 98 38 98 88c0 53 -33 82 -101 82h-49v128h48c44 0 80 23 80 78c0 39 -26 78 -84 78c-62 0 -92 -39 -98 -89h-135c13 139 98 217 232 217c146 0 224 -86 224 -196c0 -71 -27 -110 -76 -146
c54 -23 101 -79 101 -156c0 -130 -84 -212 -241 -212z" />
    <glyph glyph-name="four.onum" horiz-adv-x="557" 
d="M322 -160v160h-298v113l225 413h126v-51l-189 -347h136v138h142v-138h76v-128h-76v-160h-142z" />
    <glyph glyph-name="five.onum" horiz-adv-x="593" 
d="M291 -172c-136 0 -230 73 -243 201h138c7 -40 44 -73 106 -73c70 0 103 48 103 123c0 67 -39 114 -100 114c-53 0 -75 -24 -91 -47h-136l38 380h392v-128h-282l-13 -118c37 20 63 29 121 29c105 0 213 -59 213 -230c0 -167 -102 -251 -246 -251z" />
    <glyph glyph-name="six.onum" horiz-adv-x="591" 
d="M424 700v-51l-131 -195c10 1 21 2 35 2c117 0 216 -63 216 -217c0 -161 -99 -250 -248 -250c-148 0 -248 89 -248 235c0 62 20 126 68 201l178 275h130zM296 343c-70 0 -106 -45 -106 -113s36 -113 106 -113s106 45 106 113s-36 113 -106 113z" />
    <glyph glyph-name="seven.onum" horiz-adv-x="546" 
d="M146 -160v51l207 507h-188v-76h-131v204h462v-118l-226 -568h-124z" />
    <glyph glyph-name="eight.onum" horiz-adv-x="620" 
d="M310 -12c-158 0 -253 80 -253 214c0 75 46 141 100 165c-49 37 -83 77 -83 152c0 105 83 196 236 196s236 -91 236 -196c0 -75 -33 -115 -81 -152c54 -24 99 -90 99 -165c0 -134 -96 -214 -254 -214zM310 418c50 0 95 26 95 89c0 47 -28 85 -95 85s-95 -38 -95 -85
c0 -63 45 -89 95 -89zM310 310c-61 0 -110 -32 -110 -95c0 -53 34 -99 110 -99s110 46 110 99c0 63 -49 95 -110 95z" />
    <glyph glyph-name="nine.onum" horiz-adv-x="601" 
d="M166 -160v51l131 182c-10 -1 -21 -2 -35 -2c-117 0 -216 63 -216 217c0 161 99 250 248 250c148 0 248 -89 248 -235c0 -62 -18 -127 -68 -201l-178 -262h-130zM294 184c70 0 106 45 106 113s-36 113 -106 113s-106 -45 -106 -113s36 -113 106 -113z" />
    <glyph glyph-name="uniF653" unicode="&#xf653;" horiz-adv-x="555" 
d="M348 -89h-123v81c-111 18 -178 92 -180 189h138c7 -37 39 -67 109 -67c42 0 69 14 69 37c0 18 -15 32 -46 40l-129 33c-55 14 -128 50 -128 142s60 155 167 169v84h123v-91c85 -23 140 -85 143 -173h-137c-13 43 -46 57 -92 57c-45 0 -66 -16 -66 -38
c0 -18 16 -25 42 -32l138 -35c66 -17 123 -57 123 -145c0 -90 -58 -149 -151 -167v-84z" />
    <glyph glyph-name="uniF64E" unicode="&#xf64e;" horiz-adv-x="590" 
d="M323 -12c-123 0 -211 65 -222 170h-69v85h67v41h-67v85h68c11 110 101 169 223 169c126 0 205 -62 216 -178h-130c-9 39 -43 57 -87 57c-46 0 -80 -17 -89 -48h132v-85h-135v-41h135v-85h-129c8 -29 40 -49 86 -49c45 0 79 19 87 61h131c-11 -114 -94 -182 -217 -182z
" />
    <glyph glyph-name="uniF725" unicode="&#xf725;" horiz-adv-x="592" 
d="M45 0v123h68v75h-68v111h68v35c0 121 88 194 215 194c126 0 210 -71 210 -199v-6h-142v6c0 43 -23 71 -68 71c-52 0 -73 -26 -73 -64v-37h115v-111h-115v-75h283v-123h-493z" />
    <glyph glyph-name="uniF727" unicode="&#xf727;" horiz-adv-x="546" 
d="M205 0v72h-125v85h125v45h-125v85h71l-113 173v66h128l109 -184h5l108 184h120v-66l-112 -173h73v-85h-122v-45h122v-85h-122v-72h-142z" />
    <glyph glyph-name="uniF722" unicode="&#xf722;" horiz-adv-x="582" 
d="M262 299h96c39 0 53 22 53 52s-14 52 -53 52h-96v-104zM401 196h-139v-45h106v-85h-106v-66h-142v66h-88v85h88v45h-88v103h88v227h281c95 0 152 -65 152 -167s-57 -163 -152 -163z" />
    <glyph glyph-name="uniF721" unicode="&#xf721;" horiz-adv-x="586" 
d="M296 -12c-125 0 -199 64 -199 165v19h-60v74h512v-74h-318v-13c0 -29 19 -53 72 -53c52 0 67 25 67 39h138c0 -94 -88 -157 -212 -157zM37 282v74h328v10c0 28 -18 55 -70 55c-53 0 -66 -25 -66 -40h-139c0 94 87 157 208 157c127 0 202 -60 202 -163v-19h49v-74h-512z
" />
    <glyph glyph-name="zero.onum.mono" 
d="M308 -12c-148 0 -244 82 -244 244v62c0 162 96 244 244 244s244 -82 244 -244v-62c0 -162 -96 -244 -244 -244zM308 116c70 0 102 47 102 108v88l-149 -187c13 -6 29 -9 47 -9zM206 302v-89l149 188c-13 6 -29 9 -47 9c-70 0 -102 -48 -102 -108z" />
    <glyph glyph-name="one.onum.mono" 
d="M99 0v128h145v206h-106v75l222 117h26v-398h144v-128h-431z" />
    <glyph glyph-name="two.onum.mono" 
d="M70 0v113l259 171c30 20 48 36 48 66c0 29 -22 60 -76 60c-56 0 -88 -31 -88 -81h-142v7c0 114 71 202 228 202c153 0 220 -93 220 -188c0 -86 -57 -133 -114 -165l-100 -57h225v-128h-460z" />
    <glyph glyph-name="three.onum.mono" 
d="M317 -172c-148 0 -246 79 -250 236h136c3 -67 42 -108 115 -108c69 0 98 38 98 88c0 53 -33 82 -101 82h-49v128h48c44 0 80 23 80 78c0 39 -26 78 -84 78c-62 0 -92 -39 -98 -89h-135c13 139 98 217 232 217c146 0 224 -86 224 -196c0 -71 -27 -110 -76 -146
c54 -23 101 -79 101 -156c0 -130 -84 -212 -241 -212z" />
    <glyph glyph-name="four.onum.mono" 
d="M350 -160v160h-298v113l225 413h126v-51l-189 -347h136v138h142v-138h76v-128h-76v-160h-142z" />
    <glyph glyph-name="five.onum.mono" 
d="M309 -172c-136 0 -230 73 -243 201h138c7 -40 44 -73 106 -73c70 0 103 48 103 123c0 67 -39 114 -100 114c-53 0 -75 -24 -91 -47h-136l38 380h392v-128h-282l-13 -118c37 20 63 29 121 29c105 0 213 -59 213 -230c0 -167 -102 -251 -246 -251z" />
    <glyph glyph-name="six.onum.mono" 
d="M445 700v-51l-131 -195c10 1 21 2 35 2c117 0 216 -63 216 -217c0 -161 -99 -250 -248 -250c-148 0 -248 89 -248 235c0 62 20 126 68 201l178 275h130zM317 343c-70 0 -106 -45 -106 -113s36 -113 106 -113s106 45 106 113s-36 113 -106 113z" />
    <glyph glyph-name="seven.onum.mono" 
d="M192 -160v51l207 507h-188v-76h-131v204h462v-118l-226 -568h-124z" />
    <glyph glyph-name="eight.onum.mono" 
d="M311 -12c-158 0 -253 80 -253 214c0 75 46 141 100 165c-49 37 -83 77 -83 152c0 105 83 196 236 196s236 -91 236 -196c0 -75 -33 -115 -81 -152c54 -24 99 -90 99 -165c0 -134 -96 -214 -254 -214zM311 418c50 0 95 26 95 89c0 47 -28 85 -95 85s-95 -38 -95 -85
c0 -63 45 -89 95 -89zM311 310c-61 0 -110 -32 -110 -95c0 -53 34 -99 110 -99s110 46 110 99c0 63 -49 95 -110 95z" />
    <glyph glyph-name="nine.onum.mono" 
d="M177 -160v51l131 182c-10 -1 -21 -2 -35 -2c-117 0 -216 63 -216 217c0 161 99 250 248 250c148 0 248 -89 248 -235c0 -62 -18 -127 -68 -201l-178 -262h-130zM305 184c70 0 106 45 106 113s-36 113 -106 113s-106 -45 -106 -113s36 -113 106 -113z" />
    <glyph glyph-name="uniF653.mono" 
d="M386 -89h-123v81c-111 18 -178 92 -180 189h138c7 -37 39 -67 109 -67c42 0 69 14 69 37c0 18 -15 32 -46 40l-129 33c-55 14 -128 50 -128 142s60 155 167 169v84h123v-91c85 -23 140 -85 143 -173h-137c-13 43 -46 57 -92 57c-45 0 -66 -16 -66 -38
c0 -18 16 -25 42 -32l138 -35c66 -17 123 -57 123 -145c0 -90 -58 -149 -151 -167v-84z" />
    <glyph glyph-name="uniF64E.mono" 
d="M341 -12c-123 0 -211 65 -222 170h-69v85h67v41h-67v85h68c11 110 101 169 223 169c126 0 205 -62 216 -178h-130c-9 39 -43 57 -87 57c-46 0 -80 -17 -89 -48h132v-85h-135v-41h135v-85h-129c8 -29 40 -49 86 -49c45 0 79 19 87 61h131c-11 -114 -94 -182 -217 -182z
" />
    <glyph glyph-name="uniF725.mono" 
d="M64 0v123h68v75h-68v111h68v35c0 121 88 194 215 194c126 0 210 -71 210 -199v-6h-142v6c0 43 -23 71 -68 71c-52 0 -73 -26 -73 -64v-37h115v-111h-115v-75h283v-123h-493z" />
    <glyph glyph-name="uniF727.mono" 
d="M242 0v72h-125v85h125v45h-125v85h71l-113 173v66h128l109 -184h5l108 184h120v-66l-112 -173h73v-85h-122v-45h122v-85h-122v-72h-142z" />
    <glyph glyph-name="uniF722.mono" 
d="M266 299h96c39 0 53 22 53 52s-14 52 -53 52h-96v-104zM405 196h-139v-45h106v-85h-106v-66h-142v66h-88v85h88v45h-88v103h88v227h281c95 0 152 -65 152 -167s-57 -163 -152 -163z" />
    <glyph glyph-name="uniF721.mono" 
d="M317 -12c-125 0 -199 64 -199 165v19h-60v74h512v-74h-318v-13c0 -29 19 -53 72 -53c52 0 67 25 67 39h138c0 -94 -88 -157 -212 -157zM58 282v74h328v10c0 28 -18 55 -70 55c-53 0 -66 -25 -66 -40h-139c0 94 87 157 208 157c127 0 202 -60 202 -163v-19h49v-74h-512z
" />
    <glyph glyph-name="zero.mono" 
d="M310 -15c-147 0 -241 83 -241 242v246c0 159 94 242 241 242c149 0 243 -83 243 -242v-246c0 -159 -94 -242 -243 -242zM211 481v-209l165 294c-16 13 -37 21 -65 21c-69 0 -100 -48 -100 -106zM311 113c70 0 100 47 100 105v209l-166 -294c16 -13 38 -20 66 -20z" />
    <glyph glyph-name="one.mono" 
d="M100 0v128h145v379h-106v76l222 117h26v-572h144v-128h-431z" />
    <glyph glyph-name="two.mono" 
d="M72 0v116l211 212c97 97 107 122 107 171c0 43 -21 88 -87 88c-76 0 -95 -57 -96 -117h-135c0 153 95 245 230 245c157 0 230 -107 230 -215c0 -101 -40 -153 -142 -251l-126 -121h270v-128h-462z" />
    <glyph glyph-name="three.mono" 
d="M316 -15c-149 0 -245 90 -247 250h136c2 -70 36 -122 117 -122c67 0 96 40 96 93c0 57 -40 91 -109 91h-41v129h31c59 0 97 22 97 82c0 45 -28 79 -82 79c-75 0 -98 -56 -100 -117h-136c0 154 90 245 233 245c146 0 224 -86 224 -195c0 -71 -27 -115 -76 -152
c54 -24 101 -87 101 -166c0 -133 -86 -217 -244 -217z" />
    <glyph glyph-name="four.mono" 
d="M345 0v124h-297v109l224 467h125v-51l-189 -397h137v159h142v-159h77v-128h-77v-124h-142z" />
    <glyph glyph-name="five.mono" 
d="M304 -15c-136 0 -230 77 -243 213h138c7 -47 46 -85 108 -85c70 0 101 51 101 130c0 71 -33 121 -97 121c-57 0 -81 -29 -94 -51h-136l38 387h392v-128h-282l-13 -121c34 19 63 29 121 29c105 0 213 -61 213 -237c0 -172 -102 -258 -246 -258z" />
    <glyph glyph-name="six.mono" 
d="M445 700v-51l-131 -199c10 1 21 2 35 2c117 0 216 -63 216 -217c0 -161 -99 -250 -248 -250c-148 0 -248 89 -248 235c0 62 20 126 68 201l178 279h130zM317 339c-70 0 -106 -45 -106 -113s36 -113 106 -113s106 45 106 113s-36 113 -106 113z" />
    <glyph glyph-name="seven.mono" 
d="M194 0v51l202 521h-185v-77h-131v205h462v-120l-220 -580h-128z" />
    <glyph glyph-name="eight.mono" 
d="M311 -15c-158 0 -253 81 -253 214c0 78 46 142 100 168c-49 35 -83 77 -83 152c0 105 83 196 236 196s236 -91 236 -196c0 -75 -33 -117 -81 -152c54 -26 99 -90 99 -168c0 -133 -96 -214 -254 -214zM311 113c76 0 110 47 110 100c0 62 -49 97 -110 97s-110 -35 -110 -97
c0 -53 34 -100 110 -100zM311 418c50 0 95 26 95 89c0 47 -28 85 -95 85s-95 -38 -95 -85c0 -63 45 -89 95 -89z" />
    <glyph glyph-name="nine.mono" 
d="M177 0v51l131 199c-11 -1 -21 -2 -35 -2c-117 0 -216 63 -216 217c0 161 99 250 248 250c148 0 248 -89 248 -235c0 -62 -20 -126 -68 -201l-178 -279h-130zM305 361c70 0 106 45 106 113s-36 113 -106 113s-106 -45 -106 -113s36 -113 106 -113z" />
    <glyph glyph-name="dollar.mono" 
d="M59 227h142c0 -89 58 -114 118 -114s93 31 93 76c0 41 -31 56 -65 72l-95 43c-109 51 -176 92 -176 206c0 108 71 181 172 201v91h141v-95c81 -19 162 -96 162 -228h-142c0 81 -42 108 -100 108c-50 0 -88 -27 -88 -71c0 -50 38 -64 102 -93c122 -57 234 -93 234 -221
c0 -102 -50 -186 -168 -213v-108h-141v107c-107 16 -189 96 -189 239z" />
    <glyph glyph-name="Euro.mono" 
d="M358 -15c-141 0 -247 70 -259 215h-83v112h84v75h-84v112h85c11 132 99 216 257 216c132 0 249 -71 249 -247v-10h-134v10c0 88 -56 119 -116 119s-106 -27 -114 -88h142v-112h-143v-75h143v-112h-143c7 -57 48 -87 115 -87c70 0 116 31 116 119v10h134v-10
c0 -176 -104 -247 -249 -247z" />
    <glyph glyph-name="sterling.mono" 
d="M50 0v128h65v161h-65v128h65v103c0 122 89 195 224 195c131 0 219 -71 219 -212v-33h-142v34c0 56 -27 83 -79 83c-59 0 -80 -32 -80 -72v-98h120v-128h-120v-161h301v-128h-508z" />
    <glyph glyph-name="yen.mono" 
d="M237 0v93h-155v112h155v75h-155v112h103l-155 257v51h130l149 -263l154 263h128v-51l-160 -257h107v-112h-159v-75h159v-112h-159v-93h-142z" />
    <glyph glyph-name="uni20BD.mono" 
d="M111 0v99h-82v112h82v68h-82v123h82v298h288c128 0 202 -82 202 -211s-74 -210 -202 -210h-146v-68h163v-112h-163v-99h-142zM253 402h129c36 0 77 24 77 87s-41 88 -77 88h-129v-175z" />
    <glyph glyph-name="uni20B4.mono" 
d="M317 -15c-151 0 -247 77 -247 194v47h-70v101h622v-101h-410v-30c0 -55 38 -83 105 -83c69 0 103 35 103 80h142c0 -129 -98 -208 -245 -208zM413 474v30c0 55 -38 83 -105 83c-69 0 -103 -35 -103 -80h-142c0 129 101 208 246 208c154 0 246 -79 246 -203v-38h67v-101
h-622v101h413z" />
    <glyph glyph-name="a.alt1" horiz-adv-x="600" 
d="M249 -12c-101 0 -187 59 -187 193v165c0 133 86 192 187 192c75 0 116 -27 151 -59l42 47h81v-526h-81l-42 48c-35 -33 -76 -60 -151 -60zM381 166v194c-23 23 -55 50 -103 50c-33 0 -74 -25 -74 -75v-144c0 -51 41 -75 74 -75c48 0 80 27 103 50z" />
    <glyph glyph-name="agrave.alt1" horiz-adv-x="600" 
d="M249 -12c-101 0 -187 59 -187 193v165c0 133 86 192 187 192c75 0 116 -27 151 -59l42 47h81v-526h-81l-42 48c-35 -33 -76 -60 -151 -60zM381 166v194c-23 23 -55 50 -103 50c-33 0 -74 -25 -74 -75v-144c0 -51 41 -75 74 -75c48 0 80 27 103 50zM260 590l-79 91v49h128
l65 -140h-114z" />
    <glyph glyph-name="aacute.alt1" horiz-adv-x="600" 
d="M249 -12c-101 0 -187 59 -187 193v165c0 133 86 192 187 192c75 0 116 -27 151 -59l42 47h81v-526h-81l-42 48c-35 -33 -76 -60 -151 -60zM381 166v194c-23 23 -55 50 -103 50c-33 0 -74 -25 -74 -75v-144c0 -51 41 -75 74 -75c48 0 80 27 103 50zM236 590l65 140h128
v-49l-80 -91h-113z" />
    <glyph glyph-name="acircumflex.alt1" horiz-adv-x="600" 
d="M249 -12c-101 0 -187 59 -187 193v165c0 133 86 192 187 192c75 0 116 -27 151 -59l42 47h81v-526h-81l-42 48c-35 -33 -76 -60 -151 -60zM381 166v194c-23 23 -55 50 -103 50c-33 0 -74 -25 -74 -75v-144c0 -51 41 -75 74 -75c48 0 80 27 103 50zM160 590v45l91 95h112
l92 -95v-45h-108l-41 46l-40 -46h-106z" />
    <glyph glyph-name="atilde.alt1" horiz-adv-x="600" 
d="M249 -12c-101 0 -187 59 -187 193v165c0 133 86 192 187 192c75 0 116 -27 151 -59l42 47h81v-526h-81l-42 48c-35 -33 -76 -60 -151 -60zM381 166v194c-23 23 -55 50 -103 50c-33 0 -74 -25 -74 -75v-144c0 -51 41 -75 74 -75c48 0 80 27 103 50zM210 581l-85 50
c25 58 62 106 122 106c22 0 45 -10 62 -20l24 -15c11 -6 19 -13 34 -13s24 10 41 41l85 -50c-25 -57 -62 -105 -122 -105c-22 0 -45 9 -62 20l-24 15c-11 6 -19 12 -34 12c-14 0 -24 -9 -41 -41z" />
    <glyph glyph-name="adieresis.alt1" horiz-adv-x="600" 
d="M249 -12c-101 0 -187 59 -187 193v165c0 133 86 192 187 192c75 0 116 -27 151 -59l42 47h81v-526h-81l-42 48c-35 -33 -76 -60 -151 -60zM381 166v194c-23 23 -55 50 -103 50c-33 0 -74 -25 -74 -75v-144c0 -51 41 -75 74 -75c48 0 80 27 103 50zM118 595v110h142v-110
h-142zM325 595v110h142v-110h-142z" />
    <glyph glyph-name="aring.alt1" horiz-adv-x="600" 
d="M249 -12c-101 0 -187 59 -187 193v165c0 133 86 192 187 192c75 0 116 -27 151 -59l42 47h81v-526h-81l-42 48c-35 -33 -76 -60 -151 -60zM381 166v194c-23 23 -55 50 -103 50c-33 0 -74 -25 -74 -75v-144c0 -51 41 -75 74 -75c48 0 80 27 103 50zM309 640
c15 0 29 12 29 28s-14 28 -29 28s-29 -12 -29 -28s14 -28 29 -28zM309 564c-61 0 -111 46 -111 104s50 104 111 104s111 -46 111 -104s-50 -104 -111 -104z" />
    <glyph glyph-name="amacron.alt1" horiz-adv-x="600" 
d="M249 -12c-101 0 -187 59 -187 193v165c0 133 86 192 187 192c75 0 116 -27 151 -59l42 47h81v-526h-81l-42 48c-35 -33 -76 -60 -151 -60zM381 166v194c-23 23 -55 50 -103 50c-33 0 -74 -25 -74 -75v-144c0 -51 41 -75 74 -75c48 0 80 27 103 50zM141 595v110h331v-110
h-331z" />
    <glyph glyph-name="aogonek.alt1" horiz-adv-x="600" 
d="M501 -160c-66 0 -106 28 -106 73c0 24 14 54 47 87l-42 48c-35 -33 -76 -60 -151 -60c-101 0 -187 59 -187 193v165c0 133 86 192 187 192c75 0 116 -27 151 -59l42 47h81v-526c-25 -21 -35 -37 -35 -53c0 -14 15 -22 41 -22h30v-85h-58zM381 166v194
c-23 23 -55 50 -103 50c-33 0 -74 -25 -74 -75v-144c0 -51 41 -75 74 -75c48 0 80 27 103 50z" />
    <glyph glyph-name="t.alt1" horiz-adv-x="370" 
d="M114 0v403h-84v123h84v179h142v-179h84v-123h-84v-403h-142z" />
    <glyph glyph-name="tcaron.alt1" horiz-adv-x="540" 
d="M114 0v403h-84v123h84v179h142v-179h84v-123h-84v-403h-142zM392 488l32 217h140v-60l-72 -157h-100z" />
    <glyph glyph-name="J.alt1" horiz-adv-x="575" 
d="M264 -15c-137 0 -247 64 -247 225v32h155v-26c0 -66 42 -89 92 -89s92 23 92 89v349h-197v135h352v-490c0 -161 -110 -225 -247 -225z" />
    <glyph glyph-name="ampersand.alt1" horiz-adv-x="647" 
d="M353 204v136h276v-136h-60c-10 -136 -116 -216 -266 -216c-154 0 -263 84 -263 225c0 82 40 140 88 173c-33 34 -52 68 -52 128c0 119 91 195 222 195c142 0 224 -83 223 -219h-158c0 44 -15 79 -63 79c-39 0 -60 -26 -60 -61s22 -59 68 -59h7v-136h-27
c-53 0 -90 -33 -90 -90c0 -49 34 -93 107 -93c72 0 106 33 106 74h-58z" />
    <glyph glyph-name="ampersand.alt2" horiz-adv-x="629" 
d="M390 564h-98c-25 0 -52 -16 -52 -61c0 -43 27 -59 52 -59h85l69 76h89v-76h69v-136h-69v-308h-234c-170 0 -256 65 -256 207c0 80 44 144 100 168c-50 31 -72 79 -72 140c0 121 85 185 217 185h100v-136zM285 141h92v167h-92c-34 0 -72 -22 -72 -85c0 -60 38 -82 72 -82z
" />
    <glyph glyph-name="uni0430.alt1" horiz-adv-x="600" 
d="M249 -12c-101 0 -187 59 -187 193v165c0 133 86 192 187 192c75 0 116 -27 151 -59l42 47h81v-526h-81l-42 48c-35 -33 -76 -60 -151 -60zM381 166v194c-23 23 -55 50 -103 50c-33 0 -74 -25 -74 -75v-144c0 -51 41 -75 74 -75c48 0 80 27 103 50z" />
    <glyph glyph-name="at.alt1" horiz-adv-x="752" 
d="M451 227c42 0 72 12 101 46v53h-96c-51 0 -66 -25 -66 -49c0 -29 20 -50 61 -50zM552 433v13c0 84 -51 136 -135 136h-82c-91 0 -146 -56 -146 -147v-325c0 -91 55 -147 146 -147h107v-123h-107c-174 0 -269 116 -269 270v325c0 154 95 270 269 270h82
c174 0 269 -116 269 -270v-325h-77l-39 48c-36 -36 -76 -60 -148 -60c-88 0 -166 55 -166 170c0 100 67 165 199 165h97z" />
    <glyph glyph-name="uni0423.alt1" horiz-adv-x="602" 
d="M135 0v142h32c30 0 51 19 74 62l-234 445v51h143l164 -329l146 329h135v-51l-200 -449c-70 -157 -105 -200 -247 -200h-13z" />
    <glyph glyph-name="uni040E.alt1" horiz-adv-x="602" 
d="M135 0v142h32c30 0 51 19 74 62l-234 445v51h143l164 -329l146 329h135v-51l-200 -449c-70 -157 -105 -200 -247 -200h-13zM307 742c-99 0 -167 46 -167 133v13h121v-12c0 -20 12 -36 46 -36c35 0 45 16 45 36v12h120v-13c0 -87 -67 -133 -165 -133z" />
    </font>
</defs>
</svg>
